<?xml version="1.0" encoding="UTF-8"?>
<!-- Generator: Blender, SVG Export for Grease Pencil - v2.0 -->
<!DOCTYPE svg PUBLIC "-//W3C//DTD SVG 1.1//EN" "http://www.w3.org/Graphics/SVG/1.1/DTD/svg11.dtd">
<svg version="1.1" x="0px" y="0px" xmlns="http://www.w3.org/2000/svg" width="1920.000000px" height="1080.000000px" viewBox="0 0 1920.000000 1080.000000">
	<g id="blender_frame.5">
		<g id="blender_object.Stroke.5.uuid_0x0">
			<g id="layer.hair.uuid_0x1">
				<polyline points="538.379517,792.764160 504.172211,808.832336 251.671097,662.458862 152.358627,617.142761 121.634224,541.637512 149.381042,443.994995 349.139160,506.863281 507.974396,633.814148" fill="#000000" stroke="none" fill-opacity="1" />
				<polyline points="219.349136,166.768066 253.425018,209.499023 272.648621,247.012024 290.940399,276.304993 333.432190,152.523926 273.339630,110.575500 240.834061,88.070435 167.137253,127.257751 176.004364,228.781067 175.722488,252.352417 174.700989,276.827332 171.970764,330.212463 162.735901,377.441040 140.607605,435.441589 121.484352,496.113281 118.064407,519.935303 123.531708,566.627075 159.025330,628.166748 246.816040,685.447815 326.759094,728.816284 430.007446,877.992249 451.842224,959.745483 458.322693,887.981262 489.124176,816.248901 498.149872,810.226440 519.385742,800.115112 513.677856,776.302856 506.527405,730.779663 498.165924,687.980042 511.999542,706.854614 529.421448,750.563354 534.754822,790.070129 555.727356,786.708008 552.456421,734.585266 548.240417,707.730835 532.935791,665.799866 505.374084,603.977417 442.751953,542.955383 364.109528,510.278931 297.013947,472.027222 271.215118,442.256042 258.670288,412.871399 251.018829,381.440002 247.571823,357.915833 243.892075,317.996765 244.386932,279.030701 240.311737,236.748291 241.918106,197.874084" fill="#C1DFDD" stroke="none" fill-opacity="1" />
				<path d="M220.732498,165.664978L220.490631,165.416321L220.204987,165.219543L219.886505,165.082275L219.547302,165.009888L219.200378,165.005066L218.859329,165.067932L218.537003,165.196106L218.245987,165.384827L217.997314,165.626587L217.800537,165.912292L217.663361,166.230835L217.590866,166.570129L217.586060,166.916809L217.648834,167.257935L217.777130,167.580200L217.965790,167.871338L251.480316,210.754700L269.303101,248.726440L287.796539,278.268127L288.261505,278.866455L288.838348,279.357727L289.503174,279.721375L290.227966,279.942322L290.982513,280.011169L291.735321,279.925171L292.454926,279.687805L293.111176,279.309204L293.676727,278.804932L294.127991,278.196167L294.445953,277.508423L335.666382,153.290894L335.788208,152.694458L335.753540,152.086792L335.564758,151.508057L335.234344,150.996826L334.784241,150.587036L274.902618,108.336609L242.648849,85.449158L241.873184,85.056213L241.020203,84.887573L240.153351,84.955627L239.337158,85.255371L164.368118,122.050232L163.236877,122.833496L162.317902,123.857666L161.661255,125.066956L161.302643,126.395569L161.261612,127.770874L172.515732,228.912231L172.214752,252.258301L171.544647,276.680725L169.447342,329.902832L159.766861,376.591125L136.153564,433.742310L115.733589,494.300598L112.095970,519.078369L117.542953,567.328308L118.308571,569.639648L152.254028,632.072205L154.753891,634.713379L243.939529,689.856384L324.161163,731.712158L426.521210,879.604614L444.421936,961.727295L444.961273,963.157349L445.773071,964.452271L446.825256,965.560852L448.076019,966.439087L449.476044,967.052307L450.969635,967.376160L452.497833,967.397827L454.000122,967.116516L455.416931,966.543274L456.692169,965.700928L457.775360,964.622681L458.623657,963.351318L459.203369,961.937195L459.491547,960.436218L464.741455,889.605347L493.145721,819.595093L499.985077,813.458496L520.123718,801.665039L520.453491,801.459229L520.728516,801.184509L520.934753,800.854980L521.061462,800.487488L521.102295,800.100830L521.054993,799.714966L515.363159,775.969055L508.223175,730.513367L500.785461,693.962891L510.743866,707.550171L527.175659,751.152954L531.835327,790.464233L531.999939,791.113708L532.307068,791.709229L532.740784,792.219971L533.278687,792.619507L533.892883,792.887146L534.551697,793.009033L535.221069,792.978882L556.351562,790.601257L557.279907,790.332397L558.115112,789.845825L558.806641,789.170654L559.313293,788.347534L559.604431,787.425903L559.662598,786.461060L557.582397,734.263550L553.390137,706.922363L536.892456,664.355713L508.661835,602.511658L507.886292,601.399292L444.890747,540.760437L443.927826,540.125244L365.461639,507.522095L299.501801,468.997131L274.204620,440.386780L261.592896,411.899231L254.110794,380.838501L250.804596,357.530273L247.316055,317.861084L247.823807,279.074402L242.355423,236.692322L243.964539,197.958618L243.941635,197.557739L243.841095,197.169006L243.666641,196.807495L243.424942,196.486816L243.125336,196.219482L242.779312,196.015869L242.400299,195.883484L242.002716,195.827759L241.601776,195.850525L241.213135,195.951111L240.851486,196.125549L240.530960,196.367249L240.263611,196.666870L240.059906,197.012817L239.927628,197.391907L239.871765,197.789490L238.273834,236.664124L240.947739,279.174194L240.470367,317.953308L244.330902,358.214600L247.905579,381.896179L255.687805,413.597473L268.011475,443.623657L294.093414,474.558167L362.591675,512.941345L441.033722,545.560059L502.367401,606.073730L529.029236,667.381409L543.169434,709.041138L547.345642,735.145630L551.567993,783.381592L537.270264,786.683350L531.705200,750.255005L513.322266,706.327393L499.314301,687.138306L499.115845,686.919434L498.876556,686.746216L498.606598,686.626099L498.317780,686.564331L498.022369,686.563354L497.733215,686.623535L497.462585,686.742004L497.222198,686.913818L497.022430,687.131470L496.872070,687.385620L496.777161,687.665466L496.742126,687.958801L496.768463,688.253052L504.836517,731.077576L511.982117,776.569214L517.392273,799.163086L496.556305,806.879395L486.340240,812.076843L485.268646,813.040894L484.515503,814.269958L452.314301,885.401367L448.087769,915.923340L433.663513,877.015747L329.870697,726.662598L328.563599,725.489990L249.513748,680.922607L164.862610,622.641846L129.376099,564.691284L124.144646,520.014343L127.383041,497.456848L145.111938,437.009155L165.610718,378.537842L174.459686,330.699158L177.856583,276.988708L179.228210,252.498657L179.490799,228.822754L173.352356,130.632751L240.615982,91.797180L271.781128,112.817505L330.619690,153.441467L289.961761,267.740234L275.921478,245.155884L255.474869,208.448547z" fill="#000000" stroke="none" fill-opacity="1" />
				<polyline points="294.382996,618.297852 195.426361,570.022827 162.705063,530.464478 155.496658,500.027649 184.573456,525.225403 230.334824,567.722900" fill="#000000" stroke="none" fill-opacity="1" />
			</g>
			<g id="layer.legs.uuid_0x2">
				<polyline points="348.449554,1024.136108 344.314667,1068.708496 381.804840,1052.843262 388.770294,1021.491150" fill="#000000" stroke="none" fill-opacity="1" />
				<polyline points="438.861481,1020.628601 406.062531,1018.321106 410.473999,1048.641724 434.188232,1057.170654 459.645325,1059.829712 491.668854,1054.961670" fill="#000000" stroke="none" fill-opacity="1" />
				<polyline points="356.456848,596.859192 463.329559,822.182190 538.507446,985.502258 197.417389,945.483582 231.414703,768.499023 256.408752,578.420898" fill="#1D0021" stroke="none" fill-opacity="1" />
				<path d="M358.785370,595.754761L358.525208,595.321655L358.185486,594.947693L357.779388,594.647217L357.322418,594.431641L356.832184,594.309448L356.327545,594.285278L355.827911,594.359863L355.352386,594.530640L354.919342,594.790833L354.545349,595.130493L354.244843,595.536621L354.029358,595.993591L353.907104,596.483826L353.882843,596.988403L353.957581,597.488159L354.128326,597.963623L460.994629,823.273254L534.245667,982.407288L202.678131,941.630859L233.945694,768.985168L258.963989,578.756836L258.980499,578.251953L258.898102,577.753479L258.720001,577.280701L258.453186,576.851685L258.107758,576.482971L257.697083,576.188721L257.236877,575.980347L256.744781,575.865723L256.239868,575.849243L255.741364,575.931641L255.268539,576.109619L254.839569,576.376465L254.470886,576.721924L254.176666,577.132629L253.968216,577.592834L253.853607,578.084839L228.869415,768.087524L193.057541,944.646118L192.982361,945.683533L193.150574,946.709961L193.553009,947.669067L194.167557,948.508240L194.960587,949.181396L195.888290,949.651489L196.900009,949.892883L538.207153,988.061890L538.752136,988.067810L539.286255,987.958923L539.785522,987.740234L540.227600,987.421326L540.592834,987.016602L540.864624,986.544189L541.031006,986.025146L541.084595,985.482666L541.022888,984.941101L540.848572,984.424622L465.670654,821.104614z" fill="#000000" stroke="none" fill-opacity="1" />
				<polyline points="390.641968,718.267761 343.017090,769.038269 386.169617,1019.616333 356.132812,1041.113159 343.792725,1065.149658 284.676544,1075.285156 255.141510,1064.848633 224.080597,1043.380859 257.996796,1009.810303 269.273529,820.380493 266.319122,771.337769 248.354828,575.537109" fill="#440090" stroke="none" fill-opacity="1" />
				<path d="M393.654572,721.093750L394.147980,720.451721L394.506622,719.725708L394.716858,718.943787L394.770416,718.135742L394.665375,717.332886L394.405701,716.565918L394.001312,715.864380L393.467926,715.255127L392.825836,714.761719L392.099884,714.403076L391.317963,714.192871L390.509949,714.139282L389.707092,714.244385L388.940125,714.504028L388.238525,714.908325L387.629303,715.441833L340.004486,766.212280L339.289581,767.258545L338.925446,768.472290L338.946350,769.739380L381.659302,1017.764771L353.728821,1037.754028L352.458191,1039.226562L341.060669,1061.427246L285.151123,1069.710449L257.036774,1061.137939L228.520844,1042.990112L261.546936,1013.397095L262.594543,1011.891174L263.034515,1010.110229L279.079468,820.964233L271.717590,771.012573L250.921280,575.301636L250.825943,574.805481L250.635727,574.337402L250.357880,573.915405L250.003067,573.555847L249.584885,573.272339L249.119354,573.075928L248.624481,572.973999L248.119370,572.970642L247.623138,573.065918L247.155136,573.256104L246.733185,573.533936L246.373520,573.888794L246.090042,574.307007L245.893661,574.772461L245.791794,575.267334L245.788361,575.772583L260.925812,771.747498L259.432770,820.384033L253.073914,1007.582336L222.078506,1041.358154L221.686035,1041.842773L221.408447,1042.401245L221.259216,1043.006836L221.245590,1043.630249L221.367935,1044.241821L221.620560,1044.811890L221.991348,1045.313354L222.462448,1045.722046L252.793289,1068.246338L282.872589,1080.390137L285.591492,1080.621704L344.490814,1069.220825L345.406891,1068.951782L346.236847,1068.479614L346.936127,1067.829468L347.467407,1067.036133L359.350494,1043.889771L388.573669,1022.975342L389.259796,1022.357300L389.791534,1021.602295L390.142212,1020.748047L390.294342,1019.837219L390.240326,1018.915344L347.436859,770.364197z" fill="#000000" stroke="none" fill-opacity="1" />
				<polygon points="507.090027,1026.286743 510.055878,1033.062012 514.644165,1044.068726 491.032227,1052.381592 465.043945,1038.039185 438.618439,1019.855408 408.798248,1015.857605 400.747894,984.631531 468.037109,974.564209 482.224396,1010.973511 492.682678,1018.113953" fill="#440090" stroke="none" fill-opacity="1" />
				<path d="M511.697388,1024.269775L511.215363,1023.409729L510.574829,1022.660217L509.800415,1022.049988L508.921783,1021.602661L507.972687,1021.335266L506.989746,1021.258240L506.010742,1021.374390L505.073090,1021.679321L504.212952,1022.161377L503.463379,1022.801880L502.853180,1023.576355L502.405853,1024.454956L502.138489,1025.404053L502.061462,1026.386963L502.177643,1027.366089L502.482635,1028.303711L506.651367,1034.516724L510.242065,1042.109863L491.332520,1048.767212L466.785797,1035.220459L440.494598,1017.128967L439.058258,1016.575256L412.773590,1011.378479L402.611633,985.865906L467.333771,975.777466L479.910706,1011.875061L480.280640,1012.518677L480.824219,1013.024292L490.816589,1020.847229L504.608368,1030.661499L505.509583,1031.061523L506.471466,1031.278076L507.457031,1031.302979L508.428619,1031.134888L509.348694,1030.780640L510.181976,1030.253540L510.896515,1029.574219L511.464752,1028.768433L511.864685,1027.867188L512.081360,1026.905273L512.106201,1025.919678L511.938171,1024.948120L511.583862,1024.028076L511.056854,1023.194702L510.377441,1022.480225L509.571533,1021.912048L494.435242,1015.303223L484.259125,1009.356018L469.058105,974.166382L468.943787,973.948975L468.784058,973.762390L468.586731,973.616150L468.361755,973.517639L468.120483,973.471558L467.875000,973.480530L400.526489,983.151489L400.223755,983.229797L399.943970,983.369263L399.699219,983.563904L399.500275,983.805115L399.355804,984.082458L399.272064,984.383789L399.252777,984.695801L399.298737,985.005127L403.987885,1017.097778L404.413666,1018.192688L405.084503,1019.156982L405.963196,1019.936829L407.000458,1020.488464L408.138153,1020.781189L437.394348,1023.030457L463.167847,1040.765625L489.433167,1055.279175L490.299133,1055.609009L491.222687,1055.685669L492.131287,1055.503418L515.743225,1047.190430L516.432861,1046.853394L517.026184,1046.366333L517.491394,1045.755859L517.803467,1045.054443L517.945618,1044.300171L517.910217,1043.533325L517.698914,1042.795410L513.472900,1031.637573z" fill="#000000" stroke="none" fill-opacity="1" />
			</g>
			<g id="layer.body.uuid_0x3">
				<polyline points="390.400726,485.479370 380.462280,416.757324 375.438202,414.620483 360.409424,398.005554 355.293091,348.656616 341.906311,296.174133 296.534515,328.409058 317.153320,404.066772 307.328400,404.398987" fill="#944DB1" stroke="none" fill-opacity="1" />
				<path d="M387.850006,485.848267L387.970978,486.338745L388.185333,486.796326L388.484863,487.203186L388.857941,487.543823L389.290283,487.805176L389.765381,487.977051L390.264893,488.053040L390.769562,488.030090L391.260193,487.909058L391.717651,487.694763L392.124542,487.395325L392.465118,487.022156L392.726440,486.589783L392.898468,486.114746L392.974396,485.615173L392.951416,485.110474L383.013000,416.388489L382.836182,415.754028L382.504333,415.185120L382.039154,414.718872L381.471008,414.385742L376.968964,412.470886L362.885986,396.901611L357.856567,348.390808L345.929779,295.147827L345.617340,294.311584L345.133484,293.561279L344.500397,292.931946L343.747406,292.452332L342.909302,292.144775L342.024811,292.023560L341.134827,292.094177L340.280579,292.353333L339.501404,292.789185L293.217377,323.740173L292.188324,324.679016L291.416443,325.838684L290.947205,327.150330L290.808563,328.536377L291.008667,329.914978L312.782654,400.843323L307.214600,401.031555L306.559814,401.118530L305.934631,401.331421L305.362946,401.662354L304.866760,402.098389L304.465240,402.622803L304.173737,403.215515L304.003540,403.853699L303.961029,404.512878L304.047943,405.167603L304.260925,405.792847L304.591827,406.364502L305.027802,406.860596L305.552277,407.262146L306.144989,407.553589L306.783173,407.723877L307.442261,407.766357L317.267242,407.434204L318.016907,407.323547L318.722809,407.048218L319.349426,406.622070L319.864960,406.066711L320.243286,405.410034L320.465363,404.685547L320.519867,403.929749L320.404083,403.180847L303.111847,330.761719L339.378387,303.063599L352.749146,349.110413L357.845947,398.271362L358.055481,399.054810L358.498077,399.734436L373.526855,416.349365L374.429443,416.992065L378.119141,418.561401z" fill="#000000" stroke="none" fill-opacity="1" />
				<polygon points="387.364380,473.299255 380.958221,416.836731 391.477234,457.065918 400.541626,486.946777 390.786377,541.020813 386.452606,589.596802 423.468933,720.384216 496.549744,868.307617 587.534729,976.464172 529.142212,1005.484070 353.268829,1005.830933 325.696381,832.301636 326.748901,652.409302 256.925873,597.898804 309.459503,526.306396 273.767914,445.753723 289.004303,413.068298 309.922882,406.171814" fill="#1D0021" stroke="none" fill-opacity="1" />
				<path d="M384.803589,473.589783L384.909485,474.083801L385.109711,474.547668L385.396576,474.963501L385.759125,475.315430L386.183228,475.589844L386.652832,475.776245L387.149750,475.867493L387.654938,475.859985L388.148926,475.754089L388.612823,475.553833L389.028625,475.266968L389.380524,474.904541L389.655029,474.480347L389.841400,474.010803L389.932648,473.513916L389.925171,473.008667L387.582092,452.356995L386.235138,458.436646L397.895050,487.100464L387.207581,540.375244L383.885590,589.367737L416.587891,722.331787L494.239197,869.449158L575.872192,974.038147L528.534729,1002.908020L360.629089,997.191711L328.274811,832.105591L329.326141,652.424377L329.211975,651.650757L328.871094,650.947021L328.334839,650.377808L260.483612,597.406677L314.451202,529.969177L315.230774,528.548218L315.614838,526.973633L315.577057,525.353271L315.120178,523.798218L274.950531,445.765015L291.730286,416.135620L309.340393,409.077576L385.676300,475.246704L386.088715,475.538574L386.550018,475.744385L387.042725,475.856262L387.547821,475.869934L388.045746,475.784790L388.517609,475.604065L388.945099,475.334839L389.311798,474.987305L389.603699,474.574951L389.809509,474.113525L389.921448,473.620850L389.935059,473.115784L389.849854,472.617798L389.669220,472.146057L389.399933,471.718506L389.052429,471.351807L311.610962,404.224304L311.057800,403.857910L310.429443,403.644775L309.767548,403.599243L309.115936,403.724121L287.824921,409.491028L286.907104,409.939453L286.143555,410.618103L285.590363,411.476868L272.792145,445.298889L272.703735,445.590881L272.700806,445.896118L272.783600,446.189880L302.345856,525.535278L254.848038,596.374146L254.565186,596.864624L254.396393,597.405090L254.349686,597.969360L254.427155,598.530151L254.625381,599.060608L254.934601,599.534912L255.339935,599.930298L324.164246,653.661133L323.119202,832.286499L344.750916,1007.184448L345.303040,1009.137390L346.296204,1010.907349L347.675598,1012.396179L349.364594,1013.521484L351.269867,1014.220825L353.285797,1014.455688L529.147339,1008.061279L530.289124,1007.791931L590.811646,983.057739L592.206482,982.155212L593.363464,980.963013L594.223694,979.541626L594.743408,977.963623L594.896057,976.309326L594.674072,974.662842L594.088440,973.108154L593.169128,971.724304L498.722504,866.886841L430.171234,717.805054L389.061859,589.352295L394.394073,541.506165L403.077911,487.404358L403.007874,486.198669L396.692688,455.593567L383.451508,416.184753L383.272430,415.702637L383.001068,415.265564L382.648376,414.891174L382.228394,414.594238L381.757751,414.386719L381.255219,414.276672L380.740875,414.268677L380.235229,414.363037L379.758362,414.555847L379.329285,414.839539L378.965088,415.202820L378.680328,415.631104L378.486298,416.107483L378.390717,416.612976L378.397430,417.127319z" fill="#000000" stroke="none" fill-opacity="1" />
				<polyline points="368.451294,391.382690 366.652679,372.057617 302.430450,377.974670 306.561981,396.363159" fill="#000000" stroke="none" fill-opacity="1" />
			</g>
			<g id="layer.arms.uuid_0x4">
				<polygon points="294.316925,414.086060 280.243317,421.751099 191.676468,517.429260 155.760788,568.172119 198.088776,602.911377 219.081970,617.111328 258.991760,630.958313 268.873627,643.807861 295.786102,643.190063 297.558044,633.786743 285.193878,621.661133 310.926605,627.500610 319.416565,624.975220 310.371277,610.619507 291.952362,602.294983 310.381683,608.253357 327.601440,606.930481 318.578125,592.042480 298.269836,582.960205 323.204193,589.342163 333.899414,587.536499 335.241516,578.432861 310.009979,559.153992 290.232269,563.679504 289.143372,560.019653 297.799744,545.328735 264.570709,556.942383 227.019379,545.503418 206.663422,547.068665 226.202362,543.015320 264.892670,495.855713 290.332733,459.940369 294.448029,431.133301" fill="#944DB1" stroke="none" fill-opacity="1" />
				<path d="M295.907349,417.006226L296.446564,416.639832L296.903839,416.175293L297.261719,415.630493L297.506378,415.026367L297.628632,414.386047L297.623474,413.734192L297.491302,413.095886L297.237122,412.495667L296.870728,411.956543L296.406158,411.499207L295.861359,411.141357L295.257294,410.896545L294.616943,410.774475L293.965149,410.779541L293.326782,410.911682L292.726593,411.165894L279.389374,420.183105L190.366226,516.216431L153.308945,566.436768L152.996124,566.997620L152.809586,567.612183L152.758026,568.252319L152.843689,568.888855L153.062729,569.492554L153.405090,570.035950L153.855118,570.494141L196.183029,605.233276L217.399002,619.599487L257.158356,633.501770L266.492401,645.639160L266.983185,646.142334L267.577515,646.517822L268.242706,646.744751L268.942505,646.810974L295.855133,646.193176L296.528961,646.100647L297.164795,645.858948L297.729919,645.480347L298.195343,644.984253L298.537231,644.396240L298.738129,643.746338L300.510010,634.343018L300.556702,633.609314L300.423828,632.886292L300.119232,632.217163L299.661316,631.642090L289.166595,623.828369L310.383911,629.891968L311.625763,629.851013L320.115784,627.325623L320.634216,627.103760L321.088318,626.769226L321.453949,626.339905L321.711884,625.838379L321.848358,625.291260L321.856293,624.727295L321.735138,624.176453L321.491302,623.667969L312.445923,609.312256L311.981750,608.770264L311.381165,608.384888L293.147705,602.756714L309.627380,610.586670L310.569550,610.698364L327.789246,609.375488L328.280487,609.286743L328.743500,609.100464L329.159271,608.824280L329.510498,608.469604L329.782562,608.051147L329.964294,607.586304L330.048187,607.094238L330.030609,606.595459L329.912476,606.110474L329.698578,605.659546L320.675262,590.771484L320.200989,590.204102L319.579254,589.803894L312.460175,587.908997L322.596191,591.717773L323.612488,591.760132L334.307678,589.954468L334.896423,589.776917L335.422424,589.458435L335.852661,589.019043L336.160187,588.486450L336.325439,587.894165L337.667480,578.790527L337.676117,578.139771L337.513336,577.509644L337.190430,576.944580L336.730347,576.484375L312.643951,555.706726L311.538239,555.093811L310.302704,554.825562L309.042389,554.924988L291.410309,561.661133L291.798401,560.344177L299.912384,546.573547L300.120331,546.121399L300.232483,545.636597L300.244629,545.139038L300.155914,544.649353L299.970306,544.187683L299.695190,543.772949L299.342133,543.422302L298.925476,543.150208L298.462372,542.967712L297.972107,542.882568L297.474701,542.898132L296.990662,543.013855L264.518463,554.363037L227.733948,543.157654L226.831345,543.058472L209.091400,546.724915L226.700424,545.416443L227.471878,545.113342L228.098206,544.570679L266.788513,497.411072L292.333862,461.357788L292.760315,460.287170L296.875549,431.480042L297.642059,414.060486L297.573181,413.412292L297.379150,412.789978L297.067505,412.217468L296.650116,411.716797L296.143066,411.307190L295.565826,411.004272L294.940613,410.819824L294.291443,410.760925L293.643219,410.829834L293.020966,411.023804L292.448456,411.335510L291.947723,411.752930L291.538086,412.260010L291.235199,412.837219L291.050781,413.462402L290.991913,414.111633L291.994476,430.968323L287.989044,459.006714L262.941742,494.367432L224.856049,540.790222L206.165375,544.667542L205.696167,544.815247L205.265976,545.053589L204.891983,545.373108L204.589188,545.760742L204.369904,546.200989L204.242889,546.676147L204.213242,547.167114L204.282135,547.654175L204.446930,548.117554L204.700882,548.538818L205.033722,548.900940L205.432205,549.189331L205.880188,549.392395L206.359695,549.501953L206.851440,549.513611L226.746658,547.983887L263.856140,559.288208L264.620361,559.394104L265.379791,559.257324L292.287659,549.852844L287.030640,558.774780L286.772675,559.392578L286.691467,560.057190L286.792999,560.718933L288.598328,564.165649L288.739899,564.503357L288.950195,564.803162L289.219849,565.050964L289.536041,565.235535L289.884399,565.348389L290.248901,565.384155L290.612579,565.341309L308.993439,563.837097L332.604858,579.504272L331.733429,585.415283L323.308594,586.837646L298.586151,581.724487L298.336670,581.686340L298.084656,581.698120L297.839813,581.759216L297.611908,581.867371L297.409698,582.018188L297.241058,582.205933L297.112701,582.423157L297.029633,582.661377L296.995026,582.911316L297.010345,583.163147L297.074951,583.406982L297.186188,583.633423L297.339966,583.833618L297.529968,583.999451L297.748932,584.124756L316.877930,593.968384L323.437256,604.791016L310.675964,605.771301L292.346588,601.075806L292.093964,601.021484L291.835632,601.018982L291.581970,601.068359L291.343475,601.167603L291.129639,601.312683L290.949310,601.497681L290.809753,601.715210L290.716705,601.956177L290.673828,602.210938L290.682922,602.469177L290.743744,602.720337L290.853577,602.954163L291.008209,603.161133L291.201141,603.332947L291.424713,603.462585L308.689514,612.550415L315.618164,623.546692L310.842987,624.967102L285.466980,620.457458L285.223450,620.427185L284.978729,620.445740L284.742554,620.512268L284.524170,620.624268L284.332306,620.777344L284.174408,620.965332L284.056854,621.180664L283.984283,621.415161L283.959503,621.659302L283.983582,621.903564L284.055420,622.138184L284.172302,622.354004L284.329620,622.542419L294.308929,634.807617L293.284790,640.242798L270.326691,640.769897L261.372986,629.127136L260.748383,628.521545L259.976410,628.120361L220.438782,614.402527L199.886917,600.501099L159.828583,567.624634L193.066177,518.556274L281.354614,423.178955z" fill="#000000" stroke="none" fill-opacity="1" />
				<polyline points="280.653839,611.123901 286.202148,601.371948 286.504211,588.967407 293.113403,580.781250 290.865997,568.940430" fill="#944DB1" stroke="none" fill-opacity="1" />
				<path d="M278.845428,610.094971L278.679413,610.467529L278.589417,610.865356L278.578674,611.273071L278.647614,611.675049L278.793701,612.055908L279.011261,612.400879L279.291901,612.696777L279.625000,612.932251L279.997559,613.098145L280.395355,613.188354L280.803040,613.199097L281.204956,613.130127L281.585815,612.984009L281.930756,612.766479L282.226807,612.485718L282.462219,612.152710L288.010559,602.400757L288.282104,601.422546L288.566956,589.724548L294.443146,581.854736L294.693878,581.431396L294.813599,580.954163L294.792419,580.462524L292.545044,568.621704L292.450562,568.300293L292.295227,568.003418L292.085022,567.742676L291.827850,567.527832L291.533844,567.367310L291.214081,567.267273L290.880951,567.231506L290.547333,567.261414L290.225830,567.355835L289.929016,567.511169L289.668213,567.721436L289.453400,567.978516L289.292908,568.272583L289.192841,568.592285L289.157013,568.925415L289.187012,569.259033L291.286987,580.322998L284.885376,587.660400L284.550995,588.250488L284.424194,588.916748L284.134888,600.797974z" fill="#000000" stroke="none" fill-opacity="1" />
				<polyline points="322.128632,582.705688 320.392639,576.066528 327.889771,571.743652 341.850647,582.724243 351.936890,596.136841 339.795135,593.725281" fill="#000000" stroke="none" fill-opacity="1" />
				<polyline points="309.562683,604.360474 307.836212,597.401367 315.725708,592.983643 330.167145,604.639160 340.528503,618.784790 327.874908,616.105591" fill="#000000" stroke="none" fill-opacity="1" />
				<polyline points="305.104584,623.131226 301.932953,618.145569 306.940796,612.627258 321.277832,617.952637 333.078979,626.292297 322.489746,627.512817" fill="#000000" stroke="none" fill-opacity="1" />
				<polyline points="290.234009,639.388550 288.817749,634.847656 293.869415,631.612671 303.890259,638.765137 311.306763,647.726624 302.821838,646.448608" fill="#000000" stroke="none" fill-opacity="1" />
				<polygon points="260.304962,389.911072 255.490677,394.644714 251.524384,387.643188 257.224457,384.466858 258.764465,387.196350" fill="#000000" stroke="none" fill-opacity="1" />
			</g>
			<g id="layer.face.uuid_0x5">
				<polyline points="365.130341,272.710571 321.718872,265.740601 270.227020,292.792847" fill="#944DB1" stroke="none" fill-opacity="1" />
				<path d="M364.596191,276.037292L365.255402,276.077515L365.909912,275.988464L366.534424,275.773376L367.105011,275.440552L367.599640,275.002869L367.999420,274.477112L368.288910,273.883423L368.457001,273.244690L368.497284,272.585449L368.408203,271.930908L368.193115,271.306458L367.860321,270.735901L367.422577,270.241211L366.896851,269.841431L366.303192,269.551941L365.664429,269.383850L322.252991,262.413879L321.174530,262.415588L320.151855,262.757935L268.659912,289.810059L268.108063,290.173157L267.637726,290.636841L267.266846,291.183350L267.009827,291.791809L266.876282,292.438660L266.871613,293.099182L266.995758,293.747864L267.244202,294.359924L267.607239,294.911682L268.070984,295.382019L268.617493,295.752930L269.225922,296.010010L269.872742,296.143494L270.533234,296.148193L271.182007,296.023987L271.794006,295.775574L322.292633,269.245239z" fill="#000000" stroke="none" fill-opacity="1" />
				<polyline points="337.265900,340.976562 410.088867,360.271606 423.851959,323.649841 430.506531,296.412720 382.579834,283.470215 318.633911,294.149963 288.757843,300.374146 298.311310,333.993591" fill="#944DB1" stroke="none" fill-opacity="1" />
				<path d="M337.780853,339.033203L337.391785,338.970032L336.997894,338.984009L336.614349,339.074585L336.255798,339.238281L335.936127,339.468689L335.667511,339.757141L335.460266,340.092407L335.322479,340.461609L335.259369,340.850708L335.273376,341.244507L335.363983,341.628113L335.527557,341.986694L335.758026,342.306335L336.046478,342.574951L336.381744,342.782227L336.751007,342.919922L408.256073,367.188660L409.989014,367.426636L411.727814,367.237122L413.368744,366.631348L414.813721,365.645630L415.976318,364.338745L416.787201,362.788940L428.732941,325.484131L434.632385,297.420715L434.752991,296.492004L434.667084,295.559448L434.378998,294.668274L433.902527,293.862061L433.260956,293.179810L432.485504,292.654724L431.613831,292.312439L383.687103,279.369873L381.880249,279.281067L317.934265,289.960815L287.891663,296.216309L286.948761,296.531555L286.105042,297.057312L285.406677,297.764954L284.891907,298.615417L284.588928,299.562317L284.514374,300.553589L284.672424,301.535156L292.779175,335.565674L293.192139,336.614746L293.801880,337.563049L294.584900,338.374268L295.511108,339.017090L296.544983,339.466858L297.646637,339.706238L298.773865,339.726135L299.883423,339.525757L300.932465,339.112793L301.880798,338.503052L302.691956,337.720032L303.334778,336.793823L303.784515,335.760010L304.023987,334.658325L304.043884,333.531067L303.843445,332.421570L294.090332,303.601624L319.417145,298.325195L382.366333,287.811890L425.396698,299.432129L418.860931,322.108337L405.666779,351.697266z" fill="#000000" stroke="none" fill-opacity="1" />
				<path d="M421.517059,329.164429L422.003754,329.125061L422.473419,328.991577L422.907990,328.768921L423.290863,328.465820L423.607239,328.093872L423.844940,327.667358L423.994873,327.202637L424.051208,326.717590L424.011841,326.230896L423.878357,325.761169L423.655701,325.326599L423.352600,324.943726L422.980682,324.627380L422.554108,324.389771L422.089417,324.239807L421.604370,324.183411L412.351227,321.297546L409.606018,322.022644L397.863464,332.822388L397.563873,333.041748L397.312836,333.315491L397.120026,333.632874L396.992737,333.981873L396.936096,334.348816L396.952118,334.719849L397.040131,335.080688L397.196960,335.417297L397.416412,335.716919L397.690094,335.968018L398.007507,336.160889L398.356354,336.288025L398.723450,336.344727L399.094452,336.328735L399.455292,336.240662L399.791931,336.083862L413.643738,331.750244z" fill="#000000" stroke="none" fill-opacity="1" />
				<polyline points="289.769226,303.068481 241.079697,297.979370 218.531570,287.305542 204.830078,273.405884 250.311996,255.806763 293.368317,246.752075" fill="#944DB1" stroke="none" fill-opacity="1" />
				<path d="M289.581940,304.860596L289.935150,304.862671L290.281982,304.795898L290.609131,304.662659L290.903992,304.468140L291.155273,304.219849L291.353241,303.927307L291.490356,303.601807L291.561340,303.255737L291.563446,302.902527L291.496582,302.555725L291.363312,302.228577L291.168854,301.933655L290.920563,301.682434L290.628052,301.484497L290.302490,301.347351L289.956512,301.276367L242.181931,294.044678L222.499924,281.715576L214.241867,275.428589L251.573914,260.063232L293.984955,249.683960L294.545074,249.507385L295.059998,249.224915L295.509857,248.847351L295.877563,248.389343L296.148651,247.868286L296.313110,247.304382L296.364227,246.719299L296.300293,246.135498L296.123657,245.575317L295.841156,245.060364L295.463623,244.610535L295.005524,244.242798L294.484589,243.971680L293.920654,243.807373L293.335602,243.756165L292.751709,243.820129L249.401321,251.476562L202.923660,268.479004L201.894547,269.013794L201.006836,269.760193L200.303482,270.682312L199.818253,271.735718L199.574600,272.869568L199.584229,274.029297L199.846634,275.158997L200.349258,276.204224L201.067886,277.114502L213.724197,292.044250L239.356323,301.619995z" fill="#000000" stroke="none" fill-opacity="1" />
				<path d="M226.083466,273.375977L225.764740,273.371765L225.451355,273.429932L225.155243,273.548035L224.887909,273.721680L224.659668,273.944092L224.479126,274.206848L224.353348,274.499634L224.287094,274.811523L224.282913,275.130188L224.341049,275.443604L224.459152,275.739685L224.632721,276.007080L224.855194,276.235352L225.117874,276.415833L225.410782,276.541626L225.722595,276.607971L274.266876,282.741272L274.954102,282.716064L275.604095,282.491638L276.160522,282.087463L289.362091,267.235413L289.485626,267.087769L289.577911,266.918884L289.635559,266.735107L289.656219,266.543640L289.639160,266.351990L289.584961,266.167236L289.495758,265.996582L289.375031,265.846680L289.227386,265.723145L289.058472,265.630737L288.874725,265.573181L288.683350,265.552551L288.491608,265.569641L288.306885,265.623779L288.136200,265.712952L287.986298,265.833679L273.682648,277.979858z" fill="#000000" stroke="none" fill-opacity="1" />
				<polygon points="251.125763,290.853394 245.078674,293.856079 243.485184,285.968445 249.890274,284.721375 250.505630,287.794373" fill="#000000" stroke="none" fill-opacity="1" />
				<polyline points="260.660767,288.703308 256.423187,293.549744 258.300079,378.608093 263.554382,293.982849" fill="#000000" stroke="none" fill-opacity="1" />
				<polyline points="254.459610,428.981750 257.996002,407.419189 251.774078,406.235352 248.454056,426.853455" fill="#000000" stroke="none" fill-opacity="1" />
			</g>
			<g id="layer.headpiece colors.uuid_0x6">
				<polyline points="302.171814,141.140564 290.016418,177.830811 279.483276,250.608948 262.213043,249.521240 267.047424,272.483154 261.676331,278.800964 298.054718,308.331970 359.258148,302.201904 427.819305,296.956665 453.063232,294.534851 469.877686,286.158081 458.858398,260.012146 429.419006,233.382202 493.145599,144.941528 478.768097,19.517944 394.540771,82.651917 354.294312,144.141846" fill="#000000" stroke="none" fill-opacity="1" />
				<polyline points="373.304291,267.564636 372.822418,280.172607" fill="#6C0AF8" stroke="none" fill-opacity="1" />
				<path d="M378.148224,267.749817L378.091278,266.801331L377.850342,265.882080L377.434753,265.027466L376.860413,264.270447L376.149384,263.639954L375.329102,263.160400L374.430939,262.849915L373.489471,262.720764L372.540894,262.777771L371.621643,263.018677L370.767120,263.434204L370.010040,264.008545L369.379639,264.719604L368.899963,265.539978L368.589600,266.438110L368.460388,267.379517L367.978546,279.987488L368.035461,280.936035L368.276367,281.855286L368.692017,282.709839L369.266357,283.466858L369.977356,284.097290L370.797668,284.576965L371.695801,284.887329L372.637329,285.016541L373.585846,284.959595L374.505127,284.718628L375.359650,284.303040L376.116669,283.728699L376.747131,283.017700L377.226746,282.197388L377.537109,281.299194L377.666351,280.357788z" fill="#9C00E6" stroke="none" fill-opacity="1" />
				<polyline points="368.425415,184.417480 330.630066,196.545532 360.489868,216.026062 349.226013,225.423096 358.452301,217.158508 320.559937,227.743286 346.441864,198.865295 346.240662,188.845337 361.949951,161.271667" fill="#2205D6" stroke="none" fill-opacity="1" />
				<polyline points="370.361877,244.047852 379.912201,245.695435 410.812988,237.632690 408.198578,246.924988 376.829346,273.963684 375.108917,283.233337 371.531036,271.332886 364.630005,280.747620 349.073975,281.604309 335.219543,268.012573 350.441742,253.740295 358.913849,239.165527 348.701660,229.927673 371.436890,212.191223 377.026459,231.270325 379.008362,236.397400" fill="#2205D6" stroke="none" fill-opacity="1" />
				<polyline points="437.578064,49.878906 482.647705,124.186646 419.627106,82.181702" fill="#2205D6" stroke="none" fill-opacity="1" />
				<polyline points="407.330597,96.574951 346.482635,182.564880 380.651581,202.946716 481.233551,112.038391 425.920319,73.470459" fill="#2205D6" stroke="none" fill-opacity="1" />
				<polyline points="448.304718,258.280884 468.535370,286.646484" fill="#2205D6" stroke="none" fill-opacity="1" />
				<polyline points="416.060608,293.515503 408.992096,293.615601 416.558624,280.068542 439.947479,271.728455" fill="#2205D6" stroke="none" fill-opacity="1" />
				<polyline points="423.930542,232.408264 482.431183,144.356750 476.249725,30.140869" fill="#CB05D8" stroke="none" fill-opacity="1" />
				<polyline points="450.312134,273.415771 443.239227,279.112427 452.481201,292.657288 463.452148,279.087952 444.810516,257.027466" fill="#CB05D8" stroke="none" fill-opacity="1" />
				<polyline points="369.671753,214.305969 368.953247,229.085327 365.619781,235.191833 358.079102,241.836426 363.273926,251.108337 354.083801,256.408020 346.175598,257.755981 347.074951,235.298462" fill="#CB05D8" stroke="none" fill-opacity="1" />
				<polyline points="376.039520,242.795105 374.644440,260.624207 384.217285,261.255310 384.277435,264.874390 401.608826,263.173218 405.013580,247.631042 383.643677,259.451172 378.259460,247.242676 404.011932,238.312500 402.077118,229.468872 386.160797,217.921082" fill="#CB05D8" stroke="none" fill-opacity="1" />
				<polyline points="337.369843,218.907776 361.521606,204.720459 361.575867,181.073608 349.255493,198.601196" fill="#CB05D8" stroke="none" fill-opacity="1" />
				<polyline points="340.264954,164.431274 349.310577,145.290161 309.910187,138.751221" fill="#CB05D8" stroke="none" fill-opacity="1" />
				<polyline points="420.956238,137.907715 373.832184,147.806091 368.893555,153.484436 364.274323,157.358398 349.568390,183.602539 362.398956,181.440979 363.162140,183.782898 372.716461,178.653015" fill="#CB05D8" stroke="none" fill-opacity="1" />
				<polyline points="428.674072,168.821472 388.150238,170.945679 383.405884,176.956787 374.889404,179.453003 365.332275,201.977173 376.107788,213.682068 406.815674,222.708984 396.727142,196.778931 380.510620,206.147217 387.026703,178.413391 411.895691,182.843933" fill="#CB05D8" stroke="none" fill-opacity="1" />
				<polyline points="399.948517,81.416382 427.168091,94.369202 430.872650,71.796570 447.535156,94.125427 436.870758,52.732056" fill="#CB05D8" stroke="none" fill-opacity="1" />
				<polyline points="429.389832,186.652161 420.401611,203.804565" fill="#E90EF8" stroke="none" fill-opacity="1" />
				<polyline points="418.912537,196.630493 416.614319,192.152832 420.733521,186.724121" fill="#E90EF8" stroke="none" fill-opacity="1" />
				<polygon points="389.593231,281.404419 392.556488,295.725403 414.028778,295.114807 417.778076,272.671509 399.802948,278.247375" fill="#6C0AF8" stroke="none" fill-opacity="1" />
				<path d="M392.198639,280.865356L392.043396,280.367432L391.794037,279.909302L391.460052,279.508667L391.054352,279.180969L390.592468,278.938599L390.092194,278.791016L389.572754,278.743896L389.054077,278.799011L388.556152,278.954285L388.098053,279.203674L387.697510,279.537598L387.369629,279.943359L387.127380,280.405151L386.979797,280.905457L386.932709,281.424927L386.987762,281.943542L391.611389,295.920959L391.681885,296.133545L391.799408,296.324097L391.957794,296.482422L392.148346,296.600037L392.360870,296.670532L392.583893,296.690247L414.056244,296.079590L414.274933,296.048096L414.480804,295.967651L414.662933,295.842407L414.811829,295.679138L414.919647,295.486206L414.980804,295.273926L422.559265,273.470215L422.621948,272.486450L422.484406,271.510315L422.152130,270.582214L421.638947,269.740479L420.966217,269.020020L420.161621,268.450562L419.258423,268.055603L418.293976,267.851624L417.308167,267.846863L416.341827,268.041626L398.368896,273.616943L388.807251,278.862549L388.326416,279.064758L387.894287,279.356812L387.527527,279.727661L387.240082,280.162842L387.043030,280.645813L386.944031,281.157898L386.946838,281.679443L387.051361,282.190430L387.253540,282.671265L387.545654,283.103333L387.916382,283.470215L388.351593,283.757629L388.834595,283.954651L389.346588,284.053711L389.868225,284.050842L390.379211,283.946350L401.234955,282.878540L411.700562,279.632080L413.207642,294.172668L393.337738,294.737671z" fill="#9C00E6" stroke="none" fill-opacity="1" />
				<polyline points="423.476990,295.880432 416.277649,290.949280 417.467896,284.649780" fill="#6C0AF8" stroke="none" fill-opacity="1" />
				<path d="M422.931580,296.676697L423.097412,296.767761L423.277863,296.824829L423.465912,296.845520L423.654449,296.829102L423.836121,296.776306L424.003967,296.689026L424.151581,296.570679L424.273285,296.425781L424.364410,296.259949L424.421356,296.079590L424.442078,295.891479L424.425720,295.702942L424.372833,295.521301L424.285645,295.353455L424.167236,295.205750L424.022430,295.084106L421.628510,288.738770L422.231110,285.549805L422.315125,284.603333L422.212891,283.658508L421.928314,282.751953L421.472351,281.918152L420.862488,281.189392L420.122162,280.593689L419.279877,280.153748L418.367920,279.886658L417.421387,279.802612L416.476593,279.904846L415.569916,280.189392L414.736237,280.645386L414.007477,281.255249L413.411713,281.995544L412.971802,282.837891L412.704681,283.749817L411.514435,290.049316L411.434967,291.165710L411.613647,292.270508L412.041046,293.304993L412.694153,294.213806L413.538330,294.948608z" fill="#9C00E6" stroke="none" fill-opacity="1" />
				<polygon points="435.616547,52.499023 459.208160,95.544922 426.775696,86.842102 467.890747,107.525940 481.746185,120.579895 418.959015,100.403320 392.945312,127.918152 435.577515,126.842163 451.689880,116.783630 420.203430,143.969971 382.124939,204.926208 346.346466,202.706604 424.473907,228.684631 486.229492,133.548096 474.005219,28.147949 452.759155,39.406250" fill="#6C0AF8" stroke="none" fill-opacity="1" />
				<path d="M437.632904,51.394043L437.378601,51.021851L437.056549,50.706543L436.679199,50.459961L436.260986,50.291992L435.817963,50.208496L435.367249,50.213257L434.926147,50.305786L434.511536,50.482666L434.139404,50.736938L433.824066,51.059082L433.577545,51.436279L433.409424,51.854614L433.326141,52.297607L433.330811,52.748291L433.423401,53.189453L433.600220,53.604126L454.604492,91.928894L427.371613,84.621338L426.895996,84.546021L426.415039,84.571167L425.949951,84.696289L425.521088,84.915222L425.147247,85.218933L424.844818,85.593750L424.627197,86.023193L424.503784,86.488647L424.479980,86.969727L424.556885,87.445129L424.731140,87.894104L424.995209,88.296875L425.337189,88.635864L425.742371,88.896057L466.557953,109.429382L472.767365,115.279602L419.662415,98.214294L419.156586,98.112488L418.640839,98.126099L418.141022,98.254517L417.682465,98.490906L417.288147,98.823669L391.274536,126.338623L390.977264,126.729370L390.769745,127.174438L390.661438,127.653259L390.657196,128.144165L390.757324,128.624878L390.957245,129.073303L391.247803,129.469116L391.615753,129.794189L392.044342,130.033691L392.514008,130.176697L393.003326,130.216858L435.635559,129.140686L436.795135,128.792480L449.839050,118.147766L418.700714,142.229675L380.900421,202.546631L346.488770,200.411743L346.016632,200.431152L345.558380,200.546631L345.133392,200.753357L344.759735,201.042603L344.453033,201.402161L344.226349,201.816711L344.089172,202.269043L344.047333,202.739746L344.102722,203.209045L344.252869,203.657166L344.491425,204.065186L344.808319,204.415710L345.190186,204.694031L345.620911,204.888428L423.748474,230.866516L424.240570,230.972107L424.743866,230.968079L425.234192,230.854553L425.688110,230.637207L426.083923,230.326111L426.402527,229.936584L488.158020,134.799927L488.468079,134.072632L488.513519,133.283203L476.289215,27.883179L476.179443,27.400146L475.968842,26.951782L475.667084,26.559082L475.288208,26.239990L474.849762,26.009521L474.372162,25.878174L473.877533,25.852417L473.388794,25.932861L472.928741,26.116455L451.682556,37.374390L434.221008,50.671753L433.891357,50.979004L433.627960,51.344971L433.440979,51.755005L433.337708,52.193726L433.321899,52.644287L433.394348,53.089111L433.552155,53.511230L433.789276,53.894653L434.096680,54.224243L434.462463,54.487549L434.872650,54.674561L435.311340,54.777954L435.761810,54.793701L436.206726,54.721313L436.628845,54.563477L437.012177,54.326416L454.003693,41.348877L472.108917,31.755127L483.850159,132.990662L423.512939,225.942078L363.822388,206.094482L381.982574,207.221130L382.596649,207.176575L383.176880,206.970703L383.681793,206.618225L384.074921,206.144409L421.969238,145.483154L453.192627,118.523865L453.507233,118.192261L453.749939,117.804810L453.911346,117.376953L453.984863,116.925903L453.967651,116.468933L453.860291,116.024475L453.667297,115.610046L453.395996,115.242188L453.057373,114.935059L452.664612,114.700989L452.233307,114.549316L451.780518,114.485962L451.324219,114.513611L450.882294,114.630676L450.472382,114.833069L434.892212,124.559448L398.414551,125.480164L419.634583,103.035461L481.042786,122.768982L481.508698,122.867004L481.984894,122.866882L482.450745,122.768677L482.886414,122.576477L483.273254,122.298889L483.594513,121.947449L483.836639,121.537537L483.988953,121.086426L484.045258,120.613586L484.002838,120.139343L483.863770,119.684021L483.633759,119.267151L483.322876,118.906494L469.467407,105.852539L447.881897,94.886230L458.612274,97.765442L459.093323,97.841187L459.579651,97.813904L460.049164,97.684753L460.481018,97.459595L460.855804,97.148560L461.156555,96.765625L461.369995,96.327759L461.486450,95.854919L461.500641,95.368103L461.412018,94.889282L461.224487,94.439819z" fill="#9C00E6" stroke="none" fill-opacity="1" />
				<polyline points="470.594482,280.003113 467.600739,274.962830" fill="#2205D6" stroke="none" fill-opacity="1" />
				<polyline points="425.788147,254.080811 425.889771,265.093994 425.280823,273.133484 431.573090,264.563293 429.010162,252.964966" fill="#2205D6" stroke="none" fill-opacity="1" />
				<polyline points="289.403839,254.537476 311.994629,277.780396 297.019104,283.609985 284.314423,283.795715 280.990875,280.142151 272.626709,280.419800 267.025970,271.780640 294.273315,277.301270 302.468323,275.011230 288.766724,272.075867 264.049927,259.244324 277.573669,263.193237 287.580200,266.419434 285.188202,261.571045 297.703339,264.338440" fill="#2205D6" stroke="none" fill-opacity="1" />
				<polyline points="304.903625,191.044800 292.094025,244.326355 295.113617,260.167908 306.567078,250.249207 314.923401,209.479126" fill="#2205D6" stroke="none" fill-opacity="1" />
			</g>
			<g id="layer.headpiecelines.uuid_0x7">
				<path d="M294.990173,310.703064L295.766998,311.246521L296.634949,311.627930L297.560547,311.832703L298.508362,311.852905L299.441925,311.687805L300.325256,311.343811L301.124664,310.834106L301.809143,310.178223L302.352509,309.401367L302.733917,308.533508L302.938690,307.607788L302.958984,306.660034L302.793915,305.726562L302.449890,304.843079L301.940186,304.043762L301.284332,303.359253L268.478333,275.302490L267.732239,273.924316L294.461212,284.535400L292.115540,302.190002L292.815857,304.046509L293.864899,305.730713L295.222382,307.177917L296.835999,308.332458L298.644043,309.149963L300.576721,309.599121L302.559998,309.662598L304.517456,309.337952L306.373901,308.637573L308.058075,307.588501L309.505280,306.231079L310.659912,304.617371L311.477448,302.809387L311.926514,300.876709L311.989990,298.893494L311.665375,296.936035L300.359070,281.248718L300.078003,280.542664L299.641815,279.920471L299.073975,279.415527L298.404999,279.055176L268.218658,267.071533L267.505798,266.878174L266.767731,266.849609L266.042145,266.987000L265.365662,267.283752L264.772858,267.724426L256.394165,270.218201L255.409012,271.356567L254.682938,272.675354L254.247711,274.116577L254.122711,275.616882L254.313354,277.110229L254.811172,278.531067L255.594360,279.816833L256.628448,280.910950z" fill="#000000" stroke="none" fill-opacity="1" />
				<path d="M263.885590,271.092529L264.136261,271.683411L264.497620,272.213989L264.955383,272.663940L265.492157,273.015869L266.087311,273.256409L266.717896,273.376099L267.359802,273.370544L267.988190,273.239807L268.579102,272.989075L269.109680,272.627869L269.559570,272.169983L269.911591,271.633179L270.152039,271.038086L270.271729,270.407471L270.266205,269.765564L270.135498,269.137146L265.105408,253.060120L288.560089,255.447937L310.458496,278.122986L304.351105,276.563538L302.649261,277.839905L301.229034,279.423889L300.145050,281.254395L299.439026,283.261230L299.138092,285.367249L299.253876,287.491516L299.781830,289.552307L300.701569,291.470581L301.977997,293.172546L303.561859,294.592773L305.392456,295.676758L307.399292,296.382690L309.505280,296.683655L311.629547,296.567932L313.690399,296.039978L315.608673,295.120178L326.904846,288.267273L328.716370,286.889038L330.200623,285.163269L331.292206,283.165771L331.943176,280.984619L332.124786,278.715637L331.829132,276.458679L331.069183,274.312988L329.878418,272.373108L328.309143,270.724243L292.027863,249.799988L291.190796,249.282043L290.237518,249.036133L260.829773,246.042175L260.112488,246.048157L259.413757,246.210083L258.767120,246.520325L258.203369,246.963989L257.749847,247.519714L257.428192,248.160767L257.253845,248.856567L257.235229,249.573547L257.373108,250.277405z" fill="#000000" stroke="none" fill-opacity="1" />
				<path d="M290.506409,255.512512L291.122833,255.333496L291.692444,255.037659L292.193359,254.636475L292.606506,254.145203L292.915833,253.582703L293.109467,252.970764L293.179993,252.332703L293.124695,251.693237L292.945648,251.076782L292.649872,250.507141L292.248505,250.006165L291.757263,249.593140L291.194855,249.283691L290.582886,249.090088L289.944824,249.019592L289.305328,249.074890L283.220490,250.210083L291.504547,173.135071L302.994690,140.866394L352.255371,147.234192L364.038910,195.189392L342.957764,228.372803L342.636963,229.030212L342.470062,229.742432L342.465424,230.473816L342.623352,231.188110L342.935913,231.849487L343.387360,232.424927L343.955444,232.885864L344.611664,233.209167L369.747803,246.896240L359.769196,261.620056L359.242462,262.219543L358.876373,262.928711L358.692688,263.705322L358.702423,264.503357L358.904877,265.275269L359.287994,265.975342L374.286804,285.334656L374.595917,285.686218L374.967621,285.970825L375.387787,286.177368L375.840057,286.297974L376.307281,286.328064L376.771332,286.266418L377.214508,286.115417L377.619629,285.880859L377.971191,285.571716L378.255768,285.199951L378.462372,284.779846L378.582977,284.327454L378.613037,283.860352L378.551392,283.396301L378.400330,282.953186L378.165833,282.547974L366.326599,264.548767L389.474213,249.761658L390.535950,248.598022L391.336121,247.241211L391.840668,245.748901L392.028076,244.184875L391.890289,242.615723L391.433258,241.108276L390.676422,239.726746L389.652039,238.530090L388.403900,237.569275L386.984894,236.885132L350.677490,228.433838L370.316010,197.521240L370.683197,196.723694L370.825256,195.857239L370.731934,194.984070L358.079620,143.493164L357.802399,142.758850L357.358429,142.111755L356.773193,141.588989L356.080353,141.220276L355.319672,141.027100L301.215546,134.033264L300.476471,134.021790L299.753723,134.176392L299.084076,134.489258L298.501587,134.944214L298.036011,135.518372L297.711151,136.182312L285.205536,171.302551L276.239044,253.886169L276.236572,254.562439L276.373169,255.224854L276.642914,255.845032L277.034271,256.396606L277.530670,256.856079L278.110870,257.203674L278.750000,257.424622L279.421082,257.509583L280.095123,257.454834z" fill="#000000" stroke="none" fill-opacity="1" />
				<path d="M363.318909,267.038147L363.872650,266.713379L364.352295,266.286926L364.739563,265.775024L365.019562,265.197388L365.181427,264.576355L365.219025,263.935486L365.130890,263.299683L364.920441,262.693298L364.595795,262.139587L364.169220,261.659851L363.657349,261.272583L363.079773,260.992676L362.458618,260.830750L361.817841,260.793152L361.182007,260.881226L360.575592,261.091675L335.526123,272.647827L334.972412,272.972595L334.492737,273.399048L334.105530,273.910950L333.825531,274.488586L333.663605,275.109680L333.626007,275.750427L333.714142,276.386292L333.924591,276.992737L334.249237,277.546387L334.675842,278.026123L335.187683,278.413391L335.765320,278.693298L336.386444,278.855225L337.027191,278.892822L337.663025,278.804749L338.269440,278.594238z" fill="#000000" stroke="none" fill-opacity="1" />
				<path d="M345.255280,229.902161L345.542603,230.476135L345.936401,230.983032L346.421600,231.403198L346.979431,231.720825L347.588501,231.923523L348.225342,232.003418L348.865570,231.957520L349.484589,231.787659L350.058594,231.500305L350.565430,231.106445L350.985718,230.621216L351.303314,230.063538L351.505981,229.454407L351.585846,228.817505L351.539948,228.177246L351.370148,227.558289L349.455078,207.205933L372.834503,209.018005L373.461456,209.155518L374.103180,209.167969L374.735077,209.054993L375.332733,208.820923L375.873352,208.474731L376.335938,208.029785L376.702820,207.503052L376.959991,206.914917L377.097412,206.287842L377.109833,205.646118L376.996887,205.014282L376.762817,204.416565L376.416595,203.876038L375.971619,203.413452L375.444916,203.046570L374.856781,202.789429L337.398773,184.849182L335.647308,184.472839L333.855927,184.460388L332.099304,184.812073L330.450867,185.513306L328.979248,186.534851L327.745911,187.834167L326.802307,189.356995L326.187805,191.039795L325.928101,192.812256L326.033875,194.600586L326.500916,196.330139z" fill="#000000" stroke="none" fill-opacity="1" />
				<path d="M358.068085,143.447388L357.845886,142.845215L357.510406,142.297974L357.074677,141.826599L356.555328,141.449402L355.972382,141.180664L355.348206,141.030884L354.706818,141.005798L354.072845,141.106262L353.470642,141.328491L352.923401,141.663879L352.452057,142.099731L352.074799,142.619019L351.806091,143.202026L351.656281,143.826172L351.631226,144.467529L351.731659,145.101501L366.389771,201.252686L339.499115,173.989441L395.486603,87.382446L479.636597,26.822998L480.393463,26.130737L481.000824,25.304077L481.435120,24.374634L481.679901,23.378662L481.725525,22.353760L481.570374,21.339966L481.220398,20.375610L480.689056,19.498169L479.996765,18.741333L479.170074,18.134033L478.240784,17.699585L477.244659,17.455078L476.219910,17.409302L475.205933,17.564453L474.241760,17.914307L473.364319,18.445679L391.092407,82.491638L332.573090,172.640686L332.245331,173.300232L332.073273,174.016357L332.065674,174.752808L332.222870,175.472168L332.536743,176.138428L332.991669,176.717590L370.315857,214.558838L370.823059,214.978821L371.403870,215.288757L372.035095,215.476257L372.690948,215.533569L373.345001,215.458679L373.971008,215.254333L374.543335,214.929016L375.039032,214.495667L375.438019,213.971924L375.724182,213.378967L375.885956,212.740723L375.916718,212.083130L375.815338,211.432556z" fill="#000000" stroke="none" fill-opacity="1" />
				<path d="M295.042480,284.564270L295.564972,284.937195L296.150055,285.200989L296.775513,285.345581L297.417084,285.365417L298.050171,285.259644L298.650513,285.032471L299.194977,284.692444L299.662628,284.252808L300.035522,283.730408L300.299377,283.145203L300.443970,282.519836L300.463776,281.878235L300.358032,281.245117L300.130859,280.644836L299.790863,280.100403L299.351166,279.632751L279.497009,263.826843L288.133453,255.846924L288.510529,255.327454L288.779022,254.744385L288.928528,254.120239L288.953491,253.478821L288.852753,252.844910L288.630341,252.242676L288.294739,251.695618L287.858795,251.224426L287.339355,250.847351L286.756256,250.578918L286.132111,250.429321L285.490723,250.404358L284.856781,250.505188L284.254578,250.727478L283.707489,251.063171L283.236298,251.499084L274.920502,262.613220L274.646698,263.002258L274.466797,263.442688L274.389954,263.912231L274.420013,264.387024L274.555603,264.843201L274.789642,265.257385L275.110474,265.608765z" fill="#000000" stroke="none" fill-opacity="1" />
				<path d="M481.732208,22.732910L481.650848,21.710327L481.371613,20.723267L480.905121,19.809692L480.269531,19.004639L479.488831,18.339111L478.593597,17.838623L477.617676,17.522461L476.598969,17.402588L475.576355,17.484009L474.589294,17.763184L473.675751,18.229736L472.870728,18.865234L472.205139,19.645874L471.704681,20.541260L471.388519,21.517212L471.268738,22.535889L465.793152,149.746521L411.766510,222.651245L406.519257,218.720825L403.812958,218.306702L401.077881,218.428467L398.419159,219.081482L395.938843,220.240540L393.732391,221.861328L391.884460,223.881348L390.466187,226.223145L389.532013,228.796631L389.117828,231.502869L389.239594,234.237976L389.892609,236.896729L391.051727,239.377075L392.672424,241.583557L394.692474,243.431458L397.034271,244.849731L399.607727,245.783936L413.215210,249.259033L416.580292,249.693054L419.950684,249.302795L423.127502,248.111267L425.923309,246.188843L428.172974,243.648865L480.902710,157.117004L481.970551,154.945679L482.367767,152.558777z" fill="#000000" stroke="none" fill-opacity="1" />
				<path d="M410.853729,81.734070L409.353973,80.931702L407.726440,80.437439L406.033752,80.270203L404.341003,80.436340L402.713196,80.929688L401.212860,81.730957L399.897644,82.809631L398.818207,84.123962L398.015930,85.623840L397.521637,87.251343L397.354370,88.943970L397.520538,90.636719L398.013794,92.264587L398.815094,93.765015L399.893707,95.080078L401.208160,96.159485L478.078461,147.716614L479.600952,148.531128L481.253113,149.032959L482.971344,149.202637L484.689789,149.033936L486.342224,148.533264L487.865295,147.719788L489.200378,146.624939L490.296143,145.290588L491.110596,143.768066L491.612335,142.115906L491.782166,140.397644L491.613464,138.679382L491.112793,137.026855L490.299347,135.503723L489.204376,134.168701L487.869995,133.072876z" fill="#000000" stroke="none" fill-opacity="1" />
				<path d="M421.679718,222.690735L419.040070,221.964111L416.309540,221.766357L413.592743,222.105103L410.994293,222.967407L408.614014,224.320007L406.543304,226.111145L404.861877,228.271606L403.634216,230.718811L402.907532,233.358337L402.709747,236.088989L403.048553,238.805786L403.910797,241.404236L405.263489,243.784485L407.054504,245.855103L409.215149,247.536621L411.662170,248.764282L432.627136,252.046631L453.395905,272.069946L454.858551,273.226196L456.518616,274.074890L458.312378,274.583435L460.170898,274.732239L462.022705,274.515625L463.796692,273.941895L465.424713,273.033142L466.844086,271.824097L468.000366,270.361511L468.849060,268.701477L469.357574,266.907654L469.506439,265.049194L469.289856,263.197327L468.716064,261.423340L467.807281,259.795410L466.598328,258.375977L444.440521,237.013489L441.250244,234.982239z" fill="#000000" stroke="none" fill-opacity="1" />
				<path d="M428.475220,294.560120L428.004639,294.609619L427.552704,294.750061L427.136871,294.975830L426.773132,295.278442L426.475342,295.646240L426.255096,296.065002L426.120758,296.518799L426.077515,296.989990L426.127075,297.460632L426.267426,297.912476L426.493256,298.328308L426.795898,298.692078L427.163727,298.989868L427.582458,299.210144L428.036224,299.344421L428.507446,299.387756L451.705383,299.232971L452.881470,298.918030L471.354370,291.224365L472.256653,290.563538L472.983459,289.713440L473.496124,288.719482L473.767303,287.634460L473.782623,286.516235L473.541290,285.424194L467.359619,267.559631L466.962402,266.696350L466.404297,265.927185L465.706970,265.281677L464.897064,264.784668L464.005707,264.455200L463.067291,264.305847L462.117645,264.342529L461.193512,264.563721L460.330231,264.961060L459.561127,265.519104L458.915588,266.216431L458.418549,267.026367L458.089081,267.917664L457.939728,268.856079L457.976471,269.805725L458.197693,270.729858L463.061188,284.785095L451.044128,294.409546z" fill="#000000" stroke="none" fill-opacity="1" />
				<path d="M388.690857,216.262939L388.676666,215.793579L388.571228,215.335999L388.378448,214.907776L388.105835,214.525391L387.763885,214.203552L387.365753,213.954529L386.926636,213.788086L386.463501,213.710449L385.994171,213.724609L385.536530,213.830200L385.108337,214.022827L384.725952,214.295471L384.404083,214.637390L384.155090,215.035461L383.988647,215.474670L383.910950,215.937744L376.785278,243.546021L376.848419,245.170776L377.254242,246.745361L377.984558,248.198181L379.006134,249.463196L380.272461,250.483154L381.726135,251.211609L383.301208,251.615417L384.926056,251.676514L386.526947,251.391785L412.441345,238.173279L412.835480,238.015442L413.191284,237.783752L413.495087,237.487122L413.735107,237.136963L413.902191,236.746582L413.989960,236.331116L413.994995,235.906677L413.917084,235.489197L413.759247,235.095032L413.527557,234.739258L413.230865,234.435547L412.880707,234.195496L412.490356,234.028381L412.074982,233.940613L411.650452,233.935547L411.233032,234.013489L392.752350,233.691162z" fill="#000000" stroke="none" fill-opacity="1" />
				<path d="M391.800110,245.919067L392.019714,244.439392L391.946533,242.945312L391.583252,241.494263L390.943878,240.141907L390.052948,238.940308L388.944702,237.935608L387.661682,237.166443L386.253387,236.662292L384.773712,236.442627L383.279633,236.515869L381.828583,236.879211L380.476288,237.518494L379.274658,238.409485L378.269928,239.517761L377.500732,240.800659L376.996613,242.208984L375.360443,275.628296L375.328949,275.840332L375.339447,276.054382L375.391449,276.262329L375.483093,276.456177L375.610779,276.628296L375.769562,276.772278L375.953400,276.882507L376.155212,276.954773L376.367218,276.986206L376.581299,276.975708L376.789215,276.923645L376.983002,276.832092L377.155212,276.704346L377.299133,276.545593L377.409393,276.361755L377.481598,276.159912z" fill="#000000" stroke="none" fill-opacity="1" />
				<path d="M466.140778,290.952454L466.964203,291.426758L467.864410,291.731262L468.806610,291.854431L469.754852,291.791260L470.672485,291.544373L471.524353,291.123230L472.277618,290.543945L472.903473,289.828918L473.377716,289.005432L473.682312,288.105286L473.805389,287.163025L473.742249,286.214844L473.495392,285.297180L473.074219,284.445374L472.494995,283.692017L471.779877,283.066284L445.494873,267.816162L445.161346,267.623962L444.796661,267.500671L444.414886,267.450806L444.030823,267.476318L443.658997,267.576355L443.313904,267.746948L443.008759,267.981628L442.755219,268.271301L442.563080,268.604919L442.439697,268.969666L442.389862,269.351379L442.415436,269.735474L442.515411,270.107239L442.686096,270.452393L442.920776,270.757446L443.210388,271.011047z" fill="#000000" stroke="none" fill-opacity="1" />
				<path d="M303.916229,136.288635L303.662811,135.698975L303.299133,135.169983L302.839233,134.722168L302.300903,134.372620L301.704651,134.134949L301.073456,134.018066L300.431610,134.026550L299.803864,134.160095L299.214081,134.413574L298.685120,134.777344L298.237335,135.237122L297.887878,135.775452L297.650085,136.371765L297.533173,137.002869L297.541779,137.644714L297.675262,138.272644L314.581177,191.454773L314.878174,192.121033L315.315338,192.704895L315.870911,193.177551L316.517334,193.515442L317.222504,193.701904L317.951508,193.727661L318.668060,193.591309L319.336700,193.299683L319.924164,192.867371L361.397156,158.176758L362.172150,157.304688L362.762085,156.298096L363.144318,155.195862L363.304199,154.040100L363.235535,152.875488L362.940948,151.746643L362.431824,150.696960L361.727722,149.766785L360.855621,148.991699L359.849121,148.401794L358.746826,148.019592L357.591187,147.859741L356.426514,147.928406L355.297699,148.222839L354.247894,148.732056L353.317749,149.436157L319.261627,184.561768z" fill="#000000" stroke="none" fill-opacity="1" />
				<path d="M320.967194,190.702515L320.951202,190.060791L320.810333,189.434631L320.549988,188.847900L320.180237,188.323120L319.715210,187.880798L319.172760,187.537537L318.573761,187.306763L317.941315,187.197266L317.299591,187.213196L316.673370,187.354065L316.086578,187.614380L315.561981,187.984253L315.119537,188.449341L314.776337,188.991699L314.545502,189.590637L314.436066,190.223145L304.205261,261.553589L304.306366,263.579041L304.898071,265.518738L305.944824,267.255615L307.383453,268.685120L309.127075,269.720764L334.183960,274.973694L334.746063,275.156616L335.333008,275.226318L335.922241,275.180237L336.491333,275.020081L337.018097,274.751953L337.482483,274.386230L337.866608,273.936890L338.155670,273.421387L338.338623,272.859253L338.408386,272.272339L338.362335,271.682983L338.202148,271.113953L337.934021,270.587219L337.568329,270.122864L337.119049,269.738647L336.603424,269.449646L321.101257,256.938049z" fill="#000000" stroke="none" fill-opacity="1" />
			</g>
		</g>
	</g>
</svg>
