<?xml version="1.0" encoding="UTF-8"?>
<!-- Generator: Blender, SVG Export for Grease Pencil - v2.0 -->
<!DOCTYPE svg PUBLIC "-//W3C//DTD SVG 1.1//EN" "http://www.w3.org/Graphics/SVG/1.1/DTD/svg11.dtd">
<svg version="1.1" x="0px" y="0px" xmlns="http://www.w3.org/2000/svg" width="1920.000000px" height="1080.000000px" viewBox="0 0 1920.000000 1080.000000">
	<g id="blender_frame.1">
		<g id="blender_object.Stroke.1.uuid_0x0">
			<g id="layer.hair.uuid_0x1">
				<polyline points="685.149353,607.715271 665.234070,663.234375 246.941544,668.447998 145.073959,601.236328 145.073959,531.924194 196.532822,429.006226 361.411346,504.619446 540.992493,606.487183" fill="#000000" stroke="none" fill-opacity="1" />
				<polyline points="380.536377,153.200439 354.608429,127.336609 331.270813,93.059570 226.251541,146.298340 240.837540,190.785522 246.671906,217.040283 246.671906,244.753662 239.378891,300.909668 222.969666,351.839050 188.327866,414.680237 154.780136,484.692932 146.028503,508.759766 135.818314,551.059082 149.428726,612.073975 241.677032,686.679199 318.550720,727.006348 545.390869,790.017578 653.770142,819.002686 649.989502,772.374390 651.249817,720.705200 661.331543,680.378113 671.413330,638.790710 647.469116,645.091797 612.827515,651.169312 560.561279,649.953857 599.456970,640.229858 648.684570,625.036072 679.578369,614.299072 698.519714,569.730835 655.369690,586.747803 632.275391,592.825317 590.948547,594.040771 535.035828,580.670288 454.812836,547.244080 374.589935,508.348145 332.047424,457.904968 313.207153,412.931519 308.952911,382.544128 313.814941,355.803040 321.376251,336.899719 337.759094,315.476013" fill="#C1DFDD" stroke="none" fill-opacity="1" />
				<path d="M377.074554,156.670898L377.818115,157.279480L378.666107,157.731506L379.586060,158.009338L380.542511,158.102295L381.498657,158.006897L382.417847,157.726868L383.264771,157.272827L384.006805,156.662292L384.615509,155.918640L385.067444,155.070679L385.345245,154.150879L385.438232,153.194336L385.342896,152.238159L385.062805,151.318909L384.608765,150.471985L383.998230,149.730042L356.808990,125.512268L333.015198,91.871826L332.682281,91.490784L332.268219,91.199768L331.796783,91.015808L331.295227,90.949402L330.792114,91.004211L330.316620,91.177307L224.112854,142.079590L223.184296,142.697815L222.426407,143.516418L221.881210,144.489563L221.579147,145.563599L221.537018,146.678284L221.757034,147.771912L237.573013,191.681030L243.290863,217.411499L243.805847,244.568298L237.224869,300.427002L219.801483,350.470459L182.816864,411.642212L147.519897,481.214111L138.462585,506.008545L127.992386,549.170105L127.960800,552.811829L139.242264,614.346191L140.559082,617.574463L142.865707,620.188965L237.257385,692.143921L316.203644,731.480591L544.038635,794.885803L651.120789,828.909119L653.270264,829.245056L655.442322,829.120056L657.538940,828.539551L659.466125,827.529846L661.136780,826.136353L662.475952,824.421692L663.423157,822.463135L663.936035,820.348877L663.991211,818.173950L658.728577,772.127441L657.926270,721.609924L666.133240,681.578491L673.640686,639.330688L673.704102,638.862305L673.670105,638.390869L673.540100,637.936401L673.319641,637.518372L673.018127,637.154358L672.648254,636.859924L672.226013,636.647644L671.769165,636.526550L671.297058,636.501709L670.830078,636.574219L646.978577,642.850952L612.654480,648.872742L574.691650,648.380859L599.918213,642.074219L649.591980,627.976074L680.869629,618.014343L681.840027,617.517090L682.636658,616.772339L683.198181,615.837524L703.364685,571.789917L703.690918,570.716675L703.782532,569.598694L703.635010,568.486694L703.255249,567.431213L702.660645,566.480103L701.877869,565.676636L700.942810,565.057190L699.897583,564.649902L698.789795,564.473328L697.669800,564.535461L696.588379,564.833496L653.231750,580.219604L631.274414,585.891724L591.529907,588.397583L536.528564,576.085571L456.493622,543.511658L377.157288,505.045532L336.501160,455.182434L317.729645,411.690125L313.098541,382.628540L317.769012,356.940918L324.968964,338.940979L341.011108,317.962769L341.457031,317.232239L341.741364,316.425110L341.851685,315.576355L341.783142,314.723267L341.538757,313.903076L341.129120,313.151550L340.572266,312.501709L339.892395,311.981873L339.119293,311.614685L338.286743,311.416321L337.431183,311.395264L336.589905,311.552612L335.799835,311.881409L335.095215,312.367371L334.507141,312.989136L318.124298,334.412964L310.013885,354.282715L304.925110,381.811707L308.601227,413.576416L327.288391,459.898621L371.462006,510.986145L372.804810,512.029968L453.027740,550.925903L533.187256,585.106750L589.640625,599.510315L632.479980,599.782288L657.114807,593.379333L688.758606,579.239319L676.640320,611.156128L647.725403,622.111938L598.945801,638.398071L560.100159,648.109497L559.734009,648.242188L559.402405,648.446716L559.119629,648.714478L558.897278,649.034302L558.744873,649.392761L558.668640,649.774719L558.671875,650.164185L558.754395,650.544800L558.912720,650.900696L559.140259,651.216797L559.427490,651.479858L559.762390,651.678955L560.130615,651.805542L560.517090,651.854431L612.774292,653.460571L647.865112,647.349243L668.280579,641.985107L656.525513,679.194763L644.753113,719.081055L641.261536,772.161499L642.374146,805.339966L546.719788,785.142822L320.421417,722.282104L245.556793,680.777832L158.822433,606.248291L144.082901,551.130920L153.748581,511.087158L162.211075,487.815491L193.925461,417.561218L225.978073,353.497437L241.471268,301.583801L249.514114,245.122742L250.053024,217.040283L244.138138,190.052063L232.010605,148.681702L330.570435,95.780579L352.256195,128.938110z" fill="#000000" stroke="none" fill-opacity="1" />
				<polyline points="279.497223,651.645142 200.733566,597.035645 180.780045,559.228943 180.780045,528.773682 199.683334,557.128540 226.988083,597.035645" fill="#000000" stroke="none" fill-opacity="1" />
			</g>
			<g id="layer.legs.uuid_0x2">
				<polyline points="339.632233,1017.189270 329.204926,1063.569214 379.135620,1043.930054 388.378448,1012.870361" fill="#000000" stroke="none" fill-opacity="1" />
				<polyline points="526.161133,1013.275085 492.748962,1008.702881 497.672913,1038.246216 519.830383,1047.742432 544.449951,1053.017944 575.388367,1052.722656" fill="#000000" stroke="none" fill-opacity="1" />
				<polyline points="478.518066,641.490295 556.407166,799.893921 554.656799,975.800537 217.123779,986.559998 335.270050,810.653381 424.536224,639.122437" fill="#1D0021" stroke="none" fill-opacity="1" />
				<path d="M480.692291,640.421265L480.441986,640.017578L480.117645,639.670532L479.731934,639.393433L479.299469,639.196899L478.837067,639.088501L478.362427,639.072449L477.893646,639.149292L477.448944,639.316040L477.045380,639.566406L476.698334,639.890686L476.421173,640.276489L476.224670,640.708862L476.116364,641.171265L476.100220,641.645996L476.177063,642.114624L476.343872,642.559326L553.978760,800.445862L552.257202,973.453003L225.127274,982.129211L337.281372,812.004211L426.685425,640.240967L426.862335,639.800171L426.949829,639.333313L426.944641,638.858398L426.846863,638.393616L426.660217,637.956848L426.392059,637.564880L426.052521,637.232788L425.654633,636.973267L425.213898,636.796326L424.747101,636.708862L424.272125,636.714111L423.807404,636.811890L423.370575,636.998413L422.978607,637.266724L422.646515,637.606201L422.387024,638.004028L333.183380,809.414856L213.659149,984.233032L213.235718,985.042847L212.998764,985.925537L212.959503,986.838562L213.119949,987.738281L213.472443,988.581421L213.999893,989.327759L214.677216,989.941345L215.471817,990.392700L216.345581,990.660400L217.256760,990.731506L554.734070,978.222168L555.256958,978.147888L555.751343,977.962097L556.193665,977.673523L556.563049,977.296021L556.841797,976.847412L557.016724,976.349121L557.079529,975.824646L558.829895,799.917969L558.581360,798.824768z" fill="#000000" stroke="none" fill-opacity="1" />
				<polyline points="436.993042,689.493408 413.328918,828.129211 385.213074,1011.111877 347.289673,1033.719971 329.057281,1059.974487 274.360138,1078.206787 249.199463,1069.947021 224.038712,1044.805298 260.503479,1007.465393 317.815430,843.711792 325.121216,815.423950 399.799042,617.264038" fill="#440090" stroke="none" fill-opacity="1" />
				<path d="M440.820862,690.146729L440.874786,689.387451L440.779510,688.632202L440.538727,687.910034L440.161713,687.248718L439.662964,686.673706L439.061523,686.207031L438.380676,685.866577L437.646393,685.665527L436.887085,685.611694L436.131897,685.706909L435.409698,685.947754L434.748444,686.324768L434.173340,686.823486L433.706726,687.424927L433.366333,688.105835L433.165314,688.839966L409.501160,827.475830L381.652863,1008.713440L345.301270,1030.384521L344.100189,1031.505005L326.604401,1056.698975L274.347900,1072.845581L251.289429,1066.546509L227.800781,1044.782227L263.897736,1010.780090L264.981384,1009.032654L326.531708,846.762451L329.975464,816.960571L402.066162,618.118469L402.189270,617.659729L402.220520,617.185791L402.158813,616.714844L402.006287,616.265076L401.769012,615.853638L401.455933,615.496460L401.079254,615.207153L400.653381,614.996948L400.194702,614.873779L399.720795,614.842529L399.249878,614.904297L398.800049,615.056763L398.388641,615.294067L398.031433,615.607056L397.742096,615.983765L397.531891,616.409668L320.363708,813.631042L308.971039,841.027161L256.373474,1004.904175L222.124557,1042.935913L221.758881,1043.405029L221.505905,1043.943237L221.378006,1044.524170L221.381668,1045.118896L221.516602,1045.698120L221.776154,1046.233276L222.147629,1046.697754L246.455002,1072.693481L247.988388,1073.635986L272.772522,1083.042847L274.371704,1083.296753L275.969696,1083.035522L330.285248,1063.658447L331.384979,1063.082642L332.246826,1062.189453L349.999878,1036.625122L387.201508,1014.447266L388.081573,1013.729126L388.716248,1012.786987L389.051178,1011.701599L417.162170,828.750793z" fill="#000000" stroke="none" fill-opacity="1" />
				<polygon points="591.603394,1026.427124 594.027588,1033.621948 597.717957,1045.037109 574.927490,1050.101562 550.870850,1032.797729 525.970154,1012.539429 495.582764,1006.630859 486.719879,976.243469 556.779480,969.912842 568.596741,1007.896973 578.303772,1016.337891" fill="#440090" stroke="none" fill-opacity="1" />
				<path d="M596.084106,1024.917358L595.703430,1024.072266L595.165344,1023.317566L594.490295,1022.682434L593.704163,1022.191223L592.837524,1021.862793L591.923279,1021.709717L590.996826,1021.737915L590.093689,1021.946411L589.248535,1022.327026L588.493896,1022.865173L587.858765,1023.540283L587.367493,1024.326294L587.039001,1025.193115L586.885986,1026.107178L586.914307,1027.033691L587.122681,1027.936768L590.722656,1034.712891L593.705994,1042.741455L575.612854,1046.762085L552.762573,1030.325928L527.933594,1010.126038L526.563965,1009.485413L499.268890,1002.590149L488.549103,977.490784L556.043030,971.013794L566.367798,1008.590515L567.064941,1009.658569L576.262207,1018.685608L588.745667,1030.194092L589.535583,1030.679199L590.404846,1031.000977L591.320129,1031.146851L592.246338,1031.111450L593.147888,1030.895996L593.990051,1030.508789L594.740417,1029.964844L595.370300,1029.284790L595.855408,1028.494873L596.177124,1027.625732L596.323181,1026.710327L596.287659,1025.784058L596.072266,1024.882568L595.684998,1024.040527L595.141052,1023.290039L594.461121,1022.660156L580.266968,1013.921997L570.628784,1006.570496L557.763062,969.606812L557.669250,969.393677L557.529846,969.207092L557.352112,969.056519L557.145203,968.949829L556.919556,968.892273L556.686768,968.886841L486.593170,974.842346L486.289703,974.903992L486.007141,975.030518L485.759003,975.215820L485.557526,975.450928L485.412292,975.724426L485.330353,976.023010L485.315796,976.332397L485.369263,976.637390L491.099518,1007.938477L491.620026,1009.101746L492.435516,1010.081055L493.485413,1010.803406L494.691376,1011.215088L524.611267,1015.444763L548.907288,1035.211182L573.110779,1052.627319L573.881653,1053.031860L574.734436,1053.206909L575.602356,1053.138794L598.392944,1048.074341L599.005798,1047.869385L599.563171,1047.542114L600.040894,1047.106934L600.418396,1046.582275L600.679382,1045.991089L600.812561,1045.358643L600.812195,1044.712402L600.678406,1044.080078L597.339172,1032.551270z" fill="#000000" stroke="none" fill-opacity="1" />
			</g>
			<g id="layer.body.uuid_0x3">
				<polyline points="426.823456,521.098694 437.916046,433.931824 421.306366,430.604858 411.629761,399.042786 406.058746,377.265198 349.335938,350.423035 374.068024,438.715271 367.619995,443.990845" fill="#944DB1" stroke="none" fill-opacity="1" />
				<path d="M424.420013,520.792908L424.406525,521.267639L424.485931,521.735901L424.655182,522.179626L424.907745,522.581909L425.233948,522.927185L425.621124,523.202148L426.054565,523.396301L426.517609,523.502136L426.992340,523.515625L427.460602,523.436218L427.904419,523.267029L428.306641,523.014465L428.651917,522.688293L428.926941,522.301086L429.121033,521.867554L429.226868,521.404541L440.319519,434.237732L440.329590,433.719727L440.229340,433.211426L440.023224,432.736084L439.720886,432.315430L439.335907,431.968628L438.886139,431.711670L438.391876,431.556152L423.199158,428.513000L413.962830,398.387146L408.406067,376.664795L408.132904,376.012817L407.683167,375.467529L407.095154,375.075195L351.638947,345.556213L350.585297,345.185791L349.477905,345.040710L348.364410,345.127197L347.292664,345.441589L346.308868,345.970337L345.455322,346.690613L344.768799,347.571594L344.278778,348.575256L344.006317,349.658386L343.963257,350.774414L344.151306,351.875305L370.459290,437.575317L365.614258,441.539368L365.174591,441.977783L364.828796,442.493591L364.590302,443.066895L364.468231,443.675659L364.467407,444.296570L364.587555,444.905823L364.824341,445.479858L365.168549,445.996643L365.606934,446.436340L366.122711,446.782104L366.696014,447.020630L367.304901,447.142639L367.925781,447.143555L368.534973,447.023315L369.109039,446.786560L369.625793,446.442383L376.073761,441.166687L376.583008,440.640869L376.957916,440.012024L377.178375,439.313904L377.232788,438.583862L377.118134,437.860901L357.705322,360.340149L403.993591,378.968262L409.282471,399.643250L418.989899,431.315063L419.261810,431.904968L419.680786,432.401367L420.216492,432.768677L420.830536,432.980469L435.227753,435.864258z" fill="#000000" stroke="none" fill-opacity="1" />
				<polyline points="424.750763,422.652405 420.574799,404.890930 361.540833,418.713013 367.767944,435.300415" fill="#000000" stroke="none" fill-opacity="1" />
				<polygon points="427.785156,515.611938 426.765259,428.037292 463.237244,426.138123 469.567963,477.627808 469.145935,567.101562 516.328491,646.949341 565.325562,730.426575 588.916748,846.568787 585.287354,986.302368 532.409424,998.753479 368.631165,997.341919 423.778198,824.792114 421.677795,685.117676 395.423248,615.805420 377.650085,562.875183 326.545441,502.359924 315.403534,469.946960 367.624481,439.454041" fill="#1D0021" stroke="none" fill-opacity="1" />
				<path d="M425.362518,515.640137L425.414642,516.112244L425.557739,516.565125L425.786499,516.981384L426.092041,517.344910L426.462677,517.641968L426.884155,517.860962L427.340271,517.993530L427.813385,518.034546L428.285492,517.982544L428.738373,517.839355L429.154602,517.610596L429.518219,517.305054L429.815216,516.934387L430.034210,516.512939L430.166779,516.056885L430.207855,515.583679L429.214966,430.335876L458.760986,431.471802L467.144470,477.770508L465.727264,567.085449L466.202667,568.840759L514.240723,648.178833L558.960266,732.863098L586.487610,846.781250L578.506409,980.787964L532.138306,996.328247L379.704163,989.329041L426.085968,825.529663L424.100372,685.081299L397.705383,614.990479L383.167755,561.022400L382.096985,559.119812L327.441010,501.851685L319.695801,471.541016L367.028198,442.607849L425.884003,517.113770L426.213531,517.455811L426.603455,517.726990L427.038788,517.916931L427.502808,518.018311L427.977661,518.027100L428.445129,517.943176L428.887268,517.769592L429.287018,517.513184L429.629089,517.183594L429.900238,516.793701L430.090149,516.358337L430.191498,515.894348L430.200348,515.419434L430.116425,514.951965L429.942871,514.509888L429.686371,514.110046L369.525665,437.952209L369.117126,437.545654L368.624115,437.247009L368.074524,437.073364L367.499451,437.034424L366.931488,437.132385L366.402679,437.361755L313.617950,466.889099L312.970703,467.373962L312.450317,467.993103L312.084045,468.714111L311.890869,469.499512L311.881042,470.308105L312.054840,471.098022L325.588287,502.688904L325.772156,503.013000L372.486053,565.781494L393.126404,616.576660L419.261597,685.578735L421.349609,824.432129L360.907928,994.873657L360.564697,996.521240L360.569061,998.204285L360.920776,999.850098L361.604706,1001.387939L362.591339,1002.751343L363.838257,1003.881714L365.291656,1004.730347L366.888885,1005.260620L368.561279,1005.449707L532.388428,1001.176270L586.873901,993.040039L588.299377,992.534546L589.580994,991.731689L590.657654,990.669617L591.477966,989.399048L592.002625,987.980591L592.206848,986.482117L591.338806,846.631714L571.913940,729.088318L518.417969,645.722900L472.569031,566.174500L471.990814,477.639221L468.292877,425.516602L468.044983,424.455261L467.576965,423.471191L466.910309,422.609070L466.075592,421.908508L465.110992,421.401611L464.060486,421.111389L462.972412,421.051331L426.639252,425.617737L426.117462,425.702698L425.626495,425.898804L425.189758,426.196655L424.828033,426.582153L424.558563,427.036987L424.394135,427.539307L424.342590,428.065552z" fill="#000000" stroke="none" fill-opacity="1" />
			</g>
			<g id="layer.arms.uuid_0x4">
				<polygon points="297.593597,488.347717 266.674744,515.262634 215.780243,467.332825 214.995758,453.772949 205.906067,435.073853 210.232727,390.616516 207.757706,383.330566 194.908737,398.131531 189.182281,429.856812 193.837982,397.719727 212.040039,375.816101 208.711472,367.204041 177.706558,388.336609 168.478729,422.692688 175.354111,389.581116 202.747589,370.650879 201.571213,362.253723 163.767303,382.494446 153.845963,416.146240 149.130264,383.904236 163.278641,363.874512 164.162537,352.467102 129.851074,371.491272 128.399567,407.827881 129.089996,421.761292 126.894905,408.342773 108.387451,405.423279 98.050468,418.291809 125.503693,438.726501 156.711914,480.291870 199.974533,520.453369 264.255554,562.300598 293.620117,543.525879 334.058136,512.657410 337.698456,500.463440 334.077881,485.234619 323.422546,471.128235 316.332275,471.128235 309.884216,476.403870" fill="#944DB1" stroke="none" fill-opacity="1" />
				<path d="M299.489655,490.525818L299.878174,490.114014L300.178833,489.634399L300.380249,489.105347L300.474487,488.547119L300.458069,487.981262L300.331482,487.429504L300.099823,486.912964L299.771759,486.451660L299.359985,486.063110L298.880310,485.762451L298.351227,485.561096L297.793091,485.466797L297.227173,485.483215L296.675446,485.609741L296.158905,485.841492L295.697479,486.169495L266.749207,511.457642L218.346008,466.135620L218.022614,453.597839L217.722534,452.447449L207.829300,434.728394L212.860352,390.872314L212.732452,389.767395L210.380814,382.439575L210.137573,381.912476L209.789841,381.447754L209.352905,381.065613L208.845825,380.782959L208.291000,380.612183L207.712845,380.560608L207.136703,380.630798L206.587662,380.819519L206.090073,381.118408L205.665726,381.514526L192.875000,396.365906L192.258286,397.653076L189.369293,428.707153L196.415710,398.866577L214.014999,377.457336L214.376450,376.881531L214.574158,376.230957L214.594177,375.551331L214.435226,374.890381L211.328217,366.192688L211.036545,365.634338L210.627655,365.155090L210.122162,364.779175L209.545502,364.525513L208.926788,364.406982L208.297180,364.429382L207.688538,364.591797L207.131439,364.885986L176.622620,386.746338L176.137344,387.222351L175.847855,387.837402L168.923721,420.822327L177.313446,390.880188L204.582596,373.306213L205.237381,372.704895L205.703262,371.947754L205.944962,371.092102L205.944168,370.203003L205.650848,361.682190L205.436844,360.830017L205.046997,360.042664L204.499069,359.355774L203.817978,358.800842L203.034622,358.402832L202.184662,358.180176L201.306854,358.142700L200.441040,358.292236L199.626678,358.622009L162.594971,380.304932L162.063965,380.686951L161.651077,381.194397L161.385040,381.792114L154.560471,406.062012L150.918335,384.332092L165.770370,365.634583L166.320190,364.110168L168.132721,352.774719L168.106674,351.918945L167.898285,351.088379L167.517197,350.321716L166.980972,349.654114L166.314468,349.116577L165.548462,348.734009L164.718430,348.524048L163.862625,348.496399L163.020691,348.652283L162.231628,348.984558L128.510452,369.073364L127.941521,369.491943L127.497314,370.040955L127.206635,370.684570L127.088531,371.380920L124.959816,407.690552L128.877640,419.762268L130.371552,407.773987L130.122131,406.930115L129.671402,406.174377L129.047470,405.553955L128.289185,405.107544L127.443932,404.862976L108.944786,401.890198L108.008423,401.866577L107.097992,402.086975L106.276192,402.536194L105.598984,403.183289L94.611679,415.529480L94.073120,416.384888L93.743538,417.340332L93.639977,418.345886L93.768089,419.348511L94.121071,420.295654L94.680458,421.137512L95.416779,421.830017L123.219856,441.019836L154.178940,482.193726L197.847748,522.744385L263.339783,563.707275L263.683350,563.878479L264.056671,563.967285L264.440643,563.968811L264.814758,563.883118L265.159668,563.714722L295.182739,545.970032L335.070953,513.984314L335.431641,513.606140L335.657684,513.134949L339.607269,501.033264L339.636566,500.002625L336.330017,484.699158L335.925018,483.839355L325.745087,469.373962L325.104065,468.752502L324.304871,468.354614L323.422546,468.217590L316.332275,468.094299L315.312256,468.270935L314.411041,468.780090L307.944000,474.032471L295.580994,486.276733L295.215698,486.709106L294.941711,487.204529L294.769592,487.743835L294.706024,488.306396L294.753540,488.870483L294.910065,489.414490L295.169769,489.917542L295.522583,490.360291L295.954987,490.725586L296.450439,490.999573L296.989746,491.171631L297.552277,491.235168L298.116364,491.187805L298.660431,491.031189L299.163452,490.771484L299.606171,490.418640L311.925751,478.692383L317.415222,474.162231L321.973480,474.038879L331.938110,486.242371L335.636963,500.404968L332.613831,511.659912L291.955719,541.146790L264.263733,560.303162L201.904755,517.979919L159.074722,478.163330L128.065338,436.803223L104.355240,417.486084L109.877762,409.279297L123.829651,411.425598L127.106102,422.085876L127.211441,422.477112L127.393173,422.839294L127.643921,423.157776L127.953369,423.419373L128.308929,423.613708L128.696381,423.732666L129.099716,423.771545L129.502716,423.728699L129.888901,423.605957L130.242706,423.408264L130.549561,423.143616L130.797211,422.822815L130.975342,422.458801L131.076965,422.066528L131.097794,421.661865L131.845551,407.811401L132.551605,373.155273L159.620651,359.538574L160.302048,362.800842L147.735855,382.919189L147.533340,383.300232L147.432922,383.719910L147.440933,384.151245L151.702423,416.459900L151.813660,416.896606L152.012970,417.300964L152.291519,417.655273L152.637421,417.944275L153.035660,418.155457L153.468933,418.279663L153.918518,418.311523L154.365021,418.249573L154.788956,418.096680L155.172226,417.859375L155.497971,417.547852L155.752258,417.175720L155.923920,416.758911L165.855743,384.193481L198.310730,368.672180L199.274887,369.127197L174.113220,387.785522L173.702148,388.154541L173.396942,388.615051L173.217041,389.137329L166.596237,422.301819L166.556122,422.694397L166.596924,423.086914L166.717026,423.462646L166.911346,423.806091L167.171631,424.102722L167.486984,424.339844L167.844147,424.507568L168.227982,424.598938L168.622467,424.609924L169.010757,424.540222L169.376740,424.392700L169.704895,424.173584L169.981384,423.892029L170.194534,423.560059L170.335464,423.191406L179.380020,389.524963L207.369476,371.513855L209.101013,375.334961L191.749435,395.984131L191.150513,397.330383L188.029587,429.689880L188.019852,429.930481L188.059860,430.167969L188.147797,430.392151L188.279968,430.593445L188.450775,430.763245L188.652817,430.894287L188.877472,430.981079L189.115173,431.019714L189.355728,431.008606L189.588852,430.948425L189.804688,430.841370L189.993835,430.692383L190.148331,430.507690L190.261475,430.294983L190.328537,430.063721L197.427826,399.338257L206.686661,388.790344L207.550003,390.927063L204.034195,434.891724L204.214554,435.896118L212.003937,454.553223L213.154053,467.484802L213.275299,468.136108L213.555450,468.736511L213.976776,469.247864L264.740692,517.316284L265.297241,517.724487L265.936279,517.985291L266.619476,518.083069L267.306122,518.012085L267.954773,517.776489L268.526978,517.390381z" fill="#000000" stroke="none" fill-opacity="1" />
				<polyline points="92.554497,419.243713 110.800385,429.310303 111.956474,416.691711 80.486130,408.122864" fill="#000000" stroke="none" fill-opacity="1" />
				<polyline points="163.568573,349.381409 144.465408,362.215393 154.177612,366.549927 179.668762,346.202759" fill="#000000" stroke="none" fill-opacity="1" />
				<polyline points="208.568192,357.441223 187.316956,366.274292 195.988831,372.431458 224.979126,357.485962" fill="#000000" stroke="none" fill-opacity="1" />
				<polyline points="214.111588,364.195984 193.145432,373.685913 202.004761,379.570374 230.516006,363.730103" fill="#000000" stroke="none" fill-opacity="1" />
				<polyline points="209.178391,383.172424 197.486069,395.311707 205.108521,396.914001 220.212997,378.408997" fill="#000000" stroke="none" fill-opacity="1" />
				<polygon points="464.950775,434.153748 478.181213,441.359558 561.442139,531.305664 587.575073,569.593506 564.480774,607.273682 549.894958,626.113770 528.623901,642.522827 536.003052,653.526855 520.115479,665.617065 515.774963,657.737976 523.262024,643.281555 501.990967,656.044189 493.667267,656.278625 497.535919,640.803589 511.545654,627.966431 496.832581,638.693359 481.064575,642.562134 484.757446,626.618164 500.232483,612.550049 479.833588,625.563110 469.751343,627.087158 465.882629,619.349609 482.764465,594.730225 501.756622,592.971802 483.116241,592.619995 481.005951,588.399658 521.803833,564.483704 540.444153,559.911560 521.803833,562.021729 492.612213,511.024536 468.696320,477.260864 464.827515,450.179626" fill="#944DB1" stroke="none" fill-opacity="1" />
				<path d="M466.445862,431.408508L465.881561,431.169495L465.281494,431.045349L464.668762,431.040466L464.066772,431.155334L463.498840,431.385376L462.986603,431.721802L462.549957,432.151733L462.205536,432.658569L461.966583,433.222839L461.842316,433.822937L461.837524,434.435669L461.952301,435.037659L462.182373,435.605591L462.518890,436.117737L462.948700,436.554443L463.455597,436.898987L477.136566,442.701782L560.125854,532.354614L584.212341,569.676025L562.153564,605.666748L547.883484,624.098877L526.899048,640.286865L526.461914,640.706177L526.124268,641.208984L525.901611,641.772339L525.804199,642.370239L525.836487,642.975098L525.997009,643.559204L526.278564,644.095581L532.176147,652.890503L521.009705,661.387939L518.976379,657.696899L524.292358,643.815186L524.377563,643.600769L524.418701,643.373718L524.414062,643.143066L524.363831,642.917847L524.270142,642.707031L524.136536,642.518921L523.968445,642.360962L523.772339,642.239380L523.555969,642.159058L523.328186,642.123047L523.097656,642.132812L522.873596,642.188110L522.664978,642.286499L501.322540,653.756836L496.640991,653.888611L499.604309,642.035095L512.359314,628.854492L512.521057,628.673218L512.642944,628.463135L512.720276,628.232910L512.749939,627.991821L512.730469,627.749695L512.662964,627.516418L512.549866,627.301392L512.396057,627.113464L512.207703,626.960083L511.992310,626.847778L511.758850,626.780884L511.516693,626.762207L511.275665,626.792480L511.045654,626.870483L510.835999,626.993164L495.841736,636.562744L484.156372,639.429871L486.840851,627.839722L501.039185,613.437378L501.198029,613.261230L501.319092,613.057312L501.397705,612.833496L501.430664,612.598633L501.416962,612.361877L501.356659,612.132446L501.252502,611.919312L501.108429,611.730957L500.930145,611.574585L500.724487,611.456360L500.499603,611.380859L500.264313,611.351196L500.027771,611.368408L499.799133,611.431824L499.587494,611.538940L479.005737,623.356750L471.063782,624.557251L468.551849,619.533325L485.045837,598.614929L501.904358,594.567566L502.221588,594.505493L502.519806,594.380981L502.787048,594.199219L503.012390,593.967407L503.186554,593.695190L503.302734,593.393555L503.355927,593.074707L503.343994,592.751709L503.267578,592.437622L503.129700,592.145325L502.935913,591.886658L502.694244,591.671997L502.414307,591.510376L502.107727,591.408081L501.786835,591.369446L484.554321,590.341492L484.032349,589.297668L522.679504,566.642517L540.993347,562.150391L541.429199,561.995789L541.825256,561.757324L542.165833,561.444519L542.437134,561.070068L542.628296,560.649048L542.731506,560.198364L542.742859,559.736084L542.661560,559.280884L542.491028,558.851074L542.238281,558.463867L541.913208,558.134949L541.529175,557.877502L541.101379,557.701904L540.647156,557.615173L540.184875,557.620850L523.051208,559.560486L494.612976,509.879333L470.899567,476.383179L467.134094,450.024536L468.076599,434.177734L468.021210,433.567444L467.847900,432.979736L467.563141,432.437073L467.177979,431.960388L466.707336,431.567993L466.169159,431.274963L465.584137,431.092651L464.974731,431.027832L464.364471,431.083252L463.776703,431.256592L463.234009,431.541260L462.757385,431.926392L462.364960,432.397156L462.072021,432.935303L461.889587,433.520325L461.824860,434.129700L462.522308,450.161926L466.414093,477.586914L466.815125,478.593445L490.666809,512.266296L519.803101,563.166992L520.121216,563.597534L520.529968,563.943115L521.007446,564.185120L521.527771,564.310486L522.063110,564.312378L538.174683,560.316589L521.254639,562.244751L479.840088,586.410889L479.442871,586.705200L479.117462,587.077515L478.878967,587.510620L478.738312,587.984619L478.701965,588.477661L478.771667,588.967224L478.944031,589.430603L481.054230,593.651001L481.407196,594.167175L481.885773,594.569458L482.454895,594.828491L483.072754,594.924927L500.155029,593.030640L482.388428,590.669189L481.233459,590.950073L480.208649,591.552002L479.400787,592.423828L463.981384,618.045898L463.705414,618.591919L463.582764,619.191345L463.622101,619.801880L463.820648,620.380554L467.689331,628.118103L468.010651,628.598694L468.441467,628.984131L468.954590,629.250366L469.517914,629.380615L470.095856,629.366516L480.178101,627.842468L481.073395,627.506592L489.009491,621.131958L483.206665,624.912354L482.768799,625.452148L482.511536,626.098022L478.818695,642.041931L478.759888,642.507446L478.796509,642.975281L478.927185,643.425964L479.146332,643.840820L479.445099,644.202759L479.810822,644.496704L480.228546,644.710449L480.680969,644.835205L481.149139,644.865845L481.613861,644.801025L497.381866,640.932251L498.190643,640.556152L510.613434,628.729309L495.978607,639.104004L495.555176,639.624268L495.299500,640.244507L491.430756,655.719482L491.362152,656.245239L491.415497,656.772705L491.587860,657.274048L491.870422,657.722778L492.247833,658.095032L492.700348,658.371338L493.204010,658.536865L493.732117,658.583008L502.055878,658.348572L503.177032,658.020996L520.349243,646.382324L513.267334,656.439331L513.026978,657.087280L512.951233,657.774231L513.044617,658.458984L513.301514,659.100586L517.642029,666.979675L517.989136,667.475403L518.433838,667.885803L518.955933,668.191956L519.531250,668.379883L520.133301,668.440918L520.734619,668.372314L521.307495,668.177124L521.825562,667.864258L537.713135,655.774170L538.154785,655.355713L538.496643,654.852417L538.722656,654.287598L538.822449,653.687378L538.791443,653.079834L538.630920,652.492981L538.348450,651.954102L532.441101,643.144714L551.619812,628.349670L566.713745,609.002380L589.982788,571.069214L590.255615,570.482117L590.387451,569.848267L590.371521,569.201050L590.208679,568.574585L589.907471,568.001526L562.828369,530.359436L479.412933,440.219421z" fill="#000000" stroke="none" fill-opacity="1" />
				<polyline points="524.226562,632.538391 516.410767,625.455505 512.502991,614.464722 504.198914,609.091553 502.733490,597.856506" fill="#944DB1" stroke="none" fill-opacity="1" />
				<path d="M522.913086,633.987671L523.221069,634.216125L523.567688,634.380005L523.939636,634.473145L524.322632,634.491943L524.701904,634.435669L525.062866,634.306519L525.391785,634.109375L525.675781,633.851807L525.904236,633.543823L526.068237,633.197266L526.161255,632.825317L526.180176,632.442261L526.123840,632.062988L525.994629,631.702026L525.797424,631.373169L525.539917,631.089050L518.088928,624.336609L514.345886,613.809448L514.037292,613.251526L513.565552,612.822510L505.695892,608.146606L504.326599,597.648682L504.255432,597.341919L504.125763,597.054871L503.942657,596.798706L503.712982,596.583130L503.445770,596.416504L503.151215,596.305176L502.840454,596.253540L502.525665,596.263428L502.218842,596.334595L501.931946,596.464233L501.675720,596.647339L501.460114,596.876953L501.293488,597.144287L501.182251,597.438843L501.130524,597.749512L501.140442,598.064270L502.605896,609.299316L502.731079,609.744629L502.978027,610.135742L503.326172,610.440308L510.882599,615.745972L514.567932,626.110718L515.097473,626.904846z" fill="#000000" stroke="none" fill-opacity="1" />
				<polyline points="478.847748,619.320129 478.451111,612.881104 470.487122,611.218872 461.238098,625.120911 456.163147,640.058838 466.300568,634.343872" fill="#000000" stroke="none" fill-opacity="1" />
				<polyline points="496.422424,634.976074 495.923462,628.254150 487.581055,626.622253 478.100861,641.268066 472.995148,656.941345 483.511169,650.837280" fill="#000000" stroke="none" fill-opacity="1" />
				<polyline points="505.909424,650.434082 507.280090,645.050903 501.188782,641.590820 489.945160,650.552124 481.850769,661.461975 491.666565,659.446411" fill="#000000" stroke="none" fill-opacity="1" />
				<polyline points="523.959534,660.593262 523.892700,656.122192 518.431946,654.714233 511.579315,664.041626 507.583374,674.220947 514.787109,670.590942" fill="#000000" stroke="none" fill-opacity="1" />
			</g>
			<g id="layer.face.uuid_0x5">
				<polygon points="331.610016,337.761597 359.887299,354.643555 407.287628,374.726135 417.503632,377.246643 485.555664,331.878540 474.213654,315.495728 429.898651,310.431030 382.629242,315.073669 345.489014,326.890991" fill="#944DB1" stroke="none" fill-opacity="1" />
				<path d="M332.852020,335.681274L332.422333,335.479004L331.961365,335.364441L331.486908,335.341919L331.017212,335.412415L330.570312,335.573242L330.163391,335.818054L329.811981,336.137634L329.529755,336.519592L329.327362,336.949402L329.212860,337.410278L329.190338,337.884766L329.260895,338.354431L329.421631,338.801331L329.666595,339.208313L329.986084,339.559631L330.368103,339.841980L358.263611,357.363159L404.663300,380.920227L415.892273,383.777893L417.737335,383.969604L419.564575,383.650146L421.235138,382.843872L488.274780,335.957153L489.122589,335.240967L489.787598,334.352295L490.235626,333.336853L490.443817,332.246704L490.401215,331.137634L490.110291,330.066589L489.585938,329.088379L477.496460,313.222961L476.728668,312.394653L475.759705,311.814392L474.667023,311.528809L430.352020,306.464111L382.238953,311.099976L344.278381,323.086182L330.116058,335.854248L329.772644,336.182373L329.499847,336.571167L329.308167,337.005615L329.204895,337.469299L329.194061,337.944092L329.276123,338.411926L329.447815,338.854797L329.702637,339.255615L330.030762,339.598999L330.419556,339.871826L330.854095,340.063538L331.317688,340.166748L331.792572,340.177551L332.260376,340.095581L332.703217,339.923767L333.104065,339.669067L347.384918,330.477722L383.438599,319.006104L429.866699,314.446106L471.961456,319.256958L478.685822,330.567078L416.237823,370.005615L409.418884,368.323242L361.323700,351.812073z" fill="#000000" stroke="none" fill-opacity="1" />
				<path d="M434.712769,353.032227L435.151825,353.166382L435.608521,353.212280L436.065460,353.168335L436.505005,353.035950L436.910339,352.820374L437.265747,352.529968L437.557739,352.175720L437.774933,351.771362L437.909149,351.332336L437.955078,350.875610L437.911041,350.418701L437.778717,349.979126L437.563171,349.573792L437.272675,349.218323L436.918457,348.926392L436.514069,348.709229L429.057861,342.828857L427.885254,342.503906L426.668762,342.477661L425.483398,342.751953L402.203613,354.621643L401.889221,354.773560L401.610565,354.983765L401.378143,355.244385L401.201172,355.545349L401.086182,355.874939L401.037781,356.220703L401.057739,356.569336L401.145447,356.907288L401.297211,357.221680L401.507446,357.500427L401.768097,357.732727L402.069031,357.909790L402.398712,358.024719L402.744446,358.073059L403.093018,358.053162L403.430969,357.965454L427.059357,352.616821z" fill="#000000" stroke="none" fill-opacity="1" />
				<polyline points="489.776123,310.776184 511.300629,304.867493 535.357361,294.738342 575.451965,261.396484 499.114502,267.804199" fill="#944DB1" stroke="none" fill-opacity="1" />
				<path d="M488.478607,306.049133L487.581268,306.393127L486.768402,306.905579L486.071136,307.566711L485.516083,308.351196L485.124908,309.228943L484.912415,310.166016L484.886871,311.126648L485.049164,312.073853L485.393158,312.971008L485.905640,313.783936L486.566742,314.481323L487.351257,315.036255L488.229034,315.427429L489.166046,315.639954L490.126648,315.665527L491.073792,315.503113L512.198792,308.139587L536.921997,298.454468L578.586182,265.165466L579.305908,264.425598L579.854797,263.551331L580.208374,262.581604L580.351074,261.559265L580.276611,260.529724L579.988098,259.538757L579.498474,258.629944L578.829468,257.843933L578.010620,257.215393L577.078308,256.772339L576.073853,256.534302L575.041931,256.511780L498.939178,265.714905L498.534882,265.789246L498.152985,265.941040L497.807953,266.164490L497.513123,266.450867L497.279907,266.789307L497.117157,267.166687L497.031097,267.568665L497.025299,267.979553L497.099548,268.383850L497.251312,268.765747L497.474823,269.110718L497.761139,269.405579L498.099548,269.638855L498.476959,269.801575L498.878876,269.887634L499.289825,269.893555L560.345215,267.583679L533.240234,291.254761L510.188385,301.654175z" fill="#000000" stroke="none" fill-opacity="1" />
				<polyline points="322.645142,323.437622 248.202972,309.295471 208.037964,294.555115 178.559143,278.296692 232.802139,269.492310 289.356598,268.648315" fill="#944DB1" stroke="none" fill-opacity="1" />
				<path d="M322.152588,326.030518L322.667816,326.076843L323.182312,326.021667L323.676178,325.867249L324.130341,325.619446L324.527405,325.287720L324.852173,324.885010L325.092133,324.426575L325.238068,323.930176L325.284363,323.414856L325.229248,322.900391L325.074768,322.406555L324.826935,321.952393L324.495209,321.555298L324.092499,321.230591L323.634064,320.990540L323.137756,320.844604L249.174911,305.780212L210.572906,288.996582L192.951523,280.790283L233.153702,273.480774L289.397003,271.351685L289.923676,271.291870L290.428406,271.130493L290.892120,270.873657L291.296783,270.531372L291.626831,270.116699L291.869690,269.645508L292.015930,269.136108L292.060028,268.607910L292.000214,268.081238L291.838776,267.576477L291.581970,267.112854L291.239624,266.708191L290.824982,266.378113L290.353821,266.135315L289.844360,265.989014L289.316254,265.944824L232.742569,265.499695L177.795364,273.591064L176.847168,273.847412L175.971756,274.292664L175.206131,274.907837L174.582825,275.666809L174.128265,276.537598L173.861862,277.482910L173.794739,278.462769L173.929840,279.435608L174.261475,280.360046L174.775558,281.196899L175.450119,281.910767L176.256805,282.471130L205.096039,299.889160L246.950684,312.707825z" fill="#000000" stroke="none" fill-opacity="1" />
				<path d="M223.781601,284.879761L223.478409,284.860168L223.177200,284.899963L222.889557,284.997864L222.626511,285.149902L222.398254,285.350403L222.213425,285.591614L222.079254,285.864197L222.000732,286.157776L221.981110,286.460938L222.020935,286.762146L222.118790,287.049805L222.270874,287.312866L222.471375,287.541077L222.712555,287.725952L222.985153,287.860107L223.278641,287.938538L269.159546,296.166199L269.766785,296.181946L270.355652,296.032959L270.882172,295.730164L283.176910,284.582397L283.310333,284.456299L283.416534,284.306641L283.491516,284.139221L283.532471,283.960327L283.537689,283.776855L283.507019,283.595947L283.441620,283.424438L283.344055,283.269043L283.217987,283.135681L283.068420,283.029419L282.900940,282.954407L282.722015,282.913452L282.538605,282.908264L282.357727,282.938904L282.186218,283.004395L282.030792,283.101868L268.925140,291.619202z" fill="#000000" stroke="none" fill-opacity="1" />
				<polygon points="246.839676,296.808472 243.732849,301.620667 238.210770,297.488708 242.549515,293.594482 244.696503,295.207031" fill="#000000" stroke="none" fill-opacity="1" />
				<polyline points="264.231110,296.013184 260.420563,300.175049 266.060028,366.840149 267.222534,299.918762" fill="#000000" stroke="none" fill-opacity="1" />
				<polyline points="269.718658,377.376282 265.334198,373.515625 261.199341,377.694519 265.541901,381.530151" fill="#000000" stroke="none" fill-opacity="1" />
				<polyline points="264.690186,406.734985 267.076324,389.499695 261.105164,389.089966 258.881775,405.565308" fill="#000000" stroke="none" fill-opacity="1" />
				<polyline points="517.052124,289.932312 513.215698,294.024902 518.473999,359.673523 520.039490,293.826721" fill="#000000" stroke="none" fill-opacity="1" />
				<polyline points="522.291626,370.606506 517.780945,366.421204 513.944580,370.513977 518.455261,374.699219" fill="#000000" stroke="none" fill-opacity="1" />
				<polyline points="520.044617,401.464722 520.605042,383.002869 515.001770,382.707947 514.441467,401.169678" fill="#000000" stroke="none" fill-opacity="1" />
				<polygon points="528.773621,284.986633 534.033752,283.037292 536.192688,289.505066 530.440552,290.046448 529.607056,287.516418" fill="#000000" stroke="none" fill-opacity="1" />
			</g>
			<g id="layer.headpiece colors.uuid_0x6">
				<polyline points="363.257416,324.522827 340.068451,329.446655 330.293304,339.359924 295.685638,303.064087 299.484070,292.090881 287.244812,260.015503 305.814758,254.106934 293.997589,242.711731 269.518921,168.431885 280.492126,140.154968 317.209930,141.421021 348.863251,162.101318 369.543427,172.230225 375.874054,102.170898 426.924652,15.263672 484.660400,103.994202 480.406189,162.945251 500.336060,151.808044 505.025513,161.772888 514.404297,145.653259 548.109314,142.136230 552.505676,178.185608 511.473328,236.802429 517.335144,246.767212 507.370178,260.249146 522.317627,260.835327 515.283508,286.040527 501.801453,294.246887 509.714844,311.245728 482.750732,322.969116 466.044739,315.348938 422.667755,312.711243 369.912018,318.865967" fill="#000000" stroke="none" fill-opacity="1" />
				<polyline points="364.504028,269.741577 366.991608,285.000732" fill="#6C0AF8" stroke="none" fill-opacity="1" />
				<path d="M368.454498,269.097595L368.252991,268.339294L367.907379,267.634766L367.430939,267.011353L366.842041,266.492859L366.163300,266.099060L365.420776,265.845398L364.643127,265.741455L363.859955,265.791138L363.101685,265.992615L362.397278,266.338318L361.773804,266.814697L361.255188,267.403564L360.861511,268.082275L360.607758,268.824768L360.503784,269.602478L360.553528,270.385620L363.041107,285.644714L363.242615,286.403076L363.588257,287.107483L364.064667,287.730896L364.653564,288.249451L365.332336,288.643188L366.074829,288.896912L366.852570,289.000916L367.635681,288.951172L368.393951,288.749634L369.098419,288.403992L369.721893,287.927612L370.240417,287.338684L370.634125,286.659973L370.887848,285.917542L370.991913,285.139709L370.942108,284.356628z" fill="#9C00E6" stroke="none" fill-opacity="1" />
				<polyline points="322.262695,160.630310 344.039124,186.539062 344.039124,206.322510 337.444672,215.603455 322.057526,187.516052 305.449280,206.322510 298.122101,171.640625 296.656738,164.801941 321.324860,149.170715" fill="#2205D6" stroke="none" fill-opacity="1" />
				<polyline points="359.386993,243.182800 375.545929,246.865906 401.435364,246.377441 397.771637,253.948792 376.767151,276.907166 377.744080,287.897888 364.310944,274.220581 362.112762,284.967041 353.075928,285.455566 338.910126,264.206848 347.214203,249.796753 351.121979,235.630981 339.887024,221.709412 355.518280,206.078186 363.822449,231.723145 365.043640,237.340637" fill="#2205D6" stroke="none" fill-opacity="1" />
				<polyline points="410.481689,56.731018 427.011932,122.147949 391.841370,94.011597" fill="#2205D6" stroke="none" fill-opacity="1" />
				<polyline points="383.048767,108.783142 377.773193,184.047668 410.130066,214.997559 408.723236,121.092773" fill="#2205D6" stroke="none" fill-opacity="1" />
				<polyline points="542.019409,147.470581 550.108704,182.992493 512.827942,231.879333 513.883118,209.721985 537.799072,172.089783 527.951355,150.987488" fill="#2205D6" stroke="none" fill-opacity="1" />
				<polyline points="500.870026,158.021606 505.793884,178.068787 506.497314,197.060730 482.933014,223.790161 480.119385,218.162903 485.394989,204.798096 491.725616,209.018616 493.484161,198.819092 476.250580,205.501587 486.450043,183.695923" fill="#2205D6" stroke="none" fill-opacity="1" />
				<polyline points="472.733551,257.201965 487.856964,288.855286 492.780762,308.902405 439.321564,309.605774 424.198242,310.309265 426.660217,294.130859 457.610291,279.710999" fill="#2205D6" stroke="none" fill-opacity="1" />
				<polyline points="499.111542,156.263123 499.814880,191.081726 493.132568,206.204895 484.691650,228.362305 488.560303,232.231018 494.187592,224.493530 499.814880,227.307129 536.040466,175.255127 515.817383,148.900696 504.387054,165.899841" fill="#6C0AF8" stroke="none" fill-opacity="1" />
				<path d="M503.113434,156.182251L503.020721,155.403137L502.777771,154.656921L502.394073,153.972595L501.884125,153.376282L501.267609,152.890808L500.568268,152.534912L499.812958,152.322327L499.030762,152.261169L498.251495,152.353882L497.505371,152.596863L496.821014,152.980652L496.224640,153.490601L495.739227,154.106995L495.383423,154.806396L495.170868,155.561584L495.109772,156.343994L495.795166,190.275574L489.471375,204.587219L480.951263,226.937378L480.724884,227.827148L480.707397,228.744995L480.899323,229.642822L481.290924,230.473145L481.861298,231.192627L485.729950,235.061279L486.402069,235.601990L487.174438,235.986084L488.011108,236.195801L488.873413,236.221436L489.721100,236.061584L490.514862,235.724060L491.217865,235.224121L491.797394,234.585327L495.430328,229.590027L498.523560,229.889954L499.168091,230.121460L499.849121,230.194641L500.528076,230.105408L501.167145,229.858643L501.729980,229.468445L502.185089,228.956665L538.410645,176.904602L538.747681,176.260132L538.912964,175.552002L538.895996,174.825012L538.698059,174.125244L538.331482,173.497131L518.992859,146.463928L518.413452,145.854065L517.719421,145.378662L516.941223,145.058899L516.113464,144.908875L515.272583,144.935303L514.455750,145.136658L513.699097,145.504517L513.036011,146.022278L512.495850,146.667175L501.065399,163.666321L500.693573,164.357239L500.463531,165.107361L500.384338,165.888062L500.458954,166.669189L500.684540,167.420715L501.052460,168.113892L501.548462,168.721802L502.153595,169.221313L502.844513,169.593262L503.594635,169.823242L504.375275,169.902405L505.156433,169.827820L505.907959,169.602295L506.601105,169.234314L507.209045,168.738403L507.708588,168.133240L516.031860,155.755127L532.464417,175.338257L498.871796,223.607117L495.977722,220.913513L495.097626,220.595703L494.168060,220.490906L493.239349,220.604736L492.362518,220.931091L491.585449,221.452148L490.950531,222.139221L488.247192,228.240540L489.354889,227.364990L496.835907,207.727295L503.476074,192.699463L503.816772,191.000916z" fill="#9C00E6" stroke="none" fill-opacity="1" />
				<polyline points="486.543854,104.221436 470.083984,238.010071 428.301239,240.542297 434.209869,132.920471 430.831665,20.457031" fill="#CB05D8" stroke="none" fill-opacity="1" />
				<polyline points="467.739227,278.163147 460.705048,286.662720 471.256317,299.265625 481.514526,281.094055 468.454468,257.834473" fill="#CB05D8" stroke="none" fill-opacity="1" />
				<polyline points="503.496216,170.892700 496.591217,191.303284 507.728607,195.699768" fill="#CB05D8" stroke="none" fill-opacity="1" />
				<polyline points="545.115051,155.652039 541.727051,172.838684 551.105896,175.769714" fill="#CB05D8" stroke="none" fill-opacity="1" />
				<polyline points="354.606537,208.408020 357.666504,227.060242 355.614868,232.921936 350.925476,238.197510 355.614868,249.628052 350.339233,254.024414 344.770599,253.438171 340.667328,227.939392" fill="#CB05D8" stroke="none" fill-opacity="1" />
				<polyline points="373.071228,243.578735 372.778168,261.164124 378.933044,263.215759 379.519226,267.319031 392.122040,268.491272 394.759888,253.836853 378.346802,261.164062 374.243500,247.975037 395.346069,245.337280 395.639069,237.716919 385.216919,224.129333" fill="#CB05D8" stroke="none" fill-opacity="1" />
				<polyline points="306.539673,192.874329 314.746216,174.116638 312.694672,158.582947 299.927734,170.787109" fill="#CB05D8" stroke="none" fill-opacity="1" />
				<polyline points="296.574738,151.841858 314.160187,141.876831 284.980164,140.305908" fill="#CB05D8" stroke="none" fill-opacity="1" />
				<polyline points="401.500854,147.445557 386.975525,159.649841 385.509979,163.459900 382.872253,165.218445 380.820740,186.906982 389.320282,188.372375 391.078857,191.596313 399.578430,190.424011" fill="#CB05D8" stroke="none" fill-opacity="1" />
				<polyline points="421.431030,174.995972 407.491791,184.562317 407.198730,190.424133 400.750763,189.544800 397.819824,212.112671 406.612549,224.422363 420.680908,229.111816 420.973969,208.888672 410.129669,217.974426 410.129669,191.889526 423.025574,194.234192" fill="#CB05D8" stroke="none" fill-opacity="1" />
				<polyline points="379.812317,95.861938 395.346100,104.947693 401.207855,81.207397 408.535095,100.844421 404.854065,55.017090" fill="#CB05D8" stroke="none" fill-opacity="1" />
				<polyline points="470.083984,238.010071 428.301239,240.542297" fill="#CB05D8" stroke="none" fill-opacity="1" />
				<polyline points="432.099792,25.229614 448.278229,51.255493 449.403564,56.953064 439.907440,57.656433 438.852325,60.821777 444.127899,67.504211 458.547852,63.635376 456.437622,76.296814 444.479614,69.614380 439.907440,100.916016 433.928467,67.855835" fill="#E90EF8" stroke="none" fill-opacity="1" />
				<polyline points="470.154053,85.089417 471.209198,107.246704 484.573975,123.776794 472.264252,135.734741 473.319397,142.417053 484.222321,139.251709 487.387756,105.136414" fill="#E90EF8" stroke="none" fill-opacity="1" />
				<polyline points="455.030792,183.214661 454.679047,202.910034 461.713165,205.371887 454.679047,215.571350 449.403564,216.978088 449.403564,225.770691 446.941528,222.605530 438.852325,236.321838 435.687012,236.321838 449.755188,198.689575 443.424469,197.634460 443.776215,190.600525" fill="#E90EF8" stroke="none" fill-opacity="1" />
				<polygon points="415.590912,294.979736 418.078522,310.238831 427.363556,310.660828 426.896820,286.306091 421.243835,290.642944" fill="#6C0AF8" stroke="none" fill-opacity="1" />
				<path d="M417.759155,294.626282L417.648560,294.210022L417.458862,293.823364L417.197296,293.481079L416.874115,293.196594L416.501587,292.980469L416.094055,292.841187L415.667145,292.784058L415.237366,292.811462L414.821167,292.922058L414.434540,293.111755L414.092285,293.373291L413.807709,293.696472L413.591614,294.069031L413.452332,294.476562L413.395294,294.903381L413.422577,295.333252L417.291931,310.367065L417.341034,310.541016L417.428192,310.699463L417.548645,310.834167L417.696411,310.938171L417.863861,311.006348L418.042328,311.034973L427.327362,311.456970L427.512665,311.443787L427.689880,311.388000L427.849274,311.292664L427.982391,311.163025L428.081848,311.006165L428.142212,310.830505L428.160339,310.645569L430.898743,286.229431L430.784973,285.355591L430.482697,284.527771L430.006744,283.786194L429.379944,283.166809L428.632812,282.699524L427.801575,282.407043L426.926422,282.303528L426.049866,282.394043L425.214417,282.674194L424.460419,283.130371L418.807465,287.467102L414.253571,293.236633L413.939301,293.531006L413.688324,293.881042L413.510590,294.273315L413.412750,294.692810L413.398529,295.123230L413.468719,295.548157L413.620453,295.951294L413.847839,296.317078L414.142212,296.631348L414.492249,296.882324L414.884491,297.060059L415.303955,297.157898L415.734344,297.171936L416.159332,297.101868L416.562378,296.950195L416.928131,296.722778L423.680206,293.818665L425.160736,289.912659L426.550446,309.826172L418.761017,309.472107z" fill="#9C00E6" stroke="none" fill-opacity="1" />
				<polyline points="432.850128,308.972656 439.180847,306.862427 439.180847,299.687683" fill="#6C0AF8" stroke="none" fill-opacity="1" />
				<path d="M432.598114,308.216675L432.455414,308.280273L432.328003,308.370605L432.220551,308.484070L432.137360,308.616333L432.081482,308.762207L432.055206,308.916199L432.059448,309.072388L432.094055,309.224670L432.157745,309.367371L432.248108,309.494934L432.361511,309.602234L432.493713,309.685486L432.639618,309.741333L432.793671,309.767639L432.949890,309.763367L433.102173,309.728760L440.446594,310.659729L441.346069,310.228943L442.111115,309.589111L442.694214,308.780090L443.059296,307.851929L443.183533,306.862427L443.183533,299.687683L443.106628,298.906738L442.878845,298.155945L442.508972,297.463867L442.011200,296.857300L441.404572,296.359497L440.712646,295.989624L439.961792,295.761841L439.180847,295.684937L438.399963,295.761841L437.649109,295.989624L436.957123,296.359497L436.350586,296.857300L435.852783,297.463867L435.482910,298.155945L435.255127,298.906738L435.178131,299.687683L435.178131,303.977478z" fill="#9C00E6" stroke="none" fill-opacity="1" />
				<polygon points="408.793610,59.965271 418.078613,99.215637 395.710175,97.527405 421.032928,108.922729 425.675415,119.051819 390.645508,111.876953 386.425110,140.154053 402.884918,134.667542 408.371521,122.428162 404.573090,153.659668 411.325806,216.966553 382.626709,208.525574 440.869080,235.114563 440.024963,123.272217 427.363556,19.026611 418.078522,39.496094" fill="#6C0AF8" stroke="none" fill-opacity="1" />
				<path d="M410.641205,59.528259L410.520477,59.176147L410.333313,58.854431L410.086975,58.575378L409.791046,58.349915L409.456665,58.186218L409.096893,58.091064L408.725403,58.067871L408.356598,58.117737L408.004486,58.238525L407.682800,58.425598L407.403748,58.671875L407.178101,58.967834L407.014587,59.302185L406.919434,59.661987L406.896240,60.033447L406.946014,60.402344L415.633575,97.127136L395.853027,95.634277L395.474854,95.643616L395.106110,95.727539L394.761139,95.883057L394.454041,96.103882L394.196747,96.381165L393.999573,96.703979L393.870178,97.059448L393.813934,97.433533L393.832947,97.811340L393.926422,98.177795L394.090851,98.518494L394.319397,98.819885L394.603210,99.070007L394.931030,99.258789L419.603943,110.361572L422.390289,116.440979L391.026489,110.017090L390.588409,109.979248L390.153534,110.043335L389.744934,110.205688L389.384613,110.457642L389.091980,110.785706L388.882538,111.172302L388.767761,111.596680L384.547302,139.873779L384.529449,140.260132L384.590332,140.642151L384.727325,141.003967L384.934723,141.330322L385.204071,141.608032L385.523987,141.825195L385.881348,141.973083L386.261292,142.045593L386.648010,142.039551L387.025543,141.955261L403.485321,136.468689L403.953217,136.237000L404.340332,135.886658L404.617371,135.444153L404.972137,134.652649L402.688385,153.430359L409.136719,214.343750L383.162384,206.704163L382.789948,206.634094L382.410919,206.639282L382.040619,206.719788L381.693604,206.872192L381.383820,207.090454L381.123474,207.365906L380.923065,207.687622L380.790619,208.042725L380.731262,208.416992L380.747406,208.795654L380.838562,209.163574L381.000916,209.506042L381.227997,209.809387L381.510895,210.061646L381.838226,210.252686L440.080566,236.841675L440.481964,236.973328L440.902557,237.012756L441.321442,236.958496L441.717987,236.812744L442.072418,236.583008L442.367371,236.280579L442.588104,235.920349L442.723755,235.520386L442.767578,235.100220L441.923492,123.257812L429.248260,18.797729L429.165466,18.428467L429.011108,18.083252L428.791290,17.775269L428.514801,17.517090L428.192596,17.318726L427.837463,17.188232L427.463562,17.130737L427.085602,17.148560L426.718750,17.240967L426.377472,17.404297L426.075348,17.631958L425.824371,17.915039L425.634583,18.242310L416.349548,38.711670L407.064575,59.181030L406.944763,59.533447L406.896057,59.902222L406.920288,60.273682L407.016388,60.633301L407.180878,60.967163L407.407349,61.262512L407.687073,61.507996L408.009308,61.694336L408.361664,61.814087L408.730682,61.862793L409.102112,61.838623L409.461609,61.742432L409.795471,61.578064L410.090851,61.351562L410.336395,61.071777L410.522675,60.749573L419.807526,40.280396L426.295288,25.977783L438.127289,123.394165L438.948120,232.150574L407.663513,217.868408L410.790070,218.788025L411.196930,218.860718L411.609924,218.843811L412.009399,218.737793L412.376465,218.547913L412.693817,218.283081L412.946289,217.955811L413.121948,217.581726L413.212524,217.178467L413.213654,216.765198L406.483917,153.673706L410.256195,122.657532L410.263672,122.272949L410.193542,121.894653L410.048645,121.538391L409.834869,121.218628L409.561066,120.948547L409.238403,120.739197L408.880127,120.599060L408.501068,120.534058L408.116577,120.546814L407.742676,120.636841L407.394470,120.800354L407.086456,121.030640L406.831116,121.318359L406.639038,121.651611L401.493500,133.130066L388.759552,137.374695L392.227570,114.138977L425.294434,120.911682L425.710022,120.950012L426.123932,120.896606L426.516174,120.754089L426.867737,120.529297L427.161743,120.233093L427.383911,119.879761L427.523529,119.486450L427.573822,119.072205L427.532471,118.656982L427.401306,118.260742L422.758850,108.131592L422.370728,107.575500L421.812012,107.191345L406.352631,100.234680L417.935669,101.108826L418.331085,101.097290L418.715454,101.004211L419.072266,100.833374L419.385895,100.592468L419.642792,100.291748L419.831787,99.944275L419.944672,99.565125L419.976624,99.170837L419.926147,98.778564z" fill="#9C00E6" stroke="none" fill-opacity="1" />
				<polyline points="489.967133,165.407349 482.229584,179.827148 484.339844,165.899658" fill="#6C0AF8" stroke="none" fill-opacity="1" />
				<path d="M493.494110,167.299927L493.795624,166.575439L493.949921,165.806091L493.951172,165.021484L493.799286,164.251587L493.500244,163.526184L493.065399,162.873108L492.511383,162.317322L491.859619,161.880310L491.135223,161.578918L490.365845,161.424561L489.581238,161.423340L488.811401,161.575073L488.085938,161.874329L487.432861,162.309204L486.877106,162.863037L486.440186,163.514771L483.494141,176.029480L488.297333,166.499207L488.338287,165.715637L488.225464,164.939270L487.963501,164.199585L487.562164,163.525330L487.036987,162.942261L486.408264,162.472961L485.699982,162.135132L484.939423,161.942139L484.155823,161.901184L483.379364,162.013977L482.639740,162.276001L481.965424,162.677307L481.382446,163.202454L480.913025,163.831238L480.575317,164.539429L480.382355,165.300110L478.272125,179.227600L478.231842,180.025513L478.350983,180.815613L478.624634,181.566467L479.041840,182.247864L479.586273,182.832825L480.235992,183.298035L480.965118,183.624878L481.744537,183.800354L482.543457,183.817566L483.329773,183.675659L484.072418,183.380371L484.741425,182.943604L485.310425,182.382568L485.756500,181.719727z" fill="#9C00E6" stroke="none" fill-opacity="1" />
				<polyline points="510.600616,232.113831 541.081726,185.512695 542.605713,186.567810" fill="#6C0AF8" stroke="none" fill-opacity="1" />
				<path d="M507.250916,229.922852L506.887817,230.618347L506.667389,231.371460L506.598145,232.153076L506.682709,232.933228L506.917877,233.681763L507.294525,234.370178L507.798187,234.971802L508.409607,235.463623L509.105225,235.826721L509.858337,236.047058L510.639862,236.116333L511.419891,236.031738L512.168579,235.796631L512.856934,235.419983L513.458557,234.916260L513.950317,234.304871L541.849487,189.441162L540.327454,189.858765L541.013184,190.240051L541.760254,190.480225L542.539734,190.570007L543.321777,190.506042L544.076294,190.290588L544.774231,189.932129L545.389038,189.444519L545.896729,188.846191L546.278015,188.160461L546.518127,187.413391L546.607849,186.633850L546.543884,185.851868L546.328491,185.097351L545.970093,184.399353L545.482422,183.784668L544.884094,183.276917L543.360107,182.221802L542.556763,181.791748L541.676819,181.554565L540.766174,181.522583L539.871887,181.697327L539.040222,182.069885L538.314453,182.620789L537.732056,183.321716z" fill="#9C00E6" stroke="none" fill-opacity="1" />
				<polyline points="500.342468,267.284485 506.497314,262.008850 512.124634,264.822571 517.693237,270.391174 514.762329,281.235413 501.573364,276.546082 513.003845,268.925720" fill="#6C0AF8" stroke="none" fill-opacity="1" />
				<path d="M499.815918,266.670227L499.706177,266.784668L499.620911,266.918457L499.563354,267.066223L499.535767,267.222412L499.539215,267.381042L499.573425,267.535889L499.637268,267.681091L499.728149,267.811035L499.842712,267.920715L499.976379,268.006042L500.124237,268.063538L500.280457,268.091187L500.439056,268.087769L500.593781,268.053589L500.738983,267.989746L500.868988,267.898865L506.615997,262.972778L511.645325,265.487488L516.790039,270.632202L514.209473,280.180237L503.364624,276.324219L513.452576,269.598938L513.575378,269.498474L513.676086,269.375977L513.750916,269.236145L513.797180,269.084473L513.812988,268.926575L513.797546,268.768799L513.751587,268.616821L513.677002,268.476929L513.576538,268.354248L513.453918,268.253540L513.314270,268.178650L513.162476,268.132385L513.004639,268.116638L512.846741,268.132080L512.695007,268.177979L512.555054,268.252563L501.124573,275.872864L500.987793,275.987793L500.879669,276.129822L500.805176,276.292175L500.768158,276.466919L500.770477,276.645569L500.811798,276.819275L500.890289,276.979675L501.002106,277.118958L501.141693,277.230347L501.302399,277.308350L514.491394,281.997864L514.676636,282.039978L514.866760,282.037842L515.051086,281.991333L515.219421,281.903015L515.362610,281.777954L515.472717,281.622986L515.543396,281.446594L518.474304,270.602234L518.502319,270.392517L518.474915,270.182556L518.394165,269.987000L518.265381,269.819092L512.696716,264.250427L506.859192,261.285217L506.681122,261.220886L506.493103,261.199829L506.305176,261.222961L506.127899,261.289062L505.970795,261.394592z" fill="#9C00E6" stroke="none" fill-opacity="1" />
				<polyline points="508.011597,250.011597 491.403381,242.195984 495.311157,236.089966 480.168335,236.334229 494.334198,227.541687 498.974762,233.403381 500.928650,238.043945 505.324982,232.426453 508.255859,239.265076 515.993408,249.112854 506.497314,257.553711 508.959290,265.291199 517.048462,274.083740 507.904144,287.800171 501.925171,287.800171 507.200653,277.600769 490.318787,280.766113 487.505157,274.787109 501.221710,263.180908" fill="#2205D6" stroke="none" fill-opacity="1" />
				<polyline points="447.068878,265.408386 445.398407,277.151428 444.665649,285.455566 450.527435,274.709045 450.771576,262.497192" fill="#2205D6" stroke="none" fill-opacity="1" />
				<polyline points="306.875671,259.790894 333.292603,292.538452 325.232697,305.971558 316.928558,311.100525 313.020813,306.215820 307.647583,309.879333 299.831848,296.202026 320.592224,296.690491 325.232697,290.096069 314.486115,289.119141 292.504578,273.976379 303.251099,277.151428 311.066742,279.593872 307.403259,272.266663 316.928558,272.999329" fill="#2205D6" stroke="none" fill-opacity="1" />
				<polyline points="279.031067,177.726257 297.876678,227.814758 306.425171,245.888550 309.356018,231.966858 290.060974,188.736389" fill="#2205D6" stroke="none" fill-opacity="1" />
			</g>
			<g id="layer.headpiecelines.uuid_0x7">
				<path d="M327.211151,340.173889L327.814941,340.672119L328.504333,341.042847L329.252869,341.272034L330.031708,341.350830L330.811005,341.276123L331.560577,341.050781L332.251984,340.683533L332.858337,340.188538L333.356506,339.584717L333.727295,338.895264L333.956512,338.146851L334.035278,337.367920L333.960541,336.588684L333.735260,335.839050L333.368073,335.147705L332.872986,334.541321L303.714783,302.488342L301.205017,296.798645L322.625061,305.618652L324.459534,329.481873L325.117676,330.982239L326.055847,332.325500L327.238159,333.459778L328.618988,334.341614L330.145264,334.937195L331.758514,335.223511L333.396576,335.189575L334.996582,334.836792L336.496948,334.178589L337.840088,333.240356L338.974426,332.058167L339.856232,330.677307L340.451843,329.150940L340.738129,327.537720L340.704254,325.899658L340.351410,324.299744L327.379150,302.755554L327.034698,302.059326L326.506409,301.489685L325.838043,301.093750L300.008698,290.458130L299.414490,290.289734L298.797424,290.260620L298.189972,290.372314L297.623596,290.619019L297.127991,290.987732L296.729065,291.459290L296.447601,292.009155L296.298309,292.608521L291.581451,303.839966L291.621643,305.635803L292.197876,307.337158L293.257172,308.787842z" fill="#000000" stroke="none" fill-opacity="1" />
				<path d="M296.471588,293.968811L296.716949,294.438660L297.049103,294.851562L297.455597,295.191711L297.920624,295.446106L298.426270,295.604797L298.953278,295.661804L299.481201,295.614929L299.989868,295.465942L300.459656,295.220581L300.872559,294.888367L301.212799,294.481873L301.467072,294.016907L301.625824,293.511169L301.682800,292.984253L301.635986,292.456299L301.487061,291.947632L289.129669,261.282959L305.053314,259.340942L329.894775,294.324646L326.735809,301.504333L326.189362,303.173767L325.979126,304.917847L326.113068,306.669312L326.586273,308.361084L327.380432,309.927979L328.464966,311.309875L329.798187,312.453613L331.329010,313.315247L332.998535,313.861694L334.742554,314.072021L336.494080,313.937866L338.185822,313.464722L339.752686,312.670654L341.134552,311.586121L342.278351,310.252869L343.139954,308.721985L348.710938,296.060608L349.326874,294.045776L349.455322,291.942810L349.089142,289.867920L348.248688,287.935974L346.980347,286.253601L308.022308,254.623230L307.539764,254.224243L306.978455,253.946899L306.368408,253.806152L305.742371,253.809509L284.977631,256.341858L284.376770,256.486267L283.824463,256.763367L283.349365,257.158569L282.976532,257.651428L282.725342,258.215942L282.608887,258.822937L282.633209,259.440369L282.797241,260.036194z" fill="#000000" stroke="none" fill-opacity="1" />
				<path d="M303.958466,258.182312L304.328552,258.561707L304.765564,258.861633L305.252625,259.070618L305.771088,259.180359L306.301117,259.187134L306.822235,259.090210L307.314331,258.893433L307.758698,258.604553L308.138153,258.234375L308.438141,257.797424L308.647003,257.310425L308.756866,256.791870L308.763458,256.261841L308.666565,255.740784L308.469849,255.248657L308.180939,254.804382L296.314270,239.971008L271.957825,170.381287L281.640198,141.795288L318.458923,143.591370L317.548859,167.253052L334.382141,221.845093L334.739349,222.578491L335.299103,223.171936L359.979248,247.018799L354.872345,263.258972L354.616425,263.874756L354.518982,264.534424L354.585999,265.197998L354.813324,265.824890L355.187195,266.377075L377.009094,290.205078L377.290955,290.469727L377.618927,290.674255L377.980591,290.810730L378.361908,290.874146L378.748291,290.861877L379.124847,290.774597L379.477112,290.615417L379.791626,290.390625L380.056183,290.108765L380.260681,289.780762L380.397278,289.419128L380.460632,289.037781L380.448456,288.651428L380.361053,288.274841L380.201904,287.922546L379.977112,287.608032L360.522949,264.263306L373.623901,248.522705L374.203674,247.146790L374.443451,245.673035L374.329742,244.184387L373.868896,242.764160L373.086853,241.492249L372.027466,240.440125L339.294067,219.430969L322.970123,166.996826L323.965118,141.125183L323.921326,140.525269L323.745880,139.949890L323.447601,139.427490L323.041260,138.984131L322.546906,138.641541L321.988983,138.416687L321.395233,138.320679L279.865662,136.294922L279.170685,136.350891L278.513214,136.582886L277.936890,136.975342L277.480103,137.502014L277.173126,138.127991L266.537476,169.528381L266.394592,170.409363L266.546417,171.288818L291.362885,242.192810z" fill="#000000" stroke="none" fill-opacity="1" />
				<path d="M359.918243,264.796448L359.905426,264.266541L359.789490,263.749390L359.574799,263.264771L359.269775,262.831299L358.886047,262.465759L358.438324,262.182007L357.943909,261.991211L357.421722,261.900391L356.891846,261.913208L356.374695,262.029175L355.890045,262.243835L355.456665,262.548889L355.091003,262.932617L354.807373,263.380310L354.616425,263.874756L354.525665,264.396912L351.486908,305.419922L351.499725,305.949829L351.615662,306.466919L351.830322,306.951538L352.135406,307.385010L352.519135,307.750610L352.966797,308.034302L353.461273,308.225159L353.983459,308.315979L354.513306,308.303162L355.030457,308.187195L355.515137,307.972534L355.948547,307.667480L356.314148,307.283691L356.597809,306.836060L356.788727,306.341614L356.879486,305.819458z" fill="#000000" stroke="none" fill-opacity="1" />
				<path d="M337.033844,218.322571L336.713074,218.744446L336.480774,219.220886L336.345764,219.733398L336.313446,220.262390L336.384979,220.787598L336.557495,221.288818L336.824524,221.746582L337.175720,222.143555L337.597626,222.464355L338.073975,222.696594L338.586578,222.831604L339.115570,222.864014L339.640808,222.792419L340.141876,222.619873L340.599762,222.352905L340.996704,222.001648L372.658478,194.568420L373.684814,193.152710L374.341797,191.532227L374.591339,189.801575L374.418793,188.061584L373.834137,186.413635L372.871674,184.953857L346.621460,161.048889L346.240479,160.680420L345.794861,160.393433L345.301910,160.198792L344.780426,160.104187L344.250488,160.112915L343.732452,160.225037L343.246277,160.436096L342.810547,160.737854L342.442078,161.118835L342.155060,161.564392L341.960419,162.057373L341.865784,162.578857L341.874603,163.108826L341.986664,163.626892L342.197693,164.113098L342.499481,164.548767L357.668518,189.426331z" fill="#000000" stroke="none" fill-opacity="1" />
				<path d="M322.916656,138.881775L322.467590,138.600403L321.972107,138.411987L321.449463,138.323975L320.919647,138.339417L320.403107,138.458069L319.919586,138.675171L319.487701,138.982422L319.124054,139.368042L318.842651,139.817139L318.654266,140.312561L318.566162,140.835266L318.581726,141.365051L318.700348,141.881592L318.917389,142.365173L319.224640,142.796997L319.610321,143.160645L341.894440,160.380188L365.438904,174.731018L365.980316,174.983337L366.563904,175.110718L367.161163,175.106689L367.743011,174.971619L368.281036,174.712036L368.748993,174.340881L369.123901,173.875916L369.387573,173.339905L369.527161,172.759155L378.573578,100.890076L427.753113,20.661865L483.573578,105.703186L468.488922,236.939331L468.480316,237.469177L468.575256,237.990601L468.770111,238.483582L469.057373,238.928955L469.425964,239.309814L469.861816,239.611389L470.348114,239.822144L470.866272,239.934021L471.396179,239.942688L471.917633,239.847717L472.410522,239.652832L472.855988,239.365662L473.236786,238.997009L473.538391,238.561096L473.749146,238.074829L473.861023,237.556763L489.054718,105.371460L489.004120,104.458801L488.652313,103.615173L431.268982,10.067871L430.723419,9.375244L430.048798,8.807861L429.272980,8.389160L428.428314,8.136719L427.549988,8.060913L426.674622,8.164917L425.838531,8.444580L425.076569,8.887939L424.420532,9.476807L423.897644,10.186646L373.631836,98.624939L373.278351,99.660645L364.683563,167.940918L345.081787,156.009399z" fill="#000000" stroke="none" fill-opacity="1" />
				<path d="M322.795502,305.398682L323.186249,305.756775L323.639435,306.031616L324.137482,306.212952L324.661346,306.293518L325.190857,306.270386L325.705688,306.144409L326.185974,305.920410L326.613434,305.606934L326.971527,305.216125L327.246460,304.763000L327.427673,304.264893L327.508270,303.741089L327.485138,303.211548L327.359131,302.696716L327.135132,302.216370L326.821716,301.789001L304.650848,278.495178L306.826477,259.450989L306.808289,258.921265L306.686981,258.405334L306.467468,257.922913L306.157898,257.492676L305.770508,257.130920L305.319916,256.851868L304.823547,256.665955L304.300476,256.580505L303.770844,256.598816L303.254791,256.720093L302.772400,256.939636L302.342163,257.249084L301.980530,257.636475L301.701355,258.087097L301.515503,258.583435L301.430084,259.106567L301.120117,279.003845L301.151703,279.463745L301.302643,279.899353L301.562439,280.280273z" fill="#000000" stroke="none" fill-opacity="1" />
				<path d="M484.240295,112.674011L485.461395,111.875610L486.503235,110.854309L487.325958,109.649353L487.897705,108.307068L488.196625,106.879089L488.211151,105.420227L487.940826,103.986511L487.395966,102.633057L486.597534,101.411987L485.576294,100.369995L484.371338,99.547485L483.029144,98.975708L481.601074,98.676697L480.142181,98.662231L478.708496,98.932495L477.355042,99.477295L432.211639,126.567810L431.505066,127.029663L430.902252,127.620605L430.426208,128.317810L430.095367,129.094421L429.922455,129.920654L429.913971,130.764893L430.070435,131.594543L430.385712,132.377502L430.847626,133.084106L431.438629,133.687012L432.135803,134.162964L432.912445,134.493713L433.738708,134.666809L434.582886,134.675171L435.412415,134.518738L436.195526,134.203552z" fill="#000000" stroke="none" fill-opacity="1" />
				<path d="M431.938202,12.247192L431.829163,11.407227L431.558258,10.604614L431.136047,9.870361L430.578674,9.232666L429.907562,8.715820L429.148590,8.339966L428.330872,8.119385L427.485687,8.062500L426.645752,8.171631L425.843262,8.442505L425.109009,8.864624L424.471222,9.421997L423.954468,10.093140L423.578522,10.852173L423.357880,11.669922L423.301025,12.515015L424.800629,142.929443L415.023712,220.980347L378.617096,191.786499L376.723297,190.551941L374.625061,189.710510L372.402954,189.294617L370.142517,189.320251L367.930420,189.786316L365.851776,190.675110L363.986511,191.952332L362.406219,193.568787L361.171600,195.462646L360.330261,197.560730L359.914337,199.782959L359.939941,202.043396L360.406128,204.255432L361.294769,206.334045L362.572021,208.199402L364.188507,209.779663L417.873077,252.828552L419.991028,254.176575L422.350708,255.034363L424.839996,255.361206L427.341003,255.141541L429.735199,254.385742L431.909058,253.129761L433.759644,251.432983L435.199097,249.376038L436.159302,247.056274L436.594757,244.583679L438.520325,143.494507z" fill="#000000" stroke="none" fill-opacity="1" />
				<path d="M386.211670,95.869080L384.940399,95.271851L383.577148,94.934326L382.174164,94.869080L380.785400,95.078918L379.464294,95.555664L378.261597,96.280884L377.223450,97.226929L376.389832,98.357178L375.792694,99.628418L375.455078,100.991699L375.389984,102.394653L375.599731,103.783447L376.076447,105.104492L376.801697,106.307251L377.747681,107.345459L378.878021,108.179077L426.429596,136.633789L427.720093,137.239929L429.104034,137.582642L430.528198,137.648621L431.937927,137.435730L433.279053,136.951904L434.499969,136.215576L435.553741,135.255310L436.399994,134.107910L437.006165,132.817505L437.348846,131.433472L437.415009,130.009277L437.202026,128.599487L436.718201,127.258484L435.981934,126.037537L435.021576,124.983643L433.874207,124.137451z" fill="#000000" stroke="none" fill-opacity="1" />
				<path d="M424.209778,232.333435L421.983368,232.725525L419.876312,233.544556L417.969513,234.758789L416.336121,236.321838L415.039154,238.173279L414.128357,240.242432L413.638580,242.449341L413.588867,244.709473L413.980988,246.935852L414.799927,249.042908L416.014221,250.949768L417.577240,252.583069L419.428802,253.880066L421.497833,254.790955L423.704773,255.280701L425.964874,255.330383L465.797729,248.601257L477.889771,266.134644L478.883820,267.310181L480.088135,268.269226L481.456390,268.974976L482.936127,269.400208L484.470306,269.528503L485.999908,269.355103L487.466492,268.886597L488.813354,268.140930L489.988983,267.146851L490.947998,265.942566L491.653656,264.574341L492.078918,263.094666L492.207336,261.560547L492.033813,260.030762L491.565308,258.564270L490.819702,257.217346L476.165283,235.968506L474.797028,234.452332L473.083954,233.340210L471.142151,232.707336L469.102783,232.596558z" fill="#000000" stroke="none" fill-opacity="1" />
				<path d="M473.280457,244.021973L473.139343,244.278442L473.050995,244.557495L473.018860,244.848450L473.044037,245.140015L473.125610,245.421082L473.260529,245.680969L473.443481,245.909424L473.667511,246.097839L473.923950,246.238892L474.203033,246.327148L474.493927,246.359375L474.785583,246.334290L475.066620,246.252686L475.326477,246.117798L475.554962,245.934753L475.743347,245.710754L509.507233,196.472046L509.682678,196.127991L509.763947,195.750488L509.745605,195.364746L503.528503,151.833130L503.350189,151.218750L503.047150,150.655334L502.632874,150.167908L502.125671,149.778076L501.548248,149.503052L500.925873,149.355042L500.286285,149.340759L499.658020,149.460632L499.068634,149.709290L481.569916,160.457703L481.231415,160.690857L480.944977,160.985596L480.721466,161.330444L480.569458,161.712463L480.494965,162.116577L480.500824,162.527588L480.586639,162.929443L480.749390,163.307007L480.982513,163.645569L481.277191,163.932007L481.622101,164.155518L482.003998,164.307495L482.408203,164.381897L482.819153,164.376038L483.221069,164.290222L483.598602,164.127625L498.294891,157.078857L506.698273,195.288025z" fill="#000000" stroke="none" fill-opacity="1" />
				<path d="M507.664276,196.989807L507.941803,197.082947L508.232025,197.120178L508.524078,197.099976L508.806641,197.023315L509.068726,196.892944L509.300323,196.713928L509.492462,196.493164L509.638062,196.239197L509.731110,195.961731L509.768280,195.671387L509.748260,195.379456L509.671448,195.096924L509.541107,194.834839L509.362122,194.603210L509.141357,194.410950L508.887421,194.265503L487.761841,183.667664L499.839355,157.466003L499.944885,157.193054L499.995239,156.904663L499.988251,156.612061L499.924408,156.326538L499.805969,156.058655L499.637634,155.819275L499.425812,155.617371L499.178619,155.460510L498.905670,155.354980L498.617279,155.304626L498.324646,155.311584L498.039001,155.375610L497.771210,155.493896L497.531799,155.662354L497.329803,155.874023L497.173035,156.121277L482.100708,183.751587L481.901581,184.294006L481.832001,184.867493L481.895386,185.441833L482.088562,185.986328L482.401123,186.472290L482.816650,186.873840L483.312958,187.169495z" fill="#000000" stroke="none" fill-opacity="1" />
				<path d="M450.003632,308.394958L449.639954,308.537842L449.311066,308.748962L449.029724,309.020081L448.806793,309.340881L448.650604,309.699097L448.567322,310.080750L448.560120,310.471497L448.629303,310.856079L448.772125,311.219666L448.983215,311.548584L449.254272,311.829895L449.575134,312.052917L449.933319,312.209045L450.315002,312.292358L450.705719,312.299561L451.090302,312.230408L472.192749,306.251343L472.979340,305.818298L491.202179,292.191650L491.865601,291.424927L492.315125,290.516235L492.521790,289.523621L492.472595,288.510986L488.911621,268.440552L555.982239,180.936523L556.517883,179.997986L556.782776,178.950562L556.757935,177.870239L552.656189,142.457703L552.279053,141.153015L551.595764,139.979248L550.647278,139.007202L549.490601,138.295166L548.195557,137.886047L546.839844,137.804565L516.008423,142.726746L515.268921,142.885193L514.607666,143.252502L514.082581,143.796814L501.637573,162.052368L501.432953,162.408691L501.301697,162.798157L501.248932,163.205933L501.276733,163.615967L501.384094,164.012695L501.566742,164.380859L501.817719,164.706360L502.127289,164.976624L502.483765,165.181396L502.873199,165.312561L503.280823,165.365234L503.690887,165.337463L504.087677,165.230225L504.455963,165.047546L504.781372,164.796570L505.051727,164.486938L517.548340,147.766663L542.513489,149.174011L548.581360,177.432861L481.485809,264.969360L480.941742,265.929138L480.680359,267.001099L480.721588,268.103638L484.201050,287.715637L470.662750,302.541626z" fill="#000000" stroke="none" fill-opacity="1" />
				<path d="M518.325745,143.898926L518.013855,143.504944L517.631165,143.179321L517.192322,142.934570L516.714050,142.780212L516.214966,142.722168L515.714050,142.762634L515.230652,142.899841L514.783447,143.128906L514.389404,143.440674L514.063843,143.823425L513.819153,144.262390L513.664795,144.740479L513.606628,145.239685L513.647034,145.740601L513.784363,146.223938L514.013367,146.671204L534.682556,176.875793L534.879578,177.121521L535.123230,177.321106L535.403076,177.465637L535.706787,177.549133L536.021301,177.567810L536.332642,177.520813L536.627563,177.410339L536.893188,177.241028L537.117981,177.020203L537.291870,176.757690L537.407715,176.464722L544.490723,151.064026L544.541809,150.772400L544.535217,150.476379L544.470886,150.187378L544.351379,149.916504L544.181458,149.674072L543.967468,149.469543L543.717651,149.310608L543.441589,149.203491L543.150024,149.152405L542.853943,149.159058L542.565002,149.223328L542.294128,149.342834L542.051697,149.512756L541.847107,149.726868L541.688232,149.976624L541.581116,150.252625L535.402588,172.410095z" fill="#000000" stroke="none" fill-opacity="1" />
				<path d="M488.055634,243.594849L487.913635,243.854614L487.824921,244.137024L487.792999,244.431396L487.819214,244.726379L487.902405,245.010559L488.039490,245.272888L488.225098,245.503540L488.452148,245.693481L488.711823,245.835693L488.994385,245.924255L489.288727,245.956177L489.583649,245.929871L489.867676,245.846680L490.130219,245.709595L490.360809,245.524048L490.550781,245.296997L537.160645,178.964844L550.086243,180.230347L550.381165,180.255859L550.675537,180.223328L550.957764,180.133972L551.217224,179.991333L551.443787,179.800781L551.628845,179.569641L551.765259,179.306885L551.847717,179.022461L551.873230,178.727539L551.840698,178.433228L551.751282,178.151062L551.608582,177.891541L551.418030,177.665039L551.186951,177.479980L550.924194,177.343567L550.639832,177.260986L536.435852,173.468689L535.829224,173.426880L535.229126,173.525330L534.667542,173.758728L534.174377,174.114746L533.776001,174.574158z" fill="#000000" stroke="none" fill-opacity="1" />
				<path d="M386.970062,223.371582L387.169617,223.039185L387.300385,222.674072L387.357513,222.290527L387.338684,221.903320L387.244659,221.527100L387.079041,221.176514L386.848236,220.864990L386.561035,220.604370L386.228546,220.404968L385.863617,220.274170L385.480011,220.216980L385.092712,220.235779L384.716553,220.329834L384.365906,220.495422L384.054382,220.726257L383.793823,221.013428L363.089325,241.649292L362.389221,242.849365L361.969086,244.173462L361.849304,245.557678L362.035919,246.934326L362.519592,248.236755L363.276978,249.401428L364.271118,250.371826L365.453796,251.100830L366.767517,251.552917L368.148315,251.706055L402.615753,247.193604L402.964630,247.159241L403.300110,247.057434L403.609344,246.892273L403.880341,246.669739L404.102722,246.398804L404.267975,246.089661L404.369812,245.754150L404.404144,245.405273L404.369812,245.056274L404.267975,244.720825L404.102722,244.411743L403.880341,244.140686L403.609344,243.918213L403.300110,243.753052L402.964630,243.651184L402.615753,243.616821L380.673737,239.104370z" fill="#000000" stroke="none" fill-opacity="1" />
				<path d="M374.245758,243.817444L373.818817,242.658325L373.173981,241.604858L372.335938,240.697388L371.337036,239.970825L370.215637,239.453369L369.014709,239.164307L367.780518,239.115234L366.560455,239.307800L365.401459,239.734741L364.347900,240.379639L363.440491,241.217651L362.714050,242.216431L362.196289,243.338013L361.907318,244.538879L361.858307,245.773071L362.050934,246.993103L376.067230,279.396729L376.128448,279.562805L376.220886,279.713745L376.340912,279.843811L376.484070,279.947815L376.644775,280.022034L376.816803,280.063416L376.993683,280.070496L377.168579,280.042847L377.334595,279.981750L377.485565,279.889282L377.615601,279.769226L377.719696,279.626038L377.793945,279.465332L377.835297,279.293335L377.842316,279.116394L377.814728,278.941650z" fill="#000000" stroke="none" fill-opacity="1" />
				<path d="M486.665283,292.751282L487.391876,293.047363L488.162415,293.195923L488.946991,293.191345L489.715729,293.033630L490.438873,292.729187L491.088654,292.289490L491.640289,291.731384L492.072388,291.076416L492.368469,290.349731L492.516998,289.579285L492.512421,288.794617L492.354828,288.025940L492.050446,287.302856L491.610626,286.652954L491.052612,286.101379L490.397675,285.669312L463.261078,274.059143L462.966705,273.939209L462.654572,273.879089L462.336639,273.880920L462.025330,273.944702L461.732269,274.068115L461.469025,274.246216L461.245514,274.472290L461.070526,274.737671L460.950500,275.032043L460.890350,275.344177L460.892242,275.662048L460.956055,275.973511L461.079407,276.266479L461.257568,276.529724L461.483643,276.753174L461.748993,276.928223z" fill="#000000" stroke="none" fill-opacity="1" />
				<path d="M282.415466,138.649963L282.296509,138.133423L282.079193,137.649963L281.771637,137.218323L281.385803,136.854980L280.936432,136.573792L280.440918,136.385681L279.918213,136.298035L279.388458,136.313843L278.871918,136.432617L278.388519,136.650146L277.956848,136.957703L277.593445,137.343506L277.312347,137.792908L277.124268,138.288391L277.036469,138.811096L277.052338,139.340881L281.361176,172.784973L281.491760,173.335510L281.734161,173.846802L282.077667,174.296448L282.507202,174.664795L283.003937,174.935730L283.546173,175.097168L284.110168,175.142334L284.671295,175.069214L285.204865,174.880737L285.687408,174.585510L322.105377,149.459473L322.808838,148.801331L323.370392,148.018616L323.768555,147.141357L323.987793,146.203308L324.019897,145.240601L323.863525,144.289917L323.524658,143.388184L323.016449,142.569702L322.358337,141.866211L321.575623,141.304688L320.698364,140.906555L319.760284,140.687378L318.797455,140.655273L317.846893,140.811523L316.945129,141.150391L316.126801,141.658752L286.124451,167.437683z" fill="#000000" stroke="none" fill-opacity="1" />
				<path d="M286.486298,171.282166L286.213531,170.827698L285.857422,170.435303L285.431519,170.119751L284.952240,169.893372L284.438110,169.764832L283.908691,169.739136L283.384369,169.817139L282.885559,169.995972L282.431061,170.268677L282.038513,170.624817L281.722931,171.050659L281.496582,171.529968L281.368103,172.044189L281.342407,172.573608L281.420471,173.097900L281.599274,173.596802L312.573578,248.608154L338.545715,272.237488L338.900787,272.572449L339.314301,272.831665L339.770538,273.005249L340.251801,273.086548L340.739655,273.072327L341.215393,272.963196L341.660675,272.763428L342.058472,272.480530L342.393463,272.125427L342.652649,271.711914L342.826263,271.255798L342.907501,270.774414L342.893341,270.286560L342.784210,269.810852L342.584412,269.365540L342.301544,268.967773L324.494110,241.922485z" fill="#000000" stroke="none" fill-opacity="1" />
				<path d="M508.746796,236.719421L508.513794,236.536682L508.249664,236.402893L507.964478,236.323303L507.669312,236.300781L507.375336,236.336365L507.094025,236.428528L506.836090,236.573792L506.611450,236.766602L506.428680,236.999634L506.295013,237.263733L506.215240,237.548950L506.192688,237.844116L506.228271,238.138062L506.320526,238.419373L506.465729,238.677368L506.658569,238.901978L515.891785,247.735901L503.785889,257.302063L503.350189,257.845886L503.033295,258.466492L502.848022,259.138306L502.802155,259.833801L502.897369,260.524109L503.129913,261.181091L503.490265,261.777588L503.963470,262.289185L504.530182,262.694824L505.167053,262.977722L505.847900,263.126343L520.303589,262.833984L512.933838,285.311523L496.718323,290.513611L495.891296,291.065979L495.215851,291.796021L494.729248,292.663452L494.458282,293.620483L494.418091,294.614197L494.610565,295.589966L495.025421,296.493958L504.884521,310.128601L480.856262,318.625366L480.198669,318.960388L479.619110,319.417236L479.139832,319.978333L478.779175,320.622192L478.551025,321.324097L478.464233,322.056946L478.522064,322.792664L478.722351,323.502930L479.057343,324.160583L479.514191,324.740112L480.075348,325.219543L480.719177,325.580139L481.421021,325.808289L482.153931,325.895081L482.889679,325.837280L483.599854,325.637024L510.256836,314.300476L510.820465,314.005493L511.306915,313.595520L511.693176,313.089966L511.960724,312.512756L512.097046,311.891296L512.095520,311.255066L511.956390,310.634277L511.686096,310.058411L504.639160,295.985779L514.860352,287.720093L515.184326,287.497620L515.439880,287.199219L515.609924,286.844910L523.751221,262.013733L523.819580,261.686584L523.814331,261.352356L523.735718,261.027527L523.587463,260.727905L523.376892,260.468262L523.114502,260.261230L522.812927,260.117065L522.487122,260.042603L513.629395,257.094299L519.119019,248.761719L519.329163,248.493042L519.473572,248.184082L519.545105,247.850464L519.539795,247.509460L519.458191,247.178284L519.304260,246.873840L519.086060,246.611694z" fill="#000000" stroke="none" fill-opacity="1" />
			</g>
		</g>
	</g>
</svg>
