<?xml version="1.0" encoding="UTF-8"?>
<!-- Generator: Blender, SVG Export for Grease Pencil - v2.0 -->
<!DOCTYPE svg PUBLIC "-//W3C//DTD SVG 1.1//EN" "http://www.w3.org/Graphics/SVG/1.1/DTD/svg11.dtd">
<svg version="1.1" x="0px" y="0px" xmlns="http://www.w3.org/2000/svg" width="1920.000000px" height="1080.000000px" viewBox="0 0 1920.000000 1080.000000">
	<g id="blender_frame.4">
		<g id="blender_object.Stroke.4.uuid_0x0">
			<g id="layer.hair.uuid_0x1">
				<polyline points="522.542175,957.810364 421.084534,931.553284 349.960846,781.060669 359.898285,747.248840 386.510529,709.367737 423.760284,700.020386 457.967651,691.593689 565.508728,750.875000" fill="#000000" stroke="none" fill-opacity="1" />
				<polyline points="473.469086,217.065002 408.235443,183.026672 377.722260,151.150208 286.908630,204.235046 300.092407,239.662292 307.158478,268.417297 314.715088,297.477539 326.327759,344.655945 335.802399,394.446045 339.309143,446.283569 336.522949,499.672424 324.422150,554.243103 303.585144,610.384644 272.087646,678.294312 249.497055,733.624023 230.613556,792.256592 226.005753,842.378723 238.268784,942.186157 261.536682,921.016602 303.111389,907.890991 366.891052,924.951904 443.495392,944.137512 440.064606,912.558838 437.202850,870.533447 456.790558,824.873230 463.702240,856.670044 481.413330,915.754456 487.689148,957.948120 557.002991,985.841370 554.414917,923.787598 556.339844,887.407166 557.964417,805.811523 536.667358,731.062134 518.005005,651.778564 499.065277,575.506775 483.032684,512.951599 470.379150,462.417664 459.633118,419.832947 451.247681,382.895874 446.231903,354.536743 444.683685,316.830750" fill="#C1DFDD" stroke="none" fill-opacity="1" />
				<path d="M471.171051,221.469177L472.074371,221.832886L473.031342,222.013367L474.005035,222.003723L474.958313,221.804138L475.854187,221.422546L476.658539,220.873535L477.340210,220.178162L477.873169,219.363159L478.236847,218.459717L478.417328,217.502747L478.407654,216.529053L478.208191,215.575745L477.826599,214.679932L477.277557,213.875610L476.582153,213.193848L475.767120,212.661011L409.990448,180.689636L379.267151,149.671509L378.902344,149.366760L378.479279,149.150146L378.018829,149.032349L377.543732,149.019104L377.077454,149.111206L376.642975,149.304077L284.489655,200.096985L283.599518,200.767334L282.888153,201.625244L282.394165,202.624084L282.144226,203.710083L282.151733,204.824341L282.416321,205.906799L296.812195,240.671875L303.831085,269.234985L311.899323,298.190125L324.150391,345.130737L332.343170,394.890625L332.920563,446.332764L328.410797,498.569153L316.578339,551.929749L295.299622,606.931824L263.738464,674.421814L242.902969,730.931763L225.739792,790.686890L220.906906,841.909973L227.954346,943.453491L228.474884,945.660889L229.461884,947.702759L230.868454,949.481934L232.627411,950.913635L234.655090,951.929688L236.854874,952.481567L239.121948,952.543152L241.348511,952.111389L243.428238,951.206970L245.262390,949.872925L266.053436,928.868591L303.268494,914.957886L365.594879,929.797363L442.931091,946.390564L443.422028,946.459045L443.916351,946.421753L444.391479,946.280396L444.825775,946.041443L445.199493,945.715820L445.495605,945.318237L445.700562,944.866882L445.805176,944.382324L445.804535,943.886597L442.378754,912.354492L439.558228,870.934448L456.187073,831.166870L461.819550,857.079224L478.362091,916.434998L483.746552,958.534607L484.030121,959.528931L484.559784,960.416931L485.300110,961.138794L486.201172,961.645935L555.011414,990.790649L556.148254,991.107422L557.327026,991.166504L558.489990,990.965027L559.580017,990.512695L560.543945,989.831787L561.334778,988.955688L561.913513,987.927124L562.251831,986.796387L562.333374,985.619080L561.371826,923.826477L563.383362,887.779846L563.662476,805.924927L541.382446,729.836182L522.041321,650.828430L503.089691,574.507446L488.101501,511.667419L474.951263,461.272888L463.667877,418.866028L455.315582,382.074829L450.365753,354.088379L448.828918,316.660461L448.716064,315.855103L448.448242,315.087158L448.035797,314.386169L447.494476,313.779236L446.845154,313.289551L446.112762,312.935852L445.325470,312.731934L444.513458,312.685486L443.708099,312.798279L442.940063,313.066162L442.239227,313.478699L441.632172,314.020020L441.142487,314.669312L440.788818,315.401611L440.584869,316.188965L440.538422,317.000977L442.086700,354.706970L447.162384,383.618347L455.587311,420.751404L465.808105,463.566711L477.960327,514.221680L495.044617,576.521240L513.974548,652.753296L531.926331,732.178162L552.249451,806.551880L549.290161,887.150513L547.475403,923.420471L551.328369,977.806946L491.295868,955.102905L484.497528,915.295715L465.569061,856.188110L458.673218,824.463989L458.546387,824.080200L458.342346,823.731262L458.069855,823.432617L457.741180,823.197388L457.370544,823.035950L456.974457,822.955444L456.570282,822.959229L456.175781,823.047363L455.808380,823.215759L455.484161,823.457214L455.217407,823.760925L455.019989,824.113647L435.068298,869.617737L434.885620,870.691223L437.747314,912.716675L440.826263,941.074646L368.148529,920.096008L304.865082,901.335083L302.960632,901.106262L301.068237,901.419434L258.873077,912.579590L255.582550,914.472412L246.133621,920.981079L231.154922,842.299988L235.660629,793.288208L256.193573,736.065430L280.527191,681.971924L311.721710,614.158447L332.070862,557.081970L344.488037,501.438660L345.677765,446.615906L339.275696,394.211060L328.516266,344.239502L317.535400,296.783325L310.480438,267.577209L303.419891,238.844543L292.806244,206.339783L377.344421,153.848450L406.152252,185.020874z" fill="#000000" stroke="none" fill-opacity="1" />
				<polyline points="333.801208,655.232666 332.279480,592.724121 339.475647,558.486084 351.319458,532.959412 351.883087,560.292542 347.414307,597.168701" fill="#000000" stroke="none" fill-opacity="1" />
			</g>
			<g id="layer.legs.uuid_0x2">
				<polyline points="335.954559,1017.041748 328.962982,1061.573608 364.759430,1046.731079 374.219116,1017.632874" fill="#000000" stroke="none" fill-opacity="1" />
				<polyline points="514.391113,1013.069580 483.165070,1010.699524 487.367920,1039.585815 509.912781,1048.091431 533.946899,1052.374634 564.070435,1050.817017" fill="#000000" stroke="none" fill-opacity="1" />
				<polyline points="377.800812,600.950684 486.353851,810.985229 540.755859,974.830322 227.239090,1000.386475 283.125885,758.593262 282.088135,583.480347" fill="#1D0021" stroke="none" fill-opacity="1" />
				<path d="M379.982025,599.823364L379.720154,599.419556L379.384644,599.074463L378.988129,598.801514L378.545990,598.611206L378.075317,598.510803L377.594025,598.504089L377.120697,598.591431L376.673462,598.769531L376.269653,599.031311L375.924561,599.366943L375.651672,599.763428L375.461365,600.205444L375.360870,600.676208L375.354248,601.157471L375.441559,601.630859L375.619659,602.078003L484.084259,811.941650L537.440552,972.637146L232.663132,995.700745L285.518188,759.146240L284.543427,583.465759L284.493408,582.987061L284.350952,582.527222L284.121552,582.104126L283.813965,581.733887L283.440155,581.430725L283.014374,581.206360L282.552948,581.069336L282.073547,581.025024L281.594940,581.075073L281.135101,581.217529L280.711945,581.446899L280.341736,581.754395L280.038513,582.128296L279.814178,582.554199L279.677185,583.015625L279.632904,583.494873L280.668915,758.320374L223.118195,999.433960L223.010269,1000.308899L223.086029,1001.187195L223.342194,1002.030640L223.767685,1002.802795L224.344025,1003.469849L225.046066,1004.003052L225.843430,1004.379028L226.701340,1004.581665L227.582687,1004.601990L540.955383,977.277527L541.499146,977.170410L542.005188,976.944031L542.447510,976.609863L542.803589,976.184998L543.055359,975.691101L543.189819,975.153320L543.200195,974.599121L543.085999,974.056580L488.683990,810.211548z" fill="#000000" stroke="none" fill-opacity="1" />
				<polyline points="403.598267,730.245728 353.811981,774.057739 371.923615,1015.618286 341.750336,1033.987915 328.734558,1057.996216 275.612457,1072.547852 249.730667,1063.106201 221.352997,1037.580078 253.763062,1001.323547 279.204437,816.034058 280.867310,769.256104 281.655792,581.936035" fill="#440090" stroke="none" fill-opacity="1" />
				<path d="M406.198029,733.199951L406.724396,732.636047L407.130646,731.980225L407.401154,731.257751L407.525513,730.496460L407.498962,729.725464L407.322510,728.974487L407.002869,728.272339L406.552490,727.646057L405.988586,727.119629L405.332733,726.713379L404.610260,726.442871L403.848938,726.318542L403.077972,726.345093L402.326996,726.521484L401.624817,726.841125L400.998566,727.291504L351.212219,771.103516L350.439087,772.030579L349.983276,773.148499L349.887787,774.351929L367.819214,1013.509888L339.703949,1030.626709L338.290833,1032.112427L326.075348,1054.644409L275.835571,1067.138428L251.795364,1059.671021L225.175781,1037.371948L257.347595,1004.527771L258.127380,1003.340637L258.526215,1001.977539L288.475983,817.307129L286.016388,769.439087L284.111084,581.946289L284.065979,581.467163L283.928162,581.005920L283.703094,580.580444L283.399261,580.207153L283.028442,579.900269L282.604980,579.671509L282.144928,579.529907L281.666168,579.480713L281.186859,579.525879L280.725800,579.663635L280.300385,579.888794L279.927002,580.192505L279.620087,580.563293L279.391418,580.986816L279.249725,581.446838L279.200531,581.925659L275.715210,769.153687L269.868561,815.229248L249.199677,999.214417L219.331558,1035.773071L218.980682,1036.267090L218.748383,1036.826782L218.646179,1037.424072L218.679138,1038.029053L218.845581,1038.611694L219.137360,1039.142822L219.539734,1039.595825L247.099213,1066.031616L248.382172,1066.802734L273.844757,1077.393677L275.399994,1077.701660L276.975342,1077.522705L329.774261,1061.791626L330.745178,1061.379028L331.571564,1060.723389L332.194092,1059.871704L344.703766,1036.796997L373.969971,1018.979553L374.804901,1018.298462L375.423920,1017.416443L375.780396,1016.399536L375.847809,1015.324036L357.882660,775.717529z" fill="#000000" stroke="none" fill-opacity="1" />
				<polygon points="578.729675,1023.758484 581.465698,1030.930298 585.719727,1042.354858 563.482239,1048.213135 539.089417,1031.621338 514.160706,1012.324036 485.771332,1008.352539 478.101929,978.603638 542.196594,969.103699 555.432495,1006.032776 565.235168,1014.123230" fill="#440090" stroke="none" fill-opacity="1" />
				<path d="M583.206604,1022.050598L582.787415,1021.210083L582.212158,1020.467407L581.503235,1019.851257L580.687622,1019.385193L579.796814,1019.087280L578.864990,1018.968811L577.927979,1019.034424L577.021790,1019.281677L576.181152,1019.700867L575.438538,1020.276001L574.822388,1020.984985L574.356384,1021.800598L574.058411,1022.691406L573.939941,1023.623169L574.005615,1024.560303L574.252808,1025.466431L578.165344,1032.174194L581.550171,1040.192749L564.067993,1044.798218L540.942749,1029.068848L516.090759,1009.830811L514.597534,1009.201538L489.563599,1004.104309L479.877930,979.781677L541.502625,970.261963L553.205444,1006.830933L553.926636,1007.857300L563.228149,1016.554932L575.945312,1027.658081L576.759705,1028.126343L577.649597,1028.426758L578.581116,1028.547852L579.518250,1028.484863L580.425171,1028.240112L581.266968,1027.823242L582.011169,1027.250122L582.629333,1026.542847L583.097656,1025.728638L583.398071,1024.838623L583.518982,1023.907104L583.455933,1022.969910L583.211304,1022.062988L582.794495,1021.221252L582.221313,1020.476990L581.513977,1019.858887L567.157043,1011.621277L557.439941,1004.622314L543.179321,968.751465L543.073730,968.537598L542.922363,968.353271L542.733093,968.208130L542.515869,968.109680L542.281799,968.063171L542.043457,968.070984L477.892914,977.193298L477.604126,977.267578L477.337250,977.400330L477.103668,977.585693L476.913788,977.815552L476.775879,978.079834L476.695892,978.367065L476.677490,978.664673L476.721313,978.959595L481.188568,1009.534058L481.591522,1010.572388L482.226196,1011.487793L483.057068,1012.229553L484.038391,1012.756470L485.115601,1013.039551L512.893616,1015.330505L537.159363,1034.114624L561.708923,1050.820068L562.513367,1051.213501L563.395935,1051.364868L564.285522,1051.261963L586.522827,1045.403809L587.137207,1045.171143L587.689941,1044.816406L588.157166,1044.354736L588.518738,1043.806274L588.758667,1043.194824L588.866882,1042.546997L588.838196,1041.890747L588.674438,1041.254639L584.770996,1029.699585z" fill="#000000" stroke="none" fill-opacity="1" />
			</g>
			<g id="layer.body.uuid_0x3">
				<polyline points="385.897522,541.866943 444.320007,486.903442 437.006409,463.618591 441.161774,413.946716 443.328369,397.120239 406.441132,358.501648 387.878784,435.142090 377.508484,435.971680" fill="#944DB1" stroke="none" fill-opacity="1" />
				<path d="M384.215057,540.078613L383.879974,540.467529L383.633118,540.917542L383.485291,541.409119L383.442749,541.920654L383.507568,542.429810L383.676849,542.914429L383.943146,543.353271L384.294830,543.727112L384.716644,544.019653L385.190033,544.218140L385.694305,544.313904L386.207458,544.302673L386.707123,544.184937L387.171356,543.966003L387.579987,543.655273L446.002441,488.691711L446.357727,488.273315L446.611084,487.786316L446.750031,487.255249L446.767456,486.706482L446.662476,486.167725L439.493408,463.342773L443.603943,414.205994L445.763580,397.433777L445.748779,396.707825L445.522308,396.017822L445.103882,395.424316L410.386780,354.732910L409.495728,353.980469L408.465149,353.434509L407.342010,353.120178L406.177795,353.051636L405.025635,353.232117L403.938080,353.653320L402.964905,354.296021L402.150574,355.130798L401.532135,356.119629L401.138062,357.217224L385.306122,432.127686L377.252472,432.771912L376.633179,432.883362L376.047485,433.113464L375.518005,433.453369L375.064941,433.890076L374.705780,434.406799L374.454407,434.983643L374.320282,435.598450L374.308716,436.227600L374.420166,436.846863L374.650269,437.432617L374.990204,437.962219L375.426941,438.415222L375.943634,438.774353L376.520447,439.025696L377.135284,439.159851L377.764404,439.171326L388.134705,438.341858L388.920410,438.178345L389.640991,437.825073L390.251495,437.304138L390.713562,436.648010L390.998505,435.897766L409.393372,369.492126L440.743469,397.968811L438.726593,413.633179L434.559692,463.413879L434.663910,464.354309L441.516144,486.170227z" fill="#000000" stroke="none" fill-opacity="1" />
				<polyline points="394.665741,445.741333 420.110138,456.890076 441.413635,460.076416 444.568817,444.499207 426.088837,442.042358 404.258636,430.651123 390.633362,416.873047 383.453949,429.654358" fill="#000000" stroke="none" fill-opacity="1" />
				<polygon points="387.019775,538.282471 441.581879,468.973816 459.697083,514.612244 446.035339,534.515381 403.923645,556.099487 394.670776,589.822876 446.244080,716.137573 520.137268,853.505615 583.507202,983.528259 543.246826,996.830322 427.950592,1020.727905 360.696198,811.347290 279.315308,638.093872 282.886200,580.482910 309.877228,538.539490 305.143646,483.947144 306.411255,464.416321 379.936279,432.919006" fill="#1D0021" stroke="none" fill-opacity="1" />
				<path d="M385.090546,536.763672L384.831329,537.169312L384.656250,537.617615L384.571869,538.091553L384.581726,538.572693L384.685120,539.042847L384.878357,539.483643L385.153809,539.878296L385.500977,540.211731L385.906555,540.470947L386.354889,540.646118L386.828766,540.730347L387.309998,540.720581L387.780121,540.617126L388.220978,540.423950L388.615662,540.148438L388.949036,539.801208L440.873138,473.843506L453.884186,513.959351L444.362610,532.613708L402.343414,553.016357L401.561890,553.564758L400.959717,554.305664L400.582642,555.182800L392.302917,589.173218L392.219849,589.969971L392.397644,590.750977L439.936523,718.712891L517.951660,854.625488L573.684875,979.385986L542.610352,994.454712L433.515076,1011.183167L363.033875,810.596375L281.804749,637.618652L285.297150,581.273438L314.837494,541.731445L315.602936,539.956726L315.753693,538.029907L306.172241,483.935974L309.849457,466.847351L377.718964,436.540039L384.570007,538.447144L384.649200,538.921936L384.819458,539.372192L385.074402,539.780396L385.403992,540.131165L385.795654,540.410889L386.234436,540.608765L386.703339,540.717285L387.184448,540.732300L387.659210,540.653076L388.109375,540.482727L388.517700,540.227905L388.868439,539.898254L389.148163,539.506531L389.346161,539.067810L389.454620,538.598877L389.469574,538.117798L382.386078,432.754395L382.296570,432.242432L382.101349,431.760925L381.809052,431.331116L381.432953,430.972534L380.989746,430.701111L380.499390,430.529175L379.983856,430.464172L379.466125,430.509094L378.969452,430.662109L304.998230,461.117798L304.154724,461.626160L303.481232,462.344666L303.028320,463.219177L302.830353,464.183960L304.120087,483.880676L303.826660,537.041748L280.821350,579.154236L280.435577,580.331055L276.864685,637.941956L277.092865,639.137756L358.406738,812.248291L420.127533,1023.240723L420.966614,1025.056641L422.219604,1026.616089L423.812286,1027.826416L425.650330,1028.616089L427.624603,1028.938232L429.618286,1028.773682L543.745056,999.234558L585.707825,990.188843L587.066895,989.572571L588.264954,988.682739L589.247681,987.559570L589.970520,986.254089L590.400940,984.825134L590.519226,983.337524L590.320251,981.858521L589.812805,980.455078L522.344360,852.429932L452.415222,713.227966L397.259460,589.667603L406.861206,558.487000L447.155273,536.700439L448.059692,535.904907L463.952911,517.533569L464.534149,516.414734L464.826782,515.188354L464.813446,513.927673L464.494904,512.707825L443.864014,468.067932L443.625458,467.612793L443.297424,467.217285L442.894196,466.898621L442.433533,466.670959L441.935486,466.544128L441.422058,466.523682L440.915558,466.610657L440.438293,466.801147L440.011047,467.086731L439.652649,467.455078z" fill="#000000" stroke="none" fill-opacity="1" />
			</g>
			<g id="layer.arms.uuid_0x4">
				<polygon points="298.544830,499.020325 316.113953,629.806641 301.892883,763.461792 298.038483,781.595093 294.366486,811.062012 293.793030,849.803406 302.301910,852.250854 309.618042,837.099792 315.179962,819.197632 310.897705,837.482178 314.933472,877.021362 320.302399,885.371094 333.861786,846.424194 337.319122,823.353394 335.885223,845.368652 325.016327,881.296753 327.447083,889.750183 351.884186,851.659302 353.543701,828.732117 349.895538,856.083862 348.133606,883.473389 351.534027,894.967773 369.748260,874.698120 370.537537,846.397644 371.412567,834.576538 371.971130,846.687561 378.700256,864.731873 379.971466,843.783081 381.075012,821.285767 376.322815,815.715881 355.146057,652.925537 355.613068,630.925720 353.925446,564.373474 342.994751,499.997253 338.870148,487.588562 326.951996,476.529968 309.862335,470.254578 303.987396,474.107788 301.734222,482.124573" fill="#944DB1" stroke="none" fill-opacity="1" />
				<path d="M301.445190,498.630737L301.313507,498.072327L301.075348,497.550415L300.739990,497.084961L300.320221,496.693909L299.832214,496.392212L299.294739,496.191528L298.728485,496.099548L298.155212,496.119812L297.596771,496.251648L297.074890,496.489807L296.609375,496.825195L296.218414,497.244934L295.916687,497.732910L295.716064,498.270386L295.624084,498.836670L295.644379,499.409912L313.234711,629.846252L299.256592,763.042480L295.033020,780.956238L292.475128,810.826416L291.117828,849.763794L291.172424,850.342285L291.350464,850.895264L291.643799,851.396790L292.038391,851.823242L292.515839,852.154358L293.053436,852.374634L301.525940,854.948975L302.171356,855.055237L302.823700,855.009399L303.447845,854.813782L304.009766,854.479126L304.479065,854.023499L304.830109,853.471619L312.075989,838.286621L314.870056,820.336548L308.218292,836.854675L312.345245,877.299072L312.722168,878.394775L317.887054,886.871277L318.242432,887.330933L318.683868,887.708740L319.192932,887.988953L319.748260,888.159851L320.326691,888.214294L320.904205,888.149963L321.456512,887.969604L321.960693,887.680725L322.395538,887.295349L322.743073,886.829651L322.988617,886.303101L335.704376,847.063477L337.111237,825.290649L333.694977,844.965271L321.891968,880.332825L321.746857,881.259644L321.870850,882.189453L323.432770,890.889465L323.755127,891.694946L324.237091,892.416382L324.857819,893.022522L325.590485,893.487244L326.403442,893.790405L327.261475,893.918884L328.127563,893.867188L328.964203,893.637451L329.735291,893.239685L330.407440,892.691101L330.951569,892.015381L353.997955,853.025574L354.394562,851.841003L355.733337,828.890625L355.719635,828.440674L355.614441,828.002930L355.422211,827.595886L355.150970,827.236572L354.812103,826.940186L354.419922,826.719116L353.990875,826.582703L353.543060,826.536743L353.095276,826.583008L352.666321,826.719604L352.274261,826.940918L351.935577,827.237549L351.664490,827.596924L351.472473,828.004089L351.367554,828.441895L348.180542,855.855103L345.048401,883.274902L347.664459,896.112549L347.992310,896.901794L348.479034,897.604309L349.102875,898.188599L349.835754,898.628357L350.644745,898.903931L351.493652,899.002930L352.344421,898.920959L353.158844,898.661621L353.900269,898.236633L354.535675,897.664978L371.832336,876.570862L372.350220,875.737305L372.548950,874.776245L374.022675,846.575195L371.384216,836.613586L368.404816,846.852051L375.304108,865.998413L375.641815,866.677124L376.113373,867.270752L376.698120,867.753357L377.370331,868.103760L378.100830,868.306641L378.857513,868.353149L379.607391,868.241211L380.317474,867.975769L380.956940,867.568420L381.497528,867.036987L381.915833,866.404663L382.193451,865.699219L382.318329,864.951416L384.433228,844.053833L384.317352,821.444824L384.254791,820.631958L383.991669,819.860413L383.544556,819.178711L379.383057,814.357117L358.318359,652.753784L357.313660,630.961792L356.864349,564.298889L344.662537,499.714050L340.785889,486.951843L340.243256,486.108704L328.547638,474.810364L327.760620,474.327820L310.879150,467.485718L310.212006,467.325745L309.526001,467.324219L308.858185,467.481140L308.244720,467.788147L302.301178,471.536865L301.506958,472.291138L301.027496,473.275940L298.744965,481.284424L295.669067,498.477417L295.618439,499.048950L295.680298,499.619263L295.852203,500.166626L296.127563,500.669983L296.495819,501.109802L296.942810,501.469360L297.451416,501.734863L298.001923,501.895996L298.573425,501.946655L299.143738,501.884827L299.691071,501.712952L300.194366,501.437561L300.634216,501.069336L300.993866,500.622375L301.259308,500.113770L301.420502,499.563171L304.760223,482.834045L306.635956,476.047668L310.238953,473.535034L325.701416,478.569824L337.117645,488.716431L341.348724,500.408081L350.991852,564.658203L353.911682,630.929199L351.978882,652.858276L373.139709,816.129944L373.389038,817.018494L373.880859,817.799316L377.769623,822.412964L375.508118,843.538208L376.118469,847.435303L375.511597,845.964233L373.447601,834.482727L373.387665,834.077454L373.247833,833.692322L373.033844,833.343018L372.754272,833.043579L372.420319,832.806091L372.045746,832.640198L371.645447,832.552673L371.235840,832.546997L370.833313,832.623413L370.454224,832.778748L370.113922,833.006897L369.826050,833.298401L369.602448,833.641724L369.451935,834.022766L369.380829,834.426208L367.058411,846.140137L366.976257,873.591064L353.356354,886.902344L351.254089,883.123413L351.618408,856.253967L353.319214,830.916016L349.420349,850.834473L328.065063,885.623291L328.426147,881.335571L337.998779,846.020752L339.263428,823.479980L339.248840,823.083740L339.154297,822.698669L338.983704,822.340698L338.744263,822.024658L338.445740,821.763672L338.100586,821.568604L337.723083,821.447266L337.328857,821.405029L336.934143,821.443359L336.555450,821.560913L336.208374,821.752625L335.907318,822.010620L335.664764,822.324219L335.490631,822.680542L335.392273,823.064636L331.959839,845.956055L319.571106,878.804749L317.458344,876.152771L313.683868,837.653931L316.329285,819.466797L316.360016,819.227539L316.341492,818.987061L316.274353,818.755371L316.161621,818.542114L316.007935,818.356323L315.819641,818.205566L315.604645,818.096252L315.371887,818.032959L315.131134,818.018188L314.892365,818.052734L314.665741,818.135132L314.460449,818.261841L314.285248,818.427612L314.147461,818.625610L314.052704,818.847412L307.071930,836.095947L300.803131,848.898438L296.498383,847.797668L296.270599,811.194397L301.071228,782.105408L304.500488,764.016113L318.956726,630.109131z" fill="#000000" stroke="none" fill-opacity="1" />
				<polyline points="380.101898,866.100769 381.835358,850.725586 371.495148,847.808105 375.574524,875.586304" fill="#000000" stroke="none" fill-opacity="1" />
				<polyline points="352.995239,897.925415 367.606384,878.985046 356.327332,878.370911 334.309143,904.656494" fill="#000000" stroke="none" fill-opacity="1" />
				<polyline points="327.508728,893.556641 342.190216,877.298096 330.641663,874.850159 309.976135,900.553711" fill="#000000" stroke="none" fill-opacity="1" />
				<polyline points="320.995483,887.615601 329.447601,869.843750 319.551880,868.820984 304.854065,896.946899" fill="#000000" stroke="none" fill-opacity="1" />
				<polyline points="298.122253,856.840515 301.463531,848.028503 293.134766,846.601868 289.735138,860.268494" fill="#000000" stroke="none" fill-opacity="1" />
				<polygon points="421.528015,628.506592 425.959503,579.200684 428.513092,542.724731 439.194031,537.309143 458.618988,520.646240 454.052979,634.684204 467.640594,756.125427 418.114410,643.287292" fill="#944DB1" stroke="none" fill-opacity="1" />
				<path d="M419.201202,628.297424L419.205139,628.755371L419.298248,629.203735L419.477112,629.625366L419.734833,630.003967L420.061401,630.325012L420.444366,630.576172L420.868958,630.747803L421.318848,630.833374L421.776794,630.829468L422.225250,630.736267L422.646851,630.557373L423.025391,630.299683L423.346527,629.973145L423.597595,629.590210L423.769257,629.165588L423.854828,628.715698L428.286316,579.409790L430.751099,544.209351L440.626587,540.134583L456.763153,524.479248L452.353394,634.616150L464.707886,745.211426L419.898712,643.120300L423.804291,629.032227L423.863068,628.578125L423.832153,628.121216L423.712738,627.679016L423.509338,627.268738L423.229706,626.906006L422.884766,626.604736L422.487701,626.376587L422.053680,626.230286L421.599518,626.171509L421.142609,626.202393L420.700500,626.321899L420.290161,626.525269L419.927368,626.804810L419.626221,627.149780L419.398041,627.546875L419.251709,627.980835L416.457062,642.904541L416.420776,643.445740L416.556885,643.970947L466.083008,756.809021L466.252655,757.108765L466.479187,757.368164L466.753265,757.576660L467.063812,757.725586L467.398010,757.808960L467.742035,757.823364L468.081940,757.768127L468.403839,757.645508L468.694427,757.460693L468.941742,757.221008L469.135712,756.936462L469.268463,756.618652L469.334503,756.280640L469.330994,755.936279L455.757751,634.623291L460.318604,520.714294L460.295135,520.356995L460.197479,520.012512L460.029816,519.696106L459.799713,519.421814L459.517242,519.201843L459.194916,519.045776L458.847198,518.960632L458.489288,518.950256L458.137146,519.014954L457.806274,519.152039L457.511475,519.355225L437.421051,534.656250L427.456543,540.641113L426.960052,540.979431L426.566284,541.433350L426.301239,541.972534L426.182526,542.561584L423.630615,579.014526z" fill="#000000" stroke="none" fill-opacity="1" />
				<polyline points="368.073914,451.886230 364.405975,447.287170 361.079926,451.104675 364.747803,455.703857" fill="#000000" stroke="none" fill-opacity="1" />
			</g>
			<g id="layer.face.uuid_0x5">
				<polyline points="507.895660,408.621277 531.502502,421.758484 583.601379,433.525024 528.632080,376.002014" fill="#944DB1" stroke="none" fill-opacity="1" />
				<path d="M509.567749,405.616577L508.949402,405.348083L508.290588,405.205383L507.616638,405.194031L506.953339,405.314209L506.326324,405.561646L505.759613,405.926636L505.274963,406.395081L504.890900,406.949219L504.622528,407.567505L504.479828,408.226318L504.468384,408.900269L504.588623,409.563599L504.835968,410.190613L505.201019,410.757385L505.669556,411.242065L506.223541,411.625977L529.515442,425.328918L582.507141,438.370667L583.555969,438.492493L584.606873,438.389832L585.612488,438.067444L586.527100,437.539795L587.309509,436.830688L587.924377,435.972290L588.343933,435.003296L588.549255,433.967407L588.531067,432.911682L588.290039,431.883606L587.837097,430.929749L587.192932,430.093079L530.168274,374.533997L529.852295,374.262512L529.489502,374.057922L529.093750,373.928040L528.680298,373.877808L528.264954,373.909241L527.863770,374.021057L527.492065,374.208984L527.164185,374.465881L526.892700,374.781738L526.687988,375.144531L526.558105,375.540283L526.507874,375.953735L526.539307,376.369141L526.651123,376.770386L526.839050,377.142090L527.095947,377.469910L568.633301,425.051758L532.975952,417.902100z" fill="#000000" stroke="none" fill-opacity="1" />
				<polyline points="517.002869,399.124146 512.978760,402.941650 516.167664,469.683411 519.905334,403.303955" fill="#000000" stroke="none" fill-opacity="1" />
				<polyline points="519.682251,481.041077 515.244446,476.441895 511.220276,480.259460 515.658081,484.858643" fill="#000000" stroke="none" fill-opacity="1" />
				<polyline points="516.395874,512.024170 517.567017,493.422974 511.894440,492.663208 510.723267,511.264221" fill="#000000" stroke="none" fill-opacity="1" />
				<polygon points="534.584167,411.105469 539.982239,409.570129 541.960449,416.280823 536.109436,416.353455 535.346802,413.729431" fill="#000000" stroke="none" fill-opacity="1" />
				<polygon points="388.383636,365.839294 417.072296,389.590820 488.876160,443.309387 498.254456,448.860107 537.485596,411.382080 534.074585,387.801086 491.883301,369.394470 444.294922,359.468506 404.802338,359.565125" fill="#944DB1" stroke="none" fill-opacity="1" />
				<path d="M389.949432,363.947998L389.550354,363.678894L389.106506,363.492737L388.634796,363.396851L388.153503,363.394775L387.681000,363.486694L387.235474,363.668945L386.834137,363.934631L386.492371,364.273499L386.223267,364.672546L386.037201,365.116455L385.941223,365.588074L385.939117,366.069458L386.031006,366.541809L386.213318,366.987427L386.478973,367.388733L386.817841,367.730530L415.025238,392.063293L484.792328,448.768066L494.782104,454.726868L496.121185,455.335022L497.559601,455.641907L499.030365,455.633118L500.464905,455.309021L501.796661,454.684875L502.963593,453.789551L540.917053,414.974060L541.667053,414.063843L542.181458,413.002563L542.431091,411.849976L542.401978,410.670959L538.079224,387.221863L537.805237,386.234375L537.291992,385.347351L536.572388,384.617798L535.692688,384.092407L493.501282,365.685791L445.121155,355.507446L404.792450,355.518799L387.507202,363.545715L387.076660,363.760803L386.696198,364.055664L386.380676,364.419189L386.142151,364.837158L385.989685,365.293823L385.929260,365.771362L385.963135,366.251404L386.090057,366.715698L386.305176,367.146362L386.600006,367.526733L386.963593,367.842163L387.381592,368.080750L387.838165,368.233154L388.315674,368.293640L388.795807,368.259705L389.260071,368.132874L405.553864,363.609497L443.882324,363.515808L490.648132,373.270264L530.392456,390.609253L532.202576,409.558960L497.280914,440.362122L492.665161,437.630249L419.058441,387.067810z" fill="#000000" stroke="none" fill-opacity="1" />
				<path d="M520.278870,413.620300L520.729858,413.733948L521.194519,413.757507L521.654785,413.689941L522.092957,413.533875L522.492371,413.295349L522.837524,412.983459L523.115234,412.610229L523.314697,412.190002L523.428467,411.738892L523.451904,411.274292L523.384460,410.814026L523.228333,410.375793L522.989868,409.976379L522.677856,409.631226L522.304688,409.353516L521.884460,409.153992L493.031738,396.023926L491.578644,395.736206L490.105469,395.889709L488.742920,396.470825L482.639008,403.952393L482.357452,404.166870L482.123230,404.432007L481.945251,404.737793L481.830353,405.072449L481.782867,405.423157L481.804840,405.776184L481.895111,406.118225L482.050537,406.436157L482.264893,406.717651L482.530060,406.951904L482.835846,407.129883L483.170471,407.244812L483.521088,407.292236L483.874268,407.270325L484.216339,407.179993L484.534241,407.024658L491.922577,406.182861z" fill="#000000" stroke="none" fill-opacity="1" />
				<polyline points="413.268707,371.287048 351.607300,386.155518 315.842438,387.493286 287.683807,383.361023 325.906616,354.561768 368.684174,332.371704" fill="#944DB1" stroke="none" fill-opacity="1" />
				<path d="M413.587982,372.611084L413.840149,372.523315L414.070343,372.388062L414.269745,372.210510L414.430664,371.997498L414.546936,371.757202L414.614105,371.498779L414.629547,371.232239L414.592712,370.967773L414.504974,370.715637L414.369781,370.485413L414.192230,370.285950L413.979187,370.125061L413.738800,370.008789L413.480408,369.941650L413.213867,369.926208L412.949432,369.963013L351.189423,383.124390L316.119843,382.377075L297.720856,380.798096L327.695496,357.401733L369.726959,334.381958L370.099121,334.139893L370.416901,333.829895L370.668060,333.463867L370.842987,333.055847L370.934998,332.621582L370.940491,332.177673L370.859222,331.741150L370.694458,331.328918L370.452393,330.956787L370.142334,330.638977L369.776276,330.387756L369.368286,330.212891L368.933990,330.120911L368.490021,330.115479L368.053589,330.196594L367.641357,330.361450L324.366455,351.592712L285.280884,380.171814L284.659363,380.753784L284.175323,381.454346L283.850769,382.241699L283.700623,383.079773L283.731537,383.930786L283.942169,384.755859L284.323029,385.517395L284.856659,386.180908L285.518890,386.716248L286.279480,387.098999L287.104034,387.311768L315.101624,392.541565L351.721100,389.197998z" fill="#000000" stroke="none" fill-opacity="1" />
				<path d="M324.440613,372.721436L324.202850,372.812195L323.987427,372.947632L323.802521,373.122559L323.655273,373.330017L323.551331,373.562378L323.494720,373.810486L323.487610,374.064880L323.530243,374.315796L323.621063,374.553528L323.756470,374.768982L323.931335,374.953918L324.138916,375.101196L324.371216,375.205078L324.619324,375.261719L324.873718,375.268799L325.124634,375.226135L362.955444,365.480774L363.458008,365.259644L363.874329,364.901672L364.168152,364.437927L369.590881,349.528259L369.639069,349.382324L369.657837,349.229797L369.646484,349.076416L369.605408,348.928284L369.536316,348.791077L369.441650,348.669922L369.325165,348.569519L369.191437,348.493835L369.045471,348.445679L368.892914,348.426941L368.739624,348.438232L368.591461,348.479309L368.454254,348.548462L368.333069,348.643066L368.232697,348.759521L368.156982,348.893311L361.119629,362.119385z" fill="#000000" stroke="none" fill-opacity="1" />
				<polygon points="350.938812,377.359375 348.343628,382.083984 343.703827,377.639893 347.333954,373.902893 349.138000,375.636841" fill="#000000" stroke="none" fill-opacity="1" />
				<polyline points="363.601959,370.359802 360.415344,374.392700 365.288239,442.144653 366.118988,374.454895" fill="#000000" stroke="none" fill-opacity="1" />
				<polyline points="317.446747,385.253906 314.136719,380.185852 309.003326,382.963867 312.278748,387.994812" fill="#000000" stroke="none" fill-opacity="1" />
				<polyline points="364.225372,482.465576 366.189362,465.131104 361.180908,464.434021 359.351837,481.006958" fill="#000000" stroke="none" fill-opacity="1" />
			</g>
			<g id="layer.headpiece colors.uuid_0x6">
				<polyline points="429.498657,362.792969 401.725433,362.785889 389.871765,366.260925 366.639954,332.094116 373.214539,327.701355 367.486420,300.025024 389.170502,304.498718 379.495911,289.362427 381.734131,215.049377 408.809326,180.694519 446.025757,187.052673 467.345642,214.214478 485.131195,228.916077 552.457397,175.673279 659.853638,170.303162 627.184021,260.061401 597.625183,288.419312 609.032471,291.150818 606.126709,301.152588 616.717712,296.657715 629.418945,317.739990 616.953064,338.035461 582.435242,350.729858 582.593262,359.280701 573.980225,363.955139 581.206482,370.999512 569.682251,386.843872 559.207764,388.389587 557.504639,406.152954 536.530701,406.910034 529.138489,394.215942 500.492035,383.214600 437.359283,366.494629" fill="#000000" stroke="none" fill-opacity="1" />
				<polyline points="451.916138,329.994995 446.862946,340.836060" fill="#6C0AF8" stroke="none" fill-opacity="1" />
				<path d="M455.592712,331.708618L455.856384,330.958435L455.968658,330.171265L455.925171,329.377258L455.727631,328.607056L455.383636,327.890076L454.906342,327.254028L454.314240,326.723389L453.629822,326.318420L452.879669,326.054749L452.092468,325.942444L451.298431,325.985901L450.528168,326.183472L449.811279,326.527466L449.175201,327.004700L448.644562,327.596863L448.239532,328.281250L443.186340,339.122314L442.922668,339.872498L442.810394,340.659668L442.853882,341.453735L443.051422,342.223938L443.395447,342.940857L443.872650,343.576904L444.464905,344.107605L445.149231,344.512573L445.899414,344.776245L446.686646,344.888489L447.480621,344.845032L448.250946,344.647522L448.967773,344.303467L449.603851,343.826233L450.134521,343.234070L450.539520,342.549683z" fill="#9C00E6" stroke="none" fill-opacity="1" />
				<polyline points="446.933472,215.702209 456.448029,245.984192 448.437927,267.341736 437.271851,275.919678 439.890106,250.159790 409.519379,262.093506 425.602386,230.122803 425.170898,220.664978 445.852081,198.141663" fill="#2205D6" stroke="none" fill-opacity="1" />
				<polyline points="457.335876,307.901001 479.001282,317.402649 506.255707,321.415161 500.433533,328.477722 465.393829,340.733337 460.271484,348.092041 449.115540,332.648254 440.087219,338.361572 427.647369,334.736816 420.147522,317.679199 435.805359,307.985596 447.013367,297.547180 436.856293,281.579834 459.963257,266.446045 466.834869,297.912659 467.580566,304.444580" fill="#2205D6" stroke="none" fill-opacity="1" />
				<polyline points="620.163086,176.749878 608.341919,248.893799 581.208923,188.898438" fill="#2205D6" stroke="none" fill-opacity="1" />
				<polyline points="559.446472,190.152100 494.953308,243.685791 525.398132,296.381653 586.791870,230.711426" fill="#2205D6" stroke="none" fill-opacity="1" />
				<polyline points="624.848328,316.740356 614.408569,339.150085 584.389099,348.147705 591.341614,335.931213 613.703003,327.277710 618.812927,309.628235" fill="#2205D6" stroke="none" fill-opacity="1" />
				<polyline points="606.334045,296.090576 599.623169,312.948853 592.630676,324.689880 572.253296,329.072266 572.901978,323.968384 580.508179,318.097534 581.786804,324.384155 586.413086,318.844543 576.071106,313.568726 589.504822,304.694336" fill="#2205D6" stroke="none" fill-opacity="1" />
				<polyline points="556.206848,347.950256 553.636536,378.672546 548.216614,397.670898 513.613586,379.691223 508.606110,379.333069 519.169800,366.528015 539.056458,360.307800" fill="#2205D6" stroke="none" fill-opacity="1" />
				<polyline points="606.488220,293.696045 592.116699,317.481262 583.501709,323.326294 571.596558,332.978027 572.412231,337.342773 577.553101,334.940735 579.409546,339.428406 611.912354,328.026428 615.702576,299.884949 604.110840,303.842285" fill="#6C0AF8" stroke="none" fill-opacity="1" />
				<path d="M609.960144,295.793823L610.302673,295.076233L610.498596,294.305542L610.540466,293.511475L610.426453,292.724426L610.161316,291.974854L609.754944,291.291321L609.222961,290.700195L608.586060,290.224304L607.868408,289.881775L607.097717,289.685791L606.303589,289.643921L605.516602,289.757874L604.767029,290.023071L604.083557,290.429382L603.492371,290.961304L603.016418,291.598328L589.104309,314.623291L581.224182,319.969482L569.041992,329.827148L568.297485,330.617981L567.789429,331.578064L567.554504,332.638428L567.609314,333.723267L568.425049,338.087952L568.696472,338.969543L569.160095,339.766968L569.791809,340.439087L570.559143,340.950989L571.422241,341.276428L572.336487,341.398376L573.254822,341.310669L574.129456,341.017700L576.083557,338.721497L576.705444,340.547058L577.008911,341.101929L577.424683,341.578674L577.933044,341.954956L578.510437,342.213196L579.129822,342.341370L579.762268,342.333496L580.378296,342.189819L612.881104,330.787903L613.594299,330.421387L614.181152,329.874878L614.597717,329.189636L614.812683,328.417053L619.722656,300.426392L619.749084,299.603333L619.608887,298.791809L619.307495,298.025452L618.857666,297.335632L618.277832,296.750916L617.591858,296.295471L616.827820,295.987793L616.017578,295.840820L615.194336,295.860535L614.392090,296.046204L602.800232,300.003479L602.076538,300.332947L601.430969,300.797180L600.888428,301.378540L600.469666,302.054565L600.190857,302.799255L600.062683,303.583984L600.090027,304.378723L600.272034,305.152893L600.601379,305.876526L601.065674,306.522156L601.647034,307.064636L602.322998,307.483398L603.067688,307.762207L603.852539,307.890381L604.647217,307.863037L605.421265,307.681152L610.807251,305.842346L609.251587,325.858643L581.054871,335.750000L581.301392,333.390137L580.847290,332.573792L580.218384,331.882935L579.448242,331.354309L578.577576,331.015869L577.652527,330.885559L576.722229,330.970337L575.835999,331.265747L574.265442,333.734558L575.403687,334.378113L585.921997,326.585938L594.394104,320.837891L595.588501,319.578979z" fill="#9C00E6" stroke="none" fill-opacity="1" />
				<polyline points="618.749939,265.789856 570.788940,321.875427 549.694031,326.350159 605.971436,265.782959 659.549316,175.646484" fill="#CB05D8" stroke="none" fill-opacity="1" />
				<polyline points="546.052734,362.599182 538.278015,367.234375 539.660645,381.758301 553.118713,369.952454 553.422546,346.719666" fill="#CB05D8" stroke="none" fill-opacity="1" />
				<polyline points="601.640503,306.804626 590.696533,315.948181 593.762390,324.724792" fill="#CB05D8" stroke="none" fill-opacity="1" />
				<polyline points="622.531128,323.046265 614.867798,329.638977 617.288574,336.031128" fill="#CB05D8" stroke="none" fill-opacity="1" />
				<polyline points="458.369568,269.157166 458.627869,290.910706 454.633240,296.664673 445.625580,299.846985 448.701385,311.325562 438.671875,312.242249 431.091705,310.209961 434.978668,287.238647" fill="#CB05D8" stroke="none" fill-opacity="1" />
				<polyline points="476.867371,313.421326 468.954773,328.420532 476.245697,332.399963 474.815430,335.532776 488.716614,340.122986 497.717865,327.972412 476.525848,330.641357 477.050507,318.133545 500.798157,319.625488 502.972504,311.360413 493.673157,293.072021" fill="#CB05D8" stroke="none" fill-opacity="1" />
				<polyline points="422.205536,253.164612 439.786346,234.978455 439.784943,212.908936 427.817291,229.568665" fill="#CB05D8" stroke="none" fill-opacity="1" />
				<polyline points="424.320251,200.889282 440.026581,187.085999 413.440369,181.373047" fill="#CB05D8" stroke="none" fill-opacity="1" />
				<polyline points="561.244995,242.826843 530.564453,235.588745 525.724609,237.274658 520.551575,236.551270 498.287872,247.736816 515.021179,261.026917 515.555298,265.083801 526.892517,268.902771" fill="#CB05D8" stroke="none" fill-opacity="1" />
				<polyline points="565.990112,277.164551 540.687439,270.001099 536.119080,273.791504 528.797852,268.838318 513.298767,288.559998 517.512024,304.009399 537.288757,318.863831 540.128174,296.642273 523.971069,299.079224 538.424011,276.714355 554.952271,287.766724" fill="#CB05D8" stroke="none" fill-opacity="1" />
				<polyline points="562.893066,175.018127 579.711121,202.606567 598.980896,188.419617 597.152649,212.791626 615.684448,170.626831" fill="#CB05D8" stroke="none" fill-opacity="1" />
				<polyline points="560.900330,332.160278 549.694031,326.350159" fill="#CB05D8" stroke="none" fill-opacity="1" />
				<polyline points="657.428467,179.443054 647.307129,202.423889 644.170227,207.209045 640.296875,203.051086 637.973877,205.024109 636.079651,212.528076 642.930969,216.752075 634.744690,225.410583 635.072449,214.609924 615.529297,238.672058 631.863403,208.554932" fill="#E90EF8" stroke="none" fill-opacity="1" />
				<polyline points="632.648010,239.162903 619.982544,255.529053 612.884766,272.744873 603.365784,274.858704 599.695862,279.353699 603.827454,282.271545 623.698792,261.969604" fill="#E90EF8" stroke="none" fill-opacity="1" />
				<polyline points="571.588989,293.342102 561.305786,305.491516 563.140625,310.763123 563.178711,320.073853 560.126831,318.345154 556.645996,324.571411 556.532532,321.129211 551.199524,323.457642 557.948792,327.259888 561.281738,300.329102 559.248474,296.681641 563.065063,292.571655" fill="#E90EF8" stroke="none" fill-opacity="1" />
				<polygon points="499.511108,365.186707 495.975037,379.067200 511.600677,381.298157 522.980896,359.787903 508.093414,363.642883" fill="#6C0AF8" stroke="none" fill-opacity="1" />
				<path d="M501.668579,365.736328L501.734406,365.304871L501.714691,364.868835L501.610321,364.445068L501.425385,364.049805L501.166748,363.698181L500.844604,363.403809L500.471069,363.177917L500.060791,363.029175L499.629242,362.963501L499.193207,362.983154L498.769440,363.087463L498.374176,363.272461L498.022614,363.531067L497.728241,363.853333L497.502228,364.226807L497.353607,364.637024L495.192352,378.867798L495.167969,379.035217L495.178986,379.203979L495.224854,379.366760L495.303711,379.516357L495.412109,379.646301L495.544952,379.750854L495.696838,379.825378L495.860809,379.866760L511.486572,382.097717L511.684113,382.101562L511.876587,382.057190L512.052612,381.967590L512.201599,381.837891L512.314575,381.675903L526.566467,361.684814L526.883240,360.895447L527.028320,360.057373L526.995483,359.207458L526.786316,358.382996L526.409668,357.620422L525.882202,356.953064L525.227356,356.410400L524.473694,356.016174L523.654297,355.787842L522.805359,355.735413L521.964111,355.861084L507.224792,359.677734L499.116882,362.995483L498.696991,363.114502L498.308350,363.313171L497.965942,363.583801L497.682953,363.916016L497.470215,364.297119L497.335846,364.712402L497.285034,365.145874L497.319946,365.580933L497.438843,366.000793L497.637512,366.389404L497.908173,366.731873L498.240387,367.014893L498.621460,367.227600L499.036774,367.362000L499.470184,367.412781L499.905273,367.377991L508.811615,367.635193L515.094666,366.020081L511.152527,380.418335L496.979706,378.394836z" fill="#9C00E6" stroke="none" fill-opacity="1" />
				<polyline points="517.954773,382.704224 514.762695,377.201721 518.003967,370.930786" fill="#6C0AF8" stroke="none" fill-opacity="1" />
				<path d="M517.256226,383.109497L517.348694,383.237976L517.464478,383.345947L517.599121,383.429260L517.747437,383.484741L517.903625,383.510193L518.061890,383.504700L518.216064,383.468445L518.360046,383.402832L518.488525,383.310364L518.596558,383.194519L518.679871,383.059875L518.735352,382.911560L518.760803,382.755371L518.755249,382.597107L518.718994,382.443054L518.653442,382.298950L519.386902,377.089355L521.607483,372.793396L521.901611,372.054688L522.045898,371.272644L522.034973,370.477600L521.869080,369.699890L521.554626,368.969482L521.103882,368.314514L520.533813,367.760010L519.866638,367.327393L519.127808,367.033264L518.345825,366.888855L517.550781,366.899902L516.773071,367.065796L516.042725,367.380188L515.387634,367.831055L514.833191,368.401062L514.400574,369.068237L511.159271,375.339050L510.809875,376.291199L510.707581,377.300293L510.858734,378.303101L511.254028,379.237122z" fill="#9C00E6" stroke="none" fill-opacity="1" />
				<polygon points="616.889160,177.715332 606.342896,219.281250 584.359314,196.675354 603.753723,230.483582 609.323486,245.716125 569.101624,202.604614 543.671814,220.657898 571.882996,235.623230 585.739563,231.626343 560.531738,249.369873 525.703369,298.594543 492.889465,272.939575 552.908142,323.361755 610.345581,258.276794 658.009460,172.770630 636.298035,170.910583" fill="#6C0AF8" stroke="none" fill-opacity="1" />
				<path d="M618.754089,178.188599L618.810547,177.815613L618.793152,177.438904L618.702637,177.072754L618.542419,176.731323L618.318665,176.427612L618.039978,176.173462L617.717102,175.978577L617.362305,175.850464L616.989441,175.793884L616.612610,175.811279L616.246460,175.901855L615.904968,176.062134L615.601379,176.285889L615.347168,176.564575L615.152283,176.887512L615.024109,177.242188L605.323914,215.473694L585.738708,195.333984L585.434387,195.079651L585.084473,194.893127L584.703552,194.782288L584.308228,194.752014L583.914856,194.803345L583.540527,194.934204L583.200989,195.139160L582.910522,195.409302L582.681763,195.733154L582.524292,196.097229L582.444763,196.485779L582.446533,196.882385L582.529663,197.270203L582.690430,197.632751L602.003174,231.298523L604.258667,237.466980L570.508423,201.292175L570.156921,200.995850L569.745056,200.791382L569.296387,200.690552L568.836609,200.699036L568.391968,200.816345L567.987854,201.035828L542.558105,219.089050L542.263733,219.346802L542.027649,219.658630L541.859497,220.011841L541.766418,220.391663L541.751831,220.782593L541.816772,221.168274L541.958313,221.532959L542.170715,221.861450L542.445129,222.140198L542.770264,222.357666L570.981445,237.322998L571.441528,237.495972L571.930481,237.546692L572.416260,237.471924L575.255676,236.652832L559.424316,247.796448L525.298462,295.835815L494.074493,271.423828L493.737457,271.212524L493.364288,271.075073L492.970703,271.017273L492.573730,271.041565L492.190247,271.147095L491.836609,271.329163L491.527985,271.579956L491.277588,271.889038L491.095978,272.242920L490.990997,272.626526L490.967194,273.023560L491.025665,273.416992L491.163605,273.790039L491.375397,274.126709L491.651794,274.412659L551.670410,324.834839L552.023376,325.070251L552.419250,325.222595L552.838928,325.284485L553.261841,325.252869L553.667786,325.129395L554.036621,324.919983L554.350647,324.634827L611.788208,259.549927L659.690002,173.707336L659.854736,173.315186L659.929382,172.896362L659.910156,172.471375L659.797852,172.061035L659.598328,171.685486L659.320984,171.362854L658.979675,171.109070L658.590881,170.936462L658.173645,170.853516L636.462219,168.993530L635.661499,169.094910L616.252563,175.899719L615.910645,176.058716L615.606201,176.281433L615.351074,176.559326L615.155151,176.881714L615.025879,177.236023L614.968079,177.608704L614.984192,177.985596L615.073486,178.351990L615.232544,178.693970L615.455261,178.998413L615.733093,179.253418L616.055359,179.449402L616.409668,179.578674L616.782410,179.636475L617.159241,179.620361L617.525696,179.531067L636.545105,172.862732L654.879639,174.433472L608.765930,257.158997L552.708008,320.680725L494.384094,274.151062L524.518188,300.110352L524.897095,300.341553L525.318970,300.479858L525.761292,300.517700L526.200500,300.453308L526.613159,300.289856L526.977539,300.036255L527.273926,299.705872L561.910645,250.752014L586.846985,233.199646L587.138367,232.947388L587.373474,232.642151L587.543213,232.296021L587.640503,231.923096L587.661560,231.538269L587.605347,231.156921L587.474426,230.794495L587.273804,230.465393L587.011658,230.182922L586.698364,229.958252L586.346741,229.800598L585.970642,229.716187L585.585327,229.708557L585.206238,229.777649L572.097351,233.559021L547.330017,220.420532L568.843018,205.147888L607.916626,247.028564L608.222534,247.294067L608.577209,247.489502L608.964966,247.606445L609.368530,247.639648L609.770203,247.587585L610.152039,247.452515L610.497131,247.240662L610.790283,246.961243L611.018372,246.626648L611.171509,246.251770L611.242554,245.853027L611.228699,245.448303L611.130554,245.055481L605.560791,229.822815L593.628601,208.966797L604.963562,220.622681L605.276855,220.882935L605.638123,221.071594L606.030884,221.179871L606.437744,221.202942L606.840271,221.139832L607.220520,220.993469L607.561340,220.770325L607.847534,220.480225L608.066345,220.136536L608.207825,219.754395z" fill="#9C00E6" stroke="none" fill-opacity="1" />
				<polyline points="598.799622,293.992798 589.356201,298.992737 596.382812,290.330872" fill="#6C0AF8" stroke="none" fill-opacity="1" />
				<path d="M600.697632,297.577698L601.360535,297.138550L601.925049,296.578430L602.369385,295.919067L602.676514,295.185608L602.834778,294.406250L602.837891,293.611084L602.685791,292.830688L602.384460,292.094788L601.945251,291.431885L601.385193,290.867371L600.725769,290.423035L599.992310,290.115845L599.212952,289.957642L598.417847,289.954529L597.637329,290.106567L596.901489,290.407959L592.489563,296.416748L599.532959,292.886353L599.971008,292.222656L600.271118,291.486267L600.421814,290.705505L600.417358,289.910339L600.257751,289.131348L599.949280,288.398376L599.503723,287.739746L598.938354,287.180664L598.274536,286.742676L597.538269,286.442627L596.757446,286.291870L595.962280,286.296387L595.183289,286.455994L594.450378,286.764465L593.791687,287.209961L593.232666,287.775452L586.206116,296.437378L585.741211,297.152710L585.436401,297.949463L585.304810,298.792480L585.352539,299.644287L585.577332,300.467285L585.969299,301.224976L586.511169,301.884033L587.178833,302.415161L587.942810,302.794922L588.769348,303.006409L589.621826,303.040405L590.462463,302.895264L591.254272,302.577637z" fill="#9C00E6" stroke="none" fill-opacity="1" />
				<polyline points="583.246704,347.408569 610.299194,335.810242 610.498718,337.081116" fill="#6C0AF8" stroke="none" fill-opacity="1" />
				<path d="M581.648499,343.680359L580.951904,344.063843L580.343384,344.575806L579.846558,345.196655L579.480408,345.902527L579.258972,346.666199L579.190735,347.458435L579.278503,348.248840L579.518616,349.006958L579.902100,349.703491L580.414124,350.311951L581.034973,350.808777L581.740784,351.174927L582.504578,351.396423L583.296753,351.464539L584.087219,351.376892L584.845154,351.136597L608.336670,339.360229L606.491394,337.710144L606.691101,338.479797L607.037170,339.195679L607.516235,339.830383L608.109924,340.359436L608.795349,340.762451L609.546326,341.023987L610.333862,341.134033L611.127808,341.088318L611.897400,340.888611L612.613281,340.542542L613.247986,340.063538L613.777100,339.469849L614.180115,338.784424L614.441650,338.033447L614.551758,337.245972L614.505920,336.452087L614.306519,335.181274L614.061340,334.293640L613.622253,333.484131L613.012024,332.794495L612.261902,332.260315L611.410522,331.909119L610.502014,331.758972L609.582886,331.817749L608.700806,332.082153z" fill="#9C00E6" stroke="none" fill-opacity="1" />
				<polyline points="568.302612,365.948242 573.017456,364.820007 575.052795,369.056030 576.099670,375.636047 571.043762,382.664429 565.842102,373.626709 574.237122,372.354370" fill="#6C0AF8" stroke="none" fill-opacity="1" />
				<path d="M568.111755,365.150818L567.959839,365.203430L567.821106,365.284607L567.700867,365.391296L567.603699,365.519348L567.533569,365.663818L567.492798,365.819397L567.483215,365.979797L567.505188,366.139038L567.557678,366.290955L567.638855,366.429749L567.745483,366.549866L567.873657,366.647034L568.018188,366.717285L568.173706,366.757996L568.334045,366.767578L568.493408,366.745667L572.564880,365.771362L574.261902,369.303162L575.236938,375.431458L571.120361,381.153809L567.151306,374.257690L574.360046,373.165039L574.515869,373.125488L574.660950,373.056274L574.789673,372.960083L574.897278,372.840698L574.979431,372.702576L575.033081,372.551086L575.056213,372.392029L575.047729,372.231445L575.008240,372.075684L574.939026,371.930603L574.842896,371.801819L574.723511,371.694275L574.585388,371.612061L574.433899,371.558411L574.274841,371.535278L574.114197,371.543701L565.719299,372.816101L565.548462,372.861206L565.391357,372.941895L565.255188,373.054321L565.146057,373.193298L565.069519,373.352417L565.028687,373.524353L565.025635,373.700867L565.060364,373.874084L565.131592,374.035767L570.333130,383.073364L570.440491,383.219666L570.577454,383.338806L570.737244,383.424866L570.911987,383.473633L571.093079,383.482849L571.271851,383.451904L571.439514,383.382507L571.587769,383.277893L571.709412,383.143188L576.765259,376.114990L576.866089,375.927368L576.915283,375.720154L576.909485,375.507263L575.862427,368.927185L573.756470,364.464844L573.657959,364.308105L573.526733,364.177429L573.369568,364.079590L573.194458,364.019409L573.010376,364.000061L572.826538,364.022522z" fill="#9C00E6" stroke="none" fill-opacity="1" />
				<polyline points="577.173462,357.364014 570.857239,345.009521 574.660461,342.905823 566.745483,336.121582 576.671448,337.014404 577.278992,342.844482 576.926453,346.606018 580.730896,345.109009 580.158813,350.720581 581.298279,360.296265 574.379333,361.734619 573.279724,368.065369 574.677673,378.123108 565.008423,385.148560 561.773743,382.939087 568.404785,376.603577 558.091248,372.698792 558.824097,366.971741 570.058838,363.370605" fill="#2205D6" stroke="none" fill-opacity="1" />
				<polyline points="537.202820,344.465332 531.799744,353.727844 528.053955,360.619995 536.226501,353.520203 540.687317,343.466614" fill="#2205D6" stroke="none" fill-opacity="1" />
				<polyline points="388.932373,309.604187 405.518799,336.579712 393.849365,343.457581 384.629791,344.200989 382.591156,340.450012 376.380371,340.541260 372.640167,330.239014 392.614258,337.234924 398.835022,334.215698 388.986847,331.692444 370.047729,313.191040 380.780579,320.587646 388.301605,324.972778 386.407623,318.951294 395.682098,322.259033" fill="#2205D6" stroke="none" fill-opacity="1" />
				<polyline points="393.420349,229.248352 387.835266,276.694580 391.822998,297.292969 399.093781,285.054565 404.246521,243.756775" fill="#2205D6" stroke="none" fill-opacity="1" />
			</g>
			<g id="layer.headpiecelines.uuid_0x7">
				<path d="M386.667847,367.030884L387.187836,367.629944L387.814667,368.116150L388.524384,368.470703L389.289581,368.679993L390.080902,368.735901L390.867981,368.636414L391.620422,368.385254L392.309448,367.992126L392.908569,367.472168L393.394775,366.845276L393.749298,366.135620L393.958557,365.370422L394.014526,364.579041L393.915070,363.792053L393.663849,363.039490L393.270782,362.350464L374.014587,333.935547L373.185364,331.754639L391.534302,343.468140L386.077118,358.288818L386.270294,359.937927L386.781555,361.517639L387.591095,362.967346L388.667969,364.231140L389.970703,365.260559L391.449219,366.016113L393.046692,366.468750L394.701874,366.600891L396.350891,366.407715L397.930573,365.896423L399.380188,365.086914L400.644073,364.010010L401.673492,362.707275L402.429016,361.228821L402.881622,359.631287L403.013824,357.976196L396.986206,341.898438L396.891357,341.232666L396.637268,340.610107L396.239136,340.068176L395.721069,339.639465L374.092072,325.832214L373.497437,325.546753L372.851715,325.411682L372.192535,325.434875L371.557953,325.614990L370.984772,325.941467L370.506287,326.395508L363.381226,329.883484L362.662872,330.975098L362.197601,332.196045L362.007294,333.488953L362.100983,334.792297L362.474304,336.044495L363.109558,337.186462z" fill="#000000" stroke="none" fill-opacity="1" />
				<path d="M369.942383,328.733032L370.109192,329.243530L370.372284,329.711792L370.721802,330.119690L371.144104,330.451538L371.623077,330.694641L372.140289,330.839661L372.675812,330.880981L373.209167,330.817017L373.719696,330.650208L374.187927,330.387085L374.595856,330.037598L374.927673,329.615234L375.170807,329.136292L375.315796,328.619141L375.357086,328.083496L375.293152,327.550293L369.737366,302.415283L387.220032,308.701721L403.231140,336.232117L397.255402,337.803162L395.989838,339.055237L394.992859,340.530029L394.302795,342.171082L393.946075,343.915100L393.936584,345.695312L394.274475,347.443176L394.946869,349.091492L395.927917,350.576965L397.179962,351.842468L398.654785,352.839417L400.295715,353.529480L402.039856,353.886169L403.820038,353.895752L405.567902,353.557800L407.216187,352.885376L408.701630,351.904358L417.968536,344.382080L419.365387,342.968140L420.421082,341.284241L421.085175,339.410889L421.325836,337.437927L421.131470,335.459961L420.511475,333.571533L419.495483,331.863342L391.103271,304.749878L390.540771,304.193787L389.842865,303.821533L366.916992,295.577637L366.349976,295.439758L365.766724,295.425049L365.193542,295.534241L364.656464,295.762329L364.179901,296.098877L363.785370,296.528748L363.490845,297.032471L363.309540,297.587036L363.249817,298.167419L363.314423,298.747314z" fill="#000000" stroke="none" fill-opacity="1" />
				<path d="M386.469177,307.633484L386.756897,308.087097L387.127594,308.475891L387.566986,308.784790L388.058167,309.002075L388.582306,309.119446L389.119324,309.132202L389.648438,309.039978L390.149384,308.846313L390.602966,308.558655L390.991669,308.187927L391.300659,307.748596L391.518005,307.257385L391.635284,306.733215L391.648132,306.196289L391.555878,305.667114L391.362244,305.166138L382.369751,287.332947L383.005005,217.833130L409.671234,181.998596L443.452332,188.512878L442.466248,225.385620L431.047241,279.854858L430.992554,280.558167L431.119293,281.252136L431.419006,281.890686L431.871857,282.431641L457.530487,311.041992L442.768005,320.056763L442.210632,320.325378L441.727692,320.712219L441.343811,321.197510L441.078705,321.756592L440.945770,322.360901L440.951782,322.979614L441.096558,323.581238L441.372559,324.134949L459.153625,350.177246L459.398071,350.483398L459.697479,350.736023L460.040405,350.925354L460.413696,351.044128L460.803040,351.087769L461.193420,351.054626L461.569733,350.946045L461.917694,350.766052L462.223877,350.521606L462.476440,350.222168L462.665741,349.879211L462.784515,349.505859L462.828186,349.116577L462.795044,348.726257L462.686401,348.349915L462.506409,348.001953L447.869324,324.080139L471.789703,319.590454L472.978821,319.032227L474.028534,318.242371L474.894440,317.254578L475.539886,316.110291L475.937439,314.858215L476.070374,313.551392L475.933105,312.244812L475.531342,310.994141L474.882080,309.852112L474.012939,308.867126L436.729767,279.456726L447.880249,226.268127L448.992401,186.335876L448.934448,185.697449L448.729706,185.089905L448.389465,184.546631L447.932251,184.097229L447.383118,183.766357L446.772186,183.572266L409.019226,176.291992L408.407776,176.244019L407.800964,176.333191L407.229248,176.555176L406.721191,176.898682L406.302277,177.346619L378.075165,215.278564L377.676300,216.040894L377.533417,216.889282L376.883972,287.947815L377.177307,289.206543z" fill="#000000" stroke="none" fill-opacity="1" />
				<path d="M445.830627,324.330017L446.118103,323.876282L446.311554,323.375183L446.403564,322.845947L446.390594,322.309082L446.272980,321.784912L446.055511,321.293823L445.746338,320.854614L445.357391,320.484070L444.903687,320.196594L444.402649,320.003174L443.873474,319.911133L443.336487,319.924194L442.812347,320.041748L442.321289,320.259277L441.882080,320.568420L441.511566,320.957336L420.257782,348.175598L419.970306,348.629272L419.776886,349.130371L419.684875,349.659485L419.697937,350.196533L419.815460,350.720642L420.032959,351.211731L420.342102,351.651001L420.731049,352.021484L421.184753,352.308960L421.685822,352.502380L422.214966,352.594360L422.751984,352.581360L423.276093,352.463745L423.767151,352.246277L424.206360,351.937134L424.576874,351.548218z" fill="#000000" stroke="none" fill-opacity="1" />
				<path d="M434.953339,277.794128L434.558624,278.158386L434.242554,278.592712L434.017334,279.080444L433.891632,279.602661L433.870117,280.139343L433.953766,280.669861L434.139343,281.173889L434.419647,281.632141L434.783997,282.026794L435.218262,282.342834L435.705933,282.568054L436.228119,282.693848L436.764801,282.715332L437.295380,282.631653L437.799438,282.446106L438.257629,282.165833L483.540344,253.705017L484.760406,252.539795L485.682098,251.126831L486.256805,249.540649L486.454102,247.865112L486.263580,246.188782L485.695374,244.600342L465.595642,214.288635L465.311707,213.832703L464.944336,213.440857L464.507538,213.128235L464.018127,212.906860L463.495026,212.785278L462.958130,212.768005L462.428192,212.855774L461.925720,213.045288L461.469727,213.329163L461.077850,213.696655L460.765259,214.133301L460.543945,214.622742L460.422272,215.145935L460.404999,215.682800L460.492798,216.212708L460.682312,216.715210L469.846100,245.656250z" fill="#000000" stroke="none" fill-opacity="1" />
				<path d="M448.467682,184.648865L448.110291,184.247803L447.681488,183.924255L447.197906,183.690552L446.677917,183.555725L446.141693,183.524841L445.609741,183.599243L445.102570,183.776062L444.639496,184.048340L444.238586,184.405762L443.914978,184.834473L443.681335,185.318115L443.546509,185.838074L443.515686,186.374268L443.590088,186.906250L443.766815,187.413513L444.039124,187.876526L461.046204,211.211060L483.224030,229.829163L483.742096,230.170166L484.323547,230.385925L484.938568,230.465332L485.555756,230.404419L486.143402,230.206238L486.671417,229.881104L554.967834,176.277771L655.330505,173.492249L621.217346,259.715637L569.051575,318.722656L556.768311,324.686340L556.310486,324.967163L555.916199,325.331848L555.600708,325.766541L555.375916,326.254517L555.250671,326.776794L555.229919,327.313538L555.314087,327.843994L555.500244,328.347778L555.781067,328.805725L556.145752,329.199951L556.580383,329.515564L557.068420,329.740173L557.590698,329.865417L558.127380,329.886353L558.657898,329.802063L559.161743,329.615906L571.937988,323.412903L572.794189,322.762878L625.624695,263.003906L666.062805,170.496826L666.334961,169.560059L666.393066,168.586243L666.234070,167.623840L665.865906,166.720398L665.306885,165.920898L664.584656,165.265076L663.735352,164.785400L662.800781,164.505737L661.827454,164.439819L553.847534,170.841980L553.016541,171.009827L552.276550,171.423889L485.032867,224.200928L465.275726,207.710266z" fill="#000000" stroke="none" fill-opacity="1" />
				<path d="M392.003571,343.522400L392.353638,343.929810L392.776489,344.261047L393.255707,344.503418L393.773163,344.647705L394.308746,344.688232L394.841919,344.623474L395.352295,344.455994L395.820160,344.192078L396.227600,343.842041L396.558777,343.419189L396.801178,342.939880L396.945496,342.422485L396.985992,341.886963L396.921204,341.353699L396.753723,340.843384L396.489899,340.375549L382.023285,321.442322L388.570282,309.294434L388.742188,308.785583L388.811462,308.252930L388.775482,307.716980L388.635681,307.198364L388.397430,306.716980L388.069763,306.291321L387.665344,305.937866L387.199799,305.669922L386.690857,305.498108L386.158264,305.428833L385.622345,305.464722L385.103668,305.604553L384.622375,305.842896L384.196747,306.170532L383.843231,306.574951L383.575348,307.040466L378.383911,320.905640L378.251312,321.342651L378.235107,321.799072L378.336243,322.244446L378.548035,322.649170z" fill="#000000" stroke="none" fill-opacity="1" />
				<path d="M623.488831,263.396057L624.278381,263.030884L624.981506,262.518799L625.571228,261.879272L626.024902,261.137085L626.324890,260.320618L626.459961,259.461365L626.424866,258.592163L626.220703,257.746582L625.855591,256.956970L625.343445,256.253845L624.704041,255.664246L623.961731,255.210571L623.145325,254.910461L622.285950,254.775452L621.416809,254.810669L620.571289,255.014709L605.927429,260.189941L605.151062,260.548950L604.459534,261.052673L603.879517,261.681580L603.433411,262.411560L603.138306,263.214539L603.005432,264.059692L603.040100,264.914490L603.240723,265.746094L603.599854,266.522522L604.103577,267.214111L604.732422,267.794006L605.462463,268.240234L606.265442,268.535400L607.110596,268.668152L607.965332,268.633606L608.796936,268.432861z" fill="#000000" stroke="none" fill-opacity="1" />
				<path d="M665.737488,171.128418L666.117554,170.358765L666.340149,169.529785L666.396790,168.673340L666.285156,167.822266L666.009583,167.009216L665.580872,166.265625L665.015259,165.619995L664.334595,165.097046L663.564941,164.716980L662.735962,164.494507L661.879456,164.437927L661.028320,164.549500L660.215393,164.824890L659.471741,165.253784L658.826172,165.819275L658.303223,166.500000L593.437012,265.813904L540.109741,312.243164L489.099518,253.515259L487.434875,251.941284L485.495209,250.722168L483.354950,249.905029L481.096436,249.521118L478.806305,249.585083L476.572784,250.094666L474.481537,251.030334L472.613037,252.355835L471.039001,254.020386L469.819946,255.960205L469.002777,258.100342L468.618835,260.358948L468.682861,262.649048L469.192474,264.882568L470.128021,266.973816L471.453613,268.842407L530.668030,337.015747L532.686768,338.853638L535.076721,340.172913L537.707458,340.901794L540.435669,341.000549L543.112305,340.463562L545.591370,339.320251L547.737427,337.632996L603.824219,275.102722z" fill="#000000" stroke="none" fill-opacity="1" />
				<path d="M569.323975,179.987732L568.526062,178.809021L567.513672,177.808655L566.325439,177.025146L565.007202,176.488281L563.609558,176.219055L562.186340,176.227661L560.791931,176.513733L559.480347,177.066345L558.301697,177.864136L557.301392,178.876770L556.517700,180.064880L555.980957,181.383057L555.711853,182.780701L555.720398,184.203979L556.006409,185.598267L556.559021,186.909912L599.326111,266.004517L600.136169,267.200989L601.163940,268.216431L602.370178,269.012024L603.708313,269.556824L605.127075,269.830139L606.571899,269.821411L607.987122,269.530945L609.318726,268.970032L610.515137,268.160095L611.530701,267.132263L612.326172,265.926208L612.871033,264.588013L613.144348,263.169189L613.135681,261.724487L612.845154,260.309021L612.284302,258.977539z" fill="#000000" stroke="none" fill-opacity="1" />
				<path d="M542.261108,317.998718L539.992920,317.676514L537.705444,317.802979L535.486572,318.373169L533.421692,319.365356L531.589966,320.741333L530.061829,322.448303L528.896118,324.420471L528.137634,326.582214L527.815369,328.850342L527.941772,331.137817L528.512085,333.356689L529.504272,335.421631L530.880188,337.253357L532.587036,338.781433L534.559387,339.947144L536.721008,340.705688L552.195923,340.644104L553.466431,356.339172L553.744202,357.874390L554.316101,359.325989L555.160217,360.638123L556.244019,361.760315L557.526001,362.649658L558.956787,363.271606L560.481506,363.602600L562.041382,363.629761L563.576660,363.352051L565.028259,362.780151L566.340393,361.936035L567.462585,360.852234L568.351807,359.570190L568.973755,358.139465L569.304749,356.614746L569.332031,355.054810L567.597717,333.632080L567.191833,331.688354L566.317505,329.905640L565.028992,328.394897L563.406677,327.250000L561.551331,326.542419z" fill="#000000" stroke="none" fill-opacity="1" />
				<path d="M560.372375,338.295593L560.115662,338.444031L559.892639,338.639709L559.712219,338.875183L559.581177,339.141296L559.504517,339.427795L559.485291,339.723877L559.524170,340.017944L559.619751,340.298767L559.768127,340.555603L559.963867,340.778503L560.199402,340.958923L560.465454,341.089966L560.752014,341.166565L561.048035,341.185852L561.342041,341.146973L561.622864,341.051453L594.507690,326.129028L594.953491,325.819946L595.261597,325.373657L611.627075,292.924683L611.839905,292.262085L611.898376,291.568542L611.799683,290.879639L611.548645,290.230530L611.158325,289.654358L610.648499,289.180542L610.045227,288.833496L598.072327,284.684875L597.675781,284.557495L597.261963,284.510010L596.846924,284.544067L596.446350,284.658569L596.075867,284.848877L595.749756,285.107849L595.480286,285.425537L595.278015,285.789673L595.150696,286.186218L595.103149,286.600037L595.137268,287.015198L595.251709,287.415649L595.442139,287.786133L595.701172,288.112305L596.018677,288.381775L596.382812,288.583984L604.729614,293.240112L592.737793,323.608704z" fill="#000000" stroke="none" fill-opacity="1" />
				<path d="M592.424561,325.156677L592.531738,325.433289L592.690796,325.683716L592.895569,325.898254L593.138367,326.068665L593.409668,326.188538L593.699219,326.253052L593.995850,326.260010L594.288025,326.208862L594.564575,326.101685L594.815063,325.942688L595.029541,325.737915L595.200073,325.495117L595.319946,325.223755L595.384460,324.934265L595.391357,324.637695L595.340271,324.345459L591.109436,305.299438L606.862061,294.794983L607.101379,294.619751L607.302002,294.401184L607.455994,294.147705L607.557739,293.869080L607.603088,293.575867L607.590393,293.279541L607.520142,292.991333L607.394897,292.722351L607.219727,292.483032L607.001160,292.282471L606.747681,292.128357L606.468994,292.026733L606.175781,291.981323L605.879517,291.994019L605.591370,292.064331L605.322449,292.189514L586.844421,301.914246L586.401611,302.245911L586.041016,302.665405L585.779785,303.153076L585.630188,303.685730L585.599304,304.238098L585.688660,304.784180z" fill="#000000" stroke="none" fill-opacity="1" />
				<path d="M521.341187,382.280701L520.945312,382.270935L520.555176,382.338501L520.185791,382.480896L519.851196,382.692749L519.564392,382.965698L519.336426,383.289490L519.175903,383.651428L519.088989,384.037842L519.079285,384.433655L519.146912,384.823792L519.289368,385.193237L519.501221,385.527832L519.774170,385.814636L520.097900,386.042603L520.459778,386.203186L520.846130,386.289978L537.354370,388.328369L538.414490,388.172974L555.455444,382.909241L556.431885,382.302185L557.198730,381.445557L557.694519,380.408020L563.069092,363.248657L618.356995,342.103149L619.552002,341.390686L620.435913,340.316345L633.438660,320.553528L633.978760,319.235962L634.169617,317.824829L633.999268,316.411133L633.478516,315.085815L619.874573,296.546082L619.541992,296.073242L619.112976,295.685669L618.609009,295.402588L618.054749,295.237976L617.477966,295.200134L616.907043,295.290649L604.311829,299.250977L603.923035,299.400452L603.570740,299.622864L603.268738,299.909668L603.028564,300.249939L602.859314,300.630554L602.767639,301.036804L602.756897,301.453247L602.827576,301.863770L602.977051,302.252441L603.199524,302.604675L603.486267,302.906616L603.826660,303.146851L604.207214,303.316101L604.613525,303.407837L605.029907,303.418518L605.440430,303.347839L616.306702,300.844910L622.132263,317.737183L614.098755,335.045959L558.336365,356.372986L557.279297,356.972046L556.447205,357.857239L555.914490,358.949280L550.503723,376.223694L537.298035,384.250977z" fill="#000000" stroke="none" fill-opacity="1" />
				<path d="M620.147095,298.289856L620.194580,297.782898L620.142273,297.276306L619.992126,296.789734L619.749939,296.341675L619.425049,295.949585L619.029907,295.628418L618.579712,295.390503L618.091675,295.244934L617.584778,295.197388L617.078247,295.249695L616.591614,295.399719L616.143616,295.641907L615.751526,295.966797L615.430298,296.362000L615.192322,296.812256L615.046753,297.300232L610.169739,328.036865L610.141846,328.342102L610.175232,328.646729L610.268677,328.938538L610.418335,329.205994L610.618286,329.438171L610.860535,329.625916L611.135193,329.761597L611.431519,329.839966L611.737488,329.857605L612.040771,329.813965L612.329285,329.710754L612.591492,329.552185L624.809998,320.374695L625.031128,320.171814L625.208313,319.929810L625.335022,319.657776L625.406128,319.366272L625.419006,319.066589L625.373169,318.770081L625.270386,318.488159L625.114624,318.231750L624.911865,318.010620L624.669678,317.833435L624.397644,317.706787L624.106140,317.635681L623.806458,317.622742L623.509949,317.668579L623.228027,317.771423L622.971741,317.927124L613.932129,324.716858z" fill="#000000" stroke="none" fill-opacity="1" />
				<path d="M568.683472,344.217590L568.418091,344.357605L568.185181,344.546692L567.993591,344.777649L567.850830,345.041565L567.762207,345.328186L567.731201,345.626587L567.758972,345.925293L567.844604,346.212952L567.984619,346.478271L568.173706,346.711182L568.404724,346.902771L568.668579,347.045532L568.955200,347.134216L569.253601,347.165161L569.552368,347.137329L569.839966,347.051697L610.347961,331.753052L614.453186,337.706665L614.608337,337.963501L614.810608,338.185059L615.052307,338.362854L615.323975,338.490173L615.615234,338.562073L615.914917,338.575684L616.211609,338.530640L616.493652,338.428589L616.750488,338.273376L616.972168,338.071106L617.149963,337.829468L617.277222,337.557739L617.349121,337.266479L617.362732,336.966675L617.317627,336.670044L617.215576,336.388000L614.082275,327.178040L613.779602,326.687988L613.378723,326.274170L612.898560,325.956055L612.361206,325.748352L611.791992,325.660583L611.217041,325.697083L610.663391,325.855957z" fill="#000000" stroke="none" fill-opacity="1" />
				<path d="M495.484528,292.225342L495.744202,291.930359L495.941254,291.590332L496.068207,291.218445L496.120148,290.828979L496.095184,290.436829L495.994141,290.057129L495.820984,289.704346L495.582275,289.392212L495.287323,289.132629L494.947357,288.935486L494.575531,288.808533L494.185944,288.756531L493.793762,288.781616L493.414062,288.882568L493.061340,289.055786L492.749176,289.294434L465.328400,308.893860L464.410675,309.963135L463.749786,311.207581L463.377838,312.566650L463.313141,313.974304L463.558777,315.361877L464.102661,316.661682L464.918457,317.810547L465.966278,318.752625L467.195312,319.441833L468.545532,319.844788L507.346771,322.234863L507.700989,322.263611L508.053802,322.222839L508.392090,322.113953L508.702454,321.941223L508.973328,321.711182L509.193970,321.432800L509.356140,321.116699L509.453522,320.775024L509.482361,320.420837L509.441498,320.067993L509.332672,319.729736L509.159973,319.419250L508.929962,319.148560L508.651520,318.927795L508.335449,318.765686L507.993713,318.668274L483.342590,309.549622z" fill="#000000" stroke="none" fill-opacity="1" />
				<path d="M475.960510,314.741333L476.070007,313.494446L475.934174,312.250061L475.558136,311.056213L474.956421,309.958557L474.152161,308.999390L473.176178,308.215515L472.066071,307.637207L470.864471,307.286560L469.617554,307.177002L468.373199,307.312927L467.179230,307.688904L466.081635,308.290649L465.122498,309.094910L464.338684,310.070862L463.760315,311.180969L463.409637,312.382568L463.394318,342.081055L463.378632,342.259644L463.398102,342.437988L463.451996,342.609070L463.538177,342.766357L463.653473,342.903809L463.793274,343.016052L463.952362,343.098938L464.124573,343.149231L464.303223,343.164917L464.481506,343.145386L464.652588,343.091492L464.809906,343.005310L464.947327,342.890076L465.059631,342.750244L465.142517,342.591187L465.192780,342.419006z" fill="#000000" stroke="none" fill-opacity="1" />
				<path d="M550.179749,380.977966L550.597534,381.654541L551.139160,382.236694L551.784058,382.701904L552.507324,383.032471L553.281250,383.215515L554.075928,383.244141L554.860840,383.117126L555.605957,382.839355L556.282471,382.421692L556.864685,381.879944L557.329895,381.235107L557.660400,380.511841L557.843506,379.737976L557.872009,378.943298L557.745117,378.158386L557.467346,377.413208L545.160339,357.745117L544.991150,357.471008L544.771606,357.235168L544.510376,357.046692L544.217346,356.912720L543.903931,356.838562L543.582031,356.827026L543.263977,356.878540L542.962097,356.991028L542.687988,357.160217L542.452148,357.379700L542.263611,357.640930L542.129700,357.933960L542.055542,358.247375L542.044006,358.569397L542.095520,358.887390L542.208008,359.189209z" fill="#000000" stroke="none" fill-opacity="1" />
				<path d="M411.231750,179.198853L411.221497,178.661865L411.106720,178.137207L410.891693,177.644897L410.584869,177.204102L410.197845,176.831604L409.745697,176.541809L409.245575,176.345764L408.716858,176.250977L408.179840,176.261292L407.655182,176.376099L407.162872,176.591125L406.722076,176.897949L406.349640,177.284912L406.059753,177.737061L405.863739,178.237122L405.768982,178.765869L402.018738,226.077087L402.035126,226.662476L402.175537,227.230896L402.433472,227.756592L402.797241,228.215454L403.250244,228.586670L403.771790,228.852966L404.337952,229.002319L404.922974,229.028076L405.500153,228.928894L406.042969,228.709290L406.526794,228.379456L447.244690,196.639954L447.922302,195.937134L448.449707,195.115601L448.806763,194.206909L448.979675,193.246094L448.961823,192.270081L448.753906,191.316223L448.363892,190.421143L447.806671,189.619568L447.103912,188.941956L446.282379,188.414551L445.373779,188.057495L444.412933,187.884583L443.436798,187.902405L442.483002,188.110413L441.588013,188.500427L440.786346,189.057495L408.003601,219.923218z" fill="#000000" stroke="none" fill-opacity="1" />
				<path d="M407.490051,226.281067L407.434967,225.746765L407.276642,225.233459L407.021301,224.760925L406.678680,224.347290L406.261871,224.008423L405.786987,223.757385L405.272308,223.603943L404.737549,223.553711L404.203217,223.608765L403.689941,223.767029L403.217407,224.022461L402.803772,224.364990L402.464905,224.781860L402.213928,225.256775L402.060303,225.771423L402.010162,226.306213L398.184296,300.814392L398.488586,302.810913L399.357300,304.633972L417.435425,323.690308L417.750061,324.071899L418.133118,324.384827L418.569855,324.617004L419.043549,324.759521L419.535919,324.806946L420.028015,324.757324L420.501068,324.612671L420.936737,324.378479L421.318420,324.063843L421.631287,323.680725L421.863556,323.244080L422.006073,322.770386L422.053375,322.278015L422.003815,321.785889L421.859131,321.312866L421.625000,320.877197L411.992371,298.663879z" fill="#000000" stroke="none" fill-opacity="1" />
				<path d="M581.767395,349.145630L581.673889,348.860535L581.526611,348.599182L581.331116,348.371582L581.094910,348.186401L580.827271,348.050903L580.538330,347.970276L580.239136,347.947571L579.941223,347.983582L579.656189,348.077148L579.394775,348.224426L579.167114,348.419800L578.981995,348.656006L578.846497,348.923706L578.765808,349.212646L578.743164,349.511841L578.779175,349.809753L580.895020,359.330566L572.616089,359.653931L571.900635,359.946533L571.267334,360.389587L570.747253,360.961487L570.366211,361.633972L570.142944,362.373962L570.088257,363.144958L570.204834,363.909119L570.487244,364.628601L570.921387,365.268188L578.931519,371.630554L568.220093,385.095764L557.243042,382.821106L556.332275,382.960754L555.472412,383.291443L554.702881,383.798096L554.059265,384.457214L553.571045,385.238525L553.260803,386.106079L553.142944,387.019836L554.138000,403.195251L536.628662,402.208618L535.883789,402.276245L535.166443,402.487976L534.504272,402.835510L533.922607,403.305603L533.443787,403.880188L533.086243,404.537109L532.863770,405.251099L532.784851,405.994812L532.852539,406.739624L533.064270,407.456970L533.411865,408.119141L533.881897,408.700806L534.456482,409.179688L535.113342,409.537170L535.827332,409.759705L536.571106,409.838562L557.014709,409.138062L557.668518,409.070007L558.291199,408.859375L558.852112,408.516479L559.323425,408.058350L559.682068,407.507446L559.910278,406.890991L559.996826,406.239380L561.642273,391.218201L569.052551,388.122681L569.479248,388.041931L569.866089,387.844604L570.181946,387.546448L582.112976,372.548157L582.298645,372.250122L582.411438,371.917664L582.445557,371.568176L582.399048,371.220215L582.274536,370.891907L582.078430,370.600647L579.746460,364.869324L583.120850,361.880188L583.426758,361.756226L583.698914,361.569519L583.924805,361.328918L584.093811,361.045410L584.198120,360.732178L584.232910,360.403931L584.196350,360.075928z" fill="#000000" stroke="none" fill-opacity="1" />
			</g>
		</g>
	</g>
</svg>
