<?xml version="1.0" encoding="UTF-8"?>
<!-- Generator: Blender, SVG Export for Grease Pencil - v2.0 -->
<!DOCTYPE svg PUBLIC "-//W3C//DTD SVG 1.1//EN" "http://www.w3.org/Graphics/SVG/1.1/DTD/svg11.dtd">
<svg version="1.0" x="0px" y="0px" xmlns="http://www.w3.org/2000/svg" width="1900.125122px" height="1068.820190px" viewBox="0 0 1900.125122 1068.820190">
	<g id="blender_frame_7">
		<g id="blender_object_Stroke">
			<!--Layer: Fills-->
			<g id="Fills" />
			<!--Layer: Lines-->
			<g id="Lines">
				<polyline points="387.439545,203.168640 521.321716,185.768066 594.942383,145.499512 654.361023,196.500427 634.517517,254.368652 611.514954,292.723389 623.507568,361.922302 573.063904,412.758484 596.315308,423.351501 573.024780,430.275146 594.428223,423.645142 598.001648,412.096313 616.661316,404.485535 625.500732,445.914673 674.962280,393.810120 696.154236,407.912598 672.671509,452.047302 719.747131,436.666260 734.538391,458.465149 697.140808,473.812195 733.804321,466.758423 735.131958,493.194153 700.316528,506.483276 720.622986,508.525269 728.826965,526.095459 709.744934,538.600220 652.558350,562.113037 601.970642,675.333740 583.903503,674.129272 696.432251,866.412659 687.602905,1048.646729 632.685242,1080.332031 526.063232,1101.223755 -49.937866,1104.492676 -22.571411,843.218689 277.963776,888.758545 332.506805,854.296326 275.733002,786.057129 301.875549,666.052429 257.663483,638.563477 231.355011,631.841614 227.660248,612.978455 250.404892,607.440430 222.093582,591.847656 229.682327,568.528564 262.637482,576.770752 233.723770,559.073364 250.069199,535.413757 288.296295,541.687317 261.533264,519.770569 288.239502,496.751648 315.320374,515.564026 373.700134,453.919678 351.198456,449.820496 376.493164,439.741638 319.422516,399.833740 321.415039,326.326416 272.832581,275.635498 247.214172,222.701843 322.104431,165.331726" fill="#000000" stroke="none" fill-opacity="1" />
			</g>
			<!--Layer: eye_outside-->
			<g id="eye_outside" />
			<!--Layer: eeyeshading-->
			<g id="eeyeshading">
				<polyline points="409.677826,361.588745 456.406219,378.593628 496.684082,384.843567 534.878601,374.426941 561.962036,347.343750 547.378601,379.982483 502.239624,400.815735 445.989594,384.843567" fill="#FB5C0E" stroke="none" fill-opacity="1" />
			</g>
			<!--Layer: iris-->
			<g id="iris" />
			<!--Layer: GP_Layer-->
			<g id="GP_Layer" />
		</g>
	</g>
</svg>
