<?xml version="1.0" encoding="UTF-8"?>
<!-- Generator: Blender, SVG Export for Grease Pencil - v2.0 -->
<!DOCTYPE svg PUBLIC "-//W3C//DTD SVG 1.1//EN" "http://www.w3.org/Graphics/SVG/1.1/DTD/svg11.dtd">
<svg version="1.0" x="0px" y="0px" xmlns="http://www.w3.org/2000/svg" width="1900.125122px" height="1068.820190px" viewBox="0 0 1900.125122 1068.820190">
	<g id="blender_frame_5">
		<g id="blender_object_Stroke">
			<!--Layer: Fills-->
			<g id="Fills" />
			<!--Layer: Lines-->
			<g id="Lines">
				<polyline points="395.050659,143.121704 520.021912,137.866394 592.605103,96.939331 653.448914,144.628479 631.221985,197.431335 601.064453,227.091797 622.529114,336.394775 570.826172,408.087891 591.694214,406.742859 575.795837,432.553406 592.414062,433.676880 594.442932,420.989563 612.569153,408.913208 627.492798,448.146545 667.742432,392.429443 691.726929,403.147034 672.922302,447.407776 719.064575,432.090088 734.643311,457.567322 697.635498,471.521545 733.811218,466.528870 734.277039,496.232056 700.729309,510.382568 719.953003,512.762207 727.764709,530.808655 710.357544,543.185059 650.147827,557.583008 610.400146,666.882690 592.266846,665.725220 685.994751,830.932373 661.176453,988.437500 619.984009,1024.270264 546.710388,1069.379639 -55.854149,1103.121216 -18.977337,804.516907 185.610687,866.364807 296.855804,850.554260 268.629700,764.255981 307.200592,657.789795 268.547028,634.098145 242.287125,623.749390 242.110733,604.912109 268.556976,600.616821 238.043365,579.363770 247.152618,551.931152 288.666992,563.481140 252.191788,542.429565 272.623657,521.573914 316.774384,535.462341 289.572144,504.661621 325.250641,486.403259 333.635803,497.708801 375.053894,446.481995 350.609528,433.016785 371.788544,421.767944 295.568817,363.496094 323.892822,254.404236 288.901093,214.021362 254.990463,175.651489 305.668274,112.189575" fill="#000000" stroke="none" fill-opacity="1" />
			</g>
			<!--Layer: eye_outside-->
			<g id="eye_outside">
				<polyline points="393.690887,303.996521 435.206360,277.391663 491.529541,271.735474 540.567139,279.851929 571.185730,309.726135 534.873047,315.391602 488.265625,307.134216 430.680756,317.762024" fill="#FC9B3C" stroke="none" fill-opacity="1" />
			</g>
			<!--Layer: eeyeshading-->
			<g id="eeyeshading">
				<polyline points="541.311584,279.730652 491.096466,271.848145 435.233765,277.336548 406.664246,295.022827 456.807678,289.260681 516.036194,288.904480 561.844360,300.733887" fill="#FB5C0E" stroke="none" fill-opacity="1" />
			</g>
			<!--Layer: iris-->
			<g id="iris">
				<polyline points="473.232727,268.671021 456.740662,285.188721 456.737488,316.552429 472.964905,334.641296 488.249420,317.563599 487.649628,284.953247" fill="#000000" stroke="none" fill-opacity="1" />
			</g>
			<!--Layer: GP_Layer-->
			<g id="GP_Layer" />
		</g>
	</g>
</svg>
