<?xml version="1.0" encoding="UTF-8"?>
<!-- Generator: Blender, SVG Export for Grease Pencil - v2.0 -->
<!DOCTYPE svg PUBLIC "-//W3C//DTD SVG 1.1//EN" "http://www.w3.org/Graphics/SVG/1.1/DTD/svg11.dtd">
<svg version="1.0" x="0px" y="0px" xmlns="http://www.w3.org/2000/svg" width="8170.187012px" height="4595.730469px" viewBox="0 0 8170.187012 4595.730469">
	<g id="blender_frame_1">
		<g id="blender_object_Stroke">
			<!--Layer: Fills-->
			<g id="Fills" />
			<!--Layer: Lines-->
			<g id="Lines">
				<polyline points="1562.920288,770.052734 2231.011475,682.009521 2545.080566,467.819336 2806.841797,671.552490 2724.150391,918.049805 2595.292236,1062.445801 2666.047119,1464.042236 2464.066406,1774.783691 2552.109131,1769.604736 2484.781982,1868.006348 2552.109131,1878.364258 2562.467285,1826.573975 2640.152344,1785.141846 2697.121338,1961.228516 2888.744385,1712.635498 2987.145508,1764.425781 2904.281250,1966.407715 3101.083496,1878.364258 3173.589355,1966.407715 3018.219482,2049.271973 3173.589355,2002.660889 3189.126465,2116.599365 3044.114502,2189.105469 3132.157471,2189.105469 3173.589355,2261.612061 3095.904297,2323.760254 2805.880371,2416.982666 2588.362549,2903.811035 2510.677246,2898.631836 2873.207520,3654.769287 2738.553467,4364.295898 2559.566895,4525.383301 2255.286865,4731.217285 -214.723602,4749.115723 -134.179367,3558.857422 796.550354,3818.388184 1288.763306,3746.793701 1163.472778,3415.669434 1324.021973,2866.692871 1168.652100,2752.754395 1059.892944,2695.785156 1065.071777,2602.562744 1179.009766,2602.562744 1059.892944,2488.624268 1111.682617,2379.864746 1261.873901,2473.087158 1132.398804,2338.432373 1204.905151,2245.210205 1360.274780,2374.685791 1287.768921,2136.450439 1427.601929,2089.839355 1463.530396,2180.045654 1614.046021,2038.049072 1520.823730,1970.721680 1614.045776,1944.826660 1277.410522,1649.622314 1349.916504,1281.911621 1132.398560,1131.719971 951.133484,919.379639 1101.324585,613.817627" fill="#000000" stroke="none" fill-opacity="1" />
			</g>
			<!--Layer: eye_outside-->
			<g id="eye_outside">
				<polyline points="1668.372681,1377.249756 1850.524048,1195.097900 2096.674805,1091.713623 2303.440430,1219.713135 2411.746582,1372.327148 2274.559082,1519.245361 2092.408203,1637.398438 1831.488647,1553.706787" fill="#FC9B3C" stroke="none" fill-opacity="1" />
			</g>
			<!--Layer: eeyeshading-->
			<g id="eeyeshading">
				<polyline points="2304.631104,1220.213135 2096.345459,1089.282471 1847.629150,1194.639404 1668.361450,1378.782959 1719.857056,1429.669922 1932.764404,1377.802246 2228.048096,1386.174316 2355.392578,1429.625488 2411.975098,1371.547363" fill="#FB5C0E" stroke="none" fill-opacity="1" />
			</g>
			<!--Layer: iris-->
			<g id="iris">
				<polyline points="2018.428345,1174.178711 1908.176270,1284.602783 1908.154785,1494.274658 2016.638184,1615.202148 2118.817627,1501.034668 2114.807861,1283.028564" fill="#000000" stroke="none" fill-opacity="1" />
			</g>
		</g>
	</g>
</svg>
