<?xml version="1.0" encoding="UTF-8"?>
<!-- Generator: Blender, SVG Export for Grease Pencil - v2.0 -->
<!DOCTYPE svg PUBLIC "-//W3C//DTD SVG 1.1//EN" "http://www.w3.org/Graphics/SVG/1.1/DTD/svg11.dtd">
<svg version="1.0" x="0px" y="0px" xmlns="http://www.w3.org/2000/svg" width="3283.415527px" height="1846.921021px" viewBox="0 0 3283.415527 1846.921021">
	<g id="blender_frame_3">
		<g id="blender_object_Stroke">
			<!--Layer: Fills-->
			<g id="Fills" />
			<!--Layer: Lines-->
			<g id="Lines">
				<polyline points="703.373413,291.307373 950.843933,283.882568 1064.001587,193.960205 1163.262573,285.451416 1128.374268,389.893555 1076.593628,448.086060 1120.570801,643.193604 1003.402161,740.999634 1038.754272,758.092285 1038.525024,763.561523 1040.711548,758.094849 1046.551025,741.731689 1075.978027,724.389771 1092.040283,776.486694 1165.841919,690.050049 1202.811157,707.990601 1169.568359,777.971924 1247.002319,752.849731 1275.622681,789.348267 1214.242188,816.066895 1275.632446,803.793701 1281.770386,849.965393 1224.194214,874.705566 1259.038940,878.046448 1275.447388,908.561157 1244.325806,932.758606 1128.326782,965.673157 1043.592529,1166.324463 1012.452637,1164.191162 1163.449341,1467.140503 1113.846313,1751.413330 1043.471191,1815.849976 922.044678,1898.365356 -83.202408,1877.709473 -51.339378,1404.219238 327.350861,1514.213013 528.751282,1496.262939 474.478546,1364.598511 524.921387,1150.967529 455.933472,1106.566895 410.620300,1084.296753 409.488037,1048.689575 454.263397,1048.965332 404.788727,1004.859375 423.583923,962.740112 484.871765,998.756958 431.567871,946.580322 461.142700,909.833313 525.529480,959.810547 497.603851,865.930054 559.400940,845.714355 573.229004,884.662598 644.157166,822.239868 606.859924,796.073120 649.217529,784.318970 530.512939,659.846191 600.849548,497.024292 528.355591,419.244263 466.098785,317.761719 524.590820,198.380371" fill="#000000" stroke="none" fill-opacity="1" />
			</g>
			<!--Layer: eye_outside-->
			<g id="eye_outside">
				<polyline points="716.396667,545.217773 798.819763,483.040649 902.411987,455.396606 977.812927,517.541016 1012.649902,583.648682 949.795715,599.280029 870.614319,578.325317 771.486572,579.792236" fill="#FC9B3C" stroke="none" fill-opacity="1" />
			</g>
			<!--Layer: eeyeshading-->
			<g id="eeyeshading">
				<polyline points="978.202332,518.034668 903.535339,455.056030 797.873718,483.942993 741.719421,526.109375 815.084534,518.926636 939.826599,538.874512 1003.901428,567.322876" fill="#FB5C0E" stroke="none" fill-opacity="1" />
			</g>
			<!--Layer: iris-->
			<g id="iris">
				<polyline points="861.399658,452.746216 798.552002,500.601196 784.214355,605.770996 830.366394,673.840576 889.420715,623.556396 902.305664,513.930786" fill="#000000" stroke="none" fill-opacity="1" />
			</g>
			<!--Layer: GP_Layer-->
			<g id="GP_Layer">
				<polyline points="897.682312,516.897217 895.033997,496.774414 886.157532,515.776367 872.909546,520.708740 884.916382,528.183105 886.823547,550.450562 894.176392,529.444580 907.183899,526.276001" fill="#D0D0D0" stroke="none" fill-opacity="1" />
				<polyline points="724.552429,516.082275 729.492859,518.969482 732.468262,520.664185 735.237366,522.256714 738.729919,524.216797" fill="#D0D0D0" stroke="none" fill-opacity="1" />
				<polyline points="870.595886,538.272583 869.250000,528.046387 864.738953,537.703003 858.006470,540.209717 864.108215,544.008057 865.077332,555.324219 868.814209,544.649048 875.424561,543.038940" fill="#D0D0D0" stroke="none" fill-opacity="1" />
			</g>
		</g>
	</g>
</svg>
