<?xml version="1.0" encoding="UTF-8"?>
<!-- Generator: Blender, SVG Export for Grease Pencil - v2.0 -->
<!DOCTYPE svg PUBLIC "-//W3C//DTD SVG 1.1//EN" "http://www.w3.org/Graphics/SVG/1.1/DTD/svg11.dtd">
<svg version="1.0" x="0px" y="0px" xmlns="http://www.w3.org/2000/svg" width="700.105225px" height="861.246582px" viewBox="0 0 700.105225 861.246582">
	<g id="blender_frame_64">
		<g id="blender_object_Stroke">
			<!--Layer: Fills-->
			<g id="Fills" />
			<!--Layer: backstuff-->
			<g id="backstuff">
				<path d="M498.752319,451.275818L498.497894,451.039276L498.202179,450.856934L497.876587,450.735779L497.533630,450.680481L497.186462,450.693146L496.848419,450.773285L496.532562,450.917847L496.250946,451.121246L496.014404,451.375702L495.832062,451.671387L495.710938,451.996979L495.655548,452.339935L495.668243,452.687073L495.748474,453.025116L495.893005,453.341003L496.096344,453.622620L562.007202,531.106567L587.734131,636.488525L584.839233,732.331665L530.291321,797.020264L431.945160,828.986572L319.442688,840.579468L217.605972,829.095398L134.223694,818.621643L65.949432,796.399841L35.042759,754.325134L81.219856,718.618958L155.177216,714.880615L161.816681,712.734802L232.287308,661.064880L233.433731,660.230164L234.395386,659.187866L235.135162,657.977905L235.624680,656.646973L235.845078,655.246033L235.788040,653.829041L235.455566,652.450439L234.860550,651.163147L234.025879,650.016663L232.983582,649.055054L231.773697,648.315308L230.442703,647.825745L229.041748,647.605286L227.624786,647.662354L226.246155,647.994812L224.958878,648.589844L148.597290,683.175903L74.960449,693.357849L71.330635,694.245117L68.108757,696.137756L11.064983,743.363831L9.202210,745.241150L7.805233,747.486694L6.944276,749.987183L6.662782,752.616760L6.974895,755.242920L7.864917,757.733276L9.287995,759.962402L53.293541,810.399109L55.374611,812.294006L57.926449,813.481506L130.777130,832.455017L215.876755,843.227966L318.632324,854.808960L434.040710,841.734009L535.115234,806.579529L536.430237,805.920532L537.513428,804.925415L592.386108,736.648071L593.088318,735.433289L593.360413,734.056824L596.418152,636.152710L568.940979,528.443298L568.127502,526.897949z" fill="#000000" stroke="none" fill-opacity="1" />
				<polyline points="334.254120,595.172302 418.370728,712.640686 422.038422,756.632446 375.815521,891.695312 285.903351,897.678406 286.848358,803.267151 316.633179,771.431702 254.861450,674.319092 229.238647,669.366333 260.697998,930.185181 184.400436,921.514771 120.500679,726.378906" fill="#E99E4C" stroke="none" fill-opacity="1" />
				<path d="M343.081146,588.851440L341.678436,587.250793L339.990387,585.954590L338.081848,585.012634L336.026276,584.461060L333.902527,584.321167L331.792358,584.598267L329.776794,585.281738L327.933258,586.345276L326.332611,587.747986L325.036438,589.436035L324.094482,591.344543L323.542969,593.400146L323.403015,595.523804L323.680084,597.634033L324.363525,599.649658L325.427032,601.493164L416.632660,713.279663L418.224640,756.159851L372.043518,886.771973L291.783630,891.456543L291.016846,804.937256L318.258575,772.952393L318.550964,772.561462L318.751160,772.116211L318.849396,771.637939L318.841095,771.149841L318.726532,770.675293L318.511292,770.237122L261.469788,670.115601L260.102692,668.499451L258.352783,667.308411L256.347809,666.629517L230.528900,662.690979L229.115265,662.568542L227.706970,662.742188L226.365387,663.204407L225.148926,663.934998L224.110687,664.902161L223.295731,666.063721L222.739716,667.369263L222.466721,668.761719L222.488663,670.180481L257.143463,926.655029L187.391510,917.844116L127.401932,724.119019L126.828445,722.816101L126.011749,721.650085L124.983376,720.665771L123.782608,719.901062L122.455811,719.385254L121.053818,719.138184L119.630600,719.169373L118.240829,719.477661L116.937851,720.051208L115.771858,720.867859L114.787560,721.896301L114.022797,723.097046L113.506989,724.423828L113.259987,725.825806L113.291199,727.249023L113.599480,728.638794L180.613373,922.754883L180.992111,923.579529L181.547714,924.297180L182.251282,924.870483L183.066254,925.269714L183.950424,925.474121L260.347290,933.271606L261.046204,933.271912L261.727509,933.115845L262.356750,932.811462L262.901947,932.374084L263.335541,931.825867L263.635590,931.194580L263.786957,930.512207L263.781830,929.813232L237.105392,677.811646L250.063446,681.368530L313.829224,771.170776L283.792358,800.407959L283.185333,801.243347L282.801270,802.201843L282.663605,803.225281L280.085968,897.620178L280.232727,898.978088L280.692078,900.264465L281.438599,901.408203L282.431305,902.346375L283.615356,903.027222L284.925537,903.413269L286.289642,903.483215L376.158325,896.846863L377.348022,896.625549L378.453552,896.133423L379.414124,895.397461L380.177002,894.458191L380.700348,893.367004L425.597046,757.850281L425.786682,756.319946L420.149780,712.492371L419.822144,711.601379z" fill="#000000" stroke="none" fill-opacity="1" />
				<polyline points="497.424377,452.449219 505.942230,494.355591 514.031860,537.702393 521.518799,581.300476 538.123230,574.561646 568.860901,553.782593 577.475708,585.772888 549.488098,611.043640 581.745117,602.551880 576.848145,619.716187 589.463989,628.143494 583.624023,587.309692 569.994568,549.304016 551.837646,513.107971 526.495300,483.639801 500.761047,454.419708" fill="#050510" stroke="none" fill-opacity="1" />
				<path d="M499.160980,452.096252L499.058685,451.764221L498.893677,451.458557L498.672180,451.190918L498.402679,450.971680L498.095703,450.809204L497.762787,450.709747L497.416901,450.677124L497.071381,450.712616L496.739380,450.814880L496.433655,450.979889L496.166077,451.201385L495.946777,451.470856L495.784332,451.777893L495.684845,452.110779L495.652283,452.456604L495.687775,452.802185L504.202789,494.694641L512.287476,538.014893L519.772278,581.600464L519.881958,581.979736L520.073059,582.325317L520.335876,582.619995L520.657410,582.849182L521.021729,583.001465L521.410706,583.069336L521.804993,583.049316L522.185242,582.942505L538.789612,576.203674L567.795654,556.641846L575.482239,585.185303L548.300476,609.728333L548.057617,609.997559L547.874695,610.310608L547.759277,610.654358L547.716248,611.014404L547.747437,611.375671L547.851379,611.723022L548.023926,612.041931L548.257751,612.318970L548.543091,612.542725L548.867981,612.703674L549.218872,612.795166L549.580994,612.813293L549.939209,612.757385L579.187439,605.057739L575.144043,619.229980L575.076660,619.670227L575.121155,620.113281L575.274658,620.531250L575.527527,620.897827L575.863831,621.189758L588.479553,629.617188L588.807129,629.789551L589.163452,629.890076L589.532776,629.914429L589.899109,629.861511L590.246521,629.733643L590.559753,629.536377L590.825195,629.278381L591.031250,628.970825L591.168945,628.627197L591.232239,628.262573L591.218384,627.892639L585.392639,587.056763L573.243469,548.138916L557.249023,510.393463L529.579834,480.987152L502.091003,453.248505L501.836945,453.011566L501.541534,452.828705L501.216187,452.707031L500.873322,452.651184L500.526062,452.663269L500.187927,452.742859L499.871826,452.886902L499.589905,453.089813L499.352905,453.343872L499.170105,453.639282L499.048462,453.964661L498.992523,454.307556L499.004639,454.654724L499.084229,454.992889L499.228241,455.308990L499.431213,455.590973L523.426392,486.310699L546.760864,516.489624L566.816101,550.665283L581.881104,587.742126L587.147583,624.464844L578.906677,618.960144L583.449280,603.038086L583.513245,602.671143L583.499084,602.298828L583.407410,601.937744L583.242310,601.603821L583.010986,601.311768L582.723755,601.074585L582.393250,600.902588L582.034180,600.803589L581.662231,600.781738L581.294006,600.838257L556.085388,607.474426L578.663330,587.088135L578.975708,586.716553L579.175537,586.273926L579.247681,585.793823L579.186890,585.312134L570.572083,553.321777L570.437378,552.973083L570.232422,552.660400L569.966492,552.397705L569.651367,552.196533L569.301086,552.066040L568.931152,552.011902L568.558105,552.036621L568.198547,552.138977L567.868469,552.314453L537.284607,572.989502L522.892700,578.830444L515.778442,537.402466L507.684296,494.030487z" fill="#000000" stroke="none" fill-opacity="1" />
				<polyline points="353.598297,340.466370 288.000916,461.891510 329.981415,569.991211 403.006317,647.048157 254.690964,725.569214 115.763237,738.995544 93.686562,619.721069 134.672195,491.329651 165.695038,357.008270" fill="#650F0A" stroke="none" fill-opacity="1" />
				<path d="M361.325562,344.640808L361.991425,343.053101L362.334839,341.365967L362.342468,339.644287L362.014099,337.954163L361.362244,336.360596L360.412079,334.924805L359.200073,333.701965L357.772766,332.739136L356.185059,332.073181L354.497955,331.729797L352.776215,331.722168L351.086151,332.050537L349.492554,332.702393L348.056793,333.652588L346.833954,334.864624L345.871094,336.291931L286.440704,461.048676L286.265411,461.527527L286.233490,462.036499L286.347900,462.533447L326.554749,571.321960L327.313232,572.519775L394.727570,645.689392L253.991318,723.238403L120.089417,733.253845L101.595512,620.219971L136.984970,492.067932L167.421692,357.407074L167.466278,357.062592L167.442871,356.715973L167.352249,356.380615L167.197968,356.069366L166.985931,355.794220L166.724182,355.565674L166.423019,355.392609L166.093842,355.281647L165.749344,355.237030L165.402679,355.260437L165.067383,355.351105L164.756149,355.505402L164.480942,355.717407L164.252426,355.979126L164.079391,356.280304L163.968384,356.609497L132.329117,490.686249L86.364601,617.383728L86.128876,621.119934L110.552826,739.959961L110.872467,741.034790L111.411041,742.018311L112.144600,742.866455L113.040192,743.541199L114.057747,744.012451L115.151649,744.259033L116.272926,744.269836L254.920578,727.945435L255.807999,727.679077L405.380554,651.532837L406.341614,650.872437L407.126465,650.010132L407.693939,648.991394L408.013702,647.870056L408.069092,646.705322L407.857117,645.558594L407.389038,644.490662L406.689514,643.557678L333.146545,567.987061L289.950623,462.013428z" fill="#000000" stroke="none" fill-opacity="1" />
			</g>
			<!--Layer: head-->
			<g id="head">
				<polyline points="270.231018,181.653625 289.063812,239.187561 255.527695,244.644104 228.308334,184.013855" fill="#E99E4C" stroke="none" fill-opacity="1" />
				<path d="M271.915192,181.102295L271.775330,180.784363L271.576019,180.499817L271.325104,180.259583L271.032104,180.072937L270.708313,179.946960L270.366241,179.886658L270.018890,179.894287L269.679718,179.969421L269.361755,180.109375L269.077209,180.308594L268.836975,180.559570L268.650299,180.852539L268.524414,181.176270L268.464081,181.518433L268.471619,181.865723L268.546844,182.204956L286.735474,237.770935L256.586792,242.676392L229.924973,183.288086L229.752304,182.986633L229.524155,182.724609L229.249283,182.512207L228.938263,182.357483L228.602966,182.266418L228.256500,182.242493L227.911896,182.286621L227.582489,182.397217L227.281097,182.569885L227.019135,182.798035L226.806671,183.072876L226.651947,183.383972L226.560867,183.719177L226.536957,184.065735L226.581131,184.410339L226.691605,184.739685L253.911057,245.369873L254.106674,245.702820L254.369736,245.985535L254.687820,246.204529L255.045792,246.349426L255.426620,246.413330L255.812286,246.393250L289.348419,240.936646L289.716248,240.835144L290.053833,240.657349L290.345490,240.411316L290.577759,240.108643L290.739838,239.763184L290.824219,239.391113L290.826996,239.009583L290.747986,238.636230z" fill="#000000" stroke="none" fill-opacity="1" />
				<polyline points="289.911591,77.623413 328.708649,123.370056 346.286346,159.939209 353.481934,199.275635 317.244659,214.396057 271.378265,239.057556 208.064774,152.106995 250.410873,110.289673 289.761688,78.190979" fill="#E99E4C" stroke="none" fill-opacity="1" />
				<path d="M292.133301,75.739136L291.692963,75.318481L291.174835,74.998474L290.601440,74.793152L289.997986,74.711548L289.390625,74.757202L288.806152,74.928162L288.269897,75.216980L287.805420,75.610779L287.433044,76.092712L287.168915,76.641479L287.024750,77.233154L287.006653,77.841919L287.115601,78.441040L287.346649,79.004517L287.689880,79.507568L327.209991,124.342773L343.697571,160.781250L348.705017,196.682800L316.366455,212.291321L271.900818,236.764587L213.960831,152.586548L251.596268,111.609680L291.603027,80.448242L292.032135,80.016113L292.362000,79.504211L292.578186,78.934814L292.671326,78.332947L292.637299,77.724976L292.477570,77.137268L292.199127,76.595581L291.814209,76.123718L291.339569,75.742126L290.795898,75.467590L290.207153,75.312012L289.598846,75.282349L288.997650,75.379822L288.429932,75.600037L287.920319,75.933472L249.290741,108.916504L204.913986,148.916382L204.253357,149.744690L203.805481,150.704956L203.595398,151.743469L203.634964,152.802307L203.921753,153.822266L204.439896,154.746521L269.945709,240.100708L270.233582,240.410339L270.586548,240.643005L270.984558,240.785400L271.405060,240.829529L271.823944,240.772766L272.217499,240.618347L318.226105,216.457581L355.111786,203.181641L355.945801,202.716919L356.654480,202.077087L357.201752,201.294739L357.559631,200.409485L357.710052,199.466675L357.645264,198.514038L348.940338,159.453674L330.305847,122.602295z" fill="#000000" stroke="none" fill-opacity="1" />
				<polyline points="251.561951,107.943176 230.996567,93.488708 238.476852,31.948608 192.278488,59.067383 168.992020,101.791687 208.267059,149.450317" fill="#050510" stroke="none" fill-opacity="1" />
				<path d="M250.542923,109.393005L250.845367,109.563904L251.175278,109.672668L251.520157,109.714844L251.866577,109.688965L252.201324,109.595947L252.511429,109.439514L252.785080,109.225525L253.011765,108.962280L253.182739,108.659790L253.291397,108.329834L253.333603,107.984985L253.307678,107.638550L253.214737,107.303894L253.058258,106.993713L252.844254,106.719971L252.580963,106.493408L232.883789,92.649048L240.236008,32.162476L240.243210,31.805115L240.178421,31.453552L240.044449,31.122131L239.846680,30.824402L239.593246,30.572327L239.294327,30.376343L238.962143,30.244324L238.610229,30.181580L238.252899,30.190735L237.904648,30.271423L237.579758,30.420410L191.381393,57.539062L190.722488,58.219238L165.404739,99.836487L165.045303,100.735962L164.907684,101.694885L164.999680,102.659119L165.316116,103.574646L165.839233,104.389954L203.559402,153.329895L204.406708,154.173706L205.402374,154.836060L206.508133,155.291504L207.681473,155.522400L208.877365,155.519897L210.049744,155.284302L211.153641,154.824341L212.146561,154.158020L212.990494,153.310669L213.652863,152.315002L214.108261,151.209290L214.339157,150.035889L214.336685,148.839966L214.100998,147.667603L213.641190,146.563721L212.974701,145.570740L173.900177,101.323425L193.599365,60.346863L236.285583,35.289856L229.237366,93.274841L229.244080,93.751404L229.377502,94.208984L229.628006,94.614441L229.977539,94.938477z" fill="#000000" stroke="none" fill-opacity="1" />
				<polyline points="320.966614,113.377625 334.667847,98.899109 327.924133,40.903992 363.914337,68.124939 379.220947,112.729492 346.682373,162.131653" fill="#050510" stroke="none" fill-opacity="1" />
				<path d="M320.035919,112.496948L319.882019,112.695435L319.769775,112.920166L319.703522,113.162476L319.685760,113.412964L319.717285,113.662170L319.796783,113.900452L319.921265,114.118591L320.085938,114.308350L320.284393,114.462219L320.509125,114.574463L320.751373,114.640808L321.001923,114.658447L321.251129,114.626892L321.489349,114.547424L321.707520,114.422913L321.897247,114.258362L335.598480,99.779785L335.812134,99.475525L335.929443,99.122742L335.940521,98.751160L329.543213,43.735046L362.829407,68.910828L376.000946,112.321777L344.355072,160.598816L344.100677,161.082275L343.945618,161.606140L343.895660,162.150146L343.952789,162.693481L344.114838,163.215149L344.375549,163.695251L344.724915,164.115234L345.149506,164.459045L345.632935,164.713379L346.156799,164.868530L346.700806,164.918396L347.244171,164.861328L347.765869,164.699219L348.245941,164.438538L348.665924,164.089172L349.009705,163.664612L381.654022,114.331970L382.022400,113.529297L382.133331,112.653015L381.976593,111.783813L365.126251,67.708984L364.951996,67.373291L364.687286,67.103088L328.697021,39.882019L328.464478,39.742188L328.207672,39.654541L327.938171,39.622803L327.668030,39.648560L327.409363,39.730713L327.173767,39.865295L326.971863,40.046692L326.812653,40.266418L326.703369,40.514771L326.648743,40.780579L326.651398,41.052063L333.326050,98.452942z" fill="#000000" stroke="none" fill-opacity="1" />
			</g>
			<!--Layer: bottomarms-->
			<g id="bottomarms">
				<polyline points="405.418152,491.884308 317.090027,374.275635 368.818085,340.115417 407.092072,434.743317 429.950104,476.186676" fill="#E99E4C" stroke="none" fill-opacity="1" />
				<path d="M403.406860,493.394836L403.740143,493.758209L404.137939,494.049530L404.584930,494.257690L405.063965,494.374603L405.556702,494.395844L406.043945,494.320557L406.507263,494.151642L406.928619,493.895569L407.292023,493.562256L407.583313,493.164429L407.791504,492.717407L407.908386,492.238373L407.929657,491.745758L407.854370,491.258453L407.685455,490.795166L407.429352,490.373779L320.706146,374.901917L367.638885,343.908447L403.760315,436.090881L426.330963,478.182831L426.825073,478.891663L427.455780,479.482300L428.195435,479.928894L429.011871,480.211945L429.869263,480.319061L430.730225,480.245544L431.557037,479.994659L432.313690,479.577362L432.966919,479.011871L433.488403,478.322876L433.855255,477.540558L434.051392,476.699036L434.068359,475.835144L433.905273,474.986603L433.569244,474.190491L410.342957,433.196136L371.149872,339.172241L370.886108,338.683533L370.521454,338.264587L370.073730,337.935852L369.564758,337.713440L369.019440,337.608093L368.464294,337.625061L367.926361,337.763428L367.431946,338.016418L315.703918,372.176636L315.256653,372.553528L314.908539,373.023438L314.678314,373.561127L314.578491,374.137390L314.614441,374.721161L314.784271,375.280823L315.078766,375.786133z" fill="#000000" stroke="none" fill-opacity="1" />
				<polyline points="188.418747,494.685486 144.986740,485.413452 192.810730,313.148438 234.778732,328.276489 242.069809,379.534027 224.513519,428.211700 204.421082,474.145355" fill="#E99E4C" stroke="none" fill-opacity="1" />
				<path d="M187.743011,497.850891L188.373581,497.921906L189.005829,497.868561L189.615494,497.692871L190.179169,497.401611L190.675262,497.005951L191.084625,496.521149L191.391479,495.965790L191.584183,495.361237L191.655182,494.730713L191.601837,494.098450L191.426163,493.488770L191.134857,492.925018L190.739243,492.428955L190.254471,492.019623L189.699097,491.712738L189.094543,491.520081L149.025345,482.965942L194.996017,317.376770L231.848572,330.660889L238.507843,379.167938L221.761093,427.114807L202.178436,473.164368L202.030136,473.620758L201.973740,474.097290L202.011337,474.575653L202.141617,475.037476L202.359497,475.465027L202.656509,475.841858L203.021423,476.153503L203.440079,476.387970L203.896423,476.536255L204.372955,476.592651L204.851334,476.555023L205.313171,476.424774L205.740723,476.206909L206.117538,475.909851L206.429199,475.544983L206.663651,475.126312L227.226562,429.398499L245.338593,380.712952L245.510071,379.044708L237.983231,327.820740L237.744400,326.979858L237.289322,326.233582L236.651093,325.636292L235.876373,325.231567L193.908371,310.103455L193.168793,309.931519L192.409409,309.936646L191.672195,310.118469L190.997696,310.467163L190.422836,310.963379L189.979492,311.579834L189.691925,312.282593L141.867935,484.547607L141.752258,485.291229L141.811493,486.041473L142.042389,486.757782L142.432434,487.401398L142.960556,487.937531L143.598251,488.337219L144.310989,488.578857z" fill="#000000" stroke="none" fill-opacity="1" />
			</g>
			<!--Layer: toparms-->
			<g id="toparms">
				<polyline points="403.620300,374.431061 421.022064,323.066162 421.716461,304.928772 437.509888,291.176086 427.982422,283.689453 427.642303,296.373901 418.263672,294.977966 413.974609,277.409241 436.605499,263.306580 444.498199,255.851379 449.304840,245.139954 479.386108,252.449402 491.909302,281.111633 459.512726,320.378601 455.532013,332.055054 450.472595,404.335144 434.669128,421.164429 403.768982,397.701080 346.554596,323.121582 391.002289,294.040405 418.221710,330.036743" fill="#E99E4C" stroke="none" fill-opacity="1" />
				<path d="M402.500092,374.051575L402.447601,374.277374L402.440125,374.509094L402.477997,374.737854L402.559875,374.954834L402.682434,375.151642L402.841034,375.320801L403.029480,375.455719L403.240753,375.551300L403.466644,375.603821L403.698425,375.611237L403.927124,375.573303L404.144073,375.491547L404.340912,375.369019L404.510010,375.210388L404.644989,375.021820L404.740540,374.810577L422.988739,323.732422L423.625824,305.842529L438.244629,292.019836L438.410919,291.839294L438.533936,291.626770L438.607574,291.392517L438.628296,291.147888L438.595276,290.904602L438.509949,290.674377L438.376434,290.468384L438.201202,290.296448L429.108124,282.256897L428.766724,282.044983L428.387177,281.913086L427.987915,281.867554L427.588470,281.910645L427.208099,282.040283L426.865387,282.250122L426.577026,282.530029L426.357086,282.866272L426.216156,283.242554L426.161133,283.640625L425.863983,294.254578L419.833282,293.257385L416.388824,278.393250L437.608551,264.916321L445.808807,257.238953L446.239563,256.632812L450.384735,247.345398L477.698944,254.458008L489.212250,280.734497L457.238983,318.502686L452.389648,330.983704L445.404602,402.120789L434.167450,415.184448L405.382935,396.079071L351.756927,324.006653L390.466766,297.123230L416.576355,331.280945L416.850708,331.578003L417.177673,331.815857L417.544830,331.985352L417.937988,332.079895L418.342072,332.096069L418.741425,332.033020L419.120911,331.893250L419.465790,331.682068L419.762909,331.407776L420.000763,331.080750L420.170227,330.713623L420.264862,330.320435L420.280914,329.916382L420.217865,329.516968L420.078125,329.137512L419.867065,328.792603L392.826050,292.661316L392.490387,292.304443L392.086395,292.027283L391.632629,291.842529L391.149963,291.758667L390.660522,291.779602L390.186707,291.904236L389.750366,292.127075L344.589661,320.118347L343.944061,320.658752L343.442139,321.334656L343.111511,322.108826L342.970306,322.938843L343.026367,323.778809L343.276489,324.582642L343.707062,325.306091L401.969666,399.081390L431.972443,424.715851L432.911896,425.262756L433.955658,425.566193L435.041931,425.608032L436.105927,425.385803L437.084625,424.912750L437.919830,424.216919L454.270721,407.901764L455.247009,406.421234L455.670105,404.698944L458.813782,332.717590L462.129089,321.839294L493.699188,282.588379L494.033386,282.045898L494.207428,281.433044L494.208160,280.795959L494.035675,280.182617L481.539673,251.508423L481.154816,250.901917L480.604889,250.439941L479.940948,250.165710L449.750732,243.305237L449.318329,243.251953L448.885315,243.299072L448.474548,243.444214L448.108032,243.679565L447.805237,243.992798L447.582184,244.366943L442.911987,254.724060L435.441193,261.797302L412.857666,275.616821L412.448090,275.949829L412.133881,276.373962L411.934631,276.862732L411.862823,277.385681L411.922974,277.910095L416.385895,295.436401L416.545776,295.863953L416.801514,296.242065L417.138702,296.549683L417.538696,296.769714L417.979034,296.889771L427.372162,298.188354L427.759125,298.204651L428.140686,298.139343L428.500153,297.995361L428.821411,297.779175L429.090057,297.500366L429.294312,297.171387L429.424896,296.806885L429.476013,296.423096L429.706543,287.361389L435.755493,291.220337L420.440521,303.463562L420.093750,303.860291L419.866333,304.335571L419.774963,304.854492L418.958557,322.685425z" fill="#000000" stroke="none" fill-opacity="1" />
				<polyline points="482.840698,257.484192 492.809204,251.430725 500.829132,252.088013 499.651062,262.070801 490.384033,276.882935" fill="#E99E4C" stroke="none" fill-opacity="1" />
				<path d="M481.622345,255.478027L481.254395,255.754211L480.947388,256.096924L480.713135,256.492920L480.560638,256.927063L480.495728,257.382568L480.520935,257.841980L480.635284,258.287720L480.834503,258.702454L481.110657,259.070496L481.453339,259.377502L481.849426,259.611755L482.283539,259.764282L482.739014,259.829163L483.198425,259.803894L483.644165,259.689514L484.058929,259.490417L493.492035,254.320801L497.408600,254.886841L496.605133,260.999268L488.565125,275.744995L488.378143,276.121704L488.268158,276.527649L488.239502,276.947266L488.293243,277.364380L488.427399,277.763000L488.636688,278.127808L488.913116,278.444824L489.246124,278.701721L489.622742,278.888794L490.028778,278.998779L490.448395,279.027405L490.865448,278.973694L491.264160,278.839539L491.628937,278.630249L491.945892,278.353821L492.202881,278.020874L502.321899,263.741760L502.779846,262.440002L503.876892,252.447632L503.878815,251.744873L503.720825,251.060120L503.411194,250.429260L502.966095,249.885376L502.408966,249.456970L501.769043,249.166504L501.079834,249.029297L493.039917,248.615540L492.159790,248.681763L491.343109,249.016418z" fill="#000000" stroke="none" fill-opacity="1" />
				<polyline points="444.498199,255.851379 469.346191,258.494507 475.461884,269.273804" fill="#E99E4C" stroke="none" fill-opacity="1" />
				<path d="M444.700073,253.953369L444.325897,253.950439L443.958405,254.020569L443.611603,254.161072L443.298859,254.366516L443.032196,254.629028L442.821930,254.938538L442.675995,255.283081L442.600159,255.649475L442.597229,256.023621L442.667419,256.391174L442.807861,256.737976L443.013306,257.050659L443.275848,257.317322L443.585327,257.527649L443.929932,257.673523L444.296234,257.749329L468.225616,260.203552L474.652374,269.733154L474.757507,269.882202L474.889771,270.007996L475.043976,270.105469L475.214203,270.171021L475.394073,270.202087L475.576416,270.197510L475.754456,270.157410L475.921204,270.083313L476.070312,269.978210L476.196075,269.845947L476.293549,269.691772L476.359070,269.521484L476.390167,269.341675L476.385529,269.159241L476.345459,268.981323L476.271454,268.814514L470.927399,257.597412L470.672302,257.250916L470.343048,256.974121L469.957825,256.782532L469.538483,256.686707z" fill="#000000" stroke="none" fill-opacity="1" />
				<polyline points="437.142212,263.659119 457.979370,268.431702 465.485962,276.681641" fill="#E99E4C" stroke="none" fill-opacity="1" />
				<path d="M437.563660,261.819275L437.196594,261.772400L436.827454,261.798096L436.470428,261.895203L436.139252,262.060120L435.846588,262.286560L435.603729,262.565735L435.419922,262.886902L435.302399,263.237732L435.255554,263.604736L435.281219,263.973877L435.378326,264.330933L435.543304,264.662109L435.769745,264.954773L436.048798,265.197632L436.369965,265.381409L436.720856,265.498962L457.605011,269.072266L465.485962,276.681641L458.503021,267.955200L458.336578,267.820496L458.137421,267.741638z" fill="#000000" stroke="none" fill-opacity="1" />
				<polyline points="424.149109,270.223267 439.685822,270.900024 452.919403,283.740295" fill="#E99E4C" stroke="none" fill-opacity="1" />
				<path d="M424.236908,268.209045L423.842194,268.230713L423.459351,268.328857L423.103088,268.499756L422.786957,268.737000L422.523102,269.031311L422.321777,269.371460L422.190735,269.744263L422.134888,270.135559L422.156525,270.530212L422.254700,270.913025L422.425659,271.269348L422.662842,271.585510L422.957153,271.849304L423.297272,272.050598L423.670166,272.181702L424.061401,272.237488L439.042542,272.392639L452.919403,283.740295L440.743744,269.809631L440.287048,269.504822L439.751892,269.382141z" fill="#000000" stroke="none" fill-opacity="1" />
				<polyline points="191.745575,331.025696 148.934280,395.205505 145.109894,400.184052 141.112427,415.474792 143.942062,433.511047 116.715454,516.082886 140.532928,535.482605 165.760010,555.324829 176.134430,580.405640 161.667740,586.733887 152.785629,563.695557 139.680405,552.196167 152.459183,570.983521 152.967651,603.198669 140.511978,604.704468 138.391937,571.227173 125.114014,557.047485 139.902405,573.296631 139.793533,605.113159 126.857147,604.102539 118.663918,576.432556 108.660118,560.995117 118.596161,578.993774 117.970703,600.182251 108.334679,599.958801 97.950050,573.854553 84.390312,546.375244 85.545082,397.219818 89.398575,385.334595 139.266769,311.671692 199.178925,323.223511" fill="#E99E4C" stroke="none" fill-opacity="1" />
				<path d="M193.515488,332.206299L193.711838,331.838318L193.832535,331.439148L193.873138,331.024048L193.831940,330.609009L193.710556,330.209961L193.513672,329.842285L193.248779,329.520142L192.926224,329.255737L192.558258,329.059448L192.158997,328.938660L191.743927,328.898132L191.328873,328.939331L190.929886,329.060730L190.562195,329.257629L190.239960,329.522461L189.975662,329.845032L147.738708,394.349030L144.465271,399.688873L144.323456,399.978455L139.905640,415.159332L139.880142,415.668182L143.067841,433.439697L115.552147,515.699280L115.494240,515.988220L115.506973,516.282593L115.589653,516.565430L115.737495,516.820312L115.941833,517.032593L139.491135,536.761597L163.436005,557.085083L172.080246,578.771729L162.372818,585.043884L154.686951,562.962524L154.129623,562.163818L140.254440,551.541992L140.108246,551.438293L139.943924,551.366699L139.768433,551.330322L139.589188,551.330688L139.413788,551.367676L139.249802,551.439880L139.103958,551.544189L138.982635,551.676086L138.890869,551.830078L138.832596,551.999512L138.810333,552.177368L138.824890,552.356018L138.875717,552.527893L138.960770,552.685669L149.892929,571.795776L151.450836,601.875488L141.561844,603.441650L140.427063,571.098267L140.263794,570.418274L139.880402,569.833374L125.114014,557.047485L137.920944,574.059448L138.672653,603.897217L128.231537,602.404480L120.693016,575.831787L108.804131,560.901855L108.782181,560.874512L108.755119,560.852173L108.724091,560.835876L108.690369,560.826172L108.655373,560.823608L108.620598,560.828125L108.587471,560.839661L108.557312,560.857666L108.531578,560.881470L108.511131,560.910034L108.496895,560.942078L108.489548,560.976379L108.489281,561.011475L108.496170,561.045837L108.509903,561.078125L116.488258,579.503906L116.373268,598.498352L109.780754,597.879639L99.803421,573.117249L86.822548,545.817627L91.500999,398.184845L93.037651,387.111877L140.731552,315.208984L198.758987,325.401306L199.191925,325.441406L199.624313,325.396240L200.039688,325.267578L200.421890,325.060425L200.756317,324.782593L201.030243,324.444946L201.232971,324.060303L201.356720,323.643433L201.396790,323.210510L201.351669,322.778076L201.222977,322.362732L201.015778,321.980530L200.737976,321.646057L200.400314,321.372192L200.015594,321.169556L199.598862,321.045715L139.871872,308.533386L139.130157,308.478516L138.395813,308.596558L137.708664,308.881104L137.105896,309.316772L136.620117,309.879944L86.078087,383.086700L79.872574,395.380615L81.962540,546.356384L82.213051,547.449524L96.126106,574.665833L106.372162,600.739563L106.606468,601.173035L106.934738,601.540405L107.339203,601.821655L107.797882,602.001648L108.285767,602.070435L117.932556,601.828247L118.298325,601.795776L118.647720,601.682983L118.963577,601.495667L119.229965,601.242920L119.433754,600.937439L119.564713,600.594360L119.616364,600.230835L120.687172,579.055481L120.427490,577.982788L111.160439,565.169189L116.721657,577.326660L125.131355,604.613525L125.303154,605.010681L125.564842,605.355286L125.901146,605.627502L126.292786,605.811584L126.716972,605.896912L139.705917,606.234802L139.969528,606.224365L140.223465,606.152832L140.453751,606.024109L140.647736,605.845337L140.794754,605.626221L140.886703,605.378906L140.918503,605.117065L141.881210,573.303467L141.822678,572.818970L141.647308,572.363464L141.365860,571.964783L125.114014,557.047485L136.403183,572.086609L139.386551,604.775757L139.433273,605.033203L139.538086,605.272949L139.695328,605.482056L139.896515,605.649353L140.130829,605.765747L140.385635,605.825073L140.647278,605.823975L153.147202,604.683594L153.501114,604.596069L153.823303,604.425415L154.094757,604.182007L154.299149,603.880005L154.424393,603.537598L154.463181,603.175110L155.037628,570.942810L154.917709,570.205322L154.591400,569.533203L144.244736,557.359131L151.064621,564.896484L160.486633,587.189209L160.622116,587.447266L160.812988,587.667542L161.049118,587.838257L161.318069,587.950500L161.605545,587.998169L161.896301,587.978882L162.175003,587.893616L177.385574,583.265747L177.983414,582.921021L178.490921,582.453308L178.883209,581.885559L179.141159,581.245361L179.252228,580.564331L179.210876,579.875366L179.019180,579.212402L168.366104,554.246826L167.503555,553.108093L141.563812,534.194763L118.142769,515.665649L144.751740,433.778046L144.784317,433.378906L142.385025,415.538544L145.854721,400.548798L150.099899,396.100983z" fill="#000000" stroke="none" fill-opacity="1" />
			</g>
			<!--Layer: upperstuff-->
			<g id="upperstuff">
				<polyline points="313.745636,250.048035 363.287628,268.385498 404.527161,300.383667 367.293457,358.245209 337.880432,382.711517 301.701202,398.334747 257.847198,387.300415 202.807861,363.348724 124.117172,320.475159 163.101669,272.973145 229.909958,246.923218 200.562073,216.626038 244.928238,204.119507 298.308563,198.539917 324.578400,212.357483 336.773071,222.568909 314.600281,249.275513" fill="#D02514" stroke="none" fill-opacity="1" />
				<path d="M314.772644,247.273376L314.211609,247.126343L313.632660,247.091553L313.058014,247.170410L312.509827,247.359863L312.009155,247.652588L311.575165,248.037354L311.224640,248.499451L310.970947,249.021057L310.823914,249.582092L310.789154,250.161011L310.867981,250.735657L311.057434,251.283875L311.350128,251.784485L311.734955,252.218506L312.197021,252.569031L312.718567,252.822693L361.677368,271.283325L401.905884,300.832397L365.233582,356.422546L335.524597,378.875336L301.238403,392.602844L259.277252,383.104675L203.914505,361.084839L129.286514,319.468445L165.722595,276.585388L230.572021,248.621338L230.924789,248.437195L231.229095,248.180969L231.470520,247.864746L231.637665,247.503662L231.722458,247.114990L231.720901,246.717163L231.632965,246.329102L231.463043,245.969360L231.219055,245.655090L206.641373,218.264587L245.265167,205.876831L297.882843,200.753113L323.083221,214.587341L332.648804,222.942749L312.317047,247.379822L311.991089,247.861694L311.765411,248.397888L311.648682,248.967834L311.645386,249.549561L311.755585,250.120789L311.975159,250.659485L312.295685,251.145020L312.704712,251.558716L313.186523,251.884644L313.722717,252.110352L314.292664,252.227051L314.874359,252.230408L315.445587,252.120117L315.984344,251.900574L316.469849,251.580139L316.883545,251.171143L339.030762,224.443359L339.390411,223.895569L339.619568,223.281616L339.706726,222.632080L339.647583,221.979431L339.445099,221.356140L339.109253,220.793396L338.656952,220.319153L326.292297,210.310669L299.312653,196.630981L298.716003,196.421875L298.084320,196.394714L244.742935,202.346436L199.686646,213.520508L199.068314,213.766052L198.513580,214.133240L198.045822,214.606323L197.685120,215.165222L197.446655,215.786316L197.340744,216.443115L197.371628,217.107605L197.538223,217.751709L197.833374,218.347900L198.244553,218.870911L226.692596,246.221436L161.533173,268.950562L159.764175,270.234131L121.522026,318.345398L121.119934,318.962708L120.862213,319.652893L120.761230,320.382751L120.821877,321.116943L121.041130,321.820374L121.408684,322.458923L121.906601,323.001892L122.510933,323.423279L201.603500,365.559265L256.084351,391.351318L300.372375,403.615814L302.139465,403.762787L303.860107,403.334198L339.646881,386.802124L369.031952,360.335205L406.176727,301.445129L406.362976,301.074646L406.467194,300.673218L406.484711,300.258911L406.414734,299.850159L406.260406,299.465271L406.028595,299.121399L405.729645,298.833984L365.296234,265.796753z" fill="#E1DC39" stroke="none" fill-opacity="1" />
				<polyline points="197.724579,291.706787 197.774643,306.404236 260.862823,300.170227 256.232880,284.136719" fill="#DCD737" stroke="none" fill-opacity="1" />
				<polyline points="296.533539,202.720459 284.295715,250.198792 311.643707,313.028137" fill="#D02514" stroke="none" fill-opacity="1" />
				<path d="M300.880035,203.840820L301.015045,202.971313L300.977905,202.092163L300.769928,201.237244L300.399170,200.439148L299.879791,199.728943L299.231903,199.133545L298.480316,198.676025L297.653870,198.374023L296.784363,198.238892L295.905304,198.276123L295.050262,198.484070L294.252289,198.854797L293.541992,199.374146L292.946625,200.022034L292.489166,200.773682L292.187042,201.600098L282.207031,249.660400L282.145508,250.369324L282.317993,251.059692L310.876526,313.362122L310.956421,313.505371L311.062683,313.630249L311.191376,313.732056L311.337402,313.806824L311.495178,313.851624L311.658661,313.864746L311.821625,313.845764L311.977692,313.795349L312.120972,313.715515L312.245880,313.609192L312.347687,313.480530L312.422333,313.334473L312.467194,313.176758L312.480377,313.013245L312.461365,312.850281L312.410950,312.694214L286.569611,250.018433z" fill="#E1DC39" stroke="none" fill-opacity="1" />
			</g>
			<!--Layer: eyes-->
			<g id="eyes">
				<polyline points="266.859985,139.824951 284.001129,118.194885 304.243500,109.421204 314.870392,124.939026 322.394348,146.484863 315.282288,173.374817 295.508545,191.665161 268.787323,170.425537 265.545197,140.789368" fill="#381418" stroke="none" fill-opacity="1" />
				<polyline points="267.798462,139.058472 317.449738,141.855042 327.181396,146.294495 265.614227,139.760376 269.202972,169.327087 295.181915,186.501282 315.054810,172.929382 322.344238,147.004333" fill="#650F0A" stroke="none" fill-opacity="1" />
				<path d="M267.909973,137.078430L267.521545,137.094727L267.143768,137.186462L266.791138,137.350159L266.477234,137.579590L266.214081,137.865723L266.011810,138.197754L265.878204,138.562805L265.818390,138.946960L265.834656,139.335388L265.926483,139.713196L266.090149,140.065857L266.319489,140.379822L266.605652,140.642944L266.937683,140.845154L267.302795,140.978760L267.686951,141.038513L316.436859,145.956055L324.012390,145.428101L265.847473,137.562439L265.351562,137.565857L264.868835,137.679626L264.423676,137.898193L264.038452,138.210510L263.732574,138.600830L263.521393,139.049622L263.415558,139.534119L263.420502,140.030029L269.202972,169.327087L295.181915,186.501282L315.347412,173.357788L315.476440,173.231567L315.554504,173.068848L325.390656,147.854919L325.498077,147.244202L325.484253,146.624329L325.349792,146.019043L325.099823,145.451599L324.743958,144.943848L324.295868,144.515259L323.772797,144.182373L323.194763,143.957886L322.584106,143.850525L321.964233,143.864380L321.358948,143.998840L320.791534,144.248779L320.283752,144.604614L319.855194,145.052734L319.522278,145.575806L319.297821,146.153748L314.606049,172.607666L295.181915,186.501282L269.202972,169.327087L268.147400,142.251892L326.834686,149.561340L327.495117,149.564758L328.142883,149.435913L328.751801,149.180054L329.297272,148.807617L329.757202,148.333557L330.112976,147.777161L330.350342,147.160828L330.459564,146.509399L330.436310,145.849365L330.281525,145.207397L330.001404,144.609253L329.607300,144.079163L329.115204,143.638672L328.544891,143.305542L319.172821,138.077942L317.683228,137.710083z" fill="#000000" stroke="none" fill-opacity="1" />
				<path d="M283.683624,119.503235L302.816498,112.303650L313.283386,123.985657L304.796387,109.102600L304.525940,108.804077L304.193878,108.575928L303.818268,108.430481L303.419128,108.375610L303.018127,108.414124L302.636841,108.544128z" fill="#000000" stroke="none" fill-opacity="1" />
				<polyline points="287.414642,169.029236 303.651794,170.147644 301.262543,181.095276 287.767914,179.481628" fill="#DCD737" stroke="none" fill-opacity="1" />
				<polyline points="302.717621,133.149475 300.134552,117.939209 307.515472,134.461243" fill="#94150E" stroke="none" fill-opacity="1" />
			</g>
			<!--Layer: stripes-->
			<g id="stripes">
				<polyline points="153.669037,823.436157 169.432724,868.347046 172.313507,841.938538 197.103607,830.499878 165.925751,815.391174" fill="#381418" stroke="none" fill-opacity="0.966507196" />
				<polyline points="136.069443,770.240723 153.516357,825.159912 160.223114,791.315491 185.919250,775.569458 154.028412,756.044739" fill="#381418" stroke="none" fill-opacity="0.966507196" />
				<polyline points="168.656097,869.388123 179.987701,900.493286 179.184372,885.776306 200.016464,880.829285 174.580795,863.476501" fill="#381418" stroke="none" fill-opacity="0.966507196" />
				<polyline points="317.181183,771.826355 287.912659,804.946838 287.516510,827.827698 330.289459,811.591614 387.087463,829.696228 339.696960,785.333496" fill="#381418" stroke="none" fill-opacity="0.966507196" />
				<polyline points="288.718079,722.758362 318.749146,773.000061 337.603851,735.106506 396.541107,708.630615 324.072784,702.061279" fill="#381418" stroke="none" fill-opacity="0.966507196" />
				<polyline points="288.529480,836.164429 287.641602,869.158630 306.455078,861.481934 350.752777,874.265625 311.331421,839.381897" fill="#381418" stroke="none" fill-opacity="0.966507196" />
				<polyline points="231.700089,180.190796 247.946274,202.719849 251.319382,182.581421 269.257355,166.769958 242.840958,169.059448" fill="#381418" stroke="none" fill-opacity="0.966507196" />
				<polyline points="348.753571,196.535706 324.958496,208.220093 329.203247,193.634399 316.104187,173.629639 340.965942,182.846985" fill="#381418" stroke="none" fill-opacity="0.966507196" />
			</g>
			<!--Layer: Layer-->
			<g id="Layer">
				<polygon points="303.381897,299.745667 294.602905,368.992310 393.907593,374.000427 410.523193,305.361755" fill="#F4FE77" stroke="none" fill-opacity="1" />
				<path d="M305.175537,300.165283L305.222900,299.807312L305.199493,299.446899L305.106323,299.098022L304.946838,298.774048L304.727234,298.487427L304.455902,298.249146L304.143280,298.068359L303.801422,297.952087L303.443451,297.904663L303.083069,297.928040L302.734161,298.021240L302.410248,298.180725L302.123596,298.400391L301.885315,298.671692L301.704559,298.984314L301.588196,299.326172L293.943542,368.838043L293.925812,368.985626L293.940643,369.133484L293.987366,369.274597L294.063782,369.402069L294.166138,369.509796L294.289551,369.592621L294.428040,369.646515L294.574982,369.668884L393.878967,374.694305L394.029053,374.684204L394.173431,374.642059L394.305298,374.569824L394.418549,374.470856L394.507812,374.349823L394.568970,374.212433L412.829834,306.101257L412.932312,305.613831L412.932953,305.115723L412.831665,304.627991L412.632782,304.171326L412.344696,303.765015L411.979553,303.426208L411.552795,303.169189L411.082550,303.005005L410.588623,302.940430L303.431580,297.904297L303.071381,297.929993L302.723145,298.025452L302.400208,298.187012L302.115021,298.408508L301.878479,298.681335L301.699677,298.995117L301.585602,299.337646L301.540466,299.695984L301.566162,300.056152L301.661621,300.404419L301.823151,300.727356L302.044647,301.012634L302.317535,301.249084L302.631226,301.427917L302.973877,301.541992L303.332123,301.587097L407.231232,307.695984L393.407745,373.284668L295.448730,368.349457z" fill="#FEFEFE" stroke="none" fill-opacity="1" />
				<polyline points="310.160858,315.474304 302.185425,377.447845 391.414337,381.790924 406.317108,320.196838" fill="#DCD737" stroke="none" fill-opacity="1" />
				<polyline points="434.368042,506.479980 406.537384,492.975739 381.612030,419.192108 343.187744,390.225159 344.378571,380.754883 352.047424,389.312836 347.090668,380.446167 351.826843,369.460876 364.877930,383.283051 352.570892,366.746429 360.508850,357.903229 376.862152,371.860504 359.556458,352.285828 365.966492,345.437683 398.653625,369.683105 397.390839,366.848633 400.393677,353.888733 413.306122,373.752136 412.583710,388.079224 447.367188,454.509613 437.802765,506.674561" fill="#E99E4C" stroke="none" fill-opacity="1" />
				<path d="M432.563721,510.198517L433.323853,510.479065L434.124115,510.605957L434.933685,510.574280L435.721649,510.385254L436.457489,510.046143L437.113098,509.570007L437.663116,508.975098L438.086578,508.284332L438.367218,507.524231L438.494049,506.723969L438.462402,505.914368L438.273285,505.126465L437.934265,504.390594L437.458069,503.735016L436.863220,503.184937L436.172455,502.761444L409.145813,490.676819L383.167999,418.666443L382.943665,418.230774L382.600708,417.880676L346.651978,388.760986L346.621948,387.936157L350.613892,390.597412L350.911041,390.866455L351.257446,391.068176L351.638062,391.193665L352.036469,391.237671L352.435364,391.198181L352.817413,391.076935L353.166077,390.879242L353.466278,390.613556L353.704895,390.291473L353.871613,389.927002L353.959320,389.535828L353.964020,389.135010L353.885681,388.741943L353.727570,388.373627L349.826752,380.305573L352.541321,373.505829L364.256775,383.869568L364.386810,383.982086L364.536743,384.066315L364.700562,384.118744L364.871490,384.137360L365.042755,384.121338L365.207245,384.071350L365.358459,383.989410L365.490204,383.878845L365.597107,383.744141L365.674866,383.590759L365.720367,383.424896L365.731720,383.253296L365.708435,383.082916L365.651489,382.920654L365.563263,382.773041L355.433746,366.877808L360.690430,360.633759L376.319580,372.496185L376.456726,372.591309L376.610107,372.657318L376.773468,372.691498L376.940399,372.692535L377.104218,372.660400L377.258362,372.596344L377.396698,372.502869L377.513702,372.383820L377.604736,372.243866L377.666107,372.088654L377.695404,371.924316L377.691467,371.757446L377.654419,371.594666L377.585754,371.442505L377.488220,371.306976L362.152740,352.322693L366.183868,347.843323L397.798950,370.835358L398.047729,370.983459L398.321259,371.078644L398.608185,371.116974L398.897003,371.096924L399.175903,371.019257L399.433624,370.887177L399.659485,370.706055L399.844391,370.483276L399.980743,370.227875L400.063141,369.950317L400.088043,369.661865L400.054565,369.374298L399.964111,369.099304L399.261322,366.669067L400.859680,356.533630L411.007172,374.371124L410.430756,387.970642L410.673981,389.079224L445.023041,454.865112L435.616425,506.273682L435.580261,506.707916L435.629456,507.140869L435.762146,507.555908L435.973328,507.937042L436.254791,508.269684L436.595734,508.541016L436.983063,508.740631L437.401855,508.860840L437.836060,508.897034L438.269012,508.847839L438.684052,508.715088L439.065155,508.503937L439.397827,508.222504L439.669220,507.881561L439.868805,507.494232L439.989014,507.075409L449.572052,454.913879L449.583466,454.173492L449.353027,453.469788L414.766296,387.600372L415.568115,373.866180L415.493103,373.163269L415.205078,372.517700L401.274811,353.315948L401.134186,353.143005L400.960236,353.003632L400.760834,352.904053L400.544922,352.848755L400.322235,352.840271L400.102661,352.878937L399.896332,352.963013L399.712250,353.088776L399.558838,353.250488L399.443024,353.440948L399.369934,353.651520L395.655151,366.446503L395.617279,367.018921L395.763306,367.573700L397.756256,368.563873L367.040405,343.989868L366.660889,343.774109L366.240601,343.656006L365.804260,343.642334L365.377441,343.734009L364.985168,343.925537L364.650452,344.205811L358.154144,350.973267L357.876709,351.354370L357.700378,351.791565L357.635864,352.258514L357.687073,352.727142L357.850891,353.169189L358.117401,353.557983L368.360229,363.505554L361.780670,356.413147L361.423370,356.170746L361.021729,356.012543L360.595093,355.946106L360.164337,355.974762L359.750305,356.097046L359.373077,356.307098L359.051056,356.594604L350.920166,365.264709L350.627380,365.677246L350.435699,366.145355L350.355072,366.644806L350.389618,367.149475L350.537628,367.633179L350.791443,368.070801L355.477692,372.083099L353.468262,367.911011L353.090942,367.590485L352.652802,367.359894L352.174957,367.230377L351.680298,367.208130L351.192749,367.294220L350.735657,367.484558L350.331146,367.769989L349.998505,368.136658L349.753754,368.567108L344.834595,379.473480L344.646515,380.197357L344.684845,380.944275L344.946167,381.644989L350.928650,387.746460L346.703430,378.671539L346.223602,378.236694L345.664337,377.910248L345.049805,377.706146L344.406403,377.633270L343.761719,377.694641L343.143616,377.887787L342.578705,378.204193L342.091187,378.630432L341.702118,379.148041L341.428131,379.734772L341.281158,380.365417L339.958710,389.819092L339.963898,390.670898L340.190002,391.492096L340.621429,392.226562L341.228638,392.823883L380.218384,420.198212L403.499115,494.002106L403.872925,494.760498L404.431976,495.394806L405.137451,495.860962z" fill="#000000" stroke="none" fill-opacity="1" />
				<polyline points="203.088776,414.618378 184.226227,438.182220 202.958221,414.967987 280.474243,391.390137 289.378937,353.129303 297.691101,345.530640 305.096497,355.405762 313.644409,358.570374 348.365356,343.166260 354.961914,349.951752 352.338898,355.129059 332.400391,364.341583 354.338074,360.796692 358.246643,369.800629 332.006500,384.387054 358.011139,372.218506 358.166901,381.738098 334.834442,397.843170 355.275543,391.304291 349.088196,399.506714 313.172791,421.109467 294.042877,429.775513 189.079254,493.776642" fill="#E99E4C" stroke="none" fill-opacity="1" />
				<path d="M204.999725,416.148041L205.261414,415.745850L205.439606,415.300323L205.527542,414.828552L205.521606,414.348785L205.422272,413.879333L205.233307,413.438263L204.961807,413.042572L204.618439,412.707428L204.216202,412.445709L203.770676,412.267487L203.298950,412.179657L202.819138,412.185486L202.349686,412.284821L201.908676,412.473846L201.512970,412.745300L201.177856,413.088684L183.881256,437.906067L183.831421,437.983734L183.798843,438.070038L183.784882,438.161224L183.790131,438.253326L183.814407,438.342346L183.856613,438.424377L183.914978,438.495880L183.986893,438.553680L184.069244,438.595276L184.158463,438.618866L184.250580,438.623444L184.341705,438.608765L184.427719,438.575500L184.505020,438.525085L184.570084,438.459717L204.364365,417.051880L281.078979,393.378418L281.572845,393.154236L281.991913,392.809937L282.307556,392.368927L282.498413,391.861237L291.107025,354.140533L297.639893,346.077026L303.789185,356.386139L304.119415,356.715515L304.529175,356.938202L313.151978,359.900604L313.506805,359.982117L313.870667,359.970673L314.219635,359.866913L347.951813,345.305359L352.686615,350.298370L350.875488,353.611877L332.139832,363.777679L332.030487,363.842499L331.936676,363.928192L331.862274,364.031219L331.810364,364.147186L331.783173,364.271301L331.781769,364.398407L331.806274,364.523102L331.855652,364.640198L331.927795,364.744751L332.019745,364.832489L332.127594,364.899689L332.246887,364.943512L332.372559,364.962158L332.499451,364.954803L353.098785,363.062378L355.239258,368.780762L331.591339,383.640198L331.448120,383.740204L331.328247,383.867310L331.236755,384.016052L331.177399,384.180389L331.152649,384.353333L331.163666,384.527649L331.209869,384.696136L331.289368,384.851685L331.398895,384.987823L331.533722,385.098816L331.688354,385.180115L331.856293,385.228210L332.030487,385.241211L332.203705,385.218475L332.368713,385.160980L355.689911,375.934235L355.545349,380.389404L333.825867,396.381989L333.551636,396.615814L333.330139,396.900208L333.170715,397.223450L333.079803,397.572205L333.061249,397.932159L333.115784,398.288422L333.241180,398.626373L333.432190,398.932007L333.680969,399.192780L333.977325,399.397919L334.309021,399.539032L334.662292,399.610199L335.022705,399.608551L335.375397,399.534149L348.747467,395.935883L347.346832,397.572632L311.969727,418.817841L293.045990,427.574951L186.475159,489.505798L185.692001,490.095917L185.038986,490.827454L184.541336,491.672333L184.217957,492.598083L184.081482,493.569122L184.137054,494.548157L184.382462,495.497528L184.808472,496.380737L185.398514,497.163879L186.130112,497.816895L186.975006,498.314606L187.900757,498.637909L188.871765,498.774445L189.850769,498.718903L190.800110,498.473419L191.683334,498.047455L295.174377,431.915100L314.238983,423.462982L350.405090,401.696045L351.127869,401.045288L357.209412,392.763123L357.471588,392.326660L357.636780,391.845093L357.697662,391.339661L357.651550,390.832642L357.500519,390.346466L357.251190,389.902557L356.914581,389.520630L356.505615,389.217468L356.042267,389.006470L355.545074,388.896912L355.035980,388.893799L354.537476,388.997070L345.692505,392.505768L359.643433,383.877197L360.119446,383.453705L360.478180,382.927094L360.698029,382.329102L360.765747,381.695557L360.392487,372.179504L360.325775,371.657623L360.146271,371.163177L359.862457,370.720184L359.488342,370.350250L359.042145,370.071564L358.545654,369.897583L358.023102,369.836853L357.499878,369.892365L357.001709,370.061340L353.850830,373.221832L359.389618,371.856812L359.855103,371.517334L360.224121,371.074951L360.474548,370.556091L360.591370,369.992004L360.567566,369.416382L360.404633,368.863831L356.208466,359.984741L355.985870,359.595734L355.683746,359.264771L355.316559,359.007782L354.902130,358.837219L354.460388,358.761322L354.012817,358.783752L336.772186,363.005920L353.173981,356.936615L353.721130,356.562225L354.115021,356.028961L356.632721,350.798248L356.789429,350.362183L356.834229,349.900940L356.764465,349.442780L356.584320,349.015808L356.304871,348.646118L349.647064,341.920227L349.308929,341.648010L348.915253,341.465393L348.489044,341.382996L348.055603,341.405701L347.640411,341.532288L313.596252,357.039978L306.115112,354.040436L297.986145,345.309387L297.933929,345.253113L297.871246,345.208862L297.800690,345.178528L297.725494,345.163452L297.648743,345.164307L297.573822,345.180969L297.503998,345.212830L297.442261,345.258484L288.088654,351.717865L287.728394,352.163483L287.516357,352.695831L278.721954,389.750824L202.258972,412.669006L201.614273,412.976044L201.088242,413.459015L184.503067,437.837799z" fill="#000000" stroke="none" fill-opacity="1" />
			</g>
		</g>
	</g>
</svg>
