<?xml version="1.0" encoding="UTF-8"?>
<!-- Generator: Blender, SVG Export for Grease Pencil - v2.0 -->
<!DOCTYPE svg PUBLIC "-//W3C//DTD SVG 1.1//EN" "http://www.w3.org/Graphics/SVG/1.1/DTD/svg11.dtd">
<svg version="1.0" x="0px" y="0px" xmlns="http://www.w3.org/2000/svg" width="4449.773926px" height="2502.998291px" viewBox="0 0 4449.773926 2502.998291">
	<g id="blender_frame_45">
		<g id="blender_object_Stroke">
			<!--Layer: Fills-->
			<g id="Fills" />
			<!--Layer: backstuff-->
			<g id="backstuff">
				<polyline points="1324.849854,1524.166870 1583.843262,1711.113281 1622.441162,1648.551270 1684.665039,1634.163208 1697.141357,1639.140869 1728.896606,1686.595093 1682.334473,1692.316406 1668.061157,1731.017090 1710.989990,1709.493652 1755.888672,1723.448486 1767.003052,1756.744263 1737.380859,1749.911865 1722.698853,1756.233643 1726.389282,1761.371338 1772.659668,1774.396240 1725.406250,1661.117676 1566.687744,1586.131592 1333.805054,1530.075928" fill="#050510" stroke="none" fill-opacity="1" />
				<path d="M1327.864136,1519.990845L1326.991577,1519.483154L1326.036743,1519.155273L1325.036133,1519.020020L1324.028442,1519.082520L1323.052490,1519.340576L1322.145386,1519.783936L1321.342285,1520.395752L1320.674194,1521.152588L1320.166260,1522.025146L1319.838379,1522.980103L1319.703125,1523.980591L1319.765747,1524.988281L1320.023560,1525.964355L1320.467041,1526.871338L1321.078857,1527.674561L1321.835571,1528.342773L1580.829102,1715.289185L1581.883057,1715.875732L1583.044556,1716.201050L1584.249756,1716.247314L1585.432983,1716.011963L1586.528687,1715.507935L1587.477295,1714.762695L1588.226318,1713.817383L1625.695801,1653.084717L1684.254395,1639.544189L1693.749390,1643.332520L1719.962036,1682.504028L1681.706421,1687.204590L1680.347656,1687.564941L1679.136963,1688.279053L1678.164307,1689.294189L1677.502441,1690.534180L1663.229126,1729.235107L1662.958618,1730.318115L1662.927856,1731.433960L1663.138184,1732.530273L1663.579712,1733.555420L1664.231934,1734.461426L1665.064087,1735.205566L1666.036987,1735.752930L1667.104858,1736.077881L1668.217773,1736.165039L1669.323242,1736.010254L1670.369385,1735.621094L1711.443237,1715.027588L1751.839233,1727.583008L1759.209106,1749.661133L1738.538452,1744.893555L1736.918091,1744.782471L1735.343994,1745.181641L1720.662109,1751.503418L1719.664673,1752.072266L1718.818237,1752.847900L1718.164429,1753.791626L1717.736084,1754.856934L1717.554443,1755.990479L1717.628418,1757.136230L1717.954224,1758.237061L1718.515991,1759.238403L1722.206421,1764.375977L1723.434082,1765.589355L1724.993774,1766.328857L1771.264160,1779.353638L1772.295776,1779.533447L1773.342285,1779.500854L1774.360596,1779.257202L1775.308838,1778.812622L1776.147339,1778.185547L1776.841675,1777.401733L1777.363281,1776.493774L1777.690308,1775.499023L1777.809448,1774.458740L1777.715698,1773.415771L1777.412842,1772.413452L1730.417480,1659.027344L1729.333252,1657.367920L1727.725586,1656.208252L1574.265991,1570.091187L1335.010498,1525.068848L1334.010254,1524.929932L1333.002441,1524.988647L1332.025391,1525.243042L1331.116699,1525.683105L1330.311401,1526.291992L1329.640381,1527.046265L1329.129272,1527.916992L1328.798096,1528.870605L1328.659058,1529.870605L1328.718018,1530.878662L1328.972290,1531.855713L1329.412354,1532.764282L1330.020996,1533.569580L1330.775269,1534.240723L1331.646118,1534.751709L1332.599854,1535.083008L1560.760742,1602.951904L1721.198730,1665.135254L1763.808105,1766.554199L1729.520264,1756.902344L1727.661621,1757.610596L1737.867676,1755.309570L1765.845703,1761.762695L1766.927368,1761.894043L1768.012451,1761.794678L1769.052368,1761.469238L1770.000610,1760.932373L1770.814575,1760.208008L1771.458008,1759.328613L1771.901978,1758.333496L1772.126831,1757.267456L1772.122070,1756.177734L1771.888306,1755.113525L1760.773804,1721.817749L1760.254883,1720.717163L1759.492310,1719.768921L1758.528442,1719.026245L1757.417236,1718.530273L1712.518555,1704.575562L1711.226807,1704.348877L1709.919434,1704.455811L1708.681641,1704.889648L1677.402710,1720.572144L1686.079956,1697.045166L1729.524658,1691.706787L1730.546387,1691.473877L1731.499756,1691.038818L1732.345459,1690.420044L1733.048340,1689.642822L1733.579224,1688.739258L1733.916260,1687.747070L1734.045532,1686.707031L1733.961670,1685.662598L1733.668091,1684.656494L1733.176880,1683.730835L1701.421631,1636.276611L1700.381104,1635.137207L1699.049805,1634.357300L1686.573608,1629.379639L1685.057007,1629.027954L1683.504761,1629.145386L1621.280884,1643.533447L1620.013550,1644.009033L1618.913940,1644.798340L1618.057983,1645.847046L1582.367676,1703.696289z" fill="#000000" stroke="none" fill-opacity="1" />
				<path d="M1325.894409,1519.123657L1324.890503,1519.016846L1323.885010,1519.107910L1322.916626,1519.393311L1322.022583,1519.862183L1321.236938,1520.496582L1320.590332,1521.271851L1320.107300,1522.158447L1319.806885,1523.122314L1319.699951,1524.126221L1319.790894,1525.131714L1320.076294,1526.100220L1320.545288,1526.994385L1321.179688,1527.779785L1321.954956,1528.426392L1322.841553,1528.909302L1323.805420,1529.209961L1589.231323,1588.815308L1702.164185,1659.802002L1726.834595,1689.480713L1800.377563,1898.544434L1737.270630,2109.861572L1494.005127,2307.775879L1457.499878,2328.112305L1074.029663,2460.390625L488.419739,2452.089111L248.732178,2344.228760L228.392441,2319.585449L200.099594,2249.196045L203.551926,2225.358154L257.789825,2120.012939L367.904602,2064.754395L579.901245,1992.870605L833.192810,1774.828125L836.257080,1772.071899L838.724915,1768.770752L840.501404,1765.051758L841.518005,1761.057617L841.736023,1756.941895L841.146667,1752.862793L839.773071,1748.976807L837.667725,1745.433716L834.911621,1742.369385L831.610596,1739.901611L827.891541,1738.125244L823.897400,1737.108398L819.781555,1736.890381L815.702515,1737.479614L811.816650,1738.853271L808.273376,1740.958740L540.139038,1904.132446L334.432922,1984.607910L213.686661,2064.639648L200.553131,2078.356689L135.638245,2196.757080L126.618271,2250.592285L126.785095,2261.106689L129.955093,2271.133301L174.513657,2351.016602L210.850449,2388.529053L220.873383,2395.428711L476.281860,2491.863525L483.885406,2493.426514L1077.131836,2501.735107L1470.910767,2361.252930L1512.599121,2337.098389L1756.182129,2126.568115L1758.587769,2123.862305L1760.115112,2120.579590L1825.329224,1901.790649L1825.844238,1897.950439L1825.150757,1894.138550L1750.191528,1678.785156L1719.675049,1642.251587L1597.796753,1571.365723z" fill="#000000" stroke="none" fill-opacity="1" />
				<polyline points="1146.533691,1741.704956 1307.420776,2090.747559 1309.601929,2144.500977 1293.264282,2251.795654 1138.517456,2603.602783 919.879944,2606.070801 890.755859,2585.298584 935.994202,2370.373779 962.441345,2325.410645 1033.226929,2249.265869 932.244568,1935.678955 882.244690,1914.095215 860.652283,1941.461060 794.736572,2652.178223 770.281677,2678.817871 558.520203,2620.591064 479.655029,2022.365112" fill="#E99E4C" stroke="none" fill-opacity="1" />
				<path d="M1175.188843,1728.496826L1172.061523,1723.160400L1167.952881,1718.536499L1163.021484,1714.802979L1157.456299,1712.103271L1151.471436,1710.541260L1145.296875,1710.176758L1139.169678,1711.023926L1133.325562,1713.050049L1127.989014,1716.177246L1123.365234,1720.285889L1119.631714,1725.217285L1116.932129,1730.782471L1115.369995,1736.767334L1115.005615,1742.941895L1115.852661,1749.069092L1117.878784,1754.913086L1301.508789,2092.170898L1302.407959,2144.102783L1282.409058,2248.641846L1128.687378,2588.724121L925.126099,2589.356689L909.157837,2578.121094L947.936035,2374.999512L971.240356,2331.966309L1038.334106,2254.013672L1039.399658,2252.509521L1040.033936,2250.778809L1040.192505,2248.942383L1039.864380,2247.128418L953.852722,1928.720459L951.038574,1922.946289L946.719421,1918.191406L941.241455,1914.836914L890.397156,1895.209595L886.111877,1893.891968L881.643066,1893.533936L877.202759,1894.152588L873.001953,1895.718628L869.240112,1898.157471L866.096069,1901.353516L845.518188,1929.519775L842.751587,1934.306030L841.456726,1939.680786L785.595947,2648.122803L767.283691,2668.388428L568.989258,2611.468750L500.578674,2019.606689L499.638580,2015.577637L497.930511,2011.809570L495.519867,2008.446899L492.499847,2005.619385L488.986115,2003.435181L485.113800,2001.978516L481.031555,2001.305176L476.896667,2001.441406L472.867584,2002.381592L469.099396,2004.089722L465.736816,2006.500122L462.909119,2009.520264L460.725098,2013.034058L459.268341,2016.906372L458.595184,2020.988525L458.731262,2025.123535L547.047913,2622.103516L547.712341,2624.725342L548.967407,2627.121338L550.744263,2629.160645L552.946045,2630.731689L555.452209,2631.748535L767.826233,2687.747803L770.335144,2688.079102L772.840088,2687.718750L775.154053,2686.693848L777.104126,2685.080811L801.717224,2658.586670L803.398499,2656.021240L804.172302,2653.053223L879.320740,1948.922852L888.603149,1939.244873L913.792969,1952.439453L1025.336426,2247.512207L954.452026,2317.983643L925.100403,2363.966064L874.581360,2581.894043L874.231812,2585.699951L874.765686,2589.484375L876.154541,2593.044922L878.323853,2596.191406L881.158081,2598.755615L910.209473,2619.629639L914.892700,2621.960693L920.067993,2622.723877L1138.686646,2618.590576L1142.084717,2618.160889L1145.296875,2616.970703L1148.154785,2615.082520L1150.509155,2612.594727L1152.237427,2609.637695L1303.521851,2256.307617L1316.692261,2145.580566L1313.380615,2090.505859L1312.837769,2088.250732z" fill="#000000" stroke="none" fill-opacity="1" />
				<polyline points="1081.270142,912.402344 972.609985,1217.394287 972.705322,1280.026367 997.570007,1407.108643 1253.128418,1927.748901 892.879272,2073.222656 504.722443,2077.535156 454.239624,2061.570557 406.452728,1676.663330 512.104797,1302.791260 521.005798,1239.091187 534.180298,915.597168" fill="#650F0A" stroke="none" fill-opacity="1" />
				<path d="M1105.314575,920.968750L1106.523804,916.113281L1106.762451,911.115356L1106.021484,906.166870L1104.329346,901.457764L1101.751099,897.169434L1098.385742,893.466553L1094.362671,890.491211L1089.836548,888.358154L1084.981201,887.148926L1079.983154,886.910278L1075.034546,887.651123L1070.325684,889.343262L1066.037354,891.921509L1062.334351,895.286865L1059.359131,899.309814L1057.225952,903.836060L966.468506,1215.206177L967.555176,1280.034180L992.508423,1408.098999L1230.110718,1918.944092L891.738525,2067.519775L506.797852,2063.574707L468.216583,2049.940186L429.094513,1678.386230L518.133545,1304.494995L526.106384,1239.803955L539.326233,915.806763L539.268311,914.798828L539.014709,913.821411L538.575256,912.912476L537.967224,912.106689L537.213440,911.435059L536.343079,910.923096L535.389709,910.591064L534.389954,910.451294L533.381958,910.509277L532.404724,910.762817L531.495667,911.202026L530.689758,911.810181L530.018250,912.563965L529.506348,913.434326L529.174255,914.387817L529.034363,915.387695L515.870178,1238.628906L505.959198,1301.500000L385.034576,1670.610840L384.365265,1679.405640L439.052856,2063.456055L439.872925,2066.842773L441.438293,2069.956055L443.667145,2072.634766L446.444214,2074.739746L449.625336,2076.161865L500.520325,2090.822998L892.942810,2078.937500L895.019348,2078.521973L1259.412720,1943.310913L1262.860229,1941.422241L1265.773682,1938.783691L1267.993652,1935.539551L1269.398071,1931.868042L1269.909912,1927.970581L1269.501221,1924.061035L1268.194458,1920.353760L1002.500732,1405.448608L977.854858,1279.523315L979.131165,1218.515991z" fill="#000000" stroke="none" fill-opacity="1" />
			</g>
			<!--Layer: head-->
			<g id="head">
				<polyline points="801.603821,528.341431 816.015991,703.688232 717.533325,696.482300 681.502991,506.723389" fill="#E99E4C" stroke="none" fill-opacity="1" />
				<path d="M806.736633,527.919556L806.555786,526.926392L806.184570,525.987549L805.637268,525.138916L804.934937,524.413696L804.104797,523.839111L803.178223,523.437866L802.191467,523.224976L801.182007,523.208618L800.188721,523.389526L799.249817,523.760620L798.401367,524.308105L797.675964,525.010254L797.101624,525.840698L796.700195,526.766968L796.487366,527.753906L796.471008,528.763306L810.390137,698.112671L721.854919,691.634521L686.562866,505.762695L686.278137,504.794067L685.810181,503.899536L685.176392,503.113647L684.401672,502.466309L683.515381,501.982666L682.551697,501.681152L681.547974,501.573364L680.542358,501.663452L679.573608,501.948120L678.679138,502.416504L677.893127,503.050049L677.245972,503.824951L676.762207,504.711182L676.460876,505.674683L676.353088,506.678711L676.443237,507.684204L712.473450,697.442993L712.801636,698.516235L713.354553,699.493042L714.106079,700.326660L715.020020,700.977783L716.053589,701.415527L717.157349,701.618774L815.640076,708.824707L816.748291,708.786133L817.822632,708.511230L818.813232,708.012695L819.674011,707.313721L820.365234,706.446655L820.854980,705.451660L821.120178,704.375000L821.148804,703.266479z" fill="#000000" stroke="none" fill-opacity="1" />
				<polyline points="810.461243,204.531250 949.799377,309.289795 1080.244385,482.703247 987.239258,548.825806 873.066101,648.174561 626.289856,468.197998 719.470642,322.482422 810.400635,206.236328" fill="#E99E4C" stroke="none" fill-opacity="1" />
				<path d="M815.548828,197.764404L814.130920,196.901611L812.571899,196.332275L810.931885,196.078125L809.273682,196.148682L807.661072,196.541504L806.156189,197.241211L804.816650,198.221436L803.694092,199.443604L802.831726,200.861816L802.262268,202.420654L802.007935,204.060791L802.078613,205.718750L802.471375,207.331543L803.171204,208.836426L804.151245,210.176025L805.373535,211.298584L946.121765,312.968506L1062.818848,479.999878L983.398926,543.424316L872.783142,641.593872L643.872559,464.891846L723.677856,325.462891L817.069092,211.452637L817.958679,210.051270L818.557800,208.503662L818.843323,206.868896L818.804504,205.209473L818.442688,203.589600L817.771667,202.071777L816.817688,200.713379L815.617004,199.567627L814.215820,198.678223L812.667908,198.079102L811.033081,197.793457L809.373779,197.832520L807.754089,198.194336L806.236023,198.865234L804.877930,199.819336L803.732178,201.020020L715.414124,319.309082L615.310669,461.177246L614.062622,463.689331L613.380981,466.410156L613.297546,469.213989L613.815796,471.970703L614.912170,474.552612L616.535583,476.839966L618.610718,478.727295L870.031372,652.335693L871.033264,652.906738L872.137146,653.240234L873.287476,653.320068L874.426636,653.141846L875.497742,652.714722L876.446838,652.059692L991.344604,554.039185L1087.371704,492.728149L1089.455322,490.855591L1091.060913,488.560059L1092.105591,485.960938L1092.535156,483.192505L1092.327026,480.399170L1091.492432,477.724976L1090.074341,475.309082L953.915222,306.194092z" fill="#000000" stroke="none" fill-opacity="1" />
				<polyline points="721.226868,315.092285 653.655090,287.324707 635.348450,108.090576 521.812073,214.616943 483.237061,350.666748 625.157471,460.537964" fill="#050510" stroke="none" fill-opacity="1" />
				<path d="M719.269226,319.855957L720.236145,320.146240L721.241333,320.242432L722.245605,320.140625L723.211060,319.844971L724.100098,319.366455L724.878662,318.723633L725.516907,317.941406L725.990479,317.049805L726.280762,316.082764L726.377075,315.077637L726.275208,314.073486L725.979370,313.108154L725.500854,312.218994L724.858337,311.440186L724.075928,310.802002L723.184265,310.328613L658.465210,283.733398L640.471802,107.567139L640.262695,106.549316L639.853577,105.594482L639.261047,104.741211L638.509399,104.024170L637.628967,103.472412L636.656006,103.108643L635.629700,102.947998L634.591980,102.995850L633.584961,103.251221L632.649719,103.703613L631.824341,104.334473L518.288025,210.860840L516.857239,213.211670L471.813843,347.428223L471.372375,350.208496L471.597961,353.014404L472.477844,355.688477L473.962463,358.080566L475.968628,360.055664L614.304504,474.556641L617.247986,476.404663L620.495422,477.642822L623.922058,478.223633L627.396118,478.124878L630.784119,477.350220L633.955994,475.929321L636.789673,473.917236L639.176331,471.390991L641.024292,468.447510L642.262390,465.200073L642.843323,461.773438L642.744568,458.299438L641.969849,454.911377L640.549133,451.739746L638.536987,448.906006L636.010559,446.519287L496.848114,346.188721L526.377319,217.395264L631.282471,118.967285L648.531555,287.848145L648.856445,289.194580L649.528259,290.406006L650.498718,291.394287L651.697571,292.088379z" fill="#000000" stroke="none" fill-opacity="1" />
				<polyline points="921.439697,285.937256 950.979797,236.102295 894.631592,76.047607 1014.120300,130.097900 1086.142578,246.700195 1025.630249,407.618652" fill="#050510" stroke="none" fill-opacity="1" />
				<path d="M918.236572,284.038574L917.927551,284.700195L917.753723,285.408936L917.721497,286.138184L917.832092,286.859863L918.081299,287.545898L918.459778,288.170166L918.952576,288.708740L919.541077,289.140625L920.202454,289.449463L920.911377,289.623535L921.640625,289.655762L922.362183,289.544922L923.048218,289.295898L923.672546,288.917480L924.211060,288.424561L924.643005,287.836182L954.183105,238.001221L954.593262,237.001709L954.699341,235.926270L954.492188,234.865967L901.038696,83.032715L1011.549744,133.021973L1076.753906,247.612061L1018.049500,404.768066L1017.638977,406.301758L1017.535645,407.885986L1017.743469,409.459961L1018.254028,410.963135L1019.048340,412.338135L1020.095459,413.531494L1021.355591,414.497803L1022.779602,415.199707L1024.313354,415.609863L1025.897583,415.713379L1027.471680,415.505859L1028.974976,414.994873L1030.349731,414.200684L1031.543213,413.153320L1032.509277,411.893555L1033.211182,410.469482L1094.067749,249.680420L1094.596558,247.168701L1094.348511,244.614014L1093.346191,242.250732L1017.288452,128.140869L1016.578979,127.301025L1015.655029,126.704834L896.166504,72.654785L895.417480,72.407715L894.633179,72.323975L893.848938,72.407227L893.099670,72.653564L892.419373,73.052246L891.838135,73.585449L891.382202,74.229004L891.072144,74.954102L890.921631,75.728516L890.937561,76.516846L891.119202,77.284180L946.890015,235.699219z" fill="#000000" stroke="none" fill-opacity="1" />
				<path d="M942.394653,557.427856L943.198547,558.038696L944.106018,558.480835L945.082581,558.737793L946.090210,558.798950L947.090637,558.662598L948.045166,558.333496L948.917114,557.824707L949.673035,557.155396L950.283997,556.351562L950.726257,555.443970L950.982971,554.467529L951.044250,553.459717L950.907776,552.459351L950.578796,551.504883L950.069824,550.632812L949.400635,549.877075L934.181641,527.307251L932.242188,525.859985L930.039734,524.856934L927.674805,524.343872L925.254883,524.343994L922.889954,524.857544L920.687805,525.861084L918.748718,527.308838L894.891296,558.893555L894.316284,559.543091L893.879272,560.292358L893.596802,561.112549L893.479736,561.971924L893.532532,562.837769L893.753174,563.676514L894.133362,564.456177L894.658386,565.146851L895.307922,565.721680L896.057190,566.158813L896.877319,566.441406L897.736755,566.558350L898.602600,566.505493L899.441528,566.284668L900.221008,565.904541L900.911682,565.379761L926.467346,551.098877z" fill="#000000" stroke="none" fill-opacity="1" />
			</g>
			<!--Layer: bottomarms-->
			<g id="bottomarms">
				<polygon points="798.625854,1405.847534 771.843994,1493.779663 763.441101,1576.802368 914.551270,1591.942871 1037.528198,1585.813599 1082.095947,1381.216675" fill="#F4FE77" stroke="none" fill-opacity="1" />
				<path d="M803.558167,1407.928833L803.869385,1406.926636L803.979187,1405.882935L803.883179,1404.837891L803.585205,1403.831665L803.096558,1402.902832L802.436279,1402.087280L801.629456,1401.416138L800.707214,1400.915283L799.704956,1400.604004L798.661438,1400.494263L797.616150,1400.590210L796.609985,1400.888184L795.681335,1401.376831L794.865601,1402.037231L794.194458,1402.843994L793.693726,1403.766235L768.483215,1492.361450L761.522339,1576.364990L761.473389,1576.827271L761.534119,1577.288208L761.701233,1577.721924L761.965515,1578.104492L762.312134,1578.414307L762.721680,1578.634155L763.171509,1578.751709L914.278198,1593.917480L1037.573730,1587.831543L1038.077148,1587.755859L1038.545898,1587.556763L1038.949585,1587.246826L1039.263062,1586.845459L1039.465942,1586.378418L1088.854126,1383.186646L1089.119019,1381.696899L1089.059326,1380.184937L1088.678101,1378.720581L1087.992432,1377.371582L1087.034546,1376.200195L1085.848389,1375.260620L1084.488770,1374.596313L1083.018677,1374.237915L1081.506104,1374.201904L798.177246,1400.512939L797.145081,1400.703003L796.169983,1401.090698L795.289185,1401.661255L794.536438,1402.392578L793.941040,1403.256836L793.525696,1404.220581L793.306213,1405.246826L793.291382,1406.296143L793.481384,1407.328369L793.869019,1408.303589L794.439636,1409.184326L795.171021,1409.937012L796.035278,1410.532349L796.998962,1410.947754L798.025269,1411.167236L799.074646,1411.182129L1072.467896,1389.090820L1036.004150,1583.829102L914.666077,1589.946289L765.836914,1575.146973L775.329529,1494.902832z" fill="#FEFEFE" stroke="none" fill-opacity="1" />
				<polyline points="805.072998,1450.470825 790.188171,1528.229004 788.334900,1603.697876 920.342896,1615.007935 1029.206177,1609.534668 1072.039062,1428.481567" fill="#DCD737" stroke="none" fill-opacity="1" />
				<polyline points="1005.576538,928.969849 1003.124023,945.300903 1019.543823,966.172485 1000.001343,932.539795 991.533936,983.014771 1024.406982,937.335938 1033.423462,968.256958 1056.851318,963.768799 1071.877319,988.460693 1183.111206,1263.473022 1249.542358,1383.917725 1241.522949,1452.225952 1109.743896,1581.778809 975.051270,1658.351807 958.384399,1641.407715 999.371399,1614.591309 971.606506,1609.749146 959.618896,1583.651367 1014.478210,1581.018921 955.353271,1578.120850 951.764221,1549.213379 1015.601501,1538.792480 936.095764,1541.646973 931.814880,1518.402344 1051.013794,1486.125854 1066.638428,1470.058960 1068.630249,1431.889404 1104.775391,1451.139282 1119.723755,1504.668213 1107.216309,1450.706665 1111.776611,1437.042236 999.603516,1255.040283 933.733521,1131.021362" fill="#E99E4C" stroke="none" fill-opacity="1" />
				<path d="M1018.115417,930.852905L1018.241943,928.370483L1017.881653,925.911133L1017.048401,923.569214L1015.774414,921.434937L1014.108521,919.590210L1012.114685,918.105957L1009.869629,917.039185L1007.459656,916.430786L1004.977295,916.304443L1002.517822,916.664795L1000.176147,917.497803L998.041870,918.771851L996.197205,920.437744L994.712830,922.431519L993.645996,924.676514L993.037659,927.086548L990.720642,943.438232L990.676086,946.837402L991.545898,950.123779L993.266418,953.056030L1009.793945,973.842773L1011.513000,975.627563L1013.552612,977.035156L1015.831055,978.009277L1018.257751,978.510986L1020.735901,978.520386L1023.166260,978.037109L1025.452271,977.080444L1027.502319,975.688354L1029.234985,973.916626L1030.580811,971.835938L1031.486206,969.529175L1031.915039,967.088501L1031.850342,964.611328L1031.294434,962.196411L1030.269897,959.940186L1010.608826,926.376099L1009.139587,924.354248L1007.290955,922.671997L1005.139832,921.399414L1002.775330,920.589233L1000.295715,920.275024L997.803955,920.469849L995.403259,921.165649L993.193481,922.333496L991.266357,923.925049L989.701660,925.874268L988.564453,928.099976L987.901917,930.510010L979.840210,981.053101L979.686523,983.491821L980.035828,985.910522L980.873657,988.206177L982.164307,990.281250L983.852844,992.047607L985.867676,993.430298L988.123169,994.370605L990.523560,994.828735L992.966858,994.784912L995.349243,994.241211L997.569763,993.220581L999.533752,991.766602L1001.157837,989.940796L1020.707336,958.883667L1024.950317,970.727783L1025.807373,972.717163L1027.123047,974.437988L1028.818481,975.786499L1030.791138,976.681274L1032.922363,977.068604L1035.083984,976.925415L1052.869995,972.746216L1065.323364,991.752808L1173.428223,1267.389282L1237.162842,1386.344604L1232.648682,1447.880127L1106.842651,1577.937744L976.696472,1646.536499L972.616211,1642.938232L1002.434265,1619.272461L1003.371338,1618.502441L1004.120178,1617.548340L1004.645996,1616.455444L1004.923706,1615.274902L1004.940552,1614.062012L1004.695618,1612.874268L1004.200439,1611.767090L1003.478210,1610.792725L1002.562927,1609.996948L1001.497742,1609.416992L1000.332581,1609.080322L976.528992,1603.359619L969.635193,1589.739258L1014.597351,1583.499023L1015.094604,1583.424072L1015.567017,1583.250366L1015.994263,1582.985107L1016.359497,1582.639160L1016.647522,1582.226562L1016.846436,1581.764526L1016.948181,1581.271851L1016.948425,1580.768799L1016.847229,1580.276001L1016.648865,1579.813721L1016.361206,1579.400879L1015.996399,1579.054443L1015.569275,1578.788696L1015.097290,1578.614624L1014.599854,1578.539185L961.082947,1571.947510L958.089355,1553.949707L1015.992920,1541.189453L1016.463745,1541.062988L1016.899780,1540.845215L1017.283386,1540.544434L1017.599426,1540.173340L1017.834961,1539.746582L1017.980591,1539.281250L1018.030151,1538.796387L1017.982178,1538.311279L1017.838135,1537.845703L1017.603943,1537.418091L1017.289368,1537.045898L1016.906372,1536.744019L1016.471130,1536.524658L1016.000916,1536.396729L1015.514343,1536.365234L940.712585,1535.895508L937.840942,1522.197998L1052.103638,1490.150269L1054.002808,1489.032593L1070.350708,1473.669067L1071.383789,1472.131592L1071.809448,1470.328857L1073.941284,1441.281494L1099.193604,1455.624146L1113.689575,1506.353271L1114.162964,1507.554443L1114.872925,1508.633057L1115.788574,1509.543335L1116.871704,1510.246460L1118.075806,1510.712646L1119.349976,1510.922119L1120.640015,1510.865845L1121.891113,1510.546387L1123.050171,1509.977051L1124.067871,1509.182373L1124.900879,1508.195923L1125.514160,1507.059570L1125.881470,1505.821777L1125.987305,1504.534790L1125.826904,1503.253540L1113.977539,1451.025879L1117.904297,1439.087280L1118.233398,1437.240112L1118.018066,1435.376099L1117.275879,1433.652832L1006.680542,1250.985352L944.218994,1125.452271L942.931091,1123.513550L941.289612,1121.863525L939.357788,1120.565430L937.210022,1119.669067L934.928406,1119.208984L932.600891,1119.202881L930.317017,1119.650879L928.164307,1120.535889L926.225769,1121.823853L924.575500,1123.465332L923.277466,1125.397095L922.380981,1127.545166L921.920959,1129.826660L921.914856,1132.154053L922.362976,1134.437988L923.248047,1136.590698L992.403625,1258.864258L1104.693115,1437.861206L1101.036499,1448.644287L1100.869629,1452.177734L1118.173462,1498.598145L1111.115112,1449.368774L1110.414062,1447.743652L1109.305542,1446.363892L1107.869385,1445.329468L1071.353394,1426.776001L1070.154419,1426.300171L1068.880005,1426.101440L1067.593140,1426.189697L1066.357788,1426.560425L1065.234863,1427.195312L1064.280518,1428.062866L1063.541504,1429.120239L1063.055054,1430.314819L1062.844849,1431.587402L1061.569092,1467.844849L1048.821411,1482.400146L930.445801,1513.345459L929.409241,1513.748291L928.481262,1514.360840L927.703613,1515.155396L927.110779,1516.096191L926.730225,1517.140869L926.578491,1518.242432L926.662598,1519.351074L930.605957,1542.657959L930.997742,1543.920898L931.675659,1545.056152L932.601379,1546.000122L933.723328,1546.699951L934.978394,1547.116089L936.296021,1547.225586L977.190979,1542.601807L950.846924,1543.594360L949.648499,1543.927612L948.550964,1544.513428L947.606873,1545.323364L946.861206,1546.319092L946.349731,1547.453125L946.096680,1548.670898L946.114075,1549.914795L948.955872,1578.915283L949.312195,1580.371338L949.995300,1581.705688L950.968018,1582.846069L952.177673,1583.731201L953.559265,1584.312988L955.037781,1584.559814L963.227295,1580.992676L959.304321,1577.098145L957.900513,1577.319580L956.577271,1577.838135L955.396729,1578.629517L954.414368,1579.656738L953.676208,1580.871094L953.216858,1582.216064L953.057983,1583.628418L953.207031,1585.041870L953.656738,1586.390015L965.118103,1612.729492L966.020935,1614.197021L967.248962,1615.405396L968.730652,1616.284546L970.379822,1616.783203L984.451477,1617.667847L953.417114,1633.815674L951.873352,1635.089600L950.646301,1636.671021L949.796082,1638.483154L949.363770,1640.437500L949.370667,1642.439087L949.816101,1644.390503L950.678650,1646.196777L951.916443,1647.769897L968.308289,1664.984375L969.905762,1666.288086L971.747742,1667.214600L973.746765,1667.719727L975.807861,1667.779785L977.832886,1667.391846L979.725769,1666.574219L1112.102783,1585.928223L1248.057007,1458.872314L1249.893555,1456.325073L1250.779663,1453.312622L1261.472534,1385.318359L1261.330078,1381.606934L1260.060425,1378.116333L1192.559082,1258.976440L1078.654175,985.719604L1063.743652,959.574585L1062.533691,958.041138L1060.990845,956.843628L1059.205322,956.051758L1057.281982,955.712158L1055.333252,955.844849L1039.648682,958.078125L1033.607422,934.653198L1032.877319,932.852539L1031.798950,931.236206L1030.416504,929.870605L1028.787231,928.811768L1026.977905,928.103638L1025.062866,927.774780L1023.120911,927.839111L1021.231873,928.293701L1019.473267,929.119873L1017.917419,930.284058L1016.628418,931.738037L996.096680,972.070801L1006.475403,968.101074L1012.575256,955.909424L1016.332031,941.804932z" fill="#000000" stroke="none" fill-opacity="1" />
				<polyline points="682.325623,954.053711 703.515259,1103.020874 652.492310,1244.490479 594.098694,1377.985107 517.802124,1372.476196 593.158203,1378.346069 711.680542,1511.421875 778.275940,1451.927856 801.976868,1463.528442 798.766174,1492.225098 814.262207,1506.960571 930.490356,1511.967163 936.294006,1535.500732 918.008850,1551.488037 836.296509,1564.630249 912.555908,1554.862915 903.653076,1585.548584 833.070923,1595.241943 897.040955,1592.726318 873.668579,1621.451782 823.451904,1623.426880 854.918213,1627.732910 818.843201,1640.751465 719.914001,1620.747070 672.537231,1602.354736 522.693970,1525.128906 424.903107,1485.253296 445.271912,1343.949951 491.326477,1195.391846 558.492615,895.858643" fill="#E99E4C" stroke="none" fill-opacity="1" />
				<path d="M691.638672,952.729126L691.201294,950.937622L690.422852,949.265991L689.333313,947.778198L687.974304,946.531738L686.398315,945.574219L684.665588,944.942749L682.843201,944.661255L681.001038,944.740723L679.209595,945.178101L677.537842,945.956665L676.050171,947.046143L674.803650,948.405273L673.846130,949.981201L673.214661,951.713745L672.933228,953.536133L673.012573,955.378418L693.163330,1101.957031L644.493042,1241.302612L589.595947,1370.527710L517.894714,1371.195312L517.626831,1371.203979L517.366516,1371.268066L517.125244,1371.384766L516.913452,1371.549072L516.740417,1371.753662L516.613647,1371.989746L516.538452,1372.246948L516.518433,1372.514160L516.554382,1372.779785L516.644531,1373.032227L516.785095,1373.260254L516.970093,1373.454346L517.191040,1373.605713L517.439026,1373.708008L517.702393,1373.756470L589.813171,1385.090088L707.170105,1515.439087L708.178223,1516.342773L709.362305,1516.999268L710.662598,1517.375488L712.014221,1517.452637L713.349121,1517.226807L714.600037,1516.709229L715.704468,1515.926147L779.190552,1458.563232L800.827942,1464.159180L794.046570,1491.697021L794.107971,1493.149414L794.605957,1494.515381L795.493530,1495.666504L811.421387,1509.947998L812.650574,1510.754883L814.084778,1511.079224L926.378235,1516.989990L930.215027,1533.585083L915.450378,1546.038574L836.009766,1562.847778L835.649048,1562.945068L835.316101,1563.114258L835.024963,1563.348633L834.788513,1563.637695L834.616516,1563.969238L834.516418,1564.329224L834.492676,1564.702026L834.545959,1565.071777L834.674377,1565.422607L834.872192,1565.739502L835.131104,1566.008911L835.439819,1566.219238L835.785156,1566.361572L836.152466,1566.429688L836.525879,1566.420898L904.347412,1561.888550L898.323975,1579.379395L832.733032,1592.781494L832.244080,1592.900146L831.788940,1593.114990L831.386597,1593.416992L831.053223,1593.793945L830.802856,1594.230469L830.645569,1594.708374L830.587708,1595.208252L830.632019,1595.709473L830.776306,1596.191406L831.014771,1596.634521L831.337646,1597.020508L831.731689,1597.333374L832.180664,1597.560303L832.666321,1597.692139L833.168640,1597.723511L881.999878,1600.244873L869.962585,1614.037842L823.249146,1618.271240L822.240112,1618.411377L821.278259,1618.747314L820.401428,1619.265503L819.643250,1619.946045L819.033630,1620.762085L818.596008,1621.682129L818.347900,1622.670044L818.298706,1623.687622L818.450256,1624.695068L818.796936,1625.652832L819.325012,1626.524170L820.013916,1627.274536L820.836914,1627.875000L821.761780,1628.302002L822.752380,1628.539062L825.604004,1630.827148L818.277771,1633.061523L722.032227,1613.514404L675.424011,1595.943848L528.206177,1514.433716L440.913025,1476.081909L455.593353,1346.278564L499.969574,1198.071289L564.396179,897.182617L564.541016,896.005249L564.453308,894.822510L564.136780,893.679565L563.603027,892.620361L562.873108,891.685547L561.974670,890.911011L560.942810,890.326660L559.816223,889.955078L558.639160,889.810181L557.456238,889.897949L556.313354,890.214478L555.254089,890.748169L554.319397,891.478149L553.544922,892.376343L552.960632,893.408691L552.588806,894.534912L482.576111,1193.058472L435.196991,1340.826660L410.514404,1483.179199L410.409912,1486.385498L411.011047,1489.536865L412.288910,1492.479492L414.180908,1495.070312L416.595398,1497.182861L419.413971,1498.714600L517.656494,1536.068604L669.320862,1608.595703L717.196228,1627.747314L817.371582,1648.029297L821.363647,1647.735596L857.307922,1634.355103L858.603271,1633.731689L859.744934,1632.857910L860.685425,1631.770752L861.385376,1630.514893L861.815613,1629.143311L861.958252,1627.712646L861.807373,1626.283081L861.369202,1624.913818L860.662109,1623.662109L859.715393,1622.580322L858.568665,1621.713379L857.269714,1621.097290L855.872803,1620.757812L828.605713,1623.676270L873.965637,1628.999756L876.060303,1628.617065L877.964844,1627.665039L879.528137,1626.219238L902.410095,1597.094727L903.197937,1595.889038L903.719116,1594.546387L903.951294,1593.124756L903.884216,1591.686035L903.520691,1590.292236L902.876709,1589.003906L901.979980,1587.876831L900.869507,1586.959717L899.593201,1586.291992L898.206238,1585.903320L896.768921,1585.809814L884.007019,1590.753418L904.583313,1592.322266L906.105591,1591.930786L907.498047,1591.202148L908.687439,1590.174805L909.610840,1588.902832L910.219421,1587.453857L918.247192,1556.514038L918.470520,1555.231934L918.408325,1553.932007L918.064026,1552.676880L917.454041,1551.527344L916.607666,1550.538574L915.565979,1549.758423L914.379089,1549.224365L913.104431,1548.962402L911.803223,1548.985107L838.083313,1564.372192L918.927734,1557.201172L920.468201,1556.726074L921.817688,1555.844482L939.877136,1539.598633L940.850891,1538.478516L941.485840,1537.136719L941.734802,1535.673462L941.579224,1534.197266L935.534424,1510.723145L935.052002,1509.481201L934.269531,1508.402588L933.238586,1507.558594L932.026794,1507.004517L930.713928,1506.776855L815.983276,1502.908569L803.748047,1490.408936L803.042053,1463.647583L803.039001,1463.385254L802.972290,1463.131470L802.846191,1462.901489L802.667786,1462.709106L802.448059,1462.565796L780.719177,1446.936035L779.479675,1446.502075L778.172729,1446.371094L776.871826,1446.550415L775.649109,1447.030029L774.573059,1447.783203L712.167786,1502.887451L598.373230,1373.701416L597.032104,1372.535645L595.440369,1371.745972L593.700623,1371.383667L519.082886,1372.572266L593.586304,1385.080444L595.330444,1384.991455L597.000305,1384.480225L598.495239,1383.577637L599.725220,1382.338013L600.616150,1380.836060L660.377136,1247.939575L713.015198,1106.447266L713.513550,1101.598877z" fill="#000000" stroke="none" fill-opacity="1" />
				<polyline points="1107.216309,1450.706665 1136.224487,1393.207275 1189.201782,1390.472778" fill="#E99E4C" stroke="none" fill-opacity="1" />
				<path d="M1101.399658,1447.772339L1100.938965,1448.963379L1100.719482,1450.221558L1100.749756,1451.498291L1101.028320,1452.744629L1101.544922,1453.912598L1102.279297,1454.957397L1103.203369,1455.838867L1104.281738,1456.523071L1105.472900,1456.983887L1106.731079,1457.203247L1108.007812,1457.173096L1109.254150,1456.894409L1110.421997,1456.377930L1111.466919,1455.643555L1112.348389,1454.719360L1113.032593,1453.641113L1139.889771,1398.831543L1189.325684,1392.871582L1189.791382,1392.801270L1190.234375,1392.641602L1190.637451,1392.398560L1190.985474,1392.081543L1191.265259,1391.702515L1191.465576,1391.276367L1191.578735,1390.819336L1191.600586,1390.348999L1191.530518,1389.883423L1191.370605,1389.440552L1191.127686,1389.037231L1190.810669,1388.689087L1190.431641,1388.409546L1190.005737,1388.209229L1189.548462,1388.096069L1189.078247,1388.074097L1135.925415,1387.409302L1134.428223,1387.686523L1133.054810,1388.343262L1131.899170,1389.334595L1131.040894,1390.592285z" fill="#000000" stroke="none" fill-opacity="1" />
			</g>
			<!--Layer: toparms-->
			<g id="toparms">
				<polyline points="1222.830200,597.995728 1228.792603,567.577026 1245.637451,552.691650 1265.441162,573.853760 1280.211060,619.825806" fill="#E99E4C" stroke="none" fill-opacity="1" />
				<path d="M1216.136475,596.683594L1216.009155,598.014771L1216.143921,599.344971L1216.535645,600.623535L1217.169189,601.801270L1218.020386,602.832397L1219.056274,603.678101L1220.237671,604.304932L1221.518188,604.689575L1222.849365,604.817017L1224.179688,604.682129L1225.458374,604.290283L1226.635986,603.656860L1227.667236,602.805542L1228.512695,601.769653L1229.139771,600.588379L1229.524292,599.307617L1236.313354,571.886230L1245.048096,565.114990L1257.351929,578.610229L1274.274780,621.733032L1274.760986,622.854492L1275.456665,623.859619L1276.334839,624.709717L1277.362061,625.372070L1278.498779,625.821289L1279.701538,626.040161L1280.923706,626.020264L1282.118286,625.762085L1283.239990,625.276001L1284.245239,624.580322L1285.095215,623.702026L1285.757568,622.674805L1286.206787,621.537964L1286.425659,620.335449L1286.405762,619.113281L1286.147705,617.918457L1274.158325,571.053101L1272.126465,567.597534L1252.149780,546.597290L1250.660522,545.321411L1248.928345,544.401733L1247.036987,543.882935L1245.078003,543.790039L1243.146362,544.127441L1241.334839,544.878906L1239.731323,546.008057L1223.356689,561.425537L1221.669922,563.495850L1220.736816,565.997925z" fill="#000000" stroke="none" fill-opacity="1" />
				<polyline points="1235.389038,988.308960 1231.445312,831.609863 1207.047607,794.684326 1207.592163,740.296265 1172.477173,742.280762 1199.726074,767.410889 1178.356934,780.812378 1131.553345,755.018311 1136.492920,672.091675 1150.303101,641.437866 1225.255005,630.604126 1178.224365,583.712769 1099.435913,585.224731 1085.801514,551.275391 1198.327515,542.914307 1292.517334,624.925171 1315.889771,760.547607 1397.650513,1047.370117 1373.806030,1104.949585 1262.796753,1057.243530 1028.487305,887.202026 1120.430786,772.785889 1230.422363,852.120972" fill="#E99E4C" stroke="none" fill-opacity="1" />
				<path d="M1231.952759,988.395264L1232.035767,989.064087L1232.247437,989.703857L1232.579956,990.289917L1233.020264,990.799927L1233.551758,991.214111L1234.153809,991.516846L1234.803345,991.696167L1235.475708,991.745239L1236.144409,991.662231L1236.784058,991.450562L1237.370239,991.118042L1237.880005,990.677612L1238.294312,990.145996L1238.596924,989.544067L1238.776245,988.894531L1238.825562,988.222412L1237.478516,831.458008L1237.202881,829.800293L1236.480713,828.282837L1212.711304,793.013062L1210.843506,740.328979L1210.762451,739.574463L1210.508789,738.859375L1210.096436,738.222534L1209.547363,737.698608L1208.892334,737.316162L1208.166138,737.095947L1207.408813,737.050049L1172.178467,736.994385L1171.068726,737.176514L1170.022949,737.589111L1169.087769,738.213013L1168.305054,739.020386L1167.710693,739.974731L1167.331177,741.033081L1167.183960,742.147705L1167.275269,743.268433L1167.600952,744.344482L1168.146484,745.327515L1168.887573,746.173340L1190.983643,766.600586L1178.173096,774.296875L1137.910889,751.513916L1141.935181,673.431519L1154.092163,646.468506L1226.046143,636.077026L1227.228516,635.769653L1228.314819,635.210205L1229.251709,634.425781L1229.993286,633.454712L1230.503540,632.344482L1230.757568,631.149414L1230.743042,629.927612L1230.460571,628.738892L1229.923706,627.641357L1229.159058,626.688232L1182.134888,579.790649L1180.958252,578.895996L1179.586792,578.344360L1178.118286,578.175293L1103.156860,579.605347L1093.689453,556.191772L1195.991699,549.936768L1286.278931,628.435303L1307.447266,762.002563L1381.642456,1046.449219L1366.857056,1087.857788L1266.073730,1051.478027L1043.480591,885.195435L1121.659546,781.865479L1226.915527,856.983276L1227.931396,857.573975L1229.043213,857.955200L1230.207764,858.112183L1231.380615,858.038940L1232.516846,857.738281L1233.572510,857.221680L1234.507080,856.509277L1235.284546,855.628052L1235.875488,854.612061L1236.256592,853.500366L1236.413574,852.335693L1236.340332,851.162720L1236.039673,850.026611L1235.523193,848.971069L1234.810547,848.036499L1233.929443,847.258911L1124.318237,767.396362L1123.066895,766.685913L1121.691895,766.261475L1120.257812,766.143066L1118.832031,766.335938L1117.481201,766.831421L1116.268555,767.605835L1115.250854,768.623291L1020.356873,880.668579L1019.075012,882.707520L1018.295105,884.986084L1018.058533,887.382812L1018.378113,889.770020L1019.236572,892.020264L1020.588257,894.013672L1022.361206,895.643677L1258.925781,1062.577637L1368.688965,1116.856323L1371.490845,1117.700928L1374.411011,1117.895142L1377.300171,1117.429443L1380.010986,1116.327148L1382.405762,1114.644897L1384.361816,1112.468262L1385.779419,1109.908081L1411.640503,1053.163452L1412.767700,1048.239502L1412.212524,1043.218994L1324.253906,758.640503L1299.163208,623.779663L1298.394775,621.617920L1296.945801,619.838989L1202.812500,537.763062L1201.316040,536.772705L1199.613037,536.206177L1197.821411,536.102905L1085.394897,545.803223L1084.269897,546.006104L1083.211304,546.437866L1082.265015,547.079712L1081.472534,547.903564L1080.867676,548.873779L1080.477051,549.948364L1080.317627,551.080444L1080.396240,552.220825L1080.709473,553.320312L1094.288330,587.292236L1094.932495,588.463745L1095.838257,589.447388L1096.953003,590.185425L1098.212158,590.635376L1099.542480,590.770996L1175.979126,589.295166L1213.520508,626.713013L1149.513550,635.973633L1148.181030,636.341064L1146.981689,637.027710L1145.990479,637.990845L1145.269287,639.170044L1131.466919,669.827393L1125.426392,754.653442L1125.499878,756.031494L1125.879150,757.358398L1126.545288,758.567017L1127.464844,759.596069L1128.590820,760.393799L1175.645508,785.732178L1177.033936,786.271851L1178.515503,786.427612L1179.985718,786.188599L1181.341553,785.571289L1202.558716,771.927490L1203.512207,771.164429L1204.266968,770.204468L1204.783691,769.097900L1205.034790,767.902832L1205.007446,766.682007L1204.703003,765.499390L1204.137573,764.417114L1203.340576,763.491821L1185.255005,746.862183L1204.306274,743.738647L1201.401489,794.627808L1201.631958,796.282471L1202.336426,797.797241L1225.455933,833.492310z" fill="#000000" stroke="none" fill-opacity="1" />
				<polyline points="1145.232666,669.814819 1230.990234,664.897705" fill="#E99E4C" stroke="none" fill-opacity="1" />
				<path d="M1144.918945,664.338257L1143.856445,664.504761L1142.847046,664.875122L1141.929077,665.435547L1141.138184,666.164307L1140.504761,667.033203L1140.053101,668.009033L1139.800049,669.054321L1139.756348,670.128784L1139.922607,671.191162L1140.293457,672.200684L1140.853516,673.118530L1141.582153,673.909302L1142.451294,674.542847L1143.427002,674.994629L1144.472290,675.247437L1145.546753,675.291382L1230.990234,664.897705z" fill="#000000" stroke="none" fill-opacity="1" />
				<polyline points="1135.560181,723.967285 1167.377808,698.427979 1221.650269,699.805542" fill="#E99E4C" stroke="none" fill-opacity="1" />
				<path d="M1131.892578,719.397827L1131.071411,720.201172L1130.422974,721.149170L1129.972046,722.205566L1129.735718,723.329590L1129.723267,724.478149L1129.935181,725.607178L1130.363037,726.672974L1130.990845,727.634888L1131.794189,728.455933L1132.742065,729.104492L1133.798462,729.555420L1134.922852,729.791748L1136.071289,729.804321L1137.200073,729.592285L1138.265991,729.164429L1139.228027,728.536621L1168.881470,702.882935L1221.650269,699.805542L1167.490112,694.014038L1165.966064,694.244385L1164.613892,694.984619z" fill="#000000" stroke="none" fill-opacity="1" />
				<polyline points="560.748535,924.398560 420.348633,1061.294312 385.030853,1019.263794 311.863556,1019.020142 389.890747,1021.721436 544.922668,1241.232056 575.806763,1174.520264 653.557068,1124.941162 742.945557,1153.265625 740.193420,1201.588989 669.104553,1173.119263 624.904968,1197.031738 690.906128,1181.994385 773.411926,1250.203125 759.589600,1284.243042 680.988708,1222.122803 629.295532,1242.998413 688.344116,1220.086914 759.682800,1286.693237 738.422241,1317.089478 681.938477,1282.199951 629.672058,1292.077148 689.520569,1285.181885 715.552185,1332.399780 701.511047,1354.862915 659.204712,1334.940796 586.405518,1368.329224 193.113647,1148.467407 238.891190,1021.712646 423.976685,824.058960 587.782166,909.295654" fill="#E99E4C" stroke="none" fill-opacity="1" />
				<path d="M565.065063,928.825806L565.845764,927.898560L566.430481,926.836792L566.796997,925.681519L566.931213,924.476807L566.827637,923.269043L566.490417,922.104858L565.932617,921.028687L565.175659,920.082031L564.248474,919.301392L563.186768,918.716431L562.031250,918.349976L560.826599,918.216064L559.618896,918.319580L558.454529,918.656738L557.378540,919.214355L556.431946,919.971558L420.659882,1055.024292L386.839294,1017.744019L386.330078,1017.290894L385.712891,1017.002075L385.038666,1016.901489L311.875488,1015.395142L311.128998,1015.470337L310.413818,1015.697632L309.760834,1016.067139L309.198029,1016.563354L308.749268,1017.164673L308.433899,1017.845581L308.265625,1018.576782L308.251282,1019.326904L308.391846,1020.064087L308.681091,1020.756348L309.106781,1021.374268L309.650482,1021.891357L310.288910,1022.285522L310.994934,1022.539795L311.738098,1022.643188L388.576019,1024.155151L542.015137,1243.285645L542.505249,1243.845093L543.100952,1244.290283L543.776245,1244.602051L544.501465,1244.766724L545.245056,1244.777222L545.974792,1244.632812L546.658325,1244.339966L547.266235,1243.911499L547.771729,1243.366211L548.153137,1242.727539L579.567688,1177.807739L654.733459,1133.912109L733.486755,1159.785767L736.811340,1196.271851L671.306335,1167.621460L669.628784,1167.220215L667.906921,1167.319458L666.286621,1167.910522L623.701355,1194.807007L623.273682,1195.098511L622.914307,1195.471069L622.638367,1195.908936L622.457336,1196.393799L622.378540,1196.905273L622.405884,1197.422119L622.537720,1197.922607L622.768433,1198.385864L623.088806,1198.792480L623.485352,1199.125122L623.941162,1199.370239L624.437256,1199.517456L624.953125,1199.560669L625.466858,1199.497925L688.974182,1190.121094L768.184814,1251.521851L758.195984,1278.964355L684.663208,1217.473267L683.327209,1216.677490L681.830261,1216.256714L680.275269,1216.239624L678.769592,1216.627686L629.295532,1242.998413L687.058472,1226.754639L755.376343,1287.145752L736.967590,1310.042603L685.170532,1276.967529L683.794983,1276.336548L682.306885,1276.060791L680.796448,1276.156738L629.579468,1291.586914L629.481750,1291.616089L629.392090,1291.664307L629.313965,1291.729858L629.250854,1291.809814L629.205383,1291.901001L629.179382,1291.999512L629.173645,1292.101318L629.189087,1292.202026L629.224487,1292.297607L629.278564,1292.383911L629.349243,1292.457520L629.433350,1292.515137L629.527344,1292.554565L629.627197,1292.573975L629.729065,1292.572754L686.165161,1291.688354L710.004333,1332.247803L699.194702,1346.987183L661.674377,1329.696289L660.071289,1329.208984L658.395752,1329.200562L656.787964,1329.671631L586.720886,1360.421753L214.410721,1140.518433L249.037064,1027.927124L425.940155,835.551636L584.806885,915.013672L585.979553,915.484375L587.221497,915.717041L588.485046,915.703003L589.721497,915.442871L590.883606,914.946411L591.926514,914.232666L592.809814,913.329468L593.500061,912.271118L593.970886,911.098267L594.203491,909.856323L594.189514,908.592773L593.929504,907.356323L593.432983,906.194214L592.719238,905.151611L591.815918,904.267944L590.757507,903.577637L428.264343,815.819336L426.395691,815.091064L424.414307,814.780884L422.412506,814.903198L420.483643,815.452393L418.717499,816.402832L417.196686,817.710205L230.384964,1013.747314L227.930542,1017.754272L176.813583,1142.580688L175.891647,1146.531128L175.913391,1150.587524L176.877365,1154.527832L178.730774,1158.136108L181.372437,1161.214722L184.657135,1163.594849L582.962463,1374.488037L584.490723,1375.120361L586.124146,1375.379517L587.773193,1375.251343L589.347046,1374.742798L659.172302,1341.333252L698.895935,1360.416504L700.303223,1360.881470L701.780945,1360.995605L703.242981,1360.752075L704.604004,1360.165405L705.784790,1359.269409L706.716431,1358.116699L719.609619,1334.936035L720.133057,1333.781982L720.335327,1332.531006L720.202026,1331.270752L719.742371,1330.089722L694.844482,1282.246704L694.009277,1281.081665L692.924500,1280.144653L691.650452,1279.487671L690.257996,1279.147217L688.824585,1279.142212L643.361755,1289.997803L680.736206,1288.686279L735.673279,1321.539795L736.692261,1322.026001L737.791931,1322.282227L738.920715,1322.296509L740.026306,1322.068359L741.057373,1321.608154L741.965515,1320.937500L742.708679,1320.087646L762.362122,1288.567383L762.728821,1287.881836L762.923218,1287.129028L762.934631,1286.351685L762.761963,1285.593628L762.415344,1284.897827L761.914185,1284.303467L692.268860,1215.883545L691.235779,1215.115967L690.058044,1214.597412L688.794373,1214.353760L687.508118,1214.397095L686.263855,1214.725464L629.295532,1242.998413L680.015320,1228.907104L757.557556,1286.814087L758.126465,1287.175415L758.757080,1287.412720L759.423035,1287.515869L760.096069,1287.480835L760.747559,1287.308838L761.350159,1287.007202L761.878357,1286.588623L762.309753,1286.070923L762.626038,1285.475952L777.439392,1251.838501L777.720642,1250.777710L777.727295,1249.680176L777.458862,1248.616211L776.932434,1247.653198L776.181519,1246.852783L695.681396,1176.218140L693.726807,1175.050903L691.512024,1174.524292L689.241272,1174.687012L642.371643,1190.457886L669.480530,1179.649414L738.825745,1205.004150L739.569580,1205.214478L740.341003,1205.264893L741.105896,1205.152832L741.830627,1204.883423L742.482849,1204.468506L743.034119,1203.926514L743.459778,1203.281128L743.741333,1202.561157L743.866150,1201.798218L752.003540,1153.781616L751.897583,1151.791016L751.359619,1149.871948L750.415527,1148.116577L749.110840,1146.609497L747.508484,1145.423950L745.686096,1144.616821L656.033081,1117.127441L653.683044,1116.745483L651.322266,1117.055054L649.150085,1118.030029L573.229309,1170.478027L572.197571,1171.364990L571.456421,1172.506104L544.278931,1234.149536L391.914673,1020.291992L391.387817,1019.747070L390.721039,1019.386841L389.976410,1019.244995L315.487885,1019.088989L383.927094,1021.622559L417.078125,1064.042358L417.807770,1064.728394L418.677032,1065.225464L419.638214,1065.506714L420.638519,1065.556396L421.622650,1065.371704L422.536743,1064.963257L423.330841,1064.352905z" fill="#000000" stroke="none" fill-opacity="1" />
			</g>
			<!--Layer: upperstuff-->
			<g id="upperstuff">
				<polyline points="887.904663,695.571777 1026.819214,716.185791 1165.217896,788.679565 1059.243042,980.676392 988.920532,1083.241089 893.587952,1149.241699 761.712769,1122.241821 597.734070,1024.223755 360.399719,836.296265 493.955414,712.030273 679.010376,686.093140 592.433105,600.312866 860.481995,568.071411 929.270569,597.666260 959.901367,619.713379 890.282166,693.275513" fill="#D02514" stroke="none" fill-opacity="1" />
				<path d="M889.166748,687.066528L887.483215,686.983643L885.815735,687.230957L884.228760,687.798706L882.782837,688.665161L881.533875,689.797119L880.529724,691.150879L879.808838,692.674561L879.399353,694.309692L879.316345,695.993286L879.563660,697.660645L880.131409,699.247681L880.997864,700.693481L882.129761,701.942505L883.483582,702.946777L885.007324,703.667480L886.642456,704.077148L1023.827881,725.368774L1157.411743,791.025879L1052.510742,976.523804L979.588928,1073.951660L890.138428,1132.380615L766.426514,1110.101318L601.899536,1018.190186L375.364258,835.699951L499.610199,723.908325L679.745605,691.338867L680.783020,691.084839L681.748352,690.627686L682.602112,689.986450L683.310120,689.186768L683.843384,688.261353L684.180054,687.247925L684.306702,686.187500L684.217834,685.123169L683.917480,684.098389L683.417664,683.154541L682.738708,682.330322L612.814331,607.306274L859.554932,574.496460L925.425842,604.458008L947.002319,620.936401L884.018127,687.347168L882.981934,688.683105L882.226257,690.195557L881.780151,691.826416L881.660950,693.512817L881.872864,695.190186L882.408081,696.793945L883.245667,698.262695L884.353821,699.539551L885.689758,700.575684L887.202209,701.331299L888.833191,701.777466L890.519531,701.896729L892.196960,701.684814L893.800781,701.149658L895.269348,700.311890L896.546265,699.203857L966.095215,625.575317L967.194885,624.132690L967.964661,622.490234L968.369568,620.722168L968.391296,618.908325L968.028992,617.131104L967.299072,615.470703L966.234497,614.002075L964.883423,612.791748L933.802734,591.369263L862.959351,562.312988L859.733276,561.847656L591.313293,591.002808L589.452698,591.422119L587.715454,592.208862L586.173340,593.331055L584.890137,594.742188L583.919006,596.383545L583.299988,598.187378L583.058899,600.079346L583.205444,601.980835L583.733765,603.813354L584.621887,605.501221L585.833191,606.974243L667.687683,682.331299L492.213806,699.603760L488.561768,700.700562L485.407806,702.843872L353.753540,829.152954L352.380859,830.737793L351.378418,832.579468L350.792664,834.592773L350.650513,836.684570L350.958710,838.758423L351.702789,840.718750L352.848328,842.474731L354.342865,843.945435L593.192261,1029.959595L755.125183,1133.262329L890.413452,1164.746704L894.651001,1165.032593L898.811890,1164.181274L902.596680,1162.254272L996.291626,1093.888062L1065.759155,985.144043L1170.208618,791.434326L1170.701416,790.237549L1170.911499,788.960693L1170.828247,787.669067L1170.455566,786.429688L1169.813232,785.306274L1168.933716,784.356689L1167.862915,783.629761L1031.237793,707.750366z" fill="#E1DC39" stroke="none" fill-opacity="1" />
				<polyline points="598.729065,785.254639 597.493347,827.765259 758.959961,841.814331 746.951233,793.871826" fill="#DCD737" stroke="none" fill-opacity="1" />
				<polyline points="854.366150,579.399780 813.477112,703.971069 884.209534,870.278809" fill="#D02514" stroke="none" fill-opacity="1" />
				<path d="M866.760376,583.468018L867.315857,580.971924L867.373840,578.415161L866.931824,575.896484L866.006958,573.512329L864.634705,571.354492L862.867737,569.505737L860.774170,568.037354L858.434448,567.005615L855.938171,566.449951L853.381775,566.392090L850.862915,566.833984L848.478882,567.759033L846.320862,569.131226L844.472351,570.897949L843.003662,572.991699L841.971924,575.331299L807.521179,702.016113L807.214050,704.237427L807.708435,706.424561L881.971680,871.230591L882.200256,871.648926L882.506226,872.014648L882.877563,872.313599L883.300049,872.534180L883.757568,872.668335L884.232483,872.710571L884.706421,872.659424L885.161133,872.516602L885.579529,872.288086L885.945190,871.982056L886.244080,871.610718L886.464844,871.188232L886.598938,870.730835L886.641235,870.255981L886.589905,869.781982L886.447388,869.327148L820.168030,703.686646z" fill="#E1DC39" stroke="none" fill-opacity="1" />
			</g>
			<!--Layer: eyes-->
			<g id="eyes">
				<polyline points="773.719604,408.196777 831.993469,321.159912 886.394470,285.137695 923.741882,327.422119 966.322388,401.953125 956.614136,442.205078 884.399414,474.842651 802.893616,460.587769 769.723022,411.793457" fill="#381418" stroke="none" fill-opacity="1" />
				<polyline points="776.873779,404.694824 947.603577,389.553467 982.901062,397.583984 769.767822,407.751709 808.640198,447.503906 881.628052,451.489990 942.192444,438.059570 966.845276,402.934570" fill="#650F0A" stroke="none" fill-opacity="1" />
				<path d="M776.270813,397.895020L774.955811,398.143311L773.714539,398.643311L772.594604,399.375977L771.639282,400.313232L770.884949,401.418457L770.360901,402.649658L770.087036,403.959717L770.074158,405.297852L770.322266,406.612793L770.822388,407.854004L771.555176,408.973877L772.492126,409.929443L773.597412,410.683594L774.828735,411.207520L776.138733,411.481445L777.476807,411.494629L946.626099,403.986572L971.636597,396.589844L769.405273,400.152588L767.838013,400.392578L766.354492,400.952637L765.019348,401.807617L763.890259,402.920898L763.016602,404.244385L762.436279,405.719727L762.174255,407.283691L762.242126,408.867920L762.636780,410.403564L763.341370,411.823975L764.325073,413.067627L808.640198,447.503906L881.628052,451.489990L942.518799,439.531494L943.027771,439.314697L943.424255,438.928711L975.740356,409.212402L976.794250,407.356445L977.465637,405.330322L977.729004,403.212402L977.574097,401.083984L977.006836,399.026123L976.049194,397.118896L974.737671,395.435303L973.122925,394.039307L971.267029,392.985596L969.241089,392.314209L967.123108,392.050781L964.994507,392.205811L962.937012,392.772949L961.029663,393.730713L959.345886,395.041992L957.950256,396.656738L941.296753,436.713867L881.628052,451.489990L808.640198,447.503906L787.037170,414.544678L983.439880,408.879395L985.728149,408.533203L987.897949,407.728271L989.858521,406.498535L991.527588,404.895264L992.835449,402.986084L993.727112,400.850342L994.165405,398.578125L994.131836,396.263916L993.628052,394.005127L992.674683,391.896240L991.312073,390.025635L989.597290,388.471680L987.601807,387.299316L985.409607,386.557617L950.773560,375.619629z" fill="#000000" stroke="none" fill-opacity="1" />
				<path d="M831.652893,325.316162L883.522339,294.431885L918.768616,325.463379L887.944702,284.324219L887.021423,283.532959L885.935608,282.985352L884.750061,282.713867L883.534241,282.733887L882.358521,283.044189L881.291199,283.626953z" fill="#000000" stroke="none" fill-opacity="1" />
				<polyline points="814.327209,418.407959 867.736938,416.083984 869.938721,433.082275 819.928650,433.939941" fill="#DCD737" stroke="none" fill-opacity="1" />
				<polyline points="899.996094,379.706787 878.691345,312.954346 916.113708,381.120605" fill="#94150E" stroke="none" fill-opacity="1" />
			</g>
			<!--Layer: stripes-->
			<g id="stripes">
				<polyline points="529.839172,2341.400391 531.906128,2353.753418 533.973022,2366.106201 536.039917,2378.459229 538.106873,2390.812012 540.173889,2403.165039 542.240662,2415.517822 544.307739,2427.870850 546.374756,2440.223633 548.441711,2452.576416 550.508606,2464.929443 552.575500,2477.282471 554.784607,2471.363770 556.993713,2465.445068 559.202515,2459.526611 561.411560,2453.607910 563.620667,2447.689209 565.829712,2441.770752 568.038696,2435.852295 570.247620,2429.933594 572.456665,2424.015137 574.665771,2418.096191 576.874878,2412.177734 577.940125,2411.282471 579.005432,2410.386963 580.070862,2409.491699 581.136230,2408.596191 582.201965,2407.700684 583.267334,2406.805176 584.332642,2405.909668 585.397949,2405.014404 586.463318,2404.119141 587.528748,2403.223633 588.594177,2402.328125 595.382935,2400.387207 602.171814,2398.446289 608.960571,2396.505371 615.749451,2394.564453 622.538513,2392.623535 629.327271,2390.682617 636.116150,2388.741699 642.904907,2386.800781 649.693787,2384.859863 656.482544,2382.918945 663.271545,2380.978027 655.304626,2375.847168 647.337769,2370.716309 639.370850,2365.585693 631.403992,2360.454834 623.437195,2355.323975 615.470154,2350.193115 607.502991,2345.062500 599.536377,2339.931641 591.569214,2334.800781 583.602356,2329.670166 575.635437,2324.539307" fill="#381418" stroke="none" fill-opacity="0.966507196" />
				<polyline points="501.054626,2175.058594 503.394836,2189.914795 505.735199,2204.771240 508.075439,2219.627686 510.415558,2234.484131 512.755798,2249.340332 515.096008,2264.196777 517.436401,2279.053223 519.776489,2293.909668 522.116699,2308.766113 524.457092,2323.622559 526.797302,2338.479004 530.439697,2331.238525 534.082153,2323.998291 537.724670,2316.757812 541.367004,2309.517578 545.009521,2302.277100 548.652039,2295.036865 552.294373,2287.796387 555.936890,2280.556152 559.579529,2273.315674 563.221741,2266.075439 566.864380,2258.834961 568.201111,2257.733154 569.538147,2256.631348 570.874878,2255.529785 572.211731,2254.427979 573.548645,2253.326172 574.885376,2252.224365 576.222412,2251.122559 577.559265,2250.020752 578.895996,2248.919189 580.232788,2247.817383 581.569641,2246.715576 588.643799,2244.165283 595.717896,2241.614990 602.792053,2239.064697 609.866455,2236.514404 616.940613,2233.964111 624.014465,2231.414062 631.088623,2228.863770 638.162781,2226.313477 645.236755,2223.763184 652.311035,2221.212891 659.385193,2218.662598 651.057861,2211.727051 642.730225,2204.791748 634.402649,2197.856201 626.075134,2190.920654 617.747681,2183.985352 609.420349,2177.049805 601.092773,2170.114258 592.765259,2163.178711 584.437683,2156.243408 576.110229,2149.307861 567.782837,2142.372314" fill="#381418" stroke="none" fill-opacity="0.966507196" />
				<polyline points="549.212830,2480.419434 550.507141,2488.276611 551.801331,2496.134033 553.095215,2503.991211 554.389160,2511.848389 555.683350,2519.705566 556.977478,2527.562744 558.271545,2535.419922 559.565735,2543.277100 560.859619,2551.134277 562.153809,2558.991699 563.447998,2566.848877 564.481018,2563.617676 565.514099,2560.386230 566.547058,2557.155029 567.580383,2553.923584 568.613525,2550.692139 569.646484,2547.460938 570.679382,2544.229980 571.712585,2540.998291 572.745789,2537.767334 573.778748,2534.535889 574.811890,2531.304443 580.490417,2530.979004 586.169067,2530.653809 591.847595,2530.328369 597.526123,2530.002686 603.204773,2529.677490 608.883240,2529.352051 614.562073,2529.026611 620.240662,2528.701172 625.919189,2528.375977 631.597717,2528.050537 637.276367,2527.724854 631.404602,2522.189209 625.532898,2516.653564 619.661316,2511.118164 613.789429,2505.582520 607.917725,2500.046631 602.046082,2494.510986 596.174133,2488.975342 590.302490,2483.439697 584.430786,2477.904053 578.559021,2472.368408 572.687439,2466.832764" fill="#381418" stroke="none" fill-opacity="0.966507196" />
				<polyline points="1027.221313,2262.088623 1019.617554,2270.951660 1012.013855,2279.814453 1004.410095,2288.677490 996.806274,2297.540283 989.202637,2306.403320 981.598816,2315.266113 973.995178,2324.129150 966.391357,2332.991943 958.787659,2341.854980 951.183777,2350.718018 943.580078,2359.580811 943.191528,2365.250244 942.802856,2370.919678 942.414124,2376.589355 942.025574,2382.258545 941.636902,2387.928223 941.248230,2393.597656 940.859680,2399.267090 940.471069,2404.936523 940.082520,2410.606201 939.693726,2416.275635 939.305176,2421.945312 950.290344,2417.931152 961.275513,2413.916992 972.260681,2409.903076 983.245850,2405.888916 994.231079,2401.874756 1005.216248,2397.860840 1016.201416,2393.846680 1027.186646,2389.832764 1038.171875,2385.818604 1049.156982,2381.804443 1060.142090,2377.790527 1073.210815,2381.834473 1086.279541,2385.878418 1099.348022,2389.922607 1112.416870,2393.966553 1125.485474,2398.010498 1138.554077,2402.054443 1151.622803,2406.098633 1164.691406,2410.142578 1177.760132,2414.186768 1190.828735,2418.230713 1203.897583,2422.274658 1193.143677,2411.326660 1182.390015,2400.378662 1171.636108,2389.430420 1160.882446,2378.482422 1150.128784,2367.534180 1139.374878,2356.586182 1128.621338,2345.638184 1117.867432,2334.690186 1107.113647,2323.741943 1096.359985,2312.793945 1085.606201,2301.845947" fill="#381418" stroke="none" fill-opacity="0.966507196" />
				<polyline points="990.755005,2092.333984 994.921204,2106.215576 999.087341,2120.097168 1003.253540,2133.978760 1007.419739,2147.860352 1011.585938,2161.741699 1015.752136,2175.623291 1019.918030,2189.504883 1024.084351,2203.386475 1028.250610,2217.268066 1032.416748,2231.149658 1036.582764,2245.031250 1037.589966,2245.269775 1038.597046,2245.508301 1039.604126,2245.747070 1040.611206,2245.985596 1041.618408,2246.224121 1042.625488,2246.462891 1043.632568,2246.701660 1044.639771,2246.940186 1045.646973,2247.178955 1046.653931,2247.417480 1047.661133,2247.656250 1053.042725,2239.631592 1058.424561,2231.606934 1063.806152,2223.582275 1069.187866,2215.557617 1074.569702,2207.532959 1079.951294,2199.508301 1085.333130,2191.483887 1090.714722,2183.459229 1096.096558,2175.434570 1101.478271,2167.409912 1106.859863,2159.385254 1120.421997,2154.415771 1133.984131,2149.446289 1147.546265,2144.476807 1161.108398,2139.507080 1174.670532,2134.537598 1188.232666,2129.568115 1201.794800,2124.598633 1215.356934,2119.629150 1228.919067,2114.659668 1242.481201,2109.689941 1256.043335,2104.720459 1240.873901,2099.777100 1225.704468,2094.833984 1210.534790,2089.890625 1195.365479,2084.947266 1180.196045,2080.003906 1165.026611,2075.060547 1149.857178,2070.117188 1134.687866,2065.174072 1119.518433,2060.230713 1104.348877,2055.287354 1089.179443,2050.343994" fill="#381418" stroke="none" fill-opacity="0.966507196" />
				<polyline points="934.003906,2435.765137 932.341370,2443.442383 930.678650,2451.119385 929.015930,2458.796387 927.353210,2466.473633 925.690674,2474.150635 924.027954,2481.827881 922.365234,2489.504883 920.702515,2497.182129 919.039917,2504.859375 917.377258,2512.536133 915.714539,2520.213379 916.487122,2520.567871 917.259888,2520.922852 918.032471,2521.277344 918.805237,2521.632080 919.577820,2521.986572 920.350403,2522.341309 921.123047,2522.696045 921.895752,2523.050781 922.668396,2523.405518 923.440979,2523.760010 924.213745,2524.114746 928.740356,2522.928711 933.266968,2521.742676 937.793640,2520.556885 942.320557,2519.370850 946.847168,2518.185059 951.373779,2516.999023 955.900452,2515.812988 960.427185,2514.626953 964.953979,2513.440918 969.480591,2512.255127 974.007202,2511.069092 984.362366,2514.771973 994.717346,2518.474609 1005.072205,2522.177246 1015.427490,2525.880127 1025.782349,2529.582764 1036.137451,2533.285400 1046.492432,2536.988281 1056.847534,2540.690674 1067.202515,2544.393555 1077.557495,2548.096191 1087.912476,2551.798828 1079.599243,2542.593262 1071.285645,2533.387939 1062.972290,2524.182373 1054.658813,2514.977051 1046.345459,2505.771240 1038.031860,2496.565918 1029.718506,2487.360352 1021.405151,2478.154785 1013.091614,2468.949219 1004.778320,2459.743652 996.464783,2450.538330" fill="#381418" stroke="none" fill-opacity="0.966507196" />
				<polyline points="921.896973,537.713745 924.119324,538.672607 926.341492,539.631592 928.563721,540.590210 930.786316,541.549194 933.008545,542.508057 935.230896,543.466919 937.453186,544.425781 939.675659,545.384644 941.898010,546.343628 944.120239,547.302368 946.342712,548.261353 945.866455,545.794556 945.390259,543.327637 944.913940,540.860840 944.437805,538.393921 943.961609,535.927124 943.485291,533.460327 943.009033,530.993408 942.532959,528.526733 942.056763,526.059814 941.580383,523.593018 941.104187,521.126221 938.864380,521.115234 936.624268,521.104248 934.384399,521.093140 932.144287,521.082275 929.904419,521.071045 927.664307,521.060181 925.424500,521.049316 923.184387,521.038208 920.944397,521.027222 918.704407,521.016235 916.464478,521.005127 914.563171,524.346680 912.662048,527.688110 910.760620,531.029541 908.859619,534.371094 906.958313,537.712646 905.057007,541.053955 903.155884,544.395508 901.254761,547.737061 899.353577,551.078491 897.452332,554.419922 895.551147,557.761475" fill="#381418" stroke="none" fill-opacity="0.966507196" />
				<polyline points="708.451538,517.117554 770.038330,565.246582 764.271118,512.178711 803.894592,453.048584 731.426025,478.620483" fill="#381418" stroke="none" fill-opacity="0.966507196" />
				<polyline points="1053.140991,491.752441 1010.716003,521.839966 992.545532,480.487183 944.783569,440.293701 1023.454346,448.120605" fill="#381418" stroke="none" fill-opacity="0.966507196" />
			</g>
		</g>
	</g>
</svg>
