<?xml version="1.0" encoding="UTF-8"?>
<!-- Generator: Blender, SVG Export for Grease Pencil - v2.0 -->
<!DOCTYPE svg PUBLIC "-//W3C//DTD SVG 1.1//EN" "http://www.w3.org/Graphics/SVG/1.1/DTD/svg11.dtd">
<svg version="1.0" x="0px" y="0px" xmlns="http://www.w3.org/2000/svg" width="700.772705px" height="929.684631px" viewBox="0 0 700.772705 929.684631">
	<g id="blender_frame_1">
		<g id="blender_object_Stroke">
			<!--Layer: Fills-->
			<g id="Fills" />
			<!--Layer: backstuff-->
			<g id="backstuff">
				<polyline points="536.842285,478.168396 569.852844,604.857300 590.372986,572.739014 618.030518,570.062439 626.060120,599.504211 606.432190,599.504211 593.941650,620.024231 614.461792,610.210327 631.413147,616.455566 636.766235,634.299072 624.275757,628.946045 611.785217,634.299072 635.874084,641.436462 626.952271,587.905945 593.941650,531.698853 540.411011,479.952759" fill="#050510" stroke="none" fill-opacity="1" />
				<path d="M538.693420,477.686066L538.563782,477.334198L538.367920,477.014374L538.113464,476.738892L537.810181,476.518402L537.469604,476.361267L537.104980,476.273590L536.730347,476.258728L536.359924,476.317261L536.008057,476.446930L535.688293,476.642761L535.412781,476.897186L535.192261,477.200500L535.035156,477.541016L534.947449,477.905609L534.932617,478.280304L534.991089,478.650726L568.001709,605.339600L568.143555,605.716187L568.361084,606.054749L568.644531,606.340332L568.981506,606.560303L569.357056,606.704834L569.754456,606.767700L570.156311,606.745972L570.544678,606.640747L570.902405,606.456543L571.213806,606.201660L571.464905,605.887207L591.483765,574.553345L616.609375,572.121826L623.555542,597.591309L606.432190,597.591309L605.947815,597.653687L605.494934,597.836609L605.103271,598.128296L604.798157,598.509583L592.307678,619.029602L592.133911,619.398682L592.042419,619.796143L592.037170,620.204041L592.118652,620.603760L592.282959,620.977051L592.522644,621.307129L592.826965,621.578796L593.181885,621.779785L593.571350,621.901001L593.977722,621.936829L594.382385,621.885742L594.766968,621.750000L614.558411,612.284546L629.855408,617.920288L633.757935,630.928589L625.029297,627.187744L624.533142,627.050537L624.018372,627.050537L623.522217,627.187744L611.031738,632.540771L610.691040,632.729980L610.395752,632.984253L610.158142,633.293091L609.988098,633.643677L609.892578,634.021484L609.875549,634.410767L609.937805,634.795410L610.076721,635.159424L610.286499,635.487793L610.558533,635.766846L610.881409,635.984985L611.241821,636.133179L635.330627,643.270630L635.753296,643.345581L636.182068,643.324463L636.595337,643.208191L636.972229,643.002686L637.293884,642.718384L637.544006,642.369507L637.710022,641.973572L637.783569,641.550659L637.760986,641.121948L628.839172,587.591431L599.739746,528.293701L541.740540,478.577362L541.446655,478.344391L541.112976,478.173248L540.752319,478.070526L540.378601,478.040070L540.006042,478.083160L539.649109,478.198090L539.321472,478.380432L539.035645,478.623230L538.802673,478.917084L538.631470,479.250732L538.528687,479.611420L538.498352,479.985168L538.541443,480.357697L538.656311,480.714630L538.838623,481.042328L539.081482,481.328125L588.608459,535.895508L625.123535,588.569519L633.484192,638.733215L617.408813,633.970154L624.275757,631.027222L636.012756,636.057312L636.388489,636.174316L636.780212,636.211914L637.171448,636.168579L637.545410,636.046143L637.886475,635.849670L638.180115,635.587646L638.413879,635.270996L638.577881,634.913208L638.665222,634.529480L638.672241,634.135986L638.598511,633.749390L633.245422,615.905884L633.070312,615.500000L632.806763,615.145142L632.468811,614.860291L632.074463,614.660583L615.123108,608.415283L614.627319,608.304565L614.119812,608.328247L613.636475,608.484619L598.921570,615.522156L607.507202,601.417114L626.060120,601.417114L626.495483,601.366943L626.908081,601.218933L627.276123,600.980957L627.580322,600.665344L627.804749,600.288879L627.937500,599.871155L627.971741,599.434204L627.905579,599.000854L619.876038,569.559082L619.709473,569.145752L619.451782,568.782104L619.117004,568.488037L618.723145,568.279297L618.291748,568.167480L617.846191,568.158447L590.188721,570.834961L589.630798,570.975830L589.140137,571.276245L588.760925,571.709106L570.599426,600.135742z" fill="#000000" stroke="none" fill-opacity="1" />
				<path d="M538.024048,476.664185L537.707886,476.462524L537.358459,476.326447L536.989136,476.261139L536.614319,476.269104L536.248169,476.350067L535.904846,476.500946L535.597534,476.715851L535.338074,476.986603L535.136414,477.302765L535.000305,477.652191L534.934937,478.021484L534.942932,478.396393L535.023926,478.762512L535.174866,479.105835L535.389709,479.413147L535.660522,479.672607L596.446228,529.506897L623.263855,589.359253L641.887573,694.025757L623.557617,786.433350L547.440491,864.148254L403.386475,913.047241L178.462830,920.095215L73.531822,880.492676L51.577873,831.676208L83.536850,779.170410L130.724930,765.296875L201.919434,748.987427L208.081131,745.462158L287.683502,662.506714L288.736969,661.395996L289.553436,660.101074L290.101624,658.671753L290.360413,657.162964L290.319916,655.632629L289.981628,654.139648L289.358582,652.741333L288.474670,651.491394L287.363953,650.437988L286.069031,649.621460L284.639771,649.073364L283.130951,648.814453L281.600647,648.854980L280.107635,649.193298L278.709290,649.816406L277.459442,650.700195L186.713867,715.262207L123.862869,744.213440L74.355148,761.420654L71.525116,762.868958L69.303505,765.142944L24.104931,822.627502L22.386227,825.963013L21.626396,829.637634L21.881348,833.381226L23.132215,836.918945L56.001400,894.493713L57.584896,896.793152L59.696323,898.619690L62.199734,899.855774L174.792877,935.095581L405.040802,928.364319L553.276306,876.045776L555.897156,874.350769L631.213135,791.828979L631.963379,790.770813L632.391113,789.546143L651.104919,694.971252L651.122681,693.273193L632.535339,587.078125L602.506470,525.727173L601.488525,524.448425z" fill="#000000" stroke="none" fill-opacity="1" />
				<polyline points="403.015411,638.760010 483.311432,778.831543 485.988037,827.009033 428.888641,966.188293 333.425568,967.080505 353.053497,869.833374 386.956268,838.607300 330.749023,720.840088 303.983704,711.026184 296.964813,996.699158 209.294312,977.609619 172.833603,755.634949" fill="#E99E4C" stroke="none" fill-opacity="1" />
				<path d="M413.182831,632.931519L411.850403,631.059937L410.178436,629.484253L408.231171,628.265015L406.083496,627.449219L403.817932,627.067993L401.521515,627.136047L399.282501,627.650879L397.186951,628.592529L395.315399,629.925049L393.739777,631.596924L392.520477,633.544189L391.704651,635.691895L391.323456,637.957397L391.391541,640.253906L391.906311,642.492859L392.848053,644.588440L481.412689,779.394043L481.883087,826.317444L425.136780,960.649902L341.114227,960.728394L357.191833,872.163513L388.584045,840.374573L388.976379,839.908081L389.238708,839.357971L389.354126,838.759521L389.315308,838.151245L389.124695,837.572327L338.378815,717.198608L337.197052,715.372314L335.588440,713.908020L333.659454,712.902649L306.510223,704.135620L305.012146,703.759460L303.468475,703.705139L301.947662,703.975098L300.516998,704.557434L299.239868,705.426270L298.172882,706.543091L297.363312,707.858582L296.846985,709.314331L296.646759,710.845947L293.712494,992.559326L213.065292,974.028381L180.568832,754.364380L180.172272,752.879761L179.493759,751.500977L178.559265,750.281067L177.404800,749.266846L176.074570,748.497437L174.619888,748.002319L173.096527,747.800476L171.563019,747.899719L170.078384,748.296204L168.699600,748.974731L167.479660,749.909241L166.465576,751.063721L165.696136,752.393921L165.200912,753.848633L164.999115,755.372070L165.098358,756.905518L205.049591,978.306824L205.334885,979.290771L205.844681,980.179382L206.550140,980.922180L207.411240,981.477173L208.379135,981.812744L296.251434,999.975403L296.983917,1000.052124L297.715393,999.967102L298.410675,999.724426L299.036285,999.335815L299.561920,998.820007L299.962280,998.201904L300.218048,997.511292L300.316925,996.781494L311.069153,721.441101L324.603455,727.591370L384.023926,838.041565L349.992981,866.510498L349.117065,867.616943L348.625244,868.939575L327.269745,965.838013L327.147308,967.226501L327.334198,968.607788L327.821075,969.913818L328.584167,971.080322L329.585693,972.049744L330.776428,972.774292L332.097565,973.218445L333.484253,973.360168L428.940674,971.761292L430.233856,971.596741L431.453339,971.136353L432.532532,970.405334L433.412354,969.443481L434.044830,968.303650L489.744324,828.550049L490.041931,826.783813L485.235474,778.724670L484.983307,777.873169z" fill="#000000" stroke="none" fill-opacity="1" />
				<polyline points="401.231110,356.832581 340.562988,461.217102 346.808258,520.100708 452.977539,708.349670 321.668304,772.183472 166.588318,777.047180 138.672470,625.568726 182.647507,479.060608 200.383377,355.981079" fill="#650F0A" stroke="none" fill-opacity="1" />
				<path d="M409.427856,361.596558L410.199799,359.905945L410.627075,358.097168L410.693176,356.239807L410.395752,354.405273L409.746063,352.663940L408.769196,351.082886L407.502625,349.722717L405.995087,348.635864L404.304413,347.863953L402.495697,347.436707L400.638306,347.370544L398.803741,347.667969L397.062469,348.317627L395.481384,349.294556L394.121216,350.561096L393.034332,352.068665L338.909149,460.255890L338.692291,460.817566L338.660767,461.418854L344.906036,520.302429L345.142059,521.040405L444.254486,705.628418L321.160614,770.125916L171.196167,771.332642L147.291367,626.040466L184.479691,479.610535L202.276794,356.253906L202.293594,355.879272L202.237045,355.508545L202.109268,355.156006L201.915100,354.835144L201.662125,354.558350L201.360031,354.336243L201.020355,354.177307L200.656265,354.087708L200.281570,354.070862L199.910904,354.127441L199.558380,354.255188L199.237518,354.449341L198.960709,354.702271L198.738556,355.004456L198.579651,355.344116L198.490005,355.708252L180.774429,478.646973L130.636032,623.156616L130.420731,627.089478L161.113312,778.056152L161.502441,779.311646L162.175095,780.440918L163.093719,781.380981L164.207214,782.079468L165.453400,782.497498L166.762833,782.611694L321.733276,774.254883L322.574432,774.047363L455.714905,713.980652L456.941681,713.195984L457.954010,712.149109L458.697083,710.896729L459.130829,709.506531L459.231628,708.053711L458.994110,706.616943L458.431091,705.273926L348.668823,519.505493L342.531281,461.637482z" fill="#000000" stroke="none" fill-opacity="1" />
			</g>
			<!--Layer: head-->
			<g id="head">
				<polyline points="297.738495,196.241028 303.091583,261.369812 266.512299,258.693298 253.129608,188.211487" fill="#E99E4C" stroke="none" fill-opacity="1" />
				<path d="M299.644958,196.084290L299.577759,195.715393L299.439911,195.366699L299.236633,195.051514L298.975769,194.782104L298.667419,194.568726L298.323273,194.419678L297.956726,194.340576L297.581787,194.334534L297.212860,194.401733L296.864136,194.539612L296.548981,194.742920L296.279572,195.003723L296.066223,195.312134L295.917114,195.656250L295.838074,196.022766L295.832001,196.397705L301.001984,259.298889L268.117462,256.892700L255.008987,187.854614L254.903244,187.494873L254.729416,187.162598L254.494019,186.870667L254.206268,186.630249L253.877075,186.450623L253.519135,186.338623L253.146317,186.298584L252.772797,186.332092L252.412979,186.437805L252.080750,186.611755L251.788803,186.847107L251.548431,187.134888L251.368744,187.464050L251.256836,187.821899L251.216782,188.194824L251.250290,188.568359L264.632935,259.050110L264.754822,259.448792L264.960175,259.811584L265.239319,260.121216L265.578796,260.363037L265.962708,260.525635L266.372650,260.601135L302.951935,263.277649L303.363586,263.263245L303.762604,263.161194L304.130554,262.976013L304.450256,262.716370L304.707001,262.394348L304.888885,262.024780L304.987396,261.624878L304.998047,261.213135z" fill="#000000" stroke="none" fill-opacity="1" />
				<polyline points="307.615448,74.399536 355.730042,117.729553 379.818878,154.308838 393.201508,195.348877 356.622223,216.761047 311.121124,249.771545 230.825104,165.907104 270.081024,115.053101 307.537109,75.028381" fill="#E99E4C" stroke="none" fill-opacity="1" />
				<path d="M309.719788,72.062866L309.223480,71.697205L308.665405,71.435486L308.066925,71.287598L307.451111,71.259216L306.841675,71.351685L306.261932,71.561157L305.734192,71.879761L305.278717,72.295227L304.913147,72.791565L304.651276,73.349670L304.503479,73.948120L304.475159,74.563904L304.567535,75.173340L304.777100,75.753174L305.095673,76.280823L305.511108,76.736328L354.267426,118.986816L377.171234,155.583740L387.716705,193.265503L355.378601,214.636536L311.348694,247.243103L237.201752,165.567932L271.539703,116.293945L309.833160,77.177063L310.208191,76.687744L310.480652,76.134827L310.639923,75.539246L310.679993,74.924194L310.599243,74.312988L310.400879,73.729370L310.092438,73.195618L309.685791,72.732361L309.196564,72.357178L308.643524,72.084778L308.048065,71.925537L307.432892,71.885498L306.821716,71.966187L306.238129,72.164612L305.704346,72.473022L305.241089,72.879639L268.684204,113.746033L226.993546,162.949341L226.406509,163.930908L226.066147,165.022888L225.991562,166.164185L226.186813,167.291077L226.641068,168.340759L227.328888,169.254639L309.739441,251.094482L310.092041,251.384094L310.503296,251.581909L310.949646,251.676819L311.405823,251.663147L311.845795,251.541931L312.244476,251.319885L357.970093,218.824585L395.509552,199.291748L396.334595,198.674072L397.000275,197.887146L397.472534,196.971130L397.727478,195.972473L397.752106,194.942139L397.545135,193.932495L382.587830,153.405884L357.327667,116.677490z" fill="#000000" stroke="none" fill-opacity="1" />
				<polyline points="270.973175,112.376648 246.884384,99.886169 245.992157,32.972900 200.491150,68.660034 181.755371,117.729553 230.657578,163.035889" fill="#050510" stroke="none" fill-opacity="1" />
				<path d="M270.092651,114.074829L270.440857,114.213928L270.809540,114.282532L271.184479,114.277771L271.551331,114.200073L271.895935,114.052246L272.205170,113.839966L272.466919,113.571472L272.671387,113.257141L272.810516,112.908936L272.879028,112.540222L272.874359,112.165283L272.796631,111.798462L272.648773,111.453796L272.436584,111.144653L272.168121,110.882812L271.853729,110.678406L248.781845,98.715210L247.904984,32.947449L247.860947,32.564209L247.740860,32.197449L247.549652,31.862305L247.295090,31.572388L246.987488,31.339355L246.639389,31.172852L246.265030,31.079590L245.879562,31.063354L245.498611,31.124878L245.137756,31.261536L244.811676,31.467773L199.310577,67.154785L198.704071,67.977661L177.635361,116.156494L177.380798,117.170654L177.372192,118.216309L177.609940,119.234497L178.080795,120.168213L178.758163,120.964722L226.182281,167.866394L227.210617,168.646606L228.371490,169.211304L229.620193,169.538635L230.908737,169.616028L232.187637,169.440613L233.407715,169.019104L234.522202,168.367554L235.488068,167.511169L236.268341,166.482849L236.832962,165.321960L237.160370,164.073364L237.237808,162.784729L237.062302,161.505798L236.640808,160.285706L235.989258,159.171326L235.132874,158.205383L186.938187,116.519348L202.089035,69.837891L244.130997,36.863831L244.971664,99.911682L245.047607,100.420471L245.256454,100.890747L245.583084,101.288269L246.003876,101.584412z" fill="#000000" stroke="none" fill-opacity="1" />
				<polyline points="346.003876,108.159241 358.568115,90.690674 342.972229,29.625427 385.406769,53.543213 408.227478,99.046570 380.559448,156.597046" fill="#050510" stroke="none" fill-opacity="1" />
				<path d="M344.881012,107.351624L344.745026,107.586243L344.657471,107.842834L344.621582,108.111572L344.638855,108.382080L344.708527,108.644104L344.828003,108.887451L344.992737,109.102905L345.196259,109.281982L345.430817,109.417969L345.687439,109.505676L345.956146,109.541443L346.226746,109.524292L346.488739,109.454590L346.732178,109.335083L346.947510,109.170410L347.126648,108.966797L359.690948,91.498230L359.875519,91.141968L359.950043,90.747620L359.908234,90.348450L345.113495,32.419922L384.359772,54.540771L404.723907,99.075806L377.848267,155.293640L377.646057,155.847534L377.555786,156.430359L377.580994,157.019531L377.720703,157.592529L377.969421,158.127136L378.317688,158.603027L378.752106,159.001892L379.256012,159.308228L379.809967,159.510498L380.392761,159.600708L380.981964,159.575439L381.554901,159.435791L382.089600,159.187073L382.565460,158.838745L382.964233,158.404297L383.270660,157.900513L411.061798,100.409180L411.339905,99.497192L411.331909,98.543884L411.038635,97.636658L386.643097,52.923218L386.408142,52.589233L386.085907,52.338379L343.651367,28.420471L343.382446,28.304443L343.095032,28.247681L342.802155,28.252686L342.516846,28.319275L342.251984,28.444519L342.019501,28.622742L341.829681,28.845825L341.691162,29.103943L341.610077,29.385437L341.590088,29.677734L341.632111,29.967651L357.068237,90.407288z" fill="#000000" stroke="none" fill-opacity="1" />
				<path d="M341.383789,215.440674L341.509888,215.793762L341.702576,216.115540L341.954285,216.393555L342.255402,216.617065L342.594330,216.777588L342.958038,216.868774L343.332581,216.887390L343.703522,216.832581L344.056641,216.706360L344.378448,216.513733L344.656403,216.262024L344.879913,215.960876L345.040405,215.622009L345.131683,215.258240L345.150299,214.883789L345.095428,214.512756L343.758545,199.680054L343.411591,198.762878L342.862091,197.950684L342.139679,197.287537L341.283508,196.809326L340.340057,196.541992L339.360382,196.500000L338.397491,196.685608L302.594940,210.733582L302.298798,210.860657L302.033203,211.042969L301.808258,211.273560L301.632660,211.543640L301.513062,211.842773L301.454132,212.159668L301.458191,212.481689L301.524963,212.796875L301.652008,213.093018L301.834351,213.358643L302.064972,213.583557L302.335052,213.759216L302.634247,213.878784L302.950989,213.937622L303.273132,213.933655L303.588318,213.866821L336.670685,206.073364z" fill="#000000" stroke="none" fill-opacity="1" />
			</g>
			<!--Layer: upperstuff-->
			<g id="upperstuff">
				<polygon points="294.204742,497.506531 285.229279,569.637024 393.132935,571.344238 410.625336,499.569092" fill="#F4FE77" stroke="none" fill-opacity="1" />
				<path d="M296.140900,497.959442L296.192017,497.572968L296.166748,497.183990L296.066223,496.807404L295.894012,496.457672L295.656952,496.148254L295.364075,495.891052L295.026611,495.695892L294.657593,495.570343L294.271179,495.519196L293.882141,495.544403L293.505646,495.645020L293.155853,495.817200L292.846436,496.054260L292.589203,496.347137L292.394104,496.684601L292.268555,497.053619L284.517456,569.470520L284.498291,569.629761L284.514343,569.789429L284.564789,569.941711L284.647308,570.079346L284.757782,570.195618L284.891022,570.285034L285.040527,570.343201L285.199127,570.367371L393.102020,572.093262L393.264008,572.082336L393.419800,572.036865L393.562195,571.958862L393.684479,571.852051L393.780823,571.721375L393.846863,571.573120L413.115265,500.367340L413.225891,499.841156L413.226562,499.303497L413.117218,498.777039L412.902527,498.284058L412.591522,497.845459L412.197357,497.479706L411.736725,497.202332L411.229065,497.025055L410.695984,496.955353L294.258362,495.518829L293.869537,495.546570L293.493652,495.649567L293.145020,495.823975L292.837158,496.063049L292.581787,496.357605L292.388824,496.696289L292.265656,497.066071L292.217041,497.452850L292.244720,497.841644L292.347717,498.217590L292.522186,498.566223L292.761230,498.874084L293.055786,499.129395L293.394470,499.322388L293.764282,499.445557L294.151031,499.494232L407.071716,502.088806L392.593323,570.571594L286.142242,568.943115z" fill="#FEFEFE" stroke="none" fill-opacity="1" />
				<polyline points="301.587006,514.147583 293.426880,578.698608 390.383087,580.058960 406.070740,515.657471" fill="#DCD737" stroke="none" fill-opacity="1" />
				<polyline points="362.646820,422.097534 372.257568,402.565979 399.539642,379.004089 484.867340,508.728333 482.154999,533.562500 449.303772,557.835815 425.745697,574.647522 368.464478,597.105835 360.221497,589.451660 376.941589,580.314209 364.209534,576.993042 358.100525,566.183350 382.240753,567.949707 356.334167,563.828186 355.156586,552.641235 381.651947,552.052490 349.268738,549.108521 348.679962,540.276733 396.960358,534.977661 403.947723,530.195801 404.025757,521.435608 404.614563,516.725342 421.689331,526.145874 429.343597,546.753418 422.866943,526.145874 424.854156,521.508911 406.553253,495.658264 358.100555,437.239227" fill="#E99E4C" stroke="none" fill-opacity="1" />
				<path d="M358.421173,420.018250L358.096710,420.882599L357.947113,421.793610L357.978119,422.716339L358.188568,423.615265L358.570312,424.455841L359.108734,425.205811L359.783112,425.836365L360.567566,426.323212L361.431885,426.647644L362.342926,426.797211L363.265656,426.766235L364.164581,426.555786L365.005188,426.174042L365.755127,425.635651L366.385590,424.961273L366.872498,424.176819L375.813782,405.313782L398.971985,383.082031L480.257812,509.839355L478.878235,531.679321L447.766571,555.718933L424.894348,573.077026L369.237335,593.029358L365.942474,590.165405L377.938049,582.137512L378.307129,581.880310L378.612244,581.549683L378.839020,581.161133L378.976837,580.732910L379.019226,580.285034L378.964264,579.838562L378.814484,579.414307L378.576874,579.032349L378.262695,578.710388L377.886475,578.463623L377.466034,578.303650L365.965729,574.710327L362.460846,568.945801L382.173431,568.869385L382.360931,568.864014L382.543488,568.820740L382.713531,568.741455L382.863953,568.629395L382.988678,568.489136L383.082367,568.326660L383.141205,568.148560L383.162842,567.962158L383.146301,567.775269L383.092194,567.595642L383.002960,567.430664L382.882141,567.287109L382.734741,567.171021L382.566925,567.087158L382.385620,567.038940L358.523285,561.751892L357.500183,554.704407L381.671936,552.954346L381.852417,552.932007L382.024719,552.873901L382.181885,552.782471L382.317535,552.661377L382.426147,552.515503L382.503235,552.350830L382.545807,552.174072L382.552002,551.992310L382.521667,551.813049L382.456024,551.643494L382.357605,551.490601L382.230621,551.360474L382.080078,551.258423L381.912109,551.188721L381.733612,551.154053L351.219727,547.203979L350.745483,542.007568L397.129272,536.517090L397.834900,536.255676L405.033936,531.782959L405.380646,531.478638L405.644867,531.100586L405.811554,530.670410L405.870972,530.212952L404.270721,521.451965L406.355774,520.143555L419.713562,527.848083L427.162201,547.563660L427.374115,547.992798L427.669250,548.369446L428.035339,548.677795L428.456665,548.904785L428.915558,549.040710L429.392548,549.079834L429.867462,549.020630L430.320251,548.865601L430.731628,548.621094L431.084320,548.297607L431.363403,547.908813L431.557159,547.471191L431.657166,547.003174L431.659332,546.524658L431.563477,546.055664L425.444061,526.275330L427.059448,522.454041L427.226624,521.866638L427.240143,521.256042L427.098969,520.661865L426.812500,520.122559L408.460724,494.307892L361.494934,434.424011L360.880432,433.815887L360.159180,433.339355L359.358765,433.012634L358.510040,432.848389L357.645569,432.852875L356.798523,433.025909L356.001587,433.360901L355.285248,433.844879L354.677185,434.459351L354.200623,435.180634L353.873962,435.981018L353.709656,436.829773L353.714172,437.694244L353.887207,438.541290L354.222198,439.338257L354.706207,440.054504L404.697479,497.081512L422.119537,521.798706L420.642822,525.192749L420.450226,526.024536L420.558502,526.871399L428.589355,544.552002L423.981232,525.294678L423.541656,524.550171L422.870392,524.005249L405.654022,514.841309L405.224579,514.661865L404.766571,514.578918L404.301453,514.596436L403.851013,514.713623L403.436249,514.924866L403.076630,515.220337L402.788971,515.586304L402.586731,516.005493L402.479401,516.458435L403.782593,521.405212L402.033478,529.175293L396.405823,533.480652L348.467621,538.342529L348.053802,538.434387L347.669617,538.613708L347.333435,538.871948L347.061188,539.196899L346.865753,539.573120L346.756409,539.982666L346.738373,540.406189L347.199951,549.246460L347.289307,549.725586L347.488007,550.170532L347.785065,550.556885L348.164154,550.863159L348.604218,551.072510L349.081024,551.173401L365.669342,551.505310L355.109619,550.527100L354.616211,550.596802L354.152740,550.780029L353.745056,551.066650L353.415771,551.440674L353.183075,551.881409L353.060089,552.364380L353.053558,552.862671L353.952881,564.078857L354.063507,564.588013L354.281616,565.061157L354.596863,565.475952L354.994385,565.812744L355.455383,566.055542L355.957947,566.192871L360.610260,565.442322L358.278320,563.752930L357.753754,563.771240L357.245209,563.901428L356.776337,564.137573L356.368988,564.468567L356.041931,564.879150L355.810425,565.350220L355.685120,565.859985L355.671906,566.384766L355.771423,566.900146L355.978973,567.382324L361.900696,578.297852L362.326874,578.860962L362.886627,579.291565L363.540161,579.559204L371.348969,581.002686L358.605499,586.494568L358.023682,586.897095L357.538727,587.412354L357.172119,588.017456L356.939819,588.685730L356.852264,589.387817L356.913177,590.092651L357.119965,590.769287L357.463379,591.387817L357.928467,591.921021L366.074005,599.680237L366.706787,600.147583L367.427765,600.462463L368.200684,600.609009L368.986877,600.579895L369.746857,600.376526L426.392822,576.298096L450.823456,559.965210L484.212219,536.346802L484.891388,535.682922L485.364624,534.859497L485.596344,533.938416L489.302490,509.212769L489.204681,507.682922L488.594879,506.276489L401.808075,377.511963L401.442017,377.066772L400.990295,376.708862L400.473145,376.454407L399.913971,376.314819L399.337860,376.296387L398.770935,376.399963L398.238556,376.620911L397.764862,376.949158L369.378967,399.232910L368.306000,400.621582z" fill="#000000" stroke="none" fill-opacity="1" />
				<polyline points="498.547150,232.049683 506.440186,222.241821 514.821655,219.961304 517.294922,230.526489 513.333130,248.966309" fill="#E99E4C" stroke="none" fill-opacity="1" />
				<path d="M496.573334,230.461182L496.301331,230.876770L496.115753,231.337463L496.023438,231.825439L496.028259,232.322144L496.129822,232.808350L496.324310,233.265381L496.604187,233.675659L496.958710,234.023499L497.374359,234.295471L497.834991,234.481079L498.323029,234.573364L498.819733,234.568604L499.305878,234.467041L499.762878,234.272583L500.173187,233.992676L500.521057,233.638123L508.195312,224.924133L512.378662,224.059265L513.809631,230.558411L511.068817,248.479858L511.017395,248.930908L511.055023,249.383362L511.180145,249.819763L511.388000,250.223389L511.670654,250.578735L512.017212,250.872070L512.414246,251.092163L512.846680,251.230591L513.297668,251.281982L513.750122,251.244385L514.186584,251.119263L514.590271,250.911377L514.945496,250.628784L515.238892,250.282288L515.458984,249.885193L515.597351,249.452759L520.619934,231.240845L520.606262,229.751343L518.047302,219.206177L517.790955,218.492188L517.378845,217.855286L516.832703,217.328735L516.181030,216.940308L515.458191,216.710205L514.701904,216.650696L513.951904,216.764709L505.639679,219.299683L504.770691,219.690369L504.064758,220.330139z" fill="#000000" stroke="none" fill-opacity="1" />
				<polyline points="461.122559,379.863098 459.906616,321.333618 453.945404,302.669556 464.920746,282.906311 459.030945,279.509033 452.499054,278.809265 456.815674,291.808594 446.783630,293.838684 435.973297,277.583374 443.659088,266.550354 453.759827,254.952087 459.030640,244.484375 459.972534,231.846069 493.190491,228.209167 516.435425,252.697754 497.985718,304.459229 498.236938,317.773499 519.666931,392.995117 509.812195,415.884583 469.825989,403.426758 384.344788,348.758972 418.769592,302.906555 459.626251,329.437744" fill="#E99E4C" stroke="none" fill-opacity="1" />
				<path d="M459.846130,379.889587L459.875793,380.138123L459.953430,380.376038L460.075958,380.594299L460.238708,380.784424L460.435455,380.939148L460.658569,381.052551L460.899536,381.120178L461.149170,381.139587L461.397614,381.109802L461.635620,381.032227L461.853821,380.909668L462.043976,380.746948L462.198730,380.550232L462.312103,380.327026L462.379700,380.086121L462.399109,379.836548L462.147705,321.287048L456.219086,302.895142L465.976501,283.492615L466.079742,283.245728L466.126038,282.982056L466.113129,282.714722L466.041626,282.456848L465.915131,282.220947L465.739685,282.018799L465.524139,281.860229L459.811951,278.155029L459.197449,277.954834L452.708496,276.853760L452.272766,276.855591L451.848175,276.953430L451.455505,277.142273L451.114044,277.412964L450.840576,277.752197L450.648468,278.143372L450.547302,278.567139L450.541901,279.002869L450.632538,279.429077L454.231903,290.311096L447.744415,291.515442L438.730988,277.613098L445.377655,267.890930L455.303802,256.296692L460.870880,245.411011L461.085327,244.637512L461.879059,233.687683L492.216309,230.867859L513.559326,253.306152L494.988464,303.390930L494.653717,317.841125L513.709167,392.610291L507.105255,409.999451L470.867950,401.187317L389.950317,347.745239L419.359100,306.232300L458.413574,331.305237L458.801208,331.505981L459.220490,331.627197L459.655426,331.664307L460.089264,331.615784L460.505280,331.483643L460.887512,331.272827L461.221283,330.991516L461.493774,330.650513L461.694427,330.262878L461.815704,329.843506L461.852753,329.408569L461.804291,328.974792L461.672089,328.558716L461.461273,328.176514L461.179993,327.842773L460.838959,327.570251L420.113800,300.836487L419.642029,300.597656L419.130157,300.464783L418.601624,300.444031L418.080902,300.536316L417.591766,300.737427L417.156738,301.038147L416.795807,301.424622L381.246674,346.432983L380.790070,347.218689L380.528992,348.089172L380.477966,348.996521L380.639740,349.890808L381.005310,350.722778L381.554657,351.446716L382.257568,352.022705L468.507111,405.489075L508.380402,420.480286L509.534882,420.690155L510.705811,420.614471L511.823639,420.257690L512.822083,419.641113L513.641479,418.801270L514.233459,417.788086L524.832764,395.219238L525.279541,393.357666L525.075989,391.454163L501.811279,317.239868L501.178131,304.980225L518.794922,253.538757L518.934692,252.865356L518.886047,252.179321L518.652649,251.532410L518.252197,250.973267L495.030426,226.462524L494.416992,225.988403L493.688965,225.721680L492.914368,225.687317L459.750671,229.820068L459.292297,229.924805L458.870087,230.131775L458.506561,230.430054L458.221069,230.803711L458.028778,231.232849L457.940002,231.694580L457.006409,243.923218L452.046875,253.801453L442.017975,265.121094L434.102753,276.280212L433.847412,276.760315L433.712921,277.287109L433.707031,277.830750L433.830048,278.360352L434.075073,278.845764L445.046234,294.994080L445.365631,295.369324L445.764099,295.659119L446.219543,295.847473L446.706299,295.923706L447.197479,295.883728L457.208466,293.749451L457.607056,293.623779L457.970459,293.417236L458.282349,293.139038L458.528931,292.801575L458.699249,292.419800L458.785553,292.010864L458.784180,291.592896L458.695007,291.184509L455.328827,281.090332L458.536011,281.028015L463.288086,283.358765L452.111786,301.651245L451.905609,302.181335L451.849548,302.747375L451.947479,303.307617L457.672272,321.705566z" fill="#000000" stroke="none" fill-opacity="1" />
				<polyline points="459.030640,244.484375 485.222076,238.034668 495.391083,246.727661" fill="#E99E4C" stroke="none" fill-opacity="1" />
				<path d="M458.537994,242.483826L458.157135,242.618347L457.809875,242.824585L457.509521,243.094666L457.267670,243.418152L457.093506,243.782532L456.993805,244.173950L456.972321,244.577271L457.030060,244.977112L457.164612,245.357910L457.370911,245.705139L457.640930,246.005493L457.964355,246.247437L458.328735,246.421570L458.720245,246.521240L459.123535,246.542664L459.523315,246.484985L484.712860,240.181152L494.738129,247.491394L494.899689,247.604065L495.080170,247.683044L495.272461,247.725342L495.469391,247.729309L495.663269,247.694763L495.846802,247.623108L496.012695,247.516968L496.154755,247.380493L496.267456,247.218933L496.346466,247.038574L496.388733,246.846191L496.392670,246.649292L496.358185,246.455322L496.286469,246.271912L496.180359,246.105957L496.043915,245.963928L486.497253,236.542969L486.110962,236.285156L485.675049,236.125244L485.213715,236.072266L484.752777,236.129150z" fill="#000000" stroke="none" fill-opacity="1" />
				<polyline points="454.434235,255.112610 477.337311,252.298340 487.988342,257.912903" fill="#E99E4C" stroke="none" fill-opacity="1" />
				<path d="M454.185699,253.090271L453.795959,253.177612L453.430786,253.339355L453.104126,253.569153L452.828583,253.858337L452.614716,254.195679L452.470764,254.568298L452.402313,254.961792L452.411957,255.361084L452.499237,255.750793L452.661011,256.116028L452.890839,256.442688L453.179962,256.718262L453.517273,256.932129L453.889862,257.075989L454.283417,257.144470L454.682678,257.134888L477.192780,253.085999L487.988342,257.912903L477.693726,251.622253L477.475220,251.546631L477.244110,251.539795z" fill="#000000" stroke="none" fill-opacity="1" />
				<polyline points="443.659088,266.550354 459.677094,261.526978 477.828003,269.695801" fill="#E99E4C" stroke="none" fill-opacity="1" />
				<path d="M443.007904,264.473755L442.615234,264.640747L442.262756,264.881042L441.963989,265.185547L441.730316,265.542480L441.570709,265.938110L441.491425,266.357361L441.495361,266.783997L441.582520,267.201599L441.749512,267.594238L441.989777,267.946716L442.294281,268.245544L442.651215,268.479248L443.046936,268.638794L443.466095,268.718140L443.892761,268.714111L444.310364,268.626953L459.572754,263.278503L477.828003,269.695801L460.350128,260.031494L459.774628,259.889893L459.186310,259.962158z" fill="#000000" stroke="none" fill-opacity="1" />
				<polyline points="246.656631,363.426941 246.748535,408.307251 193.723068,510.251373 163.015457,513.644226 193.369110,510.443695 262.583405,548.062622 289.264008,516.009216 301.070343,519.134644 300.767914,530.612793 307.035187,535.742676 348.566467,537.811768 349.615753,546.866089 341.934967,552.344177 312.553314,558.616577 339.769714,553.455322 335.422333,565.429077 309.751892,571.558105 332.887939,568.303528 323.980652,580.518921 305.469971,584.097778 316.919159,583.917969 303.493103,591.782288 266.849609,592.300964 246.631210,589.467529 129.656754,558.135742 137.066711,505.969025 205.786819,348.591553" fill="#E99E4C" stroke="none" fill-opacity="1" />
				<path d="M250.150528,363.419800L250.081970,362.738220L249.881790,362.083252L249.557739,361.479858L249.122101,360.951294L248.591812,360.517822L247.987045,360.196228L247.331238,359.998718L246.649429,359.932983L245.968018,360.001526L245.312912,360.201721L244.709518,360.525818L244.181000,360.961426L243.747589,361.491760L243.425888,362.096436L243.228424,362.752319L243.162674,363.434082L242.995682,407.393738L192.030121,507.780060L162.963043,513.170105L162.865768,513.191345L162.775040,513.232300L162.694748,513.291138L162.628448,513.365417L162.578995,513.451843L162.548508,513.546631L162.538452,513.645691L162.549149,513.744690L162.580078,513.839294L162.630127,513.925415L162.696869,513.999268L162.777496,514.057678L162.868469,514.098022L162.965958,514.118652L163.065491,514.118652L192.839066,513.107788L261.512024,550.033691L261.987640,550.225525L262.494354,550.304321L263.005676,550.265930L263.494934,550.112488L263.936615,549.851929L264.307617,549.497864L290.008362,518.341675L300.664062,519.438843L299.004578,530.566284L299.071350,531.095825L299.293549,531.581177L299.650665,531.977783L306.065399,536.927490L306.484558,537.171387L306.958954,537.271912L346.837830,539.657715L347.469940,545.913147L341.050049,550.335327L312.413330,557.960754L312.280975,558.003784L312.160370,558.073242L312.056641,558.166016L311.974396,558.278198L311.917023,558.405029L311.887054,558.540894L311.885773,558.680115L311.913269,558.816528L311.968323,558.944336L312.048584,559.057983L312.150574,559.152710L312.269928,559.224243L312.401489,559.269653L312.539551,559.286987L312.678223,559.275391L336.381409,556.338196L333.502075,563.276672L309.537628,570.660889L309.361053,570.722595L309.200500,570.818604L309.062683,570.945068L308.953186,571.096680L308.876495,571.267334L308.835815,571.449829L308.832825,571.636902L308.867645,571.820679L308.938751,571.993652L309.043335,572.148743L309.177063,572.279541L309.334381,572.380676L309.508911,572.447998L309.693481,572.478638L309.880341,572.471558L327.232819,571.695312L322.364105,577.973755L305.106171,582.216125L304.743591,582.324280L304.409302,582.501587L304.116364,582.741089L303.876190,583.033447L303.698181,583.367310L303.589172,583.729614L303.553467,584.106323L303.592529,584.482727L303.704773,584.844055L303.885803,585.176331L304.128571,585.466553L304.423615,585.703430L304.759460,585.877686L305.122955,585.982605L305.500061,586.014038L307.015198,586.688721L302.726776,589.034912L267.024414,589.509094L247.151550,586.907104L135.675552,554.157959L140.870590,507.048065L207.846329,349.490784L207.982224,349.071777L208.033691,348.634277L207.998825,348.195068L207.878983,347.771179L207.678711,347.378784L207.405777,347.033020L207.070633,346.747131L206.686081,346.532104L206.267014,346.396240L205.829514,346.344727L205.390396,346.379578L204.966446,346.499451L204.574112,346.699707L204.228287,346.972595L203.942398,347.307800L203.727356,347.692261L133.476196,504.401184L124.310760,557.376404L124.284454,558.678040L124.570389,559.948120L125.152008,561.112915L125.995529,562.104614L127.051880,562.865540L128.259705,563.351501L245.956497,591.986511L266.462494,595.063110L303.532135,594.539917L304.887024,594.161987L318.240753,586.174255L318.666779,585.863037L319.021667,585.472656L319.290985,585.018921L319.463684,584.520386L319.532837,583.997437L319.495544,583.471069L319.353394,582.963013L319.112183,582.493774L318.781677,582.082581L318.375305,581.746094L317.909698,581.497925L317.403778,581.348389L316.878113,581.303345L307.376251,583.900024L324.513275,583.273560L325.178040,583.056274L325.768372,582.681335L326.247681,582.171997L334.965302,569.818237L335.238373,569.345459L335.405334,568.825562L335.458832,568.282166L335.396332,567.739746L335.220673,567.222717L334.939880,566.754456L334.566467,566.356079L334.117340,566.045532L333.612762,565.836853L333.075531,565.739380L332.529816,565.757568L328.916901,567.930664L336.012085,567.899170L336.598206,567.679932L337.112885,567.324097L337.524963,566.853149L337.809357,566.295776L341.838623,554.206543L341.949951,553.757324L341.964935,553.294800L341.882812,552.839355L341.707275,552.411072L341.446106,552.029053L341.110809,551.710083L340.716278,551.468262L340.279877,551.314209L339.820831,551.254883L339.359619,551.292847L313.210693,558.484070L342.383698,554.446106L343.182983,554.094055L350.789825,548.512207L351.182098,548.144653L351.463593,547.686768L351.614502,547.170837L351.624207,546.633362L350.483246,537.589661L350.379303,537.150757L350.176361,536.747986L349.885468,536.403320L349.522461,536.135620L349.107208,535.959473L348.662476,535.884521L307.614899,534.238525L302.553986,529.795288L301.468231,519.145081L301.460754,519.056763L301.433807,518.972351L301.388916,518.895996L301.328308,518.831421L301.254791,518.781860L301.172211,518.749756L289.792297,514.013672L289.329468,513.945923L288.863251,513.984192L288.417633,514.126404L288.015503,514.365234L287.677460,514.688538L262.037048,545.212341L194.607758,508.164703L193.875275,507.899689L193.097122,507.864136L163.489700,513.593018L194.013184,512.877625L194.642242,512.728577L195.216232,512.431213L195.700912,512.003418L196.067139,511.470642L250.076309,410.038208L250.499619,408.299622z" fill="#000000" stroke="none" fill-opacity="1" />
				<polyline points="211.197296,357.724792 157.666550,405.902222 145.176086,391.627441 117.518585,389.843079 146.960449,392.519653 199.598969,465.677979 212.981598,440.697083 241.531296,421.069244 271.865356,429.098816 270.081024,446.050140 245.992157,437.128418 229.932922,446.942322 253.398453,439.804932 280.885345,463.001465 275.649658,475.491913 249.132645,454.380920 230.255447,463.512238 251.750427,453.488739 275.649658,476.384094 267.796326,487.982361 248.162735,476.384094 229.040787,481.737152 250.780579,477.276276 259.374847,494.227600 254.021744,503.149353 238.854691,496.904114 211.197189,512.071106 181.755371,496.904114 71.125298,432.667511 89.860985,388.058716 161.235321,323.822083 221.011246,351.479553" fill="#E99E4C" stroke="none" fill-opacity="1" />
				<path d="M212.733597,359.431824L213.037125,359.099365L213.269897,358.713989L213.423096,358.290588L213.490723,357.845520L213.470184,357.395691L213.362305,356.958618L213.171295,356.550964L212.904327,356.188416L212.571793,355.884949L212.186462,355.652100L211.763153,355.498962L211.317963,355.431335L210.868256,355.451782L210.431107,355.559692L210.023453,355.750793L209.660934,356.017700L157.801117,403.646423L145.836380,391.049622L145.663834,390.898071L145.457840,390.796509L145.232635,390.751831L117.605278,388.499451L117.326340,388.510437L117.055672,388.578674L116.804863,388.701294L116.584785,388.873047L116.404846,389.086365L116.272789,389.332275L116.194229,389.600159L116.172607,389.878540L116.208809,390.155273L116.301262,390.418640L116.446175,390.657288L116.637138,390.860901L116.865936,391.020813L117.122810,391.130066L117.396675,391.184021L146.458786,393.398132L198.525665,466.450226L198.725067,466.670319L198.968735,466.840332L199.244125,466.951691L199.537354,466.998779L199.833725,466.979187L200.118225,466.893982L200.376633,466.747345L200.595627,466.546783L200.764481,466.302368L214.346848,441.919281L242.103943,424.370056L268.211700,431.617584L268.906219,444.157959L246.756119,435.065582L246.110077,434.931824L245.453384,434.995697L244.845169,435.251373L229.443069,446.140625L229.289185,446.257996L229.162704,446.404419L229.068817,446.573578L229.011627,446.758453L228.993500,446.951050L229.015182,447.143341L229.075867,447.327057L229.172791,447.494507L229.302048,447.638458L229.458038,447.752960L229.634186,447.833038L229.822983,447.875366L230.016464,447.878082L230.206390,447.841156L252.760086,442.908661L278.937988,463.470734L275.149139,473.537476L250.503601,452.658813L250.085663,452.396759L249.619888,452.234344L249.129593,452.179779L248.639496,452.235687L248.174118,452.399384L230.255447,463.512238L251.328308,456.042419L274.069427,476.551941L267.211731,485.380432L249.324600,474.417267L248.760468,474.179291L248.153336,474.099762L247.546982,474.184296L228.990799,481.558716L228.955627,481.572601L228.923950,481.593353L228.897110,481.620117L228.876328,481.651764L228.862427,481.686981L228.855927,481.724304L228.857208,481.762146L228.866074,481.798950L228.882324,481.833191L228.905090,481.863373L228.933655,481.888306L228.966660,481.906952L229.002716,481.918457L229.040390,481.922424L229.078033,481.918671L249.546005,479.834808L257.345520,494.155334L253.075928,500.294128L239.674515,494.913147L239.055069,494.760315L238.418091,494.795715L237.819427,495.016205L211.158768,509.103210L182.952545,494.717224L79.251633,429.942444L93.476601,390.627991L161.851868,327.908813L220.005920,353.652405L220.449127,353.806824L220.913910,353.871765L221.382446,353.844788L221.836792,353.726929L222.259354,353.522644L222.633957,353.239868L222.946182,352.889465L223.184052,352.484924L223.338470,352.041687L223.403442,351.576843L223.376450,351.108276L223.258530,350.653992L223.054352,350.231384L222.771576,349.856812L222.421158,349.544617L222.016571,349.306702L162.684052,320.691040L161.921173,320.440918L161.121094,320.374023L160.327286,320.493774L159.582626,320.793762L158.927368,321.257751L86.965492,384.841431L85.870323,386.382629L65.190392,430.174835L64.767670,431.659546L64.710434,433.202179L65.022224,434.714081L65.685020,436.108307L66.660599,437.304565L67.892990,438.234253L180.503815,499.059509L209.997009,514.400879L210.596207,514.622070L211.231171,514.691650L211.864029,514.605591L212.457367,514.369019L238.987091,499.287201L253.153656,505.257629L253.672516,505.402466L254.210892,505.421509L254.738678,505.313690L255.226517,505.085052L255.647018,504.748352L255.976837,504.322388L260.898834,495.141998L261.078827,494.732422L261.150940,494.290863L261.110504,493.845276L260.960022,493.423950L252.794662,476.255157L252.527115,475.844879L252.177383,475.501953L251.761963,475.242523L251.300369,475.078735L250.814316,475.018372L250.326675,475.064209L234.145386,480.500549L247.840057,478.846649L266.808075,489.655212L267.188782,489.827881L267.597717,489.915131L268.015808,489.912872L268.423706,489.821198L268.802582,489.644440L269.134827,489.390686L269.405121,489.071716L276.655304,477.064972L276.785675,476.813629L276.854248,476.538910L276.857330,476.255798L276.794830,475.979645L276.670074,475.725464L276.489777,475.507111L253.228134,451.946259L252.819000,451.639160L252.348602,451.438110L251.843918,451.354706L251.333878,451.393677L250.847656,451.552826L230.255447,463.512238L248.844788,456.965332L274.891510,476.444214L275.129486,476.592407L275.395020,476.682190L275.674011,476.708893L275.951721,476.671082L276.213470,476.570740L276.445251,476.413177L276.634888,476.206787L276.772308,475.962494L282.374420,463.625610L282.483307,463.232483L282.490204,462.824554L282.394653,462.427948L282.202637,462.067993L281.926666,461.767578L255.193756,437.677551L254.613953,437.300629L253.959198,437.078308L253.269791,437.024231L252.588379,437.141693L236.719330,443.896118L246.228729,439.561737L269.606445,447.331482L269.907745,447.405518L270.218018,447.409668L270.521240,447.343658L270.801758,447.210999L271.045074,447.018433L271.238647,446.775970L271.372589,446.496063L271.439911,446.193176L275.216705,429.451569L275.206177,428.657684L275.010284,427.888306L274.639801,427.186127L274.115234,426.590088L273.465942,426.133301L272.727692,425.841125L242.310333,418.126160L241.445297,418.026031L240.587296,418.174866L239.806534,418.560486L211.972839,439.229736L211.412048,439.856201L199.434311,463.185272L147.707535,391.982117L147.525864,391.793518L147.298508,391.663635L147.043747,391.603027L118.860970,389.947388L144.755829,392.479553L156.472473,406.947083L156.737473,407.188477L157.049911,407.364197L157.393768,407.465332L157.751663,407.486633L158.105118,407.427124L158.436172,407.289795L158.727966,407.081665z" fill="#000000" stroke="none" fill-opacity="1" />
				<polyline points="330.749146,267.615051 383.387634,280.105469 435.413940,307.657227 394.985962,381.813538 363.759735,413.039673 325.396027,429.990967 279.002808,418.392700 223.687744,389.843079 137.146500,326.498657 187.108414,280.105530 254.021744,263.154236 234.393936,240.849854 221.903381,230.143799 265.620178,219.437683 320.042999,214.084595 345.916199,227.467163 357.514496,237.281128 340.563080,254.232483 331.641327,266.722900" fill="#D02514" stroke="none" fill-opacity="1" />
				<path d="M331.486450,264.507629L330.866058,264.423462L330.241211,264.461975L329.635803,264.621704L329.073242,264.896362L328.575043,265.275574L328.160370,265.744690L327.845215,266.285645L327.641693,266.877747L327.557526,267.498169L327.596069,268.123047L327.755707,268.728394L328.030426,269.291016L328.409637,269.789185L328.878754,270.203735L329.419708,270.518982L330.011749,270.722473L382.131561,283.442627L432.529083,308.525391L392.611847,380.037537L360.993988,409.003296L324.865051,423.798859L280.697266,413.900635L225.122086,387.525330L142.829315,326.167175L189.407257,284.331055L254.504959,265.061401L254.882111,264.923645L255.223358,264.712097L255.514618,264.435730L255.743698,264.105957L255.901077,263.736633L255.980179,263.342957L255.977722,262.941406L255.893784,262.548828L255.731888,262.181396L255.498795,261.854431L236.422760,239.064453L229.319824,231.913330L265.944855,221.339478L319.585266,216.469177L344.303223,229.877319L352.840454,237.475525L338.258972,251.928284L329.034607,264.861023L328.721436,265.405334L328.520477,266.000244L328.439453,266.622986L328.481506,267.249573L328.644958,267.855896L328.923553,268.418640L329.306610,268.916260L329.779358,269.329651L330.323700,269.642822L330.918671,269.843750L331.541382,269.924744L332.167908,269.882751L332.774261,269.719299L333.337067,269.440674L333.834656,269.057617L334.248016,268.584839L343.057983,256.345947L359.754303,239.520935L360.216309,238.934387L360.528320,238.255981L360.672791,237.523438L360.641693,236.777405L360.436951,236.059326L360.069733,235.409180L359.560516,234.863037L347.777588,225.267395L321.112701,212.016541L320.481934,211.798035L319.815094,211.767456L265.431824,217.522400L221.074982,226.760803L220.358887,227.021973L219.716888,227.432739L219.179443,227.973267L218.772583,228.617798L218.515625,229.335388L218.420898,230.091675L218.492966,230.850464L218.728302,231.575439L219.115814,232.231750L219.636749,232.788147L232.490707,242.778015L250.418289,262.037476L185.963898,275.587585L183.937088,276.690247L134.680527,323.843018L134.160034,324.445618L133.783768,325.147461L133.569885,325.914490L133.528564,326.709656L133.662003,327.494690L133.963638,328.231628L134.418976,328.884888L135.005905,329.422974L222.082672,392.035889L276.815582,422.630463L323.970276,435.693909L325.898254,435.847900L327.771881,435.367920L365.703644,417.439148L397.060944,383.888550L437.272980,308.670715L437.452972,308.228088L437.529022,307.756409L437.497406,307.279663L437.359680,306.822205L437.122955,306.407166L436.799225,306.055847L436.404877,305.786072L385.042908,276.979797z" fill="#E1DC39" stroke="none" fill-opacity="1" />
				<polyline points="225.437576,305.874512 224.932556,322.014587 282.766968,322.998657 278.646332,305.088196" fill="#DCD737" stroke="none" fill-opacity="1" />
				<polyline points="422.866943,526.145874 435.777252,507.448181 459.371796,509.228912" fill="#E99E4C" stroke="none" fill-opacity="1" />
				<path d="M420.875793,524.771057L420.645782,525.185913L420.501160,525.637695L420.447479,526.109009L420.486786,526.581665L420.617493,527.037720L420.834717,527.459351L421.130066,527.830627L421.492096,528.137085L421.906952,528.367065L422.358734,528.511719L422.830109,528.565308L423.302765,528.526123L423.758698,528.395264L424.180420,528.178101L424.551727,527.882812L424.858185,527.520752L436.848694,509.691589L459.304626,510.118530L459.479462,510.114532L459.650208,510.076477L459.810181,510.005890L459.953430,509.905426L460.074188,509.778961L460.167969,509.631378L460.231232,509.468323L460.261383,509.296051L460.257446,509.121216L460.219421,508.950470L460.148773,508.790497L460.048279,508.647308L459.921814,508.526520L459.774231,508.432709L459.611176,508.369507L459.438904,508.339294L435.939514,505.297913L435.380249,505.328613L434.847809,505.502319L434.378082,505.807281L434.002747,506.222931z" fill="#000000" stroke="none" fill-opacity="1" />
				<polyline points="317.803589,218.563354 303.023743,269.173340 329.000519,336.354797" fill="#D02514" stroke="none" fill-opacity="1" />
				<path d="M322.454529,219.921631L322.630188,218.988159L322.620300,218.038330L322.425323,217.108765L322.052765,216.235107L321.516907,215.450806L320.838348,214.786255L320.043091,214.266724L319.161835,213.912354L318.228394,213.736816L317.278625,213.746704L316.349060,213.941650L315.475342,214.314209L314.691132,214.850098L314.026459,215.528687L313.507019,216.323853L313.152649,217.205078L300.788788,268.520691L300.697510,269.272095L300.852142,270.013062L328.158051,336.680603L328.237732,336.838684L328.346893,336.978149L328.480957,337.093689L328.635132,337.180847L328.803314,337.236267L328.979065,337.257751L329.155701,337.244629L329.326324,337.197266L329.484375,337.117554L329.623871,337.008484L329.739410,336.874329L329.826569,336.720154L329.881989,336.552002L329.903503,336.376282L329.890411,336.199646L329.843018,336.029053L305.479767,269.069092z" fill="#E1DC39" stroke="none" fill-opacity="1" />
			</g>
			<!--Layer: eyes-->
			<g id="eyes">
				<polyline points="291.959534,151.745911 311.755157,118.255798 333.064178,106.713379 345.494446,123.583130 359.700470,155.546631 349.316101,173.452332 329.335663,192.226379 298.948456,173.239929 290.446075,152.883057" fill="#381418" stroke="none" fill-opacity="1" />
				<polyline points="293.098724,150.755920 353.435486,150.755920 365.562714,154.669434 290.512024,151.606934 299.390747,172.028137 328.690704,187.122070 349.111847,172.916016 359.766418,156.046326" fill="#650F0A" stroke="none" fill-opacity="1" />
				<path d="M293.098724,148.352966L292.629944,148.399048L292.179169,148.535828L291.763672,148.757935L291.399536,149.056763L291.100739,149.420898L290.878601,149.836365L290.741852,150.287109L290.695740,150.755920L290.741852,151.224854L290.878601,151.675537L291.100739,152.091064L291.399536,152.455200L291.763672,152.754028L292.179169,152.976135L292.629944,153.112854L293.098724,153.158997L352.643921,155.786377L361.643768,153.970642L290.621185,148.930908L290.022400,148.973877L289.448181,149.149109L288.927399,149.447815L288.486298,149.854980L288.146973,150.350281L287.926514,150.908630L287.835907,151.502136L287.879761,152.100891L288.055908,152.674805L299.390747,172.028137L328.690704,187.122070L349.431671,173.375732L349.585297,173.215027L363.006805,158.092896L363.343750,157.421387L363.543304,156.697021L363.597687,155.947754L363.504822,155.202148L363.268311,154.489014L362.897247,153.835815L362.405762,153.267456L361.812927,152.805969L361.141418,152.468994L360.417145,152.269348L359.667755,152.215027L358.922211,152.307922L358.209106,152.544434L357.555878,152.915527L356.987518,153.406921L356.525970,153.999756L348.698975,172.520996L328.690704,187.122070L299.390747,172.028137L294.671570,154.457092L365.400360,158.646790L366.213501,158.596619L366.999390,158.381836L367.725128,158.011658L368.360229,157.501404L368.878174,156.872559L369.257233,156.151428L369.481598,155.368286L369.541809,154.555847L369.435364,153.748169L369.166656,152.979004L368.747101,152.280701L368.194092,151.682495L367.530853,151.209290L366.785217,150.881104L354.980408,145.968628z" fill="#000000" stroke="none" fill-opacity="1" />
				<path d="M311.492798,119.782288L331.696594,110.057922L343.718719,122.695312L333.664429,106.463318L333.348785,106.140259L332.965027,105.902100L332.535370,105.762695L332.084869,105.730225L331.639679,105.806458L331.225677,105.987122z" fill="#000000" stroke="none" fill-opacity="1" />
				<polyline points="313.268616,167.727783 341.055115,168.864868 339.279358,179.519409 314.418854,177.743652" fill="#DCD737" stroke="none" fill-opacity="1" />
				<polyline points="334.903931,142.278198 329.211945,116.882446 340.820709,143.330200" fill="#94150E" stroke="none" fill-opacity="1" />
			</g>
			<!--Layer: stripes-->
			<g id="stripes">
				<polyline points="196.797363,869.662598 205.157959,920.358887 215.350052,893.051270 248.068512,885.464478 213.807388,863.399841" fill="#381418" stroke="none" fill-opacity="0.966507196" />
				<polyline points="186.105942,807.878479 196.118164,871.438660 211.891113,835.979370 246.036087,823.669922 210.890717,795.737915" fill="#381418" stroke="none" fill-opacity="0.966507196" />
				<polyline points="203.993286,921.298218 209.626297,955.499939 212.568878,940.251831 239.167526,938.727600 212.712418,916.251709" fill="#381418" stroke="none" fill-opacity="0.966507196" />
				<polyline points="387.394745,839.072632 353.804108,871.767639 349.771484,895.902710 395.724915,882.641418 448.826569,903.673767 407.880035,855.464478" fill="#381418" stroke="none" fill-opacity="0.966507196" />
				<polyline points="363.483368,781.351562 388.805084,840.503418 409.616119,800.318359 463.858276,773.871216 398.051056,761.735718" fill="#381418" stroke="none" fill-opacity="0.966507196" />
				<polyline points="349.207397,904.712341 341.870514,938.589417 363.351929,932.427124 406.709412,947.930725 372.407196,910.199463" fill="#381418" stroke="none" fill-opacity="0.966507196" />
				<polyline points="338.063019,204.124146 345.066498,213.958008 345.514252,197.120667 337.818359,195.263062 302.906311,210.860779" fill="#381418" stroke="none" fill-opacity="0.966507196" />
				<polyline points="260.167725,192.533752 280.803070,214.286072 281.500946,192.255493 298.404785,172.748657 270.476868,179.015808" fill="#381418" stroke="none" fill-opacity="0.966507196" />
				<polyline points="387.747437,193.101257 363.981476,209.039673 366.414215,192.823059 349.510315,173.316223 377.438263,179.583374" fill="#381418" stroke="none" fill-opacity="0.966507196" />
			</g>
		</g>
	</g>
</svg>
