<?xml version="1.0" encoding="UTF-8"?>
<!-- Generator: Blender, SVG Export for Grease Pencil - v2.0 -->
<!DOCTYPE svg PUBLIC "-//W3C//DTD SVG 1.1//EN" "http://www.w3.org/Graphics/SVG/1.1/DTD/svg11.dtd">
<svg version="1.1" x="0px" y="0px" xmlns="http://www.w3.org/2000/svg" width="1920.000000px" height="1080.000000px" viewBox="0 0 1920.000000 1080.000000">
	<g id="blender_frame.2">
		<g id="blender_object.Stroke.001.2.uuid_0x0">
			<g id="layer.Color.uuid_0x1" />
			<g id="layer.Lines.uuid_0x2">
				<polyline points="360.420776,1223.778076 449.737671,1208.378662 539.054626,909.629028 531.354797,814.922363 495.166077,751.784546 474.376770,741.004944 334.241638,786.433350 305.752655,817.232300 298.052917,996.636047 274.953705,1205.298828" fill="#000000" stroke="none" fill-opacity="1" />
				<polyline points="375.803345,798.146729 357.609497,785.151123 358.475830,773.021851 413.923828,790.349365" fill="#000000" stroke="none" fill-opacity="1" />
				<path d="M374.200745,800.390381L374.669281,800.659912L375.181335,800.832886L375.717377,800.902588L376.256683,800.866516L376.778534,800.725830L377.262970,800.485962L377.691284,800.156250L378.046997,799.749390L378.316589,799.280884L378.489502,798.768799L378.559296,798.232788L378.523071,797.693481L378.382385,797.171570L378.142548,796.687256L377.812836,796.258911L377.405945,795.903076L360.469849,783.805847L360.977905,776.692505L413.101440,792.981140L413.630707,793.091003L414.171143,793.095520L414.702118,792.994507L415.203278,792.791809L415.655151,792.495300L416.040497,792.116272L416.344543,791.669434L416.555542,791.171814L416.665405,790.642517L416.669922,790.102051L416.568909,789.571106L416.366241,789.070007L416.069733,788.618103L415.690735,788.232727L415.243835,787.928711L414.746185,787.717651L359.298218,770.390137L358.689514,770.272949L358.070038,770.294678L357.471039,770.454224L356.922852,770.743591L356.453156,771.148071L356.085663,771.647339L355.839050,772.216003L355.725586,772.825439L354.859253,784.954712L354.898865,785.656067L355.114410,786.324585L355.491882,786.916992L356.006866,787.394775z" fill="#848FFE" stroke="none" fill-opacity="1" />
				<polyline points="334.760590,536.382568 444.653290,536.382568 443.754700,487.968384 410.357025,453.751282 436.911346,414.059570 345.894104,357.943542 263.088867,389.423218" fill="#1D1640" stroke="none" fill-opacity="0.977777719" />
				<path d="M334.760590,533.495178L334.197235,533.550659L333.655640,533.715027L333.156403,533.981873L332.718872,534.340942L332.359863,534.778442L332.093018,535.277588L331.928711,535.819214L331.873230,536.382568L331.928711,536.945862L332.093018,537.487488L332.359863,537.986633L332.718872,538.424194L333.156403,538.783325L333.655640,539.050110L334.197235,539.214417L334.760590,539.269897L444.653290,539.269897L445.303192,539.195801L445.919769,538.977234L446.471405,538.625610L446.929688,538.158752L447.271088,537.600708L447.478119,536.980225L447.540100,536.328979L446.641602,487.914734L446.537323,487.197876L446.257965,486.529480L445.820984,485.951599L414.059021,453.410400L441.691986,417.257874L442.294708,416.085388L442.614594,414.806396L442.634766,413.488220L442.354370,412.200073L441.787994,411.009521L440.965515,409.979309L439.930023,409.163391L349.412567,352.236755L347.534760,351.443115L345.505188,351.250549L343.511627,351.676819L262.062836,386.724365L261.556030,386.976318L261.108124,387.322388L260.736298,387.749207L260.454956,388.240356L260.274750,388.776917L260.202759,389.338379L260.241638,389.903076L260.389954,390.449280L260.641998,390.956116L260.988068,391.403992L261.414886,391.775818L261.906006,392.057190L262.442566,392.237366L263.003998,392.309326L263.568665,392.270447L264.114929,392.122131L345.188019,365.384338L428.811218,415.822754L407.957214,452.145813L407.657257,452.727539L407.496063,453.361755L407.481903,454.016052L407.615326,454.656799L407.889709,455.250916L408.290802,455.768127L440.889069,489.166138L441.711853,533.495178z" fill="#C1D2FE" stroke="none" fill-opacity="1" />
				<polyline points="464.868195,634.159607 354.733398,639.075012 217.206818,624.936768 232.630417,516.329651 249.550781,503.701355 487.331329,493.073120 486.476105,525.326721 508.968781,611.441223" fill="#000000" stroke="none" fill-opacity="1" />
				<polygon points="263.088867,389.423218 330.838593,409.953491 341.584961,469.962952 379.426758,514.657715 365.055634,704.904541 293.884094,699.429810 154.278717,661.106689 186.067032,505.311707 293.508514,452.617432" fill="#000000" stroke="none" fill-opacity="1" />
				<path d="M263.926178,386.659973L263.370941,386.549744L262.804932,386.549866L262.249908,386.660461L261.727020,386.877258L261.256470,387.191895L260.856354,387.592224L260.542114,388.062927L260.325592,388.585876L260.215302,389.141113L260.215485,389.707153L260.326080,390.262207L260.542847,390.785034L260.857483,391.255615L261.257812,391.655701L261.728516,391.970093L262.251495,392.186462L325.759918,414.470093L338.479828,470.518982L339.177429,472.001404L373.345154,516.629822L359.798309,698.779602L294.381592,696.572266L163.133469,655.668091L189.460678,507.934875L294.722687,455.092957L295.240814,454.762512L295.672943,454.325562L295.997498,453.803711L296.198456,453.222961L296.265747,452.612122L296.196045,452.001526L295.992920,451.421509L265.690460,388.170898L265.396240,387.687378L265.013184,387.270630L264.556274,386.936584L264.042969,386.698059L263.492950,386.564270L262.927521,386.540405L262.368164,386.627319L261.836548,386.821594L261.353027,387.115906L260.936279,387.498901L260.602173,387.955811L260.363678,388.469116L260.229950,389.019165L260.205963,389.584656L260.292908,390.143982L260.487244,390.675537L289.836975,451.347168L184.371933,501.855469L183.413605,502.522644L182.699432,503.446594L182.295242,504.542053L146.843262,659.589600L146.690765,661.209961L146.887268,662.825562L147.423767,664.362061L148.275604,665.748901L149.403534,666.922241L150.755722,667.828003L152.269882,668.424683L293.119812,702.214111L364.618103,710.591492L365.895721,710.546021L367.130981,710.217285L368.262146,709.621582L369.232117,708.789062L369.992371,707.761353L370.504608,706.590088L370.743164,705.334167L385.325745,515.103271L385.242737,513.575806L384.770874,512.120605L383.941681,510.835022L344.540588,468.571960L336.543091,408.931885L336.051758,407.422058L335.169128,406.102234L333.961365,405.071533L332.519257,404.407288z" fill="#848FFE" stroke="none" fill-opacity="1" />
				<polyline points="409.846405,453.301758 496.757599,488.887512 559.716919,665.447510 512.497498,690.083801 459.118958,696.242920 450.222504,516.261169 409.846405,454.670410" fill="#000000" stroke="none" fill-opacity="1" />
				<path d="M410.891144,450.750183L410.373322,450.595337L409.835175,450.544556L409.297455,450.599731L408.780853,450.758728L408.305237,451.015442L407.888824,451.360107L407.547638,451.779297L407.294800,452.257019L407.140015,452.774902L407.089233,453.312988L407.144318,453.850708L407.303345,454.367310L407.560120,454.842957L407.904694,455.259338L408.323883,455.600586L408.801697,455.853394L493.602478,491.900452L552.871521,662.763306L511.674530,687.403259L463.582581,690.978455L455.902130,515.980469L454.978271,513.143555L412.152283,453.158813L411.813080,452.738037L411.398285,452.391418L410.923859,452.132507L410.408051,451.971069L409.870605,451.913391L409.332306,451.961609L408.813690,452.113953L408.334778,452.364624L407.913940,452.703735L407.567383,453.118591L407.308441,453.593018L407.147034,454.108826L407.089294,454.646301L407.137543,455.184631L407.289917,455.703186L407.540527,456.182129L444.619171,518.085938L454.406555,696.475830L454.588715,697.561035L455.017151,698.574524L455.668884,699.461182L456.508179,700.172852L457.489410,700.670654L458.559326,700.927734L459.659729,700.929932L512.813538,692.822876L562.282471,670.364746L563.372498,669.618652L564.255188,668.635864L564.880493,667.472168L565.212830,666.193726L565.233337,664.872925L564.941040,663.584717L500.510010,487.549438L499.994324,486.564941L499.226746,485.761169L498.267090,485.200745z" fill="#848FFE" stroke="none" fill-opacity="1" />
				<polyline points="306.104004,277.789734 298.946991,366.988831 385.702637,405.013489 438.494476,369.203796 439.971161,277.649048" fill="#000000" stroke="none" fill-opacity="1" />
				<path d="M308.982025,278.020691L308.971771,277.454712L308.851349,276.901733L308.625366,276.382751L308.302277,275.917908L307.894989,275.525024L307.418701,275.219177L306.891937,275.012024L306.334808,274.911682L305.768982,274.921936L305.215942,275.042358L304.696960,275.268494L304.232086,275.591309L303.839203,275.998779L303.533325,276.475098L303.326172,277.001831L303.225861,277.558777L295.529022,366.714539L295.566040,367.560364L295.809174,368.371460L296.243652,369.098145L296.842987,369.696289L297.570496,370.129272L383.367798,410.340576L384.771362,410.754761L386.233948,410.805481L387.662842,410.489502L388.967712,409.826965L440.646698,372.376709L441.338318,371.775085L441.867432,371.026550L442.203735,370.173767L442.327942,369.265564L442.858154,277.695557L442.811737,277.131470L442.656311,276.587219L442.397491,276.083862L442.045502,275.640564L441.613861,275.274414L441.118988,274.999573L440.580078,274.826538L440.017731,274.762024L439.453644,274.808411L438.909424,274.963928L438.406006,275.222717L437.962708,275.574646L437.596619,276.006348L437.321747,276.501160L437.148834,277.040100L437.084229,277.602478L434.693115,367.149475L385.095764,398.397034L302.560303,364.828613z" fill="#848FFE" stroke="none" fill-opacity="1" />
				<polyline points="340.894135,272.337769 320.865234,274.605225 323.473724,357.283936 393.378723,345.401978 423.696503,359.666382 440.321381,287.537781" fill="#1D1640" stroke="none" fill-opacity="0.977777719" />
				<path d="M341.218933,275.206787L341.772430,275.088318L342.292145,274.864136L342.758179,274.542908L343.152527,274.136780L343.460175,273.661682L343.669128,273.135742L343.771423,272.578979L343.763214,272.013000L343.644745,271.459595L343.420502,270.939758L343.099213,270.473755L342.693237,270.079468L342.218048,269.771912L341.692047,269.562866L341.135315,269.460571L340.569366,269.468811L320.816406,274.174011L320.726440,274.194092L320.642761,274.232666L320.569092,274.288025L320.508728,274.357788L320.464569,274.438599L320.438416,274.527039L320.431488,274.618958L320.866760,357.366211L320.943329,357.916565L321.134796,358.438293L321.432373,358.907532L321.822632,359.303162L322.287842,359.606995L322.806824,359.805603L323.356140,359.889587L323.910767,359.855408L392.774750,349.825623L422.579010,362.041626L423.131989,362.229858L423.712860,362.291260L424.293030,362.222656L424.843567,362.027405L425.337341,361.715271L425.749786,361.301697L426.060669,360.807068L426.254395,360.255920L440.537903,287.587646L440.543457,287.544495L440.540497,287.501038L440.529144,287.458984L440.509827,287.419922L440.483154,287.385498L440.450317,287.356812L440.412537,287.335144L440.371277,287.321228L440.328094,287.315674L440.284607,287.318604L440.242584,287.330017L440.203583,287.349426L440.169067,287.375977L440.140472,287.408813L440.118713,287.446594L440.104828,287.487915L421.869507,355.905762L395.192322,341.547424L393.955048,341.181213L392.664917,341.202271L325.986328,354.211182L321.311554,274.991394z" fill="#C1D2FE" stroke="none" fill-opacity="1" />
				<polyline points="375.261749,323.923889 375.244080,326.795166 374.982635,329.679565 373.719330,334.478516 372.395996,338.950806 369.404694,342.704529 366.383759,346.225342 361.500732,346.724792 356.624786,347.063232 351.586029,345.412354 346.642670,343.646729 340.424713,338.434021 334.381409,333.135620 332.131165,328.474426 330.070282,323.779907 330.080383,319.631897 330.344543,315.516357 334.730896,314.517456 339.505829,313.620605 348.931213,314.936218 358.962250,316.447449 365.692352,318.191284 372.413605,320.126282" fill="#838EFE" stroke="none" fill-opacity="1" />
				<polygon points="398.192902,315.686890 403.647980,305.714172 411.289062,300.642395 418.957916,301.900269 424.683105,308.978516 426.897369,320.184021 424.963074,332.348145 419.509644,342.319092 411.859619,347.400574 404.192566,346.140869 398.465607,339.064453 396.260315,327.849182 397.448486,318.678650" fill="#838EFE" stroke="none" fill-opacity="1" />
				<polygon points="423.353149,371.014404 426.304626,365.451721 431.263977,362.291992 436.830048,362.425781 441.554718,365.721985 444.167297,371.405334 443.920990,377.869751 440.970459,383.431458 436.005646,386.596802 430.440674,386.461853 425.714905,383.166809 423.107758,377.477722 423.101593,372.622559" fill="#ACD4E8" stroke="none" fill-opacity="0.54999876" />
				<path d="M422.115082,370.357544L422.010742,370.611694L421.957977,370.881348L421.958771,371.156067L422.013214,371.425415L422.119171,371.678833L422.272461,371.906921L422.467377,372.100464L422.696289,372.252441L422.950439,372.356873L423.220062,372.409668L423.494751,372.408691L423.764069,372.354309L424.017578,372.248413L424.245544,372.095093L424.439240,371.900208L424.591156,371.671265L427.366058,366.432068L431.621460,363.575806L436.477386,363.502197L440.846802,366.313721L443.419769,371.554138L443.261688,377.692322L440.463013,382.962891L435.794952,385.840271L430.734924,385.563721L426.591003,382.435181L424.396667,377.195618L424.482269,372.729004L424.737793,371.231079L424.753418,370.956665L424.715271,370.684692L424.624817,370.425232L424.485352,370.188538L424.302551,369.983459L424.083099,369.817993L423.835663,369.698608L423.569702,369.629761L423.295380,369.614075L423.023346,369.652283L422.763916,369.742737L422.527222,369.882141L422.322113,370.065063L422.156769,370.284363L422.037292,370.531921L421.968445,370.797852L421.737610,372.409241L421.818542,377.479431L421.935730,378.014893L424.713715,383.625549L425.085022,384.070190L429.923065,387.204224L430.158936,387.321838L430.418732,387.366638L435.987457,387.347656L436.207245,387.320312L436.409546,387.230103L441.329529,383.994568L441.560455,383.744446L444.508911,378.181702L444.586090,377.895081L444.908112,371.433594L444.840912,371.095703L442.363708,365.350098L442.064240,364.991760L437.450592,361.536316L437.167694,361.395142L436.856079,361.341553L431.294495,361.017578L430.921906,361.063904L430.578979,361.216797L425.553864,364.273438L425.070343,364.796936z" fill="#FEFEFE" stroke="none" fill-opacity="1" />
				<polygon points="411.826782,351.996704 416.518890,343.153381 424.402893,338.130249 433.251587,338.342896 440.762695,343.582947 444.916199,352.618164 444.524384,362.894897 439.833923,371.736572 431.941193,376.768677 423.094238,376.554199 415.581360,371.315979 411.436737,362.271729 411.426819,354.553162" fill="#ACD4E8" stroke="none" fill-opacity="0.54999876" />
				<path d="M409.933563,350.992249L409.773987,351.380798L409.693298,351.793091L409.694519,352.213257L409.777740,352.625122L409.939697,353.012756L410.174225,353.361389L410.472229,353.657532L410.822174,353.889893L411.210846,354.049500L411.623199,354.130249L412.043304,354.128906L412.455170,354.045715L412.842834,353.883728L413.191406,353.649170L413.487579,353.351196L413.719940,353.001282L418.099426,344.613098L424.914581,339.967590L432.768799,339.816772L439.831543,344.361389L443.955627,352.809265L443.672577,362.665588L439.155060,371.109802L431.644348,375.703308L423.528839,375.227417L416.917267,370.200256L413.424988,361.836548L413.546234,354.716614L413.944183,352.327881L413.968109,351.908508L413.909729,351.492371L413.771362,351.095703L413.558197,350.733643L413.278564,350.420105L412.943085,350.167175L412.564697,349.984497L412.157928,349.879272L411.738525,349.855347L411.322418,349.913696L410.925751,350.052124L410.563660,350.265198L410.250183,350.544922L409.997192,350.880432L409.814575,351.258728L409.709259,351.665405L409.333099,354.225708L409.447937,362.274353L409.628723,363.100342L414.054779,372.015503L414.621002,372.693359L422.329559,377.651001L422.678040,377.824768L423.061829,377.890747L431.915527,377.826294L432.225037,377.787781L432.509888,377.660706L440.314301,372.489990L440.623230,372.155334L445.284180,363.297974L445.383850,362.927673L445.868073,352.654419L445.781677,352.220276L441.826752,343.093811L441.432739,342.622559L434.101257,337.125000L433.713867,336.931763L433.287292,336.858459L424.446808,336.306335L423.913391,336.372681L423.422485,336.591553L415.401062,341.398926L414.681213,342.178406z" fill="#FEFEFE" stroke="none" fill-opacity="1" />
				<polygon points="328.171692,278.299805 312.732056,274.003235 294.869843,268.398132 277.629791,261.952209 263.159027,255.053162 252.168671,247.919861 245.066666,240.817200 241.965759,233.949829 243.021423,227.510193 248.149643,221.712952 257.083008,216.694641 269.696228,212.620789 285.598480,209.641785 304.304718,207.818726 325.328796,207.234497 347.888275,207.912109 371.295380,209.803162 394.922119,212.876160 417.961823,217.011902 439.808807,222.063660 459.814758,227.921448 477.272034,234.394653 491.754761,241.298950 502.759979,248.438843 509.873718,255.546570 512.979248,262.416138 511.923340,268.855530 506.794098,274.652344 497.861664,279.671021 485.248627,283.745117 469.341553,286.721924 450.693512,288.551453 430.361084,289.248474 409.902252,288.922607 390.517792,287.739441 373.228668,286.034973 359.160767,284.305115 348.655243,282.827759 339.467316,281.087158 331.365997,279.132629" fill="#000000" stroke="none" fill-opacity="1" />
				<path d="M326.522369,284.226440L327.710297,284.434326L328.915955,284.406433L330.092926,284.143982L331.196198,283.656738L332.183197,282.963806L333.015991,282.091553L333.662628,281.073669L334.098267,279.949097L334.306122,278.761169L334.278320,277.555542L334.015747,276.378418L333.528625,275.275391L332.835602,274.288391L331.963440,273.455566L330.945435,272.808899L329.820953,272.373291L314.536530,267.906372L297.021240,262.136230L280.296356,255.668579L266.510284,249.065979L256.405853,242.686157L250.391129,237.137329L248.032852,233.151550L247.889572,229.822083L250.932205,225.159607L258.484894,219.901611L270.332245,215.123962L285.840240,211.342712L304.362854,208.748413L325.328522,207.485107L347.888275,207.912109L371.295380,209.803162L394.922119,212.876160L417.961823,217.011902L439.808807,222.063660L459.624084,228.496948L476.732056,235.671936L490.666901,243.242737L500.839142,250.812988L506.718475,257.729431L508.410431,263.018127L507.293152,266.656067L503.420959,270.473999L495.643524,274.597534L483.877380,278.345703L468.570221,281.303589L450.342926,283.249512L430.313385,284.040405L410.102875,283.705017L390.941284,282.431152L373.832764,280.581360L359.903839,278.666748L349.611664,277.029114L340.733643,275.202881L332.854309,273.202393L329.723633,272.346985L328.532471,272.158630L327.327484,272.206238L326.154846,272.488037L325.059753,272.993164L324.084351,273.702209L323.265961,274.588013L322.636017,275.616455L322.218903,276.747925L322.030457,277.939087L322.078125,279.144043L322.359863,280.316711L322.865082,281.411804L323.574158,282.387146L324.459839,283.205627L325.488220,283.835449L326.619751,284.252625L329.823578,285.048950L338.056030,286.936401L347.561646,288.600281L358.368835,289.936584L372.559052,291.480530L389.995361,293.038025L409.584229,294.132996L430.278107,294.454407L450.875458,293.859131L469.875336,292.163574L486.271332,289.209656L499.555145,284.914062L509.387695,279.268616L515.611816,272.119202L516.372070,270.968628L516.783569,269.652344L517.332336,263.129883L517.352661,261.839722L516.998901,260.598877L513.312988,253.991760L504.906586,246.290344L492.964569,239.434082L477.868164,233.143982L460.025360,227.353394L439.808807,222.063660L417.961823,217.011902L394.922119,212.876160L371.295380,209.803162L347.888275,207.912109L325.336334,206.984192L304.278900,206.888367L285.432068,207.933594L269.221649,210.087341L256.012634,213.380737L246.010513,217.904846L239.143021,224.079468L238.343994,225.288940L237.911591,226.672607L236.184891,233.002136L236.157761,234.713928L236.626801,236.360535L239.263687,243.437378L247.433060,252.654968L259.431458,260.796143L274.695007,268.107971L292.551727,274.597778L310.828705,280.068970z" fill="#848FFE" stroke="none" fill-opacity="1" />
				<polygon points="392.276337,728.017212 380.836609,728.067139 369.570557,726.880249 362.512207,724.115845 360.600372,720.116211 364.002869,715.368103 372.319519,710.429749 384.613312,705.887817 399.346771,702.320557 414.742706,700.149170 428.973724,699.602722 440.315094,700.778015 447.382965,703.543579 449.296326,707.543457 445.893799,712.291504 437.575623,717.229614 425.529327,721.737793 412.826935,725.056030 402.616028,726.959351 396.102173,727.820251 393.362579,727.975586" fill="#1D1640" stroke="none" fill-opacity="0.977777719" />
				<path d="M392.292267,731.661011L393.002899,731.587891L393.685455,731.377563L394.313965,731.038086L394.864166,730.582520L395.314880,730.028381L395.648895,729.396973L395.853271,728.712463L395.920227,728.001343L395.847015,727.290710L395.636749,726.608154L395.297241,725.979614L394.841675,725.429443L394.287537,724.978699L393.656036,724.644714L392.971649,724.440308L392.260529,724.373413L381.021240,724.399963L370.410858,723.433350L364.827728,721.625854L363.686432,720.388306L365.452240,716.947754L372.998230,711.853333L384.951172,706.996765L399.518341,703.218079L414.819733,701.010010L428.939270,700.664917L439.967865,702.208618L446.000183,705.031494L446.651306,707.310669L444.092041,710.327637L436.349335,714.670898L424.614075,718.848816L412.107422,721.837158L402.064758,723.495972L395.762512,724.218567L393.189880,724.341675L392.136719,724.376038L391.429047,724.473267L390.753876,724.706665L390.137390,725.067261L389.602875,725.541260L389.171295,726.110474L388.858917,726.752808L388.677948,727.443848L388.635193,728.156860L388.732391,728.864563L388.965851,729.539673L389.326477,730.156250L389.800415,730.690674L390.369598,731.122314L391.011993,731.434692L391.703033,731.615662L392.416016,731.658325L393.502014,731.610901L396.306976,731.432068L403.075378,730.434814L413.430908,728.296387L426.294250,724.666016L438.566193,719.876709L447.225403,714.534546L448.014130,713.810913L451.154144,708.874817L451.439575,708.337524L451.573120,707.743896L451.545380,707.136108L451.358154,706.557190L449.087433,702.728271L448.832092,702.331116L448.486267,702.009705L448.071503,701.784058L440.846710,699.419434L429.082977,698.548218L414.709564,699.286621L399.219330,701.416870L384.341034,704.763184L371.775208,708.956543L362.931641,713.563965L362.297363,714.145996L358.432495,718.562744L358.099548,719.189514L357.943695,719.881958L357.975952,720.590942L358.194122,721.266357L359.658508,725.479919L360.085785,726.144775L360.664581,726.683044L361.358704,727.060974L368.288361,730.154175L380.452484,731.713379z" fill="#C1D2FE" stroke="none" fill-opacity="1" />
				<polyline points="368.299042,314.541931 380.233673,321.169067 388.314575,311.263428 379.451721,317.258972" fill="#838EFE" stroke="none" fill-opacity="1" />
				<polyline points="191.781982,1228.074707 155.025742,889.421143 160.687469,869.761475 216.776276,866.101929 224.810654,870.979065 220.836868,928.337463 270.779053,925.078979 265.552887,832.785706 239.295334,820.609863 129.790131,821.581726 110.899719,851.363831 132.408768,1287.463501" fill="#000000" stroke="none" fill-opacity="1" />
				<polyline points="185.468231,815.321655 188.666168,712.375610 222.454834,694.181702 254.510727,725.371216 239.782349,824.138062" fill="#000000" stroke="none" fill-opacity="1" />
				<path d="M182.582245,815.232056L182.620255,815.796753L182.767639,816.343262L183.018784,816.850464L183.364166,817.298950L183.790344,817.671448L184.281006,817.953613L184.817291,818.134644L185.378555,818.207642L185.943314,818.169678L186.489883,818.022217L186.997086,817.771057L187.445526,817.425720L187.818085,816.999573L188.100189,816.508911L188.281235,815.972534L188.354187,815.411255L193.040085,715.081055L221.981461,697.568115L250.370483,726.768677L237.055206,823.731384L237.028381,824.271240L237.107239,824.805908L237.288910,825.315002L237.566360,825.778809L237.929138,826.179626L238.362976,826.501953L238.851425,826.733398L239.375671,826.865112L239.915558,826.892090L240.450226,826.813171L240.959259,826.631470L241.423126,826.353943L241.823898,825.991272L242.146240,825.557373L242.377686,825.068909L242.509415,824.544678L258.357025,725.944702L258.384247,725.026550L258.195251,724.127502L257.800781,723.297913L257.222626,722.583984L224.377609,692.205505L223.821426,691.786926L223.178116,691.520996L222.488770,691.424683L221.797195,691.504028L221.147629,691.754028L186.553635,708.452332L185.611450,709.131714L184.876785,710.031555L184.399628,711.090759L184.212509,712.237244z" fill="#848FFE" stroke="none" fill-opacity="1" />
				<polygon points="523.087036,707.177307 557.742126,723.638428 566.405884,753.095215 483.233765,815.474304 480.634674,792.082153 466.772644,771.289062 485.544098,749.918457 504.315613,728.547913" fill="#000000" stroke="none" fill-opacity="1" />
				<path d="M524.873230,703.416992L524.105286,703.140747L523.298279,703.019653L522.483093,703.058350L521.691162,703.255371L520.952820,703.603088L520.296509,704.088135L519.747375,704.691895L519.326721,705.391113L519.050537,706.159058L518.929504,706.966125L518.968201,707.781250L519.165161,708.573242L519.512756,709.311523L519.997925,709.967834L520.601562,710.516968L521.300903,710.937622L555.341492,725.688049L562.097534,751.664551L485.447296,810.358215L483.709167,791.740540L483.208466,790.366211L471.778168,771.621826L488.793762,752.772949L507.452911,731.303711L526.214844,709.924622L526.690674,709.261597L527.028015,708.518555L527.213989,707.723999L527.241333,706.908325L527.109070,706.103027L526.822144,705.338989L526.391846,704.645630L525.834412,704.049561L525.171448,703.573730L524.428406,703.236328L523.633728,703.050354L522.818115,703.023071L522.012756,703.155334L521.248779,703.442200L520.555481,703.872559L519.959351,704.429993L501.178223,725.792236L482.294556,747.064087L463.782166,768.662354L463.284637,769.371704L462.952393,770.171997L462.801147,771.025146L462.838135,771.890869L463.061554,772.728027L463.460846,773.496948L477.643372,793.171814L480.485931,815.779663L480.610229,816.346680L480.850311,816.875366L481.195343,817.342163L481.630310,817.726685L482.136047,818.011841L482.690063,818.185059L483.268097,818.238892L483.844635,818.170776L484.394318,817.983765L484.892731,817.686096L568.643555,756.078857L569.294983,755.453735L569.777100,754.690369L570.061584,753.833618L570.131836,752.933533L569.983765,752.042969L560.506348,722.825439L560.173279,722.092163L559.650330,721.479614L558.978333,721.035767z" fill="#848FFE" stroke="none" fill-opacity="1" />
				<polygon points="447.712433,840.599243 430.385010,847.530273 408.725647,875.254272 392.264496,873.521545 399.160950,850.932983 388.799011,874.387878 372.337799,866.590515 380.374268,826.647034 370.605072,864.857788 352.411224,853.594849 359.137787,806.963501 351.875793,826.380493 357.774994,815.295898 352.411224,840.599243 330.751831,831.069092 345.480133,792.948486 441.647797,777.353760 458.108948,797.280396 460.708099,827.603516" fill="#000000" stroke="none" fill-opacity="1" />
				<path d="M448.793518,843.301880L449.300018,843.039062L449.745514,842.682495L450.112793,842.245789L450.387970,841.745850L450.560272,841.201904L450.623108,840.634766L450.574097,840.066223L450.415100,839.518188L450.152283,839.011719L449.795654,838.566223L449.359039,838.198853L448.859100,837.923767L448.315155,837.751526L447.747986,837.688599L447.179443,837.737671L446.631439,837.896606L429.407959,845.087646L428.311829,845.910645L407.494019,872.352234L396.182678,870.927490L400.570923,851.363403L400.628510,851.072571L400.626831,850.776123L400.565765,850.485962L400.447876,850.213867L400.278015,849.970947L400.062836,849.766846L399.811310,849.609985L399.533447,849.506592L399.240479,849.460876L398.944305,849.474731L398.656891,849.547607L398.389893,849.676453L398.154114,849.856201L397.958954,850.079468L397.812469,850.337219L387.238831,870.194885L376.364044,864.570923L380.582489,826.688904L380.586670,826.645447L380.581879,826.602051L380.568237,826.560547L380.546448,826.522705L380.517395,826.490112L380.482239,826.464111L380.442535,826.445923L380.399994,826.436218L380.356323,826.435425L380.313446,826.443542L380.273041,826.460266L380.237030,826.484924L380.206787,826.516418L380.183685,826.553467L380.168427,826.594421L368.360443,859.287964L356.539368,851.668457L361.427490,807.293823L361.446167,806.811401L361.364319,806.335571L361.185486,805.887146L360.917511,805.485596L360.572021,805.148438L360.164062,804.890259L359.711456,804.722412L359.233765,804.652161L358.751984,804.682556L358.286957,804.812317L357.858978,805.035706L357.486755,805.343140L357.186371,805.721069L356.970978,806.153137L349.689087,825.562622L349.569946,826.015015L349.543396,826.481934L349.610413,826.944946L349.768433,827.385193L350.011047,827.785156L350.328491,828.128662L350.708038,828.402100L351.134491,828.594299L351.590668,828.697632L352.058319,828.708008L352.518646,828.624878L352.953125,828.451660L353.344421,828.195312L353.676819,827.866089L353.936768,827.477295L357.104309,817.139160L350.315735,836.511536L335.076691,829.272095L348.905121,797.171509L440.078613,781.525269L454.928467,798.580200L457.509674,826.436279L445.654175,838.540955L445.292206,838.982056L445.023193,839.485352L444.857544,840.031372L444.801666,840.599243L444.857544,841.167114L445.023193,841.713196L445.292206,842.216431L445.654236,842.657532L446.095276,843.019531L446.598511,843.288513L447.144592,843.454163L447.712433,843.510071L448.280365,843.454102L448.826416,843.288452L449.329651,843.019531L449.770752,842.657471L462.890930,829.786438L463.424438,829.070251L463.730591,828.231384L463.783844,827.339966L461.376801,797.000244L461.145020,796.039551L460.637573,795.191528L444.628906,774.891174L443.894684,774.206909L443.009247,773.734680L442.032013,773.506226L441.028931,773.536987L344.725189,788.292664L343.552155,788.643860L342.509094,789.285217L341.666260,790.173340L341.080444,791.248596L327.592865,829.848572L327.403687,830.560181L327.372833,831.295837L327.501740,832.020813L327.784271,832.700745L328.207062,833.303589L328.750183,833.800781L329.387909,834.168823L351.244232,843.251404L351.856964,843.443298L352.496918,843.495483L353.132721,843.405518L353.733032,843.177734L354.268402,842.823364L354.712677,842.359619L355.043884,841.809631L355.245789,841.200073L359.693817,815.702637L359.736389,815.304749L359.697388,814.906494L359.578278,814.524414L359.384155,814.174438L359.123047,813.871155L358.805817,813.627197L358.445648,813.452759L358.057617,813.354980L357.657776,813.338013L357.262817,813.402588L356.889221,813.545898L356.552399,813.762146L356.266541,814.042236L356.043488,814.374451L352.835175,824.252075L358.564178,809.204712L348.639404,853.050781L348.615356,853.932373L348.794617,854.795898L349.167542,855.595093L349.714233,856.287231L350.405365,856.835083L368.734253,867.879883L369.399689,868.201416L370.117188,868.378418L370.855927,868.403198L371.583710,868.274658L372.269165,867.998413L372.882721,867.586426L373.397858,867.056335L373.792145,866.431274L374.048645,865.738098L378.547852,834.647949L368.858826,865.890564L368.790039,866.670776L368.894073,867.447083L369.165863,868.181641L369.592163,868.838745L370.152252,869.386292L370.818756,869.797607L387.462708,877.208923L388.135406,877.438049L388.842590,877.509094L389.547394,877.418335L390.213531,877.170532L390.806183,876.778442L391.294891,876.262451L391.654205,875.649292L398.646942,852.314575L389.404846,872.648499L389.283203,873.294373L389.305634,873.951294L389.471069,874.587463L389.771393,875.172058L390.192322,875.676941L390.713348,876.077637L391.309357,876.354797L391.951508,876.495056L408.436951,877.996216L409.132874,877.981140L409.802734,877.792297L410.403961,877.441650L410.898285,876.951660L432.021179,849.709229z" fill="#848FFE" stroke="none" fill-opacity="1" />
				<polygon points="250.295517,806.096680 251.169891,848.621704 241.949341,882.262085 228.823929,880.897522 228.162857,845.969604 225.986893,823.110962 216.387939,849.586426 217.579712,877.196228 204.377289,879.075378 190.438797,844.457642 196.557831,820.098267 186.967560,846.568054 201.964203,877.263672 184.613983,876.500366 166.898804,853.936462 169.784790,825.722412 161.631943,836.581177 160.488968,858.834717 152.341980,858.377930 144.052460,841.777344 144.819489,816.883362 154.479507,809.042847 168.735291,807.320740 180.506683,806.415894 193.256226,805.140015 204.496613,804.617676 217.623993,802.210449 228.106903,799.733765 240.106720,797.393982" fill="#000000" stroke="none" fill-opacity="1" />
				<path d="M254.337173,806.013550L254.243256,805.226685L253.997681,804.473267L253.609848,803.782227L253.094620,803.180054L252.471771,802.690063L251.765396,802.330933L251.002533,802.116577L250.212479,802.055054L249.425583,802.148926L248.672119,802.394531L247.981064,802.782349L247.378937,803.297607L246.888901,803.920349L246.529724,804.626831L246.315369,805.389771L246.253906,806.179810L248.000107,848.228271L239.779984,879.090088L231.696808,878.258118L229.975677,845.935303L226.735855,823.039551L226.705109,822.886719L226.643433,822.743530L226.553650,822.616089L226.439453,822.509888L226.305832,822.429504L226.158539,822.378418L226.003876,822.358643L225.848480,822.371338L225.699005,822.415771L225.561920,822.489990L225.443054,822.590942L225.347626,822.714172L225.279480,822.854492L214.765778,848.998291L214.664108,849.660889L214.719604,874.820557L206.103516,876.083435L191.492096,844.385498L197.470322,820.327515L197.497742,820.139160L197.486740,819.949097L197.437653,819.765259L197.352676,819.594971L197.235046,819.445190L197.089752,819.322327L196.922668,819.231140L196.740662,819.175476L196.551132,819.157532L196.361908,819.178223L196.180756,819.236450L196.015030,819.329956L195.871414,819.455017L195.755997,819.606323L195.673386,819.777832L185.780182,846.137878L185.708710,846.466858L185.726700,846.802979L185.832840,847.122437L197.607254,874.408203L186.003632,873.795349L169.446030,853.198914L170.602417,825.806030L170.602737,825.641968L170.570480,825.481079L170.506897,825.329773L170.414474,825.194214L170.297012,825.079651L170.159180,824.990662L170.006409,824.930908L169.844757,824.902649L169.680695,824.907104L169.520874,824.943970L169.371475,825.011902L169.238617,825.108215L169.127441,825.228882L160.626755,835.826477L160.450241,836.152954L160.376648,836.516724L157.685913,855.713379L154.315109,855.378296L146.862778,841.160217L146.812073,817.870300L155.412201,811.242554L168.984772,809.846069L180.720306,809.194824L193.444244,807.706787L204.628769,807.461304L218.198318,805.342346L228.882935,803.334351L238.915497,801.923584L247.670013,809.170532L248.320145,809.623657L249.046158,809.941284L249.820236,810.111145L250.612503,810.126709L251.392670,809.987427L252.130569,809.698669L252.798096,809.271423L253.369278,808.722168L253.822464,808.072083L254.140091,807.346069L254.309982,806.572021L254.325546,805.779663L254.186325,804.999573L253.897491,804.261597L253.470230,803.594177L252.921066,803.022827L242.846146,794.186707L241.776764,793.520691L240.558258,793.200317L239.299454,793.254028L227.402115,796.119385L216.970322,799.093079L204.172379,801.782959L193.136841,802.570007L180.261108,803.639404L168.540863,804.791199L154.204163,806.763550L153.583374,806.929199L153.032684,807.260254L143.545242,815.313354L143.154083,815.736816L142.898193,816.253296L142.798462,816.821045L141.263641,841.691406L141.556274,843.023804L149.563751,859.765198L150.019745,860.439575L150.635437,860.972290L151.368317,861.326660L152.168198,861.478394L160.323257,861.789490L160.986847,861.751953L161.625427,861.567261L162.206558,861.244690L162.701126,860.800598L163.084091,860.257263L163.336090,859.642273L163.444580,858.986511L162.867508,837.028992L168.666183,828.581238L164.452576,853.686218L164.468948,854.313354L164.643402,854.916077L164.964752,855.454895L182.440292,878.206909L183.012497,878.752625L183.715683,879.113892L184.492493,879.261292L201.847229,879.922302L202.395905,879.889648L202.926178,879.744873L203.415482,879.494324L203.842789,879.148560L204.189896,878.722412L204.442123,878.234009L204.588715,877.704163L204.623184,877.155640L204.544205,876.611633L204.355255,876.095459L188.337418,846.494812L191.132584,837.834167L189.464951,844.213013L189.437042,844.526184L189.507309,844.832642L201.855240,880.090881L202.140030,880.620239L202.534271,881.074158L203.018585,881.430298L203.569290,881.671326L204.159576,881.785461L204.760376,881.767090L217.967911,879.923706L218.619003,879.747681L219.207748,879.418701L219.699051,878.956543L220.063202,878.388855L220.278564,877.749756L220.332123,877.077393L218.126511,849.853394L225.554642,826.510376L226.351395,846.072815L225.902100,880.952820L226.000000,881.649658L226.261673,882.302917L226.671936,882.874634L227.206894,883.331787L227.835617,883.647705L228.521759,883.804199L241.646179,885.177124L242.331787,885.167786L242.996353,884.999390L243.603683,884.681213L244.120514,884.230591L244.518372,883.672302L244.775681,883.036804L254.218430,849.457275z" fill="#848FFE" stroke="none" fill-opacity="1" />
				<polygon points="354.151031,258.786499 345.846741,256.475525 336.239441,253.460754 326.966766,249.993774 319.183563,246.283020 313.272339,242.446350 309.452423,238.626221 307.784668,234.932495 308.352478,231.468994 311.110718,228.350830 315.915527,225.651794 322.699646,223.460571 331.252808,221.858276 341.314026,220.877808 352.621948,220.563538 364.755707,220.927979 377.345367,221.945129 390.053101,223.597961 402.445190,225.822327 414.195679,228.539551 424.956055,231.690186 434.345520,235.171753 442.135193,238.885254 448.054321,242.725586 451.880524,246.548462 453.550903,250.243286 452.982971,253.706726 450.224091,256.824646 445.419830,259.523987 438.635742,261.715210 430.080078,263.316284 420.050140,264.300354 409.114136,264.675232 398.110321,264.499939 387.684235,263.863708 378.385223,262.946899 370.818665,262.016479 365.168274,261.221863 360.226440,260.285645 355.869110,259.234375" fill="#2F2367" stroke="none" fill-opacity="1" />
				<polygon points="368.943787,229.788208 363.859985,228.373474 357.978424,226.527832 352.301727,224.405396 347.536865,222.133728 343.918030,219.784912 341.579590,217.446167 340.558563,215.184998 340.906189,213.064636 342.594757,211.155762 345.536224,209.503357 349.689392,208.161865 354.925629,207.181030 361.085083,206.580750 368.007660,206.388367 375.435974,206.611511 383.143219,207.234131 390.922913,208.246094 398.509216,209.607788 405.702911,211.271240 412.290314,213.200073 418.038422,215.331482 422.807251,217.604797 426.430969,219.955811 428.773315,222.296143 429.795837,224.558044 429.448212,226.678406 427.759216,228.587158 424.818115,230.239685 420.664917,231.581116 415.427124,232.561401 409.286835,233.163757 402.592010,233.393250 395.855438,233.286011 389.472687,232.896423 383.779877,232.335144 379.147705,231.765503 375.688507,231.279114 372.663116,230.705933 369.995605,230.062439" fill="#1D1640" stroke="none" fill-opacity="0.977777719" />
				<path d="M367.014557,236.720581L368.404083,236.963745L369.814362,236.931213L371.191132,236.624084L372.481567,236.054321L373.636108,235.243713L374.610199,234.223511L375.366638,233.032776L375.876160,231.717407L376.119415,230.328003L376.086792,228.917664L375.779694,227.540833L375.209961,226.250427L374.399353,225.096008L373.379150,224.121765L372.188446,223.365356L370.873047,222.855835L365.894012,221.500732L360.284637,219.815308L355.023041,217.992859L350.841827,216.229370L348.019348,214.719177L346.709717,213.900635L346.438477,214.411316L345.972595,215.470642L345.914154,215.267334L347.527374,214.058228L350.842438,212.700317L355.549805,211.573242L361.348663,210.795288L368.003143,210.434753L375.219391,210.522034L382.741089,211.051575L390.340759,212.009460L397.741364,213.348999L404.716766,215.038086L411.020172,217.033264L416.388306,219.234802L420.628906,221.497253L423.474762,223.609619L424.708008,225.108521L424.651947,225.235901L424.541718,224.347839L424.199646,224.177795L422.460022,224.846191L419.167603,225.685669L414.545868,226.370056L408.863708,226.765320L402.531586,226.812317L396.114990,226.538147L390.021912,226.011719L384.553192,225.352844L380.076904,224.714355L376.855438,224.203979L374.177460,223.669189L371.747894,223.080200L370.759186,222.825134L369.365875,222.604797L367.956299,222.660522L366.584747,222.990051L365.303802,223.580933L364.162781,224.410278L363.205505,225.446411L362.468689,226.649292L361.980682,227.972839L361.760376,229.366150L361.816040,230.775696L362.145630,232.147217L362.736450,233.428162L363.565887,234.569214L364.601959,235.526550L365.804871,236.263306L367.128448,236.751282L368.179443,237.028320L370.974976,237.703125L374.353699,238.324524L378.157288,238.808472L382.922455,239.307678L388.795074,239.769592L395.444092,240.026306L402.487152,239.971619L409.506531,239.572571L416.037720,238.785156L421.783813,237.559998L426.627350,235.841125L430.535126,233.527649L433.516235,230.277893L434.354675,229.008911L434.808502,227.557373L434.915833,225.397644L434.939758,223.880188L434.523529,222.420837L433.277802,220.259888L429.752808,216.631042L425.235046,213.862793L419.860199,211.509949L413.693329,209.416077L406.796570,207.535889L399.369354,205.888000L391.595551,204.498901L383.638245,203.428772L375.751251,202.708923L368.129120,202.345520L360.967834,202.362244L354.495789,202.769897L348.827209,203.559326L344.008423,204.772888L340.006653,206.548523L336.705231,209.348389L335.839752,210.658508L335.371307,212.157166L334.706116,214.225464L334.678619,215.958618L335.153503,217.625610L335.896088,220.012634L339.309021,224.393433L343.853088,227.809448L349.303894,230.693420L355.492737,233.175964L361.714111,235.211975z" fill="#C1D2FE" stroke="none" fill-opacity="1" />
				<polygon points="364.294067,194.716675 355.333557,191.872803 344.980377,188.210938 335.009735,184.069336 326.671814,179.720215 320.379303,175.307251 316.365509,170.993958 314.692322,166.902771 315.446747,163.150269 318.575043,159.859741 323.917603,157.105957 331.397430,154.983337 340.782471,153.571716 351.786652,152.896973 364.123657,152.997070 377.334106,153.869263 391.016022,155.470642 404.801727,157.769531 418.220917,160.679077 430.921631,164.100403 442.526184,167.955505 452.623627,172.117737 460.968323,176.470032 467.269501,180.887268 471.290039,185.203674 472.965912,189.296082 472.211395,193.048828 469.082428,196.339050 463.740417,199.093079 456.260681,201.215759 446.872955,202.625977 435.902679,203.305908 423.968750,203.286377 411.982330,202.664551 400.643677,201.562927 390.544434,200.199707 382.334015,198.889465 376.206573,197.802185 370.857025,196.588379 366.149048,195.272095" fill="#000000" stroke="none" fill-opacity="1" />
				<path d="M362.607391,200.031067L363.676514,200.258057L364.769562,200.272034L365.844147,200.072510L366.859253,199.667175L367.775818,199.071655L368.558472,198.308716L369.177338,197.407715L369.608490,196.403320L369.835388,195.334167L369.849426,194.241272L369.649963,193.166565L369.244598,192.151428L368.649017,191.234924L367.886047,190.452209L366.985168,189.833374L365.980682,189.402222L357.125397,186.531128L347.015747,182.913635L337.400848,178.953552L329.536469,175.007751L323.861542,171.308777L320.547424,168.320435L319.252533,166.468689L319.113708,165.055786L320.789612,162.813843L325.073883,160.033264L331.955231,157.563293L341.011444,155.739380L351.833801,154.670044L364.070831,154.421448L377.228363,155.025391L390.875946,156.457886L404.626587,158.683533L417.996429,161.602966L430.606842,165.148071L442.050720,169.234741L451.893921,173.684448L459.860046,178.293579L465.596863,182.809204L468.790466,186.803345L469.557343,189.621338L468.886597,191.320679L466.724487,193.193542L462.226990,195.262451L455.359406,197.044739L446.412750,198.280273L435.768311,198.847534L424.091492,198.696228L412.337341,197.898499L401.217743,196.615173L391.296753,195.090820L383.218140,193.642212L377.284546,192.466919L372.211304,191.237061L367.695709,189.929199L365.893311,189.375244L364.820618,189.165955L363.727570,189.169861L362.656311,189.386963L361.648010,189.808899L360.741364,190.419373L359.971283,191.195068L359.367279,192.106018L358.952728,193.117371L358.743256,194.190125L358.747223,195.283142L358.964325,196.354370L359.386261,197.362732L359.996796,198.269348L360.772430,199.039429L361.683441,199.643433L362.694733,200.057983L364.553619,200.600525L369.370605,201.904602L375.002533,203.108887L381.404297,204.128601L389.730743,205.298767L399.977600,206.498169L411.520233,207.420288L423.731018,207.870544L435.895325,207.764038L447.143066,206.983459L456.893311,205.427124L464.859222,203.035706L470.858643,199.784424L474.820190,195.529785L475.405792,194.709229L475.740936,193.758545L476.179230,189.942139L476.228668,188.984802L475.999054,188.054016L473.991577,184.097412L469.123688,179.160217L462.190643,174.726440L453.422150,170.586670L443.045929,166.694641L431.266388,163.062744L418.468140,159.761292L404.998840,156.860291L391.179932,154.487366L377.468994,152.716614L364.217499,151.575195L351.801086,151.124390L340.649170,151.398315L331.005646,152.378418L323.062592,154.093140L316.907166,156.623840L312.451691,160.302856L311.779816,161.244629L311.395294,162.335754L310.201324,165.999939L310.132080,167.336975L310.452362,168.636963L311.771423,172.872864L316.518982,178.899475L323.512054,184.225830L332.400574,189.071411L342.804291,193.449768L353.455078,197.183899z" fill="#848FFE" stroke="none" fill-opacity="1" />
			</g>
			<g id="layer.Layer.uuid_0x3">
				<polyline points="266.979279,468.916565 286.192200,459.303833 336.783325,524.529663 331.692169,665.808472 298.281494,661.035522 167.824921,626.992920 172.245438,609.116455 313.322296,641.374878 319.005157,533.792358 287.997711,492.449280" fill="#2F2367" stroke="none" fill-opacity="1" />
				<polyline points="460.406921,478.697266 489.365173,517.901733 501.876862,636.830811 536.938171,618.512939 545.281677,638.915833 501.907074,659.608765 484.199768,660.494141 473.175812,517.222229 433.218445,463.891357" fill="#2F2367" stroke="none" fill-opacity="1" />
				<polyline points="453.196167,927.950928 439.802063,1128.863037 411.174957,1161.402466" fill="#2F2367" stroke="none" fill-opacity="1" />
			</g>
		</g>
	</g>
</svg>
