<?xml version="1.0" encoding="UTF-8"?>
<!-- Generator: Blender, SVG Export for Grease Pencil - v2.0 -->
<!DOCTYPE svg PUBLIC "-//W3C//DTD SVG 1.1//EN" "http://www.w3.org/Graphics/SVG/1.1/DTD/svg11.dtd">
<svg version="1.1" x="0px" y="0px" xmlns="http://www.w3.org/2000/svg" width="1920.000000px" height="1080.000000px" viewBox="0 0 1920.000000 1080.000000">
	<g id="blender_frame.2">
		<g id="blender_object.Stroke.2.uuid_0x0">
			<g id="layer.tail.uuid_0x1">
				<polyline points="351.510040,433.340149 324.349579,428.749634 304.074951,418.038574 279.209747,401.589294 297.189148,394.321106 319.376526,376.724182 336.973389,353.006775 318.228912,358.362305 298.719391,364.865540 301.397156,328.524292 314.786163,299.451233 332.345001,286.414551 308.665466,296.773438 282.652771,309.014771 270.660492,315.775879 276.489655,288.729370 289.219727,270.980835 305.605255,251.633728 332.000488,236.714722 312.873505,239.009888 290.686188,226.768616 267.733765,196.930603 262.760773,177.803528 288.008484,183.924194 330.853058,193.105103 353.422913,201.903625 354.570465,188.132141 360.691193,162.502075 381.348389,134.959167 413.864319,93.644775 433.756470,66.484497 439.877197,83.698792 435.286743,126.161072 419.985138,162.119934 400.092957,187.367676 420.367615,171.683411 451.353485,157.529358 493.050507,156.764404 541.633057,169.770813 561.525208,179.716797 588.685608,212.615479 599.779297,245.514038 584.860168,239.393494 535.260681,233.001526 512.050537,234.826843 486.472107,238.714233 499.061981,241.865906 517.569702,248.682251 546.522583,265.878174 563.820312,290.654114 571.088562,305.573181 571.088562,332.733704 563.820312,361.806885 548.901245,384.376892 523.271057,342.679749 497.640808,318.197083 472.876129,303.480286" fill="#8FF5FE" stroke="none" fill-opacity="1" />
				<polyline points="469.696869,973.416077 565.997070,1006.890808 577.189392,1015.490784 581.036560,1033.036743 568.744080,1048.277100 540.358337,1075.388184 507.361328,1097.887939 576.192993,1104.549561 610.440125,1097.377441 646.940125,1079.566406 670.759033,1055.991211 667.966003,1007.111511 652.603821,952.645569 617.445984,904.253296 572.113770,872.975586 535.836060,860.528381 501.287506,852.116028 451.011200,847.926331 356.147980,844.862305" fill="#3A5FFE" stroke="none" fill-opacity="1" />
				<path d="M471.815826,967.320312L470.585938,967.024048L469.321777,966.973450L468.072113,967.170410L466.884888,967.607422L465.805664,968.267639L464.876099,969.125671L464.131653,970.148621L463.601105,971.297119L463.304840,972.527100L463.254272,973.791199L463.451263,975.040894L463.888275,976.228149L464.548431,977.307373L465.406525,978.237000L466.429474,978.981384L467.577911,979.511902L565.175781,1008.412781L570.892639,1019.489136L574.256958,1031.439087L565.159119,1044.980347L539.280518,1074.056641L504.675201,1093.948608L503.933258,1094.574097L503.333252,1095.336914L502.900208,1096.205322L502.651855,1097.143555L502.598663,1098.112427L502.742767,1099.072144L503.078278,1099.982788L503.591095,1100.806641L504.260101,1101.509521L505.057617,1102.062500L505.950653,1102.442505L506.902100,1102.633789L575.943604,1107.126953L611.670776,1103.253662L647.688904,1081.100708L674.534058,1059.805298L675.447693,1058.601562L675.989563,1057.190918L676.116760,1055.685181L669.670471,1007.014160L656.789978,951.464844L619.633606,902.664001L573.966858,870.289734L536.769104,857.808899L502.121429,848.691284L451.153015,846.224976L356.294281,840.331787L355.407715,840.390320L354.549408,840.620667L353.752625,841.014038L353.047913,841.555298L352.462311,842.223633L352.018372,842.993408L351.733063,843.834961L351.617493,844.716003L351.675964,845.602661L351.906342,846.460876L352.299652,847.257690L352.840912,847.962402L353.509247,848.547974L354.279053,848.992004L355.120636,849.277222L356.001617,849.392822L450.912781,849.631409L500.720917,855.605896L535.027710,863.290649L570.630005,875.916382L615.530090,906.216492L648.628357,954.573792L666.272095,1007.395264L665.263489,1053.880249L645.938843,1078.155273L608.478333,1091.654175L576.049133,1101.934082L520.924561,1094.410522L541.320129,1076.798828L572.101013,1051.791870L585.924683,1036.979370L586.867371,1035.369263L587.295288,1033.553345L587.170837,1031.691772L584.033813,1013.990112L583.104675,1011.734802L581.458618,1009.934692L567.037354,1005.536987z" fill="#000000" stroke="none" fill-opacity="1" />
				<polyline points="533.146240,928.720093 574.733765,974.282104 581.074219,1013.478088 541.301880,994.456482" fill="#F1E3BC" stroke="none" fill-opacity="1" />
				<path d="M535.866516,926.237183L535.329834,925.754150L534.709290,925.385132L534.028564,925.144287L533.314026,925.040894L532.593079,925.078857L531.893250,925.256714L531.241699,925.567749L530.663330,925.999878L530.180298,926.536499L529.811340,927.157104L529.570435,927.837769L529.466980,928.552307L529.504944,929.273315L529.682800,929.973022L529.993896,930.624634L530.425964,931.203064L572.040283,975.583496L577.369690,1008.528748L542.538635,991.870483L542.010376,991.678894L541.454895,991.593994L540.893616,991.619141L540.347778,991.753296L539.838745,991.991394L539.385925,992.324219L539.006775,992.738953L538.715759,993.219666L538.524170,993.747986L538.439392,994.303528L538.464539,994.864868L538.598694,995.410522L538.836731,995.919617L539.169495,996.372375L539.584229,996.751587L540.065002,997.042542L579.837341,1016.064087L580.425232,1016.270203L581.043640,1016.344482L581.663574,1016.283447L582.255615,1016.089844L582.791870,1015.772949L583.247070,1015.347839L583.599670,1014.834229L583.833069,1014.256714L583.936035,1013.642334L583.903992,1013.020264L577.563538,973.824402L577.314758,973.034973L576.850891,972.349609z" fill="#000000" stroke="none" fill-opacity="1" />
				<polyline points="324.923920,906.302612 343.133820,890.061340 351.008331,842.814209 286.249512,837.056763 242.241455,839.369141 188.777390,852.301758 136.465988,868.692871 110.807655,897.492859 91.432968,928.387573 88.291168,961.376709 89.338364,996.460388 106.094917,1031.544067 133.324188,1064.533325 252.714218,1091.762451 345.922241,1104.329834 417.137421,916.867493 368.962494,647.717712 315.551086,633.055908 305.078247,669.710571 344.157074,761.325073 351.601471,806.271057 353.249023,850.726074 340.845978,892.596680 311.979156,923.904846 288.434845,934.538757 273.292938,937.699890 237.674957,940.600586 224.035324,935.120422 198.961319,913.868713" fill="#3A5FFE" stroke="none" fill-opacity="1" />
				<path d="M324.525604,905.856018L324.446136,905.942261L324.385010,906.042419L324.344604,906.152588L324.326538,906.268433L324.331268,906.385681L324.358917,906.499695L324.408203,906.606140L324.477356,906.700928L324.563660,906.780396L324.663788,906.841492L324.773865,906.881897L324.889801,906.900024L325.007019,906.895264L325.120972,906.867676L325.227539,906.818359L325.322235,906.749207L343.532135,890.507935L343.657898,890.350281L343.724152,890.159790L355.727631,843.600769L355.780914,842.478760L355.571075,841.375244L355.109833,840.351074L354.422546,839.462585L353.546967,838.758911L352.531433,838.278809L351.432037,838.048645L286.515594,834.065125L242.033859,835.417908L188.403458,850.755615L135.110779,864.367371L133.081512,865.677551L109.402481,896.240967L87.816299,926.119385L87.183212,927.982788L86.591667,961.214905L84.580368,996.602417L85.043053,998.511902L104.372406,1032.366821L129.717636,1067.510254L130.869995,1068.514038L132.284378,1069.092773L252.334686,1093.427124L345.694153,1106.021851L346.075043,1106.030273L346.448395,1105.954102L346.795532,1105.796997L347.099091,1105.566772L347.344055,1105.275024L347.518280,1104.936157L418.733490,917.473816L418.818024,916.566711L370.643066,647.416992L370.533508,647.049316L370.344666,646.715454L370.086029,646.432190L369.770569,646.213867L369.414429,646.071411L316.003021,631.409485L315.627899,631.350342L315.249023,631.375488L314.884918,631.483887L314.553894,631.670105L314.272217,631.924805L314.053802,632.235596L313.909546,632.586914L303.436646,669.241516L303.374237,669.817139L303.507904,670.380371L341.902496,761.982361L349.899384,806.442871L348.907013,850.178345L339.321686,891.731201L309.204712,920.060059L286.881622,929.772339L272.675903,933.430908L238.289795,936.542603L225.417938,932.827209L200.670547,911.852234L200.244308,911.557556L199.768707,911.351685L199.262192,911.242554L198.744049,911.234314L198.234268,911.327332L197.752365,911.518005L197.316971,911.799011L196.944870,912.159546L196.650192,912.585815L196.444305,913.061340L196.335129,913.567993L196.327011,914.086121L196.419937,914.595825L196.610657,915.077698L196.891663,915.513062L197.252258,915.885254L222.326263,937.136963L236.185684,944.307251L237.999176,944.582031L273.642426,941.990723L289.453308,939.416809L313.891602,928.138977L315.394806,927.054199L342.101166,893.754028L342.483002,893.081604L357.389954,851.952698L353.307617,806.207886L346.457458,760.944092L306.886200,669.597534L316.728577,635.149597L367.471680,649.078979L415.373566,916.703064L344.807526,1102.456665L253.018799,1090.080811L135.916916,1060.328125L107.716202,1030.509888L94.066544,995.314819L90.000923,961.432373L95.587006,929.798950L112.318047,898.626831L139.017105,872.643738L189.202713,853.835510L242.815323,843.301147L286.195160,840.067322L345.439972,847.122314L342.578278,889.755005z" fill="#000000" stroke="none" fill-opacity="1" />
				<polyline points="225.384293,932.725403 245.231155,941.103577 294.453461,930.630798 326.919128,906.543518 278.744141,907.590820 201.090714,912.622314" fill="#F1E3BC" stroke="none" fill-opacity="1" />
				<path d="M225.595154,932.226013L225.493652,932.194519L225.387955,932.183350L225.282150,932.193115L225.180313,932.223267L225.086227,932.272705L225.003677,932.339539L224.935730,932.421204L224.884949,932.514587L224.853348,932.616028L224.842300,932.721680L224.851974,932.827515L224.882126,932.929382L224.931549,933.023438L224.998459,933.106018L225.080170,933.174011L225.173492,933.224731L243.794235,944.507568L244.881088,944.781799L246.000153,944.717529L295.222382,934.244751L296.654938,933.598145L329.120697,909.510803L329.691864,908.985535L330.140839,908.352539L330.447632,907.639709L330.598694,906.878601L330.587616,906.102661L330.414581,905.346130L330.087311,904.642456L329.620483,904.022583L329.034302,903.514038L328.354919,903.139038L327.612122,902.914246L326.838806,902.849609L278.663879,903.896851L200.996246,911.164734L200.713638,911.211182L200.445740,911.311768L200.202423,911.462830L199.993225,911.658447L199.826385,911.891052L199.707932,912.151733L199.642700,912.430542L199.633194,912.716797L199.679550,912.999268L199.780258,913.267334L199.931274,913.510620L200.126892,913.719727L200.359436,913.886719L200.620209,914.005066L200.898972,914.070312L201.185257,914.079834L278.903809,911.283081L315.399384,910.489624L292.897858,927.184265L245.598221,937.247986z" fill="#000000" stroke="none" fill-opacity="1" />
				<polyline points="379.048981,424.525208 350.938171,427.692627 322.641968,404.699646 337.320618,344.438660 360.232758,325.530457 386.708557,356.932129" fill="#3A5FFE" stroke="none" fill-opacity="1" />
				<path d="M379.212555,425.976624L379.492554,425.916870L379.755524,425.803589L379.991394,425.641174L380.190948,425.435913L380.346741,425.195557L380.452606,424.929504L380.504486,424.647949L380.500427,424.361633L380.440704,424.081665L380.327393,423.818604L380.165009,423.582764L379.959717,423.383179L379.719360,423.227478L379.453308,423.121643L379.171783,423.069763L378.885468,423.073730L351.383636,426.172546L324.471649,404.083801L340.604797,346.497192L360.047791,327.577026L385.591888,357.873596L385.797058,358.073425L386.037201,358.229309L386.303162,358.335327L386.584686,358.387512L386.871002,358.383667L387.151062,358.324158L387.414154,358.211060L387.650116,358.048828L387.849884,357.843689L388.005768,357.603516L388.111847,357.337585L388.163971,357.055969L388.160187,356.769653L388.100647,356.489624L387.987549,356.226562L387.825317,355.990662L361.349548,324.588928L361.113739,324.365356L360.834442,324.199463L360.525360,324.099365L360.201691,324.070190L359.879669,324.113159L359.575134,324.226318L359.302979,324.403931L334.979614,341.601868L334.204285,342.485291L333.747070,343.568237L321.056580,404.313538L321.010376,404.677734L321.046722,405.043091L321.163910,405.391052L321.355835,405.704041L321.612976,405.966187L350.017029,428.826233L350.345947,429.027893L350.716034,429.136353L351.101776,429.144165z" fill="#000000" stroke="none" fill-opacity="1" />
				<polygon points="345.936890,517.207825 358.382965,687.719971 377.052002,772.353760 380.785858,819.026733 384.519592,865.699707 375.986725,928.331421 362.849640,982.777405 349.690887,1013.347107 340.624969,1029.591919 258.860504,1091.869873 344.494812,1105.165894 447.144440,1098.487549 499.023193,1075.310791 527.649048,1044.924194 537.605896,1005.718872 540.400208,966.513550 533.872009,907.394348 517.111816,849.298340 490.311005,773.598267 435.202911,675.858765 425.511108,647.483032 423.072449,561.780334 420.982117,516.142029 401.472534,456.916565 398.337006,383.755249 369.421021,383.755249 361.390106,425.803772 355.445221,462.511230" fill="#F1E3BC" stroke="none" fill-opacity="1" />
				<path d="M347.393646,517.101501L347.344971,516.819336L347.242126,516.552124L347.089111,516.310120L346.891815,516.102539L346.657867,515.937500L346.396118,515.821228L346.116760,515.758362L345.830566,515.751038L345.548401,515.799805L345.281189,515.902649L345.039154,516.055664L344.831543,516.252869L344.666565,516.486938L344.550293,516.748596L344.487366,517.027954L344.480103,517.314209L356.926178,687.826294L375.074463,772.649475L379.329895,819.143250L380.804688,865.596497L374.549408,928.060852L359.065155,981.516479L345.861511,1011.460571L337.782837,1027.127075L256.789703,1089.151245L256.263153,1089.648804L255.853226,1090.246338L255.578568,1090.916870L255.451431,1091.630249L255.477448,1092.354370L255.655579,1093.056763L255.977966,1093.705688L256.429657,1094.272095L256.990814,1094.730713L257.635956,1095.060547L258.336182,1095.246948L344.020752,1108.219238L447.239227,1099.945190L500.603577,1078.848389L501.843445,1077.967529L529.997864,1047.136841L530.776672,1045.718506L541.014343,1006.584473L547.164856,966.995667L535.323975,907.234009L520.652649,848.276855L491.983917,773.006042L438.644897,674.316406L426.964935,647.220337L424.532562,561.738831L422.441284,516.075134L402.923126,456.651794L399.796387,383.692749L399.748260,383.378174L399.633057,383.081543L399.456421,382.816956L399.226685,382.596741L398.954712,382.431580L398.653351,382.329285L398.337006,382.294617L369.421021,382.294678L369.087524,382.333191L368.771606,382.446899L368.490082,382.629761L368.257721,382.872009L368.086823,383.160889L367.986328,383.481262L359.955444,425.529724L354.004730,462.269409L344.497772,516.957703L344.476715,517.243225L344.511627,517.527466L344.601288,517.799316L344.742462,518.048523L344.929352,518.265381L345.155060,518.441650L345.410797,518.570496L345.686707,518.646912L345.972229,518.668091L346.256439,518.633179L346.528351,518.543396L346.777557,518.402283L346.994476,518.215393L347.170715,517.989685L347.299591,517.733948L347.375977,517.458008L356.884277,462.761353L362.828705,426.057556L370.629120,385.215942L396.937683,385.215942L400.013184,456.979065L419.532257,516.408813L421.612823,561.834595L424.051056,647.524597L431.648773,677.072632L488.689392,774.335815L513.601318,850.425049L532.433960,907.679016L533.592041,966.645691L534.120361,1005.156616L524.727173,1043.319824L496.734802,1072.089600L446.788025,1097.047119L344.633148,1102.060547L267.317322,1089.724487L342.856689,1032.521973L343.841125,1031.386841L353.413635,1015.424683L366.500519,984.348938L377.406647,928.674011L388.180634,866.198547L382.241882,818.910278L379.040527,772.194641L359.832123,687.508362z" fill="#000000" stroke="none" fill-opacity="1" />
			</g>
			<g id="layer.arms back.uuid_0x2">
				<polyline points="428.264648,623.548096 423.076904,451.776978 441.522156,437.943054 464.578583,437.943054 474.377594,548.037903 472.071930,568.212402" fill="#3A5FFE" stroke="none" fill-opacity="1" />
				<path d="M424.782684,623.653198L424.870056,624.330444L425.087921,624.977783L425.427887,625.570007L425.876831,626.084595L426.417542,626.501709L427.029266,626.805298L427.688477,626.983704L428.369843,627.030029L429.047058,626.942688L429.694275,626.724792L430.286591,626.384888L430.801178,625.935913L431.218262,625.395142L431.521851,624.783447L431.700287,624.124207L431.746704,623.442932L426.613586,453.478943L442.683411,441.426636L461.513367,441.293213L471.010468,547.995789L468.743561,567.832031L468.733246,568.488647L468.851257,569.134766L469.093079,569.745300L469.449341,570.296997L469.906464,570.768616L470.446747,571.141968L471.049530,571.402710L471.691528,571.540894L472.348206,571.551147L472.994293,571.433105L473.604919,571.191284L474.156616,570.835022L474.628113,570.377930L475.001526,569.837585L475.262360,569.234863L475.400452,568.592834L477.706177,548.418335L467.915588,437.645996L467.778687,436.951416L467.498871,436.301147L467.088593,435.724121L466.566284,435.246216L465.955200,434.888794L465.282623,434.667725L464.578583,434.592834L441.522156,434.459412L440.420532,434.638184L439.432037,435.156189L420.986755,448.990112L420.385681,449.565125L419.937988,450.266296L419.669220,451.053528L419.594940,451.882080z" fill="#000000" stroke="none" fill-opacity="1" />
			</g>
			<g id="layer.jacket back.uuid_0x3">
				<polygon points="400.942047,460.634521 412.119659,417.064575 443.271088,441.333862 449.987213,641.257202 453.817352,672.141479 416.727020,654.597046 418.116577,535.697266 401.814240,474.922546" fill="#140050" stroke="none" fill-opacity="1" />
				<path d="M399.527222,460.271606L399.483673,460.554565L399.496094,460.840576L399.563995,461.118774L399.684967,461.378235L399.854218,461.609253L400.065308,461.802734L400.310059,461.951355L400.579102,462.049377L400.862152,462.093018L401.148163,462.080566L401.426300,462.012573L401.685791,461.891663L401.916809,461.722351L402.110321,461.511230L402.258850,461.266541L402.356873,460.997498L412.980469,419.586914L441.834229,442.066040L448.527435,641.306274L452.041016,669.685303L418.198578,653.677307L419.577118,535.714294L403.263184,474.686401L402.400024,460.545532L402.354645,460.262817L402.255096,459.994385L402.104858,459.750488L401.910034,459.540649L401.678070,459.372803L401.417847,459.253479L401.139282,459.187195L400.853088,459.176575L400.570343,459.221985L400.301910,459.321594L400.058105,459.471741L399.848175,459.666565L399.680328,459.898499L399.561035,460.158752L399.494781,460.437378L399.484131,460.723511L400.356262,475.011475L416.653717,535.881348L415.266571,654.579956L415.300415,654.910767L415.408478,655.225220L415.584625,655.507202L415.820099,655.741943L416.102509,655.917358L453.192780,673.461792L453.486969,673.564209L453.796082,673.601929L454.106079,673.573242L454.403015,673.479553L454.673401,673.324951L454.904877,673.116577L455.086823,672.863953L455.211121,672.578430L455.272125,672.273071L455.266968,671.961670L451.444824,641.142578L444.730988,441.284790L444.655090,440.866943L444.462311,440.488586L444.168854,440.181641L413.017334,415.912415L412.743988,415.744080L412.440613,415.639709L412.121643,415.604004L411.802612,415.638794L411.498840,415.742432L411.225067,415.910034L410.994537,416.133179L410.818298,416.401428L410.704834,416.701599z" fill="#000000" stroke="none" fill-opacity="1" />
			</g>
			<g id="layer.jacket-top-back.uuid_0x4">
				<polyline points="426.201508,514.238342 440.442169,458.292725 415.315704,462.174072 432.845703,442.667297 471.859406,422.550903 416.210205,385.182617 399.112762,413.613525 398.523987,451.457581 419.992767,537.131470" fill="#140050" stroke="none" fill-opacity="1" />
				<path d="M424.786041,513.878052L424.742889,514.161133L424.755798,514.447144L424.824402,514.725220L424.945862,514.984497L425.115479,515.215149L425.326965,515.408203L425.571991,515.556396L425.841248,515.653809L426.124268,515.696960L426.410370,515.683960L426.688416,515.615479L426.947662,515.494080L427.178253,515.324402L427.371429,515.112915L427.519562,514.867920L427.617096,514.598694L441.857788,458.653015L441.902222,458.336548L441.876831,458.017944L441.782623,457.712463L441.624298,457.434814L441.409454,457.198181L441.148254,457.014038L440.853180,456.891052L440.538513,456.835266L440.219269,456.849121L419.138397,460.105652L433.753204,443.842773L472.528778,423.849182L472.781799,423.683472L472.995270,423.469299L473.159973,423.215637L473.268982,422.933533L473.317627,422.635071L473.303680,422.332947L473.227936,422.040222L473.093353,421.769348L472.906006,421.532043L472.673737,421.338257L417.024597,383.969971L416.724670,383.815491L416.397186,383.734009L416.059784,383.729736L415.730408,383.803040L415.426636,383.950012L415.164703,384.162659L414.958496,384.429810L397.861023,412.860718L397.652252,413.590759L397.063477,451.434875L418.575897,537.486511L418.672424,537.756104L418.819580,538.001648L419.011963,538.213806L419.242004,538.384399L419.500885,538.506775L419.778625,538.576294L420.064606,538.590332L420.347839,538.548279L420.617401,538.451782L420.863068,538.304626L421.075195,538.112244L421.245636,537.882263L421.368103,537.623413L421.437683,537.345642L421.451630,537.059631L421.409637,536.776367L399.987457,451.288574L400.567139,414.029297L416.670685,387.251160L468.992981,422.385498L432.176331,441.369080L414.229370,461.197754L414.053589,461.438965L413.930573,461.710815L413.865295,462.002075L413.860657,462.300476L413.916656,462.593628L414.031128,462.869202L414.199158,463.115845L414.413971,463.323120L414.666260,463.482361L414.945770,463.587097L415.240692,463.632812L415.538818,463.617615L438.481659,460.073547z" fill="#000000" stroke="none" fill-opacity="1" />
			</g>
			<g id="layer.face.uuid_0x5">
				<polyline points="341.003632,350.243164 332.126099,351.267578 318.541321,351.267578 320.961731,340.976013 324.505310,305.543457 332.457336,285.332092 316.834045,286.427185 287.395691,296.266113 292.697083,286.657410 305.652649,262.186584 333.451263,235.632019 319.203888,218.402649 303.299805,207.137268 328.149902,203.161255 353.000000,201.835938 361.614655,175.329224 368.904144,163.732483 392.760284,135.900452 408.001678,110.387878 408.814728,137.120728 406.013672,162.075867 397.067719,189.907898 411.646393,183.612549 446.105194,176.985901 479.690857,178.505005 514.360229,187.588562 540.204407,200.841919 574.915833,226.875610 564.688354,222.226685 536.795227,217.267883 512.665588,222.674255 490.840179,231.508911 485.460236,239.606628 513.289368,259.223938 535.963867,290.015625 541.804932,316.987244 543.567261,333.918518 542.993774,351.155090 527.018494,325.963318 509.046356,309.527222 487.694794,296.009644 474.023712,288.943665 474.638153,297.084900 473.102142,309.680786 458.663025,339.788086 463.578430,367.130371 453.440216,381.262390 435.160858,397.698486 420.414429,407.068604 402.903107,413.980957 385.545380,399.234558 370.952606,385.102539 360.353668,371.585083 347.522003,350.642578" fill="#3A5FFE" stroke="none" fill-opacity="1" />
				<path d="M341.003632,350.243164L332.077637,350.424988L322.349457,348.251099L323.891418,341.664978L327.482941,306.263489L333.816589,285.866821L333.901398,285.551636L333.914124,285.225464L333.854034,284.904541L333.724182,284.604980L333.531128,284.341797L333.284393,284.128052L332.996338,283.974487L332.681305,283.888611L332.355133,283.875061L316.726227,284.888855L292.801727,291.762451L294.898163,287.871704L308.243134,264.146118L334.644440,236.881104L334.882629,236.598816L335.055420,236.272644L335.154938,235.916992L335.176544,235.548462L335.119354,235.183594L334.985901,234.839355L334.782379,234.531250L321.090607,216.842529L310.957733,208.920776L328.489502,206.354187L353.093536,203.589050L353.508728,203.516296L353.894531,203.346558L354.228851,203.089905L354.492249,202.760925L354.669769,202.378540L365.068787,176.945618L371.134247,165.375305L395.231293,138.018372L405.280090,120.869080L405.186951,136.972961L404.143036,161.674500L395.669922,189.458618L395.607208,189.757080L395.607635,190.062195L395.670959,190.360535L395.794647,190.639404L395.973297,190.886719L396.199097,191.091675L396.462524,191.245544L396.751892,191.341858L397.055115,191.376160L397.358673,191.346985L397.649750,191.255859L412.507507,186.407776L446.297577,179.638123L478.940491,183.445618L513.361694,190.201233L537.951294,204.446228L572.874084,225.665466L566.084656,219.155029L537.379333,213.982300L536.065613,214.011597L512.310486,221.089355L490.285858,230.139648L489.906097,230.364380L489.609711,230.691406L484.243622,238.798401L484.096313,239.084106L484.014923,239.394958L484.003571,239.716064L484.062775,240.031982L484.189667,240.327271L484.377960,240.587708L484.618622,240.800598L510.982605,261.579041L533.765930,291.007751L538.503784,317.514832L540.219971,334.036438L540.815613,343.158813L528.535278,325.001465L510.218933,308.245056L488.509735,294.722656L474.696991,287.641113L474.407379,287.528442L474.100494,287.479431L473.790253,287.496155L473.490356,287.577820L473.214569,287.720886L472.975128,287.918762L472.782593,288.162842L472.645996,288.441895L472.571136,288.743469L472.561615,289.054077L473.167053,297.051086L471.681213,309.265686L457.083130,339.030396L456.926666,339.552856L456.938507,340.098083L460.348083,366.400513L450.607391,378.725342L432.666290,394.411560L418.655914,403.615051L403.548035,410.087280L387.314484,397.284668L372.286896,383.900818L361.024414,371.118896L347.522003,350.642578L359.658447,372.011108L369.542725,386.207947L383.714722,401.124878L400.711548,416.560669L401.479156,417.051880L402.349945,417.320496L403.260956,417.346985L404.145996,417.129578L421.830994,410.657227L437.366241,401.169250L455.968109,384.073853L466.056824,368.908447L466.437836,368.192261L466.616608,367.401062L466.580475,366.590637L460.487671,340.035278L474.419098,310.312378L476.091766,297.262207L475.683533,291.452148L486.936371,297.332275L507.987091,310.913086L525.629883,327.127258L540.930725,352.463379L541.252136,352.868103L541.651367,353.196106L542.110718,353.432800L542.609619,353.567627L543.125610,353.594482L543.635803,353.512146L544.117249,353.324341L544.548462,353.039490L544.909973,352.670349L545.185852,352.233398L545.363586,351.748108L545.435364,351.236328L546.906982,334.029602L545.125000,316.641602L538.268494,289.516541L537.862610,288.617432L515.909485,257.294556L487.463043,239.231506L491.817871,232.706726L513.151001,224.229736L536.870972,220.670837L563.679199,225.474243L573.933655,229.036316L574.403259,229.193054L574.894897,229.248901L575.387573,229.201660L575.859741,229.053345L576.290833,228.810181L576.662170,228.482910L576.957520,228.085815L577.164246,227.636108L577.273010,227.153198L577.279358,226.658325L577.182861,226.172913L576.987854,225.718079L576.702698,225.313416L576.339966,224.976868L542.745544,197.453796L515.629028,185.114380L480.950317,173.697937L446.224548,174.347717L411.097290,180.757263L399.455414,187.277527L407.826172,162.658447L412.413788,137.524658L411.039215,110.295410L410.950134,109.651306L410.725891,109.040894L410.376953,108.492188L409.919312,108.030212L409.373749,107.676270L408.765442,107.446350L408.122223,107.351257L407.473480,107.395203L406.848785,107.576111L406.277008,107.885620L405.784149,108.309875L405.392822,108.829224L390.108826,133.993164L366.806885,161.934875L358.410583,173.315186L351.702850,200.146973L327.979156,199.959473L302.830536,204.203674L302.214905,204.371399L301.649475,204.666931L301.160034,205.076233L300.769348,205.580505L300.495361,206.156677L300.350586,206.777893L300.341919,207.415894L300.469604,208.040955L300.727844,208.624329L301.104553,209.139221L301.582550,209.561646L317.524078,220.212830L331.095490,235.493652L303.437958,259.868225L290.485596,285.462036L285.156097,295.030457L284.942047,295.543945L284.843842,296.091675L284.866547,296.647583L285.008850,297.185425L285.264130,297.679810L285.620270,298.107300L286.060364,298.447632L286.563660,298.684814L287.106384,298.807495L287.662750,298.809937L288.206451,298.692017L317.137146,287.951660L330.250763,286.950928L321.681488,304.432373L317.986755,340.479614L315.605011,350.576965L315.524902,351.250122L315.597229,351.924194L315.818268,352.565125L316.176849,353.140503L316.654816,353.621216L317.228088,353.983093L317.867645,354.207825L318.541321,354.283997L332.126099,352.110046z" fill="#000000" stroke="none" fill-opacity="1" />
				<polygon points="362.258423,306.629700 366.235840,319.881226 368.865540,328.549500 383.956451,339.561707 404.359833,356.314148 404.086823,339.678040 404.340424,328.448181 390.576141,321.889587 381.368134,317.014648 371.232330,311.963379" fill="#F4CB5E" stroke="none" fill-opacity="1" />
				<path d="M363.657471,306.209839L363.548706,305.945007L363.390259,305.706421L363.188385,305.503418L362.950806,305.343628L362.686554,305.233276L362.405945,305.176575L362.119568,305.175720L361.838562,305.230774L361.573730,305.339539L361.335236,305.497925L361.132111,305.699768L360.972412,305.937439L360.862000,306.201660L360.805267,306.482300L360.804474,306.768677L360.859497,307.049622L364.836914,320.301025L368.026184,328.804077L368.150360,329.057251L368.348541,329.257996L383.061859,340.717102L404.103577,356.626282L404.173096,356.672241L404.250641,356.702881L404.332764,356.716980L404.416077,356.714050L404.496918,356.693970L404.571930,356.657715L404.637970,356.606812L404.692230,356.543518L404.732147,356.470337L404.756317,356.390625L404.763519,356.307617L405.547791,339.682556L405.123596,328.465881L405.107056,328.287048L405.050201,328.116699L404.956055,327.963806L404.829529,327.836304L404.677399,327.741028L391.232361,320.584290L382.051544,315.723755L371.932251,310.680115L363.004761,305.374084L362.745483,305.252625L362.467499,305.184082L362.181427,305.171082L361.898407,305.214111L361.629120,305.311584L361.384033,305.459778L361.172577,305.652771L361.002899,305.883423L360.881378,306.142700L360.812927,306.420776L360.799896,306.706848L360.842896,306.989868L360.940430,307.259094L361.088501,307.504150L361.281586,307.715637L361.512177,307.885376L370.486053,313.218994L380.700531,318.313904L389.892792,323.180481L403.545837,328.937256L402.626556,339.645081L403.941772,355.448547L384.883362,338.432800L369.619690,328.013977L367.634247,319.459229z" fill="#000000" stroke="none" fill-opacity="1" />
				<polygon points="440.184113,334.493225 436.353577,347.132202 432.553314,358.862427 439.425537,355.278320 447.298370,350.083984 453.649170,345.398926 456.852173,335.942200 463.588379,321.551208 455.940002,326.732727 447.066956,331.148804" fill="#F4CB5E" stroke="none" fill-opacity="1" />
				<path d="M441.060822,334.758850L441.095734,334.582703L441.095734,334.403198L441.060669,334.227112L440.991882,334.061218L440.892151,333.911926L440.765106,333.784973L440.615753,333.685242L440.449921,333.616577L440.273743,333.581543L440.094177,333.581604L439.918060,333.616699L439.752106,333.685425L439.602936,333.785217L439.476013,333.912231L439.376160,334.061584L439.307495,334.227417L434.959717,346.695251L432.294739,358.778687L432.282898,358.835815L432.283417,358.894104L432.296265,358.950928L432.321106,359.003723L432.356598,359.050049L432.401123,359.087708L432.452728,359.114929L432.508942,359.130554L432.567078,359.133911L432.624725,359.124695L432.678986,359.103455L440.101105,356.573425L448.102844,351.303101L454.059174,345.954590L454.206909,345.806213L454.303253,345.620361L458.209564,336.487732L464.911377,322.170410L465.008057,321.894775L465.048035,321.605408L465.029724,321.314026L464.953583,321.031921L464.823090,320.770630L464.643005,320.540588L464.420837,320.350952L464.165466,320.209351L463.886902,320.121399L463.596436,320.090576L463.305634,320.118164L463.026123,320.203064L462.769135,320.341980L455.201752,325.468567L446.422363,329.838074L439.783844,333.669189L439.630798,333.763245L439.498962,333.885193L439.393585,334.030457L439.318573,334.193665L439.276703,334.368286L439.269775,334.547729L439.297974,334.725037L439.360291,334.893555L439.454132,335.046509L439.576172,335.178284L439.721527,335.283813L439.884674,335.358826L440.059326,335.400635L440.238708,335.407532L440.416077,335.379333L440.584503,335.317078L447.705322,332.462524L456.590820,328.040344L460.017395,325.734741L455.529266,335.322998L453.064667,344.971863L446.462097,348.885864L438.683685,354.017883L433.016602,358.314331L437.743225,347.582397z" fill="#000000" stroke="none" fill-opacity="1" />
				<path d="M422.917023,396.874084L423.020538,396.916199L423.130249,396.937317L423.241974,396.936523L423.351257,396.914062L423.454193,396.870667L423.546722,396.807983L423.625092,396.728577L423.686554,396.635315L423.728607,396.531860L423.749725,396.422180L423.749054,396.310486L423.726471,396.201111L423.683197,396.098145L423.620392,396.005676L423.540985,395.927185L423.447693,395.865784L420.763214,393.446106L420.451233,393.325256L420.119873,393.278503L419.786530,393.308411L419.468872,393.413452L419.183411,393.587952L418.945068,393.822937L416.505615,396.853821L416.024109,393.528198L416.018127,393.365967L415.976715,393.209106L415.901794,393.065186L415.796997,392.941223L415.667572,392.843445L415.519714,392.776489L415.360748,392.743591L400.469849,391.381226L400.312714,391.384033L400.160004,391.421387L400.019318,391.491394L399.897491,391.590576L399.800323,391.714172L399.732788,391.856079L397.360443,395.537781L394.279694,390.601501L394.070496,390.314941L393.798370,390.087280L393.479370,389.931885L393.132324,389.857971L392.777649,389.869995L387.898621,392.113708L392.224335,392.913818L396.208832,400.646545L396.418640,400.944641L396.685699,401.192749L396.998444,401.379944L397.343292,401.498291L397.705139,401.542419L398.068329,401.510437L398.416962,401.403931L398.735901,401.227356L399.011139,400.988342L399.230957,400.697571L399.385559,400.367371L400.893127,392.847656L414.508057,394.137024L413.243286,401.318237L413.252930,401.626526L413.327148,401.925842L413.462402,402.202942L413.652924,402.445435L413.890167,402.642517L414.163483,402.785461L414.460663,402.867798L414.768524,402.885925L415.073273,402.838989L415.361481,402.729065L415.620178,402.561157L415.837769,402.342712L420.466888,396.591309z" fill="#000000" stroke="none" fill-opacity="1" />
			</g>
			<g id="layer.jacket.uuid_0x6">
				<polygon points="389.012817,423.294128 350.621521,469.622742 373.905792,470.398926 347.128906,535.207153 390.204865,654.733765 340.919678,700.765686 293.949982,684.182312 238.874527,521.606812 236.528381,431.591553 249.334732,419.949402 313.366547,412.187927 286.977600,368.723755 353.324036,399.113464" fill="#140050" stroke="none" fill-opacity="1" />
				<path d="M390.137543,424.226196L390.297760,423.988708L390.408600,423.724731L390.465820,423.444153L390.467224,423.157776L390.412628,422.876770L390.304352,422.611694L390.146301,422.372864L389.944916,422.169434L389.707550,422.009216L389.443481,421.898315L389.163055,421.841187L388.876617,421.839844L388.595459,421.894287L388.330475,422.002686L388.091583,422.160645L387.888184,422.362122L349.496857,468.690735L349.332275,468.936279L349.220459,469.209778L349.165985,469.500366L349.171204,469.795776L349.235748,470.084229L349.356934,470.353760L349.529968,470.593323L349.747620,470.793213L350.001251,470.945190L350.279999,471.042969L350.572876,471.082642L371.751251,471.788635L345.778900,534.649414L345.668579,535.173584L345.754700,535.702393L388.504333,654.323364L340.570343,699.093262L295.105591,683.041260L240.328964,521.347656L238.006027,432.222412L249.972778,421.343445L313.542297,413.637939L313.856964,413.563782L314.147461,413.422241L314.399933,413.220276L314.601715,412.967712L314.742920,412.677002L314.816711,412.362244L314.819641,412.039062L314.751282,411.723145L314.615082,411.429932L290.695953,372.033447L352.605316,400.390930L388.193573,424.503357L388.445221,424.639954L388.718658,424.724854L389.003387,424.754700L389.288574,424.728516L389.563110,424.647156L389.816498,424.513733L390.038971,424.333618L390.222076,424.113464L390.358734,423.861755L390.443604,423.588318L390.473450,423.303589L390.447296,423.018372L390.365936,422.743835L390.232605,422.490479L390.052338,422.267883L389.832153,422.084839L354.143311,397.904297L287.585968,367.395813L287.292725,367.297485L286.985260,367.263123L286.677521,367.294250L286.383331,367.389526L286.115631,367.544617L285.886627,367.752563L285.706635,368.004089L285.583588,368.287903L285.523071,368.591248L285.527771,368.900513L285.597443,369.201904L285.729034,369.481812L310.942841,411.010376L249.159103,418.499390L248.726990,418.621277L248.352310,418.868652L235.545914,430.510803L235.280518,430.832336L235.116989,431.215698L235.068237,431.629639L237.414322,521.644958L292.566620,684.650940L292.768250,685.040710L293.076508,685.352966L293.463654,685.559631L340.433411,702.143005L340.822266,702.223083L341.218414,702.195496L341.592468,702.062195L341.916687,701.833130L391.201874,655.801208L391.421539,655.542114L391.575287,655.239258L391.654999,654.908997L391.656250,654.569336L391.579010,654.238525L348.694458,535.243103L375.255768,470.956726L375.343506,470.656738L375.365479,470.345032L375.320618,470.035706L375.210968,469.743103L375.041595,469.480469L374.820160,469.259827L374.556946,469.091431L374.263885,468.982849L373.954437,468.939026L353.646057,468.262085z" fill="#000000" stroke="none" fill-opacity="1" />
			</g>
			<g id="layer.arms.uuid_0x7">
				<polygon points="217.922592,447.756287 209.804031,465.034485 205.768951,510.571106 198.275528,610.290588 147.551193,616.631104 142.861359,625.697876 148.282242,655.247681 170.744537,659.933105 228.825485,689.259155 250.729126,681.189392 262.833771,550.919983 271.480133,491.549438 266.292389,450.047729 258.798981,432.178894 250.152817,428.720398 228.249146,434.484558" fill="#3A5FFE" stroke="none" fill-opacity="1" />
				<path d="M220.908554,449.159302L221.124863,448.549805L221.218185,447.909912L221.184830,447.263977L221.026093,446.637024L220.748062,446.053101L220.361481,445.534607L219.881271,445.101501L219.325745,444.770447L218.716217,444.554077L218.076141,444.460754L217.430359,444.494141L216.803345,444.652893L216.219467,444.930847L215.700989,445.317444L215.267792,445.797729L214.936768,446.353271L208.258835,464.308411L204.068359,510.420410L196.677704,608.769653L147.182465,613.680908L146.485474,613.855530L145.850662,614.192261L145.315247,614.671509L144.910538,615.265137L139.383713,623.899109L138.988907,625.120728L139.010300,626.404419L145.517120,655.755005L145.713226,656.389282L146.052704,656.960083L146.516479,657.435181L147.078720,657.788330L147.708267,657.999756L169.991913,662.084045L228.055969,690.783203L228.496216,690.934448L228.960983,690.961060L229.415665,690.861206L251.319351,682.791443L251.661926,682.619324L251.957550,682.375122L252.191116,682.071167L252.350983,681.722656L252.429138,681.347412L266.368744,551.341309L273.169617,491.795471L267.986603,449.835938L260.373535,431.518616L260.146240,431.130066L259.825348,430.814514L259.433167,430.593689L250.786926,427.135132L250.257858,427.016357L249.718323,427.069275L227.814636,432.833496L227.308548,433.059692L226.901733,433.436157L215.318924,445.730347L214.973648,446.277222L214.741806,446.880981L214.632111,447.518372L214.648987,448.164856L214.791641,448.795654L215.054459,449.386536L215.427704,449.914795L215.896683,450.360046L216.443527,450.705200L217.047333,450.937195L217.684708,451.046753L218.331238,451.030029L218.962036,450.887390L219.552856,450.624390L220.081100,450.251282L220.526321,449.782288L229.242035,435.988708L250.042191,430.515015L257.501068,433.498474L264.627472,450.491882L269.757385,491.532043L259.312317,550.407104L249.128723,679.959473L228.932022,687.400391L171.762833,657.916260L150.706390,652.881470L146.953873,626.307922L149.472946,619.387207L198.487411,611.984680L198.865646,611.892639L199.213318,611.717224L199.512238,611.467651L199.746841,611.156860L199.904877,610.800964L199.978119,610.418457L207.470688,510.710388L211.478058,465.486633z" fill="#000000" stroke="none" fill-opacity="1" />
				<polygon points="525.678406,517.488037 490.517242,617.207520 454.203156,654.674377 418.465515,641.993286 427.688141,583.199097 482.447449,501.924927 507.809601,514.029602" fill="#3A5FFE" stroke="none" fill-opacity="1" />
				<path d="M527.288635,518.055786L527.368347,517.730713L527.383240,517.396362L527.332642,517.065552L527.218445,516.750977L527.045044,516.464722L526.819153,516.217773L526.549438,516.019653L526.246155,515.877869L525.921143,515.798096L525.586731,515.783203L525.256042,515.833862L524.941284,515.948059L524.655090,516.121460L524.408142,516.347351L524.210022,516.617065L524.068237,516.920349L487.485504,615.330322L453.295380,650.797363L420.371796,640.858093L430.059082,584.130371L483.040710,504.099854L507.074188,515.570374L525.354004,519.164246L525.687317,519.195312L526.020142,519.160828L526.339905,519.062012L526.634338,518.902710L526.891846,518.689026L527.102844,518.429199L527.259155,518.133240L527.354614,517.812500L527.385742,517.479187L527.351196,517.146362L527.252319,516.826538L527.093140,516.532166L526.879456,516.274536L526.619690,516.063599L526.323669,515.907349L526.002869,515.811829L508.348297,512.394775L483.182861,500.384033L482.800140,500.254395L482.397675,500.218323L481.998169,500.277771L481.623596,500.429443L481.295349,500.664917L481.031464,500.970886L425.625977,581.809814L425.231720,582.813843L416.778900,641.728699L416.763092,642.121704L416.837708,642.507935L416.998627,642.866821L417.237457,643.179321L417.541534,643.428955L417.894562,643.602295L453.082916,657.831665L453.826904,658.003296L454.590332,658.002075L455.333832,657.828003L456.018463,657.490112L456.608856,657.005981L493.018799,619.632019L493.802704,618.365906z" fill="#000000" stroke="none" fill-opacity="1" />
				<polyline points="457.036316,426.690735 427.268890,439.692383 408.823639,470.242310 435.915100,453.526306 453.783844,449.491394" fill="#3A5FFE" stroke="none" fill-opacity="1" />
				<path d="M457.939636,428.758850L458.325836,428.542847L458.662354,428.255737L458.936371,427.908447L459.137512,427.514343L459.257782,427.088623L459.292725,426.647644L459.240967,426.208252L459.104401,425.787476L458.888458,425.401306L458.601318,425.064819L458.254089,424.790710L457.859985,424.589600L457.434204,424.469360L456.993195,424.434387L456.553864,424.486145L456.133057,424.622620L426.365601,437.624268L425.781342,437.995300L425.336914,438.525879L406.891724,469.075867L406.694580,469.493835L406.586853,469.943237L406.572754,470.405151L406.653168,470.860229L406.824554,471.289429L407.079803,471.674744L407.408203,471.999878L407.795898,472.251404L408.226624,472.418640L408.682495,472.494568L409.144318,472.476196L409.592621,472.363953L410.008728,472.162842L436.779602,455.644714L454.280945,451.692810L454.700867,451.553467L455.085541,451.335022L455.420166,451.045532L455.691956,450.696533L455.890472,450.301086L456.007874,449.874573L456.039886,449.433350L455.985260,448.994324L455.845947,448.574402L455.627472,448.189819L455.338013,447.855103L454.988983,447.583313L454.593536,447.384888L454.167023,447.267456L453.725830,447.235352L453.286835,447.290100L435.417999,451.325012L415.576660,463.423706L428.829803,441.473206z" fill="#000000" stroke="none" fill-opacity="1" />
				<polyline points="466.751831,457.661133 458.105591,446.709290 435.460663,477.224121 443.091461,499.587158 446.655762,487.197754 461.766510,473.028198" fill="#3A5FFE" stroke="none" fill-opacity="1" />
				<path d="M464.980530,459.059570L465.287415,459.378296L465.650543,459.630920L466.055939,459.807983L466.488190,459.902466L466.930450,459.910828L467.366028,459.832764L467.777802,459.671265L468.150238,459.432434L468.468994,459.125549L468.721680,458.762512L468.898682,458.356995L468.993134,457.924866L469.001526,457.482483L468.923462,457.047058L468.761963,456.635193L468.523102,456.262695L459.876892,445.310913L459.512604,444.944824L459.074646,444.671204L458.585846,444.504150L458.071960,444.452820L457.559784,444.519592L457.076294,444.700989L456.646576,444.987610L456.293396,445.364441L433.648499,475.879272L433.379181,476.352356L433.231049,476.876221L433.212585,477.420227L433.324860,477.952881L440.955658,500.315979L441.155701,500.747192L441.441711,501.127014L441.800842,501.438416L442.217407,501.667725L442.672638,501.804749L443.146484,501.843262L443.617950,501.781677L444.065979,501.622742L444.470734,501.373413L444.814362,501.044861L445.081512,500.651611L445.260376,500.211060L448.652740,488.418823L463.310242,474.674500L463.601746,474.341736L463.822815,473.958374L463.964661,473.539429L464.022156,473.100769L463.992981,472.659302L463.878174,472.232117L463.682281,471.835388L463.412781,471.484558L463.079956,471.193115L462.696686,470.972107L462.277740,470.830200L461.839142,470.772705L461.397705,470.801819L460.970398,470.916626L460.573700,471.112488L460.222839,471.382019L445.112152,485.551453L444.487061,486.573730L442.908142,492.061707L437.979340,477.617126L458.161011,450.421570z" fill="#000000" stroke="none" fill-opacity="1" />
				<polyline points="475.845123,467.870483 469.027924,458.959351 441.592712,483.930725 453.030334,510.498901 455.823273,490.933472 470.967377,481.909058" fill="#3A5FFE" stroke="none" fill-opacity="1" />
				<path d="M474.052765,469.241699L474.354675,469.565002L474.713898,469.823181L475.116638,470.006409L475.547363,470.107544L475.989410,470.122620L476.426056,470.051147L476.840363,469.895874L477.216400,469.662903L477.539703,469.360901L477.797943,469.001709L477.981018,468.598999L478.082153,468.168274L478.097260,467.726135L478.025848,467.289612L477.870575,466.875305L477.637482,466.499268L470.820312,457.588196L470.448975,457.206238L469.998474,456.921997L469.493805,456.751282L468.963379,456.703552L468.436432,456.781555L467.942474,456.980835L467.508972,457.290466L440.073730,482.261780L439.710785,482.685364L439.462860,483.184875L439.344940,483.730042L439.364441,484.287476L439.519958,484.823120L450.957611,511.391296L451.175476,511.784363L451.466949,512.126404L451.820587,512.403931L452.222076,512.605896L452.655579,512.724304L453.104065,512.754456L453.549469,512.695129L453.974365,512.548706L454.361938,512.320984L454.696564,512.020996L454.965149,511.660645L455.156921,511.254211L455.264496,510.817871L457.904999,492.320068L472.122650,483.847717L472.478638,483.585083L472.776611,483.258057L473.004974,482.879150L473.155151,482.462952L473.221130,482.025574L473.200562,481.583679L473.094177,481.154236L472.906097,480.753845L472.643402,480.397827L472.316406,480.099854L471.937500,479.871460L471.521362,479.721313L471.083954,479.655273L470.641998,479.675903L470.212616,479.782288L469.812164,479.970398L454.668060,488.994812L454.150940,489.418152L453.780487,489.974304L453.589203,490.614563L451.930237,502.236145L444.301941,484.516479L468.729095,462.282959z" fill="#000000" stroke="none" fill-opacity="1" />
				<polyline points="481.840454,486.905273 476.790253,479.326050 464.411224,493.583618 466.294373,513.140381 474.125732,497.421692 478.062561,494.382996" fill="#3A5FFE" stroke="none" fill-opacity="1" />
				<path d="M480.608276,487.726318L480.792175,487.950928L481.016235,488.135376L481.272034,488.272461L481.549774,488.357117L481.838501,488.385864L482.127441,488.357849L482.405334,488.273987L482.661438,488.137390L482.886078,487.953552L483.070435,487.729492L483.207642,487.473694L483.292267,487.196045L483.321106,486.907166L483.293060,486.618286L483.209045,486.340454L483.072632,486.084351L478.022339,478.505005L477.802887,478.245850L477.530151,478.043518L477.218536,477.908691L476.884308,477.848389L476.545227,477.865784L476.218933,477.960022L475.922760,478.126099L475.672180,478.355286L463.293182,492.612976L463.074585,492.946838L462.953064,493.326843L462.937408,493.725586L464.820618,513.282288L464.884949,513.593811L465.014374,513.884460L465.202850,514.140808L465.441803,514.350830L465.720062,514.505066L466.024811,514.596191L466.342041,514.620178L466.657135,514.575867L466.955383,514.465271L467.223114,514.293518L467.448029,514.068481L467.619659,513.800598L475.299500,498.386108L478.967346,495.555054L479.178589,495.356079L479.347015,495.119629L479.465973,494.854980L479.531189,494.572083L479.539856,494.281921L479.491699,493.995728L479.388733,493.724365L479.234711,493.478333L479.035706,493.267029L478.799286,493.098694L478.534607,492.979614L478.251740,492.914490L477.961639,492.905823L477.675446,492.953918L477.404083,493.056946L477.158020,493.210938L473.221130,496.249573L472.800568,496.761414L467.273102,507.855896L465.945984,494.074402L476.634918,481.763184z" fill="#000000" stroke="none" fill-opacity="1" />
				<path d="M201.532578,625.943604L200.734360,625.935608L199.949799,626.083496L199.209320,626.381592L198.541092,626.818481L197.970886,627.377258L197.520737,628.036499L197.207977,628.770996L197.044373,629.552368L197.036301,630.350586L197.184219,631.135132L197.482285,631.875732L197.919220,632.543884L198.477921,633.114014L199.137268,633.564148L199.871689,633.877014L200.653091,634.040588L242.588821,636.217041L242.923508,636.220398L243.252426,636.158386L243.562958,636.033447L243.842926,635.850220L244.082062,635.615967L244.270706,635.339539L244.401917,635.031616L244.470474,634.704102L244.473892,634.369385L244.411865,634.040405L244.286896,633.729980L244.103806,633.449829L243.869492,633.210815L243.593048,633.022095L243.285156,632.890930L242.957550,632.822388z" fill="#000000" stroke="none" fill-opacity="1" />
				<polygon points="530.477844,498.898499 527.595764,519.649475 510.303406,515.614563 485.517517,504.086182 477.292969,494.758606 478.752563,487.631958 471.107269,482.182556 473.161224,465.508179 466.348969,462.631470 460.637177,447.869629 456.696899,450.479797 454.391266,429.152527 466.495911,426.270508 495.316559,450.479858 507.037018,466.619385 518.757385,482.758972" fill="#000000" stroke="none" fill-opacity="1" />
				<polyline points="187.279358,584.816406 178.588776,596.570923 186.874924,583.492065 164.659714,544.056885 157.635666,558.075806 156.153030,565.380554 120.816658,539.645142 107.478340,611.573486 129.069275,649.420288 145.539368,658.272583 147.684006,628.080383 178.613953,622.225769 197.260498,634.432251 212.444275,615.566895 209.328522,605.027466 202.713547,575.682861" fill="#000000" stroke="none" fill-opacity="1" />
				<polygon points="113.400131,593.355286 105.945686,576.545837 96.008606,603.667358 100.359596,633.699097 115.236229,609.533569" fill="#3A5FFE" stroke="none" fill-opacity="1" />
				<path d="M111.933914,594.005554L112.088928,594.279175L112.294289,594.517212L112.542290,594.710571L112.823181,594.851929L113.126228,594.935730L113.439789,594.958801L113.751816,594.920288L114.050453,594.821594L114.323959,594.666565L114.561996,594.461121L114.755402,594.213257L114.896790,593.932373L114.980621,593.629272L115.003685,593.315674L114.965111,593.003601L114.866478,592.705078L107.412010,575.895569L107.238754,575.596802L107.005630,575.341980L106.723488,575.142944L106.405167,575.009033L106.065498,574.946350L105.720291,574.957764L105.385666,575.042786L105.076904,575.197510L104.808372,575.414795L104.592651,575.684448L104.439636,575.994019L94.502563,603.115540L94.421135,603.897339L98.772125,633.929077L98.851601,634.245605L98.993401,634.539612L99.191895,634.798706L99.438576,635.012329L99.723534,635.171631L100.034698,635.269897L100.359367,635.303101L100.684036,635.270020L100.995255,635.171753L101.280212,635.012573L101.527115,634.799072L101.725563,634.539917L116.602196,610.374451L116.801773,609.882690L116.829987,609.352661L114.993958,593.174438L114.928040,592.866943L114.803413,592.578308L114.624886,592.319458L114.399261,592.100464L114.135193,591.929626L113.842903,591.813599L113.533630,591.756836L113.219208,591.761475L112.911812,591.827393L112.623138,591.952026L112.364334,592.130615L112.145294,592.356262L111.974487,592.620239L111.858444,592.912476L111.801682,593.221741L111.806320,593.536194L113.579918,609.164185L101.312714,629.091125L97.654266,603.838501L106.087357,580.821777z" fill="#000000" stroke="none" fill-opacity="1" />
				<polygon points="120.762810,563.881165 102.882385,548.175171 105.923592,585.435059 127.332062,618.361206 131.699127,581.894165" fill="#3A5FFE" stroke="none" fill-opacity="1" />
				<path d="M119.392784,565.440918L119.723457,565.678223L120.094017,565.846497L120.490265,565.939209L120.896988,565.952820L121.298615,565.886841L121.679543,565.743835L122.025314,565.529175L122.322647,565.251160L122.559875,564.920593L122.728111,564.550049L122.820793,564.153748L122.834526,563.747070L122.768494,563.345459L122.625450,562.964478L122.410751,562.618774L122.132774,562.321472L104.252419,546.615540L103.886780,546.358398L103.474556,546.185547L103.034996,546.104858L102.588219,546.120178L102.155228,546.230774L101.755890,546.431580L101.408783,546.713074L101.129837,547.062500L100.932312,547.463379L100.825142,547.897278L100.813293,548.344116L103.854622,585.603882L104.183182,586.566650L125.591591,619.492798L125.856689,619.821716L126.182838,620.090149L126.556610,620.286926L126.962410,620.404053L127.383667,620.436646L127.802643,620.383179L128.202209,620.246094L128.565674,620.030884L128.878159,619.746704L129.126495,619.405029L129.300781,619.020203L129.393372,618.608032L133.760437,582.140991L133.728104,581.454834L133.473755,580.816772L122.537384,562.803833L122.292992,562.478333L121.989952,562.206726L121.639771,561.999573L121.255814,561.864624L120.852875,561.807190L120.446548,561.829468L120.052361,561.930603L119.685516,562.106689L119.359993,562.350952L119.088371,562.654053L118.881218,563.004272L118.746193,563.388245L118.688797,563.791138L118.711174,564.197510L118.812271,564.591675L118.988342,564.958557L129.552795,582.358887L125.951561,612.429688L107.950119,584.743286L105.369133,553.122620z" fill="#000000" stroke="none" fill-opacity="1" />
				<polygon points="170.192184,554.008606 157.880692,531.254395 146.937042,570.392395 156.354965,612.034912 174.553711,576.497681" fill="#3A5FFE" stroke="none" fill-opacity="1" />
				<path d="M168.207382,555.082520L168.455032,555.449158L168.769409,555.760376L169.138474,556.004333L169.548111,556.171509L169.982361,556.255615L170.424789,556.253418L170.858292,556.164856L171.266098,555.993530L171.632767,555.745850L171.944000,555.431458L172.187866,555.062378L172.355118,554.652771L172.439285,554.218445L172.436890,553.776001L172.348434,553.342590L172.177109,552.934692L159.865555,530.180481L159.589691,529.780457L159.234528,529.448792L158.816711,529.200928L158.355392,529.048096L157.872162,528.997620L157.389282,529.051758L156.929230,529.208008L156.513245,529.459106L156.160583,529.793457L155.887817,530.195496L155.707230,530.646606L144.763702,569.784668L144.735947,570.890137L154.153809,612.532715L154.300171,612.967957L154.531570,613.364563L154.838501,613.706177L155.208160,613.978516L155.625290,614.170410L156.072693,614.273926L156.531769,614.284668L156.983475,614.202393L157.409195,614.030273L157.791367,613.775635L158.113876,613.448853L158.363739,613.063538L176.562424,577.526367L176.788101,576.814514L176.769165,576.067993L172.407715,553.578918L172.281250,553.155029L172.074677,552.763855L171.795670,552.420532L171.454926,552.138245L171.065842,551.927795L170.643097,551.797363L170.203003,551.751892L169.762512,551.793091L169.338516,551.919556L168.947464,552.126221L168.604156,552.405212L168.321823,552.745850L168.111374,553.135010L167.980972,553.557739L167.935471,553.997803L167.976669,554.438293L172.189926,576.162537L157.183228,605.466431L149.263977,570.450806L158.551437,537.236267z" fill="#000000" stroke="none" fill-opacity="1" />
				<polygon points="133.376312,552.582336 115.600830,535.356995 116.864555,574.218018 137.429062,609.511658 143.820877,571.851074" fill="#3A5FFE" stroke="none" fill-opacity="1" />
				<path d="M131.873764,554.132874L132.205124,554.396240L132.581467,554.589844L132.988525,554.706360L133.410355,554.741211L133.830826,554.693115L134.233887,554.563904L134.604034,554.358582L134.926941,554.084900L135.190201,553.753540L135.383896,553.377136L135.500336,552.970215L135.535187,552.548401L135.487122,552.127869L135.357971,551.724854L135.152603,551.354736L134.878922,551.031799L117.103333,533.806458L116.736610,533.520630L116.317238,533.320129L115.864624,533.213989L115.399757,533.207153L114.944405,533.300049L114.519196,533.488220L114.144287,533.763062L113.836906,534.111755L113.611229,534.518250L113.477783,534.963562L113.442825,535.427124L114.706589,574.288208L114.998993,575.305054L135.563507,610.598633L135.822205,610.953735L136.147324,611.249146L136.525558,611.472656L136.941147,611.614990L137.376999,611.670166L137.815018,611.635986L138.237030,611.513916L138.625549,611.308838L138.964630,611.029541L139.240036,610.687256L139.440536,610.296326L139.557724,609.872925L145.949539,572.212341L145.950912,571.497925L145.719055,570.822144L135.274612,551.553406L135.037369,551.202881L134.736389,550.905334L134.383102,550.672241L133.991028,550.512512L133.575439,550.432373L133.152237,550.434814L132.737564,550.519836L132.347427,550.684143L131.996902,550.921326L131.699356,551.222351L131.466248,551.575684L131.306534,551.967651L131.226425,552.383240L131.228882,552.806519L131.313858,553.221191L131.478149,553.611328L141.567474,572.224609L136.296677,603.279541L119.004761,573.602478L117.932281,540.622925z" fill="#000000" stroke="none" fill-opacity="1" />
				<polygon points="207.394012,577.730469 211.651917,551.661377 191.231689,563.227844 188.230301,587.611938 204.016632,587.259521" fill="#3A5FFE" stroke="none" fill-opacity="1" />
				<path d="M205.813919,577.472351L205.794022,577.785645L205.835449,578.096680L205.936829,578.393738L206.094299,578.665283L206.301559,578.900879L206.550980,579.091553L206.832672,579.229858L207.136002,579.310547L207.449280,579.330566L207.760406,579.289062L208.057434,579.187683L208.328888,579.030273L208.564499,578.822876L208.755173,578.573608L208.893600,578.291870L208.974228,577.988525L213.232056,551.919495L213.251495,551.593384L213.204514,551.270203L213.092819,550.963257L212.921173,550.685364L212.696625,550.448120L212.428619,550.261353L212.128326,550.132874L211.808167,550.067932L211.481506,550.069397L211.161987,550.137085L210.862823,550.268311L190.442566,561.834778L190.141998,562.054871L189.900345,562.338501L189.730865,562.670288L189.642731,563.032227L185.994827,587.336731L185.987503,587.818787L186.082825,588.291382L186.276627,588.732788L186.559921,589.122864L186.919724,589.443726L187.339554,589.680725L187.800232,589.822876L188.280670,589.863770L204.052338,588.860229L204.434280,588.805176L204.791855,588.660400L205.104630,588.434265L205.354111,588.139954L205.525818,587.794434L208.903198,578.265320L208.978500,577.960632L208.992920,577.647095L208.945999,577.336792L208.839386,577.041626L208.677124,576.772827L208.465820,576.540894L208.213074,576.354736L207.929031,576.221313L207.624207,576.146057L207.310822,576.131592L207.000458,576.178589L206.705200,576.285156L206.436478,576.447327L206.204514,576.658813L206.018311,576.911438L205.884995,577.195618L202.876572,585.683594L190.783997,585.302002L192.722336,564.223633L209.533081,554.701660z" fill="#000000" stroke="none" fill-opacity="1" />
			</g>
			<g id="layer.bands.uuid_0x8">
				<polyline points="323.655762,748.088379 358.990356,748.073547 391.604156,741.528748 423.129700,724.100647 451.934357,700.142578 457.239990,705.856323 462.545593,711.570068 467.851166,717.283813 473.156921,722.997559 441.186981,750.341980 406.496277,771.156372 370.717224,781.087524 332.217407,784.488586" fill="#000000" stroke="none" fill-opacity="1" />
				<polyline points="340.157501,776.140015 387.053680,795.599731 432.317505,807.441162 472.139557,805.134277 510.329132,795.209106 513.014954,804.581421 515.700867,813.953735 518.386902,823.326172 521.072815,832.698486 477.438477,844.610291 432.171570,848.903809 381.463074,839.049011 329.122009,821.575806" fill="#000000" stroke="none" fill-opacity="1" />
				<polyline points="255.955063,931.213745 223.356857,971.379211 203.742386,1014.211548 206.419785,1051.626831 221.569687,1092.172974 211.878677,1091.105713 202.187408,1090.038696 192.496429,1088.971436 182.805405,1087.904419 168.218018,1062.899048 162.414505,1010.869080 184.104706,951.927673 214.423660,917.938904" fill="#000000" stroke="none" fill-opacity="1" />
				<polyline points="268.516113,545.754333 249.913742,538.504761 232.282166,533.320862 216.335693,531.368103 201.545395,531.551514 200.542847,521.736511 199.615875,511.802673 198.792282,501.883972 197.954468,493.633423 216.045731,490.578369 235.530579,491.399292 254.377213,499.543884 273.892303,508.321594" fill="#000000" stroke="none" fill-opacity="1" />
				<polyline points="468.029907,515.356018 480.645813,529.530090 493.395325,541.806152 508.108307,550.126709 522.816589,556.407410 519.598267,565.733887 516.261414,575.136230 512.837219,584.481567 510.127258,592.319214 494.312988,586.148193 476.182861,575.416260 461.422821,563.227295 447.409302,547.056213" fill="#000000" stroke="none" fill-opacity="1" />
				<polygon points="206.681396,522.041443 211.650696,513.359314 209.468262,504.439270 206.679214,498.713013 174.516968,510.291809 185.238480,514.208374 195.959946,518.125000" fill="#8FF5FE" stroke="none" fill-opacity="1" />
				<polygon points="230.420105,526.338989 239.946045,520.690247 238.580765,506.967163 230.418625,503.010498 213.975449,513.072571" fill="#8FF5FE" stroke="none" fill-opacity="1" />
				<polygon points="252.161819,529.992249 245.477890,521.899292 247.629257,512.200684 256.844849,508.683167 263.613586,512.686035 269.665680,522.988220 260.350342,528.054382" fill="#8FF5FE" stroke="none" fill-opacity="1" />
				<polyline points="271.083344,530.515259 282.563324,530.639893 272.198883,521.539368" fill="#8FF5FE" stroke="none" fill-opacity="1" />
				<polygon points="502.199036,582.033813 502.561462,571.417175 509.174072,564.883728 514.607605,561.522644 535.989990,591.007019 524.726257,588.015808 513.462646,585.024780" fill="#8FF5FE" stroke="none" fill-opacity="1" />
				<polygon points="461.696503,554.435120 472.758270,554.973450 479.184082,542.771240 474.555328,534.970520 455.289398,534.301208" fill="#8FF5FE" stroke="none" fill-opacity="1" />
				<polygon points="484.913086,571.098877 478.229218,563.005859 480.380524,553.307312 489.596100,549.789795 496.364929,553.792542 499.639557,561.872864 493.101685,569.160889" fill="#8FF5FE" stroke="none" fill-opacity="1" />
				<polyline points="461.928955,524.748840 442.455719,518.915955 453.067444,538.196472" fill="#8FF5FE" stroke="none" fill-opacity="1" />
				<polyline points="427.677795,772.701416 429.802277,756.048096 437.995911,758.022705 435.355621,774.765259 427.097412,772.422974 422.150696,777.124512 438.824554,782.836060 443.967712,752.011292 426.759491,748.488647 422.166870,776.630005" fill="#8FF5FE" stroke="none" fill-opacity="1" />
				<polyline points="415.705658,803.754150 422.104767,790.024780 429.666962,794.059448 422.543152,807.773804 415.194183,803.294800 409.941864,805.307617 424.258972,815.215210 437.725372,789.679077 421.523376,781.974854 410.019531,804.952454" fill="#8FF5FE" stroke="none" fill-opacity="1" />
				<polyline points="395.281189,820.273682 406.736023,816.254456 410.360229,823.981445 398.217834,827.746948 395.129303,819.636536 389.604034,817.310303 395.087250,834.200684 418.270111,826.573364 409.889954,810.981628 389.944397,817.102112" fill="#8FF5FE" stroke="none" fill-opacity="1" />
				<polyline points="367.813751,810.478394 380.282806,818.450378 376.081360,826.005554 363.812073,817.517700 368.207825,809.934937 365.345825,803.838623 355.618469,819.012085 378.484924,834.656006 386.795258,818.559448 365.743622,804.013672" fill="#8FF5FE" stroke="none" fill-opacity="1" />
				<polyline points="344.630249,802.933228 370.409851,818.534668 372.883820,814.508301 348.359131,797.190735" fill="#8FF5FE" stroke="none" fill-opacity="1" />
				<polyline points="374.910675,821.895264 400.211975,825.317688 400.281158,820.774658 375.606018,815.218262" fill="#8FF5FE" stroke="none" fill-opacity="1" />
				<polyline points="407.575775,823.368774 422.754303,803.428040 419.040466,800.426453 403.003998,818.681641" fill="#8FF5FE" stroke="none" fill-opacity="1" />
				<polyline points="426.217407,798.971985 435.468231,768.505066 431.061554,766.782959 420.395325,796.074219" fill="#8FF5FE" stroke="none" fill-opacity="1" />
				<polyline points="436.728241,763.290039 435.203033,733.284180 430.747101,732.592224 430.380493,762.018555" fill="#8FF5FE" stroke="none" fill-opacity="1" />
			</g>
		</g>
	</g>
</svg>
