<?xml version="1.0" encoding="UTF-8"?>
<!-- Generator: Blender, SVG Export for Grease Pencil - v2.0 -->
<!DOCTYPE svg PUBLIC "-//W3C//DTD SVG 1.1//EN" "http://www.w3.org/Graphics/SVG/1.1/DTD/svg11.dtd">
<svg version="1.1" x="0px" y="0px" xmlns="http://www.w3.org/2000/svg" width="1920.000000px" height="1080.000000px" viewBox="0 0 1920.000000 1080.000000">
	<g id="blender_frame.3">
		<g id="blender_object.Stroke.3.uuid_0x0">
			<g id="layer.Fills.uuid_0x1" />
			<g id="layer.black.uuid_0x2" />
			<g id="layer.skin.uuid_0x3" />
			<g id="layer.yella.uuid_0x4" />
			<g id="layer.red.uuid_0x5">
				<polygon points="525.469788,308.991577 610.800354,317.470032 674.832214,381.357239 733.014771,472.269836 771.093811,527.912476 830.150330,602.357300 911.728210,658.614014 949.592285,702.689453 949.955994,717.742249 931.237915,768.292603 756.890320,814.532471 543.642090,826.395508 357.117493,797.781006 135.733047,769.819824 77.616348,744.295654 76.946465,728.576416 87.930618,690.360718 105.911575,674.603516 160.477295,647.252441 268.214996,565.252197 294.364746,529.963989 369.298035,408.865356 472.552338,318.157166" fill="#83E759" stroke="none" fill-opacity="1" />
				<path d="M525.700378,306.670349L525.243042,306.669983L524.794495,306.758850L524.371826,306.933472L523.991394,307.187195L523.667786,307.510193L523.413513,307.890259L523.238098,308.312622L523.148438,308.760925L523.148071,309.218262L523.236938,309.666809L523.411560,310.089417L523.665283,310.469849L523.988342,310.793518L524.368408,311.047852L524.790710,311.223267L525.239075,311.312866L607.861145,323.686584L670.541504,384.812134L728.916565,474.892639L769.684631,528.876831L826.211731,605.481812L910.229919,660.280151L942.776245,705.309204L945.873169,717.061462L921.065186,757.100220L756.099365,809.549561L544.266663,813.479736L357.526062,795.118042L137.624359,762.978638L88.775879,736.664673L82.087158,729.189270L94.950310,694.816040L107.284523,676.644775L161.473099,649.239014L272.894012,571.399841L299.362488,533.667480L370.743103,410.087524L474.265961,321.739807L525.867798,311.290039L526.308594,311.168213L526.717102,310.962769L527.077637,310.681519L527.376465,310.335388L527.602051,309.937561L527.745544,309.503357L527.801758,309.049622L527.768188,308.593506L527.646362,308.152710L527.440918,307.744202L527.159607,307.383667L526.813416,307.084839L526.415649,306.859314L525.981567,306.715759L525.527649,306.659607L525.071655,306.693176L471.899902,314.390869L470.029541,315.285522L368.062622,407.458984L289.212067,526.469604L262.661804,559.769836L159.296249,645.358643L104.818092,672.422119L82.673035,684.361084L81.195427,686.085815L80.263763,688.157104L72.035461,727.164856L66.152512,744.784241L66.544014,747.306030L67.483292,749.679016L68.923874,751.785645L70.794296,753.521729L73.002373,754.801392L132.908478,776.251160L356.744446,800.449463L541.691895,839.107971L757.169067,819.543823L934.679749,781.270203L937.656799,780.085022L940.268250,778.228149L942.365356,775.805420L943.828735,772.954834L953.768066,719.153870L954.019897,717.644104L956.467529,702.523315L956.011658,700.222107L954.808838,698.207947L913.413757,657.165894L833.622437,598.644653L772.468994,526.898438L737.072571,469.583862L679.444763,378.405273L615.374878,312.885071L613.568665,311.614685L611.440796,311.024963z" fill="#000000" stroke="none" fill-opacity="1" />
				<polygon points="757.988342,564.080444 727.194885,512.010559 681.152222,451.004883 615.664978,381.293701 511.104004,334.007507 436.887634,383.569519 385.805450,438.402161 350.634064,496.393188 324.938141,555.378296 330.650879,594.987000 325.932953,628.677124 267.073730,658.635742 172.514862,752.695435 461.644989,778.058594 735.280334,755.010254 869.421204,717.828979" fill="#6BE84D" stroke="none" fill-opacity="1" />
				<polygon points="455.904236,372.209106 439.462677,388.555603 424.102539,381.573242 447.045837,366.184326" fill="#EEF4D9" stroke="none" fill-opacity="1" />
				<path d="M463.821472,380.172363L465.222900,378.474792L466.266205,376.536438L466.911316,374.431702L467.133453,372.241699L466.924011,370.050354L466.291168,367.941956L465.259094,365.997620L463.867523,364.291809L462.169952,362.890442L460.231598,361.847046L458.126892,361.201965L455.936859,360.979858L453.745453,361.189270L451.637085,361.822144L449.692719,362.854187L447.987030,364.245789L436.832611,373.929749L436.153625,380.581848L447.009369,377.501160L449.589111,381.494385L451.521942,382.547974L453.623108,383.204224L455.812012,383.438049L458.004425,383.240234L460.116180,382.618530L462.066010,381.596802L463.779083,380.214355L465.189423,378.524170L466.243103,376.591431L466.899414,374.490112L467.133179,372.301270L466.935333,370.108887L466.313721,367.997192L465.291931,366.047302L463.909485,364.334229L462.219360,362.923828L453.410217,356.826538L451.028748,355.591370L448.423370,354.951538L445.740662,354.942932L443.131256,355.565979L440.741913,356.785767L417.366882,371.531128L415.401245,373.176819L413.826660,375.199951L412.713989,377.509583L412.113251,380.001709L412.051392,382.564636L412.531219,385.082886L413.531219,387.443542L415.006409,389.540222L416.890350,391.278809L419.098602,392.581116L434.403015,399.685913L437.215729,400.573730L440.159271,400.762085L443.062195,400.240051L445.755615,399.038025L448.082825,397.226013z" fill="#FAFE70" stroke="none" fill-opacity="0.261109591" />
				<polygon points="270.133423,596.682922 246.722031,623.661499 261.977051,640.058899 289.233154,617.123047 279.422150,606.947266" fill="#EEF4D9" stroke="none" fill-opacity="1" />
				<path d="M279.609558,604.906128L281.031708,602.899414L282.035126,600.653809L282.581116,598.255615L282.648712,595.796997L282.235382,593.372375L281.357056,591.075012L280.047272,588.993164L278.356659,587.206787L276.349854,585.784668L274.104309,584.781250L271.706085,584.235291L269.247437,584.167664L266.822876,584.580933L264.525543,585.459351L262.443634,586.769043L260.657257,588.459717L238.604340,616.617065L237.142929,618.786987L236.249008,621.245605L235.975555,623.847412L236.338867,626.438232L237.317215,628.864441L238.852844,630.982483L252.983719,648.425720L254.998917,650.167786L257.342316,651.434448L259.903625,652.166138L262.562469,652.328369L265.193756,651.913696L267.673798,650.941528L269.885956,649.457458L299.886414,629.782959L302.532135,626.967041L304.452606,623.614197L305.543060,619.907471L305.744080,616.048767L305.044708,612.248779L303.483124,608.714478L301.144409,605.638794L289.871735,597.186096L279.436340,588.264282L277.615173,586.611206L275.506470,585.345093L273.191345,584.514648L270.758759,584.151855L268.301971,584.270691L265.915649,584.866455L263.691498,585.916382L261.714752,587.380005L260.061646,589.201172L258.795532,591.309814L257.965149,593.625000L257.602386,596.057617L257.721161,598.514404L258.316956,600.900635L259.366852,603.124878L260.830475,605.101562L268.819489,616.542114L272.709778,616.262207L263.010193,623.135681L261.169678,623.411560z" fill="#FAFE70" stroke="none" fill-opacity="0.261109591" />
				<polygon points="683.381348,638.151428 672.394287,641.322510 662.182495,645.323547 652.904907,649.792603 644.420349,655.077759 651.510437,665.595581 659.125427,676.783936 667.634460,688.680786 676.512085,701.153442 685.526733,696.084534 695.249023,691.645325 705.813354,687.795532 716.668030,684.290283 707.724792,672.034668 698.872070,660.187378 690.936584,648.846130" fill="#61DD4A" stroke="none" fill-opacity="1" />
				<polygon points="611.930908,637.525208 601.380859,635.018921 590.949524,632.922729 580.252991,631.087036 568.913269,629.051392 568.061951,640.195862 567.484558,651.668457 566.842224,663.668213 566.468567,675.761230 576.986267,678.037842 587.317749,680.497070 597.755432,683.190552 608.120728,686.483398 608.463257,673.420288 609.326355,660.751587 610.473022,648.869873" fill="#61DD4A" stroke="none" fill-opacity="1" />
				<polygon points="695.129028,589.867615 682.159302,597.145142 669.549561,605.228394 658.218140,614.089172 647.719727,624.062439 660.321106,634.691895 674.565674,647.044800 690.060181,660.783386 706.669678,675.830994 718.427917,665.912598 731.241882,657.101929 744.942444,649.003845 759.116699,641.786133 742.217773,627.814514 725.747131,614.377075 709.923096,601.623596" fill="#61DD4A" stroke="none" fill-opacity="1" />
				<polygon points="494.294678,717.960571 482.508545,696.743530 469.302094,675.371887 455.276459,654.026367 440.007629,633.005737 423.555847,639.174438 407.186218,645.386230 390.624512,651.476990 373.647308,657.645630 385.733459,677.576904 397.179108,697.440674 407.813690,717.180664 417.843445,736.905762 437.426758,732.062988 456.606110,727.263306 475.507782,722.568726" fill="#61DD4A" stroke="none" fill-opacity="1" />
				<polygon points="569.396545,559.605347 522.111389,553.948792 477.334198,550.874084 436.185760,550.085327 398.413757,550.041077 410.094757,586.774292 423.170227,623.392700 435.267670,659.666443 444.957367,695.454102 487.035034,698.848572 527.849487,703.328796 562.072205,702.393860 592.272278,698.582764 585.709167,660.418701 580.592651,626.712219 575.553040,594.203247" fill="#61DD4A" stroke="none" fill-opacity="1" />
				<polygon points="511.243042,576.562378 493.144806,580.200684 475.558075,584.265442 458.695038,588.714722 442.490906,593.315918 453.424591,610.326538 464.511841,627.423706 475.339386,644.640808 485.736664,662.017761 502.862793,658.782959 520.144714,655.690613 536.204102,651.458130 551.269714,645.984497 543.199890,630.004517 533.500305,612.937500 522.533325,594.768738" fill="#61DD4A" stroke="none" fill-opacity="1" />
				<polygon points="619.400391,651.416626 617.117371,638.329346 615.676086,626.155151 614.172485,614.471008 612.904785,603.352295 602.417542,604.902161 591.922058,606.540039 581.410706,608.405334 570.737244,610.219971 574.000122,622.313354 576.861877,634.498840 579.639221,646.678223 582.687683,659.593811 591.526672,657.032043 600.651489,654.812805 609.978699,652.853271" fill="#61DD4A" stroke="none" fill-opacity="1" />
				<polygon points="472.930328,536.818237 487.713654,523.240417 503.679657,509.989929 521.703735,497.088318 541.394104,485.063843 524.955811,468.688721 509.788025,452.953003 495.742950,437.497314 483.902771,422.464844 462.355164,435.396912 443.669861,448.896790 427.076324,462.655945 412.245178,476.628540 424.991730,491.504639 439.137573,506.328186 455.465332,521.444458" fill="#61DD4A" stroke="none" fill-opacity="1" />
				<polygon points="687.033020,601.217163 674.244507,569.330200 663.776428,538.201721 649.421509,501.129822 635.602661,462.145447 591.658508,464.180054 545.998718,469.970947 503.894806,478.664124 466.195160,489.617859 488.591553,527.603333 515.519104,567.264709 544.454468,608.385986 566.012634,643.747925 591.342224,627.834229 618.348999,614.130127 649.390747,604.745361" fill="#61DD4A" stroke="none" fill-opacity="1" />
				<polygon points="646.657227,559.555298 636.576355,546.022278 625.011963,530.727417 610.987366,513.415283 596.495361,495.501770 579.045715,502.313904 562.054810,509.501099 546.140686,517.427917 531.083557,525.625671 547.447327,542.864746 564.383484,560.473694 579.309326,576.442017 591.580444,589.878052 603.852539,581.109802 617.379456,573.297607 631.503845,565.903259" fill="#61DD4A" stroke="none" fill-opacity="1" />
				<polygon points="663.650024,760.263367 665.826843,741.628052 667.567261,722.917969 669.823425,704.798401 672.747192,687.618530 656.561951,677.276062 641.816589,668.388428 628.589966,660.744873 616.279785,654.537598 613.402161,670.976990 611.207092,688.198120 609.595154,706.460693 608.099792,725.175049 620.913269,732.747742 634.502991,741.200256 648.839294,750.431946" fill="#61DD4A" stroke="none" fill-opacity="1" />
				<polygon points="567.514099,549.334839 597.928711,547.454041 627.582092,545.375000 656.893433,544.772217 684.637146,546.001221 680.849487,525.851562 675.499939,502.844421 670.047363,479.277100 666.871216,456.639587 638.441589,452.036316 605.405701,449.050171 569.059937,448.381104 533.134583,449.728271 538.419312,473.693726 546.074280,498.192749 555.781433,523.382568" fill="#61DD4A" stroke="none" fill-opacity="1" />
				<polygon points="809.469360,724.372314 811.326050,714.475159 813.202271,704.708740 815.121094,695.147705 817.118774,685.797852 805.818420,681.628906 793.873352,676.956299 781.576294,672.137939 769.079956,667.059204 767.609253,676.593018 766.390381,686.410400 765.255615,696.526062 764.508606,706.922852 776.376160,711.788574 787.743958,716.336792 798.832336,720.560059" fill="#61DD4A" stroke="none" fill-opacity="1" />
				<polygon points="753.435791,665.968872 748.781006,642.602417 744.771973,621.124023 740.104614,600.808716 734.858398,581.306641 710.008850,575.693359 685.858826,571.547485 662.775024,569.362671 641.073975,568.763428 642.248901,586.903809 643.914734,605.569580 646.522156,625.446960 650.801147,647.904358 672.929077,649.523560 697.823975,653.569336 724.894043,659.328064" fill="#61DD4A" stroke="none" fill-opacity="1" />
				<polygon points="557.028076,453.076904 524.276489,493.614685 502.684235,537.164062 490.252380,582.606445 482.463318,629.076111 533.165710,656.168396 571.994019,675.345825 607.137756,695.489990 647.472473,724.893311 659.244324,673.389343 682.046509,633.134705 714.647827,603.240356 744.032227,577.896729 698.701294,546.956116 657.520813,517.329895 608.735596,483.587769" fill="#61DD4A" stroke="none" fill-opacity="1" />
				<polygon points="356.573120,548.693604 348.891846,555.243042 341.154449,561.857056 333.220520,568.326660 325.276154,574.706543 331.717255,585.072388 338.819397,595.312195 346.158752,605.527588 354.137085,615.634155 362.426666,609.282959 370.917480,602.895264 379.125061,596.373291 387.265503,589.811768 379.132690,579.538208 370.965332,569.303101 363.464233,559.046814" fill="#61DD4A" stroke="none" fill-opacity="1" />
				<polygon points="361.851685,665.814697 352.501892,663.507690 343.414459,661.211609 334.112823,658.929565 324.922485,656.614990 324.056122,664.040466 322.937561,671.468872 321.620697,678.923035 320.301331,686.337036 329.657135,688.667175 339.188171,690.911011 348.671661,693.271362 358.267303,695.596375 359.441650,688.226257 360.365784,680.828125 361.057800,673.361633" fill="#61DD4A" stroke="none" fill-opacity="1" />
				<polygon points="436.257996,551.860962 424.553192,542.476074 413.554596,532.985840 403.084473,523.773743 393.317352,514.412109 387.297516,522.990845 381.631348,531.362000 376.454926,539.959045 371.507935,548.426392 381.775055,557.799133 392.060211,567.108276 403.699249,576.518555 415.354889,585.941467 420.481628,577.328735 425.256378,568.815247 430.570251,560.294556" fill="#61DD4A" stroke="none" fill-opacity="1" />
				<polygon points="556.760620,337.977417 461.479614,356.427856 504.305176,377.742920 577.349121,360.856201" fill="#EEF4D9" stroke="none" fill-opacity="1" />
				<path d="M559.077637,349.943054L561.367493,349.261047L563.480286,348.145508L565.334900,346.639160L566.859924,344.799988L567.996948,342.698608L568.702148,340.415771L568.948425,338.039246L568.726257,335.660461L568.044312,333.370544L566.928772,331.257812L565.422485,329.403198L563.583191,327.877991L561.481812,326.741089L559.199036,326.035950L556.822449,325.789734L554.443604,326.011780L459.437317,345.880798L457.309479,346.527222L455.360413,347.597900L453.673492,349.046997L452.321075,350.812378L451.361145,352.818359L450.834808,354.978943L450.764526,357.201721L451.153503,359.391296L451.984863,361.453918L453.223114,363.301086L454.815155,364.853821L456.692780,366.045349L498.384583,389.638489L502.750031,390.939087L507.298157,390.689026L581.425781,378.489380L584.973206,377.270264L588.193237,375.346069L590.947388,372.799377L593.117310,369.739563L594.609924,366.298279L595.361023,362.623169L595.338440,358.872070L594.542969,355.206238L593.009033,351.783142L590.802246,348.749756L565.820251,329.824646L564.055725,328.213867L562.010742,326.978333L559.764038,326.165405L557.401855,325.806396L555.015137,325.915161L552.695496,326.487488L550.531982,327.501343L548.607910,328.917847L546.997131,330.682373L545.761475,332.727356L544.948669,334.973999L544.589661,337.336182L544.698364,339.722900L545.270691,342.042664L546.284546,344.206055L547.701050,346.130188L560.088501,355.414062L505.957581,363.722961L494.664429,360.944397z" fill="#FAFE70" stroke="none" fill-opacity="0.261109591" />
				<polygon points="249.449615,695.127686 191.650131,747.443054 131.788849,737.226807 132.887650,695.229370 141.220551,677.236816 164.456177,682.570862 200.316467,650.645752 223.754028,673.248840" fill="#EEF4D9" stroke="none" fill-opacity="1" />
				<path d="M260.490479,707.325928L262.658112,704.937622L264.318176,702.172241L265.406738,699.136169L265.882172,695.946045L265.726074,692.724487L264.944458,689.595337L263.567444,686.678711L261.647858,684.086792L259.259552,681.919189L256.494171,680.259155L253.458069,679.170532L250.267914,678.695068L247.046417,678.851196L243.917252,679.632812L241.000656,681.009827L238.408752,682.929443L187.274826,732.414368L143.648010,727.482788L144.421173,697.929077L147.793396,690.647583L161.865631,693.855530L164.602203,694.148071L167.330475,693.786621L169.896408,692.791260L172.154892,691.218628L200.014160,665.807495L215.763977,681.533813L238.783249,707.654785L241.432159,709.494934L244.389099,710.783020L247.540558,711.469482L250.765381,711.527954L253.939575,710.956055L256.941315,709.776001L259.655060,708.032959L261.976715,705.794006L263.816925,703.145142L265.104950,700.188110L265.791382,697.036682L265.849854,693.811890L265.277985,690.637695L264.097870,687.635986L262.354889,684.922119L260.115967,682.600586L231.487366,664.716370L208.038025,642.639160L206.165985,641.184692L204.028244,640.160034L201.721970,639.611572L199.351791,639.564331L197.025543,640.020386L194.848709,640.959106L192.920151,642.337769L161.221436,669.948914L143.816071,665.930664L141.203552,665.636597L138.591904,665.938354L136.115341,666.820374L133.900909,668.237427L132.062469,670.116821L130.694443,672.361755L122.361549,690.354370L121.291351,694.925964L120.192657,736.923401L120.447914,739.665649L121.342560,742.270508L122.825996,744.591064L124.814758,746.496399L127.196671,747.879272L129.837341,748.661621L189.281677,761.320923L193.510376,761.398071L197.571198,760.215820L201.097641,757.880920z" fill="#FAFE70" stroke="none" fill-opacity="0.261109591" />
			</g>
			<g id="layer.apron.uuid_0x6">
				<polyline points="609.234802,408.704468 576.413940,392.368347 573.530457,418.101746 607.160645,434.319885 628.411804,430.316162 631.174377,409.883728" fill="#000000" stroke="none" fill-opacity="1" />
				<polyline points="461.845428,422.616821 499.400482,398.642944 507.158661,423.628296 467.614807,446.196106 441.220215,449.679565 435.190552,429.239868" fill="#000000" stroke="none" fill-opacity="1" />
				<polyline points="414.484009,499.892517 424.511841,513.326782 466.400574,536.590332 538.557007,506.787292 594.016418,512.631470 620.975403,516.636169 641.721863,508.158447 648.289978,479.332458 640.934265,457.411011 642.033447,478.378113 631.466675,497.621704 596.459534,496.765198 534.949036,489.412781 463.638763,519.500916 420.284302,500.534363 410.865051,473.955811" fill="#000000" stroke="none" fill-opacity="1" />
			</g>
		</g>
	</g>
</svg>
