<?xml version="1.0" encoding="UTF-8"?>
<!-- Generator: Blender, SVG Export for Grease Pencil - v2.0 -->
<!DOCTYPE svg PUBLIC "-//W3C//DTD SVG 1.1//EN" "http://www.w3.org/Graphics/SVG/1.1/DTD/svg11.dtd">
<svg version="1.1" x="0px" y="0px" xmlns="http://www.w3.org/2000/svg" width="1920.000000px" height="1080.000000px" viewBox="0 0 1920.000000 1080.000000">
	<g id="blender_frame.2">
		<g id="blender_object.Stroke.2.uuid_0x0">
			<g id="layer.Fills.uuid_0x1" />
			<g id="layer.black.uuid_0x2" />
			<g id="layer.skin.uuid_0x3" />
			<g id="layer.yella.uuid_0x4" />
			<g id="layer.red.uuid_0x5">
				<polygon points="587.956787,330.090088 653.679016,332.112244 732.545593,386.712708 812.508484,464.645020 839.474304,519.356079 864.917786,599.220825 938.812317,665.781738 978.414185,716.843262 978.245605,732.515625 952.967773,782.060547 761.867859,819.471924 541.445740,835.649841 369.556885,802.282898 154.127655,757.023682 92.802254,734.373291 95.162148,719.992737 115.144951,684.470581 138.507095,668.614624 201.948212,638.757324 325.068054,563.658630 363.490143,533.325012 467.634705,428.168640 546.838745,339.755615" fill="#83E759" stroke="none" fill-opacity="1" />
				<path d="M588.028564,327.758423L587.572266,327.789246L587.130798,327.908508L586.721069,328.111511L586.358826,328.390564L586.057983,328.734985L585.830139,329.131470L585.684021,329.564819L585.625183,330.018250L585.656006,330.474548L585.775208,330.916016L585.978333,331.325806L586.257385,331.687988L586.601746,331.988831L586.998230,332.216675L587.431519,332.362793L587.885010,332.421570L651.566345,338.526978L729.051636,390.954346L808.513733,467.546021L837.886108,519.996216L860.127502,600.746948L861.553040,602.956299L937.177734,667.300232L971.511475,719.164978L974.190979,731.517944L943.977173,770.139526L761.199585,814.488281L542.213867,822.697754L370.090668,799.642090L156.077026,750.255615L102.718735,728.600708L100.058388,721.711182L121.177589,690.017395L139.719131,670.740967L202.894592,640.768005L329.091125,570.254272L367.344666,538.207275L468.964752,429.485840L548.883728,343.201538L588.490540,332.360779L588.923401,332.212952L589.318848,331.983643L589.662170,331.681519L589.939941,331.318298L590.141357,330.907776L590.259033,330.465820L590.288086,330.009521L590.227539,329.556213L590.079773,329.123474L589.850464,328.727844L589.548340,328.384644L589.184998,328.106934L588.774475,327.905334L588.332642,327.787842L587.876221,327.758728L587.422913,327.819214L545.964111,336.034546L544.888000,336.468384L543.991699,337.205078L466.271729,426.884644L359.337677,528.678101L320.646790,557.305847L200.893478,636.797729L137.468033,666.406860L110.665108,677.870056L108.192383,680.559448L90.708557,717.487366L81.479416,732.515259L81.353989,735.144836L81.831146,737.733765L82.885834,740.145874L84.462486,742.254089L86.478195,743.947510L88.826744,745.136841L151.693954,763.612793L369.002991,804.919495L538.994934,848.275330L762.235229,824.477600L955.547180,795.236633L959.348206,793.873718L962.572144,791.442383L964.927368,788.162292L981.866699,734.363159L982.310547,732.559326L985.291138,716.917236L984.932678,714.650879L983.848572,712.628540L940.568237,664.419800L869.294495,596.396973L841.101318,518.837708L816.872864,462.493958L736.367859,382.790955L657.365662,326.787109L655.705017,325.960510L653.878235,325.638550z" fill="#000000" stroke="none" fill-opacity="1" />
				<polygon points="802.864502,571.584473 788.477966,515.621887 747.206482,463.343018 682.147583,404.842834 590.077515,359.637573 542.562683,410.018494 496.662811,460.821777 448.729828,511.093262 399.010010,560.897156 393.549408,598.462891 377.308319,629.902100 310.943817,653.766235 198.005264,740.442871 465.377075,788.112061 750.766846,772.168091 881.825500,728.659363" fill="#6BE84D" stroke="none" fill-opacity="1" />
				<polygon points="545.374268,395.546753 534.073425,411.410156 513.764648,402.109680 533.661316,388.094543" fill="#EEF4D9" stroke="none" fill-opacity="1" />
				<path d="M554.520142,402.062134L555.615417,400.152649L556.317200,398.066223L556.598511,395.882935L556.448364,393.686768L555.872742,391.562012L554.893555,389.590393L553.548645,387.847778L551.889587,386.400879L549.980164,385.305603L547.893677,384.603821L545.710388,384.322571L543.514099,384.472595L541.389404,385.048340L539.417786,386.027405L537.675232,387.372375L536.228394,389.031433L529.977844,396.087158L525.805298,400.997498L533.981628,401.711609L539.346313,405.020935L541.310486,406.015015L543.430786,406.606628L545.625793,406.773193L547.811157,406.508484L549.902771,405.822449L551.820496,404.741455L553.490417,403.307251L554.848511,401.574768L555.842407,399.610596L556.434082,397.490295L556.600708,395.295227L556.335876,393.109924L555.649902,391.018188L554.568909,389.100525L553.134705,387.430603L551.402222,386.072510L539.736328,378.546387L537.334778,377.390381L534.729370,376.828186L532.064880,376.890808L529.488953,377.574951L527.144287,378.842590L506.801361,392.224060L504.894897,393.891541L503.377502,395.919495L502.315857,398.219055L501.756561,400.689270L501.724091,403.221924L502.219940,405.705688L503.222229,408.031616L504.687195,410.097839L506.550293,411.813538L508.730042,413.103516L528.982727,422.526367L531.653564,423.394653L534.452026,423.630676L537.230530,423.221863L539.842407,422.189819L542.150024,420.589111L544.031372,418.504089z" fill="#FAFE70" stroke="none" fill-opacity="0.261109591" />
				<polygon points="323.342072,593.644287 293.862579,617.540649 308.158051,634.962952 341.173584,615.210144 332.257874,604.427246" fill="#EEF4D9" stroke="none" fill-opacity="1" />
				<path d="M331.242767,603.390991L333.096558,601.535278L334.524017,599.334839L335.462799,596.885559L335.871796,594.294678L335.733215,591.675415L335.053070,589.142212L333.861115,586.805725L332.209381,584.768066L330.170227,583.118469L327.832520,581.928772L325.298584,581.251221L322.679138,581.115234L320.088654,581.526855L317.640381,582.468018L315.441345,583.897705L287.094421,609.191284L285.400543,610.913818L284.134186,612.971191L283.359375,615.259521L283.115204,617.663025L283.414001,620.060364L284.240784,622.330444L285.553619,624.358459L298.662018,642.754639L300.758209,644.767334L303.268585,646.231323L306.052612,647.064575L308.954468,647.220520L311.811737,646.690430L314.464478,645.503906L349.668488,629.408752L352.505981,627.265869L354.820068,624.566284L356.503998,621.434570L357.479828,618.015381L357.702698,614.466675L357.162201,610.952271L355.883331,607.634521L353.925049,604.666687L343.278107,595.315186L333.011383,585.649292L331.265869,583.916504L329.215790,582.557495L326.940002,581.624634L324.525879,581.153687L322.066376,581.162720L319.655914,581.651489L317.386993,582.601074L315.346954,583.974976L313.614166,585.720520L312.255219,587.770630L311.322296,590.046387L310.851349,592.460449L310.860443,594.919983L311.349152,597.330566L312.298737,599.599365L313.672699,601.639404L321.237518,613.539307L324.867371,612.404846L310.937622,618.985840L309.030060,619.081543z" fill="#FAFE70" stroke="none" fill-opacity="0.261109591" />
				<polygon points="725.300598,678.096191 716.421936,682.874146 707.618958,687.640015 699.089417,692.423828 690.556519,697.223572 694.911499,706.529114 699.355652,715.857422 704.085205,725.213257 708.947449,734.622314 718.050232,729.879395 727.211182,725.161987 736.628784,720.430054 746.154419,715.748779 740.582092,706.277100 735.234070,696.845337 730.195190,687.468811" fill="#61DD4A" stroke="none" fill-opacity="1" />
				<polygon points="663.093323,676.724121 653.422241,671.592407 643.880310,666.457397 634.405823,661.345581 624.790588,656.248047 620.474487,666.764038 615.962585,677.309326 611.222656,687.886353 606.284485,698.435059 616.328796,703.635559 626.416382,708.815918 636.384155,714.040833 646.509766,719.243896 650.874634,708.623413 655.058655,697.966309 659.111328,687.321960" fill="#61DD4A" stroke="none" fill-opacity="1" />
				<polygon points="737.274963,622.147217 726.840759,633.274536 716.743225,644.415161 707.127075,655.606750 697.670715,666.761108 707.279236,677.405701 717.454224,688.119507 728.036865,698.926147 739.315613,709.823608 749.823975,698.685730 760.474304,687.609375 771.606201,676.563049 783.294373,665.506958 770.815796,654.569641 759.049438,643.666016 747.906616,632.861816" fill="#61DD4A" stroke="none" fill-opacity="1" />
				<polygon points="512.555237,728.660461 510.547821,708.190430 508.418762,687.800415 505.817841,667.437256 502.597260,647.099731 479.956543,651.225403 457.706726,655.255981 436.240265,659.177856 415.910248,662.973267 420.091125,683.449707 424.267670,703.924316 428.519531,724.418335 432.931122,744.954102 451.665100,740.969604 471.260284,736.947876 491.624420,732.837891" fill="#61DD4A" stroke="none" fill-opacity="1" />
				<polygon points="643.269775,589.345642 612.849854,584.569336 579.683411,579.312683 542.550293,573.773071 500.043396,568.397278 495.650726,602.601318 489.009705,636.821411 480.676910,671.100586 471.934143,705.446167 514.318848,710.271729 554.738953,715.090393 591.292053,720.068115 625.399963,725.113647 631.044067,691.037842 635.957886,657.136841 639.968140,623.274841" fill="#61DD4A" stroke="none" fill-opacity="1" />
				<polygon points="597.683350,604.239136 581.854004,606.331543 565.199646,608.335571 547.427429,610.351318 528.689026,612.418213 530.377563,628.417786 531.763000,644.385010 532.708984,660.362305 533.248413,676.379822 552.128784,674.157410 569.946289,671.976074 586.803101,669.822815 602.858826,667.667542 601.949341,651.825073 600.732422,635.969238 599.425049,620.128906" fill="#61DD4A" stroke="none" fill-opacity="1" />
				<polygon points="667.476990,691.459045 667.919617,678.643066 668.335571,665.822144 668.731201,653.027466 669.135803,640.268433 659.821899,639.782043 650.558716,639.298340 641.298401,638.792603 632.002075,638.278687 631.239258,651.001526 630.457520,663.726624 629.437622,676.460327 628.278564,689.186035 638.118347,689.760864 647.894043,690.332153 657.629883,690.885986" fill="#61DD4A" stroke="none" fill-opacity="1" />
				<polygon points="580.299927,566.312866 595.388123,554.970886 609.888062,543.544434 624.166687,531.989929 638.485291,520.341248 629.122864,504.386230 619.399780,488.336243 609.084290,472.198608 598.076965,456.026489 582.278564,467.670776 566.452332,479.243347 550.106018,490.759888 533.240662,502.224365 546.219482,518.286926 558.322571,534.308289 569.673706,550.348022" fill="#61DD4A" stroke="none" fill-opacity="1" />
				<polygon points="730.355225,637.163696 721.560425,600.108398 714.368713,563.144226 708.143066,526.091248 702.427917,488.730164 671.708862,497.051758 642.747009,505.390503 614.116882,513.625366 584.561462,521.557129 594.977295,559.070496 603.968323,596.182739 611.298279,632.855225 617.365173,669.454468 645.308533,661.405640 672.511536,653.237183 700.443176,645.082520" fill="#61DD4A" stroke="none" fill-opacity="1" />
				<polygon points="699.478638,590.255737 692.433777,574.642151 685.713928,559.038940 678.912476,543.394287 672.284119,527.650208 660.136963,535.498474 648.437927,543.349182 636.926392,551.127808 625.448059,558.918274 632.721924,574.610352 639.729187,590.210632 646.458008,605.730225 653.216553,621.244568 664.292419,613.505859 675.656494,605.761108 687.276367,597.990479" fill="#61DD4A" stroke="none" fill-opacity="1" />
				<polygon points="680.625671,779.805420 687.911438,765.780579 695.024658,751.799561 702.072876,737.866394 708.853455,723.958496 696.910034,716.285522 685.423279,708.686768 674.409729,701.179932 663.683655,693.725159 656.574402,707.533691 649.214417,721.361450 641.528381,735.175415 633.494141,749.069336 644.793152,756.647034 656.318481,764.310303 668.258545,772.009766" fill="#61DD4A" stroke="none" fill-opacity="1" />
				<polygon points="644.239441,579.942261 664.724915,577.188354 685.846313,574.418884 708.208252,571.754944 732.099060,569.232971 731.151733,545.813477 730.626831,522.302246 730.468811,498.674377 730.721313,474.920532 705.226929,477.497681 681.106079,480.120972 657.921997,482.769714 635.091370,485.366455 637.653442,509.232971 639.917236,532.960266 642.095825,556.518982" fill="#61DD4A" stroke="none" fill-opacity="1" />
				<polygon points="820.762512,736.299683 822.827393,726.758484 824.837708,717.221680 826.947876,707.676880 829.033997,698.133789 819.233215,695.957153 809.350830,693.760986 799.479553,691.491150 789.713379,689.146179 787.886292,698.705200 786.137146,708.260132 784.427063,717.815735 782.753662,727.369507 792.248840,729.667725 801.834229,731.890869 811.360413,734.090088" fill="#61DD4A" stroke="none" fill-opacity="1" />
				<polygon points="777.291870,691.453003 775.059814,668.872681 773.332336,646.329712 772.296814,623.872681 771.966797,601.488403 750.685974,601.270691 730.900513,601.243530 712.429443,601.330505 694.847534,601.560059 695.206238,623.774658 695.860413,645.986694 696.571899,668.248169 697.547119,690.594910 715.818970,690.635742 734.987976,690.793701 755.498657,691.063599" fill="#61DD4A" stroke="none" fill-opacity="1" />
				<polygon points="650.462097,488.253967 626.362366,528.726440 603.373230,568.728516 578.344910,608.082764 548.682373,647.176270 581.787598,673.552368 612.310974,699.796631 642.541687,726.138184 674.922729,752.971802 700.082886,713.005859 724.786133,673.220093 751.203918,633.674805 782.002502,594.351929 744.821960,567.434326 712.004883,541.047119 681.392212,514.799683" fill="#61DD4A" stroke="none" fill-opacity="1" />
				<polygon points="443.748596,560.211914 430.818024,564.871521 418.184998,569.489502 405.813477,574.136475 393.754028,578.865051 398.327637,589.403076 402.966431,599.958252 407.586823,610.508423 412.236267,621.066406 424.921967,616.413513 438.094147,611.728088 451.628082,606.985107 465.413849,602.216431 460.032043,591.750122 454.643829,581.286255 449.148285,570.760925" fill="#61DD4A" stroke="none" fill-opacity="1" />
				<polygon points="400.991760,669.622192 392.828003,666.485413 384.705444,663.359619 376.583008,660.233643 368.460419,657.107727 365.630188,664.461853 362.800079,671.815979 359.969849,679.170044 357.139648,686.524170 365.262207,689.650085 373.384674,692.776001 381.507141,695.901855 389.629669,699.027832 392.459900,691.673706 395.290039,684.319580 398.120209,676.965454" fill="#61DD4A" stroke="none" fill-opacity="1" />
				<polygon points="542.133972,575.354248 533.489014,565.318787 524.576233,555.254333 515.166870,545.199280 505.297974,535.113831 495.306122,541.991577 485.136780,548.844666 474.915741,555.713867 464.534515,562.542786 474.111481,572.621582 483.769348,582.621582 493.359497,592.592163 502.622559,602.538635 513.152710,595.709473 523.268494,588.897217 532.798218,582.132568" fill="#61DD4A" stroke="none" fill-opacity="1" />
				<polygon points="617.333984,360.336853 544.154541,378.603516 592.612122,405.452271 641.338318,385.375854" fill="#EEF4D9" stroke="none" fill-opacity="1" />
				<path d="M620.285645,372.161987L622.535889,371.358887L624.586243,370.132202L626.357910,368.529114L627.782776,366.611328L628.806030,364.452209L629.388550,362.135132L629.507690,359.748840L629.159119,357.385193L628.356018,355.134949L627.129395,353.084595L625.526306,351.312927L623.608459,349.888123L621.449402,348.864807L619.132202,348.282349L616.746033,348.163208L614.382385,348.511780L541.552734,368.180359L539.366211,368.986633L537.404907,370.245667L535.761353,371.897949L534.512695,373.865784L533.717773,376.056641L533.414185,378.367249L533.615906,380.689087L534.313660,382.912781L535.474548,384.933655L537.044006,386.656616L538.948059,388.000488L586.172424,417.075012L589.880798,418.455994L593.831543,418.683655L597.674133,417.737732L648.232910,402.109436L651.659668,400.242615L654.606445,397.684692L656.936523,394.554565L658.541382,390.997681L659.346558,387.179443L659.314636,383.277344L658.446899,379.472961L656.783813,375.942810L654.402832,372.851196L626.132019,351.902405L624.317566,350.348145L622.234558,349.177612L619.963440,348.435913L617.591187,348.151672L615.208984,348.335632L612.908447,348.980835L610.778015,350.062439L608.899597,351.538818L607.345215,353.353333L606.174744,355.436279L605.433167,357.707458L605.148804,360.079773L605.332825,362.461914L605.978027,364.762329L607.059631,366.892822L608.536011,368.771301L609.913879,378.749207L593.460510,390.731445L573.213989,382.422485z" fill="#FAFE70" stroke="none" fill-opacity="0.261109591" />
				<polygon points="293.868256,693.352295 225.461945,741.096802 161.956329,729.689148 171.053177,689.620850 182.983231,672.258057 207.278763,676.257080 249.000092,645.856812 270.649750,669.006958" fill="#EEF4D9" stroke="none" fill-opacity="1" />
				<path d="M303.284851,706.843994L305.735992,704.747681L307.731110,702.213440L309.193420,699.338684L310.066895,696.233826L310.317749,693.018311L309.936615,689.815552L308.937836,686.748779L307.359955,683.935669L305.263641,681.484558L302.729401,679.489441L299.854645,678.027100L296.749878,677.153687L293.534241,676.902771L290.331573,677.284058L287.264740,678.282715L284.451660,679.860535L222.197739,726.206665L175.956619,720.418213L181.873230,694.357422L188.370728,684.901123L205.398270,687.681519L208.447769,687.776123L211.416092,687.070801L214.097168,685.614685L247.597321,660.641846L262.243011,676.868774L281.962006,704.707458L284.406036,706.812012L287.213745,708.399414L290.277161,709.408569L293.478516,709.800659L296.695007,709.560608L299.802765,708.697632L302.682434,707.244995L305.223480,705.258545L307.328064,702.814514L308.915405,700.006836L309.924469,696.943359L310.316559,693.741943L310.076508,690.525513L309.213623,687.417847L307.760986,684.538086L305.774506,681.997070L279.017944,661.103943L257.124298,638.259094L255.072159,636.537048L252.667740,635.355591L250.050659,634.783203L247.372559,634.853149L244.788940,635.561401L242.449554,636.866821L204.377213,664.045532L184.867386,660.811829L182.250137,660.680969L179.670349,661.140930L177.259583,662.168213L175.141006,663.710327L173.422440,665.688721L161.492386,683.051514L159.740814,687.052551L150.644012,727.120911L150.356537,729.777893L150.684631,732.430298L151.611099,734.937134L153.086700,737.165405L155.033051,738.996826L157.346924,740.334229L159.905365,741.106567L222.972839,754.953430L226.651901,755.124878L230.249573,754.336182L233.519485,752.641357z" fill="#FAFE70" stroke="none" fill-opacity="0.261109591" />
			</g>
			<g id="layer.apron.uuid_0x6">
				<polyline points="713.351685,447.587830 683.066284,429.219177 676.593933,454.946777 706.854858,476.016113 728.718445,481.530701 735.273315,460.239868" fill="#000000" stroke="none" fill-opacity="1" />
				<polyline points="570.557434,443.419861 608.681946,427.495911 615.279480,453.670898 577.253357,472.262146 549.393860,475.944153 542.431030,454.257141" fill="#000000" stroke="none" fill-opacity="1" />
				<polyline points="516.260925,536.279968 528.959961,546.850708 538.915527,577.311279 613.636230,629.242432 666.644775,618.522217 700.267273,569.174316 725.484131,564.788635 746.814758,534.818665 738.765381,513.840088 741.713623,528.520081 725.280457,554.393188 686.391113,554.804993 636.135071,544.464783 572.956787,550.734131 523.901672,534.936584 512.034302,509.609802" fill="#000000" stroke="none" fill-opacity="1" />
			</g>
		</g>
	</g>
</svg>
