<?xml version="1.0" encoding="UTF-8"?>
<!-- Generator: Blender, SVG Export for Grease Pencil - v2.0 -->
<!DOCTYPE svg PUBLIC "-//W3C//DTD SVG 1.1//EN" "http://www.w3.org/Graphics/SVG/1.1/DTD/svg11.dtd">
<svg version="1.1" x="0px" y="0px" xmlns="http://www.w3.org/2000/svg" width="1920.000000px" height="1080.000000px" viewBox="0 0 1920.000000 1080.000000">
	<g id="blender_frame.1">
		<g id="blender_object.Stroke.1.uuid_0x0">
			<g id="layer.Fills.uuid_0x1" />
			<g id="layer.black.uuid_0x2" />
			<g id="layer.skin.uuid_0x3" />
			<g id="layer.yella.uuid_0x4" />
			<g id="layer.red.uuid_0x5">
				<polygon points="587.95685,330.09003 653.6791,332.11224 732.54565,386.71277 812.50854,464.64502 839.47437,519.356 864.9178,599.2208 938.8124,665.78174 978.4142,716.84326 978.2457,732.5156 952.9678,782.06055 761.8679,819.4719 541.44574,835.64984 369.55692,802.2829 154.12767,757.0236 92.80226,734.3733 95.16215,719.99274 115.144966,684.47064 138.50711,668.6146 201.94823,638.7573 325.06805,563.6586 363.49017,533.325 467.6347,428.16864 546.8388,339.75555" fill="#53ABE7" stroke="none" fill-opacity="1" />
				<path d="M588.02856,327.75842L587.5723,327.78918L587.1308,327.90845L586.72107,328.1115L586.3589,328.39056L586.05804,328.735L585.83014,329.13147L585.684,329.56476L585.6252,330.01825L585.656,330.47455L585.7752,330.91602L585.9784,331.32574L586.2574,331.688L586.60175,331.98877L586.9983,332.2166L587.4315,332.3628L587.8851,332.42157L651.5664,338.52704L729.0517,390.9544L808.5138,467.54596L837.8861,519.9962L860.12756,600.74695L861.55304,602.9563L937.1778,667.30023L971.5116,719.165L974.1911,731.51794L943.9772,770.1395L761.19965,814.4883L542.21387,822.6977L370.09067,799.6421L156.07706,750.2556L102.718735,728.6007L100.05839,721.7112L121.177605,690.0174L139.71915,670.74097L202.89459,640.768L329.09113,570.2543L367.34464,538.2073L468.96475,429.48584L548.8837,343.20148L588.49054,332.36078L588.9234,332.21295L589.3189,331.98358L589.66223,331.68152L589.94,331.31824L590.14136,330.9077L590.25903,330.46582L590.2881,330.00952L590.22754,329.5562L590.07983,329.12347L589.8505,328.72784L589.5484,328.38458L589.185,328.10687L588.7745,327.90533L588.33264,327.78784L587.8763,327.75873L587.4229,327.8192L545.9641,336.03455L544.888,336.46838L543.9917,337.20502L466.27173,426.88464L359.33768,528.6781L320.64682,557.30585L200.8935,636.7977L137.46805,666.40686L110.665115,677.87006L108.19239,680.55945L90.708565,717.48737L81.479416,732.51526L81.354,735.1448L81.831154,737.73376L82.88584,740.1459L84.462494,742.2541L86.4782,743.9475L88.82676,745.13684L151.69395,763.6128L369.00302,804.9195L538.995,848.2753L762.2353,824.4776L955.54724,795.23663L959.34827,793.8737L962.57227,791.4424L964.92737,788.1623L981.8667,734.3631L982.3106,732.5593L985.29114,716.91724L984.9327,714.6509L983.84863,712.62854L940.56836,664.4198L869.29456,596.397L841.1013,518.8377L816.87286,462.49396L736.36786,382.7909L657.3657,326.7871L655.705,325.9605L653.87823,325.63855z" fill="#000000" stroke="none" fill-opacity="1" />
				<polygon points="802.86456,571.5845 788.478,515.6219 747.2066,463.34302 682.1477,404.8429 590.0775,359.6375 542.5627,410.0185 496.66287,460.82178 448.72983,511.0932 399.01007,560.8971 393.54947,598.4628 377.30835,629.9021 310.94382,653.76624 198.00528,740.4429 465.37708,788.11206 750.76685,772.1681 881.82556,728.6593" fill="#7FD2E8" stroke="none" fill-opacity="1" />
				<polygon points="545.3743,395.54675 534.0735,411.41016 513.76465,402.10968 533.6614,388.09454" fill="#EEF4D9" stroke="none" fill-opacity="1" />
				<path d="M554.52014,402.06213L555.6155,400.15265L556.31726,398.06622L556.5985,395.88293L556.44836,393.6867L555.87274,391.562L554.8936,389.5904L553.5487,387.84778L551.88965,386.40088L549.98016,385.3056L547.8937,384.60382L545.7104,384.32257L543.51416,384.4726L541.38947,385.04828L539.41785,386.0274L537.67523,387.37238L536.2284,389.03143L529.97784,396.0871L525.80536,400.9975L533.9817,401.7116L539.3464,405.021L541.3105,406.01495L543.43085,406.60663L545.6258,406.77325L547.81116,406.50842L549.90283,405.82245L551.8205,404.74152L553.4904,403.30725L554.8485,401.5747L555.8424,399.61053L556.4341,397.49023L556.6007,395.2953L556.3359,393.10992L555.6499,391.0182L554.5689,389.10046L553.13477,387.4306L551.4022,386.07257L539.7364,378.54645L537.3348,377.39044L534.72943,376.8282L532.06494,376.8908L529.48895,377.5749L527.1443,378.84253L506.8014,392.22412L504.89496,393.89148L503.37756,395.91943L502.31586,398.219L501.7566,400.68927L501.7241,403.22186L502.21997,405.7057L503.22226,408.03162L504.6872,410.09784L506.5503,411.81354L508.73007,413.10352L528.9828,422.5263L531.6536,423.39465L534.452,423.6306L537.2306,423.22186L539.84247,422.18988L542.15,420.5891L544.03143,418.5041z" fill="#8CFEB5" stroke="none" fill-opacity="0.261109591" />
				<polygon points="323.34207,593.6443 293.86258,617.54065 308.15805,634.9629 341.1736,615.2101 332.25787,604.42725" fill="#EEF4D9" stroke="none" fill-opacity="1" />
				<path d="M331.2428,603.3909L333.09656,601.5353L334.52402,599.33484L335.46277,596.88556L335.8718,594.2947L335.73322,591.6754L335.0531,589.1422L333.86115,586.80566L332.2094,584.76807L330.17023,583.11847L327.83255,581.9288L325.2986,581.2512L322.67917,581.11523L320.08868,581.52686L317.64038,582.468L315.44135,583.8977L287.09445,609.1912L285.40054,610.9138L284.13422,612.9712L283.35938,615.2595L283.11523,617.663L283.41403,620.0604L284.2408,622.3304L285.55362,624.35846L298.66202,642.7546L300.75824,644.76733L303.26862,646.2313L306.0526,647.0646L308.9545,647.2205L311.81174,646.6904L314.46448,645.5039L349.66852,629.40875L352.506,627.26587L354.82007,624.5663L356.50403,621.4346L357.47986,618.0154L357.70273,614.4667L357.1622,610.9523L355.88333,607.6345L353.92508,604.6666L343.27814,595.3152L333.0114,585.64923L331.2659,583.9165L329.2158,582.5575L326.94003,581.62463L324.52588,581.1537L322.0664,581.1627L319.65594,581.6514L317.387,582.601L315.347,583.975L313.61417,585.7205L312.25525,587.7706L311.32236,590.0464L310.85135,592.46045L310.86044,594.9199L311.34918,597.3305L312.29874,599.59937L313.67273,601.6394L321.23755,613.5393L324.8674,612.40485L310.93765,618.98584L309.0301,619.08154z" fill="#8CFEB5" stroke="none" fill-opacity="0.261109591" />
				<polygon points="725.3006,678.0962 716.42206,682.87415 707.619,687.64 699.0894,692.4238 690.5565,697.2236 694.9115,706.5292 699.35565,715.8574 704.08527,725.2132 708.9476,734.6223 718.0503,729.87933 727.21124,725.162 736.62885,720.4301 746.1544,715.7488 740.58215,706.2771 735.23413,696.84534 730.19525,687.4688" fill="#83DDD7" stroke="none" fill-opacity="1" />
				<polygon points="663.0934,676.7241 653.4223,671.5924 643.8803,666.4574 634.4059,661.3456 624.7907,656.24805 620.47455,666.76404 615.9626,677.3093 611.2227,687.88635 606.28455,698.43506 616.3288,703.63556 626.4164,708.8159 636.3842,714.0408 646.5098,719.2439 650.8747,708.6234 655.0587,697.9663 659.1114,687.32196" fill="#83DDD7" stroke="none" fill-opacity="1" />
				<polygon points="737.2751,622.1472 726.8409,633.2745 716.7433,644.41516 707.12714,655.6067 697.6708,666.7611 707.27924,677.4057 717.4543,688.1195 728.03687,698.92615 739.3157,709.8236 749.82404,698.6857 760.47437,687.6094 771.6062,676.56305 783.2944,665.50696 770.81586,654.5696 759.04944,643.666 747.9067,632.8618" fill="#83DDD7" stroke="none" fill-opacity="1" />
				<polygon points="512.55524,728.6604 510.54785,708.1904 508.41876,687.8004 505.8179,667.43726 502.59726,647.09973 479.9566,651.2254 457.70676,655.256 436.24026,659.17786 415.91028,662.97327 420.09116,683.4497 424.26767,703.9243 428.51956,724.41833 432.93115,744.9541 451.66513,740.9696 471.26035,736.9479 491.62448,732.8379" fill="#83DDD7" stroke="none" fill-opacity="1" />
				<polygon points="643.2698,589.3457 612.8499,584.56934 579.6834,579.3127 542.5503,573.7731 500.04343,568.3972 495.65076,602.6013 489.00974,636.82135 480.67694,671.1006 471.93417,705.44617 514.3189,710.2717 554.739,715.09033 591.29205,720.0681 625.39996,725.11365 631.04407,691.03784 635.95795,657.13684 639.9682,623.2749" fill="#83DDD7" stroke="none" fill-opacity="1" />
				<polygon points="597.6834,604.23914 581.854,606.33154 565.19965,608.3356 547.4274,610.3513 528.689,612.41815 530.37756,628.4178 531.763,644.385 532.709,660.3623 533.2485,676.3799 552.12885,674.15735 569.94635,671.9761 586.80316,669.82275 602.8589,667.66754 601.9494,651.8251 600.7324,635.96924 599.4251,620.1289" fill="#83DDD7" stroke="none" fill-opacity="1" />
				<polygon points="667.477,691.459 667.9197,678.64307 668.33563,665.82214 668.7313,653.02747 669.1358,640.26843 659.82196,639.78204 650.5588,639.29834 641.29846,638.7926 632.002,638.2787 631.2393,651.0015 630.4576,663.7267 629.4377,676.4604 628.27856,689.18604 638.11835,689.76086 647.89417,690.33215 657.62994,690.886" fill="#83DDD7" stroke="none" fill-opacity="1" />
				<polygon points="580.2999,566.31287 595.3882,554.97095 609.88806,543.54443 624.16675,531.99 638.48535,520.3412 629.1229,504.38623 619.39984,488.33624 609.08435,472.1986 598.07697,456.02643 582.2786,467.67078 566.45233,479.24335 550.1061,490.75983 533.24066,502.22437 546.2195,518.2869 558.3226,534.3082 569.6737,550.34796" fill="#83DDD7" stroke="none" fill-opacity="1" />
				<polygon points="730.3553,637.1637 721.5604,600.1084 714.3687,563.14417 708.1431,526.09125 702.428,488.7301 671.70886,497.05176 642.747,505.3905 614.1169,513.6253 584.56146,521.5571 594.9773,559.0705 603.9684,596.18274 611.29834,632.8552 617.3652,669.45447 645.30853,661.40564 672.5116,653.2371 700.44324,645.0825" fill="#83DDD7" stroke="none" fill-opacity="1" />
				<polygon points="699.4787,590.25574 692.4338,574.64215 685.714,559.0389 678.9125,543.3942 672.2842,527.6502 660.13696,535.4985 648.438,543.3492 636.9264,551.1278 625.4481,558.9183 632.722,574.6103 639.7292,590.21063 646.45807,605.7302 653.21655,621.24457 664.2925,613.50586 675.65656,605.76105 687.27637,597.9905" fill="#83DDD7" stroke="none" fill-opacity="1" />
				<polygon points="680.6257,779.8054 687.91144,765.7806 695.02466,751.79956 702.0728,737.86633 708.85345,723.95844 696.91003,716.2855 685.4233,708.68677 674.4098,701.17993 663.68365,693.7251 656.57446,707.5337 649.2144,721.36145 641.52844,735.1754 633.4941,749.06934 644.7932,756.647 656.3185,764.3103 668.25854,772.00977" fill="#83DDD7" stroke="none" fill-opacity="1" />
				<polygon points="644.2395,579.9423 664.7249,577.18835 685.8464,574.4189 708.20825,571.755 732.09906,569.2329 731.15173,545.8135 730.6269,522.30225 730.4688,498.67432 730.7214,474.92047 705.22687,477.49762 681.10614,480.12097 657.922,482.7697 635.0914,485.3664 637.6535,509.2329 639.91724,532.9602 642.0959,556.519" fill="#83DDD7" stroke="none" fill-opacity="1" />
				<polygon points="820.7626,736.2997 822.8274,726.7585 824.83777,717.2217 826.94794,707.6768 829.03406,698.1338 819.2332,695.95715 809.3508,693.761 799.4796,691.49115 789.71344,689.1462 787.8863,698.7052 786.1372,708.26013 784.42706,717.81573 782.7537,727.3695 792.24896,729.6677 801.8342,731.8908 811.3605,734.0901" fill="#83DDD7" stroke="none" fill-opacity="1" />
				<polygon points="777.29193,691.453 775.0599,668.8727 773.33234,646.3297 772.2968,623.8726 771.9668,601.4884 750.686,601.27075 730.90063,601.2435 712.42944,601.3305 694.8476,601.5602 695.2063,623.77466 695.8604,645.9867 696.5719,668.24817 697.5472,690.5949 715.81903,690.6357 734.98804,690.7937 755.4987,691.0636" fill="#83DDD7" stroke="none" fill-opacity="1" />
				<polygon points="650.4621,488.25397 626.36237,528.72644 603.3733,568.7285 578.345,608.08276 548.68243,647.1763 581.78766,673.55237 612.311,699.79663 642.54175,726.1382 674.9228,752.9718 700.0829,713.00586 724.78613,673.2201 751.2039,633.6748 782.00256,594.3519 744.822,567.4343 712.0049,541.04706 681.3922,514.7997" fill="#83DDD7" stroke="none" fill-opacity="1" />
				<polygon points="443.7486,560.2119 430.81805,564.8715 418.18503,569.48944 405.8135,574.1365 393.7541,578.8651 398.32764,589.4031 402.96646,599.95825 407.58685,610.5084 412.23627,621.06635 424.922,616.41345 438.09415,611.7281 451.62808,606.9851 465.41388,602.21643 460.0321,591.75006 454.64386,581.28625 449.14832,570.76086" fill="#83DDD7" stroke="none" fill-opacity="1" />
				<polygon points="400.9918,669.6222 392.828,666.4854 384.70544,663.35956 376.583,660.23364 368.46045,657.1077 365.63022,664.46185 362.8001,671.8159 359.96985,679.1701 357.13968,686.5242 365.26224,689.65 373.3847,692.776 381.50717,695.90186 389.62967,699.02783 392.45993,691.6737 395.29004,684.3196 398.12024,676.96545" fill="#83DDD7" stroke="none" fill-opacity="1" />
				<polygon points="542.134,575.35425 533.489,565.3188 524.57623,555.25433 515.1669,545.1992 505.29797,535.11383 495.30612,541.9916 485.13678,548.8446 474.9157,555.71387 464.53455,562.5427 474.1115,572.6215 483.76938,582.6216 493.3595,592.59216 502.6226,602.5387 513.1528,595.7095 523.26855,588.8972 532.7983,582.13257" fill="#83DDD7" stroke="none" fill-opacity="1" />
				<polygon points="617.33405,360.33685 544.15454,378.60352 592.6122,405.4522 641.3384,385.37585" fill="#EEF4D9" stroke="none" fill-opacity="1" />
				<path d="M620.2857,372.16187L622.53595,371.35883L624.58624,370.1322L626.358,368.52917L627.78284,366.61127L628.8061,364.4522L629.38855,362.13513L629.5077,359.74878L629.15906,357.38513L628.3561,355.13495L627.1294,353.0846L625.5263,351.31293L623.60846,349.88806L621.44946,348.8648L619.13226,348.28235L616.74603,348.16315L614.3824,348.51178L541.55273,368.1803L539.3663,368.98663L537.40497,370.24567L535.76135,371.89795L534.5127,373.86572L533.7178,376.05658L533.4142,378.36725L533.61597,380.6891L534.31366,382.91278L535.4746,384.93365L537.044,386.65656L538.94806,388.0005L586.1724,417.075L589.88086,418.456L593.83154,418.68365L597.67413,417.73773L648.233,402.10944L651.6597,400.2426L654.6065,397.6847L656.9366,394.5545L658.5414,390.99762L659.34656,387.17944L659.31464,383.27734L658.44696,379.4729L656.7839,375.94275L654.4029,372.8512L626.1321,351.90247L624.31757,350.34808L622.2346,349.1776L619.96344,348.4359L617.5912,348.15167L615.209,348.33563L612.9085,348.98083L610.7781,350.06238L608.89966,351.53882L607.34534,353.35333L606.1748,355.43628L605.4332,357.70746L605.1488,360.0797L605.3328,362.4619L605.9781,364.76233L607.05963,366.89276L608.5361,368.7713L609.91394,378.74915L593.4605,390.7315L573.214,382.4225z" fill="#8CFEB5" stroke="none" fill-opacity="0.261109591" />
				<polygon points="293.8683,693.3523 225.46194,741.0968 161.95633,729.6891 171.05318,689.6208 182.98325,672.258 207.27878,676.2571 249.0001,645.8568 270.64975,669.0069" fill="#EEF4D9" stroke="none" fill-opacity="1" />
				<path d="M303.28485,706.844L305.73602,704.7477L307.7311,702.21344L309.19345,699.3387L310.06693,696.2338L310.31778,693.01825L309.9366,689.81555L308.93784,686.7488L307.36,683.93567L305.26367,681.48456L302.72943,679.48944L299.85468,678.0271L296.7499,677.1537L293.53427,676.9028L290.33157,677.28406L287.26474,678.2827L284.45166,679.8606L222.19775,726.20667L175.95663,720.4182L181.87323,694.3574L188.37073,684.9011L205.39827,687.6815L208.44778,687.7761L211.41609,687.0708L214.09717,685.6146L247.59735,660.64185L262.243,676.8688L281.962,704.7074L284.40607,706.812L287.21378,708.3994L290.27716,709.40857L293.47852,709.8006L296.695,709.5606L299.80276,708.69763L302.68243,707.245L305.22348,705.25854L307.32806,702.81445L308.9154,700.00684L309.9245,696.94336L310.31656,693.74194L310.07654,690.5255L309.21365,687.41785L307.761,684.5381L305.77454,681.9971L279.01794,661.10394L257.12433,638.2591L255.07216,636.537L252.66776,635.3556L250.05067,634.7832L247.37257,634.8532L244.78896,635.5614L242.44955,636.8668L204.37724,664.04553L184.86742,660.81177L182.25014,660.68097L179.67036,661.14087L177.2596,662.1682L175.141,663.7103L173.42245,665.6887L161.49239,683.0515L159.74081,687.0525L150.64403,727.12085L150.35654,729.7779L150.68465,732.43024L151.6111,734.9371L153.0867,737.16534L155.03307,738.9968L157.34694,740.3342L159.90538,741.10657L222.97287,754.95337L226.65192,755.1249L230.24957,754.3361L233.5195,752.64136z" fill="#8CFEB5" stroke="none" fill-opacity="0.261109591" />
			</g>
			<g id="layer.apron.uuid_0x6">
				<polyline points="713.3517,447.58783 683.0663,429.21918 676.59393,454.94678 706.8549,476.0161 728.71844,481.5307 735.2734,460.2398" fill="#000000" stroke="none" fill-opacity="1" />
				<polyline points="570.5575,443.41986 608.682,427.4959 615.2795,453.6709 577.2534,472.26215 549.3939,475.94415 542.4311,454.25708" fill="#000000" stroke="none" fill-opacity="1" />
				<polyline points="516.2609,536.27997 528.96,546.8507 538.9156,577.3112 613.6362,629.24243 666.64484,618.5222 700.26733,569.17426 725.48425,564.78864 746.81476,534.8187 738.76544,513.8401 741.7137,528.5201 725.2806,554.3932 686.3911,554.80505 636.1351,544.4648 572.9568,550.73413 523.90173,534.9365 512.0343,509.60986" fill="#000000" stroke="none" fill-opacity="1" />
			</g>
		</g>
	</g>
</svg>
