<?xml version="1.0" encoding="UTF-8"?>
<!-- Generator: Blender, SVG Export for Grease Pencil - v2.0 -->
<!DOCTYPE svg PUBLIC "-//W3C//DTD SVG 1.1//EN" "http://www.w3.org/Graphics/SVG/1.1/DTD/svg11.dtd">
<svg version="1.1" x="0px" y="0px" xmlns="http://www.w3.org/2000/svg" width="1920.000000px" height="1080.000000px" viewBox="0 0 1920.000000 1080.000000">
	<g id="blender_frame.4">
		<g id="blender_object.Stroke.4.uuid_0x0">
			<g id="layer.Fills.uuid_0x1" />
			<g id="layer.black.uuid_0x2" />
			<g id="layer.skin.uuid_0x3" />
			<g id="layer.yella.uuid_0x4" />
			<g id="layer.red.uuid_0x5">
				<polygon points="749.976440,430.422913 815.167725,448.970642 870.659485,502.085266 917.202209,565.583374 930.611206,610.484985 934.833069,671.231079 976.971191,714.035522 994.900574,746.285767 990.956909,757.948853 957.559998,796.728394 762.909119,816.777100 540.049683,829.114502 339.628662,804.841736 171.005798,753.940674 128.045425,723.268372 133.320526,706.398865 158.268570,668.696899 183.000641,655.358521 248.458099,638.841675 380.953033,585.547607 424.164551,556.843140 567.462952,460.400391 697.291138,418.091675" fill="#83E759" stroke="none" fill-opacity="1" />
				<path d="M750.614807,428.179382L750.134338,428.095703L749.647034,428.113647L749.174072,428.232544L748.736206,428.447205L748.352539,428.748352L748.039856,429.122559L747.811829,429.553528L747.678345,430.022644L747.645264,430.509155L747.714233,430.991943L747.881897,431.449829L748.141235,431.862915L748.480713,432.212952L748.885559,432.484802L749.338074,432.666565L811.850037,454.760498L866.526306,505.709656L912.780579,567.781494L928.920837,610.792236L929.817749,671.579590L930.249695,673.296936L931.250366,674.757996L975.175781,715.379272L987.410522,746.966736L987.359741,755.896240L950.871704,783.920044L762.513062,811.772217L540.470581,816.210327L340.184021,802.195190L174.144562,747.550842L141.477417,718.759766L137.981461,708.614990L163.816849,674.768188L183.891907,657.650208L249.001877,640.996338L383.836121,592.715271L427.606476,562.024475L568.291382,462.099243L697.459961,422.056885L749.444824,432.694214L749.898132,432.754333L750.354492,432.724792L750.796326,432.606812L751.206543,432.404907L751.569580,432.126770L751.871399,431.783203L752.100342,431.387390L752.247742,430.954529L752.307800,430.501160L752.278259,430.044861L752.160278,429.603088L751.958374,429.192810L751.680237,428.829712L751.336792,428.527954L750.940918,428.298950L750.508057,428.151672L698.162231,414.369751L696.106689,414.457275L566.882996,458.620667L420.707062,551.672119L377.336609,578.674988L247.768463,636.723816L182.403656,652.992676L154.481964,661.675659L151.615906,664.294800L129.059082,703.578979L117.094055,719.843872L116.586739,722.668579L116.796341,725.530701L117.709518,728.251343L119.269348,730.660278L121.378098,732.606812L166.924255,759.657349L338.850128,807.420898L538.503357,841.882385L763.186646,821.788574L958.935547,810.083923L962.227234,809.317261L965.223145,807.752808L967.733459,805.489868L994.037231,760.601562L994.807861,759.250977L1001.415588,748.488647L1001.769836,746.617432L1001.597473,744.720764L1000.911499,742.944031L978.913574,712.955750L939.719543,669.028503L932.314697,610.366577L921.864380,564.191101L875.076355,498.847839L819.646240,444.291748L816.940125,442.741150z" fill="#000000" stroke="none" fill-opacity="1" />
				<polygon points="887.369507,645.449585 887.815918,603.759827 866.189026,563.491394 826.933350,516.399231 748.779175,458.770020 671.264832,471.436646 586.463318,489.313049 512.716003,529.940186 447.475220,576.702393 428.786469,609.613892 402.362793,638.513428 333.394592,661.643921 210.558975,738.870239 453.590179,784.692383 760.359314,774.140686 904.612671,756.502319" fill="#6BE84D" stroke="none" fill-opacity="1" />
				<polygon points="681.177673,462.957581 659.744446,468.395752 636.062256,451.968506 668.602722,451.575012" fill="#EEF4D9" stroke="none" fill-opacity="1" />
				<path d="M683.939331,473.841980L686.009644,473.094116L687.894348,471.956665L689.520935,470.473389L690.826904,468.701294L691.762024,466.708435L692.290405,464.571533L692.391724,462.372498L692.062073,460.195984L691.314209,458.125610L690.176758,456.240906L688.693420,454.614380L686.921265,453.308472L684.928528,452.373291L682.791565,451.844910L680.592590,451.743591L678.416077,452.073181L662.136353,455.175049L647.623962,455.509338L664.299866,462.944824L673.641907,471.282776L675.410889,472.592957L677.401428,473.532898L679.537109,474.066406L681.735840,474.172974L683.913147,473.848633L685.985352,473.105713L687.872742,471.972778L689.502869,470.493347L690.813049,468.724426L691.752991,466.733887L692.286560,464.598145L692.393066,462.399414L692.068604,460.222168L691.325745,458.149963L690.192810,456.262573L688.713440,454.632446L676.197327,443.184937L673.893005,441.570801L671.261597,440.574951L668.465942,440.258972L635.916016,439.877563L633.395813,440.174316L630.992981,440.990540L628.813354,442.290283L626.953125,444.016357L625.494019,446.092651L624.500366,448.427734L624.016113,450.918762L624.062195,453.456055L624.636963,455.927734L625.714844,458.225098L627.248596,460.246887L629.170410,461.904053L652.776001,478.441772L655.881348,479.995728L659.298340,480.613892L662.751282,480.246582z" fill="#FAFE70" stroke="none" fill-opacity="0.261109591" />
				<polygon points="368.694641,610.780273 334.305328,630.868286 338.904144,645.675171 376.088837,628.011475 372.595245,619.192993" fill="#EEF4D9" stroke="none" fill-opacity="1" />
				<path d="M375.023071,621.614014L377.015015,620.171143L378.687195,618.367554L379.975372,616.272339L380.830139,613.966064L381.218445,611.537292L381.125488,609.079468L380.554779,606.687012L379.528381,604.451904L378.085602,602.459961L376.281891,600.787720L374.186707,599.499512L371.880371,598.644775L369.451752,598.256470L366.993896,598.349426L364.601440,598.920105L362.366272,599.946533L328.884125,621.587585L326.958954,623.022827L325.400482,624.849548L324.286469,626.976685L323.672577,629.298096L323.589294,631.697876L324.040924,634.056274L327.173340,649.318604L328.215576,651.728210L329.746002,653.861328L331.694824,655.620483L333.972961,656.925415L336.476349,657.716309L339.090637,657.957275L341.696350,657.637085L344.174652,656.770508L383.188232,642.956787L386.212372,641.098755L388.770813,638.638489L390.745514,635.689148L392.045776,632.386475L392.611725,628.882568L392.417297,625.338440L391.471466,621.917358L385.889496,613.926270L380.077271,605.502686L378.829010,603.383423L377.191193,601.548462L375.226868,600.068237L373.011566,598.999756L370.630341,598.383911L368.174744,598.244385L365.739166,598.586792L363.417084,599.397583L361.297852,600.645996L359.462860,602.283691L357.982697,604.248047L356.914154,606.463379L356.298218,608.844604L356.158844,611.300171L356.501129,613.735779L357.312012,616.057800L359.456360,624.836121L360.693268,621.950317L343.835205,634.424927L347.103851,635.839661z" fill="#FAFE70" stroke="none" fill-opacity="0.261109591" />
				<polygon points="766.354675,698.787781 753.441650,699.691528 740.711975,701.006226 727.955688,702.372437 715.298767,704.070190 718.285645,712.585876 721.132874,721.045410 723.940186,729.424316 726.836853,737.886108 738.859192,735.566162 751.043335,733.536926 763.158936,731.597595 775.408325,729.903931 773.155823,722.175659 770.974609,714.443115 768.702576,706.627686" fill="#61DD4A" stroke="none" fill-opacity="1" />
				<polygon points="683.073242,680.496826 670.571960,673.817749 657.982666,667.025696 645.449097,660.138855 633.209473,653.526978 625.851807,662.448975 618.654297,671.524536 611.886963,681.056519 605.344727,690.786133 617.323730,696.965576 629.435913,703.171875 641.509644,709.259277 653.616943,715.332214 660.694946,706.254089 667.808838,697.314331 675.346008,688.731567" fill="#61DD4A" stroke="none" fill-opacity="1" />
				<polygon points="802.449402,664.384033 785.525208,668.607544 768.345398,672.813110 751.190796,677.274292 734.508606,682.447449 743.799927,693.210083 752.936462,703.861755 761.656860,714.148193 770.394592,724.414429 786.597168,718.942200 802.803528,713.622742 819.145935,708.634216 835.657471,703.813477 827.734619,694.417603 819.558472,684.701294 810.910339,674.534302" fill="#61DD4A" stroke="none" fill-opacity="1" />
				<polygon points="508.996552,721.117737 506.791656,700.675171 505.291687,680.742615 504.417450,661.381226 504.457520,642.337402 484.647797,648.220825 464.767151,653.849731 445.256104,659.452148 425.442902,664.881348 422.592133,683.217102 420.426575,702.205322 419.337311,721.859741 419.683350,742.165588 442.181488,736.833740 464.817963,731.528198 487.218018,726.278198" fill="#61DD4A" stroke="none" fill-opacity="1" />
				<polygon points="686.210754,609.265503 645.086060,595.497314 604.661377,584.017212 565.957214,576.534424 529.798279,573.567627 511.433807,602.793396 495.272247,634.058716 481.721436,666.663574 468.439026,700.086609 510.509155,702.592407 550.336060,706.378052 587.987000,711.484375 627.111206,718.595459 636.911133,686.845215 648.628662,656.843140 664.846069,630.728821" fill="#61DD4A" stroke="none" fill-opacity="1" />
				<polygon points="614.503113,605.524292 594.014526,604.805847 573.871765,605.146606 554.426514,606.465759 535.893738,608.869629 532.712952,622.918091 530.559998,637.593018 529.504517,652.801697 529.062317,668.346375 547.318848,665.452209 565.283264,663.069092 583.933044,661.525635 603.153870,660.691895 604.157959,645.789917 606.442688,631.592407 609.921631,618.223267" fill="#61DD4A" stroke="none" fill-opacity="1" />
				<polygon points="685.928589,694.158264 689.475952,683.325562 693.355469,672.913574 697.713745,662.957031 702.195435,653.184937 688.434021,649.830078 674.517578,646.265869 661.068176,643.004761 647.858276,639.898560 643.219116,650.311096 639.558899,661.408325 636.417053,672.978394 633.495911,684.690796 646.512207,686.980835 659.419800,689.099487 672.558838,691.462402" fill="#61DD4A" stroke="none" fill-opacity="1" />
				<polygon points="613.023132,575.247925 639.590271,571.787903 666.612915,570.062134 693.628052,569.473511 720.942261,569.979980 718.992065,558.435669 717.040344,546.788269 714.700623,534.766785 711.543274,521.934509 683.960327,520.739990 656.219910,520.530457 627.494995,520.789429 600.112915,523.797241 603.404846,536.625549 606.933838,549.527283 609.918701,562.322510" fill="#61DD4A" stroke="none" fill-opacity="1" />
				<polygon points="788.364136,672.200439 791.113770,644.695923 797.653259,619.952759 806.489746,596.795410 816.148193,573.975220 777.598206,570.576660 736.413025,564.695251 692.500305,556.245178 648.154602,549.020264 636.375977,574.046692 626.590088,600.821655 620.912109,630.709045 621.390198,664.351196 661.202759,663.053223 703.156372,664.218750 746.005920,667.728088" fill="#61DD4A" stroke="none" fill-opacity="1" />
				<polygon points="766.722595,631.155273 764.375366,619.349426 762.982300,608.214722 762.066895,597.322083 761.860962,586.819519 741.172424,586.242737 720.527100,585.765625 699.563232,585.077209 678.242554,584.385376 679.127686,596.314758 680.195618,608.295593 682.302368,620.752808 685.294861,633.856934 705.767273,632.745361 726.272888,631.981689 746.547729,631.438232" fill="#61DD4A" stroke="none" fill-opacity="1" />
				<polygon points="684.304016,774.552429 694.881409,762.289001 706.136963,750.678467 717.984985,739.675781 730.184875,729.317261 717.815674,720.794189 705.556091,712.494263 692.968933,703.917908 680.286072,695.300049 668.369019,706.258301 656.813538,717.727234 645.710327,729.604736 635.263733,742.243896 647.536682,750.225708 659.878967,758.360107 672.034729,766.396484" fill="#61DD4A" stroke="none" fill-opacity="1" />
				<polygon points="692.649414,603.856079 724.438293,610.624512 755.713989,616.936279 786.081482,622.882080 816.107910,628.914429 824.201904,614.361938 832.396973,599.688904 840.821289,585.086914 848.741516,569.838867 823.638123,567.900208 796.767456,564.013855 768.648132,558.776245 739.153503,552.078857 727.063293,564.407532 715.196716,577.084351 703.444824,589.937073" fill="#61DD4A" stroke="none" fill-opacity="1" />
				<polygon points="842.184631,755.971313 847.860779,749.807617 853.519470,743.626343 859.461609,737.739502 865.226074,731.751343 856.906799,728.972168 848.791565,726.296387 840.316101,723.251221 831.696899,720.013062 825.836182,726.004395 819.854797,731.904419 814.189026,738.068848 808.387146,744.222961 817.076233,747.450317 825.616150,750.432983 834.020203,753.350159" fill="#61DD4A" stroke="none" fill-opacity="1" />
				<polygon points="818.503601,719.412292 826.033630,704.483032 833.670227,689.664795 841.308960,674.958191 848.687256,660.143799 825.672668,654.528687 802.354675,648.584351 778.850708,642.378296 755.297974,636.302917 746.533264,650.861755 739.085876,666.551147 732.507874,683.167969 726.560486,700.581787 750.056763,705.397522 773.220337,710.252808 796.058838,715.031738" fill="#61DD4A" stroke="none" fill-opacity="1" />
				<polygon points="756.566528,559.125122 698.916199,568.906860 641.475464,582.573975 588.986206,605.825195 545.766113,639.186829 577.966553,664.859985 612.517883,692.761597 647.885559,721.272705 682.792358,749.539062 722.755188,718.733093 767.510498,695.153931 814.548096,676.091309 861.112976,657.472656 830.777466,630.847351 804.300171,606.376953 780.027222,582.949158" fill="#61DD4A" stroke="none" fill-opacity="1" />
				<polygon points="486.700409,571.253601 473.655853,576.413269 461.110168,581.783813 448.796021,587.331116 436.401703,592.692810 436.392792,601.330444 436.425934,610.008667 436.537781,618.664734 436.901245,627.485229 449.207031,621.920105 461.581116,616.382935 474.344513,610.689575 487.130463,604.993896 486.940704,596.603271 486.982147,587.973877 486.838531,579.590332" fill="#61DD4A" stroke="none" fill-opacity="1" />
				<polygon points="409.067169,672.118286 402.233551,669.827942 395.538635,667.553467 389.240326,665.244385 382.858093,662.978088 377.149567,669.663940 370.994324,676.315796 365.256805,683.103149 359.598755,689.919189 366.056183,692.409058 372.364471,694.965942 379.268280,697.421631 386.436249,699.877625 391.865082,692.950317 397.592834,685.931641 403.188446,679.008545" fill="#61DD4A" stroke="none" fill-opacity="1" />
				<polygon points="564.789246,577.982788 561.599792,569.980774 558.136230,561.788635 555.046082,554.038940 551.812195,546.053833 539.505371,552.168152 527.315491,558.395508 515.122009,564.765625 503.175079,571.351196 506.552826,578.914062 510.009613,586.625000 513.573608,594.279297 517.237549,602.232910 528.683716,595.606628 540.224792,589.189453 552.311523,583.348022" fill="#61DD4A" stroke="none" fill-opacity="1" />
				<polygon points="778.444519,469.430237 685.597778,449.715393 735.973938,493.207581 795.923645,495.513184" fill="#EEF4D9" stroke="none" fill-opacity="1" />
				<path d="M775.912964,481.352356L778.287476,481.617126L780.668091,481.413635L782.963196,480.749573L785.084656,479.650513L786.950867,478.158752L788.490295,476.331482L789.643616,474.239075L790.366577,471.961792L790.631409,469.587280L790.427795,467.206665L789.763794,464.911621L788.664673,462.790100L787.172913,460.923889L785.345703,459.384460L783.253235,458.231201L780.976013,457.508179L687.829163,439.206665L685.665039,438.972595L683.498169,439.179565L681.417419,439.819153L679.508240,440.864929L677.849243,442.274170L676.508301,443.988831L675.540466,445.938660L674.985657,448.043579L674.866394,450.217102L675.187866,452.369995L675.936707,454.413940L677.082214,456.265015L678.577271,457.847107L727.290588,503.265259L731.103149,505.570190L735.463257,506.485291L795.228210,513.598083L799.190918,513.314209L802.996338,512.172363L806.460815,510.227722L809.417603,507.574036L811.724060,504.339172L813.269165,500.678955L813.978333,496.769836L813.817505,492.800110L812.794373,488.961182L810.958252,485.437988L788.569153,462.645325L787.050903,460.800476L785.201965,459.287292L783.093262,458.163818L780.806091,457.473389L778.427979,457.242371L776.050537,457.479797L773.765076,458.176514L771.659546,459.305603L769.814636,460.823853L768.301453,462.672791L767.178040,464.781433L766.487610,467.068726L766.256653,469.446777L766.494080,471.824219L767.190674,474.109619L768.319824,476.215210L780.123352,486.687256L741.134766,480.108704L724.268921,468.909302z" fill="#FAFE70" stroke="none" fill-opacity="0.261109591" />
				<polygon points="302.626404,696.704529 231.140717,741.242310 185.971069,724.023560 205.955872,682.243896 221.695114,666.627686 240.460052,674.239624 286.021729,652.126526 294.150696,674.166565" fill="#EEF4D9" stroke="none" fill-opacity="1" />
				<path d="M311.326660,710.668884L313.883789,708.703247L316.008392,706.276489L317.618561,703.481934L318.652710,700.426819L319.070953,697.228699L318.857300,694.010437L318.019806,690.895752L316.590759,688.004272L314.625122,685.447144L312.198303,683.322632L309.403656,681.712280L306.348663,680.678162L303.150543,680.259888L299.932312,680.473633L296.817627,681.311157L293.926086,682.740112L229.626434,725.598389L201.869415,717.669556L215.553116,689.062866L224.430023,680.255371L236.107864,684.968689L239.231705,685.752441L242.450562,685.645386L245.515533,684.655762L279.833893,667.493958L283.351746,678.149536L287.226379,702.495850L288.652100,705.388916L290.614929,707.948364L293.039246,710.075623L295.832062,711.689087L298.885864,712.726685L302.083557,713.148438L305.302032,712.938416L308.417755,712.104492L311.310852,710.678711L313.870239,708.716064L315.997467,706.291626L317.610901,703.498901L318.648407,700.445007L319.070343,697.247314L318.860321,694.028870L318.026306,690.913208L304.937042,670.149353L296.457825,648.277405L295.434082,646.199036L294.002106,644.377808L292.223785,642.892822L290.176453,641.808289L287.948975,641.171448L285.637817,641.009888L283.343292,641.330505L281.164917,642.119568L240.038849,661.574219L226.055542,655.878235L223.451431,655.161194L220.752182,655.065918L218.104019,655.597290L215.650574,656.726807L213.524780,658.393005L197.785477,674.009277L175.506424,719.017883L174.625793,721.604614L174.374771,724.325684L174.767242,727.029907L175.781296,729.567383L177.360825,731.797119L179.418167,733.595581L181.839066,734.862854L226.125931,754.397339L230.337692,755.297852L234.624542,754.882812L238.585342,753.191284z" fill="#FAFE70" stroke="none" fill-opacity="0.261109591" />
			</g>
			<g id="layer.apron.uuid_0x6">
				<polyline points="774.587219,601.335815 744.983704,578.971069 736.074951,603.284790 766.699341,628.619141 788.925049,637.249451 795.888733,616.898193" fill="#000000" stroke="none" fill-opacity="1" />
				<polyline points="631.404419,544.076660 671.266479,528.316833 676.394470,553.971497 634.671448,572.427429 606.549133,576.268921 602.838623,554.897461" fill="#000000" stroke="none" fill-opacity="1" />
				<polyline points="568.171814,648.958923 581.306641,655.983032 616.622314,666.766479 653.205078,662.747437 688.292542,645.898926 709.807434,667.332886 740.755859,685.786377 759.243652,688.944702 776.962097,686.420227 765.043091,682.791870 747.675415,677.814941 716.272461,646.658936 690.124023,617.847412 623.987244,646.713989 574.484131,645.578003 556.008911,638.475891" fill="#000000" stroke="none" fill-opacity="1" />
			</g>
		</g>
	</g>
</svg>
