<?xml version="1.0" encoding="UTF-8"?>
<!-- Generator: Blender, SVG Export for Grease Pencil - v2.0 -->
<!DOCTYPE svg PUBLIC "-//W3C//DTD SVG 1.1//EN" "http://www.w3.org/Graphics/SVG/1.1/DTD/svg11.dtd">
<svg version="1.1" x="0px" y="0px" xmlns="http://www.w3.org/2000/svg" width="1920.000000px" height="1080.000000px" viewBox="0 0 1920.000000 1080.000000">
	<g id="blender_frame.4">
		<g id="blender_object.Stroke.4.uuid_0x0">
			<g id="layer.Fills.uuid_0x1" />
			<g id="layer.black.uuid_0x2" />
			<g id="layer.skin.uuid_0x3" />
			<g id="layer.yella.uuid_0x4" />
			<g id="layer.red.uuid_0x5">
				<polygon points="749.97644,430.4229 815.1678,448.97064 870.65955,502.08527 917.2022,565.5833 930.6113,610.485 934.8331,671.231 976.9713,714.0355 994.9006,746.28577 990.95703,757.94885 957.56,796.7284 762.9092,816.7771 540.0497,829.1145 339.62866,804.84174 171.00581,753.9406 128.04543,723.2684 133.32053,706.3988 158.26859,668.6969 183.00064,655.3585 248.4581,638.8417 380.95306,585.5476 424.16458,556.8431 567.46295,460.4004 697.29114,418.0916" fill="#53ABE7" stroke="none" fill-opacity="1" />
				<path d="M750.6148,428.17932L750.1344,428.09558L749.64703,428.11365L749.17413,428.23254L748.73627,428.4472L748.3526,428.7483L748.0399,429.1225L747.8119,429.55353L747.67834,430.02252L747.6453,430.50916L747.71423,430.99188L747.88196,431.4499L748.1413,431.8629L748.4808,432.2129L748.88556,432.4848L749.33813,432.66656L811.8501,454.76044L866.52637,505.70966L912.78064,567.7815L928.9209,610.79224L929.8178,671.5796L930.24976,673.29694L931.25037,674.758L975.17584,715.3793L987.4106,746.9667L987.35974,755.8963L950.8717,783.92004L762.5132,811.7722L540.4706,816.2103L340.18405,802.1952L174.14458,747.5508L141.47742,718.75977L137.98148,708.6149L163.81686,674.7682L183.89192,657.6502L249.00186,640.99634L383.83612,592.7152L427.6065,562.0245L568.29144,462.09924L697.45996,422.05695L749.4449,432.69415L749.8982,432.75427L750.3545,432.72473L750.79626,432.60675L751.2066,432.4049L751.56964,432.12677L751.8714,431.7832L752.10046,431.3874L752.24774,430.9546L752.30786,430.50116L752.2783,430.04486L752.16034,429.6031L751.9584,429.1928L751.6803,428.8297L751.3368,428.52795L750.941,428.29895L750.5081,428.1516L698.1623,414.3697L696.1067,414.4572L566.883,458.6206L420.7071,551.6721L377.3366,578.6749L247.7685,636.7238L182.40367,652.9927L154.48198,661.67566L151.6159,664.2948L129.05908,703.579L117.09406,719.8439L116.58674,722.6686L116.79635,725.53064L117.709526,728.25134L119.269356,730.6603L121.3781,732.6068L166.92427,759.65735L338.85013,807.4209L538.50336,841.8824L763.18665,821.7886L958.93567,810.08386L962.22723,809.31726L965.22327,807.7528L967.7335,805.48987L994.0373,760.60156L994.8079,759.251L1001.41565,748.48865L1001.7699,746.61743L1001.5975,744.7207L1000.9115,742.9441L978.91364,712.95575L939.71954,669.0285L932.31476,610.3666L921.8644,564.1911L875.0764,498.84784L819.64624,444.29175L816.9402,442.74115z" fill="#000000" stroke="none" fill-opacity="1" />
				<polygon points="887.3695,645.4495 887.816,603.7598 866.189,563.4914 826.9334,516.39923 748.7792,458.77002 671.2649,471.43665 586.4634,489.31305 512.71606,529.9402 447.47522,576.7024 428.7865,609.6139 402.36282,638.5134 333.39462,661.6439 210.55899,738.87024 453.5902,784.6924 760.3594,774.1407 904.6127,756.5023" fill="#7FD2E8" stroke="none" fill-opacity="1" />
				<polygon points="681.1777,462.95758 659.7445,468.3957 636.0623,451.9685 668.6028,451.575" fill="#EEF4D9" stroke="none" fill-opacity="1" />
				<path d="M683.93933,473.84198L686.0097,473.09406L687.8944,471.9566L689.521,470.4734L690.8269,468.7013L691.7621,466.70844L692.2904,464.57147L692.3917,462.37244L692.06213,460.19598L691.3143,458.12555L690.17676,456.2409L688.6935,454.61432L686.9213,453.3084L684.9286,452.37323L682.7916,451.8449L680.5926,451.7436L678.4161,452.07318L662.1364,455.17505L647.624,455.50928L664.2999,462.94482L673.64197,471.28278L675.4109,472.59296L677.4014,473.5329L679.5371,474.0664L681.7359,474.17297L683.9132,473.84863L685.98535,473.1057L687.8728,471.97272L689.50287,470.49335L690.8131,468.72443L691.75305,466.7339L692.28656,464.59814L692.39307,462.3994L692.06866,460.22217L691.3258,458.14996L690.1929,456.26257L688.7135,454.63245L676.1973,443.18488L673.89307,441.5708L671.2616,440.5749L668.46594,440.25897L635.916,439.87756L633.3958,440.17432L630.99304,440.9906L628.8134,442.29028L626.9531,444.01636L625.494,446.09265L624.5005,448.42773L624.0161,450.91876L624.06226,453.456L624.63696,455.9278L625.7149,458.2251L627.24866,460.2469L629.1705,461.9041L652.776,478.4417L655.8814,479.99573L659.29834,480.6139L662.7513,480.24658z" fill="#8CFEB5" stroke="none" fill-opacity="0.261109591" />
				<polygon points="368.69464,610.7803 334.30536,630.8683 338.90414,645.6752 376.08884,628.0115 372.59528,619.193" fill="#EEF4D9" stroke="none" fill-opacity="1" />
				<path d="M375.02307,621.61395L377.015,620.17114L378.68723,618.3675L379.9754,616.2723L380.83014,613.966L381.21844,611.53723L381.12552,609.07947L380.5548,606.687L379.52838,604.4519L378.08563,602.4599L376.28192,600.7877L374.18674,599.4995L371.8804,598.6448L369.45175,598.2565L366.9939,598.3495L364.60147,598.92017L362.3663,599.94653L328.88416,621.5876L326.95895,623.0228L325.4005,624.84955L324.2865,626.9767L323.67258,629.2981L323.5893,631.6979L324.04095,634.0563L327.17337,649.31854L328.2156,651.72815L329.746,653.8613L331.69482,655.62054L333.973,656.9254L336.4764,657.7164L339.09067,657.9573L341.69638,657.6371L344.17465,656.77045L383.18826,642.9568L386.21243,641.09875L388.7708,638.6385L390.74554,635.68915L392.04584,632.3865L392.61172,628.88257L392.4173,625.3384L391.4715,621.91736L385.88953,613.9263L380.0773,605.5027L378.82904,603.3834L377.19122,601.54846L375.2269,600.06824L373.0116,598.99976L370.63037,598.3838L368.17474,598.2444L365.73917,598.5867L363.41708,599.39764L361.29788,600.64594L359.46286,602.2837L357.9827,604.248L356.91415,606.4633L356.29825,608.8446L356.15884,611.3002L356.50116,613.7358L357.312,616.0578L359.45636,624.8361L360.6933,621.95026L343.83524,634.4249L347.1039,635.83966z" fill="#8CFEB5" stroke="none" fill-opacity="0.261109591" />
				<polygon points="766.35474,698.7877 753.4417,699.6915 740.71204,701.0062 727.95575,702.37244 715.29877,704.0702 718.2857,712.5859 721.13293,721.0454 723.9402,729.4243 726.8369,737.8861 738.85925,735.56616 751.0434,733.53687 763.159,731.5976 775.4084,729.90393 773.1559,722.17566 770.9746,714.4431 768.7026,706.6277" fill="#83DDD7" stroke="none" fill-opacity="1" />
				<polygon points="683.07324,680.49677 670.572,673.81775 657.98267,667.02563 645.4491,660.13885 633.20953,653.5269 625.85187,662.449 618.65436,671.52454 611.887,681.0565 605.3448,690.78613 617.3237,696.9656 629.436,703.1719 641.5097,709.2593 653.61694,715.3322 660.695,706.2541 667.8089,697.31433 675.34607,688.73157" fill="#83DDD7" stroke="none" fill-opacity="1" />
				<polygon points="802.44946,664.38403 785.5252,668.60754 768.3454,672.8131 751.19086,677.27423 734.50867,682.44745 743.8,693.21 752.9365,703.86176 761.65686,714.1482 770.3946,724.4144 786.5972,718.9422 802.8036,713.6227 819.146,708.63416 835.6575,703.8135 827.7347,694.4176 819.5585,684.7013 810.91034,674.5343" fill="#83DDD7" stroke="none" fill-opacity="1" />
				<polygon points="508.9966,721.11774 506.79166,700.6752 505.2917,680.7426 504.41748,661.3812 504.45752,642.33734 484.6478,648.2208 464.76715,653.8498 445.25613,659.45215 425.44293,664.88135 422.59216,683.21704 420.4266,702.2053 419.33734,721.8597 419.68335,742.1656 442.18152,736.8337 464.818,731.5282 487.21802,726.2782" fill="#83DDD7" stroke="none" fill-opacity="1" />
				<polygon points="686.2108,609.26544 645.08606,595.49725 604.66144,584.0172 565.9573,576.5344 529.79834,573.5676 511.43384,602.7934 495.27228,634.0587 481.72147,666.6635 468.43903,700.0866 510.5092,702.5924 550.3361,706.37805 587.98706,711.4844 627.1113,718.59546 636.9112,686.8452 648.6287,656.84314 664.8461,630.72876" fill="#83DDD7" stroke="none" fill-opacity="1" />
				<polygon points="614.5031,605.5243 594.0145,604.80585 573.8718,605.1466 554.4266,606.4657 535.89374,608.8696 532.713,622.9181 530.56,637.593 529.5045,652.8017 529.0623,668.3464 547.31885,665.45215 565.2833,663.0691 583.93304,661.52563 603.15393,660.6919 604.158,645.7899 606.4427,631.5924 609.9217,618.22327" fill="#83DDD7" stroke="none" fill-opacity="1" />
				<polygon points="685.92865,694.15826 689.476,683.32556 693.3555,672.9136 697.7138,662.95703 702.1955,653.18494 688.4341,649.8301 674.51764,646.26587 661.06824,643.00476 647.85834,639.89856 643.2191,650.3111 639.55896,661.4083 636.41705,672.97833 633.496,684.6908 646.5123,686.98083 659.41986,689.0995 672.5589,691.4624" fill="#83DDD7" stroke="none" fill-opacity="1" />
				<polygon points="613.02313,575.2479 639.5903,571.7879 666.61304,570.0622 693.6282,569.4735 720.9423,569.9799 718.9922,558.43567 717.04034,546.7882 714.7006,534.7667 711.5433,521.9345 683.9604,520.74 656.2199,520.53046 627.49506,520.7894 600.113,523.7973 603.40485,536.62555 606.9339,549.5273 609.91876,562.3225" fill="#83DDD7" stroke="none" fill-opacity="1" />
				<polygon points="788.3642,672.20044 791.11383,644.6959 797.6533,619.9527 806.4898,596.7954 816.1482,573.97516 777.5982,570.57666 736.4131,564.69525 692.50037,556.2452 648.15454,549.0202 636.376,574.04675 626.59015,600.8216 620.9122,630.70905 621.39014,664.3512 661.20276,663.0532 703.1564,664.21875 746.006,667.7281" fill="#83DDD7" stroke="none" fill-opacity="1" />
				<polygon points="766.72266,631.1553 764.3754,619.34937 762.98236,608.2147 762.06696,597.3221 761.861,586.8195 741.1724,586.2428 720.5271,585.76556 699.56323,585.0772 678.2426,584.3854 679.1277,596.3147 680.1956,608.2956 682.3024,620.7528 685.29486,633.85693 705.76733,632.74536 726.27295,631.9817 746.5478,631.4382" fill="#83DDD7" stroke="none" fill-opacity="1" />
				<polygon points="684.3041,774.5524 694.8814,762.28894 706.137,750.67847 717.98505,739.6758 730.18494,729.31726 717.81573,720.7942 705.5561,712.49426 692.96893,703.9179 680.2861,695.30005 668.3691,706.25824 656.81354,717.7272 645.7103,729.60474 635.26373,742.2439 647.5367,750.2257 659.879,758.3601 672.0347,766.3965" fill="#83DDD7" stroke="none" fill-opacity="1" />
				<polygon points="692.6495,603.8561 724.43835,610.6245 755.714,616.9363 786.0815,622.88214 816.1079,628.9144 824.20197,614.36194 832.39703,599.68884 840.8213,585.0869 848.7416,569.83887 823.6382,567.9002 796.7675,564.0138 768.6482,558.77625 739.1535,552.0788 727.06335,564.40753 715.1967,577.08435 703.4449,589.9371" fill="#83DDD7" stroke="none" fill-opacity="1" />
				<polygon points="842.1847,755.9713 847.8609,749.8076 853.5195,743.62634 859.4617,737.7395 865.2261,731.75134 856.90686,728.97217 848.7916,726.2964 840.31616,723.2512 831.6969,720.01306 825.83624,726.0044 819.8549,731.9045 814.1891,738.06885 808.3872,744.2229 817.07635,747.4503 825.6162,750.433 834.02026,753.3501" fill="#83DDD7" stroke="none" fill-opacity="1" />
				<polygon points="818.50366,719.4123 826.0337,704.48303 833.6702,689.6648 841.309,674.9581 848.6873,660.14374 825.6727,654.5287 802.35474,648.58435 778.8507,642.3783 755.298,636.3029 746.5333,650.8617 739.08594,666.55115 732.5079,683.16797 726.5605,700.5818 750.0568,705.3975 773.22034,710.2528 796.05884,715.03174" fill="#83DDD7" stroke="none" fill-opacity="1" />
				<polygon points="756.5666,559.1251 698.91626,568.90686 641.47546,582.574 588.98627,605.8252 545.7661,639.18677 577.96655,664.86 612.51794,692.76154 647.8856,721.2727 682.79236,749.53906 722.7552,718.7331 767.5105,695.15393 814.5481,676.0913 861.113,657.4726 830.77747,630.8473 804.30023,606.37695 780.0273,582.94916" fill="#83DDD7" stroke="none" fill-opacity="1" />
				<polygon points="486.7004,571.25354 473.65588,576.41327 461.1102,581.7838 448.79605,587.3311 436.40173,592.6928 436.39282,601.33044 436.42596,610.00867 436.5378,618.66473 436.90128,627.48517 449.20703,621.92004 461.58115,616.38293 474.3445,610.6896 487.13046,604.9939 486.9407,596.6033 486.98215,587.9738 486.83853,579.59033" fill="#83DDD7" stroke="none" fill-opacity="1" />
				<polygon points="409.06717,672.1183 402.23358,669.8279 395.53867,667.5534 389.24036,665.2444 382.8581,662.9781 377.14963,669.6639 370.99435,676.31573 365.2568,683.10315 359.5988,689.9192 366.0562,692.40906 372.3645,694.96594 379.2683,697.42163 386.43625,699.87756 391.8651,692.9503 397.59286,685.93164 403.18848,679.00854" fill="#83DDD7" stroke="none" fill-opacity="1" />
				<polygon points="564.78925,577.9828 561.59985,569.9808 558.1363,561.78864 555.04614,554.03894 551.8123,546.0538 539.5054,552.16815 527.3155,558.39545 515.1221,564.7656 503.1751,571.3512 506.55286,578.91406 510.0096,586.625 513.57367,594.2793 517.2376,602.2329 528.6838,595.60657 540.2248,589.18945 552.3116,583.348" fill="#83DDD7" stroke="none" fill-opacity="1" />
				<polygon points="778.4445,469.43024 685.59784,449.71533 735.97394,493.20758 795.92377,495.51318" fill="#EEF4D9" stroke="none" fill-opacity="1" />
				<path d="M775.913,481.3523L778.28754,481.61713L780.66815,481.41364L782.96326,480.74957L785.0847,479.65045L786.9509,478.1587L788.4903,476.33148L789.6437,474.239L790.3666,471.9618L790.6314,469.58722L790.42786,467.20673L789.7638,464.91156L788.66473,462.7901L787.173,460.9239L785.3457,459.3844L783.2533,458.23114L780.9761,457.50818L687.82916,439.20667L685.6651,438.9726L683.49817,439.17957L681.4174,439.8191L679.5083,440.86493L677.8493,442.27417L676.50836,443.9889L675.5405,445.93866L674.98566,448.04352L674.86646,450.2171L675.1879,452.37L675.93677,454.41394L677.0823,456.26495L678.57733,457.84705L727.2906,503.26526L731.1032,505.5702L735.4633,506.4853L795.2283,513.5981L799.19104,513.31415L802.9964,512.1723L806.4609,510.22772L809.41766,507.57404L811.7241,504.33917L813.2692,500.67902L813.9784,496.76978L813.81757,492.8001L812.79443,488.96112L810.9583,485.438L788.56915,462.6454L787.05096,460.80048L785.20197,459.28723L783.0934,458.16382L780.8061,457.47333L778.42804,457.24237L776.0506,457.4798L773.7652,458.1765L771.65955,459.30554L769.81476,460.8238L768.3015,462.67273L767.17804,464.78143L766.4877,467.06873L766.25665,469.44678L766.49414,471.82422L767.19073,474.10962L768.3198,476.2152L780.1234,486.68726L741.1348,480.1087L724.26904,468.9093z" fill="#8CFEB5" stroke="none" fill-opacity="0.261109591" />
				<polygon points="302.62643,696.7045 231.14073,741.2423 185.97108,724.02356 205.95589,682.2439 221.69513,666.6277 240.46007,674.2396 286.02173,652.1265 294.1507,674.16656" fill="#EEF4D9" stroke="none" fill-opacity="1" />
				<path d="M311.32666,710.6689L313.88382,708.70325L316.00842,706.2765L317.6186,703.48193L318.65274,700.4269L319.07098,697.22876L318.8573,694.01044L318.0198,690.89575L316.59082,688.0043L314.62515,685.44714L312.1983,683.32263L309.4037,681.7123L306.3487,680.67816L303.15057,680.2599L299.9323,680.47363L296.81766,681.31116L293.92612,682.7401L229.62646,725.5984L201.86943,717.66956L215.55313,689.06287L224.43002,680.2554L236.10788,684.9687L239.2317,685.75244L242.45059,685.6454L245.51555,684.65576L279.83392,667.49396L283.35178,678.14954L287.22638,702.49585L288.6521,705.3889L290.61496,707.94836L293.03928,710.0756L295.8321,711.6891L298.8859,712.7267L302.0836,713.1485L305.30206,712.9384L308.41776,712.1045L311.31088,710.6787L313.87027,708.716L315.9975,706.2916L317.61093,703.4988L318.64844,700.44495L319.07037,697.2473L318.86032,694.0289L318.02634,690.91315L304.93707,670.1493L296.45782,648.2774L295.4341,646.19904L294.0021,644.3778L292.2238,642.89276L290.17645,641.8083L287.94897,641.1714L285.63785,641.0098L283.34332,641.3305L281.16492,642.1195L240.03885,661.5742L226.05556,655.87823L223.45145,655.16125L220.75218,655.06586L218.10402,655.5973L215.65059,656.72675L213.52478,658.393L197.7855,674.0093L175.50642,719.0179L174.62581,721.6046L174.37477,724.3257L174.76726,727.0299L175.78131,729.5674L177.36082,731.7971L179.41818,733.5956L181.83907,734.86285L226.12595,754.39734L230.33769,755.29785L234.62456,754.8828L238.58534,753.1913z" fill="#8CFEB5" stroke="none" fill-opacity="0.261109591" />
			</g>
			<g id="layer.apron.uuid_0x6">
				<polyline points="774.5872,601.3358 744.9837,578.97107 736.075,603.2848 766.69934,628.61914 788.9251,637.24945 795.88873,616.8982" fill="#000000" stroke="none" fill-opacity="1" />
				<polyline points="631.4044,544.07666 671.2665,528.31683 676.3945,553.9715 634.6715,572.42737 606.54913,576.2689 602.8386,554.89746" fill="#000000" stroke="none" fill-opacity="1" />
				<polyline points="568.1718,648.9589 581.3067,655.98303 616.6224,666.7665 653.2051,662.74744 688.2926,645.8989 709.80743,667.3329 740.7559,685.7864 759.2437,688.9447 776.9621,686.4202 765.0431,682.7919 747.67554,677.81494 716.27246,646.65894 690.1241,617.8474 623.9873,646.714 574.4842,645.578 556.0089,638.4758" fill="#000000" stroke="none" fill-opacity="1" />
			</g>
		</g>
	</g>
</svg>
