<?xml version="1.0" encoding="UTF-8"?>
<!-- Generator: Blender, SVG Export for Grease Pencil - v2.0 -->
<!DOCTYPE svg PUBLIC "-//W3C//DTD SVG 1.1//EN" "http://www.w3.org/Graphics/SVG/1.1/DTD/svg11.dtd">
<svg version="1.1" x="0px" y="0px" xmlns="http://www.w3.org/2000/svg" width="1920.000000px" height="1080.000000px" viewBox="0 0 1920.000000 1080.000000">
	<g id="blender_frame.3">
		<g id="blender_object.Stroke.3.uuid_0x0">
			<g id="layer.Fills.uuid_0x1" />
			<g id="layer.black.uuid_0x2" />
			<g id="layer.skin.uuid_0x3" />
			<g id="layer.yella.uuid_0x4" />
			<g id="layer.red.uuid_0x5">
				<polygon points="525.4698,308.99158 610.80035,317.47003 674.8322,381.35724 733.01483,472.26978 771.0939,527.9125 830.1504,602.3573 911.7283,658.614 949.59235,702.68945 949.95605,717.74225 931.238,768.2926 756.8903,814.5325 543.6421,826.3955 357.11752,797.781 135.73305,769.8198 77.61635,744.29565 76.94647,728.5764 87.930626,690.3607 105.91158,674.6035 160.47731,647.25244 268.21503,565.25214 294.36478,529.964 369.29803,408.86536 472.55237,318.15717" fill="#53ABE7" stroke="none" fill-opacity="1" />
				<path d="M525.7004,306.67035L525.2431,306.66998L524.7945,306.75885L524.3718,306.93347L523.99146,307.18713L523.6678,307.51025L523.4135,307.8902L523.23804,308.31256L523.1485,308.76093L523.14813,309.2182L523.23694,309.6668L523.41156,310.08936L523.6653,310.46985L523.98834,310.79352L524.3684,311.04785L524.7907,311.22327L525.23914,311.3128L607.86115,323.68658L670.54156,384.8122L728.91656,474.89264L769.6847,528.8769L826.2118,605.48175L910.2299,660.28015L942.77625,705.3092L945.8732,717.06146L921.06525,757.1002L756.0994,809.54956L544.2667,813.47974L357.5261,795.11804L137.62436,762.97864L88.77589,736.6647L82.08716,729.1893L94.95032,694.81604L107.28453,676.6448L161.47311,649.239L272.89404,571.3998L299.36252,533.66754L370.7431,410.08752L474.26602,321.73987L525.8678,311.28998L526.30865,311.1682L526.7171,310.9627L527.0777,310.68152L527.3765,310.33533L527.60205,309.93756L527.7456,309.5033L527.80176,309.04956L527.76825,308.5935L527.64636,308.1527L527.4409,307.74426L527.15967,307.3836L526.8135,307.08484L526.41565,306.8593L525.98157,306.71576L525.52765,306.65955L525.07166,306.69318L471.89996,314.39087L470.02957,315.28552L368.06265,407.45898L289.21207,526.4696L262.66183,559.76984L159.29628,645.35864L104.8181,672.4221L82.673035,684.36115L81.195435,686.0858L80.26377,688.1571L72.03547,727.16486L66.15252,744.7842L66.54402,747.306L67.4833,749.679L68.923874,751.78564L70.7943,753.5217L73.00238,754.8014L132.9085,776.25116L356.74445,800.44946L541.6919,839.108L757.1691,819.5438L934.6798,781.2702L937.6569,780.085L940.2683,778.2282L942.3654,775.8054L943.82874,772.95483L953.7682,719.1539L954.01996,717.6441L956.4676,702.5233L956.0117,700.22205L954.80896,698.208L913.4139,657.1659L833.62244,598.64465L772.469,526.89844L737.07263,469.5838L679.44476,378.40527L615.3749,312.88507L613.5687,311.6147L611.4408,311.02496z" fill="#000000" stroke="none" fill-opacity="1" />
				<polygon points="757.9884,564.08044 727.19495,512.01056 681.1522,451.00482 615.66504,381.2937 511.10406,334.0075 436.88766,383.56946 385.80545,438.40216 350.6341,496.3932 324.93817,555.3783 330.6509,594.98694 325.93295,628.6771 267.07373,658.63574 172.51488,752.69543 461.645,778.0586 735.2804,755.01025 869.42126,717.829" fill="#7FD2E8" stroke="none" fill-opacity="1" />
				<polygon points="455.90427,372.2091 439.4627,388.5556 424.10254,381.57324 447.04584,366.18427" fill="#EEF4D9" stroke="none" fill-opacity="1" />
				<path d="M463.82153,380.17236L465.22296,378.4748L466.26624,376.53644L466.91135,374.4317L467.13348,372.24164L466.92404,370.0503L466.29123,367.9419L465.2591,365.99756L463.86755,364.2918L462.16998,362.89038L460.2316,361.84705L458.12692,361.20197L455.93683,360.9798L453.7455,361.18927L451.63712,361.82214L449.69272,362.8542L447.9871,364.24573L436.8326,373.92975L436.15366,380.58185L447.00937,377.5011L449.58914,381.49432L451.52194,382.54797L453.62314,383.20416L455.812,383.438L458.00446,383.24023L460.11618,382.6186L462.066,381.5968L463.77908,380.2143L465.18948,378.52423L466.2431,376.59143L466.89944,374.49017L467.13318,372.30127L466.93536,370.10883L466.31375,367.9972L465.29193,366.04736L463.90952,364.33423L462.21942,362.92377L453.41022,356.82654L451.02878,355.59143L448.42343,354.95154L445.7407,354.94287L443.13126,355.56592L440.7419,356.7857L417.3669,371.53113L415.40128,373.17682L413.82666,375.1999L412.71402,377.50952L412.11328,380.0017L412.05142,382.56458L412.53125,385.08295L413.53125,387.44348L415.00644,389.54022L416.89035,391.2788L419.09863,392.58112L434.403,399.68585L437.21576,400.57367L440.1593,400.7621L443.0622,400.24005L445.75565,399.03802L448.08286,397.226z" fill="#8CFEB5" stroke="none" fill-opacity="0.261109591" />
				<polygon points="270.13345,596.683 246.72203,623.6615 261.97705,640.05884 289.2332,617.12305 279.42218,606.94727" fill="#EEF4D9" stroke="none" fill-opacity="1" />
				<path d="M279.60956,604.9061L281.0317,602.8994L282.03513,600.6538L282.58112,598.2556L282.6487,595.79694L282.2354,593.3723L281.35706,591.075L280.04727,588.99316L278.35666,587.2068L276.34988,585.78455L274.10434,584.78125L271.7061,584.2352L269.24744,584.16766L266.82288,584.58093L264.52557,585.45935L262.44363,586.76904L260.6573,588.4598L238.60435,616.61707L237.14294,618.787L236.24904,621.2456L235.97559,623.8474L236.33887,626.43823L237.31723,628.86444L238.85286,630.9824L252.98372,648.42566L254.99892,650.1677L257.34235,651.43445L259.90363,652.1661L262.56247,652.32837L265.1938,651.9137L267.67383,650.9415L269.88596,649.45746L299.88644,629.78296L302.53214,626.96704L304.45264,623.6142L305.54306,619.9074L305.7441,616.0488L305.04474,612.2487L303.48312,608.7145L301.1444,605.6388L289.87177,597.1861L279.43634,588.2643L277.6152,586.61115L275.5065,585.3451L273.19138,584.51465L270.75876,584.15186L268.302,584.2706L265.91568,584.86646L263.6915,585.9164L261.71475,587.38L260.06168,589.2012L258.79556,591.3098L257.96518,593.625L257.6024,596.0576L257.7212,598.5143L258.31696,600.90063L259.36685,603.1249L260.8305,605.10156L268.8195,616.5421L272.70978,616.2622L263.0102,623.1357L261.16968,623.4115z" fill="#8CFEB5" stroke="none" fill-opacity="0.261109591" />
				<polygon points="683.3815,638.1514 672.3943,641.32245 662.18256,645.32355 652.9049,649.7926 644.4204,655.07776 651.51044,665.5956 659.1254,676.78394 667.6345,688.6808 676.51215,701.15344 685.52673,696.0846 695.2491,691.6453 705.81335,687.79553 716.668,684.2903 707.72485,672.03467 698.87213,660.1874 690.93665,648.84607" fill="#83DDD7" stroke="none" fill-opacity="1" />
				<polygon points="611.93097,637.52515 601.38086,635.0189 590.9496,632.9227 580.25305,631.08704 568.91327,629.0514 568.06195,640.19586 567.4846,651.66846 566.8423,663.6682 566.46857,675.7612 576.98627,678.03784 587.3178,680.4971 597.7555,683.19055 608.1207,686.4834 608.46326,673.4203 609.3264,660.7516 610.4731,648.8699" fill="#83DDD7" stroke="none" fill-opacity="1" />
				<polygon points="695.1291,589.86755 682.1593,597.1451 669.54956,605.2284 658.2182,614.0892 647.7198,624.0624 660.32117,634.6919 674.5657,647.0448 690.06024,660.7834 706.66974,675.831 718.4279,665.9126 731.24194,657.1019 744.9425,649.0038 759.1168,641.78613 742.21783,627.8145 725.74713,614.3771 709.92316,601.62366" fill="#83DDD7" stroke="none" fill-opacity="1" />
				<polygon points="494.2947,717.96063 482.50858,696.74347 469.30212,675.3719 455.27646,654.0263 440.00766,633.0057 423.55585,639.17444 407.18625,645.3862 390.6245,651.477 373.6473,657.6456 385.7335,677.5769 397.17914,697.4407 407.81372,717.18066 417.8435,736.90576 437.4268,732.063 456.60614,727.2633 475.5078,722.5687" fill="#83DDD7" stroke="none" fill-opacity="1" />
				<polygon points="569.3966,559.60535 522.11145,553.9488 477.33423,550.8741 436.1858,550.0853 398.41376,550.0411 410.09473,586.7743 423.17026,623.3927 435.2677,659.6664 444.9574,695.4541 487.03506,698.8486 527.8495,703.3288 562.0722,702.39386 592.2723,698.58276 585.70917,660.4187 580.59265,626.7123 575.55304,594.20325" fill="#83DDD7" stroke="none" fill-opacity="1" />
				<polygon points="511.24307,576.5623 493.1448,580.2007 475.5581,584.26544 458.69507,588.71466 442.4909,593.3159 453.4246,610.32654 464.51184,627.42365 475.33942,644.6408 485.73672,662.0177 502.8628,658.78296 520.1447,655.6906 536.2041,651.4581 551.2697,645.98444 543.1999,630.0046 533.50037,612.9375 522.5334,594.7687" fill="#83DDD7" stroke="none" fill-opacity="1" />
				<polygon points="619.4004,651.4166 617.1174,638.32935 615.67615,626.15515 614.17255,614.471 612.90485,603.3523 602.41754,604.9021 591.92206,606.54004 581.4107,608.40533 570.73724,610.22 574.0002,622.31335 576.8619,634.4988 579.6393,646.6782 582.68774,659.5938 591.5267,657.032 600.65155,654.8128 609.9787,652.8533" fill="#83DDD7" stroke="none" fill-opacity="1" />
				<polygon points="472.9304,536.81824 487.71368,523.2404 503.6797,509.98993 521.70374,497.08832 541.39417,485.06378 524.9558,468.68866 509.78806,452.953 495.74295,437.4973 483.9028,422.46478 462.3552,435.39697 443.6699,448.89673 427.07635,462.65594 412.2452,476.62854 424.99176,491.50458 439.13757,506.32812 455.46536,521.4444" fill="#83DDD7" stroke="none" fill-opacity="1" />
				<polygon points="687.033,601.2171 674.24445,569.3302 663.7765,538.2017 649.4216,501.12988 635.6027,462.1454 591.65857,464.18005 545.9988,469.971 503.8948,478.66412 466.19516,489.61786 488.59158,527.60333 515.51917,567.2647 544.4545,608.386 566.0127,643.7479 591.3422,627.83417 618.349,614.13007 649.39075,604.7453" fill="#83DDD7" stroke="none" fill-opacity="1" />
				<polygon points="646.6573,559.5553 636.57635,546.0222 625.012,530.7274 610.9874,513.4153 596.49536,495.50177 579.0458,502.31396 562.0549,509.5011 546.1407,517.42786 531.08356,525.6257 547.4474,542.8648 564.3835,560.4737 579.3093,576.442 591.5805,589.87805 603.8526,581.10974 617.37946,573.29767 631.5039,565.90326" fill="#83DDD7" stroke="none" fill-opacity="1" />
				<polygon points="663.65,760.2633 665.82684,741.628 667.5673,722.91797 669.8234,704.7984 672.74725,687.6185 656.562,677.276 641.81665,668.3885 628.59,660.7449 616.2798,654.5376 613.4022,670.977 611.2071,688.1981 609.5952,706.46063 608.09985,725.17505 620.91327,732.74774 634.50305,741.2002 648.83936,750.4319" fill="#83DDD7" stroke="none" fill-opacity="1" />
				<polygon points="567.5141,549.33484 597.9287,547.454 627.5821,545.375 656.8935,544.7722 684.6372,546.0012 680.8495,525.85156 675.50006,502.84442 670.04736,479.2771 666.87134,456.6396 638.44165,452.03638 605.4057,449.0501 569.06,448.3811 533.1346,449.7282 538.4194,473.69373 546.0743,498.19275 555.78143,523.38257" fill="#83DDD7" stroke="none" fill-opacity="1" />
				<polygon points="809.4694,724.3723 811.3261,714.4751 813.2024,704.7087 815.12115,695.1477 817.11884,685.7978 805.81854,681.6289 793.8734,676.9563 781.57635,672.1379 769.07996,667.0592 767.6093,676.593 766.39044,686.4104 765.2556,696.52606 764.5086,706.92285 776.3763,711.7886 787.744,716.3368 798.8324,720.56" fill="#83DDD7" stroke="none" fill-opacity="1" />
				<polygon points="753.43585,665.9688 748.78107,642.6024 744.77203,621.124 740.1046,600.8087 734.85846,581.30664 710.0089,575.69336 685.8588,571.5475 662.7751,569.3627 641.074,568.7634 642.24896,586.9038 643.9148,605.5695 646.52216,625.44696 650.80115,647.9043 672.92914,649.52356 697.824,653.56934 724.8941,659.32806" fill="#83DDD7" stroke="none" fill-opacity="1" />
				<polygon points="557.02814,453.07684 524.27655,493.6147 502.68423,537.16406 490.2524,582.60645 482.46335,629.0761 533.1657,656.1684 571.994,675.3458 607.1378,695.4899 647.47253,724.8933 659.2444,673.38934 682.0466,633.1347 714.6478,603.2404 744.0323,577.8967 698.7013,546.95605 657.5209,517.3299 608.73566,483.58777" fill="#83DDD7" stroke="none" fill-opacity="1" />
				<polygon points="356.57312,548.6936 348.89188,555.243 341.15445,561.85706 333.22055,568.32666 325.27618,574.70654 331.71725,585.0724 338.8194,595.31226 346.15878,605.5276 354.1371,615.63416 362.42667,609.28296 370.9175,602.8952 379.1251,596.3733 387.2655,589.81177 379.1327,579.5382 370.96533,569.3031 363.46426,559.0468" fill="#83DDD7" stroke="none" fill-opacity="1" />
				<polygon points="361.8517,665.8147 352.50192,663.5077 343.4145,661.21155 334.11285,658.92957 324.9225,656.615 324.05612,664.0404 322.9376,671.4689 321.6207,678.92303 320.3013,686.33704 329.65714,688.6672 339.1882,690.911 348.6717,693.27136 358.26733,695.5963 359.44165,688.22626 360.3658,680.8281 361.05783,673.36163" fill="#83DDD7" stroke="none" fill-opacity="1" />
				<polygon points="436.258,551.8609 424.5532,542.4761 413.55466,532.98584 403.0845,523.77374 393.31738,514.4121 387.29755,522.99084 381.63135,531.362 376.45496,539.959 371.50797,548.4264 381.7751,557.79913 392.06024,567.1083 403.69928,576.51855 415.35492,585.9415 420.48163,577.3287 425.2564,568.8152 430.57028,560.2945" fill="#83DDD7" stroke="none" fill-opacity="1" />
				<polygon points="556.7607,337.97736 461.47964,356.4278 504.3052,377.74292 577.3492,360.85614" fill="#EEF4D9" stroke="none" fill-opacity="1" />
				<path d="M559.07764,349.94305L561.36755,349.26105L563.48035,348.1455L565.33496,346.63916L566.86,344.8L567.99695,342.69855L568.70215,340.41577L568.9484,338.03925L568.72626,335.6604L568.0443,333.37054L566.9288,331.25775L565.4225,329.4032L563.5832,327.87805L561.4818,326.74103L559.19904,326.03595L556.82245,325.78973L554.4436,326.01178L459.43732,345.88074L457.30954,346.52716L455.36044,347.59784L453.6735,349.04694L452.32108,350.81232L451.3612,352.81836L450.83484,354.97894L450.76456,357.20172L451.1535,359.39124L451.9849,361.45386L453.22314,363.30103L454.8152,364.85376L456.69278,366.04535L498.3846,389.6385L502.75006,390.9391L507.2982,390.68903L581.4258,378.48938L584.97327,377.27032L588.19324,375.34607L590.9474,372.79938L593.1173,369.73956L594.61,366.29822L595.3611,362.62317L595.3385,358.87207L594.543,355.20618L593.00903,351.78308L590.8023,348.74976L565.82025,329.8247L564.0557,328.21387L562.01074,326.97833L559.7641,326.1654L557.4019,325.80634L555.01514,325.91516L552.6955,326.48743L550.532,327.50134L548.6079,328.9178L546.9972,330.68237L545.76154,332.7273L544.94867,334.974L544.58966,337.33618L544.69836,339.72296L545.27075,342.0426L546.28455,344.20605L547.70105,346.1302L560.0885,355.41412L505.9576,363.7229L494.6645,360.9444z" fill="#8CFEB5" stroke="none" fill-opacity="0.261109591" />
				<polygon points="249.44962,695.1277 191.65015,747.4431 131.78885,737.22675 132.88765,695.2294 141.22055,677.2368 164.45618,682.57086 200.31648,650.64575 223.75403,673.24884" fill="#EEF4D9" stroke="none" fill-opacity="1" />
				<path d="M260.49048,707.3259L262.6581,704.93756L264.3182,702.17224L265.40677,699.1361L265.8822,695.94604L265.7261,692.7245L264.94446,689.5953L263.56747,686.6787L261.6479,684.0868L259.25955,681.9192L256.49423,680.2591L253.45808,679.17053L250.26793,678.69507L247.04642,678.8512L243.91725,679.63275L241.00069,681.00977L238.40875,682.92944L187.27484,732.41437L143.64803,727.4827L144.42119,697.9291L147.79341,690.6476L161.86563,693.85547L164.60222,694.1481L167.33049,693.78656L169.89642,692.79126L172.1549,691.2186L200.01418,665.8075L215.76399,681.5338L238.78326,707.6548L241.43219,709.49493L244.38911,710.783L247.54057,711.4695L250.76541,711.5279L253.9396,710.95605L256.9413,709.776L259.65506,708.03296L261.9767,705.79395L263.81696,703.14514L265.10498,700.1881L265.79138,697.0367L265.84985,693.8119L265.278,690.63763L264.0979,687.636L262.3549,684.9221L260.11597,682.6006L231.48738,664.7163L208.03802,642.6391L206.166,641.1847L204.02826,640.16003L201.72198,639.6116L199.35179,639.56433L197.02556,640.0204L194.84871,640.9591L192.92017,642.33777L161.22145,669.9489L143.81607,665.93066L141.20357,665.6366L138.5919,665.93835L136.11534,666.8204L133.90091,668.2374L132.06247,670.1168L130.69444,672.36176L122.36155,690.3544L121.29135,694.9259L120.19266,736.92334L120.44793,739.66565L121.34257,742.2705L122.82601,744.59106L124.81476,746.4964L127.196686,747.8793L129.83734,748.6616L189.28168,761.32086L193.51039,761.3981L197.57121,760.2158L201.09764,757.8809z" fill="#8CFEB5" stroke="none" fill-opacity="0.261109591" />
			</g>
			<g id="layer.apron.uuid_0x6">
				<polyline points="609.2348,408.7044 576.41394,392.3683 573.5305,418.10175 607.1607,434.3199 628.4118,430.31616 631.17444,409.88373" fill="#000000" stroke="none" fill-opacity="1" />
				<polyline points="461.84546,422.61682 499.4005,398.64294 507.15866,423.62836 467.6148,446.19604 441.2202,449.6795 435.19055,429.23987" fill="#000000" stroke="none" fill-opacity="1" />
				<polyline points="414.484,499.89252 424.51184,513.3268 466.4006,536.5903 538.557,506.78723 594.0165,512.6314 620.9754,516.6361 641.72186,508.1584 648.29,479.33246 640.93427,457.411 642.0335,478.3781 631.4667,497.6217 596.45953,496.7652 534.9491,489.41278 463.63876,519.5009 420.28433,500.53442 410.86505,473.9558" fill="#000000" stroke="none" fill-opacity="1" />
			</g>
		</g>
	</g>
</svg>
