<?xml version="1.0" encoding="UTF-8"?>
<!-- Generator: Blender, SVG Export for Grease Pencil - v2.0 -->
<!DOCTYPE svg PUBLIC "-//W3C//DTD SVG 1.1//EN" "http://www.w3.org/Graphics/SVG/1.1/DTD/svg11.dtd">
<svg version="1.1" x="0px" y="0px" xmlns="http://www.w3.org/2000/svg" width="1920.000000px" height="1080.000000px" viewBox="0 0 1920.000000 1080.000000">
	<g id="blender_frame.2">
		<g id="blender_object.Stroke.2.uuid_0x0">
			<g id="layer.Layer.uuid_0x1">
				<polyline points="687.501465,565.299805 677.389648,554.665344 862.252441,209.532837 986.907532,127.277771 1029.307373,126.429688 1412.636719,318.094849 1440.770874,397.222656 1451.321289,650.431641 1284.274048,849.130249 1208.663330,884.298218 1031.065796,882.539795 922.045410,877.264648" fill="#000000" stroke="none" fill-opacity="1" />
				<path d="M687.501465,565.299805L677.389648,554.665344L862.252441,209.532837L986.907532,127.277771L1029.307373,126.429688L1412.636719,318.094849L1440.770874,397.222656L1451.321289,650.431641L1284.274048,849.130249L1208.663330,884.298218L1031.065796,882.539795L922.045410,877.264648L1031.065796,882.539795L1208.663330,884.298218L1284.274048,849.130249L1451.321289,650.431641L1440.770874,397.222656L1412.636719,318.094849L1029.307373,126.429688L986.907532,127.277771L862.252441,209.532837L677.389648,554.665344z" fill="#FEFEFE" stroke="none" fill-opacity="1" />
			</g>
			<g id="layer.body.001.uuid_0x2">
				<polyline points="229.815674,667.377441 343.169525,797.942505 338.694824,811.559570 327.864685,820.913940 302.505646,831.148560 246.197418,782.963989 206.205368,715.827881" fill="#C66F35" stroke="none" fill-opacity="1" />
				<path d="M234.212265,663.560425L233.383072,662.776062L232.416916,662.168518L231.350723,661.761108L230.225540,661.569580L229.084625,661.601196L227.971741,661.854858L226.929764,662.320679L225.998657,662.980835L225.214294,663.810059L224.606781,664.776245L224.199371,665.842407L224.007843,666.967651L224.039429,668.108521L224.293152,669.221375L224.758987,670.263367L225.419128,671.194397L336.931000,799.198914L333.915985,808.374146L324.941925,816.125366L303.550629,824.758606L251.088577,778.843323L211.482864,712.684082L210.768127,711.714966L209.878067,710.903809L208.846878,710.281860L207.714157,709.873108L206.523453,709.693237L205.320572,709.749023L204.151596,710.038452L203.061615,710.550293L202.092407,711.265015L201.281250,712.155090L200.659378,713.186340L200.250610,714.319031L200.070709,715.509766L200.126480,716.712646L200.415970,717.881592L200.927811,718.971558L240.775620,786.193726L298.907227,835.353577L300.173553,836.167725L301.612427,836.610474L303.117310,836.649170L304.576935,836.280884L329.936096,826.046204L342.312531,815.747986L343.952667,813.287354L348.427368,799.670288L348.694275,798.270996L348.595093,796.849854L348.136414,795.501221L347.348724,794.314209z" fill="#000000" stroke="none" fill-opacity="1" />
				<polyline points="226.737152,541.083069 241.681183,714.994385 231.165329,722.374634 217.961197,722.545715 191.678162,712.868164 169.061569,634.935913 175.667709,555.865234" fill="#C66F35" stroke="none" fill-opacity="1" />
				<path d="M226.737152,541.083069L235.483765,712.102661L229.144760,716.119568L219.102692,715.892822L197.586121,707.361816L175.899292,634.252991L181.945038,556.389648L181.926788,555.154968L181.667923,553.947510L181.178513,552.813782L180.477264,551.797302L179.591263,550.937195L178.554428,550.266418L177.406708,549.810791L176.192139,549.587830L174.957443,549.606201L173.749969,549.864990L172.616272,550.354431L171.599808,551.055603L170.739670,551.941650L170.068863,552.978455L169.613281,554.126160L169.390350,555.340759L162.327866,634.373352L184.755310,714.877197L185.409393,716.427002L186.404846,717.782959L187.687500,718.871216L189.187485,719.632690L215.667786,728.774414L231.246643,728.654663L233.095947,728.351074L234.773254,727.515503L245.086151,719.845947L246.223297,718.802368L247.052460,717.500488L247.517395,716.028809L247.586563,714.486938z" fill="#000000" stroke="none" fill-opacity="1" />
				<polyline points="274.158051,430.850098 209.535309,584.366943 195.887192,586.402405 182.417450,581.147339 159.778702,563.153137 170.398407,488.020020 214.736649,423.326538 245.215515,395.778137" fill="#C66F35" stroke="none" fill-opacity="1" />
				<path d="M276.404633,431.795837L276.545929,431.339355L276.595520,430.864075L276.551361,430.388367L276.415314,429.930237L276.192444,429.507568L275.891479,429.136475L275.523834,428.831238L275.103668,428.603577L274.647278,428.462158L274.172058,428.412659L273.696198,428.456787L273.238159,428.592896L272.815491,428.815674L272.444275,429.116699L272.139099,429.484314L271.911438,429.904480L207.840561,582.184326L196.382156,582.000732L185.390167,575.976685L168.107300,559.832397L178.058563,490.996582L219.474335,427.468018L249.300842,400.297974L250.104034,399.414124L250.719498,398.390503L251.123428,397.266602L251.300293,396.085388L251.243301,394.892395L250.954727,393.733459L250.445541,392.653076L249.735428,391.692871L248.851547,390.889587L247.827988,390.274109L246.703949,389.870239L245.522858,389.693359L244.329803,389.750366L243.170914,390.038940L242.090607,390.548157L241.130280,391.258240L210.546173,418.690369L163.798416,483.496704L162.475952,486.900208L152.073257,562.064026L152.052200,564.080811L152.550140,566.035278L153.533539,567.796082L154.936523,569.245117L178.747849,585.764038L194.331421,590.390259L196.518631,590.636108L209.890594,586.749329L210.482422,586.581665L211.012512,586.269531L211.446243,585.833374L211.755295,585.301514z" fill="#000000" stroke="none" fill-opacity="1" />
				<polyline points="438.804993,316.377563 276.066040,432.538574 263.543060,429.432861 253.703217,418.720703 243.423325,388.843872 300.170990,321.324829 400.558563,287.030029" fill="#C66F35" stroke="none" fill-opacity="1" />
				<path d="M442.356781,321.353638L443.313721,320.506409L444.073669,319.478760L444.603241,318.315491L444.879486,317.067749L444.890228,315.789673L444.634979,314.537292L444.124969,313.365417L443.382446,312.325073L442.439911,311.461975L441.338470,310.813660L440.126312,310.408447L438.856354,310.264221L437.584137,310.387085L436.365326,310.771851L435.253174,311.401550L275.644012,430.325134L265.375824,426.343689L258.238159,416.019775L251.391037,390.324768L305.274384,328.776062L402.736908,293.406616L403.939056,292.859070L405.011261,292.087524L405.912354,291.121704L406.607758,289.998596L407.070618,288.761475L407.283325,287.457703L407.237549,286.137573L406.935089,284.851746L406.387543,283.649597L405.616089,282.577332L404.650208,281.676208L403.527130,280.980896L402.289948,280.517944L400.986206,280.305298L399.666077,280.351074L398.380219,280.653564L297.358063,313.091064L293.510101,315.726624L238.024460,384.306213L237.046677,385.831238L236.489639,387.554993L236.390076,389.363831L236.754501,391.138367L248.817505,420.401794L249.898056,422.216064L261.009979,431.759644L261.788116,432.390930L262.715149,432.771240L275.573334,434.525208L276.157196,434.583374L276.733643,434.473450L277.255157,434.204590z" fill="#000000" stroke="none" fill-opacity="1" />
				<polyline points="541.496338,393.669800 498.447968,463.638611 544.134766,664.068237 859.915710,729.349609 1027.117798,558.514648 1068.544434,498.729431 1085.413574,524.898438 1099.397705,563.199097 1109.604614,620.123535 1107.931763,690.773682 1062.670654,783.215942 962.424988,881.534668 856.916077,937.240845 751.611206,976.450867 628.590271,996.832520 544.172485,989.964783 478.338806,969.529053 409.454773,935.142151 323.824249,873.309814 260.982971,801.801270 235.177856,743.656616 210.175842,640.324463 208.410355,564.317871 238.043671,468.913391 288.127197,408.145691 341.989563,359.144043 405.580444,322.974060 479.514526,304.219910 513.443970,360.152527" fill="#6C1828" stroke="none" fill-opacity="1" />
				<path d="M548.881653,398.213562L549.626160,396.685486L550.058350,395.041504L550.161316,393.344727L549.931396,391.660522L549.377441,390.053406L548.520447,388.585510L547.393555,387.312866L546.040039,386.284424L544.511902,385.539917L542.867981,385.107849L541.171204,385.004639L539.487061,385.234619L537.879944,385.788635L536.411926,386.645630L535.139343,387.772461L534.110962,389.125977L490.234680,458.585449L489.215576,460.853394L488.810333,463.306641L489.045868,465.781860L535.951050,665.933594L536.586548,667.739380L537.614685,669.354126L538.981934,670.694031L540.617126,671.689209L542.435364,672.287964L858.216675,737.568176L860.302795,737.733032L862.364929,737.376648L864.274719,736.521118L865.913513,735.219788L1033.115601,564.384827L1068.292480,513.828125L1077.851807,528.657471L1084.113647,567.326416L1084.943726,622.023071L1083.457275,684.797607L1042.424927,768.602661L947.758179,861.449829L849.753479,921.249512L749.013306,966.697021L628.349182,991.024902L545.222168,984.538879L480.393311,964.415039L411.455078,931.836731L325.075073,871.933289L266.050018,798.558228L238.006607,742.695435L213.501892,639.888611L212.445084,564.882141L242.397995,471.265320L291.710815,411.558350L345.034821,363.341187L407.233704,327.080078L478.149292,307.554932L511.478699,361.344727L511.749115,361.705261L512.084534,362.006104L512.472290,362.235718L512.897400,362.385254L513.343384,362.448975L513.793335,362.424500L514.229919,362.312683L514.636230,362.117798L514.996704,361.847534L515.297546,361.512024L515.527161,361.124329L515.676697,360.699280L515.740479,360.253113L515.716003,359.803162L515.604126,359.366699L515.409363,358.960327L481.991394,302.717468L481.532715,302.141724L480.943787,301.700073L480.262512,301.421204L479.532959,301.323059L478.802185,301.411865L404.501862,318.722229L339.441467,354.664124L284.805664,404.494629L234.296310,465.824951L233.406189,467.472961L204.570694,563.125244L206.841431,640.401978L232.285934,744.356384L255.547302,804.213684L322.435913,874.529907L407.200439,938.264099L475.885315,974.443909L542.544006,995.211060L628.122620,1002.582458L753.253418,986.362976L863.017639,953.627441L973.914856,903.296936L1079.902222,800.785278L1130.034058,701.595215L1132.534058,691.356323L1134.207031,620.706055L1114.922729,560.415405L1093.296997,522.020081L1075.598389,494.182434L1074.447144,492.763855L1073.016479,491.627869L1071.373779,490.828369L1069.597046,490.403381L1067.770386,490.372864L1065.980347,490.738403L1064.312012,491.482605L1062.844116,492.570129L1061.646484,493.949585L1020.623962,553.151550L857.124939,720.202881L551.119080,656.940918L508.725800,465.336548z" fill="#000000" stroke="none" fill-opacity="1" />
				<polyline points="831.179443,448.479065 829.383667,427.536377 832.195801,418.969482 843.516968,410.930054 876.971619,396.141724 938.105591,397.050903 993.988220,421.980896 1049.071899,481.132507 1057.197876,515.314514 1058.174927,533.759460" fill="#C66F35" stroke="none" fill-opacity="1" />
				<path d="M823.315369,449.153442L823.598083,450.674622L824.172119,452.111511L825.015381,453.408752L826.095581,454.516602L827.371094,455.392395L828.793030,456.002502L830.306641,456.323547L831.853760,456.343140L833.375000,456.060364L834.811829,455.486450L836.109131,454.643127L837.216980,453.562927L838.092712,452.287415L838.702881,450.865479L839.023865,449.351929L839.043457,447.804749L836.726868,428.390686L838.046692,423.282593L846.730225,416.583374L878.093506,401.657043L937.027832,401.934021L991.263489,425.795044L1046.729858,482.386475L1054.443970,515.711487L1055.048828,533.925110L1055.141113,534.531860L1055.350098,535.108887L1055.667725,535.634033L1056.081421,536.087219L1056.575928,536.450928L1057.131714,536.711121L1057.727539,536.858032L1058.340698,536.885742L1058.947388,536.793396L1059.524414,536.584351L1060.049561,536.266907L1060.502686,535.852966L1060.866333,535.358582L1061.126587,534.802795L1061.273560,534.206909L1061.301270,533.593872L1059.965088,515.167908L1051.570679,480.538513L1050.951416,479.382080L997.349731,418.850586L995.859619,417.786072L940.101257,392.577393L938.178467,392.153015L877.053406,390.644409L874.748779,391.113159L840.901184,405.012573L828.198303,413.340210L826.638306,414.872681L825.635864,416.816101L822.501587,425.277344L822.166809,428.155212z" fill="#000000" stroke="none" fill-opacity="1" />
				<polyline points="814.110779,496.843140 814.100281,469.773865 817.847534,457.810364 829.662903,445.578613 863.783691,426.263184 920.764771,425.393005 985.442383,454.834473 1047.906860,521.499207 1057.499878,558.890625 1058.459351,577.855957 1056.589478,611.184692 1052.322388,629.442566 1040.356445,627.583374" fill="#C66F35" stroke="none" fill-opacity="1" />
				<path d="M804.909851,496.846741L805.087402,498.641663L805.611694,500.367493L806.462524,501.957947L807.607361,503.351685L809.002075,504.495483L810.593140,505.345093L812.319336,505.867981L814.114380,506.044128L815.909424,505.866516L817.635193,505.342285L819.225586,504.491455L820.619385,503.346619L821.763184,501.951965L822.612732,500.360901L823.135681,498.634644L823.311707,496.839539L822.848389,471.110168L825.248901,462.205017L834.508301,451.835938L865.548462,432.761108L919.670532,430.630554L982.643188,458.734436L1044.914795,523.141602L1053.829834,559.448486L1054.464600,577.844971L1052.349731,610.575012L1049.068359,624.619629L1041.048706,623.127441L1040.166260,623.078003L1039.291016,623.201721L1038.456543,623.493774L1037.695312,623.942993L1037.036255,624.532104L1036.504761,625.238525L1036.121216,626.035034L1035.900635,626.890991L1035.851196,627.773560L1035.974731,628.648926L1036.266968,629.483154L1036.716187,630.244568L1037.305298,630.903564L1038.011597,631.435059L1038.808105,631.818481L1039.664185,632.039185L1051.667358,633.658142L1052.575928,633.701172L1053.473022,633.550659L1054.317871,633.213257L1055.071899,632.704590L1055.700806,632.047546L1056.176392,631.272095L1056.476685,630.413452L1060.744873,612.155884L1062.442139,578.079346L1061.188721,558.703979L1051.109619,520.677490L1050.319702,519.238464L988.878784,451.614563L987.393494,450.548401L922.927551,420.641846L920.685120,420.173340L863.684082,419.739746L860.569702,420.585571L825.804443,438.762573L811.822693,451.990662L809.853821,455.306580L805.752563,467.159180z" fill="#000000" stroke="none" fill-opacity="1" />
				<polyline points="787.821594,555.214050 791.397156,533.409180 796.250183,522.756409 807.506531,509.771057 839.491821,486.602478 900.455078,486.437988 966.136902,522.912964 1029.853760,588.413574 1043.522217,622.686523 1043.632202,640.687866 1034.722412,672.712891 1026.809692,690.118042 982.492554,720.631104 927.105530,746.978760 900.964050,742.680664" fill="#C66F35" stroke="none" fill-opacity="1" />
				<path d="M778.780334,553.731445L778.669678,555.643677L778.958923,557.537048L779.635681,559.328979L780.670105,560.940979L782.017090,562.302734L783.617676,563.354675L785.402100,564.050842L787.292297,564.360779L789.205566,564.270996L791.058350,563.785339L792.769714,562.925110L794.264771,561.727783L795.478271,560.245850L796.357117,558.544006L796.862915,556.696594L800.765930,536.256104L804.520203,528.067017L813.928040,516.779175L842.253174,495.082825L898.806213,492.838867L962.884033,527.164734L1025.667114,591.130005L1039.032715,623.562988L1039.348877,640.116455L1031.055054,671.378296L1023.819885,687.613770L980.383972,716.977905L926.361450,741.718384L901.839111,737.358704L900.784058,737.290283L899.735901,737.428955L898.734985,737.769470L897.819702,738.298767L897.025269,738.996338L896.382141,739.835571L895.915161,740.784119L895.642212,741.805603L895.573730,742.860596L895.712463,743.908813L896.052979,744.909729L896.582214,745.824951L897.279846,746.619385L898.119141,747.262451L899.067627,747.729492L900.089050,748.002441L926.283020,751.981567L927.815674,751.998718L929.283508,751.557068L984.298767,724.427979L1028.940918,693.213379L1030.230835,691.673340L1038.264282,674.323120L1047.755493,641.834961L1048.016724,622.659058L1047.697021,621.021606L1034.400757,586.600342L1033.362671,585.000366L969.933228,519.220032L903.560425,480.846008L900.437744,480.041626L839.468933,478.114563L836.863831,478.531616L834.512695,479.728455L801.967163,502.123840L788.899902,516.384888L782.564575,529.385376z" fill="#000000" stroke="none" fill-opacity="1" />
				<polyline points="654.362854,626.621948 665.787292,609.257874 674.714539,600.705811 692.566284,590.641357 737.461426,567.245483 802.205505,557.382996 854.945801,597.820435 899.462585,663.569092 906.339172,696.964661 904.287109,714.014893 896.129883,744.181519 883.410217,759.053650 812.193909,782.136719 735.448730,790.376953 723.780518,787.378113" fill="#C66F35" stroke="none" fill-opacity="1" />
				<path d="M647.915710,622.380188L647.212097,623.719482L646.783203,625.170288L646.645630,626.676880L646.804688,628.181396L647.254089,629.625916L647.976746,630.955078L648.944824,632.117676L650.121155,633.069092L651.460327,633.772705L652.911133,634.201538L654.417786,634.339111L655.922241,634.180176L657.366760,633.730713L658.695923,633.008057L659.858521,632.040039L660.809998,630.863770L672.501282,614.848938L680.220947,608.122314L697.187561,599.163574L740.684387,577.110168L799.872192,566.465149L850.422119,602.085022L894.484619,665.668579L900.836182,697.193970L898.890808,712.966187L891.216492,741.587036L880.328308,754.434143L811.070496,776.870667L735.841675,784.951904L725.121521,782.160645L724.077881,781.999268L723.022766,782.044556L721.996826,782.294922L721.039429,782.740601L720.187378,783.364441L719.473328,784.142578L718.924866,785.045044L718.562988,786.037109L718.401611,787.080750L718.447021,788.135864L718.697327,789.161804L719.142944,790.119202L719.766846,790.971313L720.544922,791.685303L721.447449,792.233765L722.439575,792.595581L734.116516,795.560608L812.765747,787.461914L885.058105,764.137878L887.471863,762.527527L900.249207,747.704590L901.362427,745.596313L909.580017,715.446106L911.736450,697.614258L904.652832,662.500305L903.850525,660.598145L860.027344,594.379883L807.454773,550.536621L805.451050,549.389587L803.214844,548.815063L800.906372,548.854187L735.919678,557.124634L688.086670,582.045349L670.213745,592.722534L659.781372,602.988525z" fill="#000000" stroke="none" fill-opacity="1" />
				<polyline points="581.470520,620.004150 602.195679,613.881775 613.636902,613.223511 631.575012,617.291138 675.192810,630.491821 722.934631,669.206604 722.839172,733.110474 701.494446,774.786499 674.059387,784.740967 654.025513,773.881592 616.294922,743.172729 591.593628,728.238525 557.462341,708.525757 503.506256,665.304382 502.992554,662.236206" fill="#C66F35" stroke="none" fill-opacity="1" />
				<path d="M579.439697,613.129456L578.137573,613.657715L576.963501,614.429932L575.962585,615.416321L575.173401,616.579041L574.626160,617.873291L574.341980,619.249512L574.331787,620.654785L574.595825,622.034912L575.124084,623.337097L575.896301,624.511230L576.882690,625.512024L578.045410,626.301270L579.339722,626.848450L580.715881,627.132690L582.121094,627.142944L583.501343,626.878784L603.563416,621.738892L612.955994,621.432556L629.483826,625.201904L671.675598,637.123840L717.083313,671.989746L716.256958,731.517761L697.536133,770.298645L674.446228,779.546265L656.651978,769.958252L619.371521,739.392700L594.077576,724.130188L560.052490,704.736206L506.490906,663.553040L506.372437,661.670410L506.197144,661.021851L505.898651,660.420044L505.488495,659.887939L504.982422,659.446167L504.399811,659.111572L503.763184,658.897095L503.097015,658.810913L502.426758,658.856323L501.778198,659.031616L501.176361,659.330139L500.644348,659.740356L500.202606,660.246338L499.867981,660.828918L499.653503,661.465576L499.567230,662.131836L499.612732,662.802002L500.093292,665.875732L500.521637,667.055664L501.342773,668.005127L554.600830,712.097961L589.150879,732.371826L613.482178,747.167603L651.057983,777.527466L671.795288,788.917969L673.045227,789.382568L674.375000,789.481689L675.679993,789.207275L703.393799,780.021362L704.628967,779.389343L705.669556,778.471558L706.450989,777.325012L728.699890,736.112122L729.423828,733.120361L728.781738,669.215332L728.528381,667.503906L727.785156,665.941528L726.617371,664.665039L679.832703,624.770142L677.326660,623.441101L633.943726,609.464478L615.440674,605.269043L601.740601,605.972168z" fill="#000000" stroke="none" fill-opacity="1" />
				<polyline points="575.773071,555.911926 585.814758,560.821411 589.558716,563.348328 592.476501,566.829468 597.761292,575.513428 600.835632,618.640076 546.660461,646.412842 517.606445,664.707764 497.676086,668.521362 490.457245,657.125183 484.925995,622.409973 480.788818,601.596375 475.847443,573.014404 464.085571,513.940308 465.604126,511.163086" fill="#C66F35" stroke="none" fill-opacity="1" />
				<path d="M579.266724,548.765930L577.704712,548.195679L576.058167,547.962646L574.399231,548.077087L572.800354,548.533936L571.331238,549.313232L570.056396,550.380920L569.031372,551.690308L568.301025,553.184265L567.897095,554.797363L567.837585,556.459229L568.124756,558.097107L568.746277,559.639587L569.674866,561.019043L570.869934,562.175293L572.279297,563.057861L581.612549,568.089355L583.828369,569.707275L585.443237,571.873291L589.187500,578.249756L592.763916,614.093689L544.265320,641.740723L516.108154,660.907288L499.225250,664.942871L493.190430,656.092285L487.707581,621.966797L483.901306,601.018066L479.976288,572.300537L470.121521,514.864441L471.018707,514.123840L471.492279,513.010681L471.739563,511.826416L471.751099,510.616638L471.526337,509.427979L471.074005,508.305908L470.411499,507.293701L469.564240,506.430237L468.564758,505.748596L467.451599,505.274963L466.267365,505.027771L465.057648,505.016235L463.868988,505.240967L462.746948,505.693176L461.734711,506.355774L460.871185,507.203064L460.189514,508.202454L458.727875,511.010742L458.049591,513.016174L458.096802,515.132690L471.727692,573.780518L477.669556,602.135620L482.152863,622.906372L487.631134,657.575439L488.039703,658.656494L494.952850,670.246460L495.438751,670.842163L496.051788,671.305908L496.757233,671.611328L497.515076,671.740967L498.281952,671.687622L518.360962,668.650635L519.745422,668.104736L549.261902,650.979126L604.361084,625.517090L605.857544,624.514038L607.081177,623.191650L607.965149,621.621948L608.461853,619.890259L608.544128,618.090576L606.485840,574.891479L605.233032,570.966309L599.869873,562.330078L596.119202,557.849731L590.511597,553.862732z" fill="#000000" stroke="none" fill-opacity="1" />
				<polyline points="625.047119,407.790039 627.058594,425.759033 626.106628,435.047424 623.938660,445.708008 616.042969,471.642151 571.794373,555.230164 520.405884,550.415955 477.615143,541.005249 453.677002,532.719910 447.274719,521.854980 437.523926,493.192139 443.389465,467.663818 471.701782,381.024780 537.885559,367.992737 540.542053,368.434937" fill="#C66F35" stroke="none" fill-opacity="1" />
				<path d="M631.761902,407.038330L631.486206,405.742859L630.963074,404.525940L630.212708,403.434448L629.263794,402.510376L628.152649,401.789307L626.922363,401.298706L625.619873,401.057617L624.295471,401.075256L622.999939,401.350830L621.783081,401.873962L620.691589,402.624512L619.767639,403.573486L619.046387,404.684448L618.555908,405.914795L618.314758,407.217224L618.332397,408.541626L619.489807,425.794373L618.267334,433.851624L615.826233,443.653137L607.458252,468.101318L567.097534,546.534973L521.401733,544.040527L479.229279,535.280884L457.598480,527.927368L452.721344,519.355774L443.636169,492.879944L448.727631,469.146057L475.386414,385.186401L537.964661,373.353882L539.660339,373.732117L540.710632,373.802368L541.754639,373.666260L542.751831,373.329224L543.664307,372.804138L544.456665,372.111084L545.098572,371.276733L545.565491,370.333252L545.839233,369.316772L545.909485,368.266418L545.773376,367.222534L545.436340,366.225281L544.911377,365.312866L544.218262,364.520508L543.383911,363.878540L542.440430,363.411682L541.423950,363.137878L538.766113,362.703796L470.775360,376.320007L469.574890,376.727173L468.523102,377.434570L467.693420,378.393005L467.143890,379.535339L438.128754,465.944641L431.786316,491.873840L431.950500,495.088135L441.631073,523.774902L448.670013,535.670349L449.996735,537.217712L451.776154,538.211853L475.673126,546.616089L519.022522,556.706116L571.027771,563.413574L572.958191,563.366638L574.824280,562.870605L576.523132,561.952942L577.961060,560.664185L579.058655,559.075562L624.212708,475.966980L631.935364,448.142639L633.867981,436.625793L634.545044,426.526367z" fill="#000000" stroke="none" fill-opacity="1" />
			</g>
			<g id="layer.arms.uuid_0x3">
				<polygon points="259.853699,472.174561 240.860825,473.942200 180.227341,478.184753 101.591034,479.505554 80.181480,467.378601 77.257408,435.248413 329.988037,311.466309 375.594971,306.749939 414.020844,310.397827 370.417603,323.691711 302.803314,353.897644 132.704086,444.110901 242.096542,427.382996 267.759399,423.952271 277.048126,426.931946 276.135681,444.428650 267.324982,465.320129" fill="#C55134" stroke="none" fill-opacity="1" />
				<path d="M260.045410,474.233704L260.443481,474.156738L260.818817,474.003601L261.157074,473.780212L261.445312,473.495056L261.672363,473.159241L261.829437,472.785522L261.910675,472.388367L261.912842,471.982910L261.835938,471.584900L261.682831,471.209534L261.459442,470.871277L261.174316,470.583069L260.838379,470.356018L260.464722,470.198853L260.067505,470.117676L259.662140,470.115479L240.687500,471.815979L180.047653,474.041931L102.860359,474.519470L84.748932,464.431091L81.836418,437.823608L331.295959,316.027710L375.615387,311.604736L387.482330,313.077759L369.060699,319.241333L301.584473,351.169189L131.470352,441.784607L131.031921,442.076782L130.660400,442.450317L130.370804,442.890381L130.174545,443.379333L130.079498,443.897522L130.089569,444.424255L130.204285,444.938416L130.418976,445.419556L130.725342,445.848206L131.110779,446.207336L131.559967,446.482605L132.054977,446.662842L132.576080,446.740967L133.102112,446.713806L242.522278,430.353943L267.590515,425.850098L275.084198,428.287537L274.264801,443.999268L265.743073,464.205627L258.455719,470.650757L258.185333,470.952759L257.978943,471.301758L257.844757,471.684265L257.787720,472.085632L257.810028,472.490356L257.910919,472.883057L258.086456,473.248474L258.329926,473.572632L258.631958,473.843079L258.980957,474.049316L259.363464,474.183594L259.764801,474.240662L260.169586,474.218384L260.562286,474.117432L260.927643,473.941895L261.251831,473.698425L268.603119,466.713257L269.067078,466.054871L277.877716,445.163330L278.936157,427.030518L278.912476,426.618347L278.800049,426.221252L278.604065,425.858032L278.333893,425.545898L278.002563,425.299988L277.625580,425.131775L268.327087,422.182312L267.513031,422.109863L241.698929,424.408203L147.658707,439.160278L304.114349,356.585022L372.051147,328.057739L415.530334,315.348816L416.536530,314.921326L417.430634,314.292053L418.172455,313.488953L418.729126,312.548035L419.075714,311.511108L419.196808,310.424561L419.086945,309.336792L418.751038,308.296387L418.204193,307.349731L417.470673,306.539062L416.583191,305.900513L415.581451,305.462646L414.509979,305.244995L376.051544,301.940430L329.507507,306.819397L75.354309,431.362732L74.481178,431.929932L73.768784,432.689270L73.258377,433.596802L72.979599,434.599915L72.948524,435.640625L75.385605,467.815125L75.628563,468.947876L76.135193,469.989868L76.875916,470.880676L77.807976,471.568787L99.144455,483.824768L101.674339,484.468872L180.296921,482.329346L241.009644,476.070129z" fill="#000000" stroke="none" fill-opacity="1" />
				<polygon points="231.476440,747.510132 216.891571,746.465454 154.361511,740.169861 152.157715,766.250977 156.435410,801.995789 255.354935,934.609436 324.684143,1009.376892 354.418549,1048.714844 325.164703,992.072815 288.315765,934.122437 247.629028,875.142761 219.763916,793.212646 264.690796,799.254883" fill="#C55134" stroke="none" fill-opacity="1" />
				<path d="M231.199661,751.373352L231.958679,751.353149L232.699188,751.185181L233.392639,750.875977L234.012451,750.437500L234.534805,749.886536L234.939713,749.244141L235.211502,748.535217L235.339676,747.786865L235.319427,747.027832L235.151535,746.287354L234.842377,745.593872L234.403839,744.973999L233.852753,744.451660L233.210449,744.046753L232.501541,743.775024L231.753159,743.646851L217.275009,742.014221L154.986359,733.963745L153.575424,733.982056L152.204819,734.317017L150.944534,734.951538L149.859177,735.853027L149.004074,736.975342L148.423172,738.261230L148.146057,739.644714L145.429276,765.682495L150.322021,802.727356L151.500092,805.677002L253.175629,936.234985L320.358307,1013.001770L348.976624,1052.828125L349.892517,1053.818604L350.985321,1054.609375L352.212341,1055.169800L353.525665,1055.477661L354.873962,1055.521118L356.204376,1055.298462L357.464935,1054.818359L358.606476,1054.099487L359.584167,1053.170044L360.359924,1052.066528L360.903290,1050.831787L361.193054,1049.514404L361.217926,1048.165649L360.976898,1046.838379L360.479431,1045.584473L329.660156,989.750977L290.700989,932.605652L250.329437,873.785034L226.625793,798.856689L264.260376,802.455444L264.926819,802.475586L265.583252,802.358521L266.201538,802.109131L266.755524,801.738037L267.221436,801.261108L267.579498,800.698669L267.814453,800.074646L267.916260,799.415771L267.880554,798.749878L267.708832,798.105652L267.408539,797.510315L234.735886,745.417847L234.265076,744.822144L233.687027,744.329834L233.024139,743.959595L232.301773,743.725952L231.547668,743.637573L230.790756,743.698120L230.060287,743.905151L229.384232,744.250671L228.788498,744.721436L228.296127,745.299438L227.925964,745.962402L227.692276,746.684753L227.603928,747.438843L227.664413,748.195679L227.871384,748.926208L228.216934,749.602295L258.201538,795.123596L220.387558,788.575317L219.333511,788.553467L218.301254,788.768066L217.343277,789.208496L216.508194,789.852173L215.838379,790.666382L215.367950,791.609985L215.120712,792.634949L215.109268,793.689209L215.334091,794.719238L244.794601,876.106689L285.958832,935.683838L320.773376,994.596130L350.783508,1042.942383L329.180878,1005.977966L257.447266,932.867371L162.353439,799.631958L158.944061,766.132874L160.043274,747.010986L216.444107,750.910217z" fill="#000000" stroke="none" fill-opacity="1" />
				<polygon points="574.824036,758.167358 572.994995,748.990234 574.607544,738.682495 580.420715,730.475464 593.146179,719.691528 626.839233,707.933228 670.136475,693.669678 734.535461,679.511963 780.845886,670.490479 796.861389,674.238281 787.065796,712.765991 741.165894,830.745911 705.758850,940.548340 687.853210,986.580566 677.508972,1015.721680 679.700256,981.949463 687.684875,938.741150 700.027283,854.564209 725.094666,743.757690 712.318604,743.289917 663.308105,747.684570 625.507874,758.580078 605.677490,767.057312 597.216003,773.684814 585.906616,770.466187 579.870972,765.804443" fill="#C55134" stroke="none" fill-opacity="1" />
				<path d="M573.569031,758.417419L573.641907,758.657471L573.760315,758.878662L573.919495,759.072571L574.113403,759.231628L574.334778,759.349731L574.574890,759.422485L574.824463,759.446960L575.074219,759.422302L575.314209,759.349487L575.535400,759.231079L575.729248,759.071899L575.888306,758.877930L576.006409,758.656616L576.079224,758.416504L576.103638,758.166870L576.078979,757.917236L574.284302,748.963440L575.829590,739.178833L581.409607,731.382080L593.875793,720.967590L627.415344,709.631714L670.717224,695.790161L735.125610,682.358826L780.777710,674.129639L792.350037,676.979370L782.849915,711.415527L736.552795,828.951233L702.013672,939.217407L682.120789,984.350830L678.759033,1009.646606L685.497192,982.670593L691.385620,939.425049L704.129883,855.327881L729.318726,744.713379L729.425476,743.770264L729.324219,742.826660L729.019836,741.927612L728.526978,741.116638L727.869202,740.432373L727.078247,739.907837L726.192078,739.568237L725.253113,739.429810L712.466858,739.240234L663.039246,744.686035L624.890747,756.439575L604.964905,765.390442L596.867920,771.909546L586.554199,769.183044L580.852722,764.892456L575.891602,757.461914L575.733459,757.267151L575.540405,757.106995L575.319763,756.987671L575.080078,756.913635L574.830505,756.887756L574.580750,756.911011L574.340393,756.982666L574.118530,757.099792L573.923828,757.257935L573.763672,757.450989L573.644348,757.671631L573.570312,757.911316L573.544434,758.160889L573.567688,758.410645L573.639343,758.651062L573.756409,758.872925L578.768127,766.533325L585.043762,771.583252L585.520264,771.823730L596.774719,775.235474L597.148560,775.295593L597.526123,775.266907L597.886597,775.150879L598.210144,774.954041L606.608398,768.630920L626.256958,760.682373L663.864563,750.657227L712.425842,747.348816L719.718445,747.894653L695.960205,853.644104L683.971375,938.125977L673.965942,980.889771L671.319580,1015.320068L671.367126,1016.586365L671.671143,1017.816528L672.218689,1018.959290L672.987061,1019.966919L673.944275,1020.797302L675.050232,1021.415894L676.258789,1021.796753L677.519592,1021.924072L678.779907,1021.792419L679.987244,1021.407410L681.090942,1020.785034L682.045288,1019.951416L682.810242,1018.941162L683.353943,1017.796509L693.618958,988.724731L709.461426,941.988586L745.832031,832.404297L791.183777,714.368042L800.444397,675.149292L800.557434,674.319092L800.480774,673.484741L800.218079,672.689087L799.783020,671.973022L799.197876,671.373291L798.492798,670.920776L797.703796,670.638672L781.656799,667.025146L780.165344,666.997192L733.979614,676.658325L669.664978,691.525146L626.278015,706.229736L592.669800,718.326904L579.560181,729.459961L573.559570,737.940247L573.338684,738.484009L571.740601,748.793945z" fill="#000000" stroke="none" fill-opacity="1" />
				<polygon points="906.518188,701.560669 905.367493,697.907471 905.245789,693.709290 906.741150,689.391968 909.770935,684.482178 914.508667,678.939087 922.822571,671.326416 931.167603,664.606201 962.389404,643.152832 977.954041,632.189819 991.932861,649.735352 1026.838379,703.889526 1070.867432,762.329712 1107.823120,817.067505 1125.133301,853.915466 1093.496948,818.865845 1057.545654,776.697998 1020.167480,739.512634 962.053040,687.304932 956.429871,690.605591 940.109314,700.680420 931.220703,704.554688 922.909973,707.324097 917.023804,707.837036 912.264648,706.694092 908.996094,704.635742" fill="#C55134" stroke="none" fill-opacity="1" />
				<path d="M904.579102,702.171448L904.735535,702.537964L904.960449,702.867004L905.245178,703.145813L905.578918,703.363708L905.948792,703.512268L906.340454,703.585938L906.738953,703.581665L907.128967,703.499756L907.495605,703.343384L907.824585,703.118408L908.103394,702.833618L908.321228,702.499878L908.469849,702.130127L908.543457,701.738403L908.539246,701.339905L908.457336,700.949829L907.422913,697.560791L907.363159,694.034058L908.708069,690.325562L911.593384,685.811157L916.214661,680.587830L924.508850,673.289490L932.855957,666.873901L964.527466,646.264526L977.151245,637.797241L988.386475,652.281372L1023.536133,706.018066L1068.605957,763.943359L1104.752930,818.811157L1110.053101,831.231995L1096.069336,816.609192L1059.502197,775.029907L1022.206726,737.462891L964.246826,684.863037L963.567078,684.392334L962.791260,684.106445L961.968689,684.023438L961.151489,684.148621L960.391357,684.473999L954.875488,687.957520L938.941162,698.447754L930.401855,702.420654L922.476929,705.234009L917.177612,705.773560L913.056763,704.814575L910.353149,703.110840L908.101257,700.285034L907.821899,700.000732L907.492615,699.776367L907.125732,699.620483L906.735657,699.539307L906.337036,699.535645L905.945557,699.609985L905.575928,699.759155L905.242554,699.977661L904.958252,700.256836L904.733887,700.586243L904.578064,700.953064L904.496826,701.343262L904.493286,701.741760L904.567505,702.133362L904.716675,702.502930L904.935120,702.836182L907.428223,705.899048L911.192200,708.397034L916.546875,709.822876L923.093933,709.435913L931.942627,706.721069L941.113708,702.984680L958.013733,693.236450L961.644897,691.350952L1018.180603,741.614258L1055.657471,778.446411L1090.893311,821.085693L1122.160767,856.598450L1122.763794,857.143433L1123.464355,857.555359L1124.233765,857.817383L1125.040283,857.918640L1125.850464,857.854980L1126.631226,857.629028L1127.350220,857.250061L1127.977783,856.733765L1128.488281,856.101257L1128.860596,855.378784L1129.079346,854.596069L1129.135498,853.785217L1129.026611,852.979736L1128.757446,852.212891L1111.009277,815.570801L1073.169067,760.775757L1030.062744,701.640259L995.597778,647.373169L981.177917,629.621216L980.552795,628.990112L979.806702,628.507568L978.974609,628.196106L978.095093,628.070190L977.209045,628.135620L976.357666,628.389465L975.580444,628.819824L960.233215,640.053589L929.567627,662.277771L921.200317,669.311890L912.909424,677.192627L908.061462,683.021179L904.899414,688.255432L903.254822,693.019653L903.303772,697.967224z" fill="#000000" stroke="none" fill-opacity="1" />
				<polygon points="477.959686,549.817505 474.582123,544.381042 465.936279,543.476990 448.753998,558.062622 422.543732,586.000061 388.220947,626.535522 360.776520,659.873169 335.161713,690.586182 309.235657,722.793213 291.021179,754.691528 301.486603,769.850952 320.362213,792.186157 378.100159,851.853882 427.345490,898.705078 456.134186,920.767822 404.494507,852.622375 372.524414,812.818787 353.605347,783.824890 336.486450,755.186157 363.487946,727.592407 394.299805,694.947388 438.781647,645.843628 473.794159,600.643066 478.722900,587.904053 480.773712,569.417725 480.161804,556.531128" fill="#C55134" stroke="none" fill-opacity="1" />
				<path d="M476.389771,550.792908L476.610199,551.080444L476.882568,551.319458L477.196259,551.500732L477.539276,551.617371L477.898499,551.664795L478.260101,551.641235L478.610046,551.547607L478.935120,551.387512L479.222656,551.167053L479.461578,550.894714L479.642914,550.580994L479.759552,550.237915L479.807007,549.878723L479.783478,549.517212L479.689789,549.167114L479.529694,548.842163L476.152069,543.405701L475.788727,542.980957L475.315063,542.684265L474.774323,542.542847L466.128479,541.638733L465.632385,541.653870L465.158203,541.800476L464.740173,542.067932L447.557892,556.653503L421.183807,584.724243L386.274292,624.887268L357.599152,657.240356L331.608185,687.622498L306.433624,720.537659L287.083435,752.443054L286.681519,753.376465L286.497650,754.376160L286.541046,755.391602L286.809479,756.371826L287.289490,757.267700L297.773468,772.414429L317.371033,794.714111L375.671936,854.203491L423.218933,903.042480L452.513062,925.492920L453.551971,926.131653L454.699219,926.545288L455.906738,926.716492L457.123749,926.638062L458.299316,926.313171L459.383972,925.755615L460.332245,924.988647L461.104248,924.044556L461.667755,922.962952L461.998962,921.789246L462.084015,920.572632L461.919403,919.364258L461.511963,918.214722L460.878784,917.172363L407.651672,850.229980L374.230133,811.581848L355.204559,782.825684L339.689209,755.565430L365.673462,729.731079L396.224030,696.763489L440.173889,647.104736L475.255310,601.774841L480.446655,588.570984L482.610718,569.621460L482.007965,556.443420L479.715942,549.241455L479.569855,548.909912L479.361816,548.613220L479.099976,548.362854L478.794250,548.168335L478.456451,548.037231L478.099579,547.974548L477.737335,547.982666L477.383636,548.061279L477.052185,548.207397L476.755402,548.415405L476.505005,548.677307L476.310516,548.982971L476.179443,549.320801L476.116730,549.677612L476.124847,550.039856L476.203461,550.393616L478.327515,556.869080L478.920593,569.359253L476.912384,587.461426L472.167755,599.724487L437.340881,644.636047L392.357117,693.150940L361.283051,725.473450L334.660767,753.399536L334.316406,753.838623L334.075592,754.341980L333.949829,754.885620L333.945068,755.443604L334.061676,755.989258L334.293945,756.496704L351.987061,784.792114L370.761963,813.968811L401.371185,855.059326L451.936157,916.546936L431.240662,894.147583L380.479706,849.454041L323.268341,789.557556L305.074768,767.106689L296.373413,754.462891L312.217316,724.825684L338.741058,693.519043L363.945404,662.516052L390.178986,628.170349L423.936188,587.241272L450.030151,559.403748L466.529999,545.397400L473.489777,546.125183z" fill="#000000" stroke="none" fill-opacity="1" />
			</g>
			<g id="layer.head.uuid_0x4">
				<polygon points="675.458618,226.242310 730.979492,264.393982 772.116760,303.922668 769.486450,374.179321 757.359558,434.280273 750.221130,460.492432 727.671997,514.029602 697.204163,543.914734 658.819763,565.246765 637.500977,568.483765 624.283813,571.781982 646.218750,554.662476 658.619385,530.545166 664.153381,504.244629 635.125977,494.694641 613.054626,485.989380 578.938354,468.690247 566.685547,488.243652 562.752625,513.788330 566.549255,537.264465 571.511902,549.558899 535.631104,524.936401 520.334473,509.177063 504.472046,487.425232 490.446045,460.472412 481.729767,435.445312 479.859009,411.969055 464.139038,386.363647 443.698395,355.865479 417.992981,312.036621 407.518127,280.418701 435.198822,251.479370 471.012207,223.375122 510.039917,200.281311 561.009644,182.122009 585.448242,179.879028 636.681274,201.026733 655.413513,213.831543" fill="#C66F35" stroke="none" fill-opacity="1" />
				<path d="M676.924316,224.109375L676.480042,223.864319L675.996521,223.710815L675.492310,223.654480L674.986816,223.697693L674.499451,223.838562L674.048828,224.071960L673.652588,224.388611L673.325623,224.776611L673.080688,225.220947L672.927124,225.704468L672.870850,226.208679L672.913940,226.714111L673.054932,227.201599L673.288269,227.652100L673.604919,228.048279L673.992920,228.375305L727.559937,268.590149L762.326843,307.877930L762.509277,373.350342L752.647156,433.164490L746.164062,459.092590L724.515808,511.884949L694.945068,540.890076L656.472595,558.371155L636.093628,559.214539L628.664673,569.646118L649.217468,558.504761L650.553223,556.891235L662.953979,532.773926L667.111267,504.867004L667.174072,504.135803L667.058838,503.411072L666.772217,502.735413L666.331421,502.148804L665.762085,501.685669L665.097961,501.373413L636.153809,491.850708L614.295410,483.229431L580.305420,465.994385L579.709045,465.767517L579.078369,465.670837L578.441528,465.708740L577.826721,465.879456L577.261475,466.175415L576.770996,466.583374L576.377075,467.085205L564.124268,486.638733L563.698059,487.783752L558.386414,513.116089L560.960571,538.168335L565.797180,542.441345L541.546692,517.925476L527.331360,503.280212L511.761230,482.906250L498.318420,457.074402L489.784668,433.751038L487.997223,411.320496L486.816437,407.697632L471.096497,382.092224L450.616608,351.523804L425.471466,308.650452L416.812378,282.512939L440.696472,257.542725L474.518829,228.502563L512.157776,204.799866L562.706665,189.823120L583.574036,192.282837L633.906311,206.160461L653.045654,217.295593L674.096252,228.442627L674.551697,228.666138L675.041992,228.796631L675.548340,228.828735L676.051270,228.761597L676.531311,228.597595L676.970154,228.343018L677.350952,228.007812L677.658997,227.604675L677.882507,227.149231L678.012817,226.658936L678.045044,226.152588L677.977905,225.649780L677.813843,225.169678L677.559326,224.730835L677.224060,224.349976L676.820984,224.041870L657.703186,210.313843L639.956665,196.235046L590.095764,168.619934L584.335022,167.749451L560.294617,174.330811L508.372864,195.602112L467.855560,218.040649L430.158813,245.056885L401.618408,274.775574L400.324005,276.559143L399.553802,278.624023L399.364014,280.819702L399.768372,282.986023L410.243225,314.604004L436.656250,359.995605L457.266815,390.773743L471.876434,414.570679L473.591583,436.093872L482.369690,463.285217L496.885742,491.373047L512.959473,514.555359L529.081299,531.293884L566.347290,557.085083L568.054810,558.006714L569.918640,558.546570L571.854492,558.680237L573.774841,558.401733L575.592957,557.723572L577.226562,556.676392L578.601990,555.307617L579.656921,553.678955L580.343811,551.864136L580.631531,549.945129L580.507141,548.008667L579.976135,546.142334L572.036865,535.733948L567.225037,513.771423L569.578064,489.320129L580.033691,472.634644L611.687744,488.685242L634.017090,497.506470L660.638367,506.270142L653.984985,528.899780L642.374634,551.480042L621.284973,567.939758L620.551514,568.647461L619.981262,569.492126L619.599060,570.436951L619.421753,571.440613L619.457092,572.459167L619.703430,573.448120L620.150085,574.364258L620.777466,575.167480L621.558167,575.822632L622.458069,576.301086L623.437866,576.581970L624.454529,576.652954L625.463745,576.510986L639.343811,577.686890L659.893127,572.315796L699.021484,547.184814L730.291809,516.700500L731.119812,515.481873L754.167725,462.154785L762.029541,435.552124L776.351379,375.564514L781.745178,304.283203L781.467651,301.599609L780.457153,299.098328L778.792603,296.975159L734.717407,260.503784z" fill="#000000" stroke="none" fill-opacity="1" />
				<polyline points="589.935852,175.562805 587.005554,169.467957 580.523499,159.972839 559.184875,143.673950 513.922913,124.508179 476.716736,116.876953 420.940857,115.986206 390.518768,128.411133 369.110260,147.508972 360.488098,166.656555 358.762268,183.244019 396.740295,125.908936 421.741608,116.743896 467.637451,118.167969 514.851807,128.804443 556.131714,149.362122 579.126770,178.250244" fill="#000000" stroke="none" fill-opacity="1" />
				<path d="M589.935852,175.562805L587.005554,169.467957L580.523499,159.972839L559.184875,143.673950L513.922913,124.508179L476.716736,116.876953L420.940857,115.986206L390.518768,128.411133L369.110260,147.508972L360.488098,166.656555L358.762268,183.244019L396.740295,125.908936L421.741608,116.743896L467.637451,118.167969L514.851807,128.804443L556.131714,149.362122L579.126770,178.250244L556.131714,149.362122L514.851807,128.804443L467.637451,118.167969L421.741608,116.743896L396.740295,125.908936L358.762268,183.244019L360.488098,166.656555L369.110260,147.508972L390.518768,128.411133L420.940857,115.986206L476.716736,116.876953L513.922913,124.508179L559.184875,143.673950L580.523499,159.972839L587.005554,169.467957z" fill="#FEFEFE" stroke="none" fill-opacity="1" />
				<polyline points="780.055664,297.894714 784.416565,300.092224 791.702820,307.250488 804.997437,324.827820 825.456726,352.325195 839.304077,372.517700 859.113342,410.469788 856.396912,435.710510 856.075378,455.594116 846.081177,471.356384 827.726013,481.874451 857.372925,429.674866 857.630188,409.531860 840.629395,377.600220 820.875549,351.285461 799.286072,326.100098 781.170837,312.309143" fill="#000000" stroke="none" fill-opacity="1" />
				<path d="M780.155701,297.696228L780.115051,297.680603L780.072144,297.673096L780.028625,297.674133L779.986084,297.683655L779.946228,297.701233L779.910645,297.726379L779.880554,297.757874L779.857239,297.794678L779.841553,297.835327L779.834045,297.878296L779.835144,297.921814L779.844604,297.964294L779.862244,298.004150L779.887329,298.039795L779.918945,298.069885L779.955688,298.093079L783.853760,300.877747L791.322144,307.585083L804.593140,325.131104L825.045349,352.619141L838.870056,372.778442L858.594421,410.567993L855.894348,435.656372L855.572266,455.443604L845.721375,470.980042L829.078247,480.516968L857.812439,429.924438L857.878357,429.681274L858.135559,409.538269L858.076294,409.294312L841.075500,377.362610L821.279846,350.981995L799.669739,325.771179L781.476990,311.906982L781.392639,311.855042L781.299805,311.820435L781.201904,311.804688L781.102966,311.808350L781.006531,311.831177L780.916443,311.872314L780.836182,311.930420L780.768677,312.002991L780.716675,312.087280L780.682129,312.180237L780.666382,312.277954L780.669983,312.377014L780.692810,312.473389L780.734009,312.563538L780.792053,312.643860L780.864624,312.711243L798.937195,326.469788L820.481140,351.601990L840.201660,377.872253L857.123108,409.654968L856.869202,429.538330L827.286560,481.624756L827.245544,481.717407L827.223938,481.816223L827.222412,481.917480L827.241089,482.016907L827.279175,482.110779L827.335205,482.194946L827.406921,482.266479L827.491516,482.322144L827.585388,482.359985L827.684875,482.378235L827.786072,482.376282L827.884949,482.354309L827.977356,482.312988L846.332520,471.794983L846.508057,471.627075L856.502319,455.864746L856.580811,455.602356L856.901978,435.741699L859.615845,410.523926L859.609924,410.375916L859.561401,410.235901L839.752197,372.283813L825.873535,352.039307L805.402954,324.526123L792.105957,306.945618L785.085632,299.411255z" fill="#FEFEFE" stroke="none" fill-opacity="1" />
			</g>
			<g id="layer.eyes.uuid_0x5">
				<polyline points="518.463379,344.557190 502.630768,323.704102 517.337341,324.494873 546.717102,324.647217 577.108337,329.929749 597.881897,334.690308 617.698181,343.616150 634.793640,363.931580 622.681152,407.382751 614.013062,424.134827 563.551941,405.041992 523.444153,378.314697 503.407501,357.886230 491.844391,341.956848 520.151917,345.708862" fill="#000000" stroke="none" fill-opacity="1" />
				<path d="M518.463379,344.557190L502.630768,323.704102L517.337341,324.494873L546.717102,324.647217L577.108337,329.929749L597.881897,334.690308L617.698181,343.616150L634.793640,363.931580L622.681152,407.382751L614.013062,424.134827L563.551941,405.041992L523.444153,378.314697L503.407501,357.886230L491.844391,341.956848L520.151917,345.708862L491.844391,341.956848L503.407501,357.886230L523.444153,378.314697L563.551941,405.041992L614.013062,424.134827L622.681152,407.382751L634.793640,363.931580L617.698181,343.616150L597.881897,334.690308L577.108337,329.929749L546.717102,324.647217L517.337341,324.494873L502.630768,323.704102z" fill="#FEFEFE" stroke="none" fill-opacity="1" />
				<polyline points="667.107178,410.281494 693.325500,388.415955 705.705200,389.130127 715.820557,392.265991 722.905151,398.929626 729.416077,413.615295 734.944214,429.759766 740.507629,446.851013 743.358826,457.677429 727.806763,465.205994 730.602173,469.946106 736.551819,475.238281 723.197571,474.927673 707.680298,472.005127 685.993408,458.974304 668.631470,443.735413 657.667480,437.213135" fill="#000000" stroke="none" fill-opacity="1" />
				<path d="M667.107178,410.281494L693.325500,388.415955L705.705200,389.130127L715.820557,392.265991L722.905151,398.929626L729.416077,413.615295L734.944214,429.759766L740.507629,446.851013L743.358826,457.677429L727.806763,465.205994L730.602173,469.946106L736.551819,475.238281L723.197571,474.927673L707.680298,472.005127L685.993408,458.974304L668.631470,443.735413L657.667480,437.213135L668.631470,443.735413L685.993408,458.974304L707.680298,472.005127L723.197571,474.927673L736.551819,475.238281L730.602173,469.946106L727.806763,465.205994L743.358826,457.677429L740.507629,446.851013L734.944214,429.759766L729.416077,413.615295L722.905151,398.929626L715.820557,392.265991L705.705200,389.130127L693.325500,388.415955z" fill="#FEFEFE" stroke="none" fill-opacity="1" />
				<polyline points="673.013123,413.993042 683.864380,404.695374 698.502747,406.355225 707.061279,418.722351 714.824463,439.375488 723.589478,462.903320 715.763733,463.553650 699.464722,459.094727 682.465759,447.233704 661.530823,433.660706" fill="#FBBB00" stroke="none" fill-opacity="1" />
				<polyline points="599.138672,414.484985 571.244324,401.147217 534.252075,371.427246 524.587524,350.274048 542.282288,352.812622 569.115906,353.612549 595.794922,353.948914 605.847229,357.729309 622.950195,368.114746 624.601868,384.310486 619.489319,406.106323 615.485474,419.392883" fill="#FBBB00" stroke="none" fill-opacity="1" />
				<polyline points="584.667664,406.794556 586.454712,403.464478 587.145874,401.972900 590.153320,389.819214 589.780090,376.742798 585.943115,369.888184 575.945068,377.360229 571.465698,390.144104 569.634644,398.429993 569.746582,398.730713" fill="#FEFEFE" stroke="none" fill-opacity="1" />
				<path d="M584.471863,406.689514L584.455139,406.729736L584.446533,406.772400L584.446533,406.815979L584.454895,406.858765L584.471497,406.899048L584.495667,406.935242L584.526428,406.966125L584.562561,406.990356L584.602905,407.007141L584.645569,407.015686L584.689148,407.015747L584.731873,407.007385L584.772095,406.990784L584.808411,406.966553L584.839233,406.935852L584.863525,406.899719L588.855896,404.752930L589.618225,403.118591L592.798401,390.473694L590.785889,376.714050L590.658081,376.251343L588.320801,368.557251L587.986084,368.085144L587.559204,367.694336L587.059448,367.402466L586.509338,367.222778L585.933716,367.163269L585.358398,367.226746L584.809570,367.410217L584.311768,367.705505L574.313843,375.177490L573.748169,375.748230L573.373474,376.459045L568.893982,389.243042L566.973938,397.841980L566.916260,398.619019L567.080933,399.380676L569.538330,398.808228L569.557434,398.847412L569.583862,398.882019L569.616516,398.910889L569.654114,398.932861L569.695312,398.946960L569.738464,398.952820L569.782043,398.950073L569.824097,398.939026L569.863220,398.919861L569.897888,398.893433L569.926758,398.860779L569.948730,398.823120L569.962830,398.781921L569.968750,398.738831L569.966003,398.695312L569.954895,398.653198L572.353027,398.240906L574.091370,390.891296L578.242004,379.045532L585.083862,373.932251L588.781250,377.018616L587.418762,389.525391L584.575317,401.068665L584.016968,402.246887z" fill="#FEE398" stroke="none" fill-opacity="1" />
				<polyline points="684.632446,447.120972 686.419434,443.790833 687.110657,442.299255 690.118103,430.145569 690.028809,421.328979 686.191833,414.474487 676.193848,421.946411 671.430542,430.470459 669.883423,437.336487 669.995361,437.637146" fill="#FEFEFE" stroke="none" fill-opacity="1" />
				<path d="M684.436707,447.015869L684.419861,447.056091L684.411377,447.098816L684.411255,447.142395L684.419739,447.185181L684.436340,447.225403L684.460449,447.261719L684.491211,447.292542L684.527405,447.316772L684.567627,447.333557L684.610291,447.342102L684.653870,447.342163L684.696655,447.333740L684.736938,447.317139L684.773132,447.292969L684.804016,447.262268L684.828308,447.226074L688.820557,445.079346L689.583069,443.444946L692.763306,430.800049L691.034973,421.318787L690.906799,420.837524L688.569580,413.143372L688.234863,412.671326L687.807983,412.280518L687.308228,411.988647L686.758118,411.808960L686.182495,411.749512L685.607178,411.812927L685.058289,411.996399L684.560547,412.291687L674.562622,419.763672L673.815125,420.617126L669.051758,429.141174L667.225098,436.737427L667.164673,437.519958L667.329712,438.287170L669.787109,437.714661L669.806213,437.753845L669.832642,437.788452L669.865295,437.817322L669.902893,437.839233L669.944092,437.853394L669.987366,437.859192L670.030762,437.856567L670.072876,437.845398L670.112061,437.826294L670.146667,437.799866L670.175476,437.767212L670.197510,437.729614L670.211548,437.688416L670.217468,437.645203L670.214722,437.601746L670.203674,437.559631L672.602234,437.152954L674.001953,431.454834L678.289673,423.781982L685.332703,418.518372L689.025269,421.596252L687.389771,429.827026L684.540100,441.395081L683.981628,442.573242z" fill="#FEE398" stroke="none" fill-opacity="1" />
			</g>
		</g>
	</g>
</svg>
