<?xml version="1.0" encoding="UTF-8"?>
<!-- Generator: Blender, SVG Export for Grease Pencil - v2.0 -->
<!DOCTYPE svg PUBLIC "-//W3C//DTD SVG 1.1//EN" "http://www.w3.org/Graphics/SVG/1.1/DTD/svg11.dtd">
<svg version="1.1" x="0px" y="0px" xmlns="http://www.w3.org/2000/svg" width="1920.000000px" height="1080.000000px" viewBox="0 0 1920.000000 1080.000000">
	<g id="blender_frame.3">
		<g id="blender_object.Stroke.3.uuid_0x0">
			<g id="layer.Layer.uuid_0x1">
				<polyline points="687.501465,565.299805 677.389648,554.665344 862.252441,209.532837 986.907532,127.277771 1029.307373,126.429688 1412.636719,318.094849 1440.770874,397.222656 1451.321289,650.431641 1284.274048,849.130249 1208.663330,884.298218 1031.065796,882.539795 922.045410,877.264648" fill="#000000" stroke="none" fill-opacity="1" />
				<path d="M687.501465,565.299805L677.389648,554.665344L862.252441,209.532837L986.907532,127.277771L1029.307373,126.429688L1412.636719,318.094849L1440.770874,397.222656L1451.321289,650.431641L1284.274048,849.130249L1208.663330,884.298218L1031.065796,882.539795L922.045410,877.264648L1031.065796,882.539795L1208.663330,884.298218L1284.274048,849.130249L1451.321289,650.431641L1440.770874,397.222656L1412.636719,318.094849L1029.307373,126.429688L986.907532,127.277771L862.252441,209.532837L677.389648,554.665344z" fill="#FEFEFE" stroke="none" fill-opacity="1" />
			</g>
			<g id="layer.body.001.uuid_0x2">
				<polyline points="493.937195,851.864258 710.409912,902.853394 723.513855,920.030273 727.442322,936.398193 722.372498,965.205811 620.203735,956.108093 519.197510,917.567749" fill="#C66F35" stroke="none" fill-opacity="1" />
				<path d="M495.272156,846.197083L494.140778,846.045532L493.001740,846.117615L491.898529,846.410522L490.873810,846.913086L489.966675,847.605835L489.212250,848.462280L488.639374,849.449463L488.269928,850.529419L488.118408,851.660706L488.190521,852.799805L488.483490,853.902893L488.985992,854.927673L489.678833,855.834778L490.535187,856.589233L491.522369,857.162170L492.602325,857.531494L707.211792,907.786072L718.404907,922.458130L721.792358,936.571533L717.802490,959.242432L621.635498,949.899658L521.387451,911.828430L520.225647,911.511475L519.024353,911.427307L517.829834,911.579102L516.687683,911.960938L515.642029,912.558350L514.733154,913.348206L513.995667,914.300293L513.458191,915.377869L513.141296,916.539673L513.057007,917.740967L513.208801,918.935547L513.590698,920.077576L514.188049,921.123230L514.977966,922.032166L515.929993,922.769592L517.007690,923.307129L617.953979,962.004395L721.881653,970.718445L723.053650,970.698120L724.195129,970.431519L725.254883,969.930420L726.185303,969.217407L726.944641,968.324402L727.498962,967.291504L727.823242,966.165039L732.893066,937.357422L732.823975,935.106506L728.895447,918.738586L727.914062,916.673401L714.810120,899.496582L713.420715,898.209534L711.678711,897.466309z" fill="#000000" stroke="none" fill-opacity="1" />
				<polyline points="369.953125,737.986938 547.051941,890.838135 547.007080,905.731934 535.220581,915.122925 502.963593,924.841614 410.823822,871.315552 345.174286,796.161865" fill="#C66F35" stroke="none" fill-opacity="1" />
				<path d="M369.953125,737.986938L541.116577,893.544922L540.735535,902.698364L532.083191,909.135986L503.879456,917.037109L415.180420,866.031860L349.918365,792.017822L349.018738,791.171875L347.971405,790.517700L346.816528,790.080444L345.598511,789.876953L344.364227,789.914978L343.161102,790.193054L342.035339,790.700439L341.030151,791.417725L340.184265,792.317444L339.530121,793.364746L339.092834,794.519653L338.889343,795.737671L338.927338,796.971924L339.205414,798.175110L339.712891,799.300903L340.430176,800.306030L405.734863,875.760864L499.342682,931.074707L501.157135,931.820129L503.105377,932.048767L505.043091,931.743652L537.135437,921.478271L539.356812,920.314148L550.920837,910.643982L552.191833,909.276611L553.004700,907.596069L553.287720,905.750793L552.978943,890.855957L552.741150,889.175964L552.037109,887.632202L550.924500,886.351135z" fill="#000000" stroke="none" fill-opacity="1" />
				<polyline points="301.503326,595.204041 399.567657,792.293823 390.483673,805.830444 373.997559,812.999268 338.649475,815.091797 283.344757,739.004333 262.699738,643.528320 259.556061,592.352661" fill="#C66F35" stroke="none" fill-opacity="1" />
				<path d="M303.685699,594.118164L303.431915,593.713318L303.104095,593.365723L302.714600,593.088745L302.278748,592.893066L301.812988,592.786255L301.335297,592.772339L300.864197,592.851807L300.417542,593.021729L300.012634,593.275513L299.665070,593.603394L299.388153,593.992737L299.192505,594.428711L299.085602,594.894409L299.071655,595.372070L299.151123,595.843262L299.321075,596.289917L396.787659,792.113831L387.627594,802.404663L372.604950,807.173889L342.440582,807.071777L290.808777,735.664490L268.908173,642.671387L265.637054,591.979065L265.447296,590.799927L265.031189,589.680420L264.404694,588.663574L263.591827,587.788574L262.623871,587.088989L261.538055,586.591553L260.376038,586.315613L259.182526,586.271606L258.003326,586.461365L256.883850,586.877441L255.867065,587.503967L254.991989,588.316895L254.292343,589.284790L253.794998,590.370667L253.519073,591.532654L253.475021,592.726196L256.462280,643.911438L275.524292,740.695312L276.872620,743.708618L332.354736,819.667175L333.684479,821.084045L335.323822,822.127319L337.170502,822.731812L339.109406,822.860107L374.346100,818.886414L392.190674,809.755859L393.224762,809.118225L394.038116,808.215698L401.567810,793.636108L401.848114,793.069458L401.971375,792.449524L401.929169,791.818848L401.724182,791.220825z" fill="#000000" stroke="none" fill-opacity="1" />
				<polyline points="304.380066,347.139282 304.413513,594.633423 294.965576,604.612732 281.947632,604.517029 252.826080,588.296021 236.914215,480.225769 258.131134,368.600952" fill="#C66F35" stroke="none" fill-opacity="1" />
				<path d="M310.493713,347.138489L310.376068,345.945801L310.027924,344.798950L309.462830,343.742004L308.702484,342.815735L307.775848,342.055542L306.718903,341.490723L305.571899,341.143005L304.379181,341.025635L303.186462,341.143311L302.039612,341.491394L300.982758,342.056458L300.056458,342.816895L299.296234,343.743347L298.731476,344.800476L298.383698,345.947388L298.266388,347.140137L302.366638,593.818359L293.495789,601.162292L283.307190,599.359985L259.296631,583.827515L245.736053,480.409485L264.750977,369.859314L264.869202,368.543579L264.728638,367.230164L264.334412,365.969421L263.701843,364.809814L262.855164,363.795837L261.827026,362.966553L260.656769,362.353821L259.389435,361.981140L258.073822,361.862854L256.760376,362.003540L255.499634,362.397705L254.339966,363.030334L253.326004,363.877014L252.496765,364.905151L251.883987,366.075439L251.511368,367.342712L228.366211,478.601013L245.848846,589.323364L246.480789,591.374146L247.700272,593.139893L249.394287,594.457214L279.433289,609.030884L281.909637,609.683838L294.940277,608.052124L295.869812,607.931274L296.732178,607.563965L297.463287,606.977478L305.899902,596.040649L306.204498,595.624268L306.395355,595.144958L306.460358,594.633179z" fill="#000000" stroke="none" fill-opacity="1" />
				<polyline points="420.998413,324.595825 444.777893,427.765808 691.336182,676.995483 946.048279,628.456726 1037.005371,485.709351 1079.707397,419.338806 1093.871582,435.677246 1109.025879,462.365173 1128.793091,501.891968 1160.590210,549.733276 1188.467041,613.001526 1192.522095,685.219788 1175.928833,746.307007 1159.582642,813.996216 1104.061157,892.982178 1041.439575,939.435913 979.231445,964.479858 904.853577,979.027039 786.103699,989.584961 654.789307,964.941162 571.184021,924.384155 452.775024,842.498535 378.860352,775.045959 311.975067,663.687134 291.473907,562.462280 282.797424,469.629028 291.052399,381.804199 319.431824,302.587891 378.187012,314.588806" fill="#6C1828" stroke="none" fill-opacity="1" />
				<path d="M429.448120,322.648315L428.905792,321.037292L428.059631,319.563049L426.942017,318.282104L425.596161,317.243958L424.073517,316.488281L422.432709,316.044067L420.736755,315.928589L419.050873,316.146118L417.439880,316.688538L415.965546,317.534607L414.684723,318.652161L413.646515,319.998169L412.890839,321.520752L412.446716,323.161499L412.331207,324.857483L412.548798,326.543396L435.380890,429.931702L437.922363,434.547852L685.369141,682.898621L686.977478,684.168701L688.845703,685.011108L690.862549,685.375732L692.907471,685.240723L947.619324,636.700745L949.774292,635.976624L951.655884,634.700684L953.125916,632.966553L1044.073242,490.234802L1080.704102,433.300354L1086.984863,440.545349L1095.104980,469.791809L1106.782837,512.899231L1138.923462,561.592590L1164.146851,618.838623L1167.728027,682.617554L1159.054688,741.723450L1150.264526,809.781006L1099.876587,888.903320L1038.733521,934.603760L977.664490,959.189087L904.312012,975.209167L786.193970,987.721436L656.668640,959.243164L572.688416,921.806824L454.857056,839.883301L382.004486,772.472168L316.568451,661.903687L296.363800,561.740723L287.973785,469.630432L295.367920,382.764099L321.312195,305.928711L377.727020,316.841003L378.175201,316.887512L378.623871,316.845581L379.055725,316.716980L379.454254,316.506653L379.804047,316.222595L380.091705,315.875671L380.306091,315.479370L380.439148,315.048828L380.485596,314.600586L380.443787,314.151978L380.315155,313.720093L380.104797,313.321594L379.820709,312.971802L379.473846,312.684143L379.077515,312.469666L378.646973,312.336670L320.011536,299.749512L319.325928,299.692871L318.646240,299.799500L318.010864,300.063293L317.455658,300.469604L317.011871,300.995300L316.704529,301.610840L286.922852,380.324768L277.666168,469.146790L286.559418,562.921631L307.215729,664.651062L375.413696,777.116089L450.526733,844.962219L569.491638,926.831299L652.193726,970.291748L785.762756,991.401611L905.194641,982.862793L980.285889,969.870911L1043.490967,944.531616L1107.498169,897.615479L1167.802246,819.774048L1169.349121,816.354736L1192.867676,750.651978L1216.270752,691.670654L1213.037476,611.621948L1183.110229,539.810608L1150.126221,489.530884L1123.132812,455.310303L1101.169556,431.533264L1086.048828,413.841431L1084.788940,412.659668L1083.313965,411.760864L1081.686035,411.183044L1079.974609,410.950623L1078.251709,411.073608L1076.590454,411.546753L1075.061157,412.349915L1073.728882,413.449219L1072.649658,414.797852L1029.947632,481.168518L940.917786,620.890991L694.158081,667.913086L453.559662,422.930969z" fill="#000000" stroke="none" fill-opacity="1" />
				<polyline points="830.623291,441.233154 825.896179,418.021973 827.919861,407.200623 841.953247,398.504456 883.462708,377.627136 960.888367,362.014404 1018.471619,370.179871 1061.627930,413.377441 1066.488037,442.069458 1068.183472,456.510071" fill="#C66F35" stroke="none" fill-opacity="1" />
				<path d="M822.889221,442.808228L823.345154,444.286865L824.080750,445.648071L825.067749,446.839600L826.268250,447.815796L827.636169,448.538879L829.118835,448.981323L830.659363,449.125854L832.198425,448.967224L833.677063,448.511292L835.038269,447.775757L836.229797,446.788696L837.205994,445.588135L837.929138,444.220276L838.371521,442.737549L838.516113,441.197083L838.357483,439.657959L833.276184,417.962830L834.146423,411.464600L845.116943,404.155212L885.273315,382.870605L961.032654,366.982361L1016.307007,374.512146L1059.232178,414.613647L1063.744019,442.462646L1065.074097,456.875122L1065.205200,457.474670L1065.450562,458.037170L1065.800903,458.541016L1066.243042,458.966736L1066.759521,459.298096L1067.330811,459.522278L1067.934937,459.630798L1068.548462,459.619324L1069.148071,459.488403L1069.710571,459.242920L1070.214355,458.892517L1070.640259,458.450500L1070.971558,457.933960L1071.195801,457.362610L1071.304199,456.758606L1071.292725,456.145020L1069.240234,441.746399L1064.160156,412.948486L1063.910400,412.199707L1063.444946,411.562195L1021.721069,366.933533L1020.524719,366.070923L1019.116516,365.632080L961.576050,357.164368L882.375916,372.237610L839.046204,392.724487L824.283020,401.331848L822.816528,402.550476L821.739136,404.123596L821.133179,405.931519L818.776245,416.690491L818.798523,419.467529z" fill="#000000" stroke="none" fill-opacity="1" />
				<polyline points="822.136841,487.978088 815.573364,462.775146 817.593262,450.674561 828.904602,438.401855 866.566345,414.659241 932.629578,403.137573 998.807129,414.484558 1057.001465,450.725464 1068.256226,477.316467 1072.093262,491.024353 1077.571167,515.941284 1077.641724,527.908936 1065.453369,529.336426" fill="#C66F35" stroke="none" fill-opacity="1" />
				<path d="M813.232910,490.296875L813.856445,491.989441L814.798035,493.527832L816.021790,494.852844L817.480469,495.913757L819.118103,496.669739L820.871765,497.091675L822.674011,497.163330L824.455627,496.882019L826.148193,496.258606L827.686523,495.316895L829.011658,494.093201L830.072510,492.634521L830.828491,490.996826L831.250366,489.243225L831.322144,487.440857L831.040771,485.659302L824.508667,462.375610L825.444458,454.515930L833.960083,444.473633L868.956055,420.865051L932.637207,408.435303L997.101257,418.970032L1054.364624,452.978455L1064.762817,478.539001L1068.221313,491.991028L1073.306519,516.417236L1073.353149,524.115845L1064.928833,524.857788L1064.065063,525.046204L1063.254883,525.399475L1062.528931,525.903992L1061.915527,526.540466L1061.437988,527.284424L1061.114868,528.107178L1060.958374,528.977173L1060.974609,529.861023L1061.163086,530.724731L1061.516479,531.535034L1062.020996,532.260864L1062.657349,532.874329L1063.401367,533.351868L1064.224121,533.674988L1065.094116,533.831482L1065.978027,533.815186L1078.138062,532.146118L1079.144409,531.901672L1080.062256,531.421997L1080.837402,530.735229L1081.424072,529.881958L1081.788208,528.912476L1081.907837,527.883789L1081.838501,515.916138L1075.989258,490.167786L1071.812866,476.320801L1060.046265,449.436584L1059.515015,448.577454L1058.749268,447.918701L1001.296570,410.487061L999.602966,409.843018L933.511780,397.992432L865.445435,408.232178L863.087097,409.140259L824.727783,431.776245L811.433777,444.997559L810.069031,446.993225L809.330933,449.295410L806.945190,461.334961L807.108154,464.979736z" fill="#000000" stroke="none" fill-opacity="1" />
				<polyline points="818.994751,541.690796 813.523743,522.909058 813.512756,513.555115 819.488220,499.944397 843.411438,474.324036 902.813171,463.848877 973.327698,474.456177 1044.376709,504.303833 1065.748657,525.126648 1072.352295,536.522644 1077.408691,558.392212 1075.438354,568.719971 1048.892456,595.375000 1009.902710,622.746216 983.873474,626.762939" fill="#C66F35" stroke="none" fill-opacity="1" />
				<path d="M810.198303,544.253174L810.867188,545.920044L811.848450,547.424377L813.104309,548.708374L814.586548,549.722717L816.238220,550.428345L817.995789,550.798218L819.791809,550.818115L821.557129,550.487305L823.223938,549.818359L824.728271,548.837097L826.012329,547.581238L827.026611,546.098999L827.732239,544.447327L828.102234,542.689758L828.122070,540.893799L827.791199,539.128418L823.131592,521.532471L823.034058,515.547302L827.487671,505.213135L847.679138,482.190186L902.894897,470.329529L971.885986,479.595276L1041.625244,508.457520L1062.169556,527.914856L1068.327271,538.112671L1073.432983,558.469177L1071.962646,566.884277L1046.174072,592.145996L1007.959106,617.916199L983.050903,621.432617L982.026917,621.695557L981.073669,622.153137L980.228210,622.787964L979.522827,623.575439L978.984619,624.485474L978.634155,625.483032L978.485168,626.529785L978.543152,627.585449L978.806030,628.609497L979.263672,629.562622L979.898499,630.408081L980.685974,631.113525L981.596008,631.651794L982.593567,632.002197L983.640259,632.151184L984.695984,632.093140L1010.676025,627.756836L1012.815857,626.895752L1051.308228,598.816345L1078.101196,571.371948L1078.761353,570.475220L1079.129883,569.424316L1081.230591,559.121399L1081.199585,557.515747L1076.522217,535.558533L1069.637573,522.873169L1047.792725,500.797668L1046.272705,499.790771L975.379028,469.573364L903.764648,457.523682L841.937378,465.965210L839.363892,466.863464L837.207764,468.531250L812.586609,493.499878L804.605957,509.644775L803.785339,513.566528L803.817749,522.920410z" fill="#000000" stroke="none" fill-opacity="1" />
				<polyline points="749.102173,627.068726 745.002869,610.352051 747.831970,602.568054 755.392700,591.277710 780.467468,562.937378 831.714661,538.327637 889.287170,546.765747 947.396667,575.111084 963.492737,595.360352 969.167725,605.930420 981.853943,628.294067 983.005920,641.867065 955.197510,679.647400 923.517212,715.951904 914.804443,717.817444" fill="#C66F35" stroke="none" fill-opacity="1" />
				<path d="M741.606873,628.906738L742.109375,630.333740L742.880676,631.635132L743.891113,632.761230L745.101807,633.668396L746.466248,634.322021L747.931946,634.696899L749.442566,634.778625L750.940125,634.564087L752.367065,634.061462L753.668579,633.290161L754.794556,632.279785L755.701782,631.069092L756.355408,629.704712L756.730347,628.239014L756.812012,626.728333L756.597412,625.230713L753.672119,610.821167L756.005615,606.713135L763.084229,597.212708L786.763977,571.270508L833.072510,547.245972L887.453796,552.699341L943.995056,579.347717L958.933716,598.361450L964.336914,608.524109L976.553406,629.935669L977.510498,640.316956L951.015991,676.293457L920.655396,711.091187L913.676575,712.549805L912.670593,712.871094L911.746521,713.382446L910.940125,714.064209L910.282104,714.890198L909.797913,715.828735L909.506104,716.843689L909.418030,717.895996L909.536804,718.945374L909.858093,719.951416L910.369446,720.875366L911.051208,721.681824L911.877258,722.339783L912.815796,722.823975L913.830688,723.115723L914.883057,723.203918L915.932373,723.085083L924.637878,721.185303L926.232727,720.563965L927.549866,719.470825L959.232910,683.168823L987.310303,645.035278L988.149902,643.317993L988.331421,641.415039L987.254883,627.835632L986.568604,625.619568L973.968262,603.280640L968.282166,592.788940L951.544922,571.813660L949.719849,570.348389L891.977600,541.250244L832.965698,529.791626L830.416199,529.798706L827.980042,530.550659L776.035645,553.708679L772.800049,556.153503L748.133118,584.854614L740.217041,597.468628L736.843140,607.386414L736.333679,609.882935L736.570801,612.419739z" fill="#000000" stroke="none" fill-opacity="1" />
				<polyline points="679.687500,627.904968 693.105469,620.315674 702.216309,619.386475 720.971497,622.378418 769.066406,626.922119 829.956421,639.687256 871.290222,681.714722 893.039917,718.366699 887.289307,737.057434 866.471619,739.091675 818.243042,728.301392 784.600037,722.023621 742.155457,714.527405 661.010376,687.931030 658.337402,685.198242" fill="#C66F35" stroke="none" fill-opacity="1" />
				<path d="M676.158325,621.665527L675.008911,622.473938L674.039246,623.490967L673.286682,624.677734L672.780090,625.988464L672.538940,627.372803L672.572510,628.777710L672.879395,630.148987L673.448059,631.434082L674.256348,632.583496L675.273499,633.553101L676.460144,634.305786L677.770935,634.812378L679.155334,635.053528L680.560181,635.020020L681.931458,634.713013L683.216492,634.144409L695.560913,628.029053L701.983765,627.608887L719.683228,630.453613L767.960754,634.217041L827.026917,645.047302L866.035339,685.762146L886.991882,719.087036L883.678528,732.636353L866.763489,734.339844L819.307129,723.545105L785.480591,717.304199L743.271851,710.076782L662.892334,684.906250L660.787231,682.802002L660.272705,682.370117L659.683777,682.046875L659.043152,681.844788L658.375305,681.771484L657.706116,681.829956L657.061157,682.017883L656.465149,682.328003L655.941223,682.748352L655.509338,683.262939L655.186096,683.851868L654.983948,684.492493L654.910645,685.160278L654.969177,685.829529L655.157104,686.474487L655.467102,687.070435L655.887573,687.594421L658.536377,690.350708L659.932495,691.219421L740.729858,718.876709L783.742126,726.747314L817.263672,733.076660L865.445190,743.679077L887.751404,741.786133L888.839600,741.548584L889.842712,741.064209L890.705444,740.359558L891.380432,739.473511L891.830505,738.454590L898.362549,720.004272L898.607605,718.480652L898.425049,716.948242L897.828979,715.524780L876.952820,678.354492L834.125183,635.587280L832.760620,634.556396L831.156189,633.964478L770.577881,619.712341L722.001221,614.262024L703.501282,611.331909L692.301636,612.433838L689.204956,613.419556z" fill="#000000" stroke="none" fill-opacity="1" />
				<polyline points="605.508362,544.320251 622.449646,552.829895 629.400574,557.365723 636.234924,562.429626 650.884888,575.230957 695.961792,625.515625 674.795532,657.925903 671.195007,683.419434 661.442200,692.768921 644.426941,681.274414 602.016357,643.336304 575.635254,617.298035 538.276062,579.571289 467.792877,506.731873 466.266663,503.068604" fill="#C66F35" stroke="none" fill-opacity="1" />
				<path d="M609.078674,537.212280L607.623474,536.652283L606.086853,536.386963L604.528076,536.426575L603.006897,536.769470L601.581848,537.402588L600.307678,538.301575L599.233459,539.431763L598.400330,540.749878L597.840393,542.205200L597.575134,543.741760L597.614685,545.300598L597.957703,546.821777L598.590759,548.246765L599.489685,549.520874L600.619873,550.595154L601.938049,551.428223L618.264832,560.107971L624.511414,564.392090L630.806824,569.170654L644.727966,581.466431L686.247742,626.256836L670.399719,655.055115L669.596863,657.191711L667.414368,681.482788L661.090088,688.640747L646.189941,679.011841L603.945801,641.282959L577.871826,615.057800L541.270447,576.640137L472.894287,503.376038L471.963257,500.695374L471.390778,499.629700L470.621429,498.696045L469.684753,497.930542L468.616669,497.362427L467.458252,497.013611L466.254089,496.897522L465.050385,497.018494L463.893524,497.372009L462.827728,497.944519L461.894196,498.713867L461.128571,499.650574L460.560547,500.718689L460.211670,501.877075L460.095551,503.081238L460.216583,504.284973L460.570160,505.441895L462.156189,509.080200L463.404694,510.978149L535.264893,582.484985L573.385986,619.525391L600.037659,645.340942L642.519043,683.407227L659.637634,695.440186L660.283264,695.776978L660.988037,695.960449L661.716187,695.980896L662.430115,695.837402L663.093689,695.537354L663.672974,695.095947L673.973083,686.317383L674.767883,685.249756L675.169983,683.980835L679.830627,659.817810L702.432190,629.741272L703.193665,628.240173L703.611938,626.609863L703.667419,624.927673L703.357422,623.273315L702.696472,621.725342L701.716248,620.357178L657.397705,569.392578L641.929871,555.912292L634.496582,550.487976L627.037659,545.799072z" fill="#000000" stroke="none" fill-opacity="1" />
				<polyline points="514.012390,320.802002 531.614197,347.163757 538.690186,361.968872 545.150391,377.933289 559.795410,418.460449 602.156555,542.819092 546.961853,536.005249 504.062012,534.951050 480.243744,535.167725 465.182648,526.246460 432.192993,500.200623 413.977234,468.716064 366.094482,364.729004 399.412079,303.399597 402.397491,302.726929" fill="#C66F35" stroke="none" fill-opacity="1" />
				<path d="M519.631592,317.050049L518.728699,315.963684L517.619690,315.088928L516.353088,314.463684L514.984131,314.115601L513.572632,314.059631L512.180420,314.298401L510.868225,314.821411L509.693512,315.605713L508.707489,316.617249L507.953461,317.811646L507.464081,319.136658L507.260956,320.534546L507.352844,321.944092L507.735779,323.303711L508.393097,324.553955L525.056396,350.894897L531.439453,365.165100L537.342407,380.922546L551.072754,421.521790L590.147583,533.054871L547.751099,529.613281L504.207794,529.015381L481.811249,529.341675L468.563751,521.320679L436.724792,496.277710L418.896667,466.167358L371.455139,364.906250L402.645782,307.676453L403.578003,307.965515L404.577301,307.634521L405.492828,307.114990L406.289520,306.426758L406.936493,305.596436L407.409149,304.655762L407.689148,303.640991L407.765808,302.591064L407.636139,301.546387L407.305176,300.547058L406.785614,299.631531L406.097443,298.834900L405.267029,298.187866L404.326477,297.715210L403.311584,297.435242L402.261719,297.358582L401.216980,297.488220L398.233398,298.169006L396.815796,298.708374L395.605957,299.623169L394.700653,300.840088L361.881012,362.440002L361.467163,363.471436L361.301971,364.570496L361.394226,365.678040L361.738922,366.734619L408.950104,471.030945L427.097351,503.148743L428.544891,504.821167L461.488678,530.925293L477.281830,540.167969L480.296631,540.979126L504.016083,540.889160L546.487183,542.435974L601.149414,550.976379L602.992065,550.995728L604.792542,550.604126L606.460632,549.821228L607.912292,548.686401L609.074829,547.256714L609.889526,545.603943L610.315552,543.811279L610.331604,541.968689L609.936768,540.168884L568.545593,415.479797L553.012024,375.092407L546.032227,358.997803L538.404236,343.918457z" fill="#000000" stroke="none" fill-opacity="1" />
			</g>
			<g id="layer.head.uuid_0x3">
				<polygon points="287.897858,175.737000 221.747528,199.296936 162.470917,227.610474 136.724854,302.162476 123.340698,363.208008 120.572830,398.855286 125.860344,456.330139 155.297699,492.763184 196.705231,522.339294 219.847626,530.500916 234.328934,537.332031 210.870422,513.754944 200.818695,486.000610 203.700089,459.207275 239.874100,458.489258 266.103577,456.883911 306.610748,452.042175 309.824554,472.991089 304.867340,497.350891 296.020599,518.515869 289.825958,529.272034 330.616547,516.476807 351.588074,506.591431 375.863281,490.969421 401.030090,469.654053 418.808319,447.903320 429.046143,425.152039 454.886902,401.837585 484.596252,372.634338 520.609131,330.827942 539.605530,297.842407 520.463745,267.243225 496.345703,236.165649 469.198151,209.592102 426.638672,179.788391 403.018280,168.572815 339.542114,166.871033 313.720032,171.304016" fill="#C66F35" stroke="none" fill-opacity="1" />
				<path d="M288.766266,178.174988L289.225159,177.958801L289.633057,177.657104L289.974335,177.281677L290.235840,176.846924L290.407379,176.369568L290.482635,175.867798L290.458405,175.360962L290.335876,174.868774L290.119629,174.409790L289.817993,174.001770L289.442596,173.660583L289.007751,173.399109L288.530457,173.227478L288.028625,173.152283L287.521881,173.176514L287.029541,173.299072L219.937408,194.214661L158.318192,218.916260L156.191696,220.302429L154.501007,222.195984L153.363647,224.465332L130.105194,299.876526L118.612976,362.171448L116.303268,398.523804L122.134956,456.672913L122.394043,457.737488L122.950340,458.681396L152.387680,495.114441L192.549408,528.157593L216.279358,539.184021L232.249542,541.740173L233.164841,542.064941L234.126419,542.201782L235.095978,542.145203L236.035141,541.897583L236.906418,541.468567L237.675476,540.875366L238.311584,540.141479L238.789612,539.295959L239.090469,538.372498L239.202164,537.407776L239.120468,536.439941L238.848495,535.507629L238.396957,534.647644L237.783966,533.894348L215.085968,511.081543L205.785309,485.400879L206.420792,462.176514L239.934067,461.511292L266.288239,459.900879L304.066345,455.390442L306.755157,472.916565L300.624542,496.046143L290.935425,516.001404L281.916107,524.716675L281.118317,526.534607L280.732452,528.482117L280.776642,530.466919L281.249146,532.395203L282.127228,534.175781L283.369629,535.724365L284.917450,536.967712L286.697418,537.846985L288.625427,538.320557L290.610291,538.366089L292.557953,537.981445L333.348480,525.186218L355.479980,514.847961L380.491333,498.161072L406.557312,476.180054L425.129425,453.069946L435.787689,430.065369L460.355804,407.899048L490.319244,378.456543L526.794556,336.156189L546.680115,301.916687L547.511353,299.879089L547.768127,297.693481L547.431824,295.518616L546.526794,293.512634L527.385010,262.913574L501.242493,232.365295L472.672791,206.042358L431.126678,173.379517L408.242889,157.569702L403.344696,156.396545L339.697723,161.068970L313.010101,167.168457L287.460022,173.186279L286.970856,173.320740L286.517242,173.548035L286.116730,173.859497L285.784668,174.243042L285.533752,174.684021L285.373779,175.165527L285.310822,175.668884L285.347198,176.174866L285.481567,176.664124L285.708893,177.117676L286.020355,177.518250L286.403870,177.850220L286.844818,178.101196L287.326355,178.261047L287.829712,178.324158L288.335785,178.287720L314.430023,175.439636L339.959473,172.688599L400.118866,180.679993L422.689056,186.574158L466.014801,213.427063L491.707855,240.299622L513.761230,271.922729L530.084351,298.016174L513.919678,326.084595L478.631805,367.049500L449.288361,395.893005L423.577271,419.090576L421.601196,421.802002L411.805450,443.570801L394.904602,463.634766L370.763794,484.081238L347.153229,498.590820L327.289062,507.954224L296.945801,523.560059L300.926544,521.341309L308.943268,499.054626L312.786469,473.593811L309.598450,451.583740L309.426758,450.943848L309.119812,450.356628L308.692230,449.850464L308.164734,449.449524L307.562500,449.173279L306.914520,449.034790L306.251953,449.040833L265.831665,453.872192L239.751663,455.468384L203.640121,456.185242L202.921646,456.286621L202.247986,456.556274L201.658112,456.978699L201.185822,457.529602L200.858459,458.177124L200.694794,458.884094L195.972748,485.479492L196.236023,487.660278L206.287750,515.414551L207.415390,517.192627L230.346161,534.522644L223.847519,522.021545L200.037628,515.932800L157.887207,490.015259L129.482056,454.859741L124.870544,398.824646L128.140228,363.916992L143.478058,304.062012L170.262161,234.566833L223.820740,204.285400z" fill="#000000" stroke="none" fill-opacity="1" />
				<polyline points="403.282623,157.749268 406.658356,146.850037 412.180054,131.190796 425.946381,107.769531 452.491943,78.530884 472.266510,67.750122 506.437439,63.461182 523.977478,82.623657 537.281128,113.220215 545.418335,140.820679 539.997009,168.117310 518.571167,79.447571 504.743256,65.151733 476.470856,69.617065 451.188843,85.916443 426.806396,118.152405 407.822327,164.748413" fill="#000000" stroke="none" fill-opacity="1" />
				<path d="M403.070343,157.683594L403.061584,157.726196L403.061310,157.769775L403.069550,157.812622L403.086029,157.852905L403.109985,157.889221L403.140594,157.920227L403.176727,157.944702L403.216827,157.961609L403.259583,157.970337L403.303101,157.970581L403.345856,157.962341L403.386261,157.945862L403.422577,157.921936L403.453583,157.891235L403.477966,157.855225L403.494934,157.815063L406.869385,146.919922L412.382507,131.284851L426.126312,107.901917L452.631226,78.708069L472.335938,67.965393L506.351044,63.696045L523.788391,82.746277L537.071777,113.296204L545.189636,140.830994L539.975830,167.083496L518.787109,79.395447L518.730896,79.293091L504.903046,64.997253L504.861816,64.963806L504.813751,64.940979L504.761688,64.930298L504.708588,64.932251L476.436249,69.397522L476.350403,69.430359L451.068390,85.729614L426.629181,118.018372L407.616486,164.664612L407.604156,164.706299L407.600128,164.749695L407.604614,164.793091L407.617523,164.834656L407.638275,164.872925L407.666107,164.906494L407.699951,164.933960L407.738495,164.954163L407.780273,164.966675L407.823578,164.970642L407.866882,164.966125L407.908508,164.953247L407.946777,164.932373L407.980377,164.904602L408.007782,164.870850L408.028107,164.832214L427.001190,118.263245L451.342346,86.081848L476.551910,69.829224L504.663849,65.389282L518.369385,79.558594L539.781067,168.169556L539.796509,168.213074L539.820679,168.252502L539.852478,168.286133L539.890442,168.312317L539.933044,168.330078L539.978516,168.338745L540.024719,168.337830L540.069641,168.327393L540.111572,168.307800L540.148499,168.280090L540.178833,168.245178L540.201416,168.204834L540.215027,168.160706L545.636169,140.863953L545.631409,140.757874L537.494202,113.157349L524.181152,82.535095L506.601349,63.311096L506.561279,63.276611L506.514130,63.252625L506.462646,63.240417L506.409760,63.240662L472.238892,67.529602L472.160156,67.554932L452.385559,78.335754L425.781830,107.620178L411.988495,131.078186L406.448761,146.776062z" fill="#FEFEFE" stroke="none" fill-opacity="1" />
				<polyline points="165.110153,219.393250 160.737930,207.610229 153.605972,189.839600 137.252884,161.976379 111.668007,139.335388 95.825500,137.863403 70.232681,155.248230 56.077709,188.312012 39.500710,235.341553 28.793962,275.270081 40.848083,308.801392 61.876083,181.060791 72.120438,155.630249 98.887711,143.137085 114.768669,145.695312 138.206696,172.996399 160.034927,226.638916" fill="#000000" stroke="none" fill-opacity="1" />
				<path d="M164.901810,219.470642L164.920853,219.509827L164.947296,219.544373L164.979858,219.573303L165.017456,219.595276L165.058762,219.609436L165.101852,219.615356L165.145340,219.612732L165.187454,219.601624L165.226593,219.582520L165.261322,219.556152L165.290222,219.523499L165.312134,219.485962L165.326324,219.444763L165.332169,219.401611L165.329590,219.358093L165.318436,219.316040L160.946213,207.532898L153.812195,189.756836L137.444458,161.863892L111.815239,139.169067L111.756302,139.131409L111.688553,139.114197L95.846092,137.642151L95.770111,137.648254L95.700592,137.679565L70.107872,155.064514L70.061249,155.106995L70.028397,155.160828L55.873432,188.224548L39.291172,235.267639L28.579273,275.212463L28.571835,275.279236L28.584822,275.345276L40.638885,308.876587L40.658340,308.917175L40.685406,308.952881L40.719395,308.982544L40.758362,309.004761L40.801163,309.018616L40.845791,309.023682L40.890598,309.019592L40.933628,309.006531L40.973106,308.985168L41.007557,308.956238L41.035477,308.921082L41.055679,308.880920L41.067410,308.837524L62.091351,181.121033L72.293869,155.794495L98.919807,143.367310L114.653038,145.901794L138.014603,173.113708L159.829102,226.722595L159.849411,226.761169L159.876877,226.795044L159.910355,226.822937L159.948639,226.843689L159.990234,226.856567L160.033554,226.861206L160.076965,226.857117L160.118698,226.844727L160.157318,226.824463L160.191132,226.796997L160.218948,226.763489L160.239716,226.725220L160.252701,226.683655L160.257156,226.640259L160.253220,226.596863L160.240799,226.555115L138.412567,172.912720L114.937302,145.550598L114.877228,145.501404L114.804100,145.475891L98.923012,142.917542L98.857040,142.916931L98.793694,142.935730L72.026421,155.428894L71.979507,155.458374L71.941277,155.498596L71.914383,155.547180L61.669979,180.977722L40.767746,307.921143L29.026623,275.260376L39.713230,235.407349L56.284847,188.392761L70.411377,155.395508L95.884377,138.092041L111.575089,139.549988L137.079163,162.119385L153.405807,189.937744L160.530563,207.690186z" fill="#FEFEFE" stroke="none" fill-opacity="1" />
			</g>
			<g id="layer.arms.uuid_0x4">
				<polygon points="244.891495,560.146118 213.645859,545.635498 144.446182,514.026489 92.298027,511.032898 88.100677,531.518250 92.321548,571.776672 151.577621,691.808289 199.033585,765.621948 228.164749,801.121033 187.271408,716.322571 164.450058,654.981201 150.652817,610.940857 145.993713,565.819275 208.790588,605.492798 241.169342,626.003906 248.124435,591.585449 246.073547,584.006287" fill="#C55134" stroke="none" fill-opacity="1" />
				<path d="M244.020538,562.021729L244.403168,562.155640L244.804626,562.212280L245.209290,562.189575L245.601868,562.088257L245.967117,561.912415L246.291031,561.668640L246.561127,561.366333L246.767120,561.017151L246.901016,560.634521L246.957596,560.233093L246.934952,559.828308L246.833664,559.435791L246.657761,559.070557L246.414017,558.746643L246.111649,558.476501L245.762558,558.270508L214.544388,543.700806L146.168457,510.256042L144.683746,509.888123L92.582642,506.076965L91.407791,506.149353L90.283066,506.496277L89.271530,507.098206L88.430267,507.921448L87.806396,508.919556L87.435089,510.036499L83.382965,530.551575L88.018394,572.227844L147.388504,693.876282L194.969788,768.234619L224.163437,804.404480L224.925385,805.158081L225.826080,805.738647L226.827164,806.121216L227.885513,806.289429L228.955811,806.236206L229.992188,805.963684L230.950302,805.483582L231.788925,804.816406L232.472244,803.990845L232.970871,803.042358L233.263611,802.011475L233.337646,800.942383L233.190018,799.880981L232.827011,798.872681L191.556458,714.496948L167.278290,654.012878L153.244858,610.406616L149.613480,571.656189L207.796844,607.063599L240.157639,627.601074L240.521896,627.780273L240.915970,627.877563L241.321793,627.888428L241.720566,627.812500L242.093857,627.653137L242.424606,627.417786L242.697540,627.117249L242.899933,626.765381L243.022598,626.378418L249.977646,591.959961L249.949417,591.091675L247.951813,583.709229L246.956924,560.043823L246.897293,559.642822L246.760529,559.261169L246.552032,558.913574L246.279648,558.613281L245.953964,558.371948L245.587402,558.198730L245.194061,558.100403L244.789185,558.080688L244.388184,558.140320L244.006561,558.277100L243.658966,558.485596L243.358658,558.757996L243.117310,559.083679L242.944107,559.450256L242.845749,559.843506L242.826050,560.248413L244.185272,584.099854L246.182831,591.648560L239.860367,622.936646L209.785309,603.922607L147.596680,563.282043L147.051147,563.010559L146.462112,562.854858L145.853638,562.821350L145.251099,562.911438L144.679001,563.121338L144.161224,563.442444L143.718964,563.861633L143.370422,564.361389L143.129929,564.921265L143.007660,565.518250L143.008347,566.127563L148.033493,611.211304L161.598297,655.874634L182.910751,717.944885L204.686035,764.350647L202.945862,762.773682L155.649933,689.503784L96.543961,570.555542L92.967743,531.756042L96.299347,516.234741L143.431717,518.120239L212.753494,547.572998z" fill="#000000" stroke="none" fill-opacity="1" />
				<polygon points="506.203552,548.208130 506.848053,542.336548 499.476227,537.313904 473.468567,537.660095 427.961945,536.893127 356.372742,531.890869 291.605255,519.325867 227.763290,500.506592 161.244049,485.485962 106.666718,492.628906 114.128548,511.624023 138.963776,546.751160 256.165985,643.267944 330.919434,679.004517 369.405273,694.369873 304.839752,640.871338 250.250244,596.546631 216.812500,564.475891 180.354996,527.363586 245.740067,544.617493 319.198120,568.703613 404.263733,579.420044 467.154846,579.750793 480.013153,574.904785 495.168213,564.049683 503.672546,554.476135" fill="#C55134" stroke="none" fill-opacity="1" />
				<path d="M504.366302,548.006470L504.362274,548.368774L504.428986,548.724915L504.563934,549.061157L504.761810,549.364685L505.015167,549.623718L505.314178,549.828369L505.647339,549.970703L506.001892,550.045349L506.364197,550.049377L506.720337,549.982666L507.056671,549.847778L507.360077,549.649841L507.619141,549.396484L507.823761,549.097534L507.966156,548.764343L508.040863,548.409790L508.685303,542.538208L508.672363,542.039856L508.526794,541.563171L508.259003,541.142700L507.888672,540.809082L500.516968,535.786499L500.008972,535.544128L499.451630,535.465881L473.471893,535.811523L428.042633,535.029480L356.705750,529.357239L292.583771,515.312439L229.071625,496.068237L162.036270,481.977234L106.078255,488.132690L105.081993,488.380310L104.166924,488.845642L103.380028,489.504822L102.761589,490.324219L102.343201,491.261658L102.146530,492.269165L102.181374,493.295044L102.446190,494.286865L109.929024,513.273743L135.765884,549.012085L254.018082,645.876160L328.337280,684.405762L367.197937,699.898560L368.352631,700.229065L369.550262,700.321106L370.741943,700.170898L371.879211,699.784485L372.915710,699.177612L373.809418,698.375122L374.523743,697.409546L375.029755,696.320190L375.306824,695.151489L375.343597,693.950928L375.138580,692.767395L374.700287,691.649109L374.046295,690.641602L373.203430,689.785889L307.367096,637.821167L251.644302,594.967651L218.137833,563.134583L188.692184,532.205383L244.872833,547.551208L318.373749,571.217773L404.028900,581.283752L467.145142,581.598999L480.664978,576.634338L496.244537,565.552307L505.054321,555.703613L507.917389,548.900146L508.019470,548.552551L508.051758,548.191650L508.012970,547.831421L507.904816,547.485657L507.731201,547.167603L507.498779,546.889587L507.216644,546.662231L506.895660,546.494324L506.547974,546.392212L506.187042,546.359924L505.826904,546.398682L505.481079,546.506958L505.163025,546.680542L504.885071,546.912903L504.657654,547.195007L504.489777,547.516113L502.078400,553.487671L493.923798,562.667542L479.134186,573.260864L466.822815,577.900757L404.386536,577.542114L319.781067,566.110352L246.692734,541.711853L181.006805,524.893677L180.501999,524.813416L179.991470,524.835205L179.495361,524.958130L179.033707,525.177368L178.625046,525.484192L178.285492,525.866150L178.028870,526.308105L177.865387,526.792358L177.801407,527.299377L177.839798,527.808960L177.978729,528.300781L178.212891,528.755005L178.532791,529.153564L215.467529,565.797058L248.793579,598.065430L302.327667,643.934021L336.469055,674.810181L333.322937,673.517944L257.995422,640.397461L141.858505,544.061707L118.128265,509.465637L113.008972,496.372070L161.076096,489.135803L226.598328,504.987244L290.438507,523.283875L355.886932,534.394958L427.831909,538.753296L473.437439,539.508118L498.917633,539.169861L504.889648,543.238708z" fill="#000000" stroke="none" fill-opacity="1" />
				<polyline points="391.900208,851.583862 372.557892,867.409424 268.378784,940.679260 230.735840,975.281677 291.240967,942.839966 371.778809,900.871582 424.666260,876.835205" fill="#C55134" stroke="none" fill-opacity="1" />
				<path d="M393.621765,853.687988L393.999237,853.311768L394.295990,852.869019L394.500641,852.376953L394.605377,851.854370L394.606232,851.321411L394.503082,850.798584L394.299805,850.305847L394.004333,849.862244L393.628113,849.484802L393.185394,849.188049L392.693298,848.983398L392.170715,848.878601L391.637817,848.877808L391.114929,848.981018L390.622162,849.184265L390.178558,849.479675L370.912903,865.242554L265.136078,936.068604L226.119400,970.259460L225.187912,971.312500L224.492050,972.534119L224.061401,973.872437L223.914230,975.270630L224.056839,976.669189L224.483170,978.008911L225.175034,979.232788L226.103027,980.288757L227.227875,981.132141L228.501724,981.726929L229.870422,982.048096L231.275879,982.081787L232.658447,981.826660L233.959290,981.293518L293.605560,947.313110L373.017670,903.413513L425.904968,879.560669L426.412933,879.266663L426.853668,878.879150L427.210449,878.413147L427.469391,877.886475L427.620667,877.319397L427.658386,876.733765L427.581085,876.151978L427.391785,875.596436L427.097778,875.088562L426.710297,874.647705L426.244263,874.291016L425.717560,874.032043L425.150513,873.880798L424.564880,873.843079L423.983032,873.920349L423.427551,874.109619L370.609283,898.298218L288.902832,938.353027L236.296631,971.330505L271.922424,945.078125L374.121948,869.633179z" fill="#000000" stroke="none" fill-opacity="1" />
				<polygon points="767.823181,741.430603 762.728577,734.287964 760.627197,724.117676 763.290588,714.091125 770.380005,699.280273 791.057434,680.380798 810.063293,660.408936 843.086914,633.719238 891.378479,614.895874 914.969849,613.531128 925.399231,641.456055 937.039856,712.969910 956.049500,830.889038 972.104614,948.624695 973.839233,1013.498718 956.037231,944.315918 931.028931,849.134644 899.026428,757.620178 874.973694,685.285278 866.009644,690.478394 839.012207,709.319702 818.369324,724.452637 804.233643,736.437805 796.693970,744.851562 783.903320,746.932068 775.128113,745.703857" fill="#C55134" stroke="none" fill-opacity="1" />
				<path d="M766.781311,742.173706L766.946289,742.362671L767.144958,742.515808L767.369690,742.627258L767.611877,742.692749L767.862183,742.709717L768.110962,742.677551L768.348633,742.597412L768.566223,742.472412L768.755127,742.307434L768.908325,742.108765L769.019714,741.884033L769.085144,741.641846L769.102173,741.391602L769.069946,741.142822L768.989868,740.905090L768.864929,740.687561L763.917786,733.768738L761.946167,724.154602L764.545044,714.553345L771.562439,700.157654L792.267395,681.704590L811.554993,662.026489L844.563293,636.264038L892.146301,618.416382L912.460693,617.379395L921.107788,642.594849L932.153687,713.761475L952.119568,831.473694L965.964966,949.123901L966.172546,958.815430L961.684692,942.862732L934.668823,848.178345L902.973206,756.273987L879.083313,683.918701L878.681946,683.047852L878.098694,682.286743L877.362366,681.672607L876.508850,681.235596L875.580139,680.997070L874.621643,680.968689L873.680481,681.151917L872.802734,681.537842L863.978333,686.972046L837.289307,706.850830L817.052246,722.656128L803.061279,735.055054L795.873291,743.351685L783.887512,745.504639L775.570129,744.430908L768.469299,740.326111L768.241333,740.221313L767.997314,740.162903L767.746643,740.153320L767.499023,740.192749L767.263672,740.279785L767.049927,740.411011L766.865845,740.581482L766.718628,740.784546L766.613770,741.012451L766.555420,741.256348L766.545776,741.507080L766.585266,741.754761L766.672241,741.990112L766.803528,742.203857L766.973938,742.387939L767.177002,742.535156L774.460693,746.844910L774.944824,747.013062L783.707703,748.329834L796.952881,746.442871L797.467896,746.265869L797.894592,745.927490L805.500793,737.740112L819.749878,726.202637L840.763977,711.768372L868.188782,693.899170L872.542297,691.698914L895.069458,758.935974L927.427063,850.235718L950.393433,945.783447L967.832520,1015.044373L968.282043,1016.253174L968.971802,1017.343018L969.872070,1018.266541L970.943970,1018.983887L972.140869,1019.464111L973.411377,1019.686340L974.700378,1019.640991L975.952026,1019.330078L977.112305,1018.767090L978.131165,1017.976196L978.964417,1016.991699L979.575989,1015.856262L979.939514,1014.618774L980.039246,1013.332947L978.253357,948.460327L959.985962,830.352234L941.926697,712.182129L929.760498,640.746094L918.433105,612.237671L917.996460,611.408203L917.365234,610.715271L916.580078,610.203308L915.691345,609.905273L914.756287,609.840332L891.172974,611.342896L842.031128,631.010620L808.683105,658.701172L789.801270,679.099121L769.404968,698.213501L769.076416,698.656250L762.090027,713.516479L759.386108,723.788025L759.369568,724.377563L761.485291,734.544922L761.695007,735.025146z" fill="#000000" stroke="none" fill-opacity="1" />
				<polygon points="1004.645752,658.698730 1000.995117,658.916504 997.112366,657.943359 993.094666,655.659546 988.815735,651.652893 984.421204,646.032593 978.914246,636.569275 974.215759,627.337646 962.167969,594.194641 957.037048,577.713074 975.846497,568.189819 1036.773071,552.105042 1114.174316,535.556824 1190.629272,532.895386 1240.743530,541.919250 1186.320312,546.478394 1123.949463,554.840759 1069.587891,571.545105 1001.532104,604.417969 1003.079285,610.609314 1009.186462,627.895813 1011.388611,636.876221 1012.541077,645.036438 1012.159424,650.656433 1010.495911,654.730957 1007.906677,657.324463" fill="#C55134" stroke="none" fill-opacity="1" />
				<path d="M1004.766907,660.728149L1005.160400,660.665527L1005.534363,660.527344L1005.873962,660.318909L1006.166382,660.048157L1006.400513,659.725586L1006.567017,659.363525L1006.659790,658.975952L1006.675171,658.577698L1006.612549,658.184082L1006.474426,657.810242L1006.265930,657.470581L1005.995117,657.178101L1005.672546,656.944092L1005.310547,656.777466L1004.922974,656.684692L1004.524719,656.669312L1001.189087,656.836670L997.903625,655.969482L994.386963,653.904663L990.479980,650.130493L986.386536,644.701538L981.186462,635.331238L976.811951,626.210083L965.746521,592.987976L962.008911,579.816101L977.405090,572.287964L1037.685669,555.927551L1114.515625,538.323792L1190.375732,536.426514L1210.092285,540.468689L1186.034790,543.068787L1123.607910,552.292419L1068.738647,568.781372L1000.104309,601.462036L999.474121,601.860474L998.950073,602.390869L998.559265,603.025757L998.321777,603.732544L998.249939,604.474609L998.347412,605.213806L1000.100281,611.353760L1006.774963,628.615540L1009.143494,637.308899L1010.411133,645.113647L1010.144043,650.189453L1008.785522,653.595581L1006.760803,655.622437L1003.856262,656.825317L1003.505981,657.015320L1003.199402,657.270020L1002.948486,657.579712L1002.762817,657.932312L1002.649353,658.314392L1002.612793,658.711243L1002.654297,659.107666L1002.772400,659.488281L1002.962341,659.838623L1003.217102,660.145142L1003.526672,660.396057L1003.879395,660.581787L1004.261414,660.695129L1004.658264,660.731689L1005.054688,660.690247L1005.435303,660.572205L1008.688599,659.179932L1009.331543,658.747070L1011.920105,656.152893L1012.359131,655.491699L1014.050171,651.428406L1014.655945,645.180054L1013.649658,636.556946L1011.627747,627.297241L1006.023071,609.723694L1005.364136,606.212402L1070.647461,574.244202L1124.501709,557.360840L1186.690918,549.880920L1241.077881,545.909607L1241.885864,545.757202L1242.645752,545.442932L1243.325317,544.980164L1243.895996,544.388245L1244.333862,543.692261L1244.620483,542.921570L1244.743408,542.108521L1244.697754,541.287598L1244.485352,540.493225L1244.115234,539.759033L1243.602905,539.115906L1242.970093,538.591003L1242.243164,538.206421L1241.453125,537.978333L1191.252930,529.430969L1114.077637,532.781433L1035.951660,548.263062L974.733521,563.974060L955.175110,574.035522L954.373108,574.567444L953.716370,575.270752L953.240662,576.107300L952.971802,577.031250L952.924438,577.992371L953.101257,578.938354L958.563171,595.316895L971.560547,628.302856L976.609131,637.742554L982.374573,647.223633L987.044189,653.038086L991.615540,657.239258L996.071045,659.775146L1000.493164,660.919189z" fill="#000000" stroke="none" fill-opacity="1" />
			</g>
			<g id="layer.eyes.uuid_0x5">
				<polyline points="399.104614,314.069885 413.698517,312.365662 402.603302,303.262146 381.848328,294.666931 351.717743,294.346985 335.264954,299.686523 318.520905,310.486755 299.440430,330.296265 282.861786,367.230896 279.425812,388.257019 327.647675,336.238342 367.456207,320.222351 401.295471,324.598633 418.113190,328.827332 394.191437,314.275513" fill="#000000" stroke="none" fill-opacity="1" />
				<path d="M399.104614,314.069885L413.698517,312.365662L402.603302,303.262146L381.848328,294.666931L351.717743,294.346985L335.264954,299.686523L318.520905,310.486755L299.440430,330.296265L282.861786,367.230896L279.425812,388.257019L327.647675,336.238342L367.456207,320.222351L401.295471,324.598633L418.113190,328.827332L394.191437,314.275513L418.113190,328.827332L401.295471,324.598633L367.456207,320.222351L327.647675,336.238342L279.425812,388.257019L282.861786,367.230896L299.440430,330.296265L318.520905,310.486755L335.264954,299.686523L351.717743,294.346985L381.848328,294.666931L402.603302,303.262146L413.698517,312.365662z" fill="#FEFEFE" stroke="none" fill-opacity="1" />
				<polyline points="213.737122,374.168518 196.831512,351.302734 188.962265,343.134583 179.879318,338.045959 170.195679,336.307800 155.944229,339.572144 141.669785,346.583923 127.820206,357.522644 120.597435,365.962280 135.421310,362.590637 130.008255,367.699036 125.669800,372.320312 146.461945,366.028992 166.613907,365.158813 189.218048,370.299438 208.310623,381.383911 227.376007,395.722290" fill="#000000" stroke="none" fill-opacity="1" />
				<path d="M213.737122,374.168518L196.831512,351.302734L188.962265,343.134583L179.879318,338.045959L170.195679,336.307800L155.944229,339.572144L141.669785,346.583923L127.820206,357.522644L120.597435,365.962280L135.421310,362.590637L130.008255,367.699036L125.669800,372.320312L146.461945,366.028992L166.613907,365.158813L189.218048,370.299438L208.310623,381.383911L227.376007,395.722290L208.310623,381.383911L189.218048,370.299438L166.613907,365.158813L146.461945,366.028992L125.669800,372.320312L130.008255,367.699036L135.421310,362.590637L120.597435,365.962280L127.820206,357.522644L141.669785,346.583923L155.944229,339.572144L170.195679,336.307800L179.879318,338.045959L188.962265,343.134583L196.831512,351.302734z" fill="#FEFEFE" stroke="none" fill-opacity="1" />
			</g>
		</g>
	</g>
</svg>
