<?xml version="1.0" encoding="UTF-8"?>
<!-- Generator: Blender, SVG Export for Grease Pencil - v2.0 -->
<!DOCTYPE svg PUBLIC "-//W3C//DTD SVG 1.1//EN" "http://www.w3.org/Graphics/SVG/1.1/DTD/svg11.dtd">
<svg version="1.1" x="0px" y="0px" xmlns="http://www.w3.org/2000/svg" width="1920.000000px" height="1080.000000px" viewBox="0 0 1920.000000 1080.000000">
	<g id="blender_frame.1">
		<g id="blender_object.Stroke.1.uuid_0x0">
			<g id="layer.Layer.uuid_0x1">
				<polyline points="687.501587,565.299805 677.389709,554.665344 862.252502,209.532837 986.907654,127.277771 1029.307495,126.429688 1412.636719,318.094849 1440.770996,397.222656 1451.321289,650.431580 1284.274048,849.130310 1208.663330,884.298218 1031.065796,882.539795 922.045471,877.264587" fill="#000000" stroke="none" fill-opacity="1" />
			</g>
			<g id="layer.body.001.uuid_0x2">
				<polyline points="304.672638,716.765747 437.364655,813.525330 431.932495,827.309998 419.608124,838.378662 389.572754,852.834595 324.575226,816.855042 277.002014,761.298950" fill="#C66F35" stroke="none" fill-opacity="1" />
				<path d="M308.103119,712.061340L307.119446,711.482483L306.041779,711.106689L304.911407,710.948242L303.771820,711.013428L302.666962,711.299744L301.639221,711.796021L300.727905,712.483337L299.968231,713.335205L299.389404,714.318848L299.013611,715.396606L298.855225,716.526978L298.920441,717.666504L299.206726,718.771362L299.702972,719.799194L300.390320,720.710449L301.242157,721.469971L430.647095,815.476562L427.262390,824.065369L416.497040,833.733887L389.750244,846.607056L328.628052,811.885193L281.667969,757.303467L280.798889,756.469971L279.783783,755.822021L278.661804,755.384521L277.476135,755.174377L276.272125,755.199585L275.096222,755.459167L273.993530,755.943176L273.006561,756.632996L272.173004,757.502197L271.525024,758.517212L271.087616,759.639160L270.877350,760.824951L270.902679,762.028931L271.162262,763.204773L271.646210,764.307434L272.336060,765.294556L319.781616,820.959839L386.892426,857.676697L388.112396,858.172913L389.415100,858.366821L390.726654,858.247437L391.972992,857.821533L422.008270,843.365601L435.630585,831.427612L437.081604,829.339111L442.513672,815.554443L442.831879,814.385437L442.888031,813.175110L442.679474,811.981628L442.216156,810.862122L441.520477,809.870239L440.625549,809.053589z" fill="#000000" stroke="none" fill-opacity="1" />
				<polyline points="274.514038,599.800293 320.659058,757.408081 307.947083,765.019348 291.429565,766.274780 258.810455,759.412842 229.243759,691.258423 225.425217,618.216614" fill="#C66F35" stroke="none" fill-opacity="1" />
				<path d="M274.514038,599.800293L313.683319,754.676453L305.992767,758.869141L291.869965,759.584595L263.940613,753.125732L235.928040,689.687866L231.715866,617.887695L231.530869,616.666809L231.111160,615.505493L230.472977,614.448242L229.640823,613.535889L228.646622,612.803406L227.528702,612.278931L226.329865,611.982666L225.096375,611.925964L223.875458,612.111023L222.713989,612.530640L221.656906,613.168823L220.744476,614.000977L220.011993,614.995178L219.487564,616.113159L219.191208,617.311890L219.134521,618.545532L222.495865,691.611206L252.197403,762.281677L253.062531,763.762939L254.253128,764.997925L255.701813,765.916626L257.326538,766.466980L290.063171,772.770020L308.423096,771.281921L311.173584,770.407959L323.703857,762.493347L324.737457,761.708984L325.575623,760.718445L326.178162,759.569275L326.516174,758.316528L326.573486,757.020264L326.347412,755.742554z" fill="#000000" stroke="none" fill-opacity="1" />
				<polyline points="276.340729,479.218628 268.302399,643.246033 253.798386,646.272461 237.781174,642.046875 209.210541,624.876831 203.605042,550.797180 223.927521,480.535706 239.191422,446.955078" fill="#C66F35" stroke="none" fill-opacity="1" />
				<path d="M278.775330,479.337952L278.751770,478.860718L278.635651,478.397217L278.431335,477.965271L278.146606,477.581482L277.792511,477.260681L277.382660,477.015076L276.932678,476.854126L276.460022,476.784058L275.982819,476.807617L275.519318,476.923767L275.087372,477.128174L274.703583,477.412781L274.382690,477.766846L274.137238,478.176758L273.976227,478.626648L273.906189,479.099365L265.987640,641.268433L253.913239,641.875793L240.098373,636.559021L216.666718,620.278748L211.692429,551.633301L229.804642,482.708313L244.737823,449.476135L245.123077,448.345642L245.280365,447.161682L245.203690,445.969849L244.895966,444.815857L244.369080,443.744019L243.643066,442.795654L242.746078,442.007080L241.712509,441.408691L240.582016,441.023438L239.398117,440.866089L238.206253,440.942810L237.052246,441.250549L235.980453,441.777466L235.032074,442.503479L234.243454,443.400391L233.645111,444.434021L218.238388,477.949768L195.918793,548.574036L201.450760,625.463989L201.809250,627.280884L202.586807,628.961548L203.739471,630.411011L205.201965,631.546936L234.743332,647.101807L252.706451,650.411377L254.672714,650.462769L268.794434,645.604004L269.295746,645.440430L269.749451,645.171692L270.133728,644.810669L270.430359,644.374634L270.624939,643.884644L270.708221,643.363892z" fill="#000000" stroke="none" fill-opacity="1" />
				<polyline points="362.820038,316.942017 278.659821,480.683228 266.969849,479.878540 255.014038,470.473572 235.240005,439.674988 256.591431,356.248962 316.597992,295.761414" fill="#C66F35" stroke="none" fill-opacity="1" />
				<path d="M368.257446,319.736816L368.698212,318.622314L368.913086,317.443237L368.893799,316.244995L368.641052,315.073425L368.164642,313.973633L367.482910,312.988037L366.621857,312.154358L365.614777,311.504639L364.500336,311.063843L363.321289,310.849060L362.122894,310.868286L360.951355,311.121033L359.851624,311.597412L358.866028,312.279236L358.032349,313.140259L357.382599,314.147278L277.455597,478.548645L268.263428,476.519897L258.892151,466.950195L242.833618,438.448730L264.434296,360.697815L321.381775,300.507141L322.215668,299.482666L322.833679,298.315247L323.212128,297.049622L323.336365,295.734558L323.201599,294.420471L322.813080,293.157959L322.185822,291.995422L321.343719,290.977722L320.319244,290.143799L319.151764,289.525818L317.886230,289.147339L316.571045,289.023132L315.257050,289.157837L313.994537,289.546387L312.832062,290.173645L311.814270,291.015747L250.414368,350.121155L248.162125,354.091736L228.407822,437.926392L228.189529,439.838684L228.496353,441.738831L229.305496,443.485229L250.666138,473.265137L264.843262,482.581909L265.733612,483.088257L266.733643,483.309937L278.519226,482.725220L278.994446,482.702515L279.451508,482.570740L279.865906,482.336975L280.215057,482.013794L280.480255,481.618958z" fill="#000000" stroke="none" fill-opacity="1" />
				<polyline points="481.235291,371.014038 474.112091,451.403381 603.346619,637.621704 874.026672,680.360352 1007.331543,513.476135 1046.000122,459.544067 1061.264038,481.930969 1073.475220,515.511292 1082.633545,567.408264 1082.633545,635.586548 1046.000122,731.239685 962.557495,839.103821 875.044312,901.176636 788.548767,943.915283 687.806946,970.372559 617.592896,970.372559 560.607666,957.143921 497.516815,933.739441 411.021271,888.965576 341.824829,831.980408 312.314606,783.135986 278.733948,694.605469 262.452454,624.391602 260.417358,525.685181 278.733948,452.418457 301.121063,387.292603 337.754456,332.342590 394.739746,294.691650 441.784027,343.140259" fill="#6C1828" stroke="none" fill-opacity="1" />
				<path d="M489.872620,371.779358L489.855927,370.079590L489.507904,368.415710L488.842102,366.851746L487.883972,365.447754L486.670227,364.257568L485.247711,363.327026L483.670959,362.691956L482.000580,362.376709L480.300781,362.393311L478.636993,362.741272L477.072968,363.407104L475.668884,364.365295L474.478760,365.579041L473.548248,367.001648L472.913239,368.578308L472.597931,370.248718L464.506378,450.552246L464.790771,453.874634L466.189636,456.901489L596.450867,642.407288L597.971802,644.068787L599.879883,645.265991L602.037537,645.912598L872.717773,688.650024L874.920837,688.704956L877.062317,688.184448L878.994385,687.124512L880.583984,685.598145L1013.888794,518.713928L1045.827271,474.187988L1053.736816,485.788696L1058.181763,519.607849L1058.024414,569.562988L1058.024414,631.035278L1024.316040,719.050903L945.333252,821.149780L866.057373,886.113525L785.011414,934.456360L687.062012,964.603638L618.222107,964.879395L562.190369,951.872070L499.077454,930.211121L412.045013,887.414307L346.389557,828.035583L315.000916,781.828369L281.932251,693.632935L266.463562,623.890625L265.285675,526.233521L283.470917,453.821899L305.778595,389.597534L340.912415,335.513550L394.333710,298.432068L440.134918,344.741577L440.478943,345.032593L440.873169,345.250793L441.302460,345.387878L441.750183,345.438721L442.199219,345.401123L442.632355,345.276672L443.032867,345.070129L443.385315,344.789368L443.676270,344.445312L443.894501,344.051086L444.031647,343.621826L444.082458,343.174072L444.044861,342.725037L443.920410,342.291931L443.713837,341.891479L443.433105,341.539001L396.818115,292.673523L396.301697,292.251892L395.702545,291.959351L395.052307,291.811584L394.385620,291.816406L393.737579,291.973511L393.142761,292.274597L335.336334,328.682678L334.104736,329.909363L296.832825,384.433655L274.066254,450.813965L255.706345,524.507385L258.432800,624.474487L275.484955,695.358826L309.532562,784.191284L336.734802,835.055664L409.846313,890.392334L495.746521,937.159241L558.697021,962.294067L616.350769,975.723328L687.806946,976.141418L791.100830,953.632935L882.790161,916.852905L976.794800,859.176392L1065.464844,746.297363L1105.614868,644.387939L1107.242798,567.408264L1089.007812,512.770264L1069.151123,479.062927L1052.934082,454.816284L1051.775269,453.454712L1050.354126,452.369507L1048.735474,451.609985L1046.992676,451.210632L1045.204712,451.189514L1043.452881,451.547607L1041.816650,452.268677L1040.370361,453.320068L1039.179810,454.653931L1000.638245,508.408691L870.515198,671.309570L608.197754,629.890015L484.026154,448.775024z" fill="#000000" stroke="none" fill-opacity="1" />
				<polyline points="818.436890,417.089783 814.196899,398.010010 816.316895,390.236755 827.189209,383.279907 859.695557,370.560120 920.468323,371.973450 975.587708,393.879822 1027.880615,444.759155 1034.947144,474.438782 1035.653809,490.691895" fill="#C66F35" stroke="none" fill-opacity="1" />
				<path d="M810.731995,418.802002L811.214050,420.272217L811.973694,421.620178L812.981750,422.794067L814.199402,423.748718L815.579956,424.447449L817.070251,424.863464L818.613098,424.980713L820.149109,424.794739L821.619446,424.312683L822.967346,423.552917L824.141174,422.544983L825.095825,421.327271L825.794617,419.946716L826.210632,418.456421L826.327881,416.913635L826.141846,415.377563L821.656433,398.187500L822.278198,394.619141L830.139832,389.072815L860.671143,376.082275L919.475830,376.850220L973.040710,397.810242L1025.554688,446.079773L1032.190186,474.823364L1032.526245,490.827881L1032.612793,491.435425L1032.816284,492.014404L1033.128906,492.542542L1033.538452,492.999634L1034.029175,493.367981L1034.582520,493.633484L1035.177002,493.785950L1035.789795,493.819580L1036.397339,493.732910L1036.976318,493.529419L1037.504517,493.216919L1037.961548,492.807312L1038.329956,492.316406L1038.595459,491.763123L1038.747803,491.168640L1038.781494,490.555847L1037.715576,474.318359L1030.379150,444.164246L1030.114136,443.490906L1029.671753,442.918213L978.790894,390.587708L977.284180,389.611328L922.277466,367.421204L859.823425,365.063660L857.692139,365.440186L824.831665,377.255005L812.595703,384.421204L810.754028,386.147461L809.655945,388.420166L807.208862,396.104187L807.126099,399.581360z" fill="#000000" stroke="none" fill-opacity="1" />
				<polyline points="807.818542,460.965332 803.903687,436.230652 806.189880,425.487183 816.638062,414.456848 848.286560,397.378235 903.927368,397.008728 966.996948,422.712219 1026.192749,480.119019 1034.852783,512.968140 1035.718018,530.016174 1034.304565,560.402405 1030.771362,577.362183 1020.171509,575.948914" fill="#C66F35" stroke="none" fill-opacity="1" />
				<path d="M798.730652,462.403687L799.185974,464.148987L799.972900,465.771912L801.061462,467.210205L802.409607,468.408508L803.965576,469.320618L805.669617,469.911804L807.456299,470.159119L809.256836,470.053101L811.002197,469.597900L812.625122,468.810974L814.063354,467.722412L815.261597,466.374268L816.173828,464.818237L816.764954,463.114197L817.012329,461.327515L816.906311,459.527039L812.797180,436.465088L813.892273,429.536255L821.461670,420.753906L849.954834,403.891357L902.921143,402.235840L964.374084,426.728577L1023.230286,481.851868L1031.183472,513.538635L1031.724121,530.024658L1030.057739,559.864746L1027.403809,572.609253L1020.767395,571.479126L1019.884033,571.448730L1019.011536,571.591309L1018.183777,571.901306L1017.432190,572.366882L1016.786072,572.970093L1016.269958,573.687744L1015.903870,574.492371L1015.701660,575.352905L1015.671326,576.236389L1015.813782,577.108765L1016.123840,577.936646L1016.589478,578.688110L1017.192749,579.334290L1017.910339,579.850342L1018.714905,580.216553L1019.575500,580.418640L1030.207520,581.590942L1031.118408,581.614258L1032.013428,581.443542L1032.851929,581.086670L1033.595459,580.559937L1034.209961,579.887207L1034.667847,579.099365L1034.947876,578.232300L1038.482300,561.272766L1039.702759,530.201538L1038.541504,512.780945L1029.390015,479.276123L1028.494629,477.745483L970.275452,419.331543L968.774353,418.351135L905.897522,392.174438L903.892700,391.788513L848.243225,390.854248L845.188232,391.636658L812.918518,407.564148L800.108398,419.726624L797.996643,423.743713L795.347656,434.409912z" fill="#000000" stroke="none" fill-opacity="1" />
				<polyline points="791.330811,515.278198 791.504517,494.913269 794.258057,484.872375 803.025513,472.750549 830.528748,451.696838 887.819885,451.148865 950.797241,483.026489 1010.190308,540.350647 1022.941833,571.446899 1023.320557,588.135620 1016.451782,618.848511 1010.171631,635.997681 973.644958,667.392273 929.012390,696.080566 907.812561,692.547363" fill="#C66F35" stroke="none" fill-opacity="1" />
				<path d="M782.169067,515.200012L782.329895,516.988892L782.836609,518.712036L783.669739,520.303223L784.797180,521.701233L786.175842,522.852417L787.752502,523.712585L789.466797,524.248596L791.252686,524.439819L793.041504,524.279053L794.764648,523.772400L796.355774,522.939270L797.753845,521.811707L798.905029,520.433105L799.765198,518.856384L800.301270,517.142151L800.492493,515.356262L801.199341,496.260620L803.172913,489.144897L809.864990,479.406738L833.440491,460.157166L886.322144,457.559814L947.693420,487.391541L1006.051086,543.158997L1018.467224,572.381531L1019.029968,587.710938L1012.710510,617.750244L1006.979431,633.785889L971.125793,664.013184L927.916443,690.758118L908.699219,687.227356L907.644287,687.156616L906.595825,687.293091L905.594177,687.631348L904.677795,688.158569L903.881775,688.854492L903.236877,689.692322L902.767761,690.639893L902.492554,691.660645L902.421875,692.715576L902.558228,693.764038L902.896545,694.765747L903.423828,695.682129L904.119690,696.478149L904.957520,697.123047L905.905090,697.592041L906.925903,697.867310L928.178833,701.081543L930.034729,701.046387L931.753723,700.345581L975.918396,670.929321L1012.621338,638.847778L1013.700684,637.290039L1020.105347,620.186523L1027.497314,589.069763L1027.435425,571.344849L1014.719421,538.493408L1013.589783,536.828430L954.475342,479.215698L890.708557,445.441895L887.758728,444.752808L830.447632,443.209473L827.766724,443.671082L825.369507,444.957092L797.285767,465.252563L786.376221,479.171509L782.144104,492.346313z" fill="#000000" stroke="none" fill-opacity="1" />
				<polyline points="686.664551,587.831970 691.743286,570.343140 697.464966,561.833679 710.783997,551.002502 746.418396,527.348633 804.923096,516.979919 856.902527,553.421204 901.386841,614.539551 909.328003,646.796997 908.924988,663.745117 904.134827,694.225464 894.716980,709.473755 839.883606,734.714783 780.224426,745.153809 770.756287,742.338135" fill="#C66F35" stroke="none" fill-opacity="1" />
				<path d="M679.253296,585.679749L678.975830,587.166992L678.993774,588.679688L679.306519,590.159912L679.902100,591.550659L680.757507,592.798462L681.839966,593.855408L683.107788,594.680908L684.512329,595.243164L685.999512,595.520630L687.512329,595.502686L688.992493,595.189819L690.383240,594.594299L691.631042,593.738892L692.687927,592.656494L693.513489,591.388672L694.075745,589.984131L699.703247,574.064270L704.307617,568.081665L716.535645,558.819031L750.304077,537.057129L802.902710,526.099670L852.542542,557.859192L896.490112,616.816711L903.876099,647.392578L903.452148,663.252197L898.949585,692.305786L891.017151,705.293152L838.275696,729.558960L780.542664,739.664673L772.291809,737.174561L771.254944,736.974182L770.198914,736.979980L769.164307,737.191650L768.190857,737.601135L767.316040,738.192627L766.573425,738.943481L765.991516,739.824707L765.592651,740.802612L765.392334,741.839478L765.398132,742.895508L765.609802,743.930054L766.019287,744.903442L766.610779,745.778320L767.361572,746.521057L768.242798,747.102905L769.220703,747.501709L778.698792,750.283813L781.146912,750.425781L840.806763,739.990479L896.951843,714.328735L898.259094,713.476196L899.264282,712.282349L908.746460,697.073792L909.489441,695.067017L914.341370,664.596375L914.762634,646.926270L906.532349,613.272888L905.671265,611.421204L861.864197,549.809937L809.875549,509.915771L807.874573,508.873291L805.671692,508.385254L803.417542,508.485168L744.631775,517.268127L740.756531,518.819153L705.423218,542.926575L691.682739,554.723389L684.538574,565.498718z" fill="#000000" stroke="none" fill-opacity="1" />
				<polyline points="620.625366,589.279541 636.717957,580.754395 646.810486,578.940430 663.857727,580.965820 705.643494,590.090515 753.807312,624.883606 763.817444,687.570312 751.794739,729.946045 730.726074,741.192200 713.373413,731.414795 679.154541,703.881470 656.841248,691.782593 625.478149,677.588989 569.595398,647.343567 568.018616,644.626404" fill="#C66F35" stroke="none" fill-opacity="1" />
				<path d="M617.269592,582.945068L616.098328,583.721436L615.101074,584.711426L614.316040,585.876953L613.773438,587.173279L613.494202,588.550415L613.488953,589.955688L613.757996,591.334961L614.290955,592.635193L615.067322,593.806519L616.057373,594.803833L617.222839,595.588867L618.519104,596.131470L619.896240,596.410645L621.301453,596.415894L622.680725,596.146851L623.981018,595.613892L639.335205,588.333618L647.056091,587.183411L662.499878,589.039307L702.573181,596.960205L748.416016,628.202209L757.085938,687.172363L747.083679,726.148193L730.787903,735.773438L716.018616,727.509521L682.209961,700.084106L659.129578,687.562256L627.513611,673.486267L572.005737,644.860596L570.982666,642.906433L570.590088,642.361206L570.098816,641.903076L569.527527,641.549561L568.898315,641.314331L568.235229,641.206421L567.563782,641.229858L566.910034,641.383789L566.298645,641.662354L565.753479,642.054932L565.295288,642.546265L564.941833,643.117432L564.706543,643.746704L564.598633,644.409790L564.622070,645.081177L564.776062,645.735107L565.054565,646.346313L566.602295,649.080383L567.948242,650.386902L623.299500,681.614258L654.704651,696.085327L676.443237,707.955444L710.426636,735.077332L728.393738,745.331543L729.494263,745.780945L730.671936,745.943115L731.852966,745.807861L732.963440,745.383667L754.417175,734.858704L755.624390,733.988892L756.558411,732.830383L757.152100,731.465942L770.152039,689.367554L770.319641,686.531982L759.581299,623.961609L759.144775,622.496033L758.343140,621.193726L757.231262,620.143860L709.957153,584.119080L707.215027,582.893555L665.602234,572.976807L647.772827,570.840942L635.316528,572.956543z" fill="#000000" stroke="none" fill-opacity="1" />
				<polyline points="589.331848,528.380737 601.130127,531.977722 605.835876,533.843384 609.956848,536.846558 618.190430,544.631165 637.110779,585.524231 600.044556,620.323242 581.269104,643.517578 565.862183,651.905090 556.012939,642.681519 538.415710,610.588745 526.570618,591.670288 509.228149,564.944702 470.145081,509.959045 470.096802,506.877808" fill="#C66F35" stroke="none" fill-opacity="1" />
				<path d="M591.651428,520.772156L590.122498,520.465881L588.563171,520.463684L587.033386,520.765747L585.591919,521.360413L584.294189,522.224976L583.190002,523.326050L582.321960,524.621338L581.723267,526.061157L581.416931,527.590088L581.414734,529.149353L581.716736,530.679199L582.311462,532.120667L583.175964,533.418335L584.277100,534.522522L585.572327,535.390625L587.012146,535.989380L598.356628,539.901733L601.704895,541.340637L604.423950,543.501953L610.958740,549.830933L627.755127,583.707520L596.450989,616.495605L578.650085,640.372620L566.366089,647.960449L558.302551,640.905029L540.885559,609.234497L529.253601,589.990417L512.743103,562.663818L475.947571,508.056885L476.267303,506.781250L476.129913,505.579346L475.760620,504.427246L475.173767,503.369385L474.391724,502.446350L473.444672,501.693665L472.368988,501.140137L471.205963,500.807068L470.000336,500.707397L468.798401,500.844727L467.646332,501.213989L466.588470,501.800842L465.665436,502.582886L464.912628,503.529907L464.359192,504.605713L464.026123,505.768738L463.926422,506.974365L464.039581,510.054626L464.342621,511.861267L465.167969,513.496765L505.761505,567.299927L523.901184,593.371887L535.985107,612.014404L553.503723,644.057373L563.658752,654.258057L564.309998,654.730469L565.058044,655.026794L565.856018,655.128784L566.654480,655.029907L567.403625,654.736328L583.188538,647.043213L584.389343,646.043335L603.899597,623.905396L642.400269,591.158386L643.630005,589.674194L644.454285,587.931885L644.821655,586.039795L644.709412,584.115601L644.124573,582.279053L626.128601,540.958313L624.199463,538.275513L615.902832,530.557617L610.877319,526.925598L604.224365,524.173340z" fill="#000000" stroke="none" fill-opacity="1" />
				<polyline points="573.927063,374.375732 583.275635,392.327942 585.837952,401.566528 587.684631,412.522339 590.358276,439.569946 585.625061,528.503967 537.138794,532.746826 495.271484,533.140930 470.750946,531.184814 459.720215,522.316284 437.411377,496.689270 429.312775,469.619263 412.834930,374.146057 467.763702,345.911804 470.419647,345.942200" fill="#C66F35" stroke="none" fill-opacity="1" />
				<path d="M579.919861,371.255066L579.195923,370.145874L578.269531,369.199219L577.176147,368.451538L575.957947,367.931580L574.661682,367.659180L573.337219,367.644836L572.035461,367.889282L570.806396,368.382935L569.697144,369.106995L568.750549,370.033447L568.002808,371.126709L567.482788,372.344971L567.210388,373.641174L567.196106,374.965637L567.440552,376.267456L567.934265,377.496582L576.235107,395.101929L578.096130,403.287720L579.394043,413.629456L581.090027,439.780212L577.796936,520.938354L536.827271,526.309082L495.479980,527.201233L472.997467,525.533936L463.868622,518.002441L442.686829,493.783264L434.710144,468.350891L418.159149,376.800781L468.994873,351.130310L470.358246,351.311951L471.407013,351.220703L472.417816,350.926636L473.351868,350.441040L474.173187,349.782532L474.850250,348.976562L475.357025,348.053833L475.674164,347.050049L475.789337,346.003662L475.698120,344.954834L475.404144,343.944092L474.918427,343.010010L474.260010,342.188782L473.453949,341.511597L472.531281,341.004822L471.527466,340.687683L470.481110,340.572571L467.825073,340.550476L465.312622,341.143188L410.642822,369.881348L409.643738,370.567017L408.848511,371.481201L408.307770,372.565674L408.056183,373.750977L408.109711,374.961548L423.858917,470.560486L431.771240,498.376648L432.971039,500.554626L455.223938,526.230408L467.109528,535.714050L468.604034,536.585327L470.288788,536.978027L494.799316,539.059631L537.199402,539.187073L586.341614,536.691895L588.254822,536.291199L590.019287,535.449951L591.535278,534.215942L592.716919,532.658752L593.497498,530.866577L593.832703,528.940796L599.589111,440.061218L596.003174,411.700073L593.648132,400.250122L590.527527,390.316528z" fill="#000000" stroke="none" fill-opacity="1" />
			</g>
			<g id="layer.arms.uuid_0x3">
				<polygon points="238.796539,414.999207 212.425690,392.830994 153.884293,344.244629 104.328407,327.734070 94.926064,346.412048 88.485031,386.375366 114.332436,517.717590 140.861221,601.364197 159.708954,643.239868 142.384201,550.703918 136.377014,485.531189 134.561920,439.415833 141.850159,394.643738 192.104477,449.342285 218.001892,477.598572 233.705368,446.191589 233.705368,438.339783" fill="#C55134" stroke="none" fill-opacity="1" />
				<path d="M237.465836,416.582031L237.800232,416.811279L238.172897,416.970825L238.569550,417.054626L238.974899,417.059387L239.373505,416.984985L239.749786,416.834290L240.089508,416.613098L240.379547,416.329834L240.608780,415.995422L240.768326,415.622681L240.852081,415.226074L240.856781,414.820740L240.782394,414.422241L240.631729,414.045898L240.410461,413.706116L240.127274,413.416199L213.798309,391.198181L156.531601,341.054932L155.194534,340.311951L105.897453,323.024597L104.744576,322.787598L103.568291,322.828674L102.434647,323.145569L101.407539,323.720398L100.544647,324.520935L99.894508,325.502136L90.624626,344.246643L84.213417,385.686890L109.748558,518.619629L136.256104,602.824707L154.988953,645.364258L155.527496,646.290710L156.245453,647.086426L157.111771,647.717163L158.089432,648.156006L159.136520,648.384155L160.208130,648.391724L161.258316,648.178589L162.242142,647.753662L163.117401,647.135254L163.846436,646.349854L164.398285,645.431213L164.748993,644.418579L164.883682,643.355469L164.796524,642.287354L146.997253,550.060913L139.360046,485.335144L137.203613,439.577271L143.819748,401.223450L190.734970,450.598999L216.608109,478.875977L216.912918,479.144104L217.267929,479.340942L217.656799,479.457397L218.061508,479.488281L218.463547,479.432007L218.844238,479.291199L219.186172,479.072327L219.473495,478.785583L219.692932,478.444092L235.396454,447.037109L235.596054,446.191589L235.596100,438.543579L240.817062,415.439819L240.864212,415.037170L240.831833,414.633118L240.721283,414.243042L240.536804,413.882080L240.285492,413.564026L239.976959,413.301086L239.622986,413.103455L239.237213,412.978699L238.834610,412.931458L238.430511,412.963806L238.040497,413.074341L237.679428,413.258850L237.361465,413.510193L237.098526,413.818787L236.900955,414.172729L236.776047,414.558411L231.858231,437.936890L231.814743,445.745239L217.539429,474.295837L193.474747,448.086365L144.060120,392.613220L143.604538,392.208679L143.076569,391.904541L142.497955,391.713318L141.892792,391.642822L141.285721,391.696045L140.702087,391.870850L140.165649,392.159912L139.698654,392.551270L139.320374,393.028870L139.046341,393.573181L138.887970,394.161438L131.962921,438.992798L133.391022,485.648743L137.751160,551.130981L146.649628,601.613647L145.381622,599.636719L118.865265,516.556641L92.879799,386.299561L99.562057,347.912781L106.832146,333.800476L151.835815,347.931274L211.058304,394.468201z" fill="#000000" stroke="none" fill-opacity="1" />
				<polygon points="502.373352,554.097168 506.469299,548.831055 505.299011,537.713623 489.500549,516.648987 461.414307,479.200806 410.508118,424.783997 354.335724,383.825073 291.726868,350.472717 222.096420,324.727112 158.902542,317.120422 148.955338,335.259338 136.667587,369.196838 110.921867,478.030579 96.878769,558.193054 97.463844,604.418213 132.571625,511.382874 158.317337,448.774170 182.190582,405.942749 206.765915,368.026489 271.363983,397.516907 336.664246,445.263428 408.986053,506.350830 456.030334,554.799500 468.220459,560.163147 485.388123,561.060364 496.920013,558.170654" fill="#C55134" stroke="none" fill-opacity="1" />
				<path d="M500.914459,552.962463L500.710388,553.290588L500.579041,553.653992L500.526031,554.036743L500.553864,554.422119L500.661194,554.793274L500.843262,555.134094L501.092285,555.429565L501.397400,555.666809L501.745056,555.835388L502.120087,555.928040L502.506317,555.940674L502.886749,555.872803L503.244690,555.727234L503.564545,555.510437L503.832336,555.231934L507.928314,549.965759L508.167480,549.560547L508.296814,549.108032L508.307465,548.637573L507.137177,537.520142L506.777710,536.604736L490.979156,515.539978L462.906097,478.082031L412.370880,423.041382L356.766785,380.490845L293.902374,346.388855L223.343887,321.353271L159.444351,312.618408L158.368607,312.617432L157.322906,312.869934L156.366074,313.361633L155.552048,314.064880L154.926529,314.940063L144.999176,333.089905L132.985168,367.863525L107.633804,477.252747L90.981857,557.160034L91.511314,604.493530L91.661690,605.749756L92.074074,606.945801L92.729935,608.027710L93.599686,608.946594L94.643959,609.660889L95.815605,610.138428L97.061523,610.357605L98.325813,610.308472L99.551193,609.993286L100.682152,609.426270L101.667770,608.633057L102.463593,607.649475L103.033508,606.519958L136.257263,512.835632L160.216309,449.689880L183.806824,406.915527L207.710449,371.265625L269.810669,400.169250L335.027740,447.344543L407.702942,507.726074L454.704285,556.087036L455.285919,556.491272L467.476074,561.854919L485.291656,562.906128L497.369293,559.963501L498.026093,559.651428L503.479523,555.578003L503.763245,555.315613L503.986176,555.000061L504.138580,554.645020L504.213989,554.266052L504.208862,553.879700L504.123505,553.502808L503.961670,553.151917L503.730499,552.842346L503.439911,552.587646L503.102783,552.398865L502.733704,552.284363L502.348846,552.249023L501.965240,552.294556L501.599274,552.418762L501.267273,552.616394L496.111023,556.467957L485.207764,559.200195L468.654999,558.335083L457.104919,553.253052L410.333710,505.042236L338.371521,443.242188L273.168854,395.048584L207.826721,365.702820L207.250687,365.518494L206.647415,365.474854L206.050827,365.574219L205.494293,365.811096L205.009186,366.172180L204.622437,366.637146L180.608429,404.917419L156.479141,447.749634L128.908142,509.876404L103.017662,572.839233L102.872093,558.675842L114.232864,478.711609L140.426804,370.317932L153.079102,337.123230L161.404282,321.988831L221.246124,328.247864L289.828064,354.704041L352.139252,387.330383L408.810272,426.702759L459.983337,480.400757L488.022003,517.757996L503.514313,538.414429L504.553192,548.283997z" fill="#000000" stroke="none" fill-opacity="1" />
				<polygon points="231.818909,686.213867 217.190781,683.288208 157.220764,673.861084 153.815308,697.880981 155.443787,733.389038 207.421722,897.221191 259.475586,1013.463074 286.262939,1057.014771 265.957275,991.432617 240.121048,904.368408 221.958344,816.511108 210.250626,726.381470 252.184708,738.571533" fill="#C55134" stroke="none" fill-opacity="1" />
				<path d="M231.059387,690.011719L231.814926,690.087036L232.570572,690.013367L233.297440,689.793701L233.967361,689.436523L234.554855,688.955444L235.037109,688.369019L235.395645,687.699829L235.616928,686.973450L235.692062,686.217957L235.618469,685.462158L235.398804,684.735474L235.041580,684.065430L234.560577,683.477966L233.974182,682.995728L233.304810,682.637085L232.578522,682.415894L218.066895,678.907776L158.189407,667.699219L156.780579,667.639099L155.394241,667.896973L154.101166,668.459595L152.967697,669.298340L152.051468,670.370300L151.399567,671.620605L151.045013,672.985474L147.129822,696.933167L149.293289,733.671143L204.830261,898.043396L254.331161,1015.766785L280.452423,1060.588623L281.308441,1061.703857L282.374908,1062.619873L283.606537,1063.297852L284.950867,1063.708984L286.351044,1063.835815L287.747437,1063.672852L289.080750,1063.227173L290.294464,1062.517578L291.336884,1061.574219L292.163818,1060.437256L292.740112,1059.154907L293.041260,1057.781616L293.054413,1056.375854L292.779327,1054.997192L270.799316,989.964661L242.864914,903.678955L224.912750,816.014587L215.812012,732.870850L251.283203,741.672546L251.924469,741.790466L252.576324,741.777100L253.212219,741.633057L253.806229,741.364319L254.334198,740.981689L254.774506,740.500732L255.109192,739.941223L255.324738,739.325867L255.412231,738.679810L255.368225,738.029175L255.194397,737.400818L235.428604,684.809814L235.085403,684.132507L234.616547,683.535278L234.040207,683.040894L233.378510,682.668518L232.656967,682.432434L231.903137,682.341614L231.146118,682.399597L230.414902,682.604126L229.737640,682.947388L229.140427,683.416260L228.646103,683.992554L228.273651,684.654297L228.037506,685.375854L227.946701,686.129700L228.004715,686.886719L228.209213,687.617920L246.802826,733.643921L211.556808,721.888367L210.543320,721.711548L209.515625,721.760498L208.523560,722.032776L207.614883,722.515381L206.833725,723.184814L206.217743,724.008789L205.796768,724.947510L205.591003,725.955566L205.610580,726.984131L218.989517,816.896851L237.352829,904.940674L261.106750,992.872009L283.445007,1050.802490L264.469604,1010.823486L209.966354,896.251465L161.557343,732.298584L160.589508,698.203003L162.507706,681.006287L216.405563,687.686890z" fill="#000000" stroke="none" fill-opacity="1" />
				<polygon points="611.135376,694.000732 608.136414,685.755859 608.831238,675.394043 614.078796,666.444885 624.870667,654.069214 649.848999,641.387329 673.503357,627.225159 712.461487,610.338379 764.028076,605.114258 787.125122,610.107788 789.707336,639.804688 781.800415,711.827026 768.584839,830.535278 752.571411,948.276611 736.894653,1011.251953 738.241333,939.828125 739.596313,841.425598 733.231323,744.686035 729.397705,668.553345 719.371399,671.160278 688.318787,682.096008 664.380920,691.157715 647.555115,698.926392 638.040100,705.017578 625.158813,703.601868 617.031616,700.071899" fill="#C55134" stroke="none" fill-opacity="1" />
				<path d="M609.932800,694.438232L610.041321,694.664368L610.191833,694.865112L610.378540,695.032593L610.594299,695.160400L610.830933,695.243652L611.079285,695.279175L611.329773,695.265564L611.572754,695.203369L611.799011,695.094849L611.999756,694.944397L612.167175,694.757690L612.294983,694.541870L612.378357,694.305176L612.413818,694.056885L612.400146,693.806396L612.337891,693.563354L609.421143,685.573608L610.092285,675.782227L615.163879,667.225708L625.775330,655.230774L650.660889,642.986450L674.508301,629.182739L713.203552,613.185303L763.826477,608.711853L783.678345,613.144897L785.267700,639.754517L776.880432,711.283142L764.641602,830.047668L746.521790,947.115845L744.130249,956.509827L744.071777,939.938049L743.359375,841.477417L737.394348,744.444214L733.723083,668.335510L733.569214,667.389160L733.210754,666.499756L732.665405,665.711060L731.959900,665.061646L731.128784,664.583496L730.212830,664.299866L729.256897,664.224731L728.307861,664.361816L718.351685,667.238403L687.318787,679.256409L663.592346,689.074463L646.795166,697.280518L637.650330,703.352905L625.525269,702.222229L617.797913,698.963379L612.053284,693.109253L611.861816,692.947266L611.642395,692.825806L611.403381,692.749512L611.154114,692.721313L610.904114,692.742188L610.663025,692.811523L610.440002,692.926514L610.243835,693.082825L610.081970,693.274414L609.960388,693.493774L609.884216,693.732788L609.855957,693.982056L609.876892,694.232056L609.946106,694.473145L610.061096,694.696045L610.217468,694.892273L616.083313,700.992798L616.504944,701.284363L624.596619,704.896484L637.863953,706.620117L638.407593,706.587280L638.909302,706.375305L648.427734,700.520142L665.243225,693.213135L689.351868,684.923950L720.556458,675.039246L725.339783,674.083313L729.066589,744.895691L735.831238,841.523376L732.410583,939.733032L730.693481,1011.135010L730.803345,1012.420044L731.176636,1013.654541L731.797119,1014.785217L732.638123,1015.763062L733.663086,1016.545898L734.827759,1017.099731L736.081909,1017.400818L737.371155,1017.435913L738.639832,1017.203674L739.832947,1016.714111L740.899170,1015.988281L741.792114,1015.057678L742.473328,1013.962585L742.913330,1012.750183L758.540039,949.762329L772.521423,831.070679L786.719910,712.374695L794.099609,640.286865L790.808167,609.787537L790.609253,608.871582L790.186401,608.035034L789.566650,607.331787L788.790039,606.806946L787.906372,606.494263L764.780151,601.635620L712.168457,607.446045L672.630188,625.210571L648.981323,639.816467L624.216248,652.780457L623.781311,653.119324L613.075562,665.570068L607.723450,674.744507L607.549927,675.308105L606.869690,685.670959L606.943237,686.189880z" fill="#000000" stroke="none" fill-opacity="1" />
				<polygon points="901.320984,627.875000 899.794312,624.551819 899.293274,620.580383 899.964905,616.008057 902.147217,610.567383 905.791565,604.433960 912.613831,595.870422 919.513550,588.144165 946.032166,564.898376 959.531494,554.140320 975.227234,568.216431 1012.309753,619.163879 1055.798096,685.296753 1086.001587,755.583252 1095.763794,805.559021 1071.780762,756.493042 1041.371216,701.399170 1006.091736,656.794556 950.778442,605.290527 945.569519,608.977539 931.674072,620.937256 924.103333,626.245850 916.916382,630.278809 911.540405,631.960999 907.140015,631.888184 903.784180,630.415649" fill="#C55134" stroke="none" fill-opacity="1" />
				<path d="M899.473633,628.723755L899.674744,629.067871L899.938965,629.366089L900.256470,629.607056L900.614807,629.781494L901.000366,629.882629L901.398132,629.906616L901.792969,629.852478L902.169739,629.722412L902.513794,629.521362L902.812073,629.256958L903.053040,628.939514L903.227417,628.581177L903.328613,628.195679L903.352600,627.797852L903.298462,627.403015L903.168396,627.026306L901.802979,623.978394L901.419739,620.601990L902.068848,616.575989L904.169434,611.566284L907.744690,605.782837L914.591553,597.538940L921.505676,590.154785L948.454407,567.795837L959.374512,559.536377L971.973083,571.154907L1009.078247,621.400513L1053.343262,686.618042L1082.618896,756.627319L1086.001221,776.467651L1074.854736,754.990479L1043.622070,700.156738L1008.359375,655.000977L953.015442,602.888062L952.415649,602.445312L951.731384,602.149231L950.997925,602.015198L950.253174,602.050171L949.535522,602.252319L948.881958,602.611145L943.795532,606.471191L930.128845,618.950806L922.886047,624.310547L916.072021,628.321838L911.244934,629.913452L907.578064,629.882629L904.954834,628.730469L902.780640,626.459900L902.476501,626.202271L902.127930,626.009033L901.748413,625.887451L901.352478,625.842224L900.955261,625.875122L900.572144,625.984924L900.217834,626.167358L899.905884,626.415405L899.648315,626.719482L899.454956,627.067993L899.333435,627.447571L899.288208,627.843567L899.321106,628.240723L899.430908,628.623901L899.613281,628.978210L899.861328,629.290161L902.338501,631.817200L902.975037,632.259460L906.331360,633.731079L907.106750,633.900452L911.506653,634.003052L917.549438,632.301880L925.220764,628.237244L933.117126,622.995239L947.462341,611.399780L950.495605,609.512451L1003.960449,658.760620L1039.222778,702.827637L1068.744141,758.071899L1092.166382,807.317505L1092.601440,808.015259L1093.169678,808.609375L1093.847534,809.075012L1094.605957,809.392334L1095.413452,809.547974L1096.235596,809.535461L1097.037842,809.355286L1097.786377,809.015015L1098.449585,808.529053L1098.999634,807.917847L1099.413208,807.207153L1099.672974,806.427002L1099.767822,805.610229L1099.693848,804.791382L1089.456543,754.908325L1058.349609,684.200317L1015.592407,617.005249L978.752502,565.650574L962.283630,551.071533L961.497131,550.517090L960.603516,550.160034L959.651489,550.019958L958.692871,550.104492L957.779907,550.408875L956.962585,550.916687L943.679138,561.945801L917.651245,586.019775L910.684692,594.147583L903.939392,602.958496L900.213928,609.418701L897.956238,615.202332L897.208557,620.274170L897.745911,624.810242z" fill="#000000" stroke="none" fill-opacity="1" />
			</g>
			<g id="layer.head.uuid_0x4">
				<polygon points="535.648438,112.932007 605.648743,118.491760 670.246521,130.428284 714.482056,195.728394 743.270203,251.198425 755.206726,284.901672 765.036865,341.775940 746.078796,384.607239 713.779907,423.927673 693.553467,437.823120 681.345032,448.182678 697.870483,419.319458 700.364258,389.906555 690.619080,364.782471 655.501343,373.489746 629.755798,378.755859 589.382202,384.607056 591.722656,405.671448 602.840088,427.906067 616.883057,446.044800 625.659973,454.821655 582.945862,453.066345 560.125854,448.970459 532.625000,440.193542 502.783600,426.150696 479.963684,409.767334 464.165253,390.458191 433.153564,374.659912 396.875824,354.180725 351.236023,323.169250 324.320251,296.253601 334.852539,261.731384 350.065826,225.453857 369.374969,192.738464 402.727173,152.898743 422.621429,135.930298 483.474457,117.791382 509.561493,115.361633" fill="#C66F35" stroke="none" fill-opacity="1" />
				<path d="M535.853394,110.352051L535.346191,110.361694L534.850525,110.469910L534.385559,110.672974L533.969116,110.962830L533.617188,111.328186L533.343323,111.755371L533.158142,112.227600L533.068542,112.727051L533.078186,113.234253L533.186584,113.729980L533.389587,114.194824L533.679321,114.611328L534.044739,114.963196L534.471863,115.237061L534.944153,115.422302L535.443542,115.511780L604.943115,123.847656L664.530762,139.170410L708.454407,199.317627L738.819763,253.130371L751.048828,285.988953L761.157532,341.297241L742.864197,382.626587L708.897095,418.607361L688.244629,430.095520L684.460754,444.434814L702.100220,421.741211L702.727051,419.731201L705.220764,390.318298L704.908386,388.143921L693.437195,363.689453L693.095459,363.049316L692.611023,362.509094L692.011963,362.099854L691.332397,361.845276L690.611816,361.759949L689.891663,361.848633L654.834534,370.540894L629.235840,375.776978L588.948669,381.615601L588.307251,381.781982L587.717529,382.084106L587.207825,382.507385L586.802612,383.031616L586.521240,383.631470L586.377502,384.278259L586.377991,384.940796L588.718506,406.005188L598.888672,429.881775L612.406494,449.510620L617.300354,451.156189L583.944092,443.971802L562.329346,440.092285L535.759155,432.216858L507.134308,418.746338L485.600098,403.763794L470.483856,385.288513L467.871063,383.183838L437.014923,367.464783L401.184021,347.237732L356.462952,316.850464L333.559418,293.947144L342.540833,264.508301L355.618652,228.240601L373.445465,195.614441L408.304443,158.425049L428.567596,146.867981L484.583405,123.517456L509.950562,119.539734L535.888489,115.508789L536.386536,115.412415L536.856323,115.220825L537.279663,114.941162L537.640259,114.584290L537.924438,114.163940L538.121033,113.696350L538.222656,113.199219L538.225281,112.691895L538.128906,112.193909L537.937378,111.724060L537.657654,111.300781L537.300842,110.940125L536.880493,110.655945L536.412903,110.459351L535.915771,110.357849L535.408447,110.355103L509.172272,111.183777L482.936127,112.012329L419.141998,124.257263L414.716888,126.662903L397.649841,146.946045L365.566132,189.549927L344.727814,222.303284L327.323761,258.574158L316.511566,293.871277L316.158905,296.043457L316.399414,298.231018L317.215302,300.274841L318.547455,302.026428L345.463226,328.942017L392.287537,360.933350L429.140198,381.769409L458.932129,396.954651L473.645142,414.937073L497.795929,433.097717L528.983459,447.931763L557.350647,457.666138L581.333191,462.050598L625.285156,463.941833L627.265930,463.807129L629.170654,463.247375L630.909363,462.288940L632.399780,460.977356L633.571289,459.374512L634.368591,457.556274L634.753784,455.608765L634.708984,453.623901L634.235840,451.695740L633.357117,449.915466L632.114319,448.367249L621.140015,442.295349L606.598022,425.543579L594.667297,404.801819L592.709229,387.179016L630.189331,381.747192L656.107117,376.451050L688.763428,368.356812L695.412537,390.618103L693.105042,417.833374L677.115234,445.760986L676.719055,446.647766L676.506531,447.595459L676.486206,448.566467L676.658691,449.522278L677.017395,450.424866L677.547852,451.238342L678.229065,451.930603L679.034058,452.474060L679.930847,452.846985L680.883789,453.034790L681.854980,453.029907L682.805908,452.832520L683.698914,452.450439L684.498413,451.898987L699.255676,445.280518L717.828552,429.821045L748.969727,386.981873L768.457886,343.290161L768.749878,342.234131L768.723389,341.138794L759.426575,284.172302L747.832581,249.582520L720.698059,192.502441L678.223633,125.024536L676.535522,123.128784L674.410889,121.739624L671.997314,120.953613L606.629028,113.186584z" fill="#000000" stroke="none" fill-opacity="1" />
				<polyline points="422.039124,127.676147 416.621338,121.919739 407.072418,113.454285 381.795013,100.113525 338.261658,83.261963 305.260620,74.835999 246.982101,63.601685 206.257339,65.005859 171.149780,72.027405 150.787415,81.857544 145.170212,95.198486 216.087402,65.708069 248.386414,65.005859 296.834808,75.538208 339.665985,88.879150 380.390747,107.837097 411.987518,134.518921" fill="#000000" stroke="none" fill-opacity="1" />
				<polyline points="669.671509,120.252747 675.667908,114.931885 685.897217,107.101440 711.442627,95.291870 754.575500,81.650269 788.176941,77.611023 851.227478,79.991028 893.594055,93.437073 926.407166,111.763000 943.809875,127.667480 946.987793,142.152161 883.452332,90.814209 849.459656,80.828125 796.520081,79.588806 752.231201,86.966736 711.479492,103.130371 678.059631,128.140198" fill="#000000" stroke="none" fill-opacity="1" />
			</g>
			<g id="layer.eyes.uuid_0x5">
				<polyline points="444.059937,289.361389 428.619080,282.859924 439.996521,271.888794 463.564026,261.323975 498.915405,255.635254 516.794128,256.041565 533.454041,262.136658 552.145508,275.952148 570.430664,303.176819 576.119446,321.055725 522.076538,312.116272 479.411163,307.240173 442.434509,305.208557 425.774780,305.208557 449.342255,291.393066" fill="#000000" stroke="none" fill-opacity="1" />
				<polyline points="654.136108,288.955017 668.357849,261.730347 674.859253,251.165588 682.986023,244.257751 692.331787,241.007019 707.366211,242.632446 723.619690,248.321167 740.685791,258.479614 750.437866,267.012756 736.216125,272.295105 743.123840,277.171143 748.812561,281.640869 728.089417,285.704224 708.585266,290.580322 685.017700,296.675415 663.888184,303.989502 641.539612,311.709961" fill="#000000" stroke="none" fill-opacity="1" />
				<polyline points="661.476135,286.310364 672.054016,271.702332 683.396362,258.542725 695.404968,255.236877 710.222656,258.674683 728.544006,271.325012 717.511536,275.727539 697.926880,283.514587 678.428955,292.657654 647.036011,306.782776" fill="#FBBB00" stroke="none" fill-opacity="1" />
				<polyline points="550.869446,309.153076 525.134644,303.735291 487.548309,295.269897 456.734406,289.174805 472.987946,279.016418 491.273132,271.228271 511.590057,269.196594 520.732666,270.889648 539.017883,277.661987 550.192139,287.143127 563.736755,302.042114 573.218018,315.586731" fill="#FBBB00" stroke="none" fill-opacity="1" />
				<polyline points="435.380005,329.193665 429.962158,323.437256 420.413269,314.971863" fill="#6C1828" stroke="none" fill-opacity="1" />
				<path d="M434.057037,330.438782L434.325378,330.672913L434.634216,330.850281L434.971741,330.963989L435.324921,331.009521L435.680298,330.985413L436.024048,330.892395L436.343079,330.734131L436.625153,330.516663L436.859283,330.248230L437.036621,329.939392L437.150238,329.601929L437.195862,329.248657L437.171722,328.893311L437.078735,328.549622L436.920380,328.230591L436.702972,327.948547L432.504486,321.044495L421.639404,313.588806L421.346008,313.376221L421.016785,313.224854L420.664337,313.140747L420.302307,313.126953L419.944519,313.183960L419.604736,313.309814L419.296051,313.499512L419.030243,313.745789L418.817596,314.039124L418.666351,314.368347L418.582153,314.720825L418.568359,315.082825L418.625488,315.440613L418.751251,315.780457L418.940918,316.089050L419.187195,316.354919L427.528076,325.944885z" fill="#000000" stroke="none" fill-opacity="1" />
				<polyline points="457.615784,337.828308 448.134521,326.992676 438.585632,318.527344" fill="#6C1828" stroke="none" fill-opacity="1" />
				<path d="M456.248505,339.024719L456.508179,339.268433L456.810333,339.456848L457.143585,339.582703L457.494904,339.641052L457.850891,339.629822L458.197815,339.549316L458.522400,339.402710L458.812073,339.195618L459.055847,338.935913L459.244293,338.633667L459.370117,338.300598L459.428467,337.949219L459.417267,337.593201L459.336761,337.246338L459.190125,336.921753L458.983002,336.632019L450.761902,324.693726L439.811768,317.144287L439.518433,316.931702L439.189209,316.780396L438.836700,316.696167L438.474731,316.682434L438.116882,316.739502L437.777100,316.865295L437.468353,317.054932L437.202606,317.301208L436.989960,317.594666L436.838715,317.923889L436.754486,318.276245L436.740723,318.638306L436.797852,318.996094L436.923615,319.335938L437.113281,319.644592L437.359558,319.910400L445.652924,329.458191z" fill="#000000" stroke="none" fill-opacity="1" />
				<polyline points="483.801971,345.108643 474.320801,334.272949 460.708557,320.728333" fill="#6C1828" stroke="none" fill-opacity="1" />
				<path d="M482.434753,346.304871L482.694427,346.548645L482.996643,346.737000L483.329803,346.862915L483.681122,346.921265L484.037170,346.910034L484.384033,346.829590L484.708588,346.682922L484.998352,346.475830L485.242126,346.216125L485.430481,345.913879L485.556366,345.580750L485.614746,345.229431L485.603485,344.873474L485.523071,344.526550L485.376343,344.201965L485.169220,343.912231L476.948181,331.973877L462.012177,319.418152L461.731537,319.188965L461.411560,319.018982L461.064545,318.914734L460.703918,318.880066L460.343445,318.916504L459.996948,319.022522L459.677887,319.194092L459.398315,319.424622L459.169220,319.705322L458.999146,320.025330L458.894806,320.372253L458.860199,320.732971L458.896667,321.093506L459.002686,321.439941L459.174225,321.759033L459.404816,322.038513L471.772797,336.662659z" fill="#000000" stroke="none" fill-opacity="1" />
				<polyline points="710.729614,314.163208 705.230957,310.668091 695.881714,305.850037" fill="#6C1828" stroke="none" fill-opacity="1" />
				<path d="M709.926331,315.427002L710.188354,315.559387L710.471069,315.638184L710.763733,315.660278L711.055176,315.624878L711.334045,315.533203L711.589661,315.388977L711.812256,315.197571L711.993286,314.966492L712.125732,314.704590L712.204468,314.421753L712.226562,314.129089L712.191162,313.837646L712.099548,313.558838L711.955261,313.303162L711.763977,313.080566L711.532837,312.899536L706.774597,308.239746L696.579590,304.495911L696.301941,304.385803L696.008240,304.331970L695.709595,304.336365L695.417725,304.399109L695.143433,304.517456L694.897705,304.687073L694.689697,304.901428L694.527588,305.152222L694.417480,305.429871L694.363647,305.723511L694.368042,306.022095L694.430725,306.314148L694.549194,306.588318L694.718750,306.834045L694.933105,307.042053L695.183899,307.204163L703.797302,313.166321z" fill="#000000" stroke="none" fill-opacity="1" />
				<polyline points="733.005615,315.812439 723.228088,309.087463 713.878784,304.269409" fill="#6C1828" stroke="none" fill-opacity="1" />
				<path d="M732.157104,317.046143L732.414062,317.187988L732.693848,317.276978L732.985474,317.309631L733.278015,317.284729L733.560059,317.203430L733.820740,317.068420L734.050110,316.885315L734.239380,316.660950L734.381226,316.403992L734.470215,316.124207L734.502930,315.832520L734.477966,315.540039L734.396667,315.258057L734.261719,314.997253L734.078552,314.767883L733.854187,314.578613L724.858765,306.716675L714.576721,302.915222L714.299011,302.805115L714.005249,302.751221L713.706665,302.755676L713.414795,302.818420L713.140564,302.936768L712.894775,303.106445L712.686768,303.320740L712.524658,303.571533L712.414551,303.849121L712.360657,304.142822L712.365112,304.441467L712.427795,304.733459L712.546265,305.007629L712.715881,305.253357L712.930237,305.461365L713.180969,305.623535L721.747803,311.561646z" fill="#000000" stroke="none" fill-opacity="1" />
				<polyline points="751.396423,314.184692 741.618774,307.459717 727.990540,299.411804" fill="#6C1828" stroke="none" fill-opacity="1" />
				<path d="M750.547791,315.418396L750.804871,315.560181L751.084534,315.649292L751.376221,315.681885L751.668701,315.657043L751.950684,315.575684L752.211487,315.440735L752.440857,315.257629L752.630127,315.033203L752.771973,314.776184L752.860901,314.496521L752.893616,314.204773L752.868774,313.912354L752.787415,313.630310L752.652466,313.369568L752.469360,313.140198L752.244995,312.950928L743.249512,305.088867L728.765198,298.100037L728.494385,297.974121L728.204224,297.903442L727.905823,297.890747L727.610779,297.936462L727.330261,298.038940L727.075134,298.194092L726.855164,298.396118L726.678772,298.637146L726.552917,298.907959L726.482300,299.198120L726.469604,299.496460L726.515320,299.791626L726.617676,300.072083L726.772949,300.327271L726.974976,300.547241L727.215942,300.723511L740.070068,309.886780z" fill="#000000" stroke="none" fill-opacity="1" />
				<polyline points="553.288635,309.504272 553.525879,306.712402 553.525879,301.032471 552.421570,294.524353 547.721252,286.740784 539.878601,281.981323 535.253967,285.479431 531.940674,290.922668 532.035706,304.056396 532.413940,305.040588" fill="#FEFEFE" stroke="none" fill-opacity="1" />
				<path d="M553.067200,309.485535L553.067810,309.529114L553.076904,309.571716L553.094116,309.611694L553.118713,309.647644L553.149963,309.678040L553.186584,309.701660L553.226990,309.717834L553.269775,309.725769L553.313416,309.725159L553.355957,309.716064L553.395996,309.698914L553.431946,309.674255L553.462280,309.643005L553.485962,309.606445L553.502136,309.565979L553.510010,309.523132L556.537720,306.968445L556.548645,301.032471L555.401550,294.018616L555.008972,292.961792L548.676758,286.163818L548.300293,285.786621L541.446777,279.397278L540.791626,279.099915L540.084717,278.965698L539.366150,279.002441L538.676514,279.207947L538.055115,279.570618L533.430420,283.068787L532.671936,283.907837L529.358704,289.351074L528.918152,290.944519L529.013245,304.078247L532.206482,305.120239L532.226074,305.159241L532.252869,305.193604L532.285767,305.222046L532.323669,305.243591L532.364990,305.257263L532.408264,305.262634L532.451721,305.259521L532.493713,305.247925L532.532654,305.228516L532.567017,305.201660L532.595459,305.168762L532.617004,305.130798L532.630737,305.089478L532.636108,305.046204L532.632996,305.002869L532.621338,304.960815L535.005676,303.494263L534.969421,291.760132L537.536438,287.542847L540.065063,285.630188L546.907532,287.552673L549.537537,295.595703L550.503296,301.287170L550.506042,306.584351z" fill="#FEE398" stroke="none" fill-opacity="1" />
				<polyline points="665.740967,298.198975 664.918274,295.520386 663.716492,289.969055 662.761475,286.332825 669.488586,277.073608 675.160522,269.447693 676.804993,270.573364 682.673950,275.520996 685.359924,288.377441 685.198547,289.419373" fill="#FEFEFE" stroke="none" fill-opacity="1" />
				<path d="M665.528564,298.264160L665.545410,298.304321L665.569641,298.340515L665.600586,298.371216L665.636841,298.395264L665.677185,298.411865L665.719910,298.420166L665.763489,298.420044L665.806152,298.411377L665.846375,298.394531L665.882568,298.370178L665.913208,298.339294L665.937378,298.302979L665.953857,298.262695L665.962219,298.219971L665.962036,298.176331L665.953369,298.133667L667.842651,294.756226L666.670654,289.329590L664.148621,286.593445L669.667542,277.205200L675.443298,271.140564L674.974976,272.978943L679.928528,277.159851L682.338379,288.456482L684.978882,289.385376L684.976501,289.428833L684.982666,289.471985L684.997009,289.513123L685.019226,289.550659L685.048279,289.583069L685.083130,289.609253L685.122314,289.628113L685.164551,289.638916L685.208008,289.641357L685.251160,289.635254L685.292236,289.620850L685.329773,289.598694L685.362244,289.569580L685.388367,289.534851L685.407288,289.495605L685.418152,289.453369L688.346924,288.840149L685.632751,274.902771L685.269409,273.971680L684.622253,273.209900L678.753235,268.262268L675.859253,268.426758L675.621033,268.299316L675.360901,268.226807L675.091003,268.212463L674.824646,268.257019L674.574219,268.358215L674.351685,268.511536L674.167786,268.709351L669.310181,276.940979L661.729614,285.583191L661.556213,285.915588L661.487000,286.284058L661.527954,286.656738L660.776184,290.673096L661.964111,296.159912z" fill="#FEE398" stroke="none" fill-opacity="1" />
			</g>
		</g>
	</g>
</svg>
