<?xml version="1.0" encoding="UTF-8"?>
<!-- Generator: Blender, SVG Export for Grease Pencil - v2.0 -->
<!DOCTYPE svg PUBLIC "-//W3C//DTD SVG 1.1//EN" "http://www.w3.org/Graphics/SVG/1.1/DTD/svg11.dtd">
<svg version="1.1" x="0px" y="0px" xmlns="http://www.w3.org/2000/svg" width="1920.000000px" height="1080.000000px" viewBox="0 0 1920.000000 1080.000000">
	<g id="blender_frame.7">
		<g id="blender_object.Stroke.7.uuid_0x0">
			<g id="layer.Fills.uuid_0x1" />
			<g id="layer.black.uuid_0x2" />
			<g id="layer.skin.uuid_0x3" />
			<g id="layer.yella.uuid_0x4" />
			<g id="layer.red.uuid_0x5">
				<polyline points="267.447449,701.528931 240.217941,812.708862 189.021591,791.183960 144.335449,787.616577 184.958206,790.866943 324.533997,851.441833 576.455017,944.048340 387.314819,955.752808 93.872444,909.543213 21.125505,838.080078 28.718319,810.498413 179.356552,717.050171" fill="#D19048" stroke="none" fill-opacity="1" />
				<path d="M272.140045,702.678223L272.274109,701.740662L272.222656,700.794983L271.987762,699.877441L271.578308,699.023438L271.010101,698.265747L270.305023,697.633301L269.490112,697.150757L268.596710,696.836304L267.659180,696.702332L266.713470,696.753784L265.795959,696.988708L264.941956,697.398193L264.184143,697.966309L263.551880,698.671387L263.069214,699.486206L262.754791,700.379700L238.194626,808.689026L190.171036,788.450073L144.437988,786.332275L144.168777,786.339050L143.906769,786.401611L143.663574,786.517334L143.449692,786.681030L143.274536,786.885620L143.145737,787.122192L143.068939,787.380249L143.047485,787.648682L143.082321,787.915771L143.171936,788.169739L143.312363,788.399658L143.497513,788.595215L143.719254,788.748047L143.967987,788.851440L144.232697,788.900879L184.254288,793.686401L323.414185,854.021973L558.591003,941.435547L387.493134,951.977295L95.260330,906.786011L27.269669,836.426941L33.551159,814.112427L181.831970,721.040649L182.562958,720.481018L183.170639,719.789551L183.631714,718.992798L183.928589,718.121460L184.049774,717.208923L183.990540,716.290283L183.753189,715.400879L183.346924,714.574829L182.787323,713.843872L182.095871,713.236145L181.299194,712.775024L180.427780,712.478271L179.515289,712.357056L178.596664,712.416260L177.707230,712.653564L176.881195,713.059814L25.756359,805.723694L24.671228,806.600830L23.835583,807.718262L23.301086,809.007080L15.837192,836.624329L15.640468,838.064209L15.828780,839.505188L16.389027,840.846130L17.281666,841.992981L91.812454,911.640198L92.550713,912.168823L93.415138,912.446960L386.730255,959.464417L576.684265,947.752441L577.450684,947.623474L578.173462,947.337769L578.820862,946.907715L579.364563,946.352234L579.780579,945.695740L580.050781,944.967041L580.163269,944.197937L580.113037,943.422363L579.902466,942.674255L579.540710,941.986328L579.043579,941.388916L578.432922,940.908081L577.735474,940.565063L325.579926,848.829651L186.099411,788.237366L145.619705,787.719360L188.310974,794.102295L239.085663,815.401917L239.689407,815.582031L240.317688,815.628540L240.941376,815.539307L241.531387,815.318359L242.060211,814.976074L242.503571,814.528320L242.840485,813.996094L243.055511,813.403809z" fill="#000000" stroke="none" fill-opacity="1" />
				<polyline points="511.204926,768.178223 443.868805,825.628052 428.779938,808.540405 483.394562,707.880493 724.230652,683.643921 737.716125,702.718750 689.932251,812.899719 418.275208,965.515503 283.498810,1035.310791 259.723480,1036.674438 203.712540,997.658630 198.825699,955.185852 240.572357,929.378357 317.587097,900.154785 337.532471,906.112366 511.160065,769.396790 576.379639,731.762207" fill="#D19048" stroke="none" fill-opacity="1" />
				<path d="M513.000244,770.282593L513.376221,769.891846L513.668823,769.435303L513.866699,768.930420L513.962402,768.396729L513.951965,767.854614L513.836060,767.324829L513.619080,766.828003L513.309143,766.382935L512.918457,766.006897L512.461975,765.714355L511.957062,765.516479L511.423279,765.420837L510.881195,765.431213L510.351410,765.547119L509.854645,765.764221L509.409576,766.073975L444.268433,819.973083L432.862061,808.076660L485.162201,710.537720L721.236511,690.214905L730.617920,703.453125L686.834961,810.105225L416.364380,961.974487L282.069855,1030.097900L260.984955,1032.212891L207.560745,995.359924L201.972473,956.710938L241.827560,931.923340L317.822540,906.654907L335.906036,911.557495L337.243134,911.787842L338.596680,911.694702L339.889587,911.283325L341.048126,910.577271L512.717285,771.696533L576.969177,732.783813L577.157104,732.649231L577.315308,732.480530L577.437378,732.284180L577.518860,732.067871L577.556641,731.839722L577.549072,731.608582L577.496643,731.383362L577.401245,731.172729L577.266663,730.984741L577.097961,730.826660L576.901550,730.704529L576.685181,730.623047L576.457092,730.585327L576.226013,730.592773L576.000793,730.645264L575.790100,730.740662L509.775574,766.997437L336.333557,899.823303L319.350342,894.251587L317.364105,893.997925L315.401459,894.394653L239.570206,926.737366L197.273468,952.675049L196.749634,953.087402L196.331680,953.606812L196.040939,954.206726L195.892242,954.856628L195.893158,955.523315L199.653458,998.125671L199.944763,999.239014L200.534882,1000.226990L201.377151,1001.011230L257.218964,1040.270020L258.531250,1040.890991L259.974457,1041.049072L283.801575,1040.588257L285.929718,1040.004883L420.125305,969.087952L691.868530,816.346375L692.867310,815.548035L693.559082,814.472656L743.422607,705.193481L743.863342,703.666992L743.903076,702.078613L743.539062,700.531982L742.794983,699.128113L729.324402,680.042725L728.208557,678.838623L726.817261,677.967285L725.246765,677.489075L723.606018,677.437073L483.112091,705.073730L482.444214,705.224487L481.832184,705.531738L481.312408,705.977417L480.915192,706.535156L425.820557,806.934753L425.520264,807.697571L425.413239,808.510376L425.505707,809.324951L425.792419,810.092896L426.256165,810.768921L440.838562,828.303955L441.501923,828.905396L442.281525,829.346069L443.138947,829.604309L444.032196,829.667419L444.917480,829.532349L445.751282,829.205688L446.492676,828.703491z" fill="#000000" stroke="none" fill-opacity="1" />
				<polyline points="620.969482,926.146973 660.300842,893.466064 625.459534,851.471436 595.851501,846.754822 560.512024,861.697876 526.646423,894.842163" fill="#D19048" stroke="none" fill-opacity="1" />
				<path d="M618.920410,923.680908L618.478638,924.128052L618.132690,924.652832L617.895630,925.234924L617.776733,925.852112L617.780640,926.480652L617.906982,927.096313L618.151001,927.675598L618.503479,928.196045L618.950623,928.637817L619.475281,928.983765L620.057495,929.220825L620.674622,929.339661L621.303162,929.335876L621.918884,929.209473L622.498169,928.965454L623.018494,928.613037L663.703369,897.561096L664.528992,896.701721L665.142700,895.680237L665.513977,894.547852L665.623962,893.361267L665.467285,892.179932L665.051819,891.063049L664.398438,890.066528L629.043945,848.497559L627.766113,847.425171L626.192261,846.872009L596.368652,843.508179L595.454529,843.491333L594.571106,843.726868L559.368652,858.993774L558.458496,859.599609L524.070923,892.210632L523.606995,892.763672L523.259888,893.396545L523.042969,894.085022L522.964539,894.802551L523.027466,895.521606L523.229614,896.214539L523.562927,896.854736L524.014893,897.417664L524.567871,897.881592L525.200684,898.228638L525.889221,898.445557L526.606750,898.524048L527.325867,898.461060L528.018860,898.258972L528.658997,897.925598L529.221802,897.473694L562.167969,864.185364L596.264404,850.149536L622.994934,855.794922L652.806213,892.771118z" fill="#000000" stroke="none" fill-opacity="1" />
				<polyline points="208.099197,282.129944 182.277771,530.064575 145.993881,554.379639 132.063675,562.855286 113.653793,568.485840 132.429886,532.474915 125.005638,538.408752 100.883850,557.305603 72.311272,574.643982 57.294556,547.053345 42.461697,494.327637 42.054005,461.589417 53.518005,405.519531 35.636044,436.878601 12.094287,465.424255 13.740520,427.288940 24.230118,386.032043 36.276680,362.341614 67.043549,325.466309 48.321075,330.059692 32.125168,330.043518 23.518982,324.408020 17.398624,316.253784 48.980198,304.170959 71.015564,289.773621 93.187698,272.979553 117.760391,258.720032 162.891602,238.616699" fill="#D19048" stroke="none" fill-opacity="1" />
				<path d="M210.950363,282.426819L210.953522,281.864929L210.847031,281.313171L210.634842,280.792786L210.325302,280.323792L209.930130,279.924255L209.464691,279.609436L208.946671,279.391541L208.396164,279.278748L207.834259,279.275635L207.282486,279.382202L206.762177,279.594299L206.293198,279.903931L205.893570,280.299011L205.578735,280.764526L205.360794,281.282410L205.248108,281.832947L179.165100,528.190002L144.065262,551.360718L130.557175,559.497253L121.396347,562.050110L136.648346,534.674377L137.013748,533.748230L137.178314,532.766235L137.135010,531.771545L136.885590,530.807617L136.441040,529.916809L135.820709,529.137939L135.051956,528.505310L134.168243,528.046509L133.208481,527.781677L132.214554,527.722351L131.230133,527.871277L130.298248,528.221863L129.459686,528.758667L122.103645,534.741394L98.403450,553.718506L74.066681,568.136108L62.007122,545.136414L47.993999,493.529175L47.343922,462.091431L57.504898,406.334717L57.587299,405.519104L57.504669,404.703552L57.260227,403.921082L56.863861,403.203430L56.331882,402.579895L55.685577,402.075500L54.951324,401.710999L54.158936,401.500977L53.340450,401.454102L52.529293,401.572144L51.758247,401.850342L51.058559,402.277527L50.458660,402.836243L49.982929,403.503845L31.778009,434.216797L18.097971,449.777893L18.544178,427.995605L28.198526,387.524353L39.474049,364.449524L69.536301,327.546265L69.913383,326.984070L70.165726,326.355896L70.282455,325.689148L70.258080,325.012573L70.094208,324.355774L69.797508,323.747314L69.381180,323.213562L68.863220,322.777771L68.266129,322.458801L67.615814,322.270691L66.940605,322.221436L66.269989,322.313232L47.903133,326.587585L33.242851,326.303040L26.229572,321.517822L23.830431,318.108521L50.251923,307.495178L72.897202,292.653503L95.077690,275.820496L119.230499,261.596680L163.779434,240.609802L164.151245,240.398376L164.474655,240.118469L164.737228,239.780701L164.928802,239.398254L165.042175,238.985840L165.072845,238.559204L165.019669,238.134705L164.884811,237.728760L164.673325,237.356934L164.393280,237.033569L164.055634,236.771057L163.673172,236.579407L163.260727,236.466064L162.834091,236.435364L162.409561,236.488525L162.003693,236.623413L116.447693,255.773193L91.478287,270.033875L69.033791,286.959229L47.352448,300.982910L15.958328,312.489319L15.220641,312.862366L14.574508,313.378113L14.047108,314.014832L13.660870,314.745667L13.431758,315.540039L13.369503,316.364380L13.476848,317.184143L13.749217,317.964722L14.175110,318.673279L20.397663,326.750916L30.075531,333.173645L31.054001,333.628357L32.121449,333.785034L48.317581,333.531250L58.220211,330.973755L33.354721,359.903564L20.473995,384.122070L9.059830,426.098877L6.775990,465.194641L6.843109,466.297485L7.136478,467.362671L7.643337,468.344421L8.342113,469.200256L9.202423,469.893555L10.187244,470.394226L11.254291,470.680786L12.357502,470.741028L13.449326,470.572144L14.482956,470.181519L15.413531,469.585999L16.201115,468.811157L39.238873,439.849915L44.424133,429.682129L36.877728,460.531067L36.920296,494.396667L52.427841,548.422485L68.224411,576.868408L68.842560,577.745361L69.645134,578.457397L70.589615,578.966736L71.625534,579.246155L72.697906,579.280884L73.749786,579.069092L74.725113,578.621887L103.142395,561.027405L127.889610,542.090210L129.406860,536.148376L110.204590,566.687439L109.901901,567.458984L109.769493,568.277161L109.813560,569.104797L110.031792,569.904297L110.414597,570.639526L110.944344,571.276855L111.597107,571.787598L112.343391,572.148315L113.149055,572.342773L113.977600,572.362183L114.791504,572.205627L133.131699,566.347473L147.855545,557.439453L184.109283,532.797668L184.818924,532.154297L185.313202,531.333618L185.550095,530.405457z" fill="#000000" stroke="none" fill-opacity="1" />
				<polygon points="355.558929,62.653748 354.679291,44.847412 359.200958,27.503418 366.899567,16.429077 388.750641,31.578735 377.649780,37.703003 362.544739,53.340088" fill="#D19048" stroke="none" fill-opacity="1" />
				<path d="M353.016571,62.779419L353.089935,63.272949L353.258148,63.742798L353.514801,64.170776L353.850006,64.540405L354.250946,64.837524L354.702057,65.050720L355.186188,65.171875L355.684601,65.196228L356.178162,65.122803L356.647980,64.954590L357.075867,64.697937L357.445496,64.362732L357.742645,63.961792L357.955902,63.510681L358.077026,63.026550L358.101349,62.528076L356.558411,45.041382L361.681305,28.644775L367.656708,20.624634L383.657776,31.318604L376.874817,36.298462L361.525421,52.355469L353.522644,61.126404L353.263763,61.552979L353.093201,62.021790L353.017242,62.515137L353.039062,63.013550L353.157745,63.498352L353.368561,63.950562L353.663666,64.352966L354.031616,64.690125L354.458191,64.948914L354.927124,65.119446L355.420288,65.195435L355.918793,65.173645L356.403503,65.054993L356.855743,64.844116L357.258148,64.549011L357.595245,64.181152L363.625549,54.261230L378.635956,38.991089L390.049011,33.932129L390.542786,33.581909L390.945618,33.130005L391.237152,32.599487L391.402527,32.017212L391.433411,31.412720L391.328247,30.816528L391.092346,30.259033L390.737640,29.768555L390.282166,29.369751L368.618256,13.950195L368.024078,13.630127L367.373535,13.450195L366.699310,13.419312L366.035095,13.539185L365.414246,13.803711L364.867676,14.199829L364.422852,14.707275L356.993927,25.969238L352.872437,44.376343z" fill="#000000" stroke="none" fill-opacity="1" />
				<polyline points="95.048439,273.442017 117.910591,259.666626 168.382187,239.432312 199.646118,271.074402 202.177902,314.284241 130.363708,285.359070 131.067520,278.346008 79.172340,299.913635 93.187698,272.979553" fill="#DDC759" stroke="none" fill-opacity="1" />
				<polygon points="371.873169,68.728760 378.368256,57.788025 390.500488,45.842285 412.541809,38.408569 432.917328,40.210693 425.674103,78.241089 410.030304,73.321106 388.187286,71.831909" fill="#D19048" stroke="none" fill-opacity="1" />
				<path d="M369.765411,67.477356L369.561798,67.912598L369.447021,68.379150L369.425385,68.859314L369.497955,69.334351L369.661713,69.786194L369.910522,70.197205L370.234741,70.551941L370.621887,70.836426L371.057098,71.040100L371.523743,71.154968L372.003815,71.176514L372.478821,71.104004L372.930573,70.940186L373.341614,70.691345L373.696320,70.367188L373.980957,69.979980L379.335663,58.545715L391.443542,47.375488L412.970184,42.005371L428.330658,43.677124L424.515198,76.303284L410.807068,70.851257L388.514252,69.291443L372.331207,66.320618L371.852631,66.277527L371.374847,66.328613L370.916168,66.471985L370.494293,66.702087L370.125458,67.010010L369.823730,67.384033L369.600739,67.809753L369.465118,68.270630L369.422028,68.749207L369.473114,69.227112L369.616516,69.685669L369.846527,70.107605L370.154510,70.476501L370.528503,70.778259L370.954163,71.001038L371.415192,71.136780L387.709503,74.343811L409.547089,75.883301L425.223755,79.673035L425.533508,79.735596L425.849487,79.731873L426.157654,79.662292L426.444427,79.529480L426.697083,79.339783L426.904358,79.101135L427.057159,78.824524L427.148621,78.522034L436.706329,40.932373L436.773651,40.131104L436.673340,39.333252L436.409851,38.573608L435.994476,37.885010L435.445465,37.297485L434.786560,36.836792L434.046387,36.522583L433.257172,36.368652L412.854126,34.877319L411.408844,35.049438L389.939850,44.180298L389.269745,44.592407L377.513245,56.919617z" fill="#000000" stroke="none" fill-opacity="1" />
				<polyline points="196.083344,259.631714 198.370911,270.026917 191.022995,272.627502 180.834045,263.166077 173.446716,252.769775 164.268036,236.810303 174.460083,222.336426" fill="#20116D" stroke="none" fill-opacity="1" />
				<path d="M199.055786,258.977539L198.871078,258.410278L198.579254,257.889893L198.191467,257.436401L197.722717,257.067322L197.190918,256.796753L196.616531,256.635132L196.021729,256.588806L195.429199,256.659180L194.861923,256.843933L194.341492,257.135803L193.888077,257.523621L193.518951,257.992371L193.248413,258.524048L193.086838,259.098511L193.040359,259.693359L193.110992,260.285767L194.807510,268.047729L191.740448,269.161438L183.109863,261.169617L175.754868,251.290771L166.752823,236.924255L175.732727,223.232544L175.883102,222.967102L175.978836,222.677307L176.016129,222.374451L175.993698,222.070190L175.912216,221.776123L175.775070,221.503601L175.587326,221.263000L175.356201,221.063782L175.090714,220.913330L174.800949,220.817627L174.498077,220.780212L174.193771,220.802795L173.899658,220.884155L173.627182,221.021423L173.386627,221.209167L173.187332,221.440247L162.553299,235.602905L162.325500,236.019958L162.197388,236.477600L162.175659,236.952332L162.261368,237.419739L162.450027,237.856018L171.073090,254.134827L178.379059,264.910522L188.962494,274.846497L189.634766,275.318787L190.409317,275.592834L191.228943,275.648743L192.033386,275.482178L199.390182,272.906677L200.048508,272.579834L200.609833,272.105103L201.041397,271.510193L201.318451,270.829407L201.424759,270.102051L201.354385,269.370422z" fill="#000000" stroke="none" fill-opacity="1" />
				<polyline points="375.801849,571.659241 505.682953,685.309204 572.299438,642.582397 552.398376,619.528076 537.836487,581.442627 527.007996,539.750427 367.696442,335.421936 351.061340,318.054871 299.737244,325.515625 277.460205,423.963013" fill="#DDC759" stroke="none" fill-opacity="1" />
				<path d="M379.623993,567.291199L378.698395,566.629517L377.661499,566.161072L376.553070,565.903870L375.415802,565.867920L374.293365,566.054504L373.228973,566.456482L372.263367,567.058411L371.433716,567.837097L370.772034,568.762695L370.303619,569.799622L370.046417,570.907959L370.010437,572.045227L370.197083,573.167664L370.599060,574.232056L371.200897,575.197632L371.979614,576.027283L503.736298,687.533813L504.367889,687.956604L505.086334,688.204468L505.844299,688.260864L506.591614,688.122131L507.278809,687.797424L575.995728,648.345337L577.135742,647.428589L578.054810,646.290527L578.711243,644.983154L579.074951,643.566223L579.129272,642.104370L578.871765,640.664307L578.314209,639.311829L577.482117,638.108704L560.036438,614.963501L544.754883,579.229065L531.758667,538.516602L530.878723,536.732422L372.033844,332.040161L355.864716,313.453979L354.645569,312.451843L353.224731,311.765259L351.682159,311.432556L350.104523,311.472717L299.196320,321.794189L298.324402,322.030579L297.534180,322.467957L296.870972,323.081238L296.373138,323.835022L296.069397,324.685730L273.544617,423.076965L273.446960,423.857849L273.503662,424.642822L273.712219,425.401672L274.064941,426.105225L274.548096,426.726501L275.143188,427.241516L275.827301,427.630493L276.574219,427.878601L277.355103,427.976257L278.140106,427.919617L278.898926,427.710999L279.602448,427.358276L280.223663,426.875122L280.738678,426.280029L281.127747,425.595886L281.375885,424.849060L302.834930,328.865479L348.627838,325.129700L363.531006,339.024414L522.512512,541.967468L530.816650,583.265869L544.211853,622.658142L561.958923,641.081055L505.957367,681.621399z" fill="#000000" stroke="none" fill-opacity="1" />
				<polyline points="256.848450,503.559387 219.611603,347.481445 171.364746,290.525757 123.787247,288.313171 108.478828,325.717285 104.888817,631.206604 126.175285,739.123535 175.305801,778.569702 164.411087,708.127197 201.229294,753.403076 188.774414,703.826904" fill="#DDC759" stroke="none" fill-opacity="1" />
				<path d="M252.903946,504.500488L253.163391,505.251953L253.564377,505.938354L254.091553,506.533325L254.724716,507.014038L255.439514,507.362000L256.208435,507.563782L257.001953,507.611694L257.789551,507.503906L258.540985,507.244507L259.227448,506.843506L259.822357,506.316284L260.303131,505.683105L260.651031,504.968384L260.852905,504.199463L260.900818,503.405945L260.792999,502.618347L221.033188,347.142334L220.726700,346.536804L173.511429,288.707336L172.939682,288.194519L172.250565,287.855408L171.495438,287.715393L123.971100,284.360107L123.003784,284.434143L122.083565,284.741272L121.265770,285.263123L120.599434,285.968262L120.124733,286.814209L105.744148,324.598083L105.524193,325.682556L102.238998,631.175476L122.518097,739.844910L122.986679,741.054504L123.841499,742.030273L172.857285,781.619263L173.575684,782.077148L174.376144,782.368530L175.220703,782.479736L176.069351,782.405396L176.881714,782.149048L177.619339,781.722900L178.247162,781.147217L178.735428,780.449219L179.061066,779.661987L179.208466,778.822998L179.170700,777.971985L170.952072,722.849731L197.959946,756.061707L198.579651,756.679749L199.313675,757.156433L200.130371,757.471191L200.994476,757.610474L201.868668,757.568176L202.715302,757.346313L203.497864,756.954224L204.182510,756.408997L204.739655,755.734131L205.145584,754.958679L205.382477,754.116089L205.440155,753.242798L205.316208,752.376343L192.861313,702.800171L192.582504,702.022644L192.157288,701.314331L191.602188,700.702637L190.938309,700.211060L190.191360,699.858337L189.389877,699.658203L188.564682,699.618225L187.747650,699.739990L186.970093,700.018799L186.261795,700.443970L185.650116,700.999268L185.158524,701.663025L184.805832,702.410095L184.605728,703.211548L184.565720,704.036621L184.687500,704.853699L192.514053,736.006897L167.680420,705.468567L167.083969,704.869507L166.379974,704.401550L165.596756,704.083496L164.765793,703.928223L163.920532,703.941895L163.095016,704.124146L162.322540,704.467285L161.634003,704.957764L161.057281,705.575867L160.615540,706.296631L160.326508,707.091003L160.201935,707.927124L160.246628,708.771240L169.901672,769.215393L129.569382,737.068054L107.541962,630.963135L111.426834,326.315247L126.392265,292.395996L170.009979,293.279236L218.270920,348.159912z" fill="#000000" stroke="none" fill-opacity="1" />
				<polyline points="199.587418,284.334778 196.883163,260.043152 161.480545,188.231445 149.299850,184.765686 128.936462,178.496948 109.676048,166.666321 99.448242,155.345215 155.231995,151.969360 126.276848,132.284058 116.649681,115.564331 105.571281,82.947510 169.345139,94.826355 191.146362,94.495422 210.989517,91.857056 224.346924,85.792480 253.465851,78.600769 309.187805,72.617615 343.384644,70.936646 362.239838,74.361755 368.097412,86.625610 388.059906,138.821106 406.245911,190.351257 408.184540,200.693787 376.956665,257.552673 371.071014,271.587585 367.233276,279.734558 332.102386,273.702209 266.213196,265.407471 267.348907,298.071716" fill="#DDC759" stroke="none" fill-opacity="1" />
				<path d="M196.722321,284.653748L196.839691,285.206604L197.062454,285.725830L197.382385,286.191772L197.787033,286.586243L198.260818,286.894165L198.785645,287.103821L199.341263,287.207092L199.906296,287.199890L200.459122,287.082581L200.978455,286.859802L201.444336,286.539734L201.838806,286.135132L202.146774,285.661377L202.356445,285.136536L202.459549,284.580994L202.452438,284.015869L199.917053,259.705444L162.484650,187.736450L162.309891,187.479431L162.071167,187.280396L161.786896,187.154602L149.775284,183.160339L130.187531,175.730713L112.213379,163.613708L108.147575,158.898987L155.338608,153.731140L155.698410,153.671509L156.038300,153.539429L156.343750,153.340088L156.601685,153.082397L156.801224,152.777100L156.933746,152.437378L156.993530,152.077637L156.978134,151.713135L156.888260,151.359680L156.727585,151.032349L156.503052,150.744995L156.224258,150.509888L129.066910,129.694824L120.406258,113.864502L111.796181,88.338684L168.786209,97.826782L191.174622,96.351562L211.061279,92.396729L224.583710,86.474670L253.795609,80.470398L309.409393,75.450989L343.195557,73.828735L360.217529,77.008362L365.330597,87.813110L385.168365,139.884094L403.198822,191.169250L404.851074,200.161011L374.009979,255.934326L367.429901,269.967468L364.846039,275.151855L332.758942,269.878418L266.632050,262.080322L265.908020,262.067932L265.198273,262.211304L264.535858,262.503662L263.951569,262.931458L263.472748,263.474609L263.121704,264.108093L262.914886,264.801880L262.861694,265.524048L264.212494,298.180847L264.294006,298.790527L264.492920,299.372803L264.801636,299.905029L265.208282,300.366699L265.697052,300.740173L266.249481,301.011169L266.843994,301.169250L267.458008,301.208252L268.067810,301.126648L268.649994,300.927795L269.182190,300.618958L269.643921,300.212402L270.017456,299.723572L270.288361,299.171265L270.446503,298.576660L270.485474,297.962646L269.701538,269.226624L331.531494,277.540588L366.537354,283.787720L367.425354,283.842590L368.304382,283.705078L369.133331,283.381897L369.873322,282.887878L370.489716,282.246277L370.953705,281.487061L374.675507,273.285583L379.988525,259.015991L410.970428,202.223816L411.323029,201.195435L411.308502,200.108276L409.337708,189.771667L390.964905,137.795837L370.907532,85.550842L364.915741,73.083740L364.541992,72.492493L364.040253,72.005371L363.438354,71.649353L362.769867,71.443970L343.899292,68.103638L309.048370,69.780334L253.263702,76.717407L224.174484,85.094299L210.837891,91.328064L191.009491,92.640930L169.604004,91.769897L106.333176,78.857422L105.471092,78.788330L104.613480,78.898926L103.797157,79.184326L103.057533,79.632507L102.426506,80.223816L101.931374,80.932678L101.593552,81.728760L101.427437,82.577454L101.440483,83.442139L101.632057,84.285400L112.764130,116.884094L123.061806,134.135315L124.191002,135.352112L149.961319,150.520203L99.202248,151.279846L98.383308,151.413940L97.608719,151.711426L96.910393,152.159668L96.317421,152.740173L95.854393,153.428772L95.540535,154.197021L95.389023,155.012756L95.405907,155.842590L95.590599,156.651428L95.935364,157.406250L96.426079,158.075500L106.760384,169.300354L127.360092,181.063354L148.807297,186.365906L160.696167,189.172180L193.908447,260.912964z" fill="#000000" stroke="none" fill-opacity="1" />
				<polygon points="319.799225,271.420349 364.688934,228.903564 375.163818,261.536194 367.655792,281.037842 333.151184,271.918457" fill="#20116D" stroke="none" fill-opacity="1" />
				<path d="M317.195587,268.671387L316.709290,269.232117L316.341736,269.877014L316.107086,270.581177L316.014343,271.317627L316.066986,272.057983L316.263123,272.773865L316.595123,273.437744L317.050262,274.024048L317.611023,274.510315L318.255890,274.877869L318.960052,275.112610L319.696472,275.205261L320.436920,275.152588L321.152740,274.956543L321.816620,274.624451L322.402924,274.169373L364.688934,228.903564L371.511902,261.432190L365.138000,276.111084L334.141327,268.172119L319.940399,267.636719L319.199524,267.681946L318.481689,267.870667L317.814545,268.196045L317.223572,268.645142L316.731659,269.200989L316.357666,269.841980L316.115845,270.543762L316.015594,271.279236L316.060791,272.020020L316.249634,272.737915L316.574860,273.405090L317.023987,273.995972L317.579773,274.487976L318.220886,274.862000L318.922638,275.103821L319.658142,275.204041L332.576904,275.774719L366.603180,285.021057L367.595032,285.157349L368.590424,285.050354L369.530670,284.706421L370.360168,284.145874L371.030029,283.401794L371.500610,282.518188L378.379272,262.774109L378.607941,261.634216L378.444519,260.483093L364.688934,228.903564z" fill="#000000" stroke="none" fill-opacity="1" />
				<polygon points="248.660812,178.377014 273.151398,176.793396 297.943085,170.741882 297.065094,194.162903 301.088593,201.741516 272.578369,198.747498 258.149414,198.239319 235.639297,197.720154 235.581039,193.364990 229.761597,183.280029" fill="#20116D" stroke="none" fill-opacity="1" />
				<path d="M248.523499,176.253113L248.111801,176.320618L247.721100,176.467285L247.366608,176.687317L247.061859,176.972229L246.818542,177.311218L246.646027,177.691162L246.550873,178.097351L246.536865,178.514282L246.604446,178.926086L246.751099,179.316650L246.971100,179.671265L247.256058,179.975952L247.594971,180.219299L247.974915,180.391846L248.381134,180.486938L248.798157,180.500916L273.313538,179.300659L293.645477,176.008423L296.376801,194.137146L296.456726,194.485901L301.088593,201.741516L272.874939,195.923279L258.241180,195.634644L237.929535,195.452026L237.781036,193.335571L237.486801,192.265320L232.659241,184.494019L249.195328,180.437195L249.586945,180.293335L249.943024,180.075806L250.249771,179.793091L250.495529,179.455872L250.670761,179.077209L250.768707,178.671692L250.785660,178.254822L250.720993,177.842590L250.577087,177.450928L250.359634,177.094727L250.076797,176.787964L249.739609,176.542358L249.360977,176.367126L248.955383,176.269165L248.538483,176.252136L248.126389,176.316895L229.283752,181.437988L228.876343,181.595459L228.515564,181.841797L228.220428,182.163757L228.006592,182.544556L227.885040,182.964111L227.862442,183.400391L227.939987,183.830139L228.113403,184.231079L233.388748,193.967834L233.319092,197.751160L233.381363,198.254944L233.551697,198.733154L233.821945,199.162781L234.179077,199.523499L234.606171,199.797852L235.082703,199.972717L235.585770,200.039917L258.073456,200.844604L272.379852,201.582214L301.088593,201.741516L297.760376,194.003540L302.037506,170.895447L301.963959,169.954041L301.676849,169.054626L301.191498,168.244629L300.533539,167.567383L299.738098,167.058716L298.847290,166.745544L297.908478,166.644775L296.971497,166.761353L272.769470,174.300049z" fill="#000000" stroke="none" fill-opacity="1" />
				<polygon points="365.862518,150.801025 351.703247,151.767883 338.462830,158.608887 346.513123,189.356262 346.569733,201.241394 361.495667,185.799377 369.193756,181.232300 381.033356,176.953796 379.764587,171.123291 379.752075,157.354187" fill="#20116D" stroke="none" fill-opacity="1" />
				<path d="M365.993317,152.716614L366.364502,152.654297L366.716492,152.520630L367.035522,152.321045L367.309540,152.062988L367.527954,151.756409L367.682343,151.413208L367.766815,151.046387L367.778137,150.670166L367.715820,150.298889L367.582214,149.947021L367.382629,149.627869L367.124573,149.353882L366.818024,149.135559L366.474731,148.981018L366.107910,148.896606L365.731689,148.885193L351.540222,149.380554L350.604919,149.642029L336.799561,155.389893L336.123260,155.842041L335.564972,156.433716L335.152679,157.135071L334.907318,157.910767L334.841187,158.721619L334.957581,159.526611L345.997467,189.424011L346.569733,201.241394L362.587097,187.180054L370.039032,183.022766L381.701630,178.803040L382.121582,178.591431L382.479279,178.286194L382.754364,177.904846L382.930939,177.469055L382.998962,177.003723L382.954620,176.535706L381.717072,170.912415L381.690765,157.352539L381.641174,156.918518L381.495636,156.506531L381.261566,156.137634L380.950897,155.830566L380.579346,155.600891L366.681793,149.064453L366.327301,148.937988L365.954865,148.883057L365.578979,148.901855L365.213959,148.993652L364.873840,149.154907L364.571716,149.379517L364.319183,149.658630L364.125977,149.981628L363.999512,150.336243L363.944672,150.708557L363.963470,151.084473L364.055267,151.449463L364.216522,151.789673L364.441040,152.091797L364.720154,152.344238L365.043152,152.537537L377.814484,158.583679L377.811859,171.125122L378.746033,175.689697L368.523773,179.378540L360.605652,184.299133L346.569733,201.241394L347.029144,189.353882L342.702576,160.496704L352.360992,154.121216z" fill="#000000" stroke="none" fill-opacity="1" />
				<polygon points="258.781799,190.154907 269.277649,184.382324 273.919525,192.437744 272.981689,196.780029 255.617294,196.449707" fill="#EDEEEB" stroke="none" fill-opacity="1" />
				<polyline points="352.385254,193.848938 361.697266,183.690430 359.439850,172.685364 348.841583,164.676636 346.586365,178.362183 349.468964,189.325562" fill="#EDEEEB" stroke="none" fill-opacity="1" />
				<polyline points="366.912628,508.829102 357.644104,416.144348 322.410095,317.867981 281.688049,323.445312 288.319916,302.756470 238.623962,293.201111 193.615326,285.117371 198.294128,305.423218 169.450150,290.529175 191.717422,367.292114 199.930557,517.806946 197.443069,695.084839 250.224091,835.278870 366.507507,894.611084 407.861908,930.196411 418.776733,994.541077 432.484436,1011.076843 501.736084,1031.167847 592.216492,1033.529297 658.276062,1007.151672 685.138672,974.439392 656.039734,947.350830 568.630554,909.600647 533.733154,872.597351 503.936798,829.945862 463.169769,824.528687 420.936615,724.894653" fill="#20033D" stroke="none" fill-opacity="1" />
				<path d="M362.358215,509.284546L362.534576,510.164368L362.879211,510.992798L363.378815,511.738037L364.014221,512.371582L364.761017,512.868958L365.590485,513.211060L366.470764,513.384827L367.368042,513.383484L368.247803,513.207092L369.076233,512.862488L369.821594,512.362915L370.455109,511.727478L370.952515,510.980713L371.294586,510.151245L371.468292,509.270935L371.466980,508.373657L362.198456,415.688904L325.868011,316.628296L325.500061,315.881470L324.973480,315.236816L324.315155,314.727173L323.559082,314.378906L322.743927,314.209717L321.911591,314.228516L284.828552,320.808899L291.567749,303.797546L291.713959,303.092957L291.708954,302.373413L291.553162,301.670898L291.253448,301.016663L290.823151,300.439819L290.281403,299.966248L289.652313,299.616821L288.963959,299.407166L239.192047,290.246582L194.123779,282.286438L193.495331,282.243591L192.872711,282.338623L192.285645,282.566956L191.762283,282.917542L191.327881,283.373718L191.003204,283.913391L190.803726,284.510925L190.739136,285.137512L190.812546,285.763184L195.206726,301.447632L170.757004,287.998352L170.195786,287.780090L169.601212,287.684814L168.999939,287.716614L168.418808,287.874084L167.883682,288.150208L167.418594,288.532715L167.044312,289.004395L166.777557,289.544250L166.630142,290.128113L166.608978,290.729797L166.714600,291.322571L189.397247,367.686707L196.732849,517.871704L191.985397,695.008301L192.334854,697.007996L247.592056,836.269775L248.127533,837.153320L248.945831,837.783936L364.326874,897.859558L403.300385,932.772827L415.486023,995.099304L416.207184,996.671204L429.949554,1013.178101L430.678558,1013.829956L431.566956,1014.238953L499.992126,1037.178833L592.026306,1040.814087L594.918823,1040.296875L660.293518,1012.204041L662.480469,1010.604248L688.993530,977.604980L689.581360,976.707336L689.963562,975.704712L690.122559,974.643616L690.050903,973.572998L689.752014,972.542480L689.239563,971.599792L688.537415,970.788452L659.053467,944.113525L570.309082,907.205078L536.455078,870.382874L507.014801,827.795593L506.311462,827.037476L505.428070,826.500000L504.431396,826.223877L465.998047,820.815918L423.550659,723.786560L423.284241,723.297913L422.927673,722.870544L422.494507,722.521057L422.001556,722.262695L421.467651,722.105530L420.913300,722.055542L420.359833,722.114685L419.828644,722.280518L419.339966,722.546997L418.912628,722.903625L418.563080,723.336731L418.304779,723.829712L418.147583,724.363647L418.097595,724.917969L418.156708,725.471436L418.322601,726.002686L459.438080,826.110474L459.968750,827.014832L460.713715,827.752808L461.623016,828.274963L462.635864,828.546387L501.804871,833.450256L530.864258,874.601562L566.546387,911.566162L567.494751,912.230652L653.585144,951.108521L678.308899,974.896423L654.959534,1002.617981L590.907043,1026.205322L502.705505,1024.932251L434.373474,1008.196655L421.917755,993.100220L412.720734,929.372253L412.153046,927.772827L411.076385,926.460876L369.041351,891.666504L252.472275,833.268738L202.915192,694.128479L203.126663,517.851807L194.052261,367.164734L174.032135,296.100647L197.323364,307.303162L197.729874,307.462402L198.160446,307.534851L198.596695,307.517334L199.020081,307.410583L199.412598,307.219299L199.757355,306.951416L200.039978,306.618530L200.248077,306.234802L200.373047,305.816528L200.409622,305.381409L200.356003,304.948120L197.396805,288.718750L238.073944,296.159241L283.897644,305.379272L279.606598,322.778137L279.510315,323.257446L279.523041,323.746155L279.644104,324.219788L279.867310,324.654724L280.181580,325.029175L280.571289,325.324341L281.016815,325.525635L281.495972,325.622803L281.984711,325.611023L319.957397,321.911560L353.145660,417.159485z" fill="#000000" stroke="none" fill-opacity="1" />
				<polyline points="660.300842,893.466064 625.459534,851.471436" fill="#DDC759" stroke="none" fill-opacity="1" />
				<path d="M656.203247,896.865601L656.945190,897.599731L657.816101,898.174927L658.782593,898.569214L659.807251,898.767334L660.850952,898.761780L661.873474,898.552612L662.835632,898.148132L663.700378,897.563599L664.434448,896.821655L665.009644,895.950745L665.403931,894.984375L665.602112,893.959595L665.596497,892.915894L665.387390,891.893372L664.982849,890.931213L664.398438,890.066528L629.043945,848.497559L628.394958,847.855469L627.633118,847.352295L626.787720,847.007324L625.891357,846.834106L624.978333,846.838928L624.083862,847.021851L623.242126,847.375732L622.485779,847.887024L621.843628,848.536011L621.340454,849.297913L620.995544,850.143250L620.822266,851.039673L620.827087,851.952637L621.009949,852.847168L621.363953,853.688843L621.875122,854.445190z" fill="#000000" stroke="none" fill-opacity="1" />
				<polyline points="618.961365,861.665771 594.910095,864.610779 583.873352,862.206360 583.893005,856.322632 608.853027,823.541382 616.804810,804.232117 629.806335,770.512085 640.046387,789.864319 646.498047,817.746033 643.524475,839.534912" fill="#20116D" stroke="none" fill-opacity="1" />
				<path d="M619.479858,865.901001L620.296204,865.718445L621.061218,865.380127L621.745483,864.899170L622.322754,864.293823L622.770874,863.587585L623.072510,862.807434L623.216248,861.983459L623.196472,861.147217L623.013916,860.330933L622.675659,859.565979L622.194641,858.881714L621.589417,858.304382L620.883057,857.856262L620.102905,857.554565L619.278931,857.410828L618.442749,857.430603L595.060608,861.365967L586.783875,859.869629L586.803345,857.309937L611.416382,825.493164L619.134949,805.191711L630.074829,775.030029L638.017578,790.621094L642.879395,817.912170L638.750793,838.883423L638.715454,839.827271L638.864929,840.759827L639.193359,841.645386L639.688293,842.449768L640.330688,843.142151L641.095825,843.695923L641.954224,844.089783L642.873108,844.308655L643.816895,844.343994L644.749512,844.194580L645.635010,843.866028L646.439392,843.371094L647.131775,842.728699L647.685547,841.963562L648.079468,841.105103L648.298279,840.186340L650.028320,818.227844L642.138428,789.380249L631.464355,769.634827L631.247498,769.311523L630.968750,769.039917L630.639832,768.831665L630.274963,768.695801L629.890015,768.638184L629.501526,768.661316L629.125977,768.764038L628.779785,768.942200L628.477905,769.187866L628.233154,769.490601L628.056213,769.837280L614.463806,803.298950L606.034363,821.924805L581.574768,854.557556L581.133728,855.386658L580.979370,856.312988L580.970642,862.196716L581.042603,862.849121L581.259521,863.468628L581.609924,864.023621L582.075989,864.485718L582.634033,864.831238L583.255432,865.042542L594.228394,867.739868z" fill="#000000" stroke="none" fill-opacity="1" />
				<polygon points="645.142334,839.423340 662.420044,820.555664 681.038696,792.427734 682.401672,803.356079 677.771423,849.375488 660.300842,893.466064 642.253601,903.174805 612.924438,897.258789 602.806274,888.476013 608.037415,871.333374 626.646973,855.195435" fill="#20116D" stroke="none" fill-opacity="1" />
				<path d="M641.580566,836.161743L641.012756,836.919250L640.603638,837.773071L640.368835,838.690186L640.317505,839.635559L640.451660,840.572754L640.765991,841.465820L641.248596,842.280334L641.880798,842.985107L642.638306,843.552917L643.492126,843.962158L644.409241,844.196838L645.354614,844.248169L646.291809,844.114075L647.184875,843.799683L647.999390,843.317078L648.704163,842.684937L665.187561,823.089966L679.175781,800.372498L679.176819,803.394470L672.287598,848.040588L656.067017,889.698059L641.613586,898.859497L614.320007,894.420471L606.201111,887.500305L611.130188,873.343262L629.697632,858.742920L648.276062,843.098083L648.932739,842.416138L649.443848,841.619141L649.789551,840.737793L649.956665,839.805908L649.938782,838.859375L649.736633,837.934448L649.357910,837.066772L648.817200,836.289612L648.135193,835.632935L647.338257,835.121826L646.456848,834.776123L645.524963,834.609009L644.578369,834.626831L643.653442,834.829102L642.785828,835.207764L642.008728,835.748535L623.611084,851.635376L605.715027,868.655334L605.065125,869.401733L604.646973,870.298828L599.973083,887.611450L599.850525,888.281433L599.884216,888.961609L600.072327,889.616150L600.404968,890.210388L600.864502,890.713013L610.919739,899.568298L612.319763,900.256653L641.442200,907.197266L642.855713,907.233887L644.197632,906.788513L662.823181,898.154846L664.278015,897.005676L665.250549,895.427368L682.968140,851.434631L685.590210,803.677002L683.848694,792.077271L683.720642,791.518616L683.482605,790.997314L683.144470,790.534485L682.720154,790.149231L682.226990,789.857361L681.685059,789.670715L681.116760,789.597046L680.545227,789.639282L679.993835,789.795776L679.485291,790.059998L679.040405,790.421265L678.677307,790.864685L659.453491,818.238647z" fill="#000000" stroke="none" fill-opacity="1" />
				<polyline points="551.493713,889.690369 562.611816,875.608643 573.193787,869.958252 596.314636,873.289429 590.011902,896.187683 578.437256,904.638062 568.516235,906.431030" fill="#20116D" stroke="none" fill-opacity="1" />
				<path d="M549.110413,887.808655L548.789185,888.309692L548.571716,888.863892L548.466675,889.449829L548.477905,890.045044L548.605042,890.626587L548.843140,891.172241L549.183167,891.660828L549.612000,892.073730L550.113098,892.395020L550.667358,892.612427L551.253296,892.717529L551.848511,892.706238L552.429993,892.579163L552.975647,892.340942L553.464172,892.000977L553.877197,891.572144L564.520325,877.890869L573.710754,872.905029L592.390930,875.857605L587.560852,894.494995L577.299683,901.982666L568.009277,903.625488L567.471619,903.778320L566.974182,904.033081L566.535950,904.380005L566.174011,904.805786L565.901855,905.293945L565.730286,905.825806L565.665771,906.380981L565.710754,906.938049L565.863525,907.475647L566.118347,907.973145L566.465271,908.411316L566.890991,908.773438L567.379150,909.045471L567.911072,909.217041L568.466248,909.281616L569.023315,909.236572L578.937927,907.408630L580.097351,906.911987L591.670288,898.459167L592.326111,897.785889L592.723511,896.934082L599.304993,874.112427L599.411194,873.464722L599.378784,872.809082L599.209045,872.175049L598.909729,871.590820L598.494202,871.082764L597.980896,870.673523L597.393127,870.381470L596.756958,870.219604L573.599182,867.144409L572.702515,867.158142L571.854736,867.450500L561.240112,873.039734L560.326050,873.804077z" fill="#000000" stroke="none" fill-opacity="1" />
				<polygon points="223.859985,990.482361 191.227173,1002.330627 179.935913,999.717651 163.540359,974.607910 141.285721,924.603821 140.877686,897.330627 184.551941,936.094482 216.562332,949.956970 240.699615,966.308105 236.348572,981.733398" fill="#20116D" stroke="none" fill-opacity="1" />
				<path d="M224.969833,993.539001L225.544891,993.263794L226.055145,992.881653L226.481033,992.407227L226.806152,991.858948L227.018097,991.257751L227.108749,990.626770L227.074509,989.990173L226.916702,989.372559L226.641479,988.797485L226.259293,988.287231L225.784988,987.861328L225.236664,987.536194L224.635437,987.324219L224.004410,987.233643L223.367889,987.267883L222.750259,987.425659L190.940018,997.583618L182.861481,995.530701L166.934555,972.759766L144.198761,923.962036L143.795761,903.694641L182.629791,938.260071L215.202026,952.434937L237.321442,967.542114L233.689667,979.845886L221.994141,987.818909L221.510406,988.234070L221.116959,988.735718L220.828903,989.304443L220.657410,989.918335L220.608887,990.553955L220.685333,991.186951L220.883774,991.792725L221.196655,992.348206L221.611801,992.831970L222.113403,993.225403L222.682098,993.513428L223.296143,993.684937L223.931747,993.733459L224.564651,993.656982L225.170456,993.458618L225.725937,993.145752L238.110870,984.248901L238.853119,983.511230L239.304657,982.567200L243.506393,967.099792L243.615021,966.380615L243.542343,965.656921L243.292740,964.973694L242.881851,964.373474L242.335266,963.893616L218.140869,947.626831L186.127625,933.621399L142.751358,895.219666L142.269745,894.875244L141.727005,894.638916L141.146683,894.520996L140.554672,894.526611L139.976868,894.655701L139.438690,894.902527L138.963776,895.256104L138.573074,895.701050L138.283813,896.217651L138.108734,896.783203L138.055511,897.372864L138.363647,924.647522L138.615707,925.792114L160.020737,976.174316L175.968063,1002.308472L176.749863,1003.225464L177.737671,1003.915710L178.867554,1004.334412L190.199142,1006.773254L191.502609,1006.882324L192.783447,1006.616943z" fill="#000000" stroke="none" fill-opacity="1" />
				<polyline points="226.618240,988.912964 255.415878,1007.667236 263.543213,1015.901489 263.745117,1026.142700 255.885483,1030.525635 214.003372,1019.822266 195.924210,1003.859436" fill="#20116D" stroke="none" fill-opacity="1" />
				<path d="M228.359299,986.239624L227.804260,985.951355L227.203674,985.776917L226.580597,985.722961L225.958954,985.791626L225.362717,985.980225L224.814651,986.281494L224.335953,986.683960L223.944901,987.171997L223.656631,987.726990L223.482208,988.327576L223.428268,988.950684L223.496872,989.572266L223.685471,990.168579L223.986725,990.716614L224.389160,991.195374L224.877304,991.586365L252.904968,1010.743164L259.216003,1017.727356L259.199738,1023.532959L255.300339,1026.024170L215.653824,1016.703674L198.831085,1000.567139L198.132996,1000.063232L197.349915,999.705322L196.512039,999.506958L195.651688,999.475952L194.801712,999.613281L193.994919,999.913940L193.262329,1000.366089L192.631927,1000.952515L192.128036,1001.650635L191.770081,1002.433716L191.571793,1003.271484L191.540665,1004.131958L191.678055,1004.981873L191.978699,1005.788696L192.430847,1006.521301L193.017365,1007.151733L211.733078,1022.393616L213.154037,1023.145630L254.841553,1034.610596L255.897156,1034.741943L256.952057,1034.604736L257.939026,1034.208008L265.933380,1030.066772L266.902252,1029.339478L267.641541,1028.379761L268.097595,1027.257568L268.237213,1026.054077L267.904755,1015.815491L267.744293,1014.726257L267.316315,1013.711914L266.647949,1012.836975L258.225555,1004.894043z" fill="#000000" stroke="none" fill-opacity="1" />
				<polyline points="241.626251,192.704895 242.105301,189.883545 246.499954,188.311279 249.053467,190.724731 247.602478,193.374634 243.746338,195.101685" fill="#EDEEEB" stroke="none" fill-opacity="1" />
				<polyline points="365.777374,174.024963 363.842346,170.328918 365.807343,166.450928 369.975342,169.569092 371.191467,173.683533 369.482513,176.736877" fill="#EDEEEB" stroke="none" fill-opacity="1" />
			</g>
			<g id="layer.apron.uuid_0x6">
				<polyline points="614.361511,447.836548 605.867249,356.306519 567.313599,434.503784" fill="#69BEB7" stroke="none" fill-opacity="1" />
				<path d="M610.689575,448.177368L610.826538,448.887207L611.099487,449.556580L611.497620,450.159973L612.005981,450.674011L612.604858,451.079041L613.271118,451.359436L613.979431,451.504456L614.702332,451.508484L615.412048,451.371582L616.081604,451.098633L616.684875,450.700378L617.198975,450.192078L617.603943,449.593262L617.884338,448.927002L618.029419,448.218750L618.033447,447.495789L610.112488,355.912598L609.950439,355.079895L609.626648,354.295776L609.154114,353.591248L608.551453,352.994202L607.842529,352.528320L607.055359,352.212036L606.221069,352.057861L605.372986,352.071899L604.544312,352.253662L603.768066,352.595764L603.075012,353.084839L602.492371,353.701477L602.043396,354.421265L564.212219,432.974792L563.973511,433.609131L563.863220,434.278015L563.885437,434.955444L564.039429,435.615601L564.319275,436.233032L564.714050,436.783997L565.208923,437.247253L565.784546,437.605164L566.419006,437.843872L567.087830,437.954285L567.765320,437.932007L568.425415,437.778015L569.042786,437.498230L569.593872,437.103333L570.057068,436.608582L570.415039,436.032898L603.016846,371.729126z" fill="#000000" stroke="none" fill-opacity="1" />
				<polyline points="233.689270,609.351990 309.586243,542.763489 244.244553,438.435059" fill="#69BEB7" stroke="none" fill-opacity="1" />
				<path d="M231.865707,607.273560L231.495270,607.669250L231.209167,608.129578L231.018280,608.636963L230.930145,609.171753L230.947998,609.713501L231.071152,610.241333L231.294983,610.734985L231.610794,611.175537L232.006516,611.545959L232.466873,611.832031L232.974182,612.022949L233.508957,612.111084L234.050735,612.093201L234.578644,611.970032L235.072235,611.746216L235.512772,611.430420L312.870422,546.506653L313.651825,545.639038L314.209656,544.613159L314.513336,543.485657L314.546082,542.318420L314.306030,541.175720L313.806549,540.120239L245.906754,437.393982L245.671738,437.089661L245.381866,436.837097L245.048218,436.645874L244.683777,436.523499L244.302338,436.474548L243.918747,436.500977L243.547653,436.601562L243.203430,436.772827L242.899170,437.007874L242.646545,437.297729L242.455383,437.631348L242.332977,437.995789L242.283997,438.377197L242.310394,438.760803L242.411026,439.131836L242.582230,439.476135L303.116486,541.815063z" fill="#000000" stroke="none" fill-opacity="1" />
				<polygon points="119.688263,488.503723 186.657883,451.849243 244.916779,433.933716 245.895126,574.427856 338.227325,483.546326 466.512268,560.700745 556.512878,418.682007 616.015625,447.583740 527.299194,628.829529 491.034363,786.362183 459.265259,815.502563 456.818695,774.067627 432.053772,841.234741 353.136658,794.617188 298.303680,874.962219 221.637772,658.991333 171.136490,575.623169" fill="#6A87EF" stroke="none" fill-opacity="1" />
				<path d="M116.413589,482.520630L115.241257,483.332153L114.263130,484.369812L113.522179,485.588135L113.050743,486.933838L112.869415,488.348145L112.986084,489.769287L113.395668,491.135071L114.080254,492.385803L115.009918,493.466980L116.144081,494.331238L117.433144,494.940735L118.820793,495.268982L120.246338,495.301514L121.647491,495.036926L122.963043,494.486755L187.783066,454.513916L242.834854,436.772705L242.692627,574.450134L242.769623,575.126099L242.987595,575.770630L243.336914,576.354553L243.801666,576.851440L244.360870,577.239014L244.989334,577.499634L245.658630,577.621704L246.338638,577.599609L246.998749,577.434326L247.608948,577.133362L248.141769,576.710266L338.759369,488.033630L464.179443,564.579590L465.086670,564.996704L466.063324,565.204712L467.061829,565.193542L468.033539,564.963745L468.931274,564.526428L469.711243,563.902954L470.335541,563.123596L557.768799,423.101013L611.066772,449.288330L523.747803,627.091187L488.445007,784.854004L462.524872,807.453369L459.636475,773.901245L459.539948,773.317627L459.323883,772.766968L458.997803,772.273438L458.575989,771.858643L458.077057,771.540894L457.522827,771.334106L456.937683,771.247437L456.347260,771.284546L455.777588,771.443970L455.253662,771.718506L454.798462,772.096252L454.432007,772.560669L454.170258,773.091187L429.637573,834.447266L354.567322,792.195312L354.017426,791.945801L353.427063,791.819397L352.823273,791.821899L352.233917,791.953125L351.686188,792.207214L351.205261,792.572266L350.813293,793.031616L299.126312,868.614380L222.285736,658.761292L174.562958,573.573730L125.561310,485.035400L124.771782,483.956238L123.787025,483.051880L122.644669,482.357056L121.388680,481.898376L120.067345,481.693604L118.731468,481.750488L117.432396,482.066895L116.220016,482.630676L115.140831,483.420166L114.236526,484.404968L113.541641,485.547363L113.082962,486.803345L112.878166,488.124573L112.935097,489.460449L113.251472,490.759583L113.815315,491.971985L167.698685,577.653320L221.013275,659.287598L295.571808,875.931946L295.849609,876.505127L296.245819,877.003784L296.741333,877.403931L297.312225,877.686218L297.931061,877.836975L298.567871,877.848938L299.191986,877.721558L299.773102,877.460938L300.283356,877.079712L300.698029,876.596252L353.974670,798.379272L429.706451,845.208313L430.625397,845.623169L431.612366,845.828613L432.620483,845.814880L433.601532,845.582520L434.508636,845.142700L435.298706,844.516357L435.933868,843.733459L436.383850,842.831299L454.796722,787.711182L455.543396,815.722290L455.666016,816.475098L455.939209,817.187134L456.351593,817.828735L456.885834,818.372925L457.519714,818.797058L458.226624,819.083313L458.976959,819.219727L459.739441,819.200623L460.481964,819.026733L461.173645,818.705444L461.785492,818.250122L492.968903,788.471130L493.507355,787.802429L493.823181,787.004150L531.050476,630.159546L619.334900,449.208435L619.613525,448.427490L619.711060,447.604126L619.622620,446.779724L619.352600,445.995789L618.914673,445.291870L618.330688,444.703186L617.630188,444.259521L558.009766,415.600098L557.224243,415.330444L556.396851,415.257751L555.576294,415.386292L554.810669,415.708496L554.145203,416.205444L553.618774,416.847961L465.055878,554.542969L340.067932,480.485962L339.356262,480.158264L338.590332,479.993591L337.806976,479.999939L337.043762,480.177002L336.337494,480.516174L335.722198,481.001160L249.044937,566.833679L247.018356,433.919067L246.970535,433.487610L246.835098,433.075256L246.617813,432.699463L246.327957,432.376282L245.977936,432.119568L245.582657,431.940247L245.158829,431.846008L244.724808,431.840820L244.299026,431.924927L185.811981,449.098694z" fill="#000000" stroke="none" fill-opacity="1" />
				<polyline points="189.482559,619.234253 264.806274,570.660645 288.493652,566.987366 331.665955,585.307983 366.359070,627.669800 391.777069,665.089111 407.340088,728.103271 407.634247,771.627075 374.904602,732.114746 334.735718,687.032104 314.574341,674.087646 325.138641,722.173462 340.882111,786.047852 340.286896,825.354980 312.525604,778.807007 273.965210,730.316650 257.567749,698.283386 275.886322,734.063110 293.308563,766.229858 312.060883,797.646301 329.106598,852.002991 265.500580,803.685852 204.263138,726.137085 185.880829,660.127441" fill="#DDC759" stroke="none" fill-opacity="1" />
				<path d="M189.272858,618.908936L189.213409,618.956177L189.164246,619.014038L189.127411,619.080322L189.104233,619.152527L189.095596,619.227905L189.101776,619.303589L189.122589,619.376465L189.157333,619.443970L189.204483,619.503418L189.262329,619.552490L189.328690,619.589355L189.400848,619.612549L189.476212,619.621216L189.551865,619.615051L189.624878,619.594238L189.692291,619.559509L266.131897,574.147583L287.918243,571.614014L327.578186,590.764465L360.636108,631.943726L386.717407,667.344971L404.003052,728.520691L404.768463,763.758423L377.483551,729.978516L338.288422,683.866577L317.011902,670.291016L316.148560,669.859375L315.213135,669.621338L314.248566,669.587585L313.298889,669.759888L312.407440,670.130249L311.615295,670.681763L310.958557,671.389160L310.467285,672.219971L310.164001,673.136353L310.062622,674.096313L310.167664,675.055725L320.657593,723.157898L337.994873,786.376343L337.624939,815.401123L315.302063,777.151123L278.613220,727.321228L258.182098,699.482727L270.918335,736.606689L289.734863,768.165405L309.356384,798.857300L322.800690,843.028809L267.530365,801.617554L207.637756,724.422852L186.938599,659.832886L186.860779,659.632202L186.745361,659.450500L186.596649,659.294800L186.420532,659.171143L186.223526,659.084229L186.013458,659.037476L185.798264,659.032471L185.586258,659.069641L185.385529,659.147461L185.203857,659.262939L185.048218,659.411560L184.924561,659.587769L184.837646,659.784668L184.790771,659.994812L184.785919,660.209961L184.822998,660.421997L200.688354,727.132568L201.350830,728.436829L263.244354,805.467407L327.091309,854.656006L327.689728,855.018372L328.350616,855.247742L329.044830,855.334106L329.741760,855.273621L330.410645,855.068848L331.022125,854.729004L331.549133,854.268921L331.968445,853.708923L332.261627,853.073730L332.415619,852.391357L332.423798,851.691833L332.285675,851.006042L314.868866,796.765686L296.841827,764.219604L280.824738,731.462036L258.767212,697.669312L258.613342,697.433289L258.413757,697.234497L258.177155,697.081543L257.913940,696.981079L257.635620,696.937561L257.354462,696.952881L257.082397,697.026245L256.831665,697.154663L256.613159,697.332336L256.436249,697.551575L256.308807,697.802856L256.236420,698.075073L256.222229,698.356445L256.266785,698.634521L256.368256,698.897339L269.067230,732.823853L309.860413,780.649231L337.871521,826.795532L338.204193,827.244873L338.619202,827.619507L339.100159,827.904602L339.627960,828.088989L340.181793,828.165283L340.739868,828.130615L341.279968,827.986145L341.780823,827.737671L342.222687,827.395081L342.587982,826.971863L342.862396,826.484741L343.034912,825.952942L343.098938,825.397583L343.763702,786.091553L329.607269,721.132019L321.323730,683.782654L331.616577,690.684082L372.364197,734.297485L405.468292,773.421204L405.878265,773.824036L406.361481,774.135132L406.897919,774.341431L407.465118,774.434509L408.039368,774.410217L408.596710,774.269775L409.113861,774.018921L409.569214,773.668213L409.943726,773.232178L410.221802,772.729126L410.391815,772.180176L410.446625,771.607971L410.679871,728.080688L397.071075,663.781616L372.261719,623.660339L336.787476,581.113647L334.251984,579.214111L290.245270,562.859741L289.047089,562.537720L287.806549,562.556458L264.247040,567.054993L262.828827,567.594238z" fill="#000000" stroke="none" fill-opacity="1" />
				<polygon points="618.621094,669.420349 575.750061,721.957642 536.206177,770.050171 471.315277,808.145752 510.289093,755.112183 542.005249,703.179016 550.412659,684.805359 536.977722,702.307617 505.025909,738.311401 456.242676,778.555969 465.398682,745.646851 506.129578,685.004150 513.984619,675.242920 528.667908,656.481323 521.952332,658.278931 495.157318,666.732910 452.230652,685.156799 417.414124,707.700806 421.703064,688.690308 450.995453,633.943848 517.259521,588.292725 533.832764,582.310852 559.427612,585.260376 601.574890,612.218262 610.098022,640.819336" fill="#DDC759" stroke="none" fill-opacity="1" />
				<path d="M623.525269,673.422180L624.211792,672.388550L624.683411,671.240845L624.922119,670.023193L624.918579,668.782288L624.673096,667.566040L624.195068,666.420898L623.502808,665.391174L622.622986,664.516235L621.589417,663.829712L620.441650,663.358093L619.223999,663.119385L617.983093,663.122864L616.766846,663.368347L615.621765,663.846436L614.591858,664.538635L613.716980,665.418518L573.407715,720.038940L534.578125,768.143677L483.930542,796.766113L512.555420,756.777710L544.583557,704.753601L554.378235,686.619873L554.667786,685.760620L554.773254,684.860107L554.690430,683.957214L554.422485,683.091003L553.981323,682.298828L553.385925,681.614990L552.661987,681.069153L551.840698,680.684753L550.957825,680.478516L550.051208,680.459351L549.160400,680.628052L548.323608,680.977173L547.577148,681.491943L546.953308,682.149902L534.659058,700.392822L503.055847,736.268921L461.400177,770.618164L467.997131,746.843018L508.655670,686.863525L517.314453,677.922485L532.713989,659.647766L533.280701,658.743896L533.648499,657.742432L533.801636,656.686523L533.733337,655.621765L533.446655,654.594116L532.953857,653.647827L532.276245,652.823730L531.442993,652.157349L530.490173,651.677490L529.458679,651.404663L528.393127,651.350830L527.339478,651.518188L520.747925,653.779785L494.082031,663.324829L450.747925,681.702026L423.257812,699.322632L425.736603,690.192932L454.145416,636.759583L519.153442,591.976868L534.322449,586.520142L557.882507,589.601929L595.559021,616.750793L603.682129,642.731201L612.555054,671.228027L613.024292,672.376709L613.708557,673.411865L614.581665,674.293518L615.609985,674.987976L616.754028,675.468384L617.969849,675.716431L619.210632,675.722534L620.428833,675.486450L621.577576,675.017212L622.612610,674.332886L623.494324,673.459839L624.188782,672.431519L624.669189,671.287415L624.917175,670.071655L624.923401,668.830811L624.687195,667.612671L616.513916,638.907349L608.340698,610.202087L607.213440,607.970093L605.378784,606.270996L561.846741,581.478027L559.941528,580.799988L534.305054,578.212463L532.432129,578.430420L515.864807,584.428467L448.666168,630.562744L447.375336,632.006897L417.942169,686.678040L413.652130,706.852051L413.557617,707.675110L413.641113,708.499207L413.898621,709.286499L414.318420,710.000732L414.880951,710.608765L415.560364,711.082642L416.325348,711.400513L417.140503,711.547607L417.968262,711.517334L418.770538,711.310913L419.510223,710.937988L454.006378,688.485840L496.402924,670.087280L523.255798,662.751526L524.382141,659.314697L510.636627,672.585815L503.688202,683.039490L463.054413,744.072266L453.505554,777.794434L453.406708,778.384521L453.433746,778.982300L453.585388,779.561157L453.854736,780.095337L454.230103,780.561279L454.694763,780.938354L455.228027,781.209717L455.806335,781.363342L456.403931,781.392456L456.994446,781.295776L457.551575,781.077576L458.050751,780.747559L506.826294,740.493774L539.225586,704.302429L548.163391,688.541565L539.333130,701.758179L507.951477,753.543579L468.554016,806.116577L468.191132,806.738098L467.966003,807.421631L467.888641,808.137207L467.962402,808.853027L468.184082,809.537842L468.543945,810.161133L469.025940,810.695496L469.609039,811.117432L470.267334,811.408325L470.971863,811.555176L471.691589,811.551758L472.394653,811.398010L473.050171,811.100830L537.455688,772.178833L578.088806,723.880676z" fill="#000000" stroke="none" fill-opacity="1" />
			</g>
		</g>
	</g>
</svg>
