<?xml version="1.0" encoding="UTF-8"?>
<!-- Generator: Blender, SVG Export for Grease Pencil - v2.0 -->
<!DOCTYPE svg PUBLIC "-//W3C//DTD SVG 1.1//EN" "http://www.w3.org/Graphics/SVG/1.1/DTD/svg11.dtd">
<svg version="1.1" x="0px" y="0px" xmlns="http://www.w3.org/2000/svg" width="1920.000000px" height="1080.000000px" viewBox="0 0 1920.000000 1080.000000">
	<g id="blender_frame.15">
		<g id="blender_object.Stroke.15.uuid_0x0">
			<g id="layer.Fills.uuid_0x1" />
			<g id="layer.black.uuid_0x2" />
			<g id="layer.skin.uuid_0x3" />
			<g id="layer.yella.uuid_0x4" />
			<g id="layer.red.uuid_0x5">
				<polyline points="264.385559,696.215332 233.466614,800.310791 182.373779,777.175781 137.703720,772.187744 178.284286,776.672791 318.780609,844.533569 576.332581,956.810608 382.823059,954.830261 84.756256,888.045166 14.776439,820.308777 22.820663,793.875488 175.113312,707.474609" fill="#D19048" stroke="none" fill-opacity="1" />
				<path d="M269.016937,697.590942L269.196350,696.660889L269.190826,695.713867L269.000702,694.786011L268.633179,693.913147L268.102386,693.128723L267.428894,692.462891L266.638336,691.941345L265.761261,691.583984L264.831329,691.404602L263.884216,691.410095L262.956390,691.600220L262.083496,691.967773L261.299103,692.498535L260.633301,693.172058L260.111664,693.962524L259.754333,694.839600L231.619995,796.267700L183.597107,774.474121L138.984207,772.329956L177.480408,779.467896L317.557281,847.066345L558.104187,952.912720L383.257874,951.077209L86.206223,885.357666L20.999851,818.698914L27.543240,797.656250L177.430511,711.558960L178.182724,711.028442L178.817139,710.361328L179.309052,709.583313L179.639801,708.724243L179.796585,707.817139L179.773468,706.896851L179.571243,705.998840L179.197601,705.157471L178.667038,704.405151L177.999969,703.770874L177.221878,703.278809L176.362885,702.948120L175.455765,702.791260L174.535507,702.814453L173.637482,703.016724L172.796173,703.390381L20.048161,788.988464L18.912676,789.838379L18.026274,790.945679L17.445374,792.239685L9.529037,818.711914L9.292603,820.192871L9.466152,821.682495L10.036755,823.069458L10.961608,824.250000L82.711716,890.157349L84.113441,890.913635L382.001617,958.496704L576.294556,960.521606L577.071960,960.447388L577.816650,960.212097L578.495605,959.826233L579.078796,959.306824L579.540344,958.676880L579.859863,957.964233L580.023193,957.200500L580.023071,956.419556L579.859558,955.655884L579.539795,954.943420L579.078003,954.313538L578.494751,953.794312L577.815613,953.408630L319.954651,841.977112L179.531006,774.091553L137.845230,770.907166L137.576004,770.905701L137.312332,770.960266L137.065826,771.068420L136.847076,771.225464L136.665741,771.424561L136.529846,771.656921L136.445099,771.912476L136.415405,772.180054L136.441895,772.447998L136.523605,772.704529L136.656693,772.938477L136.835678,773.139771L137.052444,773.299438L137.297745,773.410400L137.560730,773.468140L181.578125,780.070984L232.261566,802.972168L232.852524,803.166992L233.471436,803.232300L234.090042,803.165039L234.680374,802.968201L235.215683,802.650879L235.671555,802.227356L236.027527,801.716858L236.267151,801.142639z" fill="#000000" stroke="none" fill-opacity="1" />
				<polyline points="509.103699,775.611572 442.343719,830.918213 426.998993,812.389465 407.485596,696.318970 695.000732,678.490295 706.930176,697.897583 671.474976,818.784058 414.978210,967.762024 276.014954,1025.890015 251.683426,1025.611084 194.170593,981.531921 189.047913,937.596313 231.549210,914.445251 310.863708,891.881226 331.435364,899.932129 509.055603,776.883240 567.682434,736.381165" fill="#D19048" stroke="none" fill-opacity="1" />
				<path d="M510.868256,777.741638L511.249908,777.356445L511.549164,776.904175L511.754364,776.402222L511.857574,775.869934L511.855164,775.327637L511.746948,774.796326L511.537018,774.296326L511.233765,773.846924L510.848572,773.465210L510.396301,773.166077L509.894379,772.960876L509.361969,772.857544L508.819763,772.860046L508.288422,772.968323L507.788422,773.178101L507.339020,773.481445L442.878357,825.225647L430.169281,810.938904L410.786865,698.940674L691.648071,684.948364L700.183533,698.799683L668.125366,816.157715L413.184082,964.151489L274.982971,1020.591675L253.191650,1021.246216L198.028549,979.341064L192.210831,939.234802L232.624451,917.076233L310.552185,898.375183L329.364258,905.224182L330.708160,905.568298L332.095398,905.576538L333.443237,905.248474L334.671478,904.603577L510.631714,779.161377L568.352966,737.351562L568.529297,737.202148L568.673279,737.021118L568.779053,736.815552L568.842773,736.593323L568.861877,736.362854L568.835632,736.133118L568.765015,735.912964L568.652893,735.710693L568.503479,735.534302L568.322510,735.390381L568.117004,735.284546L567.894653,735.220886L567.664246,735.201782L567.434448,735.228027L567.214294,735.298584L567.012085,735.410767L507.481018,774.604065L330.687500,893.536926L313.108948,886.144104L311.158966,885.727478L309.177917,885.955505L230.776230,911.728333L187.635941,935.004028L187.065399,935.409241L186.606384,935.937378L186.284409,936.558655L186.117828,937.238403L186.115952,937.938171L190.112228,982.005127L190.380768,983.058838L190.917709,984.004395L191.685104,984.774780L249.017883,1029.088989L250.252304,1029.752686L251.633194,1029.992676L275.954346,1031.175781L278.054871,1030.766724L416.530762,971.473511L673.460510,822.202515L674.253235,821.596436L674.869080,820.811157L675.268494,819.896606L712.898682,699.648071L713.149963,697.937866L712.920837,696.224487L712.229065,694.640320L700.315247,675.223633L699.249573,673.922729L697.875122,672.953857L696.291809,672.387207L694.614685,672.264160L407.311066,693.503479L406.729492,693.601318L406.181091,693.817871L405.689575,694.143799L405.276520,694.564697L404.960114,695.062256L404.753967,695.614868L404.667297,696.198120L404.703766,696.786743L423.678741,812.947632L424.405914,814.536987L439.230194,833.496704L439.882080,834.125000L440.657471,834.592407L441.517456,834.875488L442.418762,834.960144L443.316467,834.842102L444.165253,834.527222L444.922760,834.031372z" fill="#000000" stroke="none" fill-opacity="1" />
				<polyline points="618.169312,939.055542 652.247009,905.144592 617.270813,861.865906 589.957825,857.311890 557.962280,873.079895 526.298279,906.426697" fill="#D19048" stroke="none" fill-opacity="1" />
				<path d="M615.907715,936.782776L615.507751,937.267700L615.210083,937.821228L615.026184,938.422241L614.963013,939.047668L615.023071,939.673279L615.204163,940.275269L615.499084,940.830322L615.896606,941.317139L616.381531,941.717041L616.935059,942.014709L617.536133,942.198669L618.161438,942.261780L618.787109,942.201721L619.389038,942.020752L619.944092,941.725830L620.430908,941.328247L656.002563,908.918579L656.804688,907.896851L657.335449,906.711182L657.563416,905.432373L657.474854,904.136414L657.075073,902.900391L656.387939,901.798096L620.893188,858.938416L619.617920,857.843140L618.036926,857.271912L590.498535,854.069153L589.478394,854.059509L588.504517,854.363037L556.664551,870.446411L523.628174,903.891296L523.184875,904.460938L522.861206,905.106079L522.669617,905.802063L522.617432,906.521973L522.706726,907.238281L522.934082,907.923340L523.290710,908.550903L523.762878,909.096863L524.332581,909.540222L524.977783,909.863892L525.673706,910.055481L526.393494,910.107605L527.109924,910.018311L527.794983,909.790955L528.422546,909.434326L528.968445,908.962158L559.730408,875.481689L590.461426,860.728760L614.760254,866.169067L645.088318,904.757080z" fill="#000000" stroke="none" fill-opacity="1" />
				<polyline points="214.830078,303.854431 163.253799,525.766174 120.747299,538.940186 104.438835,542.645264 83.781570,541.604919 110.457054,513.334167 101.577133,516.369873 72.542664,525.926575 39.119507,532.186218 29.712124,497.674255 27.682798,436.568115 35.326252,403.152405 59.513565,352.072449 36.174316,373.159546 6.788806,390.943665 20.032368,349.292725 40.506306,311.202515 55.367142,295.863831 84.631859,285.522522 70.166527,274.252563 58.050667,261.171936 52.090759,250.064392 48.239880,239.001160 74.714294,250.315247 93.348999,253.396606 112.837196,252.360535 134.990891,251.282166 179.070801,243.074341" fill="#D19048" stroke="none" fill-opacity="1" />
				<path d="M217.622269,304.503418L217.695221,303.946228L217.658096,303.385498L217.512177,302.842773L217.263336,302.338989L216.920929,301.893311L216.498169,301.523132L216.011292,301.242554L215.478958,301.062256L214.921814,300.989258L214.361038,301.026550L213.818375,301.172241L213.314590,301.421265L212.869019,301.763672L212.498749,302.186401L212.218094,302.673279L212.037888,303.205505L160.476547,523.182495L119.819008,535.478210L104.120232,538.972717L92.395470,538.143921L113.917236,516.599182L114.507797,515.828979L114.929802,514.955078L115.165611,514.013672L115.205612,513.044067L115.047852,512.086426L114.699150,511.180786L114.173859,510.364746L113.493858,509.672241L112.687622,509.132141L111.788460,508.766907L110.833916,508.591736L109.863678,508.613953L108.918175,508.832581L100.089630,511.936096L71.456619,521.700806L42.480240,526.822876L34.745350,496.915283L33.245373,437.102905L40.347973,404.892395L63.191357,353.813904L63.474941,353.003601L63.582058,352.151733L63.508244,351.296387L63.256474,350.475586L62.838188,349.725830L62.271877,349.080566L61.582890,348.568420L60.801601,348.212280L59.963146,348.027954L59.104614,348.023621L58.264328,348.199524L57.479549,348.547791L56.785351,349.052917L33.374691,369.395264L16.155567,379.052612L24.498882,351.183899L43.940331,313.713745L57.478176,299.153931L85.713554,288.583496L86.338974,288.283936L86.886459,287.858459L87.331177,287.326294L87.652641,286.711914L87.836372,286.043274L87.873856,285.350830L87.763420,284.666199L87.510162,284.020691L87.125473,283.443665L86.627197,282.961487L72.522179,271.686951L61.121235,258.980835L55.675446,248.490479L55.045795,246.292908L73.315598,253.588135L92.787720,256.790649L113.010399,255.761841L135.147690,254.504333L179.470306,245.219482L179.881042,245.100403L180.260757,244.903381L180.594803,244.636047L180.870148,244.308716L181.076431,243.934021L181.205566,243.526245L181.252731,243.101074L181.216049,242.674988L181.096848,242.264160L180.899902,241.884338L180.632568,241.550354L180.305267,241.274963L179.930466,241.068726L179.522720,240.939575L179.097565,240.892456L178.671402,240.929077L134.615479,248.070618L112.671661,248.958740L93.540520,249.941528L75.718285,246.873718L49.823856,235.294800L49.016644,235.046021L48.175217,234.971069L47.336655,235.072998L46.537685,235.347595L45.813675,235.782654L45.196095,236.358948L44.712292,237.051392L44.383389,237.829407L44.223862,238.658997L44.240738,239.503479L44.433346,240.326050L48.404785,251.347351L54.753738,262.940979L67.619652,276.611572L77.957207,284.437805L54.099194,292.275757L52.634068,293.215759L37.479916,308.270508L15.778198,347.006042L1.715755,389.330627L1.495342,390.380737L1.489963,391.453735L1.699905,392.505981L2.116642,393.494751L2.723064,394.379822L3.494797,395.125427L4.400253,395.701050L5.402927,396.083374L6.461620,396.256958L7.533817,396.214539L8.575745,395.958069L9.545001,395.497864L38.592281,377.154846L47.105713,368.767395L30.551147,400.891296L22.280560,435.332458L24.659269,497.842041L34.630333,533.409851L34.990082,534.330505L35.536251,535.154297L36.243954,535.844299L37.081604,536.369080L38.011093,536.705200L38.990650,536.837341L39.976044,536.759583L73.344040,530.205566L103.039337,520.812012L106.456657,515.909119L80.952354,538.935303L80.464149,539.573792L80.117569,540.298889L79.927361,541.079834L79.901680,541.883057L80.041634,542.674500L80.341354,543.420349L80.787796,544.088562L81.362167,544.650818L82.039772,545.083008L82.791649,545.366760L83.585983,545.489929L104.255211,546.292480L121.540779,542.432739L164.227753,528.908752L165.004181,528.551880L165.662613,528.007080L166.158417,527.311157L166.458374,526.511047z" fill="#000000" stroke="none" fill-opacity="1" />
				<polygon points="397.823914,88.620361 397.769562,69.736877 402.697205,51.343872 409.828644,39.354004 425.965454,52.334595 417.396393,60.440369 404.385529,78.440979" fill="#D19048" stroke="none" fill-opacity="1" />
				<path d="M395.278442,88.627563L395.328827,89.124084L395.475037,89.601196L395.711548,90.040527L396.029205,90.425415L396.415863,90.740845L396.856598,90.974915L397.334503,91.118347L397.831238,91.165894L398.327698,91.115479L398.804810,90.969177L399.244263,90.732727L399.629059,90.415100L399.944519,90.028442L400.178406,89.587708L400.321930,89.109741L400.369446,88.613098L399.637543,69.979919L405.197479,52.398438L410.645081,43.882080L421.880768,52.498535L416.294006,59.274963L403.236969,77.610779L395.684448,87.241272L395.456482,87.685059L395.319550,88.165039L395.278809,88.662292L395.335907,89.158020L395.488617,89.633118L395.731018,90.069275L396.053894,90.449768L396.444794,90.759949L396.888702,90.987793L397.368561,91.124695L397.865936,91.165405L398.361633,91.108337L398.836700,90.955688L399.272858,90.713257L399.653320,90.390442L399.963440,89.999512L405.556274,79.240601L418.608307,61.502197L427.812592,54.287354L428.184052,53.852051L428.454987,53.348022L428.613098,52.797852L428.651215,52.226807L428.567505,51.660767L428.365906,51.125122L428.055420,50.644287L427.650177,50.240112L411.719330,37.003662L411.177124,36.655762L410.573486,36.431030L409.935883,36.339478L409.293365,36.385376L408.675262,36.566772L408.109772,36.875366L407.622620,37.296631L407.236115,37.812134L400.386993,49.969849L395.965973,69.253601z" fill="#000000" stroke="none" fill-opacity="1" />
				<polyline points="114.220436,253.993835 134.936142,252.523865 184.146133,245.422913 208.292770,290.217957 203.493973,339.314453 140.443039,289.457764 142.332169,281.662659 97.789993,269.961731 112.837196,252.360535" fill="#DDC759" stroke="none" fill-opacity="1" />
				<polygon points="411.828522,94.025940 417.319031,81.533264 426.704071,66.879517 441.573486,54.033203 453.464935,49.811279 448.950653,91.972656 439.243225,91.137268 424.381927,94.746643" fill="#D19048" stroke="none" fill-opacity="1" />
				<path d="M409.584503,93.039612L409.435211,93.496399L409.377869,93.973511L409.414703,94.452576L409.544373,94.915344L409.761749,95.343750L410.058563,95.721802L410.423431,96.034302L410.842255,96.270020L411.299042,96.419189L411.776154,96.476440L412.255188,96.439636L412.717926,96.309998L413.146454,96.092712L413.524353,95.795837L413.837067,95.430908L414.072571,95.012085L418.396454,82.110657L428.043671,68.040222L443.387054,57.150940L448.976959,55.497681L447.614624,90.351135L439.465240,88.557739L424.148438,92.172180L411.969055,91.578552L411.457184,91.602905L410.961578,91.733093L410.503784,91.963440L410.103912,92.283997L409.779419,92.680481L409.544495,93.136047L409.409393,93.630310L409.380066,94.141907L409.457642,94.648376L409.638916,95.127869L409.915924,95.558960L410.276459,95.923157L410.704803,96.204407L411.182281,96.390503L411.688019,96.473145L424.235382,97.299255L439.442993,93.753235L448.821930,93.468018L449.153534,93.459839L449.475220,93.378967L449.771271,93.229553L450.027222,93.018494L450.230621,92.756470L450.371521,92.456177L450.443054,92.132446L457.300110,50.222046L457.295441,49.358765L457.098755,48.518188L456.720123,47.742188L456.178375,47.070068L455.500763,46.535278L454.721069,46.164429L453.878479,45.976562L453.015228,45.980591L452.174408,46.176514L440.387451,50.692261L439.255890,51.350586L425.557281,65.552185L416.292725,80.876099z" fill="#000000" stroke="none" fill-opacity="1" />
				<polyline points="206.997116,276.081604 207.176270,288.857605 199.257370,291.087769 191.101273,277.951416 186.159256,263.418030 180.784836,241.110291 193.412460,226.208801" fill="#20116D" stroke="none" fill-opacity="1" />
				<path d="M210.040329,276.038940L209.973495,275.446106L209.792343,274.877625L209.503769,274.355469L209.118805,273.899536L208.652344,273.527588L208.122299,273.253662L207.548950,273.088562L206.954437,273.038330L206.361526,273.105164L205.793091,273.286377L205.270905,273.575012L204.815094,273.960022L204.443024,274.426392L204.169220,274.956482L204.004028,275.529724L203.953857,276.124329L204.088821,286.553528L200.628647,287.555664L193.841629,276.655579L188.792023,262.655029L183.072968,241.654053L194.600082,227.215210L194.773575,226.964172L194.894760,226.684143L194.959030,226.385803L194.963837,226.080750L194.908951,225.780579L194.796692,225.496887L194.631210,225.240417L194.418854,225.021301L194.167786,224.847900L193.887787,224.726624L193.589447,224.662354L193.284348,224.657532L192.984238,224.712402L192.700470,224.824707L192.444061,224.990112L192.224960,225.202576L179.184784,239.754456L178.913208,240.163940L178.744415,240.625549L178.687592,241.113586L178.745956,241.601562L183.497253,264.059387L188.250031,278.920959L196.684799,292.685059L197.177338,293.288452L197.807510,293.746338L198.533539,294.028198L199.307556,294.115479L200.078262,294.002625L208.004379,291.797974L208.621658,291.548706L209.170456,291.171692L209.624390,290.684692L209.962067,290.110840L210.167480,289.477539L210.230698,288.814758z" fill="#000000" stroke="none" fill-opacity="1" />
				<polyline points="375.790955,571.676758 503.341370,688.902466 530.224304,651.521118 537.404236,621.856079 521.211975,579.994873 489.149078,546.901794 369.256714,381.452026 362.266541,377.721558 300.604065,356.580750 277.597504,430.151978" fill="#DDC759" stroke="none" fill-opacity="1" />
				<path d="M379.718506,567.403259L378.809357,566.719116L377.784088,566.225525L376.682343,565.941406L375.546356,565.877686L374.419647,566.036865L373.345795,566.412781L372.365723,566.990967L371.517487,567.749207L370.833313,568.658325L370.339722,569.683594L370.055603,570.785278L369.991882,571.921387L370.151093,573.047974L370.527008,574.121948L371.105164,575.101868L371.863373,575.950195L501.341064,691.078857L501.842041,691.450012L502.409821,691.707764L503.019012,691.840820L503.642426,691.843018L504.252655,691.714478L504.822235,691.460815L505.325897,691.093262L505.741302,690.628296L535.782715,655.518433L536.878723,653.131714L545.922729,623.917847L546.149780,621.279663L545.578491,618.694153L527.976257,577.378296L526.420898,574.948120L492.918060,543.737976L373.710358,378.224731L371.846283,376.599792L365.398041,371.853577L301.823669,353.023499L300.986908,352.839783L300.130402,352.850220L299.298401,353.054199L298.534180,353.441101L297.877350,353.991089L297.361969,354.675293L297.014862,355.458435L273.765839,428.953674L273.605743,429.724243L273.598999,430.511230L273.745941,431.284424L274.040863,432.013977L274.472534,432.672119L275.024170,433.233398L275.674835,433.676086L276.399292,433.983521L277.169769,434.143616L277.956787,434.150452L278.729950,434.003418L279.459503,433.708557L280.117645,433.276917L280.678864,432.725159L281.121643,432.074646L281.429047,431.350098L303.039948,361.391418L359.605164,383.840454L365.547668,385.706848L485.174561,549.781921L514.978760,583.984375L528.240479,622.459961L523.884766,648.610107L502.887482,684.470459z" fill="#000000" stroke="none" fill-opacity="1" />
				<polyline points="256.848450,503.559387 214.654984,366.965210 156.473404,352.950562 100.119263,375.300720 98.044800,415.304688 116.554237,655.693359 134.268555,756.105469 182.232056,794.857544 173.559555,728.278442 209.131439,772.324707 242.326294,681.381836" fill="#DDC759" stroke="none" fill-opacity="1" />
				<path d="M252.973923,504.756226L253.281830,505.489136L253.726791,506.147888L254.291840,506.707092L254.955078,507.145386L255.691040,507.445923L256.471466,507.597046L257.266418,507.592957L258.045319,507.433960L258.778198,507.126038L259.436920,506.681030L259.996246,506.116028L260.434509,505.452820L260.735016,504.716797L260.886139,503.936340L260.882080,503.141418L260.722992,502.362549L216.051346,366.533875L215.894562,366.190979L215.655273,365.899658L215.349365,365.679260L214.997238,365.544434L157.132187,350.215393L156.274857,350.144104L155.436172,350.335327L98.660255,371.622131L97.865700,372.047668L97.187981,372.642090L96.662346,373.374512L96.316162,374.206787L96.167213,375.095825L95.093994,415.151611L113.911972,655.896851L130.597626,756.753174L131.057800,757.999329L131.925888,759.005005L179.774261,797.899536L180.484543,798.356323L181.276413,798.649902L182.112747,798.766602L182.954681,798.701050L183.762985,798.456299L184.499802,798.043823L185.130890,797.482666L185.626877,796.799194L185.964600,796.025146L186.128250,795.196655L186.110168,794.352295L179.667892,742.548828L205.853165,774.972290L206.481110,775.600708L207.226852,776.083618L208.057251,776.399414L208.935471,776.533997L209.822311,776.481567L210.678452,776.244324L211.465927,775.832886L212.149597,775.265503L212.699020,774.567383L213.089890,773.769531L246.284683,682.826660L246.490555,682.026672L246.536346,681.201965L246.420288,680.384033L246.147018,679.604492L245.726837,678.893311L245.175980,678.277710L244.515656,677.781372L243.771118,677.423462L242.971115,677.217651L242.146271,677.171875L241.328415,677.287842L240.548904,677.561157L239.837723,677.981323L239.222076,678.532227L238.725800,679.192566L238.367828,679.937012L207.728073,763.880005L176.837830,725.630920L176.248611,725.034119L175.552765,724.565796L174.778000,724.244568L173.954941,724.083191L173.116211,724.087952L172.295090,724.258728L171.524033,724.588745L170.833679,725.065063L170.251236,725.668518L169.799866,726.375488L169.497467,727.157715L169.355911,727.984497L169.380966,728.822754L177.092285,785.677002L137.697083,754.083252L119.186546,655.360596L101.005493,415.267639L103.939758,378.042786L156.681564,355.894531L213.504166,368.191223z" fill="#000000" stroke="none" fill-opacity="1" />
				<polyline points="205.660919,305.856445 207.678894,276.823425 186.884125,184.153748 175.913773,177.112061 157.977219,165.073669 144.916473,146.563416 141.880630,130.301636 185.746994,145.765381 163.124252,117.702454 159.584137,97.344116 156.910172,61.623535 206.171539,92.447144 227.415161,97.488892 247.428528,99.590088 261.587616,96.408875 292.275482,94.724609 351.346375,96.651306 386.001801,97.419495 403.390686,100.825745 408.226044,113.561462 424.197388,167.190247 438.115601,219.795471 439.429840,230.643066 400.672974,290.862244 391.889160,306.991089 386.371613,316.558105 350.368134,306.674500 280.505157,287.497681 276.375885,322.910095" fill="#DDC759" stroke="none" fill-opacity="1" />
				<path d="M202.785126,305.656555L202.801376,306.221497L202.927536,306.772278L203.158722,307.287964L203.486069,307.748535L203.897034,308.136475L204.375732,308.436829L204.903885,308.637939L205.461029,308.732239L206.025909,308.715942L206.576782,308.589783L207.092453,308.358521L207.553024,308.031250L207.940964,307.620300L208.241318,307.141602L208.442459,306.613464L208.536758,306.056274L210.724182,277.035156L187.976517,183.908691L187.876907,183.636230L187.710632,183.398682L187.488953,183.211670L176.832565,175.712341L160.117538,162.882751L148.621490,144.999084L147.178741,136.487915L185.160309,147.429932L185.501007,147.513000L185.851593,147.527222L186.197952,147.471680L186.526505,147.348816L186.824341,147.163452L187.079544,146.922607L187.282089,146.636292L187.424011,146.315491L187.499710,145.972961L187.506104,145.622192L187.443008,145.277161L187.313004,144.951294L187.121033,144.657776L166.614929,116.121216L163.661331,96.838196L161.672516,69.511047L204.552597,95.034424L226.986465,99.295105L247.371643,100.131409L261.686798,97.123657L292.296509,96.620422L351.253784,99.490540L385.690918,100.292664L401.203217,103.419128L405.374146,114.526062L421.231445,168.023987L435.018982,220.389832L436.136658,229.887085L397.845978,289.042847L388.413330,305.042786L384.396423,311.751221L351.395233,302.933228L281.392761,284.263794L280.681274,284.148804L279.961670,284.188538L279.267181,284.381042L278.629822,284.717468L278.079132,285.182312L277.640472,285.754211L277.334045,286.406555L277.174255,287.109192L273.258575,322.546631L273.247589,323.161865L273.356781,323.767212L273.582001,324.339783L273.914612,324.857300L274.341827,325.300049L274.847076,325.651001L275.411224,325.896545L276.012421,326.027344L276.627502,326.038391L277.232941,325.929260L277.805481,325.703979L278.323029,325.371399L278.765778,324.944214L279.116760,324.438843L279.362213,323.874817L279.493103,323.273621L283.383667,291.765381L349.341125,310.415833L385.282959,320.523865L386.171661,320.665649L387.069885,320.610901L387.934753,320.361938L388.724670,319.930908L389.401917,319.338379L389.934143,318.612610L395.340668,308.981689L403.566559,292.578247L442.102509,232.363281L442.527588,231.354187L442.585083,230.260864L441.238434,219.417175L427.175507,166.402161L411.109406,112.702759L406.162994,99.773132L405.810242,99.111145L405.302643,98.558960L404.672668,98.151733L403.960724,97.915649L386.555298,94.593994L351.424133,93.811584L292.337219,92.831421L261.548126,95.690857L247.396378,99.039246L227.727631,95.655334L207.364868,89.593262L159.116867,58.096741L158.292206,57.699585L157.400726,57.492310L156.485367,57.484985L155.590668,57.677917L154.759766,58.062073L154.033066,58.618591L153.445526,59.320557L153.025757,60.133728L152.793961,61.019409L152.761459,61.934204L155.491959,97.650391L159.469131,118.338074L160.235870,120.030701L180.472580,142.034668L143.234650,126.460571L142.406555,126.262878L141.555344,126.241943L140.718445,126.398254L139.932343,126.725098L139.231339,127.208252L138.646088,127.826599L138.202225,128.553162L137.919098,129.356201L137.809067,130.200500L137.876862,131.049194L141.053925,147.284363L141.705948,148.828674L155.516281,166.810120L174.980789,178.502197L185.892502,184.847534L204.602737,277.056702z" fill="#000000" stroke="none" fill-opacity="1" />
				<polygon points="337.656616,302.303528 382.453461,257.898254 398.062073,295.387756 386.546906,318.189697 351.858948,304.777222" fill="#20116D" stroke="none" fill-opacity="1" />
				<path d="M334.991089,299.614441L334.517700,300.186096L334.164948,300.839172L333.946350,301.548523L333.870392,302.286804L333.939911,303.025818L334.152252,303.737061L334.499237,304.393250L334.967560,304.968994L335.539276,305.442383L336.192322,305.795166L336.901642,306.013733L337.640015,306.089783L338.378967,306.020203L339.090210,305.807922L339.746338,305.460876L340.322174,304.992554L382.453461,257.898254L394.272156,295.249146L384.551727,313.001221L353.256409,301.163086L338.306335,298.573364L337.566132,298.518250L336.829407,298.608704L336.124451,298.841003L335.478455,299.206421L334.916077,299.690918L334.459045,300.275757L334.124908,300.938538L333.926514,301.653809L333.871399,302.393982L333.961761,303.130676L334.194183,303.835571L334.559601,304.481750L335.044037,305.044067L335.628937,305.501038L336.291718,305.835266L337.006927,306.033630L350.817780,308.529175L385.061096,322.032349L386.038940,322.278076L387.047241,322.279053L388.025604,322.035034L388.915344,321.560730L389.663208,320.884460L390.224487,320.046875L401.137634,296.940979L401.451782,296.005493L401.487854,295.019348L401.242950,294.063354L382.453461,257.898254z" fill="#000000" stroke="none" fill-opacity="1" />
				<polygon points="277.259735,187.222046 310.445465,182.063965 330.105011,191.298218 325.248962,220.401184 329.094360,231.648560 297.919739,222.209961 282.497650,219.580688 258.898804,214.582825 259.485352,210.167480 255.564407,192.828857" fill="#20116D" stroke="none" fill-opacity="1" />
				<path d="M276.932800,185.118835L276.528839,185.223022L276.152954,185.404053L275.819489,185.654968L275.541443,185.966003L275.329437,186.325378L275.191650,186.719177L275.133301,187.132324L275.156647,187.549011L275.260803,187.953003L275.441833,188.328918L275.692688,188.662354L276.003784,188.940308L276.363129,189.152344L276.756989,189.290161L277.170013,189.348572L277.586670,189.325195L310.072449,184.664734L325.552521,193.686584L324.569489,220.287781L324.597168,220.624084L329.094360,231.648560L298.742676,219.491882L282.986908,217.020081L261.481934,212.757935L261.666351,210.457092L257.827545,194.209351L277.792328,189.282715L278.184113,189.139282L278.540436,188.922058L278.847412,188.639587L279.093475,188.302612L279.269043,187.924133L279.367371,187.518616L279.384766,187.101746L279.320465,186.689514L279.176971,186.297668L278.959808,185.941406L278.677307,185.634399L278.340271,185.388367L277.961823,185.212708L277.556305,185.114441L277.139465,185.097107L276.727234,185.161316L255.088287,190.986450L254.697632,191.134766L254.348755,191.364868L254.058548,191.665466L253.840927,192.022278L253.706406,192.417908L253.661484,192.833374L253.708420,193.248535L257.252380,210.268372L256.598694,214.277283L256.586151,214.771423L256.678619,215.257080L256.871826,215.712036L257.157043,216.115784L257.521301,216.450012L257.948181,216.699341L258.418060,216.852722L281.957672,222.130554L297.267151,224.979492L329.094360,231.648560L325.957031,220.342957L334.146393,191.972412L334.197052,191.089905L334.057098,190.217163L333.733276,189.394470L333.240509,188.660645L332.601868,188.049500L331.846893,187.589539L311.513733,179.789734L310.802307,179.576782L310.059570,179.581116z" fill="#000000" stroke="none" fill-opacity="1" />
				<polygon points="404.238342,175.502197 389.985291,176.400635 375.482971,182.670349 379.653259,219.500610 378.002563,231.090576 396.009247,216.899231 404.499146,212.567261 416.447784,208.030273 415.643738,202.053284 416.783936,181.570007" fill="#20116D" stroke="none" fill-opacity="1" />
				<path d="M404.359100,177.418518L404.730621,177.358032L405.083221,177.226379L405.403320,177.028381L405.678711,176.771790L405.898743,176.466370L406.054993,176.123901L406.141327,175.757507L406.154510,175.381409L406.094208,175.009827L405.962463,174.657227L405.764526,174.337219L405.507935,174.061829L405.202484,173.841797L404.860046,173.685547L404.493652,173.599182L404.117462,173.585938L389.834747,174.012512L374.045166,179.344482L373.252441,179.814941L372.604095,180.470276L372.142120,181.267822L371.896301,182.156311L371.882629,183.078064L379.133148,219.493164L378.002563,231.090576L396.954529,218.375122L405.299316,214.371948L417.145782,209.868347L417.536011,209.667786L417.872070,209.385742L418.137177,209.036133L418.318207,208.636536L418.406097,208.206726L418.396515,207.768127L417.603729,201.976685L418.719574,181.677673L418.691406,181.223694L418.558197,180.788635L418.327332,180.396790L418.011414,180.069397L417.628021,179.824707L405.074310,173.773621L404.721039,173.643799L404.349243,173.585327L403.973053,173.600525L403.607208,173.688843L403.265594,173.846741L402.961273,174.068420L402.706085,174.345032L402.509735,174.666321L402.379913,175.019531L402.321442,175.391357L402.336578,175.767456L402.424866,176.133301L402.582886,176.474976L402.804413,176.779297L403.081116,177.034424L403.402313,177.230713L414.776337,182.752502L413.694000,201.944702L414.291168,206.745972L403.799377,210.724487L395.216522,215.345398L378.002563,231.090576L380.164062,219.573303L379.385468,184.930664L390.552002,178.762390z" fill="#000000" stroke="none" fill-opacity="1" />
				<polygon points="283.707031,201.282715 293.193695,194.692200 299.166107,203.933594 298.665833,220.393555 280.063690,217.344604" fill="#EDEEEB" stroke="none" fill-opacity="1" />
				<polyline points="385.303894,224.265564 396.492676,214.771118 395.973267,197.835205 385.821136,189.373108 381.873810,202.874146 382.809662,219.656128" fill="#EDEEEB" stroke="none" fill-opacity="1" />
				<polygon points="366.912628,508.829102 360.602142,432.770569 336.708801,363.465820 282.479370,339.302185 290.202179,317.312500 235.284409,309.792419 187.681335,308.271545 192.061096,330.318542 150.572601,349.204163 179.949127,385.335083 199.929718,517.802307 236.884399,796.745483 243.031540,822.616211 361.555023,891.685486 404.214722,931.585022 415.563568,996.709351 429.840118,1014.360229 501.273956,1039.076294 593.145081,1044.099609 658.254150,1019.704041 682.076294,987.201538 652.642944,960.380554 567.639038,922.179199 532.804810,884.048889 502.987976,839.437744 462.190826,831.458069 420.050049,727.524048 406.765686,672.850342 393.481354,618.176575 380.196991,563.502869" fill="#20033D" stroke="none" fill-opacity="1" />
				<path d="M362.351166,509.207581L362.512634,510.090210L362.843201,510.924377L363.330139,511.677979L363.954773,512.322144L364.693085,512.832092L365.516663,513.188171L366.393921,513.376709L367.291077,513.390564L368.173645,513.229065L369.007812,512.898499L369.761505,512.411499L370.405640,511.786926L370.915527,511.048584L371.271637,510.225037L371.460205,509.347839L371.474030,508.450623L365.163513,432.392090L340.181610,362.268555L339.729706,361.375854L339.053741,360.638245L338.203857,360.110352L285.209351,338.125549L293.420105,318.442566L293.589874,317.707825L293.593872,316.953796L293.432190,316.217285L293.112549,315.534241L292.650604,314.938110L292.069000,314.458191L291.396149,314.117615L290.664886,313.933411L235.692612,306.811462L187.773224,305.396790L187.129898,305.448669L186.514420,305.642578L185.957626,305.968994L185.487610,306.411316L185.128098,306.947266L184.897095,307.549866L184.806290,308.188782L184.860245,308.831909L189.659271,329.087097L149.392548,346.611816L148.836533,346.946106L148.370529,347.397644L148.018799,347.942871L147.799576,348.553467L147.724274,349.197937L147.796783,349.842712L148.013306,350.454285L148.362625,351.001038L177.732178,386.314941L196.764740,518.250610L231.473450,797.462402L240.295319,823.266357L240.567856,823.972534L241.018799,824.580505L241.615494,825.046143L359.221039,894.821533L399.643097,934.056946L412.275421,997.282349L412.968445,998.808350L427.280212,1016.430786L427.948914,1017.055298L428.763580,1017.471802L499.227417,1044.990967L592.747192,1051.375977L595.701904,1050.923584L660.163086,1024.798462L661.539673,1024.040283L662.642090,1022.920044L686.099487,990.150269L686.692871,989.090698L687.012512,987.919312L687.039673,986.705261L686.772644,985.520630L686.227295,984.435669L685.436096,983.514587L655.621948,957.111389L569.354187,919.809204L535.567200,881.884094L506.109558,837.351318L505.460327,836.611938L504.641296,836.066650L503.708588,835.752808L465.122253,827.901672L422.759674,726.650757L409.946838,672.077393L397.084625,617.301086L384.222473,562.524780L371.360229,507.748474L371.063965,506.901489L370.608154,506.128662L370.010315,505.459595L369.293457,504.919983L368.485046,504.530640L367.616241,504.306458L366.720367,504.256104L365.831940,504.381409L364.984985,504.677734L364.212097,505.133545L363.543030,505.731384L363.003510,506.448364L362.614105,507.256653L362.389923,508.125488L362.339569,509.021362L362.464935,509.909790L376.171478,564.480957L389.878021,619.052124L403.584534,673.623230L417.291138,728.194397L458.434784,832.981018L458.923828,833.856750L459.612885,834.585510L460.459839,835.122803L461.412842,835.435669L500.734283,842.822754L529.895325,885.993530L565.524048,924.111450L566.464783,924.792236L650.185791,964.125366L675.402954,987.868774L654.825684,1015.178955L592.018188,1036.739868L502.491608,1032.874634L431.807434,1011.556824L418.703094,995.283447L409.069794,930.738892L408.549866,929.240967L407.581146,927.985718L364.208557,888.848328L245.489029,820.793274L242.258820,795.753662L203.098526,517.382507L182.261169,384.986328L181.763367,383.859985L155.109100,350.268738L192.937714,332.244385L193.342377,332.002380L193.683426,331.676880L193.943939,331.283997L194.110962,330.843018L194.176178,330.376099L194.136414,329.906311L191.207825,311.261902L235.031601,312.794495L285.599670,320.124756L280.417023,338.577942L280.310608,339.029663L280.301971,339.493835L280.391510,339.949341L280.575256,340.375610L280.844879,340.753479L281.188202,341.065918L281.589722,341.298828L333.756042,366.171753L356.088104,433.720398z" fill="#000000" stroke="none" fill-opacity="1" />
				<polyline points="652.247009,905.144592 617.270813,861.865906" fill="#DDC759" stroke="none" fill-opacity="1" />
				<path d="M648.106079,908.491150L648.838562,909.234680L649.701904,909.821045L650.663208,910.227783L651.685303,910.439087L652.729004,910.446899L653.754150,910.251038L654.721375,909.858887L655.593567,909.285522L656.337036,908.553101L656.923462,907.689697L657.330200,906.728455L657.541443,905.706299L657.549316,904.662598L657.353455,903.637451L656.961243,902.670227L656.387939,901.798096L620.893188,858.938416L620.252563,858.287964L619.497314,857.775024L618.656372,857.419312L617.762207,857.234436L616.849182,857.227600L615.952454,857.398987L615.106323,857.742004L614.343445,858.243530L613.692932,858.884277L613.180054,859.639526L612.824341,860.480408L612.639404,861.374512L612.632568,862.287476L612.803955,863.184326L613.146973,864.030457L613.648560,864.793396z" fill="#000000" stroke="none" fill-opacity="1" />
				<polyline points="612.008362,872.606262 590.213257,875.995911 579.776794,873.532349 579.500977,867.426147 600.448730,832.730103 606.430298,812.101807 616.030518,775.818726 626.046509,796.141846 633.567200,825.610352 632.554626,848.828369" fill="#20116D" stroke="none" fill-opacity="1" />
				<path d="M612.664124,876.822449L613.473999,876.613525L614.227600,876.250549L614.895996,875.747559L615.453308,875.123901L615.878296,874.403442L616.154602,873.613953L616.271545,872.785706L616.224609,871.950562L616.015625,871.140625L615.652771,870.387085L615.149658,869.718750L614.526001,869.161377L613.805603,868.736389L613.016052,868.460144L612.187805,868.343201L611.352783,868.390137L590.339722,872.735229L582.577637,871.210938L582.451538,868.176392L603.206848,834.395325L608.850586,812.803589L616.562439,781.141479L624.021240,796.890015L629.984741,825.981201L627.741272,848.618408L627.792847,849.561523L628.027405,850.476379L628.435791,851.328003L629.002625,852.083496L629.705994,852.713867L630.518738,853.195007L631.409790,853.508301L632.344788,853.641724L633.287903,853.590210L634.202698,853.355652L635.054260,852.947144L635.809814,852.380371L636.440247,851.677063L636.921387,850.864258L637.234558,849.973267L637.368042,849.038269L637.126770,825.765625L628.127014,795.610840L617.713013,774.989502L617.512451,774.668701L617.251404,774.394714L616.940674,774.178589L616.593018,774.029297L616.222351,773.952759L615.843994,773.952271L615.473083,774.027710L615.124939,774.176025L614.813660,774.391235L614.551941,774.664490L614.350281,774.984741L614.217102,775.338928L604.001709,811.428467L597.471985,831.426758L577.006592,865.920166L576.677124,866.708008L576.590271,867.557617L576.876953,873.663269L576.972168,874.280762L577.197266,874.863525L577.541870,875.384583L577.989990,875.819946L578.520874,876.149231L579.109924,876.357422L589.477478,879.112671L590.705322,879.160278z" fill="#000000" stroke="none" fill-opacity="1" />
				<polygon points="633.909729,848.638123 647.758667,828.030884 661.995361,797.198364 664.076050,808.903015 664.000183,858.296448 652.247009,905.144592 636.342285,915.401855 608.758484,909.583618 598.813782,900.596802 602.658447,882.850525 618.524170,865.706909" fill="#20116D" stroke="none" fill-opacity="1" />
				<path d="M629.901367,845.944275L629.452820,846.778076L629.175537,847.683289L629.080322,848.625244L629.170532,849.567688L629.442993,850.474365L629.887024,851.310547L630.485657,852.043945L631.215881,852.646484L632.049744,853.095032L632.954956,853.372253L633.896912,853.467590L634.839355,853.377319L635.746033,853.104858L636.582153,852.660767L637.315613,852.062134L637.918152,851.331909L650.873352,830.124084L660.785645,806.573242L660.870911,809.183228L658.411438,857.601807L647.594482,901.809692L635.537231,911.038269L610.196777,906.761536L602.071960,899.548462L605.917847,884.547485L621.957947,868.884827L637.497009,851.871582L638.058899,851.109619L638.461426,850.252686L638.688904,849.333679L638.732727,848.387939L638.591309,847.451843L638.269958,846.561279L637.781067,845.750610L637.143250,845.050781L636.381348,844.488892L635.524353,844.086487L634.605347,843.858948L633.659546,843.815063L632.723450,843.956543L631.833008,844.277893L631.022278,844.766846L630.322510,845.404602L615.069458,862.551575L600.056885,880.442871L599.194092,882.099976L595.918762,899.969604L595.855164,900.741821L595.993958,901.504150L596.325745,902.204346L596.827820,902.794556L606.707947,911.852661L608.127258,912.576050L635.495483,919.416992L636.557007,919.499695L637.604126,919.306519L638.566345,918.850342L655.132568,909.619019L656.152588,908.763123L656.928284,907.680908L657.411133,906.440186L669.422058,859.656677L667.280701,808.907959L664.783447,796.702637L664.617676,796.129517L664.335571,795.603760L663.949463,795.148804L663.476685,794.784851L662.938171,794.528076L662.357666,794.389771L661.761230,794.376221L661.175049,794.487915L660.625427,794.719910L660.136475,795.062012L659.730103,795.498901L659.424316,796.011169L644.477112,826.186096z" fill="#000000" stroke="none" fill-opacity="1" />
				<polyline points="550.384399,901.745422 560.518433,887.432373 570.158447,881.603210 592.013611,885.028625 587.276001,908.557068 576.755188,917.175842 567.359680,918.949951" fill="#20116D" stroke="none" fill-opacity="1" />
				<path d="M547.906006,899.990601L547.611328,900.507874L547.423218,901.072632L547.348816,901.663330L547.391174,902.257080L547.548401,902.831177L547.814819,903.363647L548.179871,903.833862L548.629639,904.223755L549.146790,904.518494L549.711670,904.706665L550.302307,904.781006L550.895996,904.738708L551.470215,904.581360L552.002563,904.315063L552.472778,903.949951L552.862671,903.500183L562.544617,889.610474L570.742371,884.572327L588.333923,887.591248L584.717102,907.017700L575.526794,914.542603L566.830627,916.148438L566.294312,916.305481L565.798828,916.564087L565.363403,916.914490L565.004639,917.343018L564.736389,917.833313L564.568970,918.366577L564.508850,918.922241L564.558167,919.478943L564.715210,920.015320L564.973877,920.510742L565.324280,920.946228L565.752869,921.304932L566.243103,921.573242L566.776306,921.740601L567.332031,921.800781L567.888672,921.751404L577.277588,919.942383L578.539307,919.353699L589.058167,910.732666L589.685852,910.006836L590.033142,909.112183L595.054077,885.640869L595.113464,884.929810L595.008911,884.223999L594.745667,883.560730L594.337891,882.975220L593.807129,882.498352L593.181335,882.155396L592.493774,881.964539L570.598633,878.794617L569.609863,878.813782L568.687439,879.170471L559.011597,884.940430L558.141724,885.749573z" fill="#000000" stroke="none" fill-opacity="1" />
				<polygon points="214.522018,975.446350 181.607605,985.588562 170.226227,982.286133 153.596588,955.485596 131.518982,903.892456 131.478256,876.908691 174.748520,917.485291 207.027512,933.527161 231.542526,951.818787 227.154907,967.260681" fill="#20116D" stroke="none" fill-opacity="1" />
				<path d="M215.479599,978.554077L216.067413,978.307495L216.595963,977.951050L217.044739,977.498291L217.396591,976.966675L217.637955,976.376709L217.759613,975.750854L217.756805,975.113403L217.629715,974.488708L217.383209,973.900879L217.026657,973.372375L216.573929,972.923584L216.042313,972.571716L215.452362,972.330322L214.826584,972.208679L214.189041,972.211487L213.564377,972.338562L181.568344,980.829041L173.293701,978.241943L157.023758,953.701965L134.440445,903.291321L134.310669,883.434204L172.767853,919.597534L205.547729,935.934570L228.188095,952.954590L224.515976,965.310791L212.753662,972.717224L212.255173,973.114624L211.843872,973.601685L211.535400,974.159546L211.341873,974.766968L211.270355,975.400391L211.323898,976.035645L211.500320,976.648193L211.792892,977.214661L212.190338,977.713135L212.677292,978.124451L213.235229,978.432800L213.842636,978.626465L214.476059,978.697876L215.111313,978.644409L215.723923,978.467957L216.290283,978.175415L228.825119,969.838318L229.625244,969.085876L230.109375,968.100098L234.347809,952.615967L234.456985,951.922363L234.397247,951.222839L234.172211,950.557861L233.794601,949.966003L233.286484,949.481445L208.710526,931.271423L176.418625,915.081848L133.409042,874.849792L132.933929,874.490479L132.394119,874.238892L131.813446,874.106140L131.217896,874.098206L130.633896,874.215454L130.087555,874.452576L129.603134,874.799072L129.202194,875.239563L128.902573,875.754395L128.717697,876.320557L128.655792,876.912964L128.596619,903.896851L128.832260,905.042175L150.054871,957.001160L166.199615,984.784607L167.362457,986.061646L168.905624,986.837158L180.336914,989.968018L181.645187,990.148438L182.950455,989.946411z" fill="#000000" stroke="none" fill-opacity="1" />
				<polyline points="217.315750,974.033569 246.834229,995.284912 255.265488,1004.422729 255.614594,1015.019165 247.667130,1019.064697 204.866180,1005.142639 186.356567,987.424438" fill="#20116D" stroke="none" fill-opacity="1" />
				<path d="M219.179764,971.444458L218.638748,971.130493L218.047028,970.928223L217.427155,970.845215L216.802979,970.884766L216.198578,971.045288L215.637070,971.320679L215.139999,971.700317L214.726639,972.169617L214.412781,972.710510L214.210464,973.302368L214.127411,973.922119L214.166962,974.546326L214.327469,975.150757L214.602875,975.712280L214.982529,976.209290L215.451782,976.622681L244.203644,998.255432L250.958908,1006.188232L251.029968,1012.311279L247.310715,1014.514893L206.672226,1002.123047L189.393585,984.251709L188.716263,983.720215L187.948303,983.331055L187.119141,983.099121L186.260651,983.033508L185.405899,983.136597L184.587646,983.404419L183.837433,983.826782L183.183914,984.387390L182.652451,985.064758L182.263184,985.832703L182.031311,986.661865L181.965637,987.520325L182.068802,988.375122L182.336655,989.193359L182.758942,989.943604L183.319534,990.597046L202.494278,1007.620483L203.805145,1008.404602L246.362976,1023.074280L247.445053,1023.275269L248.542313,1023.189270L249.579895,1022.822266L257.652802,1019.023254L258.500244,1018.463013L259.200134,1017.726807L259.716797,1016.852112L260.023682,1015.883728L260.105194,1014.871155L259.625519,1004.279053L259.301819,1002.767944L258.471619,1001.464478L249.735703,992.607788z" fill="#000000" stroke="none" fill-opacity="1" />
				<polyline points="265.842651,210.840942 267.472961,202.273743 272.293457,201.595764 274.630249,204.542786 272.077271,212.780518 267.762848,213.689026" fill="#EDEEEB" stroke="none" fill-opacity="1" />
				<polyline points="401.796143,205.314697 400.715607,195.527466 403.060150,191.597229 406.924011,194.775024 407.233582,204.999939 405.260742,208.065552" fill="#EDEEEB" stroke="none" fill-opacity="1" />
			</g>
			<g id="layer.apron.uuid_0x6">
				<polyline points="521.313843,364.648254 523.582520,284.360229 485.630249,338.048035" fill="#69BEB7" stroke="none" fill-opacity="1" />
				<path d="M517.627563,364.544128L517.678162,365.265198L517.868347,365.962708L518.190979,366.609680L518.633667,367.181213L519.179260,367.655457L519.807007,368.014099L520.492615,368.243408L521.209717,368.334534L521.930908,368.284058L522.628357,368.093811L523.275208,367.771179L523.846863,367.328491L524.321106,366.782898L524.679749,366.155151L524.908997,365.469604L525.000244,364.752441L527.844177,284.480652L527.773499,283.577576L527.513489,282.709717L527.076050,281.916565L526.480957,281.233643L525.754944,280.691833L524.930847,280.315735L524.046021,280.122070L523.140198,280.119873L522.254333,280.308960L521.428406,280.681030L520.699768,281.219238L520.101257,281.899231L482.806671,336.052002L482.471466,336.641235L482.257782,337.284485L482.173584,337.957092L482.222321,338.633179L482.401886,339.286804L482.705627,339.892822L483.121704,340.427979L483.634186,340.871582L484.223419,341.206726L484.866730,341.420471L485.539246,341.504639L486.215393,341.455933L486.868958,341.276306L487.475037,340.972595L488.010162,340.556519L488.453735,340.044006L518.922485,298.338013z" fill="#000000" stroke="none" fill-opacity="1" />
				<polyline points="233.312119,525.533203 299.762665,430.014465 266.811615,341.096863" fill="#69BEB7" stroke="none" fill-opacity="1" />
				<path d="M231.042419,523.954224L230.777939,524.427368L230.610977,524.942993L230.547684,525.481384L230.590668,526.021667L230.738297,526.543213L230.984787,527.025940L231.320724,527.451355L231.733185,527.802979L232.206284,528.067444L232.721954,528.234436L233.260284,528.297668L233.800552,528.254761L234.322174,528.107178L234.804901,527.860657L235.230255,527.524658L235.581879,527.112244L303.850464,432.858337L304.410492,431.801941L304.702576,430.642578L304.709930,429.446960L304.432068,428.284180L268.650757,340.415222L268.482452,340.069580L268.249908,339.763367L267.962097,339.508362L267.630157,339.314392L267.266693,339.188904L266.885773,339.136780L266.501923,339.160034L266.130005,339.257629L265.784271,339.425964L265.478027,339.658508L265.223053,339.946228L265.029144,340.278259L264.903717,340.641724L264.851593,341.022705L264.874817,341.406433L264.972382,341.778381L294.189423,429.305847z" fill="#000000" stroke="none" fill-opacity="1" />
				<polygon points="161.830215,436.834229 222.502655,373.335266 267.664185,336.685730 249.030930,481.752441 330.104523,361.574402 402.497620,450.112610 479.681885,321.852051 522.563171,364.890930 441.985291,553.021606 418.233337,720.411499 396.871643,741.174561 390.460999,701.549194 379.174011,759.298462 314.530151,707.738403 274.549194,777.981201 214.027466,586.756226 185.085297,509.434448" fill="#6A87EF" stroke="none" fill-opacity="1" />
				<path d="M156.898727,432.122253L156.074234,433.174866L155.470947,434.368103L155.112076,435.656067L155.011307,436.989380L155.172546,438.316772L155.589752,439.587097L156.246811,440.751587L157.118210,441.765625L158.170914,442.590088L159.364059,443.193420L160.652161,443.552307L161.985443,443.653076L163.312729,443.491760L164.583145,443.074646L165.747574,442.417664L166.761642,441.546082L224.457474,375.454956L264.910583,341.627014L245.854385,481.344482L245.838074,482.002258L245.956589,482.649597L246.204742,483.258972L246.572342,483.804810L247.043777,484.263977L247.599045,484.617126L248.214798,484.849304L248.864868,484.950745L249.522110,484.917175L250.158508,484.750000L250.747375,484.456299L251.263779,484.048401L251.685959,483.543518L330.379517,367.552551L398.993561,452.977722L399.677399,453.652893L400.488373,454.168579L401.389923,454.501282L402.341461,454.636230L403.300018,454.567322L404.222290,454.297485L405.066925,453.839050L405.795746,453.212585L406.375824,452.446472L480.353729,327.380493L518.183289,365.730774L438.350647,551.464844L415.537354,719.041138L399.408386,733.509460L393.247498,701.098389L393.103210,700.556030L392.854492,700.052856L392.511108,699.609009L392.086761,699.241699L391.598083,698.965637L391.064545,698.791748L390.507019,698.726807L389.947754,698.773560L389.408783,698.929932L388.911377,699.189880L388.475220,699.543091L388.117615,699.975647L387.852570,700.470337L387.690765,701.007690L376.103943,750.946533L316.284180,705.539307L315.772522,705.214661L315.203247,705.007202L314.602722,704.926392L313.998871,704.976074L313.419617,705.153992L312.891937,705.451782L312.440247,705.855713L312.085571,706.346924L275.311249,770.782227L214.683090,586.548706L188.858231,508.124939L168.325821,434.753540L167.795105,433.526306L167.035049,432.426208L166.075104,431.495422L164.952103,430.769836L163.708923,430.277344L162.393723,430.036865L161.056763,430.057495L159.749496,430.338623L158.522354,430.869324L157.422180,431.629272L156.491486,432.589233L155.765930,433.712341L155.273376,434.955383L155.032822,436.270752L155.053482,437.607666L155.334595,438.914856L181.283051,510.652344L213.377197,586.980591L271.785522,778.855835L272.029541,779.414551L272.385010,779.909790L272.836243,780.319702L273.363190,780.626282L273.942657,780.815857L274.548828,780.880005L275.155121,780.815979L275.734558,780.626526L276.261688,780.320190L276.712921,779.910278L277.068481,779.415100L315.347717,711.988525L376.296326,762.906433L377.091461,763.416870L377.973907,763.754761L378.906647,763.905762L379.850647,763.863586L380.766266,763.630127L381.615082,763.215088L382.361694,762.635742L382.974518,761.916565L383.428101,761.087646L383.703400,760.183716L390.199066,717.604736L393.191101,741.770020L393.407196,742.552490L393.787567,743.269653L394.314117,743.887451L394.961853,744.376648L395.700165,744.714111L396.494049,744.883728L397.305756,744.877625L398.096985,744.695801L398.829987,744.347168L399.470337,743.848083L420.227997,722.463623L420.784424,721.708252L421.066772,720.813599L445.826447,554.096313L525.960266,366.345947L526.207336,365.505310L526.249573,364.630188L526.084534,363.769714L525.721619,362.972290L525.181152,362.282654L482.109009,319.433716L481.502350,318.949402L480.802307,318.614197L480.044861,318.445007L479.268524,318.450745L478.513641,318.631104L477.818573,318.976685L477.219177,319.469910L476.746185,320.085388L401.933350,442.271851L332.869263,359.313843L332.345734,358.794006L331.726501,358.392761L331.038147,358.127380L330.309845,358.009094L329.572845,358.042969L328.858490,358.227600L328.197357,358.555115L327.617615,359.011475L327.144012,359.577148L253.927841,468.767029L269.748718,336.953552L269.757599,336.499695L269.668793,336.054565L269.486542,335.638916L269.219330,335.272034L268.879456,334.971069L268.483032,334.750183L268.048370,334.619507L267.595795,334.585205L267.146332,334.648926L266.721100,334.807556L266.339874,335.053894L220.689407,371.100830z" fill="#000000" stroke="none" fill-opacity="1" />
				<polyline points="191.965302,551.711853 264.395782,472.000488 282.099426,462.232483 310.008026,477.555786 329.931946,529.666870 344.612152,577.176514 353.211639,648.150757 353.463226,691.480469 329.884460,649.779053 303.713593,600.857422 290.103302,586.919922 294.333588,637.864929 304.915497,699.697144 306.130066,734.867554 283.388916,692.714844 253.824295,649.634277 242.288971,619.573364 255.461411,652.893250 268.331970,681.998169 282.916534,710.081787 298.518158,758.109131 244.801071,719.108582 191.126221,661.877930 180.704315,599.555054" fill="#DDC759" stroke="none" fill-opacity="1" />
				<path d="M191.678864,551.451538L191.633530,551.512451L191.601028,551.581055L191.582504,551.654602L191.578659,551.730347L191.589706,551.805420L191.615234,551.876892L191.654160,551.942078L191.705002,551.998291L191.765900,552.043579L191.834396,552.076111L191.908020,552.094666L191.983841,552.098450L192.058868,552.087463L192.130325,552.061951L192.195511,552.023071L192.251801,551.972168L266.688812,474.902649L282.104706,467.350647L304.692352,482.189148L323.183380,531.996765L339.257599,578.318542L349.873016,648.362061L350.587982,680.680969L332.818726,648.164917L307.909302,598.612915L293.331299,583.767700L292.624786,583.178589L291.813599,582.744873L290.931213,582.484741L290.014496,582.409058L289.101379,582.520813L288.229919,582.815491L287.436371,583.280762L286.753693,583.897339L286.210266,584.639526L285.828613,585.476562L285.624786,586.373535L285.606995,587.293335L289.761353,638.244568L302.042084,699.991272L302.905029,722.966675L286.233948,691.179932L258.728760,647.056458L242.778091,620.828979L250.271057,654.945190L264.615021,683.641846L280.192719,711.222290L292.183441,749.392700L246.711105,716.942749L194.601105,660.158447L181.787338,599.373901L181.731201,599.166138L181.635590,598.973267L181.504211,598.802734L181.342102,598.661133L181.155396,598.553894L180.951462,598.485107L180.737961,598.457458L180.523224,598.472046L180.315399,598.528076L180.122620,598.623779L179.951981,598.755127L179.810471,598.917236L179.703186,599.103882L179.634476,599.307861L179.606766,599.521362L179.621368,599.736084L187.466293,662.489990L187.800339,663.523682L188.419586,664.416382L242.704224,721.075195L296.560638,760.805237L297.163849,761.153198L297.826294,761.368286L298.518829,761.440918L299.211426,761.367981L299.873718,761.152649L300.476807,760.804321L300.994263,760.338257L301.403564,759.774902L301.686798,759.138672L301.831543,758.457397L301.831543,757.761047L301.686859,757.079834L285.715485,709.172607L271.997498,680.238037L260.610809,650.737854L243.542175,619.078003L243.412231,618.828979L243.233643,618.612305L243.013901,618.437439L242.762772,618.311829L242.490967,618.241028L242.210526,618.228088L241.933350,618.273560L241.671677,618.375488L241.436920,618.529419L241.238998,618.728699L241.086716,618.964661L240.986694,619.227051L240.943222,619.504456L240.958145,619.784851L241.030869,620.056152L248.687210,651.605530L280.625763,694.401733L303.654938,736.202881L303.980927,736.681519L304.397949,737.083191L304.888458,737.390991L305.431549,737.591797L306.004272,737.677124L306.582336,737.643311L307.141144,737.491882L307.657257,737.229248L308.108429,736.866394L308.475891,736.418823L308.743896,735.905518L308.901031,735.348206L308.940735,734.770508L307.795776,699.597656L298.889282,637.287048L295.637451,599.044800L299.836853,603.698120L326.931671,651.358643L351.015015,692.864807L351.343506,693.328918L351.758575,693.717529L352.243408,694.014648L352.778076,694.208252L353.340729,694.290344L353.908417,694.257507L354.457886,694.111206L354.966705,693.857422L355.414124,693.506409L355.781708,693.072632L356.054596,692.573730L356.221497,692.030212L356.275696,691.464172L356.551422,648.131470L350.025604,576.520630L336.749542,527.560303L316.191315,475.191650L314.998230,473.206055L313.194061,471.753052L284.257446,458.302124L283.211090,457.888611L282.094818,457.748657L280.978790,457.890930L279.933289,458.306580L262.633026,468.805786z" fill="#000000" stroke="none" fill-opacity="1" />
				<polygon points="529.206360,633.982727 486.400421,678.785645 454.209625,716.354492 405.427185,736.860229 430.566956,694.541138 454.574646,648.098450 461.457397,629.493652 450.395203,645.442688 425.590546,676.232361 389.925873,705.797363 395.207184,675.060425 424.722961,617.974854 430.601837,608.286987 442.581757,589.143372 437.186096,589.583740 416.283478,593.964722 385.137085,607.937744 360.585724,628.119751 364.182465,607.351685 385.528046,544.662170 435.028809,495.329102 448.355469,491.542908 469.124146,502.461914 510.340302,553.548828 520.231445,595.104187" fill="#DDC759" stroke="none" fill-opacity="1" />
				<path d="M533.783020,638.355347L534.547974,637.378479L535.107849,636.271118L535.441040,635.075806L535.534363,633.838501L535.384705,632.606689L534.997559,631.427795L534.387817,630.347107L533.578979,629.406128L532.602051,628.640991L531.494751,628.081177L530.299377,627.748108L529.062073,627.654663L527.830383,627.804321L526.651367,628.191528L525.570679,628.801270L524.629639,629.610107L484.211182,676.693970L452.715027,714.305176L413.682434,729.673035L432.984955,695.977539L457.258331,649.485718L465.547485,631.006714L465.770752,630.136475L465.810974,629.238892L465.666290,628.352173L465.343109,627.513794L464.854828,626.759521L464.222412,626.121338L463.472687,625.626221L462.637390,625.295288L461.751862,625.142639L460.853943,625.174622L459.981689,625.389893L459.172028,625.779419L458.459351,626.326599L457.873901,627.008179L447.987183,643.641235L423.565857,674.235840L394.026764,698.707458L397.916321,675.969360L427.457458,619.509155L434.240570,610.529419L446.937012,591.868896L447.428802,590.847168L447.684418,589.742554L447.691681,588.608704L447.449921,587.500854L446.971130,586.473145L446.278473,585.575378L445.405884,584.851440L444.395752,584.336426L443.297180,584.055664L442.163818,584.022583L436.807251,584.941589L415.550385,590.466980L383.598236,604.507568L366.157410,618.547302L368.328125,608.409546L389.105560,546.893311L437.175201,498.990112L447.895966,495.962280L466.212799,506.003845L503.842377,556.738098L513.713379,596.632202L523.038818,635.406494L523.434998,636.582336L524.053101,637.658325L524.869202,638.593018L525.851868,639.350586L526.963684,639.901794L528.161438,640.225647L529.399414,640.309570L530.630005,640.150269L531.805908,639.753967L532.881897,639.135986L533.816650,638.319824L534.574158,637.337158L535.125366,636.225464L535.449219,635.027588L535.533142,633.789551L535.373840,632.558960L526.754700,593.598328L517.208130,551.914124L515.834900,549.115906L472.618561,499.642700L471.213470,498.487793L450.275299,487.891296L449.297668,487.526367L448.259796,487.418518L447.228058,487.574402L433.906128,491.377258L432.128815,492.419189L382.629822,541.753967L381.641388,543.338745L360.144745,605.976868L356.785767,627.461670L356.731049,628.239441L356.833923,629.012329L357.090179,629.748779L357.489227,630.418640L358.014954,630.994507L358.645691,631.452820L359.355743,631.774902L360.116089,631.947632L360.895660,631.963867L361.662537,631.822876L362.385376,631.530640L363.034668,631.098999L387.135437,611.161804L417.394165,597.383240L437.855865,594.202087L438.192383,591.813599L426.978668,606.019653L422.043945,616.349121L392.698700,673.763428L387.125885,705.316162L387.086334,705.890015L387.163147,706.459839L387.353149,707.002686L387.648590,707.495972L388.037262,707.919800L388.503387,708.256653L389.027771,708.492676L389.588898,708.618347L390.163910,708.628418L390.729156,708.522522L391.261414,708.304932L391.739075,707.984619L427.396149,678.410522L452.735504,647.328064L459.442078,633.361084L451.805695,646.876099L428.106506,693.175964L402.481140,735.110168L402.182434,735.758606L402.024567,736.454895L402.014435,737.168823L402.152466,737.869324L402.432617,738.526001L402.842773,739.110352L403.365143,739.597046L403.977020,739.964905L404.651794,740.198120L405.360321,740.286377L406.071686,740.225830L406.755127,740.019287L455.166138,718.630005L456.084045,717.960571L488.646332,680.817993z" fill="#000000" stroke="none" fill-opacity="1" />
			</g>
		</g>
	</g>
</svg>
