<?xml version="1.0" encoding="UTF-8"?>
<!-- Generator: Blender, SVG Export for Grease Pencil - v2.0 -->
<!DOCTYPE svg PUBLIC "-//W3C//DTD SVG 1.1//EN" "http://www.w3.org/Graphics/SVG/1.1/DTD/svg11.dtd">
<svg version="1.1" x="0px" y="0px" xmlns="http://www.w3.org/2000/svg" width="1920.000000px" height="1080.000000px" viewBox="0 0 1920.000000 1080.000000">
	<g id="blender_frame.6">
		<g id="blender_object.Stroke.6.uuid_0x0">
			<g id="layer.Fills.uuid_0x1" />
			<g id="layer.black.uuid_0x2" />
			<g id="layer.skin.uuid_0x3" />
			<g id="layer.yella.uuid_0x4" />
			<g id="layer.red.uuid_0x5">
				<polyline points="281.463837,704.673218 235.963715,811.682678 200.574692,794.830811 154.232025,791.460449 196.361786,794.830811 326.121368,852.969788 566.765747,966.214600 386.788055,955.092285 106.710373,923.747803 30.876904,842.858643 36.943645,812.525269 197.541718,713.604614" fill="#D19048" stroke="none" fill-opacity="1" />
				<path d="M285.909973,706.563721L286.193390,705.659912L286.295013,704.718384L286.210938,703.775024L285.944519,702.866089L285.505829,702.026733L284.911865,701.289062L284.185394,700.681396L283.354340,700.227173L282.450653,699.943787L281.509033,699.842102L280.565643,699.926147L279.656738,700.192627L278.817383,700.631226L278.079681,701.225220L277.472046,701.951660L277.017792,702.782715L234.467911,807.734619L201.849792,792.153198L200.789856,791.872925L154.325470,790.175537L154.056931,790.184082L153.795944,790.248169L153.553909,790.364929L153.341446,790.529480L153.167664,790.734436L153.040237,790.971069L152.964645,791.228882L152.944153,791.496826L152.979752,791.763184L153.069809,792.016418L153.210358,792.245361L153.395447,792.440247L153.616837,792.592529L153.865128,792.695435L154.129257,792.744690L195.640640,797.648804L324.947357,855.525879L547.636536,961.314209L387.113037,951.347961L108.113876,920.947021L36.808949,841.166504L41.973438,816.026184L200.004425,717.602905L200.737152,717.045593L201.347076,716.356079L201.810669,715.560852L202.110382,714.690430L202.234314,713.778198L202.178131,712.859436L201.943634,711.969238L201.539993,711.141907L200.982742,710.409180L200.293182,709.799316L199.497986,709.335693L198.627533,709.036011L197.715378,708.911987L196.796555,708.968262L195.906418,709.202759L195.079025,709.606323L33.996906,807.741150L32.813187,808.716064L31.937199,809.974731L31.433945,811.423279L25.498350,841.782898L25.396326,843.079224L25.602264,844.363281L26.104717,845.562683L26.875362,846.610046L104.565811,925.758301L105.393394,926.375854L106.383354,926.669128L386.370148,958.826294L566.536865,969.918701L567.323425,969.883667L568.085022,969.683411L568.787109,969.326965L569.398254,968.830383L569.890930,968.216187L570.242859,967.511780L570.438293,966.748962L570.468384,965.962158L570.331726,965.186646L570.034546,964.457458L569.590271,963.807312L569.018860,963.265625L568.346008,962.856628L327.319031,850.424866L197.533890,792.214844L155.516678,791.558533L199.803299,797.748169L234.707794,814.320312L235.343460,814.537476L236.011902,814.603638L236.677826,814.515503L237.306046,814.277466L237.863220,813.902222L238.319992,813.409668L238.652161,812.825806z" fill="#000000" stroke="none" fill-opacity="1" />
				<polyline points="505.132690,783.086304 441.095154,828.586914 426.770935,810.049622 496.658813,719.194824 713.311157,720.942017 725.541565,743.655640 676.619995,853.729858 416.287750,965.551208 286.995209,1045.922852 264.281677,1049.417236 211.865784,1012.725830 207.821335,970.259033 247.254684,941.947876 320.054688,904.536682 339.265747,908.581055 505.087952,784.214050 567.102783,759.104980" fill="#D19048" stroke="none" fill-opacity="1" />
				<path d="M506.734772,785.341125L507.143860,784.985291L507.475739,784.556396L507.717590,784.071045L507.859955,783.547852L507.897583,783.006958L507.829041,782.468994L507.656799,781.954834L507.387543,781.484131L507.031647,781.075073L506.602814,780.743286L506.117462,780.501465L505.594269,780.359009L505.053284,780.321411L504.515411,780.389954L504.001251,780.562256L503.530518,780.831421L441.919464,823.041992L431.022308,810.044922L498.039185,722.026978L709.569031,727.150146L718.618347,743.917969L673.636536,850.708801L414.700012,961.854675L285.122742,1040.862549L265.353668,1044.818848L215.754318,1010.460510L210.920731,971.667664L248.731995,944.364624L320.925476,911.015930L338.095032,914.142029L339.698151,914.247437L341.266754,913.899963L342.675446,913.127319L506.461700,786.646484L567.545410,760.198242L567.750183,760.090881L567.930115,759.945679L568.078308,759.768066L568.188843,759.565063L568.257751,759.344299L568.282227,759.114380L568.261414,758.884094L568.196045,758.662354L568.088745,758.457520L567.943481,758.277588L567.765869,758.129517L567.562866,758.018921L567.342102,757.949951L567.112183,757.925537L566.881897,757.946411L566.660156,758.011719L504.048248,781.646362L337.916382,902.489624L321.323822,898.507935L319.234009,898.430664L317.238739,899.057007L245.963562,939.435425L206.099854,967.861145L205.539764,968.386047L205.134033,969.037659L204.909958,969.771790L204.882721,970.538879L207.798386,1013.113159L208.076538,1014.253906L208.667603,1015.268433L209.522720,1016.072998L261.768768,1053.006958L262.753357,1053.524048L263.836273,1053.776489L264.947937,1053.748169L287.798981,1051.147461L289.785950,1050.412231L418.154175,969.128052L678.180298,857.362305L679.027161,856.865845L679.725647,856.176086L680.232666,855.335449L731.225403,746.181885L731.721008,744.364258L731.649719,742.481689L731.018066,740.706787L718.803772,717.984497L717.827881,716.639282L716.531616,715.599426L715.006714,714.938721L713.361450,714.704041L496.681580,716.374023L495.826141,716.499634L495.048859,716.878418L494.422852,717.474854L424.102325,807.996826L423.720093,808.625427L423.483612,809.322021L423.404083,810.053284L423.485229,810.784424L423.723267,811.480530L424.106750,812.108276L437.896271,831.058716L438.508636,831.693787L439.244232,832.180908L440.067932,832.496826L440.940613,832.626587L441.820618,832.563843L442.666077,832.311829L443.436707,831.882324z" fill="#000000" stroke="none" fill-opacity="1" />
				<polyline points="609.738098,954.418274 647.992432,927.286743 613.445984,884.314453 584.797974,875.888550 551.094238,884.314270 519.075378,910.434509" fill="#D19048" stroke="none" fill-opacity="1" />
				<path d="M607.883240,951.803040L607.408630,952.215149L607.023560,952.711914L606.742798,953.274292L606.577271,953.880615L606.533081,954.507629L606.612061,955.131165L606.811157,955.727356L607.122742,956.273193L607.534912,956.747742L608.031677,957.132812L608.594055,957.413513L609.200317,957.579163L609.827393,957.623291L610.450928,957.544250L611.047058,957.345154L611.592957,957.033569L651.072510,931.629517L651.992004,930.800964L652.695435,929.782471L653.144592,928.629150L653.315308,927.403198L653.198425,926.171021L652.800049,924.999084L652.141907,923.950806L617.075928,881.396240L616.036682,880.443970L614.760254,879.846252L585.725525,872.734619L584.000610,872.699219L550.382202,881.466003L549.238342,882.039307L516.747742,907.581360L516.235840,908.090271L515.833130,908.689209L515.554932,909.355347L515.411987,910.062866L515.409973,910.784668L515.548645,911.493042L515.822998,912.160767L516.222107,912.762085L516.731079,913.274048L517.330017,913.676758L517.996094,913.954956L518.703674,914.097839L519.425476,914.099976L520.133850,913.961243L520.801575,913.686951L521.402832,913.287720L552.442200,887.003662L584.727966,879.294739L610.731079,888.370605L640.299744,926.215332z" fill="#000000" stroke="none" fill-opacity="1" />
				<polyline points="237.429245,306.488281 174.234695,526.404297 135.475327,553.367188 119.676643,561.559021 98.611908,564.484680 124.357735,531.132080 115.580742,536.398315 86.324097,551.026672 52.971493,562.144165 41.854019,532.887573 38.343201,480.225586 45.364838,449.798645 64.674164,406.498840 43.024117,425.223145 13.767528,443.947327 21.959381,404.743469 39.513416,376.071960 54.141712,360.858521 85.153709,339.208557 69.355087,329.261353 55.897064,316.388428 49.460621,303.515503 45.364666,291.227722 75.791641,292.983093 98.026657,287.716919 122.602333,274.844055 150.103500,263.726501 200.659088,249.683105" fill="#D19048" stroke="none" fill-opacity="1" />
				<path d="M240.184418,307.279907L240.285919,306.727234L240.277634,306.165344L240.159927,305.615845L239.937271,305.099915L239.618225,304.637268L239.214996,304.245789L238.743271,303.940430L238.220947,303.733032L237.668320,303.631653L237.106415,303.639832L236.556854,303.757568L236.040970,303.980286L235.578400,304.299316L235.186890,304.702515L234.881500,305.174255L234.674133,305.696472L171.395630,524.371460L133.620575,550.294495L118.552773,558.028198L107.511574,559.321411L128.123642,534.039124L128.652939,533.177490L128.988251,532.223389L129.114304,531.220032L129.025436,530.212708L128.725662,529.246887L128.228531,528.366272L127.556473,527.610596L126.739876,527.014099L125.815659,526.603638L124.825516,526.397766L123.814316,526.405884L122.827606,526.627502L121.910072,527.052734L113.328720,532.295776L84.653946,546.994446L55.735245,556.318237L46.848217,531.797668L43.927170,480.673889L50.397945,451.484192L68.390747,408.156250L68.652878,407.353210L68.743507,406.513428L68.658829,405.672974L68.402481,404.868103L67.985512,404.133545L67.425842,403.500793L66.747604,402.997314L65.980049,402.644714L65.156189,402.458191L64.311501,402.445679L63.482605,402.607849L62.704922,402.937683L62.012154,403.420898L40.223522,421.470886L21.569767,432.633789L26.515732,406.551086L42.868134,378.662598L56.626106,363.765198L87.012115,341.870605L87.545868,341.403503L87.965408,340.831604L88.250824,340.182251L88.388382,339.486389L88.371498,338.777344L88.201042,338.088806L87.885132,337.453735L87.438866,336.902466L86.883545,336.461243L71.501480,326.510315L58.952923,314.133789L53.075462,302.018188L51.068745,295.593994L75.586624,296.536438L98.819504,291.064392L124.034096,277.938721L151.143082,266.785889L201.243134,251.785461L201.642090,251.631226L202.003265,251.402039L202.312759,251.106812L202.558762,250.756836L202.731674,250.365601L202.825012,249.948059L202.835068,249.520447L202.761566,249.099121L202.607285,248.700134L202.378052,248.338989L202.082748,248.029419L201.732773,247.783447L201.341568,247.610535L200.924133,247.517212L200.496414,247.507080L200.075058,247.580688L149.240112,260.618103L121.325851,271.686462L96.813293,284.469055L75.477386,289.399841L45.596867,287.203796L44.726257,287.247925L43.885628,287.478271L43.114185,287.883972L42.447792,288.446045L41.918049,289.138245L41.549374,289.928040L41.359177,290.778687L41.356258,291.650452L41.540966,292.502258L45.758057,304.749695L52.550522,318.061646L66.955490,331.770081L79.282204,339.348145L51.963326,357.738159L36.475922,373.151367L17.840366,402.221680L8.556804,442.858521L8.444366,443.986206L8.573226,445.112000L8.937378,446.185120L9.520511,447.156799L10.296077,447.982971L11.229000,448.626343L12.276993,449.057678L13.392391,449.257385L14.524899,449.216492L15.623016,448.936829L16.637020,448.431030L45.541531,429.156555L53.515606,421.529541L40.539547,447.646851L32.943420,478.979492L36.809635,533.223816L48.622055,563.796997L49.083710,564.700439L49.730244,565.482361L50.530758,566.105591L51.447426,566.540405L52.436600,566.766235L53.451061,566.772339L54.442917,566.558350L87.700821,555.156677L117.672218,540.581177L120.802864,534.293701L95.532707,562.107788L95.096283,562.819824L94.821907,563.608582L94.722290,564.437744L94.801880,565.269104L95.057137,566.064270L95.476219,566.786621L96.039902,567.402954L96.722031,567.884644L97.491302,568.209717L98.312294,568.363037L99.147034,568.337646L120.179039,565.176147L137.123962,556.546692L176.113525,529.105103L176.909698,528.319702L177.396744,527.312927z" fill="#000000" stroke="none" fill-opacity="1" />
				<polygon points="418.680389,118.730835 420.084747,94.155090 426.825531,71.405151 436.094055,59.608887 455.473724,78.145874 443.677429,84.886475 426.825531,105.951294" fill="#D19048" stroke="none" fill-opacity="1" />
				<path d="M416.139038,118.585632L416.159515,119.084167L416.276947,119.569153L416.486664,120.021912L416.780701,120.425171L417.147705,120.763123L417.573700,121.023132L418.042206,121.194946L418.535126,121.272156L419.033722,121.251526L419.518707,121.134338L419.971497,120.924622L420.374664,120.630554L420.712677,120.263428L420.972687,119.837402L421.144562,119.369080L421.221710,118.876038L421.936493,94.477844L429.256714,72.661743L436.411743,64.086792L451.013184,77.598816L442.881470,83.493774L442.424713,83.884521L425.718781,105.066040L416.533813,117.362671L416.308197,117.807800L416.173645,118.288208L416.135468,118.785828L416.195099,119.281311L416.350220,119.755554L416.594971,120.190491L416.919769,120.569214L417.312286,120.877319L417.757324,121.103027L418.237885,121.237610L418.735352,121.275635L419.230774,121.216064L419.705139,121.060913L420.140015,120.816284L420.518799,120.491455L420.826965,120.098938L427.979645,106.777161L444.738983,86.127563L456.807281,80.479492L457.257629,80.156372L457.632111,79.747742L457.914795,79.270996L458.093628,78.746338L458.161133,78.196228L458.114380,77.643738L457.955170,77.112793L457.690521,76.625793L457.331635,76.203308L438.179077,57.428894L437.682709,57.044678L437.117523,56.771301L436.508026,56.620972L435.880554,56.599976L435.262390,56.709290L434.680176,56.944275L434.159241,57.294556L433.722168,57.745178L424.711945,69.744385L424.248199,70.641541L418.294434,93.624634z" fill="#000000" stroke="none" fill-opacity="1" />
				<polyline points="124.094635,276.279236 149.938141,265.064209 206.013611,251.411072 230.881866,292.858093 224.055344,345.520203 150.913406,315.288269 154.957809,301.132812 101.369019,310.232727 122.602333,274.844055" fill="#DDC759" stroke="none" fill-opacity="1" />
				<polygon points="433.893219,125.050171 441.734070,110.421448 455.192078,94.622925 478.012299,87.601318 497.906891,92.282471 485.033936,129.730896 470.405609,125.049866 449.340820,126.220154" fill="#D19048" stroke="none" fill-opacity="1" />
				<path d="M431.732758,123.892029L431.548401,124.335815L431.454102,124.807007L431.453522,125.287537L431.546661,125.758850L431.730133,126.203003L431.996643,126.602905L432.335968,126.943115L432.735260,127.210510L433.178955,127.394958L433.650177,127.489197L434.130646,127.489685L434.602081,127.396484L435.046234,127.213135L435.446075,126.946655L435.786255,126.607239L436.053711,126.208069L442.746368,111.112305L456.196136,96.149231L478.136108,91.272339L492.873230,95.060364L484.092072,127.853516L471.194733,122.583801L449.366547,123.657898L434.078339,122.605896L433.597961,122.616699L433.128937,122.721130L432.689209,122.914856L432.295807,123.190857L431.963806,123.538269L431.705872,123.943665L431.532074,124.391724L431.449005,124.864929L431.459808,125.345337L431.564178,125.814514L431.758026,126.254089L432.033966,126.647461L432.381348,126.979553L432.786804,127.237427L433.234802,127.411133L433.708130,127.494324L449.147705,128.769714L470.071808,127.661499L484.576477,131.160522L484.901520,131.226013L485.233032,131.218567L485.554718,131.138672L485.851135,130.989868L486.107574,130.779785L486.311737,130.518616L486.453430,130.218872L501.554474,93.536316L501.735199,92.752747L501.749481,91.948669L501.596954,91.159302L501.283844,90.418701L500.824005,89.759033L500.237396,89.209045L499.549591,88.792480L498.790283,88.527832L478.824280,84.150574L476.969757,84.213013L454.676270,92.946411L454.228119,93.157349L453.856842,93.485474L440.806335,109.631287z" fill="#000000" stroke="none" fill-opacity="1" />
				<polyline points="229.798737,278.822754 229.798737,291.461731 221.372726,294.270325 212.946793,281.631409 208.031616,267.588074 202.414337,247.927490 215.053238,235.288452" fill="#20116D" stroke="none" fill-opacity="1" />
				<path d="M232.842239,278.822754L232.783813,278.228943L232.610535,277.658020L232.329300,277.131897L231.950836,276.670593L231.489639,276.292114L230.963440,276.010864L230.392502,275.837769L229.798737,275.779175L229.204956,275.837769L228.634003,276.010864L228.107803,276.292114L227.646606,276.670593L227.268036,277.131897L226.986862,277.658081L226.813644,278.228943L226.755234,278.822754L226.743912,289.259949L222.609329,290.666260L215.663620,280.277405L210.642532,266.758972L204.769882,248.537842L216.153946,236.389160L216.347519,236.153320L216.491379,235.884216L216.579956,235.592102L216.609802,235.288452L216.579956,234.984802L216.491379,234.692810L216.347519,234.423706L216.153946,234.187866L215.918137,233.994202L215.648956,233.850464L215.356964,233.761841L215.053238,233.731873L214.749695,233.761841L214.457642,233.850464L214.188522,233.994202L213.952606,234.187744L200.931427,246.444519L200.593811,246.886353L200.384201,247.401428L200.317337,247.953369L200.397888,248.503662L205.398788,268.340332L210.104202,282.626282L218.853195,295.950134L219.274918,296.453979L219.795273,296.855225L220.390030,297.134583L221.031006,297.279114L221.688065,297.282043L222.330322,297.143066L230.764786,294.359741L231.451248,294.030945L232.035080,293.542725L232.480133,292.925171L232.758682,292.216919L232.853561,291.461731z" fill="#000000" stroke="none" fill-opacity="1" />
				<polyline points="359.908936,607.082153 467.761078,754.535767 588.252075,638.258057 578.983582,597.813721 562.974243,572.536011 536.853760,562.424683 381.816376,442.777100 369.996704,411.554443 321.235291,383.760315 281.738647,439.836121" fill="#DDC759" stroke="none" fill-opacity="1" />
				<path d="M364.593689,603.655640L363.835175,602.807495L362.925781,602.123657L361.900452,601.630371L360.798615,601.346619L359.662567,601.283264L358.535950,601.442749L357.462097,601.818970L356.482300,602.397461L355.634247,603.155945L354.950378,604.065308L354.457092,605.090698L354.173279,606.192505L354.110016,607.328613L354.269470,608.455200L354.645691,609.528992L355.224152,610.508789L465.375122,756.281006L465.798798,756.746582L466.311371,757.111938L466.889832,757.360474L467.507660,757.480957L468.136963,757.467896L468.749359,757.321777L469.316803,757.049316L469.813782,756.662903L593.006348,643.184570L594.102844,641.813721L594.814636,640.208984L595.095032,638.475952L594.925598,636.728760L587.526611,595.855896L569.101501,568.655396L567.578430,566.932129L565.592529,565.772339L539.289307,558.104248L386.408997,439.374023L376.217194,409.199524L375.052460,407.232422L373.290436,405.775879L323.097534,380.493164L322.246338,380.138184L321.334290,380.001038L320.416290,380.090027L319.547577,380.399719L318.780365,380.911621L318.160858,381.594788L278.456512,437.524353L278.068542,438.209045L277.821625,438.956360L277.725250,439.737427L277.783112,440.522278L277.992981,441.280823L278.346802,441.983765L278.830933,442.604187L279.426910,443.118286L280.111603,443.506226L280.858826,443.753113L281.639954,443.849487L282.424805,443.791687L283.183319,443.581726L283.886322,443.227966L284.506744,442.743835L285.020813,442.147949L322.341949,388.719727L364.623596,416.147644L376.672546,444.724304L378.456116,447.131287L533.855042,566.310486L558.126282,578.436523L570.775940,601.234863L580.714722,636.017334L468.146515,750.055725z" fill="#000000" stroke="none" fill-opacity="1" />
				<polyline points="246.955246,494.830139 238.529251,376.024902 193.871780,322.941711 143.316025,318.728760 118.740456,367.294800 85.387856,622.005737 101.397163,736.934875 145.212082,788.684082 150.618896,711.329590 178.120132,765.161804 176.949860,711.329590" fill="#DDC759" stroke="none" fill-opacity="1" />
				<path d="M242.910172,495.117004L243.043823,495.900696L243.327866,496.643188L243.751205,497.315979L244.297760,497.893311L244.946411,498.352844L245.672318,498.677124L246.447418,498.853455L247.242111,498.875244L248.025726,498.741516L248.768234,498.457520L249.441086,498.034058L250.018387,497.487549L250.477921,496.838928L250.802124,496.113037L250.978546,495.337952L251.000290,494.543274L239.987106,375.921570L239.883713,375.475891L239.647675,375.084045L196.024628,321.130554L195.480362,320.633606L194.825577,320.294922L194.105362,320.138000L143.644699,314.785095L142.709198,314.818237L141.807617,315.070129L140.990524,315.526794L140.303482,316.162598L139.785004,316.942017L116.103966,365.960632L82.760239,621.661682L97.705139,737.449158L97.994209,738.456543L98.552223,739.343628L142.227402,791.211182L142.836456,791.790771L143.555313,792.226685L144.350739,792.498962L145.185928,792.594849L146.022430,792.510132L146.821335,792.248535L147.545975,791.822205L148.162766,791.250916L148.643188,790.560913L148.964996,789.784302L149.113480,788.956787L153.765167,726.750732L174.367615,767.078857L174.841675,767.809204L175.455765,768.426514L176.183624,768.904419L176.994263,769.222412L177.852798,769.367188L178.722839,769.332336L179.567123,769.119446L180.349548,768.737549L181.036896,768.203003L181.599701,767.538574L182.013916,766.772766L182.261856,765.937988L182.333038,765.070190L181.162766,711.237915L181.064011,710.417847L180.807037,709.632751L180.401917,708.912842L179.864044,708.285767L179.214310,707.775757L178.477478,707.402283L177.681931,707.179749L176.858307,707.116638L176.038101,707.215454L175.253052,707.472412L174.533142,707.877502L173.906067,708.415283L173.396072,709.065063L173.022598,709.801941L172.800064,710.597473L172.736938,711.421143L173.507599,746.870483L154.371460,709.412476L153.915939,708.705261L153.328918,708.102661L152.633972,707.628662L151.858749,707.302185L151.034073,707.136108L150.192886,707.137268L149.368683,707.305420L148.594208,707.633911L147.900528,708.109741L147.315155,708.713867L146.861389,709.422241L146.557434,710.206604L146.415253,711.035645L141.981415,778.815979L104.940208,735.350586L88.061996,621.994751L121.604752,368.178711L145.643631,322.893799L192.472168,325.648254L237.105148,376.602112z" fill="#000000" stroke="none" fill-opacity="1" />
				<polyline points="229.096512,304.100586 230.500870,279.524902 207.329559,199.478088 196.094910,192.456421 177.838654,178.413147 161.688934,158.752502 153.965149,144.007080 207.329559,159.454651 184.860367,127.155151 178.540878,109.600952 171.519241,80.812195 230.501007,108.196594 250.863708,116.622498 270.524353,121.537781 284.567627,119.431213 314.058441,118.026855 370.231537,122.239807 405.339661,128.559326 423.595917,132.772400 427.401825,145.583923 438.126709,192.932434 448.132324,244.673340 448.448456,255.418335 402.807800,327.039246 391.573242,342.486877 383.849426,350.912842 354.358551,338.273865 297.483368,306.676453 295.376862,329.847778" fill="#DDC759" stroke="none" fill-opacity="1" />
				<path d="M226.218567,303.936218L226.241745,304.500854L226.374664,305.050049L226.612183,305.562866L226.945206,306.019470L227.360855,306.402344L227.843231,306.696655L228.373764,306.891296L228.932129,306.978699L229.496765,306.955505L230.045990,306.822510L230.558792,306.584961L231.015305,306.252075L231.398224,305.836365L231.692551,305.353943L231.887207,304.823425L231.974548,304.265076L233.548553,279.698975L208.404922,199.166687L208.222778,198.803162L207.922882,198.528625L197.051239,191.079834L179.947754,176.235474L164.981918,156.571045L162.002625,150.573792L206.838852,161.149963L207.194305,161.214355L207.555313,161.205078L207.906937,161.122437L208.234451,160.969849L208.524002,160.753967L208.763519,160.483521L208.943024,160.170105L209.054779,159.826538L209.094360,159.467529L209.060043,159.107971L208.953262,158.762939L208.778442,158.446838L188.185272,125.438049L182.475876,108.416382L177.609955,88.226807L229.215698,110.964905L250.154037,118.337769L270.392303,122.065918L270.605103,122.076050L284.638184,120.147827L314.032562,119.924500L369.872681,125.061707L404.760498,131.380615L421.245300,135.273376L424.489563,146.345520L435.111450,193.565247L444.995544,245.020447L445.242737,254.534729L400.028229,325.145447L388.483612,339.960815L382.788666,345.983948L356.069275,334.786011L299.112000,303.744934L298.430389,303.459412L297.702881,303.330139L296.964630,303.363281L296.251587,303.557373L295.598358,303.902893L295.036682,304.382996L294.593811,304.974609L294.291229,305.648743L294.143646,306.372803L292.251434,329.563721L292.256012,330.178955L292.380585,330.781433L292.620209,331.348083L292.965942,331.856995L293.404144,332.288696L293.918335,332.626648L294.488464,332.857910L295.092712,332.973328L295.707947,332.968689L296.310394,332.844116L296.876953,332.604431L297.385986,332.258850L297.817780,331.820557L298.155670,331.306458L298.386841,330.736267L298.502380,330.132019L300.356812,312.109070L352.474457,341.665344L382.229462,354.692810L383.201813,354.973999L384.213318,355.009155L385.202850,354.796265L386.110443,354.348022L386.881012,353.691711L394.510345,345.179199L405.526703,329.016541L451.128845,257.126465L451.512482,256.263000L451.625427,255.324951L451.276642,244.580811L441.151215,192.347595L430.336121,144.919373L426.438568,131.927856L426.119995,131.215881L425.626831,130.611572L424.993103,130.156677L424.262756,129.882874L405.987091,125.753784L370.734772,119.443970L314.200104,116.138062L284.533356,118.712830L270.550964,120.983276L251.446899,114.854919L231.727692,105.401062L173.271271,77.038757L172.470184,76.762085L171.629730,76.653320L170.784576,76.717346L169.970001,76.951111L169.219711,77.345154L168.564819,77.883057L168.032623,78.542664L167.644958,79.296204L167.418137,80.112793L167.361603,80.958496L167.477417,81.797974L174.554214,110.573242L181.369797,128.411682L203.037109,156.374634L155.097641,140.094910L154.247986,139.943970L153.385559,139.975647L152.549225,140.188232L151.776398,140.572266L151.101883,141.110535L150.555939,141.778809L150.162949,142.547058L149.940704,143.380981L149.899124,144.242920L150.040115,145.094360L150.357285,145.896790L158.208328,160.575623L175.511337,180.324890L195.074158,193.783508L206.373184,200.200500L227.423447,279.872009z" fill="#000000" stroke="none" fill-opacity="1" />
				<polygon points="344.173340,332.382385 392.876160,297.078979 398.727539,329.749268 384.099121,351.204346 355.072571,338.038757" fill="#20116D" stroke="none" fill-opacity="1" />
				<path d="M341.951172,329.316772L341.395844,329.809143L340.947174,330.400452L340.622498,331.067932L340.434326,331.785889L340.389801,332.526855L340.490662,333.262146L340.733124,333.963745L341.107819,334.604492L341.600159,335.159912L342.191437,335.608521L342.858978,335.933167L343.576965,336.121399L344.317871,336.165894L345.053253,336.065002L345.754791,335.822571L346.395538,335.447937L392.876160,297.078979L395.087921,328.971252L382.646484,346.021606L356.766571,334.552124L345.917480,329.021729L345.228363,328.745972L344.498627,328.609985L343.756409,328.619080L343.030273,328.772766L342.347992,329.065063L341.735931,329.484863L341.217499,330.016113L340.812714,330.638184L340.536987,331.327332L340.401001,332.057007L340.410126,332.799255L340.563751,333.525391L340.856140,334.207581L341.275909,334.819763L341.807129,335.338135L342.429260,335.742981L353.287628,341.478149L382.397369,354.956360L383.309814,355.247864L384.264954,355.320862L385.211029,355.171326L386.097107,354.807312L386.875153,354.248535L387.503082,353.525269L401.574341,331.690308L401.975952,330.897827L402.161682,330.029175L402.119141,329.141846L392.876160,297.078979z" fill="#000000" stroke="none" fill-opacity="1" />
				<polygon points="289.655670,212.850037 313.020386,214.543030 340.109985,211.495422 336.385101,244.680176 339.771301,256.870361 310.988678,240.616638 297.105316,235.537415 276.449493,230.119446 276.788116,224.024353 272.666290,209.376831" fill="#20116D" stroke="none" fill-opacity="1" />
				<path d="M289.809479,210.727112L289.392426,210.737915L288.985352,210.829834L288.604187,210.999390L288.263397,211.240234L287.976074,211.542725L287.753265,211.895508L287.603577,212.284912L287.532867,212.696167L287.543610,213.113342L287.635559,213.520264L287.805176,213.901489L288.045898,214.242310L288.348358,214.529602L288.701202,214.752380L289.090637,214.901978L289.501862,214.972778L312.838837,217.049255L335.465454,216.141113L335.700562,244.603271L335.721405,244.864563L339.771301,256.870361L312.385071,238.143921L298.000763,233.089844L278.871399,228.355896L278.984924,224.146484L275.343689,211.866333L289.229309,214.935181L289.644409,214.978271L290.059814,214.939636L290.459747,214.820618L290.828766,214.625916L291.152618,214.362915L291.419037,214.041809L291.617706,213.674866L291.740967,213.276306L291.783997,212.861206L291.745300,212.445801L291.626343,212.045898L291.431641,211.676880L291.168579,211.352966L290.847473,211.086548L290.480560,210.887939L290.081909,210.764709L273.047394,207.512451L272.660583,207.473877L272.273865,207.514771L271.903625,207.633362L271.565247,207.824829L271.272736,208.080994L271.038422,208.391235L270.872101,208.742798L270.780731,209.120667L270.767944,209.509155L270.834503,209.892273L274.570984,224.267944L274.132690,229.990784L274.163757,230.518494L274.313263,231.025452L274.573730,231.485413L274.931549,231.874512L275.368134,232.172485L275.860809,232.363953L296.325226,238.027344L309.794708,243.203796L339.771301,256.870361L337.084503,244.624329L344.181671,211.952576L344.181335,211.035400L343.976959,210.141174L343.578796,209.314941L343.006805,208.597961L342.289612,208.026062L341.463257,207.628235L340.569122,207.424011L339.651886,207.423950L312.970337,212.020081z" fill="#000000" stroke="none" fill-opacity="1" />
				<polygon points="410.298462,206.688171 395.897491,209.562073 378.793182,207.899963 383.809814,240.785583 382.694153,253.107483 399.282196,235.446106 407.507996,229.678772 419.920380,223.229980 419.213989,217.172302 420.587494,202.363953" fill="#20116D" stroke="none" fill-opacity="1" />
				<path d="M410.674133,208.571289L411.034271,208.461792L411.366180,208.284180L411.656952,208.045166L411.895569,207.754150L412.072845,207.421997L412.181885,207.061707L412.218506,206.687012L412.181396,206.312561L412.071930,205.952454L411.894318,205.620544L411.655304,205.329712L411.364227,205.091064L411.032135,204.913879L410.671875,204.804749L410.297302,204.768250L409.922668,204.805298L395.776459,207.146301L379.143616,204.293701L378.321655,204.307434L377.523926,204.506287L376.791534,204.879761L376.162231,205.408691L375.668304,206.065857L375.335297,206.817566L375.180298,207.624878L375.211243,208.446411L383.290253,240.801514L382.694153,253.107483L400.430664,236.771301L408.532715,231.367798L420.826874,224.974915L421.217926,224.707397L421.533661,224.354126L421.755707,223.935608L421.871155,223.476074L421.873413,223.002319L421.177216,217.149109L422.517944,202.543030L422.513733,202.144104L422.428009,201.754578L422.264252,201.390869L422.029633,201.068176L421.733917,200.800537L421.389709,200.598999L421.011475,200.472168L420.615326,200.425415L420.217987,200.460754L419.836304,200.576660L409.554504,204.918213L409.223480,205.097290L408.933777,205.337585L408.696503,205.629822L408.520721,205.962585L408.413361,206.323425L408.378357,206.698120L408.417175,207.072571L408.528351,207.432251L408.707458,207.763245L408.947723,208.052917L409.239960,208.290222L409.572754,208.465942L409.933533,208.573303L410.308319,208.608337L410.682709,208.569519L411.042358,208.458313L418.358521,205.403748L417.269592,216.992004L417.810333,222.110535L406.599243,227.929626L398.280792,234.017944L382.694153,253.107483L384.323639,240.832153L383.077332,211.956726L395.665985,211.943665z" fill="#000000" stroke="none" fill-opacity="1" />
				<polygon points="314.459656,230.415833 325.074219,222.904053 328.993439,237.927551 327.033844,249.195312 310.988678,240.616638" fill="#EDEEEB" stroke="none" fill-opacity="1" />
				<polygon points="401.505951,225.843384 391.613892,218.331665 387.961395,233.355103 389.787659,244.622864 402.781097,233.268250" fill="#EDEEEB" stroke="none" fill-opacity="1" />
				<polyline points="332.470245,438.584412 320.279968,380.558105 296.386932,364.954468 310.664124,337.453003 262.098083,313.462524 217.042740,304.685608 220.553574,329.261108 193.734787,320.971619 207.875565,371.683716 193.315598,501.268066 216.409546,691.195618 255.842896,841.851624 367.065063,893.418457 406.498444,928.807434 416.609497,995.540955 429.753967,1013.741028 496.147491,1041.696289 583.507202,1053.926758 648.153503,1032.960327 674.361511,1003.257751 644.659180,977.049622 559.046509,931.622192 525.849670,889.689148 497.894653,842.514526 459.456299,830.284058 421.017975,734.187622" fill="#20033D" stroke="none" fill-opacity="1" />
				<path d="M327.990967,439.525452L328.260651,440.381226L328.692108,441.167969L329.268707,441.855408L329.968353,442.417175L330.764160,442.831604L331.625580,443.082886L332.519348,443.161255L333.411285,443.063721L334.267090,442.794006L335.053864,442.362610L335.741302,441.786011L336.303070,441.086304L336.717499,440.290588L336.968689,439.429199L337.047150,438.535339L336.949585,437.643372L323.874878,379.802917L323.557037,378.898438L323.015961,378.106995L322.288574,377.482544L299.238342,364.205933L313.691223,339.024475L313.967499,338.302063L314.073761,337.535950L314.004791,336.765564L313.764099,336.030579L313.363892,335.368713L312.824768,334.814026L312.174652,334.395081L263.430634,310.765076L217.592743,301.862427L216.987289,301.809875L216.384415,301.885742L215.810852,302.086548L215.292252,302.403320L214.851822,302.822144L214.509247,303.324097L214.279800,303.886719L214.173599,304.485046L214.195465,305.092346L217.986526,326.253052L194.575928,318.250366L193.978210,318.133789L193.369217,318.146912L192.777054,318.289185L192.228516,318.554199L191.749023,318.929749L191.360321,319.398682L191.080170,319.939514L190.921387,320.527466L190.891281,321.135864L190.991180,321.736694L205.501266,371.874146L190.139175,500.911072L210.991287,691.854492L253.122177,842.563721L253.444672,843.320496L253.972321,843.951660L254.659927,844.403076L364.903381,896.698059L401.890747,931.294128L413.309479,996.040955L413.903717,997.495178L427.084808,1015.668823L428.476227,1016.775513L493.718567,1047.464722L582.496948,1061.143677L585.755371,1060.858643L649.831909,1038.135254L652.232910,1036.559814L678.101746,1006.557922L678.742310,1005.642944L679.163208,1004.608276L679.343384,1003.505981L679.273621,1002.391174L678.957703,1001.319824L678.411255,1000.345642L677.661621,999.517517L647.585449,973.733093L560.919739,929.373108L528.740112,887.702026L501.124756,840.600403L500.231995,839.576111L499.032990,838.936584L462.508789,827.002075L423.654083,733.133179L423.397736,732.639160L423.049896,732.204590L422.624054,731.846313L422.136353,731.578003L421.605774,731.409912L421.052551,731.348633L420.498108,731.396423L419.963531,731.551514L419.469574,731.807861L419.035004,732.155701L418.676697,732.581604L418.408417,733.069214L418.240265,733.599792L418.179016,734.152954L418.226776,734.707520L418.381836,735.242065L455.693115,831.789307L456.290985,832.815430L457.160675,833.624268L458.227386,834.146301L495.393524,845.658875L522.839111,891.473267L556.800354,933.400391L557.703796,934.152771L642.124573,980.711731L667.320984,1003.697754L645.059082,1028.244629L582.855469,1046.477173L497.823822,1035.611206L431.882568,1011.064758L419.788513,994.242004L411.370972,928.069153L410.835327,926.466858L409.790039,925.139648L369.659729,890.527344L258.227966,839.857544L221.783279,690.170532L196.533798,501.253357L210.199173,371.944763L210.127930,371.055664L197.880402,325.234314L219.928848,331.282654L220.392593,331.370789L220.864380,331.354004L221.320786,331.233032L221.738937,331.013733L222.098053,330.707336L222.380264,330.328735L222.571625,329.897156L222.662369,329.433838L222.648178,328.961914L220.461945,308.281921L261.126984,316.338684L306.033844,338.969849L294.446930,363.947327L294.260498,364.448364L294.201202,364.979614L294.272675,365.509399L294.470673,366.006042L294.783142,366.439697L295.191681,366.784546L316.997742,382.802063z" fill="#000000" stroke="none" fill-opacity="1" />
				<polyline points="647.992432,927.286743 613.445984,884.314453" fill="#DDC759" stroke="none" fill-opacity="1" />
				<path d="M643.842896,930.622620L644.573425,931.368103L645.435364,931.956665L646.395630,932.365784L647.417053,932.579712L648.460754,932.590271L649.486450,932.396973L650.454712,932.007324L651.328308,931.436279L652.073792,930.705688L652.662354,929.843750L653.071472,928.883606L653.285400,927.862061L653.295898,926.818359L653.102600,925.792725L652.713013,924.824463L652.141907,923.950806L617.075928,881.396240L616.436890,880.744202L615.682861,880.229309L614.842957,879.871460L613.949341,879.684265L613.036377,879.675049L612.139038,879.844116L611.292053,880.184998L610.527893,880.684570L609.875793,881.323608L609.360901,882.077576L609.003052,882.917542L608.815918,883.811157L608.806641,884.724121L608.975708,885.621338L609.316589,886.468384L609.816162,887.232544z" fill="#000000" stroke="none" fill-opacity="1" />
				<polyline points="607.126526,893.442505 583.955261,892.740356 573.422791,888.527405 573.422791,882.910095 597.296326,855.525818 605.020142,837.971863 617.658997,807.076904 627.489258,827.439514 633.808655,854.823730 631.000122,875.186340" fill="#20116D" stroke="none" fill-opacity="1" />
				<path d="M606.997375,897.707397L607.831909,897.650635L608.639221,897.432190L609.388611,897.060425L610.050903,896.549622L610.600891,895.919434L611.017334,895.194031L611.284302,894.401306L611.391418,893.571777L611.334717,892.737244L611.116272,891.929810L610.744507,891.180542L610.233643,890.518188L609.603516,889.968262L608.878052,889.551758L608.085327,889.284790L607.255920,889.177612L584.618591,889.556519L576.325562,886.562134L576.336548,884.001831L599.724854,857.643066L607.326721,838.986755L617.800598,811.684814L625.451050,828.156555L630.189575,854.986206L626.227356,874.528076L626.190613,875.471802L626.338684,876.404602L626.666016,877.290588L627.159668,878.095703L627.801147,878.789062L628.565308,879.343933L629.423279,879.739014L630.341675,879.959106L631.285522,879.995850L632.218323,879.847778L633.104309,879.520508L633.909424,879.026733L634.602783,878.385376L635.157593,877.621094L635.552612,876.763123L635.772827,875.844666L637.338257,855.310547L629.581543,826.956665L619.348267,806.261353L619.141846,805.927979L618.870605,805.644836L618.546387,805.424316L618.183472,805.275879L617.797729,805.206177L617.405762,805.218262L617.024902,805.311523L616.671753,805.481934L616.361816,805.721924L616.108459,806.021240L615.922974,806.366699L602.700256,836.987183L594.545044,853.778809L571.226562,880.995422L570.694397,881.887756L570.509155,882.910095L570.520081,888.527405L570.601929,889.211914L570.842957,889.857788L571.229431,890.428650L571.739563,890.892273L572.344788,891.222473L582.765869,895.713745z" fill="#000000" stroke="none" fill-opacity="1" />
				<polygon points="632.544922,875.326843 649.396790,859.177246 667.652954,833.899475 669.057251,844.431885 664.844238,887.263611 647.992432,927.286743 630.297852,934.869995 601.509338,926.444031 591.678955,916.613770 596.594116,901.166260 614.569580,888.246582" fill="#20116D" stroke="none" fill-opacity="1" />
				<path d="M629.203369,871.840027L628.587341,872.558960L628.123413,873.384216L627.829224,874.284180L627.716431,875.224121L627.789246,876.168091L628.044739,877.079712L628.473145,877.923950L629.057983,878.668457L629.776917,879.284546L630.602295,879.748413L631.502136,880.042480L632.442139,880.155273L633.386169,880.082520L634.297729,879.827026L635.142029,879.398621L635.886475,878.813721L651.993225,861.886536L665.785645,841.321533L665.831604,844.487549L659.364136,885.874329L643.919556,923.239685L630.036133,930.517700L603.118835,923.728577L595.048462,915.793945L599.616150,903.359558L617.300110,892.045776L635.363586,879.248535L636.074524,878.623291L636.649780,877.871338L637.067261,877.021606L637.311035,876.106812L637.371582,875.161987L637.246704,874.223511L636.941040,873.327393L636.466614,872.508179L635.841309,871.797302L635.089355,871.222046L634.239685,870.804504L633.324829,870.560730L632.380005,870.500244L631.441589,870.625122L630.545471,870.930664L629.726257,871.405273L611.838928,884.447388L594.525391,898.287842L593.725403,899.084106L593.216248,900.091492L588.856323,915.715637L588.718628,916.511108L588.800781,917.314087L589.096741,918.065186L589.584473,918.708374L599.346741,928.606567L600.650208,929.379150L629.145203,938.808228L630.544250,938.966064L631.914368,938.641663L650.089722,932.180420L651.259644,931.490540L652.216980,930.527100L652.899414,929.352783L669.996094,889.432739L672.246643,844.745544L670.459839,833.525146L670.313843,832.930481L670.043274,832.381042L669.660889,831.902588L669.184692,831.517639L668.636719,831.244019L668.042847,831.094604L667.430786,831.076416L666.828979,831.190186L666.265747,831.430664L665.767395,831.786621L665.357300,832.241455L646.554199,856.703735z" fill="#000000" stroke="none" fill-opacity="1" />
				<polyline points="542.603760,909.660767 553.162659,897.881653 563.321228,893.931152 585.331604,901.267822 579.405762,922.149292 568.400574,928.357300 558.806274,928.921631" fill="#20116D" stroke="none" fill-opacity="1" />
				<path d="M540.342651,907.633911L539.990601,908.114014L539.739075,908.653503L539.597595,909.231750L539.571655,909.826416L539.662109,910.414795L539.865845,910.974243L540.174622,911.483154L540.576904,911.921997L541.056946,912.274048L541.596436,912.525513L542.174683,912.666992L542.769470,912.692993L543.357788,912.602356L543.917175,912.398743L544.426086,912.089966L544.864990,911.687744L554.866638,900.343628L563.395508,896.952515L581.538696,903.272827L577.016113,920.268250L567.584778,925.584961L558.638855,926.075562L558.086792,926.162903L557.562439,926.356323L557.085876,926.648254L556.675415,927.027527L556.346802,927.479675L556.112793,927.987183L555.982239,928.530640L555.960144,929.089050L556.047546,929.641113L556.240845,930.165527L556.532837,930.642090L556.912170,931.052490L557.364380,931.381104L557.871765,931.615112L558.415222,931.745728L558.973694,931.767700L568.565918,931.167847L569.783813,930.809448L580.787537,924.598877L581.371277,924.160889L581.822632,923.587402L582.111267,922.917114L588.315308,902.114563L588.427856,901.449463L588.393860,900.775696L588.214966,900.125244L587.899719,899.528809L587.463013,899.014648L586.925293,898.607178L586.312378,898.325500L564.220276,891.234070L563.251404,891.089050L562.290771,891.281494L552.107056,895.167480L550.994080,895.937805z" fill="#000000" stroke="none" fill-opacity="1" />
				<polygon points="231.194748,1005.400024 199.923187,1017.667114 189.195618,1015.229004 174.028748,989.951050 152.963837,940.237793 152.121216,911.589417 194.251144,951.191528 224.584732,964.673096 247.334900,979.839844 243.121872,995.849243" fill="#20116D" stroke="none" fill-opacity="1" />
				<path d="M232.382294,1008.427368L232.950027,1008.137451L233.450378,1007.742432L233.864075,1007.257446L234.175125,1006.700928L234.371613,1006.094482L234.446121,1005.461365L234.395599,1004.825928L234.222092,1004.212463L233.932159,1003.644653L233.537216,1003.144409L233.052124,1002.730774L232.495636,1002.419678L231.889282,1002.223083L231.256088,1002.148682L230.620636,1002.199158L230.007233,1002.372681L199.564758,1012.909302L192.218338,1011.056396L177.470856,988.200073L155.868805,939.603088L155.142456,918.303101L192.267883,953.301331L223.222794,967.147705L243.984665,981.111328L240.409866,994.086121L229.162033,1002.861633L228.705872,1003.307007L228.345398,1003.832764L228.094406,1004.418762L227.962570,1005.042419L227.954910,1005.679932L228.071747,1006.306519L228.308640,1006.898376L228.656387,1007.432678L229.101730,1007.888855L229.627472,1008.249329L230.213455,1008.500366L230.837158,1008.632263L231.474609,1008.639832L232.101288,1008.523010L232.693115,1008.286133L233.227386,1007.938416L245.041641,998.246765L245.696915,997.523315L246.092148,996.630859L250.155197,980.582031L250.251099,979.867004L250.168457,979.150208L249.912460,978.475708L249.498764,977.884705L248.952545,977.413330L226.145828,962.331299L195.876205,948.745117L154.054413,909.532837L153.573349,909.169067L153.026108,908.915833L152.437531,908.784668L151.834473,908.781433L151.244476,908.906494L150.694595,909.153931L150.209824,909.512573L149.812256,909.966003L149.520035,910.493591L149.346710,911.071167L149.299850,911.672363L150.042633,940.323669L150.272995,941.377930L170.481659,991.454163L185.132156,1017.667114L185.926147,1018.659180L186.955246,1019.404724L188.145432,1019.849976L198.912552,1022.113770L200.265656,1022.214294L201.588409,1021.912231z" fill="#000000" stroke="none" fill-opacity="1" />
				<polyline points="233.853317,1004.275208 260.816406,1021.127258 268.399872,1028.710693 268.399872,1038.821777 260.816406,1043.877319 221.214294,1035.451416 204.362228,1019.442017" fill="#20116D" stroke="none" fill-opacity="1" />
				<path d="M235.544174,1001.569824L234.983871,1001.291992L234.380203,1001.128723L233.756165,1001.086426L233.136002,1001.166626L232.543320,1001.366272L232.000977,1001.677795L231.529816,1002.089111L231.147995,1002.584351L230.870071,1003.144653L230.706879,1003.748352L230.664536,1004.372375L230.744705,1004.992615L230.944443,1005.585266L231.255859,1006.127563L231.667160,1006.598755L232.162460,1006.980591L258.342865,1024.236572L264.037445,1030.517578L263.906860,1036.417236L259.956024,1039.383545L222.874985,1032.297852L207.387238,1016.257874L206.707916,1015.728882L205.938431,1015.342651L205.108398,1015.113953L204.249741,1015.051514L203.395340,1015.157837L202.578094,1015.428833L201.829437,1015.854004L201.178131,1016.417114L200.649094,1017.096375L200.262894,1017.865906L200.034195,1018.695923L199.971771,1019.554626L200.078140,1020.408997L200.349014,1021.226196L200.774216,1021.974915L201.337341,1022.626160L218.851776,1037.938232L220.500458,1038.806519L259.939026,1048.001465L261.053467,1048.087036L262.151245,1047.876831L263.155273,1047.385620L270.892120,1042.560181L271.726624,1041.841797L272.361176,1040.941895L272.757965,1039.914673L272.892883,1038.821777L272.762207,1028.710693L272.613586,1027.581543L272.177826,1026.529419L271.484528,1025.625977L263.607941,1018.335693z" fill="#000000" stroke="none" fill-opacity="1" />
				<polyline points="295.378479,228.534058 296.063904,224.349182 300.219879,222.011475 302.297913,226.167480 300.739441,230.323425 297.102844,232.401367" fill="#EDEEEB" stroke="none" fill-opacity="1" />
				<polyline points="407.946564,221.572266 406.372192,217.634705 408.723572,213.486511 412.649445,215.971985 413.461304,220.335815 411.420532,223.993286" fill="#EDEEEB" stroke="none" fill-opacity="1" />
			</g>
			<g id="layer.apron.uuid_0x6">
				<polyline points="586.987854,412.124084 578.224976,328.370422 537.780518,376.903870" fill="#69BEB7" stroke="none" fill-opacity="1" />
				<path d="M583.320068,412.507874L583.465454,413.216064L583.746155,413.882263L584.151550,414.480835L584.665710,414.988953L585.269226,415.386963L585.938843,415.659546L586.648743,415.796265L587.371643,415.791870L588.079834,415.646484L588.745972,415.365845L589.344604,414.960571L589.852783,414.446228L590.250671,413.842712L590.523254,413.173157L590.660034,412.463257L590.655640,411.740356L582.465210,327.926758L582.275574,327.040588L581.903137,326.214478L581.364319,325.485779L580.683716,324.887451L579.892029,324.446472L579.025024,324.182739L578.121826,324.108276L577.223267,324.226379L576.370117,324.531738L575.600586,325.010437L574.949768,325.641052L535.124207,374.690247L534.743347,375.251038L534.479248,375.875305L534.341980,376.539124L534.336914,377.216980L534.464172,377.882690L534.718872,378.510925L535.091125,379.077332L535.566895,379.560303L536.127625,379.941101L536.751953,380.205200L537.415833,380.342407L538.093628,380.347534L538.759460,380.220276L539.387634,379.965576L539.954102,379.593262L540.436890,379.117554L575.035583,338.857300z" fill="#000000" stroke="none" fill-opacity="1" />
				<polyline points="199.732407,550.646667 276.576874,486.946533 216.247330,337.470398" fill="#69BEB7" stroke="none" fill-opacity="1" />
				<path d="M197.967896,548.518066L197.586533,548.903198L197.287598,549.355347L197.082581,549.857178L196.979553,550.389221L196.982162,550.931274L197.090546,551.462341L197.300415,551.962097L197.603745,552.411316L197.988922,552.792664L198.441071,553.091553L198.942871,553.296509L199.474915,553.399658L200.017029,553.396973L200.548096,553.288635L201.047791,553.078735L201.497040,552.775391L279.754883,490.780334L280.611816,489.864990L281.212860,488.764648L281.520020,487.549072L281.513855,486.295288L281.194641,485.082764L218.066193,336.736328L217.887955,336.395569L217.646774,336.096191L217.351730,335.849609L217.014374,335.665222L216.647461,335.550354L216.265121,335.509155L215.882187,335.543335L215.513245,335.651611L215.172501,335.829773L214.873108,336.070984L214.626434,336.365967L214.442139,336.703430L214.327225,337.070312L214.286041,337.452637L214.320312,337.835571L214.428574,338.204529L270.596954,485.435425z" fill="#000000" stroke="none" fill-opacity="1" />
				<polygon points="92.385803,464.870728 157.265625,383.981873 217.089844,331.741028 212.034286,516.269226 310.617798,394.935669 435.321838,484.250610 526.322144,357.861450 588.674133,412.630127 496.831390,573.565613 474.923828,782.528931 444.590393,819.603088 438.692230,769.047424 415.942200,851.621704 323.256775,806.964172 256.691833,900.492126 189.284195,610.639771 140.835052,537.755249" fill="#6A87EF" stroke="none" fill-opacity="1" />
				<path d="M87.065216,460.603149L86.334862,461.723083L85.837097,462.964050L85.590988,464.278320L85.605927,465.615295L85.881500,466.923706L86.406952,468.153198L87.162262,469.256470L88.118187,470.191345L89.238220,470.921631L90.479103,471.419434L91.793457,471.665588L93.130417,471.650574L94.438759,471.375061L95.668259,470.849609L96.771637,470.094299L97.706451,469.138306L159.350677,385.981567L214.857559,336.480591L208.832870,516.181458L208.883286,516.842041L209.068512,517.478027L209.380692,518.062378L209.806412,518.569946L210.327454,518.979126L210.921463,519.272278L211.563187,519.437012L212.225006,519.466187L212.878632,519.358521L213.496170,519.118652L214.051208,518.756958L214.519897,518.288757L311.270416,399.795715L432.686279,487.930481L433.569702,488.424072L434.540802,488.708984L435.550842,488.771179L436.549408,488.607300L437.486694,488.225647L438.315765,487.645325L438.995087,486.895325L526.897095,362.926758L583.970154,413.416992L493.397095,571.605774L492.898834,573.153320L472.166901,781.379272L447.274384,810.434814L441.495941,768.720337L441.364319,768.137634L441.113007,767.595581L440.753235,767.118652L440.301117,766.728149L439.776978,766.441467L439.204254,766.271484L438.608490,766.225952L438.016602,766.306763L437.454895,766.510376L436.948669,766.827637L436.520569,767.244385L436.189728,767.741760L435.970978,768.297668L412.962128,845.062988L324.477783,804.430176L323.858154,804.216309L323.205902,804.151733L322.556396,804.239868L321.944946,804.475891L321.404755,804.847046L320.965057,805.333130L258.058716,893.572327L189.953888,610.484009L144.160019,535.544983L98.066025,461.094910L97.220245,460.059265L96.188728,459.208557L95.010956,458.575439L93.732368,458.184326L92.402107,458.050049L91.071106,458.177917L89.790741,458.563049L88.610001,459.190552L87.574364,460.036255L86.723724,461.067810L86.090523,462.245544L85.699364,463.524170L85.565186,464.854492L85.693069,466.185425L86.078171,467.465820L86.705643,468.646545L137.509964,539.965454L188.642624,610.916748L253.868347,901.148743L254.065521,901.719238L254.376511,902.236511L254.787979,902.678101L255.281967,903.025024L255.837006,903.262085L256.429199,903.379028L257.032684,903.370850L257.621429,903.237854L258.169952,902.985840L258.654266,902.625671L259.053558,902.173035L324.172943,810.527954L413.938965,855.779358L414.889526,856.115112L415.890259,856.236511L416.893494,856.137695L417.851318,855.823364L418.718079,855.308655L419.452454,854.617920L420.019196,853.784363L420.391571,852.847473L437.566833,783.759521L440.887146,820.035156L441.061859,820.807129L441.395508,821.524902L441.873169,822.156128L442.473389,822.672180L443.168945,823.049927L443.928619,823.272339L444.718140,823.329346L445.501923,823.218384L446.244568,822.944458L446.912659,822.520020L447.476044,821.964111L477.138672,784.341125L477.565094,783.630432L477.769958,782.827393L500.677277,574.803955L591.883850,414.461792L592.214783,413.688538L592.362427,412.860474L592.319092,412.020447L592.086731,411.211975L591.677612,410.477051L591.112976,409.853577L528.583252,355.287292L528.001587,354.875122L527.347290,354.592163L526.648621,354.450806L525.935791,354.457153L525.239624,354.610718L524.590393,354.905090L524.016052,355.327454L523.541687,355.859497L434.286774,477.941772L312.697266,392.032227L312.027679,391.654419L311.292633,391.428711L310.526337,391.365601L309.764374,391.467896L309.041809,391.730957L308.392456,392.142578L307.846252,392.683594L215.493912,506.932373L219.190735,331.798584L219.156342,331.358276L219.030762,330.934814L218.819427,330.546997L218.531616,330.211914L218.180237,329.944336L217.780609,329.756104L217.350601,329.655579L216.908951,329.647156L216.475281,329.731201L216.068863,329.904053L215.707458,330.157959L155.372818,381.814392z" fill="#000000" stroke="none" fill-opacity="1" />
				<polyline points="158.108185,575.250549 230.571381,510.371033 254.163940,506.158081 297.136414,523.009949 332.525299,568.510010 360.331024,619.065674 382.238434,708.380676 387.294098,769.047424 349.377319,714.278809 303.034576,640.973145 281.127014,618.222961 296.293762,695.741760 309.775299,794.325317 305.562317,849.936462 278.599304,783.371521 244.052979,708.942383 226.217880,658.105591 245.881973,714.510803 260.139709,764.076782 275.442963,811.573975 291.217743,880.465698 226.349472,815.433472 175.146835,708.283997 155.690399,624.950195" fill="#DDC759" stroke="none" fill-opacity="1" />
				<path d="M157.850006,574.962158L157.798752,575.018127L157.759323,575.082947L157.733398,575.154297L157.721786,575.229248L157.724991,575.305054L157.743011,575.378784L157.775055,575.447510L157.819916,575.508789L157.875809,575.560059L157.940659,575.599487L158.011948,575.625427L158.086853,575.637024L158.162659,575.633789L158.236374,575.615784L158.305206,575.583740L158.366364,575.538940L232.233124,513.780823L253.705719,510.794678L293.027069,528.509094L326.545593,572.444458L355.206299,621.063354L378.932037,708.920532L383.617432,758.795776L352.170441,712.430237L307.056580,638.430420L284.376923,615.093384L283.638092,614.474487L282.784668,614.026733L281.855560,613.770386L280.893219,613.717224L279.941650,613.869690L279.044098,614.220764L278.241577,614.754517L277.570709,615.446411L277.062195,616.265137L276.739136,617.173096L276.616241,618.129028L276.699188,619.089233L291.765961,696.493652L306.878571,794.412659L303.664368,837.759949L281.595612,782.157898L249.156586,706.868408L227.489471,657.659546L227.368973,657.405090L227.198349,657.181152L226.984863,656.997681L226.737839,656.862488L226.468216,656.781555L226.187668,656.758423L225.908356,656.794128L225.642624,656.887085L225.401978,657.033203L225.196899,657.226196L225.036453,657.457520L224.927612,657.717102L224.875015,657.993713L224.881042,658.275146L224.945465,658.549255L240.560989,716.202148L256.233856,765.200317L272.602783,812.355103L285.379242,869.894714L228.731628,813.750854L178.668823,707.047729L156.759613,624.700562L156.690430,624.496704L156.582809,624.310364L156.440781,624.148560L156.269989,624.017578L156.076874,623.922363L155.868927,623.866760L155.654114,623.852783L155.440750,623.880981L155.236862,623.950195L155.050507,624.057861L154.888748,624.199829L154.757767,624.370605L154.662598,624.563721L154.606934,624.771667L154.592957,624.986450L154.621124,625.199829L171.533203,709.127686L223.755615,816.672974L288.858887,882.818604L289.415741,883.268127L290.055756,883.588257L290.749451,883.764343L291.464691,883.788269L292.168549,883.658875L292.828491,883.382202L293.414215,882.970886L293.898529,882.444031L294.259155,881.825928L294.479431,881.145020L294.549225,880.432800L294.465393,879.722046L278.311615,810.917114L264.027740,762.891602L251.245651,712.967896L226.662766,659.377625L238.860855,710.763977L275.633240,784.659668L302.955780,850.992371L303.227234,851.503784L303.597626,851.948730L304.051361,852.308411L304.569122,852.567566L305.128937,852.715210L305.707153,852.745117L306.279205,852.655884L306.820953,852.451538L307.309296,852.140503L307.723602,851.736023L308.046326,851.255310L308.263702,850.718750L308.366608,850.148987L312.648956,794.543030L300.839478,695.120117L288.493713,632.377441L299.271240,643.924988L346.546692,716.068237L384.981567,770.648315L385.348755,771.078735L385.794617,771.426880L386.301117,771.678833L386.847778,771.824341L387.412506,771.857483L387.972412,771.776978L388.504852,771.585999L388.988373,771.292297L389.403351,770.907837L389.733032,770.448059L389.964020,769.931641L390.086914,769.379456L390.096863,768.813843L385.566711,708.103271L365.627045,617.766663L338.777649,565.071228L302.361786,518.945801L299.553162,516.847046L255.801025,501.983704L253.375778,501.744019L229.929932,506.779053L228.137451,507.652588z" fill="#000000" stroke="none" fill-opacity="1" />
				<polyline points="586.708130,643.079468 559.745056,698.690674 520.985718,757.672241 456.386780,810.334351 491.354462,739.135071 518.879211,671.446716 526.322266,651.083923 513.261902,669.901978 483.209351,715.963806 438.692230,774.945435 442.905212,728.602661 477.451691,646.168945 485.035248,634.231934 499.359253,611.481934 492.337738,612.886353 464.953186,622.576355 422.682983,648.556274 389.821808,679.732239 392.349579,653.611816 420.155182,582.833923 486.720215,518.796753 503.572052,514.583801 529.692505,526.380066 561.242981,570.967590" fill="#DDC759" stroke="none" fill-opacity="1" />
				<path d="M592.403748,645.840942L592.833008,644.676758L593.026855,643.451172L592.978027,642.211243L592.688110,641.004761L592.168457,639.877930L591.438965,638.874207L590.527710,638.032043L589.469604,637.383850L588.305359,636.954590L587.079834,636.760620L585.839844,636.809570L584.633423,637.099365L583.506653,637.619019L582.502869,638.348511L581.660706,639.259888L581.012512,640.317932L557.106506,697.192505L519.131592,755.999146L466.374512,797.771118L493.878937,740.375000L521.677612,672.584717L530.418213,652.581116L530.637939,651.711243L530.674866,650.814819L530.527710,649.929810L530.202576,649.093628L529.713135,648.341675L529.080139,647.705750L528.330566,647.212891L527.495789,646.883789L526.611572,646.732544L525.714905,646.765381L524.843994,646.981079L524.035706,647.370422L523.324097,647.916870L522.739563,648.597412L510.792938,668.188477L480.892731,714.336731L442.423218,765.286133L445.678162,729.292358L480.239166,647.625122L488.642914,636.523865L503.707092,614.219421L504.185455,613.244141L504.448090,612.190063L504.483124,611.104248L504.289246,610.035461L503.875000,609.031250L503.258728,608.136597L502.468292,607.391541L501.538788,606.829346L500.511810,606.475098L499.433411,606.344727L498.351624,606.443970L491.424255,608.319214L463.761108,619.207336L420.714355,645.353333L394.654510,669.831421L396.537659,654.616333L423.648468,585.170532L488.779114,522.516724L503.181274,518.934021L526.732422,529.969788L555.480042,575.045410L556.386353,576.091431L557.479370,576.940430L558.716797,577.559937L560.051514,577.926147L561.431885,578.024841L562.805054,577.852417L564.118286,577.415344L565.320862,576.730469L566.366821,575.824219L567.215881,574.731323L567.835327,573.493713L568.201538,572.159058L568.300171,570.778687L568.127747,569.405518L567.690674,568.092346L567.005859,566.889648L533.357727,523.786621L531.540466,522.288147L505.270172,510.823914L503.941254,510.474792L502.571503,510.581360L485.723877,514.811157L483.871979,515.836121L417.308685,579.875000L416.333679,581.332642L388.379578,652.052246L385.983246,679.360840L385.986847,680.139160L386.146698,680.901062L386.456268,681.615356L386.903015,682.252808L387.468597,682.787659L388.130219,683.197937L388.860596,683.467041L389.630219,683.583984L390.407623,683.544067L391.161224,683.348694L391.860168,683.006104L392.476074,682.530029L424.985901,651.553772L466.502106,625.819092L493.577606,617.388184L495.128052,614.396240L481.422974,631.947327L474.806580,644.488525L440.300720,727.511230L435.862823,774.688171L435.873230,775.299072L436.014130,775.893616L436.278748,776.444336L436.655121,776.925720L437.125610,777.315491L437.668579,777.595703L438.258942,777.753296L438.869324,777.781006L439.471466,777.677612L440.037628,777.447754L440.541565,777.102234L440.959930,776.656982L485.467499,717.668213L515.755371,671.580200L524.313904,654.955078L516.060364,670.358826L488.786316,737.984009L453.311066,808.823792L453.064941,809.493408L452.962799,810.199402L453.009033,810.911255L453.201691,811.598145L453.532379,812.230225L453.986694,812.780151L454.545197,813.224121L455.183350,813.542786L455.873749,813.722412L456.586365,813.755249L457.290283,813.639771L457.955139,813.381042L458.552002,812.990356L522.545349,759.585449L562.275452,700.353516z" fill="#000000" stroke="none" fill-opacity="1" />
			</g>
		</g>
	</g>
</svg>
