<?xml version="1.0" encoding="UTF-8"?>
<!-- Generator: Blender, SVG Export for Grease Pencil - v2.0 -->
<!DOCTYPE svg PUBLIC "-//W3C//DTD SVG 1.1//EN" "http://www.w3.org/Graphics/SVG/1.1/DTD/svg11.dtd">
<svg version="1.1" x="0px" y="0px" xmlns="http://www.w3.org/2000/svg" width="1920.000000px" height="1080.000000px" viewBox="0 0 1920.000000 1080.000000">
	<g id="blender_frame.10">
		<g id="blender_object.Stroke.10.uuid_0x0">
			<g id="layer.Fills.uuid_0x1" />
			<g id="layer.black.uuid_0x2" />
			<g id="layer.skin.uuid_0x3" />
			<g id="layer.yella.uuid_0x4" />
			<g id="layer.red.uuid_0x5">
				<polyline points="267.447449,701.528931 240.217941,812.708862 189.021606,791.183960 144.335464,787.616577 184.958206,790.866943 324.533997,851.441833 576.455017,944.048340 387.314819,955.752808 93.872452,909.543213 21.125507,838.080078 28.718319,810.498413 179.356552,717.050232" fill="#879F4C" stroke="none" fill-opacity="1" />
				<path d="M272.140045,702.678284L272.274109,701.740723L272.222687,700.794983L271.987793,699.877502L271.578339,699.023438L271.010101,698.265686L270.305054,697.633362L269.490112,697.150757L268.596741,696.836304L267.659149,696.702332L266.713501,696.753784L265.795959,696.988647L264.941925,697.398193L264.184174,697.966309L263.551880,698.671387L263.069244,699.486267L262.754791,700.379761L238.194641,808.689026L190.171051,788.450073L144.437988,786.332275L144.168777,786.339050L143.906769,786.401611L143.663574,786.517334L143.449677,786.681030L143.274536,786.885620L143.145721,787.122192L143.068939,787.380310L143.047485,787.648682L143.082336,787.915833L143.171936,788.169800L143.312363,788.399658L143.497528,788.595215L143.719254,788.748047L143.967987,788.851379L144.232681,788.900879L184.254288,793.686401L323.414215,854.021973L558.591064,941.435547L387.493103,951.977295L95.260338,906.786011L27.269669,836.426941L33.551159,814.112427L181.831970,721.040649L182.562958,720.481079L183.170654,719.789551L183.631714,718.992798L183.928589,718.121460L184.049774,717.208923L183.990555,716.290283L183.753204,715.400879L183.346939,714.574829L182.787323,713.843872L182.095871,713.236145L181.299194,712.775024L180.427780,712.478271L179.515289,712.357056L178.596664,712.416260L177.707230,712.653564L176.881195,713.059814L25.756359,805.723694L24.671230,806.600830L23.835583,807.718262L23.301086,809.007080L15.837192,836.624329L15.640468,838.064209L15.828781,839.505249L16.389027,840.846191L17.281666,841.992981L91.812462,911.640198L92.550713,912.168884L93.415146,912.446960L386.730255,959.464417L576.684265,947.752441L577.450684,947.623474L578.173523,947.337769L578.820923,946.907715L579.364563,946.352234L579.780579,945.695740L580.050781,944.967041L580.163269,944.197937L580.113037,943.422363L579.902466,942.674194L579.540710,941.986328L579.043579,941.388916L578.432922,940.908081L577.735535,940.565063L325.579956,848.829651L186.099426,788.237305L145.619720,787.719360L188.310974,794.102295L239.085663,815.401978L239.689407,815.582092L240.317673,815.628540L240.941391,815.539307L241.531387,815.318359L242.060226,814.976074L242.503571,814.528320L242.840469,813.996094L243.055511,813.403809z" fill="#000000" stroke="none" fill-opacity="1" />
				<polyline points="511.204956,768.178284 443.868835,825.628113 428.779938,808.540405 483.394531,707.880493 724.230591,683.643921 737.716125,702.718750 689.932251,812.899719 418.275208,965.515503 283.498810,1035.310791 259.723480,1036.674438 203.712555,997.658630 198.825699,955.185852 240.572372,929.378357 317.587097,900.154785 337.532471,906.112427 511.160095,769.396790 576.379578,731.762207" fill="#879F4C" stroke="none" fill-opacity="1" />
				<path d="M513.000305,770.282593L513.376221,769.891846L513.668884,769.435303L513.866699,768.930481L513.962402,768.396729L513.951965,767.854614L513.836060,767.324829L513.619080,766.828003L513.309143,766.382996L512.918457,766.006958L512.461975,765.714355L511.957031,765.516479L511.423279,765.420898L510.881195,765.431213L510.351440,765.547119L509.854645,765.764221L509.409576,766.073975L444.268463,819.973083L432.862061,808.076660L485.162201,710.537720L721.236572,690.214905L730.617981,703.453125L686.835022,810.105225L416.364380,961.974487L282.069855,1030.097900L260.984955,1032.212891L207.560745,995.359924L201.972488,956.710938L241.827560,931.923340L317.822571,906.654907L335.906067,911.557495L337.243164,911.787842L338.596710,911.694702L339.889587,911.283325L341.048126,910.577271L512.717285,771.696533L576.969177,732.783813L577.157104,732.649292L577.315308,732.480530L577.437378,732.284180L577.518860,732.067871L577.556641,731.839722L577.549072,731.608582L577.496704,731.383362L577.401245,731.172729L577.266663,730.984741L577.097961,730.826660L576.901550,730.704590L576.685181,730.623047L576.457092,730.585327L576.226013,730.592773L576.000793,730.645264L575.790100,730.740662L509.775574,766.997437L336.333557,899.823303L319.350372,894.251587L317.364105,893.997925L315.401459,894.394653L239.570221,926.737366L197.273483,952.675049L196.749619,953.087402L196.331696,953.606812L196.040955,954.206726L195.892242,954.856628L195.893158,955.523315L199.653442,998.125671L199.944763,999.239014L200.534866,1000.226990L201.377151,1001.011230L257.218933,1040.270020L258.531250,1040.890991L259.974457,1041.049072L283.801575,1040.588257L285.929718,1040.004883L420.125305,969.087952L691.868530,816.346375L692.867371,815.548035L693.559082,814.472656L743.422607,705.193542L743.863403,703.667053L743.903076,702.078613L743.539062,700.532043L742.794983,699.128052L729.324402,680.042725L728.208557,678.838623L726.817261,677.967285L725.246826,677.489075L723.606018,677.437134L483.112122,705.073730L482.444214,705.224487L481.832214,705.531738L481.312408,705.977417L480.915192,706.535156L425.820587,806.934753L425.520294,807.697571L425.413239,808.510376L425.505707,809.324951L425.792450,810.092896L426.256195,810.768921L440.838531,828.303955L441.501953,828.905396L442.281525,829.346069L443.138977,829.604309L444.032166,829.667419L444.917480,829.532349L445.751251,829.205688L446.492676,828.703491z" fill="#000000" stroke="none" fill-opacity="1" />
				<polyline points="620.969482,926.146973 660.300842,893.466064 625.459534,851.471436 595.851501,846.754822 560.512085,861.697876 526.646484,894.842163" fill="#879F4C" stroke="none" fill-opacity="1" />
				<path d="M618.920410,923.680908L618.478638,924.128052L618.132690,924.652832L617.895691,925.234924L617.776794,925.852112L617.780701,926.480652L617.907043,927.096375L618.151001,927.675537L618.503479,928.196045L618.950623,928.637817L619.475342,928.983765L620.057434,929.220825L620.674622,929.339722L621.303162,929.335876L621.918884,929.209473L622.498169,928.965454L623.018494,928.613098L663.703369,897.561096L664.528992,896.701721L665.142700,895.680298L665.514038,894.547852L665.623962,893.361328L665.467285,892.179932L665.051880,891.063049L664.398438,890.066528L629.043945,848.497559L627.766113,847.425232L626.192322,846.872009L596.368652,843.508179L595.454529,843.491333L594.571167,843.726868L559.368652,858.993774L558.458496,859.599609L524.070984,892.210632L523.607056,892.763672L523.259949,893.396545L523.042969,894.084961L522.964539,894.802551L523.027527,895.521606L523.229614,896.214600L523.562927,896.854797L524.014893,897.417664L524.567871,897.881592L525.200684,898.228638L525.889221,898.445557L526.606750,898.524048L527.325867,898.461060L528.018799,898.258972L528.658997,897.925598L529.221802,897.473694L562.168030,864.185364L596.264404,850.149536L622.994934,855.794922L652.806274,892.771118z" fill="#000000" stroke="none" fill-opacity="1" />
				<polyline points="208.099197,282.129944 182.277771,530.064636 145.993881,554.379700 132.063675,562.855347 113.653793,568.485840 132.429886,532.474915 125.005646,538.408813 100.883842,557.305664 72.311272,574.644043 57.294559,547.053406 42.461700,494.327698 42.054005,461.589417 53.518009,405.519592 35.636044,436.878601 12.094288,465.424255 13.740520,427.288940 24.230118,386.032043 36.276684,362.341614 67.043556,325.466370 48.321075,330.059631 32.125168,330.043518 23.518982,324.408020 17.398624,316.253784 48.980198,304.171021 71.015572,289.773621 93.187691,272.979553 117.760391,258.720093 162.891602,238.616699" fill="#879F4C" stroke="none" fill-opacity="1" />
				<path d="M210.950363,282.426941L210.953522,281.864929L210.847031,281.313171L210.634857,280.792786L210.325287,280.323853L209.930130,279.924255L209.464706,279.609436L208.946671,279.391541L208.396164,279.278748L207.834274,279.275635L207.282486,279.382202L206.762177,279.594299L206.293198,279.903931L205.893570,280.299072L205.578751,280.764526L205.360794,281.282532L205.248123,281.833008L179.165085,528.190002L144.065277,551.360779L130.557175,559.497253L121.396347,562.050110L136.648361,534.674438L137.013748,533.748230L137.178314,532.766296L137.134995,531.771606L136.885590,530.807678L136.441025,529.916809L135.820709,529.137939L135.051956,528.505249L134.168243,528.046509L133.208481,527.781677L132.214569,527.722351L131.230133,527.871338L130.298248,528.221863L129.459686,528.758667L122.103653,534.741394L98.403450,553.718506L74.066681,568.136108L62.007122,545.136414L47.994003,493.529175L47.343922,462.091370L57.504902,406.334717L57.587299,405.519165L57.504673,404.703613L57.260227,403.921143L56.863861,403.203491L56.331882,402.579895L55.685577,402.075500L54.951324,401.710999L54.158932,401.500977L53.340454,401.454102L52.529297,401.572144L51.758251,401.850342L51.058559,402.277527L50.458660,402.836243L49.982929,403.503845L31.778011,434.216797L18.097973,449.777832L18.544178,427.995605L28.198528,387.524414L39.474049,364.449585L69.536308,327.546265L69.913391,326.984131L70.165726,326.355896L70.282455,325.689087L70.258080,325.012573L70.094200,324.355774L69.797516,323.747314L69.381180,323.213623L68.863220,322.777771L68.266121,322.458862L67.615814,322.270691L66.940613,322.221497L66.269989,322.313354L47.903133,326.587585L33.242855,326.302979L26.229572,321.517822L23.830431,318.108521L50.251923,307.495239L72.897202,292.653503L95.077682,275.820557L119.230492,261.596741L163.779419,240.609863L164.151245,240.398376L164.474655,240.118469L164.737244,239.780762L164.928818,239.398315L165.042160,238.985840L165.072845,238.559204L165.019684,238.134766L164.884811,237.728760L164.673325,237.356934L164.393280,237.033569L164.055634,236.771057L163.673172,236.579468L163.260727,236.466064L162.834091,236.435364L162.409576,236.488586L162.003708,236.623413L116.447693,255.773132L91.478287,270.033875L69.033791,286.959229L47.352448,300.982910L15.958327,312.489380L15.220642,312.862366L14.574508,313.378113L14.047108,314.014832L13.660870,314.745728L13.431758,315.540039L13.369503,316.364441L13.476848,317.184143L13.749218,317.964722L14.175110,318.673340L20.397663,326.750916L30.075531,333.173706L31.054001,333.628418L32.121449,333.785034L48.317585,333.531250L58.220215,330.973755L33.354721,359.903625L20.473995,384.122131L9.059830,426.098877L6.775990,465.194702L6.843109,466.297424L7.136478,467.362732L7.643337,468.344421L8.342113,469.200317L9.202423,469.893555L10.187244,470.394226L11.254292,470.680786L12.357501,470.741028L13.449326,470.572144L14.482956,470.181519L15.413531,469.585999L16.201115,468.811157L39.238873,439.849915L44.424133,429.682190L36.877728,460.531067L36.920300,494.396667L52.427845,548.422485L68.224411,576.868408L68.842560,577.745361L69.645134,578.457458L70.589622,578.966736L71.625534,579.246216L72.697899,579.280884L73.749794,579.069031L74.725113,578.621887L103.142387,561.027466L127.889610,542.090210L129.406860,536.148376L110.204605,566.687439L109.901901,567.458984L109.769493,568.277161L109.813560,569.104797L110.031792,569.904358L110.414597,570.639526L110.944351,571.276855L111.597122,571.787598L112.343391,572.148315L113.149055,572.342773L113.977608,572.362244L114.791504,572.205627L133.131699,566.347473L147.855545,557.439453L184.109299,532.797729L184.818939,532.154297L185.313202,531.333679L185.550095,530.405457z" fill="#000000" stroke="none" fill-opacity="1" />
				<polygon points="355.558960,62.653748 354.679321,44.847412 359.200958,27.503418 366.899597,16.429199 388.750641,31.578735 377.649780,37.703003 362.544769,53.340088" fill="#879F4C" stroke="none" fill-opacity="1" />
				<path d="M353.016602,62.779419L353.089935,63.273071L353.258148,63.742798L353.514801,64.170715L353.850006,64.540405L354.250946,64.837524L354.702057,65.050720L355.186218,65.171875L355.684601,65.196228L356.178192,65.122803L356.647980,64.954529L357.075867,64.697998L357.445496,64.362671L357.742645,63.961853L357.955902,63.510681L358.077057,63.026550L358.101379,62.528076L356.558411,45.041382L361.681305,28.644775L367.656708,20.624634L383.657806,31.318604L376.874817,36.298462L361.525452,52.355469L353.522644,61.126465L353.263794,61.552979L353.093201,62.021851L353.017273,62.515076L353.039093,63.013611L353.157745,63.498352L353.368530,63.950623L353.663696,64.352966L354.031616,64.690125L354.458191,64.948914L354.927124,65.119507L355.420319,65.195435L355.918823,65.173706L356.403534,65.054993L356.855713,64.844116L357.258148,64.549011L357.595245,64.181152L363.625549,54.261108L378.635956,38.991089L390.049042,33.932251L390.542816,33.582031L390.945618,33.130127L391.237152,32.599609L391.402527,32.017212L391.433441,31.412720L391.328247,30.816528L391.092346,30.259033L390.737640,29.768555L390.282166,29.369873L368.618256,13.950073L368.024078,13.630127L367.373535,13.450195L366.699310,13.419312L366.035095,13.539185L365.414276,13.803833L364.867676,14.199829L364.422852,14.707275L356.993927,25.969238L352.872437,44.376465z" fill="#000000" stroke="none" fill-opacity="1" />
				<polyline points="95.048447,273.442017 117.910591,259.666565 168.382172,239.432312 199.646133,271.074341 202.177902,314.284241 130.363708,285.359131 131.067520,278.346008 79.172340,299.913635 93.187691,272.979553" fill="#ACBF6E" stroke="none" fill-opacity="1" />
				<polygon points="371.873199,68.728760 378.368286,57.788086 390.500519,45.842285 412.541840,38.408569 432.917358,40.210815 425.674103,78.241150 410.030304,73.321167 388.187286,71.831909" fill="#879F4C" stroke="none" fill-opacity="1" />
				<path d="M369.765411,67.477356L369.561829,67.912659L369.447052,68.379211L369.425415,68.859314L369.497986,69.334412L369.661713,69.786194L369.910522,70.197205L370.234711,70.551941L370.621887,70.836487L371.057098,71.040161L371.523743,71.154968L372.003815,71.176453L372.478790,71.104004L372.930573,70.940247L373.341614,70.691345L373.696350,70.367188L373.980957,69.980042L379.335663,58.545715L391.443542,47.375488L412.970154,42.005371L428.330658,43.677246L424.515228,76.303284L410.807068,70.851257L388.514252,69.291504L372.331238,66.320679L371.852661,66.277527L371.374847,66.328674L370.916199,66.471985L370.494263,66.702026L370.125427,67.009949L369.823730,67.384033L369.600739,67.809753L369.465118,68.270691L369.422028,68.749268L369.473114,69.227173L369.616516,69.685730L369.846558,70.107605L370.154510,70.476501L370.528503,70.778259L370.954163,71.001099L371.415192,71.136841L387.709534,74.343750L409.547089,75.883301L425.223785,79.673035L425.533508,79.735596L425.849487,79.731934L426.157654,79.662231L426.444427,79.529541L426.697083,79.339783L426.904388,79.101135L427.057190,78.824463L427.148621,78.522095L436.706360,40.932373L436.773651,40.131226L436.673340,39.333374L436.409851,38.573608L435.994507,37.885132L435.445465,37.297607L434.786591,36.836792L434.046417,36.522583L433.257172,36.368774L412.854126,34.877319L411.408875,35.049438L389.939850,44.180176L389.269745,44.592407L377.513214,56.919678z" fill="#000000" stroke="none" fill-opacity="1" />
				<polyline points="196.083359,259.631714 198.370911,270.026917 191.023010,272.627563 180.834045,263.166138 173.446701,252.769836 164.268036,236.810425 174.460083,222.336426" fill="#25067F" stroke="none" fill-opacity="1" />
				<path d="M199.055786,258.977539L198.871078,258.410278L198.579254,257.889893L198.191467,257.436401L197.722733,257.067383L197.190903,256.796753L196.616547,256.635132L196.021729,256.588745L195.429199,256.659180L194.861923,256.843994L194.341507,257.135803L193.888077,257.523621L193.518967,257.992371L193.248413,258.524109L193.086823,259.098450L193.040375,259.693420L193.110977,260.285828L194.807495,268.047729L191.740433,269.161499L183.109879,261.169617L175.754868,251.290771L166.752823,236.924255L175.732727,223.232605L175.883102,222.967163L175.978821,222.677368L176.016144,222.374512L175.993698,222.070129L175.912216,221.776123L175.775070,221.503540L175.587326,221.263000L175.356216,221.063721L175.090714,220.913330L174.800949,220.817566L174.498077,220.780273L174.193787,220.802795L173.899658,220.884155L173.627182,221.021362L173.386627,221.209167L173.187332,221.440247L162.553314,235.602966L162.325516,236.019958L162.197403,236.477600L162.175644,236.952332L162.261368,237.419800L162.450027,237.855957L171.073090,254.134888L178.379059,264.910522L188.962494,274.846619L189.634781,275.318726L190.409317,275.592834L191.228943,275.648682L192.033417,275.482239L199.390182,272.906677L200.048492,272.579834L200.609833,272.105164L201.041382,271.510193L201.318451,270.829346L201.424759,270.102051L201.354385,269.370483z" fill="#000000" stroke="none" fill-opacity="1" />
				<polyline points="375.801819,571.659302 505.682922,685.309204 572.299438,642.582397 552.398438,619.528076 537.836487,581.442627 527.007996,539.750427 367.696442,335.421936 351.061371,318.054810 299.737244,325.515686 277.460205,423.963013" fill="#ADBF6F" stroke="none" fill-opacity="1" />
				<path d="M379.623993,567.291260L378.698364,566.629517L377.661469,566.161072L376.553070,565.903931L375.415833,565.867920L374.293396,566.054504L373.228943,566.456482L372.263367,567.058411L371.433716,567.837097L370.772034,568.762695L370.303619,569.799683L370.046417,570.907959L370.010437,572.045288L370.197083,573.167725L370.599060,574.232117L371.200928,575.197693L371.979645,576.027344L503.736298,687.533813L504.367889,687.956604L505.086365,688.204468L505.844299,688.260864L506.591614,688.122131L507.278809,687.797424L575.995789,648.345337L577.135742,647.428589L578.054810,646.290527L578.711243,644.983154L579.074890,643.566223L579.129272,642.104370L578.871826,640.664307L578.314270,639.311829L577.482178,638.108704L560.036377,614.963501L544.754883,579.229126L531.758667,538.516602L530.878723,536.732422L372.033844,332.040161L355.864746,313.453979L354.645599,312.451843L353.224762,311.765198L351.682129,311.432556L350.104523,311.472717L299.196320,321.794189L298.324402,322.030579L297.534180,322.468018L296.870941,323.081299L296.373138,323.835022L296.069397,324.685730L273.544647,423.077026L273.446960,423.857849L273.503662,424.642883L273.712219,425.401672L274.064941,426.105286L274.548096,426.726440L275.143188,427.241516L275.827332,427.630554L276.574219,427.878601L277.355133,427.976257L278.140106,427.919617L278.898926,427.710999L279.602478,427.358276L280.223694,426.875061L280.738647,426.280029L281.127777,425.595947L281.375885,424.849060L302.834930,328.865479L348.627838,325.129761L363.531006,339.024414L522.512512,541.967468L530.816711,583.265869L544.211853,622.658203L561.958923,641.081055L505.957367,681.621460z" fill="#000000" stroke="none" fill-opacity="1" />
				<polyline points="256.848450,503.559448 219.611603,347.481384 171.364746,290.525757 123.787247,288.313232 108.478836,325.717285 104.888817,631.206604 126.175293,739.123596 175.305817,778.569702 164.411087,708.127197 201.229309,753.403076 188.774414,703.826965" fill="#ADBF6F" stroke="none" fill-opacity="1" />
				<path d="M252.903961,504.500427L253.163406,505.251953L253.564392,505.938354L254.091568,506.533264L254.724701,507.014038L255.439499,507.362000L256.208435,507.563843L257.001953,507.611694L257.789551,507.503906L258.540985,507.244507L259.227448,506.843567L259.822357,506.316345L260.303131,505.683105L260.651031,504.968445L260.852905,504.199463L260.900787,503.405945L260.792999,502.618347L221.033203,347.142273L220.726715,346.536804L173.511429,288.707336L172.939682,288.194519L172.250580,287.855469L171.495438,287.715393L123.971092,284.360107L123.003784,284.434143L122.083565,284.741272L121.265770,285.263062L120.599442,285.968262L120.124733,286.814270L105.744148,324.598083L105.524193,325.682617L102.238998,631.175415L122.518097,739.844971L122.986679,741.054504L123.841499,742.030273L172.857285,781.619263L173.575684,782.077148L174.376144,782.368530L175.220718,782.479736L176.069351,782.405396L176.881699,782.149048L177.619339,781.722900L178.247177,781.147217L178.735428,780.449158L179.061066,779.662048L179.208466,778.822998L179.170700,777.971924L170.952072,722.849731L197.959946,756.061707L198.579651,756.679810L199.313675,757.156494L200.130386,757.471191L200.994476,757.610474L201.868683,757.568237L202.715317,757.346313L203.497864,756.954224L204.182510,756.409058L204.739670,755.734131L205.145599,754.958740L205.382477,754.116089L205.440155,753.242798L205.316223,752.376343L192.861328,702.800171L192.582489,702.022644L192.157288,701.314331L191.602188,700.702637L190.938324,700.211060L190.191360,699.858337L189.389877,699.658203L188.564697,699.618286L187.747650,699.739990L186.970078,700.018860L186.261810,700.444031L185.650131,700.999268L185.158539,701.663086L184.805817,702.410095L184.605728,703.211548L184.565735,704.036621L184.687500,704.853699L192.514053,736.006897L167.680435,705.468628L167.083969,704.869507L166.379990,704.401550L165.596741,704.083496L164.765808,703.928284L163.920547,703.941956L163.095016,704.124084L162.322540,704.467285L161.634003,704.957764L161.057281,705.575867L160.615540,706.296631L160.326523,707.091003L160.201950,707.927124L160.246643,708.771240L169.901672,769.215393L129.569382,737.068115L107.541962,630.963135L111.426826,326.315247L126.392265,292.395996L170.009995,293.279236L218.270920,348.159912z" fill="#000000" stroke="none" fill-opacity="1" />
				<polyline points="199.587418,284.334839 196.883179,260.043213 161.480545,188.231506 149.299850,184.765747 128.936462,178.496948 109.676056,166.666382 99.448242,155.345215 155.232010,151.969360 126.276855,132.284119 116.649681,115.564392 105.571289,82.947510 169.345154,94.826294 191.146362,94.495483 210.989517,91.857056 224.346939,85.792480 253.465851,78.600769 309.187805,72.617676 343.384644,70.936584 362.239807,74.361816 368.097443,86.625610 388.059937,138.821045 406.245941,190.351257 408.184540,200.693848 376.956665,257.552673 371.071014,271.587646 367.233307,279.734558 332.102386,273.702271 266.213196,265.407471 267.348907,298.071716" fill="#ADBF6F" stroke="none" fill-opacity="1" />
				<path d="M196.722336,284.653748L196.839706,285.206604L197.062454,285.725891L197.382385,286.191711L197.787033,286.586182L198.260818,286.894165L198.785645,287.103821L199.341248,287.207031L199.906311,287.199890L200.459122,287.082581L200.978439,286.859741L201.444336,286.539795L201.838821,286.135193L202.146774,285.661377L202.356430,285.136597L202.459549,284.580933L202.452438,284.015869L199.917053,259.705505L162.484650,187.736450L162.309891,187.479492L162.071167,187.280457L161.786896,187.154663L149.775284,183.160339L130.187531,175.730713L112.213379,163.613708L108.147583,158.899048L155.338623,153.731079L155.698410,153.671509L156.038300,153.539429L156.343750,153.340149L156.601700,153.082397L156.801224,152.777100L156.933746,152.437378L156.993530,152.077637L156.978149,151.713196L156.888245,151.359802L156.727585,151.032410L156.503052,150.744995L156.224274,150.509888L129.066925,129.694885L120.406265,113.864502L111.796188,88.338745L168.786224,97.826782L191.174637,96.351624L211.061264,92.396790L224.583725,86.474731L253.795624,80.470398L309.409393,75.450989L343.195557,73.828735L360.217529,77.008423L365.330597,87.813171L385.168365,139.884155L403.198822,191.169250L404.851044,200.161072L374.009979,255.934326L367.429901,269.967529L364.846039,275.151917L332.758911,269.878479L266.632050,262.080322L265.908051,262.067993L265.198273,262.211304L264.535828,262.503723L263.951569,262.931458L263.472748,263.474670L263.121704,264.108093L262.914917,264.801880L262.861694,265.524048L264.212494,298.180786L264.294037,298.790588L264.492920,299.372864L264.801636,299.904968L265.208313,300.366699L265.697083,300.740234L266.249481,301.011230L266.843994,301.169250L267.458038,301.208191L268.067841,301.126709L268.649994,300.927795L269.182220,300.619080L269.643921,300.212402L270.017456,299.723572L270.288361,299.171265L270.446472,298.576660L270.485443,297.962708L269.701538,269.226624L331.531494,277.540649L366.537384,283.787720L367.425385,283.842590L368.304382,283.705139L369.133362,283.381897L369.873352,282.887878L370.489685,282.246277L370.953705,281.487122L374.675507,273.285583L379.988556,259.016052L410.970428,202.223816L411.323029,201.195435L411.308502,200.108276L409.337708,189.771667L390.964905,137.795898L370.907532,85.550842L364.915771,73.083740L364.541992,72.492493L364.040283,72.005310L363.438385,71.649414L362.769867,71.443970L343.899323,68.103699L309.048401,69.780334L253.263702,76.717407L224.174469,85.094299L210.837891,91.328064L191.009506,92.640991L169.604019,91.769958L106.333176,78.857422L105.471100,78.788330L104.613472,78.898926L103.797173,79.184326L103.057541,79.632568L102.426506,80.223816L101.931381,80.932678L101.593552,81.728821L101.427444,82.577454L101.440491,83.442078L101.632065,84.285400L112.764122,116.884155L123.061813,134.135376L124.191002,135.352173L149.961319,150.520203L99.202255,151.279785L98.383316,151.414001L97.608719,151.711487L96.910400,152.159668L96.317421,152.740173L95.854393,153.428833L95.540543,154.197021L95.389023,155.012817L95.405907,155.842590L95.590614,156.651489L95.935364,157.406372L96.426086,158.075562L106.760384,169.300415L127.360100,181.063354L148.807281,186.365967L160.696167,189.172241L193.908463,260.912964z" fill="#000000" stroke="none" fill-opacity="1" />
				<polygon points="319.799255,271.420410 364.688934,228.903625 375.163818,261.536194 367.655823,281.037903 333.151184,271.918457" fill="#25067F" stroke="none" fill-opacity="1" />
				<path d="M317.195618,268.671448L316.709290,269.232117L316.341766,269.877014L316.107117,270.581238L316.014343,271.317627L316.066986,272.057983L316.263153,272.773926L316.595123,273.437805L317.050262,274.024109L317.611023,274.510376L318.255890,274.877869L318.960052,275.112610L319.696503,275.205383L320.436920,275.152649L321.152740,274.956543L321.816589,274.624512L322.402954,274.169373L364.688934,228.903625L371.511902,261.432251L365.137970,276.111145L334.141327,268.172119L319.940399,267.636780L319.199524,267.681946L318.481689,267.870728L317.814545,268.196045L317.223572,268.645142L316.731659,269.201050L316.357666,269.842041L316.115845,270.543823L316.015625,271.279236L316.060822,272.020081L316.249634,272.737976L316.574860,273.405151L317.024017,273.995972L317.579773,274.487976L318.220886,274.862000L318.922638,275.103821L319.658142,275.204041L332.576935,275.774719L366.603180,285.021118L367.595032,285.157288L368.590454,285.050415L369.530701,284.706482L370.360168,284.145935L371.030029,283.401855L371.500610,282.518188L378.379272,262.774170L378.607941,261.634216L378.444489,260.483093L364.688934,228.903625z" fill="#000000" stroke="none" fill-opacity="1" />
				<polygon points="248.660828,178.377014 273.151398,176.793457 297.943115,170.741821 297.065125,194.162964 301.088623,201.741577 272.578369,198.747559 258.149414,198.239380 235.639282,197.720215 235.581039,193.365051 229.761597,183.280029" fill="#25067F" stroke="none" fill-opacity="1" />
				<path d="M248.523499,176.253052L248.111801,176.320679L247.721100,176.467346L247.366623,176.687317L247.061874,176.972229L246.818558,177.311218L246.646042,177.691162L246.550873,178.097351L246.536865,178.514343L246.604446,178.926086L246.751099,179.316711L246.971100,179.671265L247.256073,179.976013L247.594986,180.219360L247.974930,180.391846L248.381134,180.486938L248.798157,180.500916L273.313507,179.300720L293.645477,176.008423L296.376801,194.137146L296.456726,194.485901L301.088623,201.741577L272.874939,195.923279L258.241180,195.634644L237.929535,195.452026L237.781052,193.335632L237.486816,192.265381L232.659241,184.494141L249.195312,180.437195L249.586945,180.293396L249.943024,180.075745L250.249786,179.793091L250.495544,179.455872L250.670761,179.077209L250.768723,178.671692L250.785660,178.254822L250.721008,177.842590L250.577087,177.450928L250.359650,177.094788L250.076813,176.788025L249.739594,176.542358L249.360977,176.367126L248.955399,176.269165L248.538498,176.252136L248.126389,176.316956L229.283752,181.438049L228.876343,181.595520L228.515564,181.841797L228.220428,182.163818L228.006592,182.544678L227.885056,182.964111L227.862457,183.400330L227.939987,183.830139L228.113419,184.231079L233.388748,193.967834L233.319107,197.751221L233.381363,198.254944L233.551697,198.733215L233.821960,199.162781L234.179077,199.523499L234.606171,199.797852L235.082703,199.972839L235.585785,200.039917L258.073486,200.844666L272.379852,201.582214L301.088623,201.741577L297.760406,194.003601L302.037506,170.895386L301.963989,169.954041L301.676849,169.054626L301.191498,168.244690L300.533539,167.567322L299.738098,167.058655L298.847290,166.745605L297.908478,166.644775L296.971497,166.761414L272.769470,174.300110z" fill="#000000" stroke="none" fill-opacity="1" />
				<polygon points="365.862549,150.801025 351.703247,151.767883 338.462860,158.608948 346.513123,189.356323 346.569733,201.241333 361.495697,185.799377 369.193756,181.232361 381.033386,176.953857 379.764557,171.123291 379.752106,157.354187" fill="#25067F" stroke="none" fill-opacity="1" />
				<path d="M365.993317,152.716614L366.364532,152.654297L366.716461,152.520630L367.035553,152.321106L367.309570,152.062988L367.527985,151.756409L367.682373,151.413208L367.766815,151.046387L367.778137,150.670166L367.715820,150.298889L367.582245,149.947021L367.382629,149.627869L367.124573,149.353882L366.818054,149.135498L366.474731,148.981079L366.107941,148.896606L365.731720,148.885254L351.540253,149.380554L350.604889,149.642029L336.799561,155.389893L336.123260,155.842041L335.564972,156.433777L335.152710,157.135071L334.907349,157.910767L334.841187,158.721619L334.957581,159.526672L345.997467,189.423950L346.569733,201.241333L362.587097,187.180054L370.039032,183.022827L381.701660,178.802979L382.121613,178.591492L382.479279,178.286194L382.754364,177.904846L382.930908,177.469055L382.998962,177.003784L382.954620,176.535645L381.717041,170.912415L381.690765,157.352478L381.641174,156.918457L381.495667,156.506531L381.261566,156.137695L380.950928,155.830627L380.579346,155.600891L366.681824,149.064514L366.327301,148.938049L365.954865,148.883118L365.578979,148.901855L365.213989,148.993652L364.873840,149.154968L364.571747,149.379578L364.319183,149.658630L364.126007,149.981628L363.999542,150.336243L363.944672,150.708557L363.963501,151.084534L364.055267,151.449524L364.216522,151.789612L364.441040,152.091858L364.720154,152.344299L365.043182,152.537537L377.814484,158.583740L377.811859,171.125122L378.746033,175.689636L368.523804,179.378540L360.605682,184.299133L346.569733,201.241333L347.029144,189.353882L342.702576,160.496704L352.361023,154.121216z" fill="#000000" stroke="none" fill-opacity="1" />
				<polygon points="258.781799,190.154907 269.277649,184.382324 273.919525,192.437744 272.981689,196.780090 255.617294,196.449707" fill="#EDEEEB" stroke="none" fill-opacity="1" />
				<polyline points="352.385254,193.848938 361.697266,183.690430 359.439880,172.685425 348.841614,164.676575 346.586395,178.362183 349.468964,189.325562" fill="#EDEEEB" stroke="none" fill-opacity="1" />
				<polyline points="366.912628,508.829102 357.644104,416.144348 322.410126,317.867981 281.688080,323.445374 288.319946,302.756531 238.623962,293.201111 193.615326,285.117371 198.294113,305.423157 169.450150,290.529175 191.717422,367.292114 199.930573,517.806946 197.443085,695.084839 250.224091,835.278870 366.507507,894.611084 407.861938,930.196411 418.776764,994.541077 432.484406,1011.076843 501.736115,1031.167847 592.216553,1033.529297 658.276062,1007.151672 685.138672,974.439453 656.039795,947.350830 568.630615,909.600647 533.733215,872.597351 503.936798,829.945923 463.169800,824.528687 420.936615,724.894653" fill="#9B117F" stroke="none" fill-opacity="1" />
				<path d="M362.358215,509.284546L362.534576,510.164307L362.879211,510.992859L363.378815,511.738037L364.014221,512.371643L364.761017,512.868958L365.590515,513.211121L366.470764,513.384827L367.368042,513.383484L368.247833,513.207153L369.076263,512.862549L369.821625,512.362915L370.455078,511.727539L370.952484,510.980713L371.294586,510.151245L371.468292,509.270996L371.466980,508.373657L362.198456,415.688904L325.868011,316.628296L325.500061,315.881470L324.973480,315.236755L324.315155,314.727173L323.559082,314.378906L322.743927,314.209717L321.911591,314.228516L284.828552,320.808960L291.567780,303.797607L291.713959,303.092957L291.708984,302.373352L291.553192,301.670898L291.253448,301.016663L290.823151,300.439880L290.281403,299.966309L289.652313,299.616882L288.963928,299.407166L239.192047,290.246521L194.123779,282.286438L193.495331,282.243591L192.872726,282.338623L192.285629,282.566956L191.762299,282.917603L191.327881,283.373718L191.003204,283.913452L190.803741,284.510925L190.739136,285.137573L190.812546,285.763184L195.206726,301.447693L170.757004,287.998352L170.195786,287.780090L169.601212,287.684814L168.999939,287.716614L168.418808,287.874146L167.883682,288.150208L167.418594,288.532715L167.044327,289.004395L166.777557,289.544250L166.630157,290.128113L166.608978,290.729858L166.714615,291.322632L189.397247,367.686707L196.732864,517.871704L191.985397,695.008301L192.334839,697.008057L247.592072,836.269775L248.127533,837.153320L248.945847,837.783936L364.326874,897.859558L403.300385,932.772827L415.486053,995.099304L416.207184,996.671204L429.949554,1013.178101L430.678589,1013.829956L431.566986,1014.238953L499.992126,1037.178833L592.026306,1040.814087L594.918823,1040.296875L660.293579,1012.204041L662.480530,1010.604248L688.993530,977.604980L689.581360,976.707336L689.963562,975.704712L690.122559,974.643616L690.050903,973.572998L689.752014,972.542480L689.239563,971.599792L688.537476,970.788452L659.053467,944.113464L570.309082,907.205078L536.455078,870.382874L507.014801,827.795593L506.311432,827.037476L505.428070,826.500000L504.431396,826.223877L465.998047,820.815918L423.550690,723.786621L423.284271,723.297974L422.927673,722.870544L422.494507,722.521057L422.001587,722.262695L421.467621,722.105530L420.913300,722.055542L420.359833,722.114685L419.828613,722.280518L419.339966,722.546997L418.912659,722.903625L418.563080,723.336731L418.304779,723.829712L418.147583,724.363647L418.097595,724.917969L418.156708,725.471436L418.322632,726.002686L459.438110,826.110474L459.968781,827.014893L460.713745,827.752808L461.623016,828.274963L462.635895,828.546387L501.804901,833.450317L530.864319,874.601562L566.546387,911.566223L567.494751,912.230652L653.585144,951.108521L678.308960,974.896423L654.959595,1002.617981L590.907104,1026.205322L502.705536,1024.932251L434.373505,1008.196655L421.917725,993.100220L412.720764,929.372253L412.153046,927.772827L411.076385,926.460876L369.041351,891.666504L252.472275,833.268738L202.915192,694.128540L203.126678,517.851807L194.052246,367.164734L174.032135,296.100708L197.323364,307.303223L197.729874,307.462402L198.160461,307.534851L198.596695,307.517273L199.020081,307.410583L199.412613,307.219238L199.757370,306.951477L200.039978,306.618591L200.248077,306.234802L200.373062,305.816528L200.409622,305.381409L200.356003,304.948120L197.396790,288.718811L238.073944,296.159302L283.897644,305.379272L279.606628,322.778137L279.510315,323.257507L279.523041,323.746216L279.644104,324.219910L279.867340,324.654785L280.181580,325.029236L280.571320,325.324402L281.016846,325.525574L281.495972,325.622803L281.984711,325.611023L319.957428,321.911682L353.145691,417.159485z" fill="#000000" stroke="none" fill-opacity="1" />
				<polyline points="660.300842,893.466064 625.459534,851.471436" fill="#ADBF6F" stroke="none" fill-opacity="1" />
				<path d="M656.203308,896.865601L656.945190,897.599731L657.816101,898.174927L658.782593,898.569214L659.807251,898.767334L660.851013,898.761780L661.873535,898.552673L662.835632,898.148132L663.700378,897.563599L664.434448,896.821655L665.009644,895.950745L665.403931,894.984375L665.602112,893.959656L665.596497,892.915894L665.387390,891.893372L664.982849,890.931274L664.398438,890.066528L629.043945,848.497559L628.394958,847.855469L627.633118,847.352295L626.787720,847.007385L625.891296,846.834106L624.978333,846.838928L624.083862,847.021851L623.242126,847.375732L622.485779,847.887024L621.843689,848.536011L621.340454,849.297852L620.995605,850.143250L620.822327,851.039673L620.827087,851.952637L621.010010,852.847168L621.363953,853.688843L621.875183,854.445190z" fill="#000000" stroke="none" fill-opacity="1" />
				<polyline points="618.961365,861.665833 594.910156,864.610779 583.873352,862.206360 583.893066,856.322632 608.853027,823.541382 616.804810,804.232117 629.806396,770.512085 640.046448,789.864319 646.498108,817.746033 643.524475,839.534912" fill="#25067F" stroke="none" fill-opacity="1" />
				<path d="M619.479858,865.901001L620.296204,865.718445L621.061218,865.380188L621.745483,864.899170L622.322754,864.293823L622.770874,863.587585L623.072571,862.807434L623.216309,861.983398L623.196533,861.147217L623.013977,860.330933L622.675659,859.565979L622.194641,858.881714L621.589355,858.304382L620.883057,857.856262L620.102966,857.554565L619.278931,857.410828L618.442749,857.430664L595.060608,861.365967L586.783875,859.869629L586.803345,857.309937L611.416382,825.493164L619.135010,805.191772L630.074829,775.030029L638.017639,790.621155L642.879395,817.912231L638.750854,838.883423L638.715454,839.827271L638.864929,840.759827L639.193359,841.645386L639.688354,842.449768L640.330688,843.142151L641.095825,843.695923L641.954285,844.089783L642.873108,844.308655L643.816895,844.343994L644.749451,844.194580L645.635010,843.866028L646.439392,843.371094L647.131775,842.728699L647.685547,841.963623L648.079529,841.105103L648.298279,840.186401L650.028320,818.227844L642.138428,789.380249L631.464417,769.634888L631.247498,769.311523L630.968689,769.039917L630.639832,768.831665L630.275024,768.695801L629.890015,768.638245L629.501526,768.661316L629.126038,768.764038L628.779846,768.942200L628.477966,769.187866L628.233154,769.490601L628.056213,769.837280L614.463867,803.298950L606.034302,821.924805L581.574768,854.557556L581.133728,855.386658L580.979309,856.312988L580.970642,862.196716L581.042603,862.849060L581.259521,863.468628L581.609924,864.023621L582.076050,864.485718L582.634033,864.831238L583.255432,865.042603L594.228394,867.739868z" fill="#000000" stroke="none" fill-opacity="1" />
				<polygon points="645.142395,839.423340 662.420044,820.555664 681.038696,792.427734 682.401672,803.356079 677.771423,849.375488 660.300842,893.466064 642.253662,903.174805 612.924500,897.258789 602.806335,888.476013 608.037415,871.333374 626.646973,855.195435" fill="#25067F" stroke="none" fill-opacity="1" />
				<path d="M641.580566,836.161743L641.012756,836.919312L640.603638,837.773071L640.368835,838.690186L640.317566,839.635559L640.451660,840.572754L640.765991,841.465820L641.248657,842.280334L641.880798,842.985107L642.638306,843.552917L643.492126,843.962158L644.409241,844.196838L645.354614,844.248169L646.291809,844.114075L647.184875,843.799683L647.999390,843.317078L648.704163,842.684937L665.187622,823.089966L679.175842,800.372559L679.176819,803.394470L672.287598,848.040649L656.067017,889.698059L641.613525,898.859497L614.320007,894.420471L606.201050,887.500305L611.130127,873.343323L629.697693,858.742920L648.276062,843.098083L648.932739,842.416138L649.443848,841.619141L649.789551,840.737793L649.956665,839.805908L649.938843,838.859375L649.736633,837.934448L649.357910,837.066772L648.817200,836.289612L648.135254,835.632935L647.338257,835.121826L646.456787,834.776123L645.525024,834.609009L644.578369,834.626831L643.653503,834.829102L642.785767,835.207825L642.008728,835.748535L623.611145,851.635376L605.715027,868.655334L605.065186,869.401733L604.646973,870.298828L599.973145,887.611511L599.850525,888.281433L599.884155,888.961609L600.072327,889.616150L600.405029,890.210449L600.864502,890.713013L610.919678,899.568359L612.319824,900.256653L641.442261,907.197266L642.855713,907.233887L644.197693,906.788513L662.823242,898.154846L664.278015,897.005737L665.250549,895.427368L682.968140,851.434631L685.590210,803.677002L683.848694,792.077271L683.720581,791.518677L683.482605,790.997314L683.144531,790.534485L682.720154,790.149231L682.227051,789.857361L681.685120,789.670776L681.116760,789.597046L680.545227,789.639282L679.993835,789.795776L679.485291,790.060059L679.040405,790.421265L678.677307,790.864685L659.453552,818.238647z" fill="#000000" stroke="none" fill-opacity="1" />
				<polyline points="551.493774,889.690369 562.611816,875.608643 573.193848,869.958252 596.314636,873.289368 590.011963,896.187744 578.437256,904.638062 568.516296,906.431030" fill="#25067F" stroke="none" fill-opacity="1" />
				<path d="M549.110413,887.808594L548.789185,888.309753L548.571716,888.863953L548.466675,889.449829L548.477905,890.045044L548.605042,890.626648L548.843140,891.172241L549.183167,891.660828L549.612000,892.073730L550.113098,892.395020L550.667358,892.612427L551.253296,892.717529L551.848511,892.706238L552.429993,892.579163L552.975647,892.340942L553.464233,892.000977L553.877258,891.572144L564.520325,877.890930L573.710754,872.905029L592.390930,875.857605L587.560852,894.494995L577.299744,901.982666L568.009338,903.625488L567.471680,903.778320L566.974182,904.033081L566.535950,904.380005L566.174011,904.805725L565.901855,905.293945L565.730347,905.825806L565.665771,906.380981L565.710754,906.938110L565.863586,907.475647L566.118408,907.973145L566.465271,908.411316L566.890930,908.773438L567.379211,909.045471L567.911133,909.217041L568.466248,909.281616L569.023315,909.236572L578.937927,907.408630L580.097290,906.911987L591.670288,898.459167L592.326111,897.785889L592.723450,896.934082L599.304993,874.112427L599.411194,873.464722L599.378845,872.809082L599.209106,872.175049L598.909729,871.590820L598.494202,871.082764L597.980896,870.673523L597.393188,870.381470L596.756958,870.219604L573.599182,867.144409L572.702515,867.158142L571.854736,867.450500L561.240112,873.039734L560.326050,873.804077z" fill="#000000" stroke="none" fill-opacity="1" />
				<polygon points="223.860001,990.482361 191.227158,1002.330627 179.935913,999.717651 163.540359,974.607910 141.285721,924.603821 140.877686,897.330688 184.551956,936.094482 216.562332,949.956970 240.699631,966.308105 236.348587,981.733398" fill="#25067F" stroke="none" fill-opacity="1" />
				<path d="M224.969849,993.539001L225.544907,993.263794L226.055145,992.881653L226.481033,992.407227L226.806152,991.858948L227.018097,991.257751L227.108734,990.626770L227.074524,989.990173L226.916718,989.372559L226.641479,988.797485L226.259293,988.287231L225.785004,987.861328L225.236664,987.536194L224.635452,987.324219L224.004425,987.233643L223.367889,987.267883L222.750259,987.425659L190.940033,997.583618L182.861481,995.530701L166.934570,972.759766L144.198761,923.962036L143.795761,903.694641L182.629791,938.260071L215.202026,952.434937L237.321457,967.542114L233.689667,979.845886L221.994156,987.818909L221.510406,988.234070L221.116974,988.735718L220.828918,989.304443L220.657425,989.918335L220.608902,990.553955L220.685349,991.186951L220.883789,991.792725L221.196671,992.348206L221.611801,992.831970L222.113388,993.225464L222.682114,993.513428L223.296158,993.684937L223.931747,993.733459L224.564667,993.656982L225.170456,993.458618L225.725967,993.145752L238.110870,984.248901L238.853134,983.511230L239.304657,982.567200L243.506409,967.099792L243.615021,966.380615L243.542343,965.656921L243.292740,964.973694L242.881851,964.373474L242.335281,963.893616L218.140869,947.626831L186.127625,933.621399L142.751373,895.219666L142.269730,894.875244L141.727005,894.638916L141.146667,894.520996L140.554672,894.526611L139.976868,894.655762L139.438705,894.902527L138.963776,895.256165L138.573074,895.701050L138.283813,896.217651L138.108734,896.783203L138.055511,897.372864L138.363632,924.647583L138.615707,925.792114L160.020737,976.174316L175.968079,1002.308472L176.749878,1003.225464L177.737671,1003.915710L178.867538,1004.334412L190.199142,1006.773254L191.502625,1006.882324L192.783447,1006.616943z" fill="#000000" stroke="none" fill-opacity="1" />
				<polyline points="226.618256,988.912964 255.415878,1007.667236 263.543243,1015.901489 263.745117,1026.142700 255.885483,1030.525635 214.003372,1019.822266 195.924210,1003.859436" fill="#25067F" stroke="none" fill-opacity="1" />
				<path d="M228.359299,986.239624L227.804260,985.951355L227.203674,985.776917L226.580597,985.722961L225.958954,985.791626L225.362717,985.980225L224.814667,986.281494L224.335953,986.683960L223.944916,987.171997L223.656631,987.726990L223.482239,988.327576L223.428268,988.950684L223.496872,989.572266L223.685486,990.168579L223.986725,990.716614L224.389175,991.195374L224.877319,991.586365L252.904984,1010.743164L259.216003,1017.727356L259.199738,1023.532959L255.300354,1026.024170L215.653839,1016.703674L198.831070,1000.567139L198.132996,1000.063232L197.349930,999.705322L196.512054,999.506958L195.651672,999.475952L194.801727,999.613281L193.994919,999.913940L193.262314,1000.366089L192.631927,1000.952515L192.128036,1001.650635L191.770065,1002.433716L191.571808,1003.271545L191.540680,1004.131958L191.678055,1004.981873L191.978699,1005.788696L192.430862,1006.521301L193.017380,1007.151733L211.733093,1022.393616L213.154037,1023.145630L254.841553,1034.610596L255.897156,1034.741943L256.952057,1034.604736L257.938995,1034.208008L265.933411,1030.066772L266.902252,1029.339478L267.641541,1028.379761L268.097595,1027.257568L268.237213,1026.054077L267.904755,1015.815491L267.744293,1014.726257L267.316315,1013.711914L266.647980,1012.836975L258.225586,1004.894043z" fill="#000000" stroke="none" fill-opacity="1" />
				<polyline points="241.626266,192.704895 242.105316,189.883545 246.499954,188.311279 249.053482,190.724731 247.602478,193.374634 243.746338,195.101746" fill="#EDEEEB" stroke="none" fill-opacity="1" />
				<polyline points="365.777374,174.024963 363.842377,170.328918 365.807343,166.450989 369.975372,169.569092 371.191467,173.683594 369.482513,176.736877" fill="#EDEEEB" stroke="none" fill-opacity="1" />
			</g>
			<g id="layer.apron.uuid_0x6">
				<polyline points="614.361511,447.836548 605.867249,356.306519 567.313599,434.503845" fill="#BE6D79" stroke="none" fill-opacity="1" />
				<path d="M610.689575,448.177368L610.826538,448.887207L611.099487,449.556580L611.497681,450.159973L612.006042,450.674011L612.604858,451.079041L613.271118,451.359497L613.979431,451.504456L614.702332,451.508545L615.412109,451.371582L616.081543,451.098694L616.684937,450.700378L617.198975,450.192078L617.604004,449.593262L617.884338,448.927002L618.029480,448.218750L618.033508,447.495789L610.112488,355.912659L609.950378,355.079895L609.626648,354.295776L609.154114,353.591248L608.551453,352.994202L607.842529,352.528320L607.055359,352.212036L606.221069,352.057922L605.372986,352.071960L604.544312,352.253662L603.768066,352.595764L603.075012,353.084839L602.492432,353.701477L602.043457,354.421326L564.212280,432.974731L563.973511,433.609131L563.863220,434.278015L563.885437,434.955505L564.039429,435.615601L564.319214,436.233032L564.714111,436.783997L565.208923,437.247253L565.784546,437.605225L566.419006,437.843872L567.087830,437.954285L567.765320,437.932068L568.425415,437.778015L569.042786,437.498230L569.593811,437.103333L570.057129,436.608582L570.415039,436.032837L603.016907,371.729126z" fill="#000000" stroke="none" fill-opacity="1" />
				<polyline points="233.689270,609.351929 309.586243,542.763489 244.244553,438.435059" fill="#BE6D79" stroke="none" fill-opacity="1" />
				<path d="M231.865707,607.273560L231.495255,607.669250L231.209167,608.129578L231.018265,608.636963L230.930145,609.171753L230.947998,609.713501L231.071136,610.241333L231.294983,610.734985L231.610794,611.175537L232.006516,611.546021L232.466873,611.832092L232.974182,612.022949L233.508957,612.111084L234.050735,612.093201L234.578644,611.970032L235.072235,611.746216L235.512772,611.430420L312.870422,546.506714L313.651825,545.639038L314.209656,544.613159L314.513336,543.485657L314.546051,542.318481L314.306030,541.175720L313.806549,540.120239L245.906754,437.393982L245.671753,437.089722L245.381866,436.837097L245.048218,436.645874L244.683777,436.523560L244.302353,436.474548L243.918747,436.500916L243.547668,436.601624L243.203430,436.772827L242.899200,437.007874L242.646561,437.297791L242.455383,437.631287L242.332977,437.995850L242.283997,438.377258L242.310379,438.760803L242.411041,439.131897L242.582245,439.476074L303.116486,541.815125z" fill="#000000" stroke="none" fill-opacity="1" />
				<polygon points="119.688263,488.503723 186.657883,451.849243 244.916794,433.933716 245.895142,574.427856 338.227325,483.546326 466.512299,560.700745 556.512939,418.682068 616.015625,447.583740 527.299255,628.829468 491.034393,786.362183 459.265228,815.502563 456.818756,774.067627 432.053802,841.234741 353.136688,794.617188 298.303680,874.962158 221.637787,658.991333 171.136505,575.623169" fill="#EFACD4" stroke="none" fill-opacity="1" />
				<path d="M116.413589,482.520630L115.241257,483.332153L114.263138,484.369812L113.522186,485.588135L113.050751,486.933838L112.869408,488.348145L112.986084,489.769287L113.395668,491.135071L114.080254,492.385864L115.009918,493.466980L116.144081,494.331299L117.433144,494.940796L118.820801,495.269043L120.246330,495.301514L121.647491,495.036926L122.963043,494.486816L187.783066,454.513977L242.834869,436.772705L242.692627,574.450134L242.769638,575.126160L242.987595,575.770630L243.336929,576.354553L243.801666,576.851440L244.360870,577.239014L244.989334,577.499695L245.658646,577.621704L246.338654,577.599609L246.998749,577.434326L247.608948,577.133423L248.141785,576.710327L338.759338,488.033630L464.179474,564.579590L465.086700,564.996704L466.063324,565.204773L467.061829,565.193604L468.033539,564.963745L468.931274,564.526428L469.711243,563.902954L470.335541,563.123657L557.768799,423.101074L611.066772,449.288330L523.747803,627.091187L488.445068,784.854004L462.524872,807.453369L459.636505,773.901306L459.539948,773.317627L459.323914,772.766968L458.997803,772.273438L458.576019,771.858643L458.077057,771.540894L457.522827,771.334167L456.937683,771.247437L456.347290,771.284546L455.777588,771.443970L455.253693,771.718506L454.798462,772.096313L454.432007,772.560669L454.170288,773.091187L429.637604,834.447266L354.567291,792.195312L354.017426,791.945801L353.427063,791.819397L352.823303,791.821899L352.233948,791.953125L351.686188,792.207214L351.205261,792.572266L350.813293,793.031616L299.126282,868.614380L222.285751,658.761292L174.562973,573.573669L125.561317,485.035400L124.771782,483.956238L123.787025,483.051941L122.644676,482.357056L121.388687,481.898438L120.067352,481.693665L118.731476,481.750549L117.432404,482.066956L116.220016,482.630737L115.140839,483.420227L114.236526,484.405029L113.541641,485.547363L113.082954,486.803345L112.878166,488.124634L112.935104,489.460510L113.251472,490.759644L113.815331,491.971985L167.698685,577.653320L221.013275,659.287537L295.571808,875.931946L295.849640,876.505127L296.245819,877.003784L296.741364,877.403931L297.312256,877.686157L297.931061,877.836975L298.567871,877.848938L299.191986,877.721558L299.773102,877.460938L300.283356,877.079712L300.698029,876.596252L353.974670,798.379272L429.706482,845.208313L430.625366,845.623169L431.612366,845.828613L432.620483,845.814880L433.601532,845.582520L434.508636,845.142700L435.298676,844.516357L435.933899,843.733459L436.383881,842.831299L454.796722,787.711243L455.543427,815.722290L455.666046,816.475098L455.939178,817.187134L456.351593,817.828674L456.885864,818.372925L457.519745,818.797058L458.226654,819.083313L458.976959,819.219727L459.739410,819.200623L460.481995,819.026733L461.173645,818.705444L461.785522,818.250122L492.968872,788.471191L493.507355,787.802429L493.823212,787.004150L531.050476,630.159546L619.334900,449.208435L619.613586,448.427551L619.711060,447.604126L619.622620,446.779724L619.352661,445.995850L618.914673,445.291870L618.330627,444.703186L617.630249,444.259521L558.009766,415.600159L557.224243,415.330444L556.396851,415.257751L555.576355,415.386292L554.810669,415.708557L554.145264,416.205505L553.618774,416.847961L465.055878,554.542969L340.067963,480.485962L339.356293,480.158325L338.590332,479.993591L337.806976,480.000000L337.043762,480.177002L336.337524,480.516174L335.722229,481.001160L249.044952,566.833679L247.018372,433.919067L246.970535,433.487671L246.835098,433.075256L246.617828,432.699402L246.327957,432.376282L245.977936,432.119629L245.582657,431.940308L245.158829,431.846008L244.724808,431.840820L244.299026,431.924927L185.811981,449.098755z" fill="#000000" stroke="none" fill-opacity="1" />
				<polyline points="189.482574,619.234253 264.806274,570.660706 288.493652,566.987366 331.665985,585.307983 366.359070,627.669800 391.777100,665.089111 407.340088,728.103271 407.634247,771.627075 374.904602,732.114746 334.735748,687.032104 314.574341,674.087646 325.138641,722.173462 340.882111,786.047913 340.286926,825.354980 312.525604,778.807007 273.965210,730.316650 257.567780,698.283447 275.886322,734.063110 293.308594,766.229858 312.060852,797.646362 329.106628,852.002991 265.500580,803.685791 204.263123,726.137085 185.880829,660.127441" fill="#ADBF6F" stroke="none" fill-opacity="1" />
				<path d="M189.272858,618.908936L189.213409,618.956177L189.164261,619.014038L189.127396,619.080322L189.104233,619.152527L189.095581,619.227905L189.101776,619.303589L189.122604,619.376526L189.157333,619.443970L189.204483,619.503418L189.262329,619.552490L189.328705,619.589355L189.400864,619.612549L189.476227,619.621216L189.551865,619.615051L189.624878,619.594238L189.692276,619.559509L266.131897,574.147583L287.918243,571.614014L327.578217,590.764526L360.636139,631.943726L386.717438,667.345032L404.003021,728.520691L404.768463,763.758484L377.483551,729.978516L338.288422,683.866577L317.011902,670.291016L316.148590,669.859375L315.213135,669.621338L314.248566,669.587646L313.298889,669.759888L312.407471,670.130249L311.615295,670.681763L310.958588,671.389160L310.467285,672.220032L310.164032,673.136353L310.062592,674.096252L310.167664,675.055786L320.657623,723.157898L337.994904,786.376343L337.624969,815.401123L315.302063,777.151123L278.613220,727.321289L258.182098,699.482727L270.918335,736.606628L289.734894,768.165405L309.356415,798.857300L322.800720,843.028809L267.530365,801.617615L207.637772,724.422913L186.938599,659.832886L186.860779,659.632202L186.745377,659.450500L186.596649,659.294861L186.420547,659.171143L186.223511,659.084290L186.013474,659.037476L185.798264,659.032532L185.586273,659.069702L185.385529,659.147461L185.203857,659.262939L185.048218,659.411621L184.924561,659.587769L184.837646,659.784668L184.790787,659.994812L184.785919,660.209961L184.822998,660.421997L200.688339,727.132629L201.350845,728.436768L263.244385,805.467407L327.091309,854.656006L327.689728,855.018433L328.350616,855.247742L329.044800,855.334106L329.741760,855.273621L330.410675,855.068848L331.022156,854.729004L331.549103,854.268921L331.968445,853.708923L332.261627,853.073730L332.415619,852.391357L332.423798,851.691833L332.285675,851.006042L314.868866,796.765686L296.841827,764.219666L280.824707,731.462036L258.767212,697.669312L258.613342,697.433350L258.413757,697.234497L258.177155,697.081543L257.913940,696.981079L257.635620,696.937561L257.354462,696.952881L257.082428,697.026245L256.831696,697.154663L256.613159,697.332336L256.436218,697.551636L256.308807,697.802856L256.236420,698.075073L256.222229,698.356445L256.266815,698.634521L256.368256,698.897400L269.067230,732.823853L309.860382,780.649292L337.871552,826.795532L338.204224,827.244873L338.619232,827.619507L339.100159,827.904602L339.627960,828.088989L340.181793,828.165344L340.739868,828.130615L341.279968,827.986145L341.780823,827.737671L342.222687,827.395081L342.587982,826.971863L342.862427,826.484741L343.034912,825.952942L343.098969,825.397583L343.763702,786.091553L329.607300,721.132019L321.323730,683.782654L331.616577,690.684082L372.364197,734.297485L405.468292,773.421204L405.878265,773.824036L406.361511,774.135132L406.897949,774.341492L407.465118,774.434448L408.039368,774.410217L408.596710,774.269775L409.113861,774.018921L409.569214,773.668213L409.943726,773.232178L410.221832,772.729187L410.391846,772.180176L410.446625,771.607971L410.679871,728.080688L397.071075,663.781616L372.261719,623.660339L336.787476,581.113647L334.251984,579.214111L290.245270,562.859741L289.047089,562.537781L287.806549,562.556458L264.247040,567.054993L262.828857,567.594177z" fill="#000000" stroke="none" fill-opacity="1" />
				<polygon points="618.621155,669.420349 575.750061,721.957642 536.206177,770.050171 471.315308,808.145813 510.289062,755.112183 542.005249,703.179016 550.412659,684.805359 536.977722,702.307617 505.025940,738.311401 456.242706,778.555969 465.398712,745.646851 506.129608,685.004150 513.984619,675.242920 528.667969,656.481323 521.952332,658.278931 495.157379,666.732910 452.230682,685.156738 417.414154,707.700867 421.703064,688.690308 450.995453,633.943848 517.259583,588.292786 533.832764,582.310913 559.427612,585.260376 601.574951,612.218262 610.098022,640.819336" fill="#ADBF6F" stroke="none" fill-opacity="1" />
				<path d="M623.525269,673.422180L624.211792,672.388550L624.683411,671.240845L624.922180,670.023193L624.918579,668.782349L624.673157,667.566040L624.195129,666.420959L623.502869,665.391174L622.623047,664.516235L621.589355,663.829712L620.441650,663.358032L619.223999,663.119385L617.983154,663.122864L616.766846,663.368347L615.621765,663.846436L614.591858,664.538635L613.717041,665.418457L573.407715,720.038940L534.578125,768.143677L483.930603,796.766113L512.555481,756.777710L544.583557,704.753601L554.378235,686.619873L554.667786,685.760620L554.773254,684.860107L554.690430,683.957214L554.422485,683.090942L553.981323,682.298828L553.385925,681.614990L552.661987,681.069153L551.840759,680.684814L550.957825,680.478516L550.051270,680.459351L549.160400,680.628052L548.323608,680.977234L547.577087,681.491943L546.953308,682.149902L534.658997,700.392822L503.055847,736.268921L461.400177,770.618164L467.997131,746.843018L508.655670,686.863525L517.314514,677.922485L532.713989,659.647766L533.280701,658.743896L533.648499,657.742432L533.801636,656.686523L533.733337,655.621826L533.446655,654.594116L532.953857,653.647888L532.276245,652.823792L531.443054,652.157349L530.490173,651.677490L529.458740,651.404663L528.393188,651.350830L527.339539,651.518250L520.747925,653.779785L494.082092,663.324829L450.747925,681.702026L423.257843,699.322632L425.736633,690.192932L454.145447,636.759521L519.153442,591.976929L534.322449,586.520142L557.882507,589.601929L595.559021,616.750793L603.682129,642.731262L612.555054,671.228027L613.024292,672.376709L613.708496,673.411865L614.581726,674.293579L615.609985,674.987976L616.754028,675.468445L617.969849,675.716431L619.210632,675.722534L620.428833,675.486450L621.577576,675.017212L622.612610,674.332886L623.494385,673.459839L624.188782,672.431519L624.669250,671.287476L624.917236,670.071655L624.923401,668.830811L624.687195,667.612671L616.513977,638.907349L608.340698,610.202087L607.213440,607.970032L605.378784,606.270996L561.846741,581.478027L559.941589,580.799988L534.305054,578.212524L532.432129,578.430420L515.864868,584.428528L448.666199,630.562805L447.375336,632.006897L417.942169,686.678101L413.652130,706.852051L413.557678,707.675110L413.641144,708.499207L413.898651,709.286560L414.318420,710.000732L414.880951,710.608765L415.560364,711.082642L416.325348,711.400513L417.140533,711.547607L417.968292,711.517334L418.770538,711.310913L419.510223,710.937988L454.006378,688.485840L496.402954,670.087280L523.255798,662.751526L524.382141,659.314697L510.636627,672.585815L503.688232,683.039490L463.054443,744.072266L453.505554,777.794434L453.406738,778.384521L453.433746,778.982300L453.585388,779.561157L453.854767,780.095398L454.230133,780.561340L454.694763,780.938354L455.228058,781.209717L455.806335,781.363342L456.403931,781.392517L456.994446,781.295776L457.551605,781.077576L458.050751,780.747559L506.826324,740.493835L539.225586,704.302429L548.163391,688.541626L539.333130,701.758179L507.951508,753.543579L468.554016,806.116577L468.191132,806.738098L467.966003,807.421631L467.888641,808.137207L467.962433,808.853027L468.184113,809.537842L468.543945,810.161072L469.025970,810.695496L469.609039,811.117432L470.267334,811.408325L470.971893,811.555237L471.691589,811.551758L472.394653,811.398010L473.050171,811.100891L537.455750,772.178833L578.088806,723.880737z" fill="#000000" stroke="none" fill-opacity="1" />
			</g>
		</g>
	</g>
</svg>
