<?xml version="1.0" encoding="UTF-8"?>
<!-- Generator: Blender, SVG Export for Grease Pencil - v2.0 -->
<!DOCTYPE svg PUBLIC "-//W3C//DTD SVG 1.1//EN" "http://www.w3.org/Graphics/SVG/1.1/DTD/svg11.dtd">
<svg version="1.1" x="0px" y="0px" xmlns="http://www.w3.org/2000/svg" width="1920.000000px" height="1080.000000px" viewBox="0 0 1920.000000 1080.000000">
	<g id="blender_frame.13">
		<g id="blender_object.Stroke.13.uuid_0x0">
			<g id="layer.Fills.uuid_0x1" />
			<g id="layer.black.uuid_0x2" />
			<g id="layer.skin.uuid_0x3" />
			<g id="layer.yella.uuid_0x4" />
			<g id="layer.red.uuid_0x5">
				<polyline points="264.385590,696.215271 233.466629,800.310852 182.373779,777.175781 137.703720,772.187744 178.284302,776.672791 318.780609,844.533569 576.332581,956.810608 382.823059,954.830261 84.756256,888.045166 14.776440,820.308777 22.820663,793.875488 175.113327,707.474609" fill="#879F4C" stroke="none" fill-opacity="1" />
				<path d="M269.016968,697.590881L269.196350,696.660950L269.190857,695.713867L269.000702,694.786072L268.633179,693.913208L268.102417,693.128723L267.428925,692.462891L266.638336,691.941284L265.761292,691.583984L264.831329,691.404541L263.884216,691.410095L262.956390,691.600220L262.083496,691.967712L261.299103,692.498474L260.633301,693.171997L260.111664,693.962524L259.754333,694.839600L231.620010,796.267700L183.597107,774.474121L138.984207,772.329956L177.480408,779.467957L317.557312,847.066345L558.104187,952.912720L383.257874,951.077209L86.206223,885.357666L20.999851,818.698914L27.543238,797.656250L177.430527,711.558960L178.182739,711.028442L178.817139,710.361328L179.309067,709.583313L179.639801,708.724243L179.796585,707.817139L179.773468,706.896851L179.571259,705.998840L179.197601,705.157471L178.667038,704.405151L177.999985,703.770874L177.221893,703.278809L176.362900,702.948120L175.455780,702.791321L174.535507,702.814453L173.637482,703.016724L172.796173,703.390381L20.048161,788.988403L18.912678,789.838440L18.026276,790.945679L17.445374,792.239685L9.529037,818.711914L9.292603,820.192871L9.466152,821.682495L10.036755,823.069458L10.961609,824.249939L82.711716,890.157349L84.113449,890.913635L382.001617,958.496704L576.294617,960.521606L577.072021,960.447388L577.816650,960.212097L578.495667,959.826233L579.078796,959.306824L579.540344,958.676880L579.859863,957.964233L580.023193,957.200500L580.023071,956.419556L579.859558,955.655884L579.539795,954.943420L579.078003,954.313538L578.494690,953.794312L577.815613,953.408630L319.954651,841.977112L179.531021,774.091553L137.845230,770.907166L137.576019,770.905701L137.312332,770.960266L137.065826,771.068420L136.847076,771.225464L136.665741,771.424561L136.529846,771.656921L136.445099,771.912476L136.415405,772.180054L136.441895,772.447998L136.523605,772.704529L136.656708,772.938477L136.835693,773.139771L137.052444,773.299438L137.297745,773.410400L137.560730,773.468140L181.578140,780.070984L232.261551,802.972168L232.852539,803.166992L233.471436,803.232300L234.090057,803.165039L234.680389,802.968262L235.215683,802.650879L235.671570,802.227295L236.027527,801.716858L236.267181,801.142639z" fill="#000000" stroke="none" fill-opacity="1" />
				<polyline points="509.103729,775.611572 442.343719,830.918213 426.999054,812.389465 407.485626,696.319031 695.000793,678.490295 706.930176,697.897522 671.474976,818.784058 414.978241,967.762024 276.014954,1025.890015 251.683441,1025.611084 194.170593,981.531921 189.047913,937.596313 231.549225,914.445251 310.863708,891.881226 331.435364,899.932129 509.055634,776.883240 567.682495,736.381104" fill="#879F4C" stroke="none" fill-opacity="1" />
				<path d="M510.868256,777.741638L511.249939,777.356445L511.549194,776.904175L511.754395,776.402222L511.857605,775.869934L511.855194,775.327637L511.746918,774.796326L511.537048,774.296387L511.233795,773.846924L510.848572,773.465210L510.396332,773.166077L509.894348,772.960876L509.362000,772.857544L508.819794,772.860046L508.288422,772.968323L507.788452,773.178101L507.338989,773.481445L442.878326,825.225647L430.169281,810.938965L410.786865,698.940674L691.648071,684.948303L700.183594,698.799683L668.125427,816.157715L413.184052,964.151489L274.982971,1020.591675L253.191666,1021.246216L198.028564,979.341064L192.210846,939.234802L232.624466,917.076233L310.552185,898.375183L329.364258,905.224182L330.708160,905.568237L332.095398,905.576538L333.443268,905.248474L334.671478,904.603577L510.631744,779.161377L568.352966,737.351562L568.529297,737.202148L568.673279,737.021118L568.779053,736.815552L568.842773,736.593323L568.861938,736.362854L568.835693,736.133118L568.765076,735.912964L568.652954,735.710693L568.503479,735.534302L568.322510,735.390381L568.117004,735.284546L567.894653,735.220886L567.664246,735.201782L567.434509,735.228027L567.214294,735.298584L567.012085,735.410767L507.481049,774.604065L330.687500,893.536987L313.108978,886.144104L311.158966,885.727478L309.177917,885.955566L230.776230,911.728333L187.635956,935.004028L187.065414,935.409241L186.606400,935.937317L186.284409,936.558655L186.117844,937.238403L186.115952,937.938171L190.112228,982.005127L190.380768,983.058838L190.917725,984.004395L191.685104,984.774780L249.017883,1029.088989L250.252304,1029.752686L251.633209,1029.992676L275.954346,1031.175781L278.054871,1030.766724L416.530792,971.473511L673.460571,822.202515L674.253296,821.596436L674.869080,820.811157L675.268494,819.896606L712.898682,699.648071L713.149963,697.937866L712.920898,696.224487L712.229065,694.640381L700.315247,675.223633L699.249573,673.922791L697.875122,672.953857L696.291809,672.387207L694.614746,672.264160L407.311066,693.503540L406.729492,693.601318L406.181091,693.817932L405.689575,694.143799L405.276581,694.564697L404.960114,695.062256L404.754028,695.614807L404.667328,696.198120L404.703766,696.786743L423.678772,812.947632L424.405914,814.536987L439.230194,833.496704L439.882111,834.125000L440.657501,834.592407L441.517487,834.875488L442.418793,834.960144L443.316498,834.842102L444.165314,834.527222L444.922760,834.031372z" fill="#000000" stroke="none" fill-opacity="1" />
				<polyline points="618.169312,939.055542 652.247070,905.144592 617.270874,861.865845 589.957825,857.311890 557.962341,873.079956 526.298340,906.426697" fill="#879F4C" stroke="none" fill-opacity="1" />
				<path d="M615.907776,936.782776L615.507751,937.267700L615.210144,937.821228L615.026184,938.422241L614.963013,939.047668L615.023132,939.673279L615.204163,940.275269L615.499084,940.830322L615.896667,941.317139L616.381531,941.717041L616.935059,942.014771L617.536133,942.198608L618.161438,942.261780L618.787109,942.201721L619.389038,942.020752L619.944092,941.725830L620.430908,941.328247L656.002625,908.918579L656.804688,907.896851L657.335449,906.711243L657.563477,905.432373L657.474854,904.136414L657.075134,902.900391L656.388000,901.798096L620.893250,858.938416L619.617920,857.843140L618.036926,857.271912L590.498535,854.069153L589.478394,854.059509L588.504517,854.363037L556.664551,870.446411L523.628174,903.891296L523.184875,904.460938L522.861206,905.106079L522.669678,905.802063L522.617432,906.521973L522.706726,907.238281L522.934143,907.923340L523.290710,908.550903L523.762878,909.096863L524.332581,909.540222L524.977783,909.863892L525.673706,910.055481L526.393555,910.107605L527.109924,910.018311L527.794983,909.790955L528.422607,909.434326L528.968506,908.962158L559.730408,875.481689L590.461426,860.728760L614.760254,866.169006L645.088318,904.757080z" fill="#000000" stroke="none" fill-opacity="1" />
				<polyline points="214.830078,303.854492 163.253799,525.766174 120.747299,538.940186 104.438843,542.645264 83.781570,541.604919 110.457062,513.334167 101.577133,516.369873 72.542671,525.926575 39.119511,532.186218 29.712124,497.674194 27.682800,436.568115 35.326252,403.152405 59.513573,352.072449 36.174316,373.159546 6.788807,390.943665 20.032368,349.292725 40.506306,311.202576 55.367146,295.863831 84.631859,285.522522 70.166527,274.252563 58.050671,261.171997 52.090759,250.064453 48.239880,239.001038 74.714302,250.315247 93.348999,253.396667 112.837196,252.360474 134.990906,251.282104 179.070801,243.074280" fill="#879F4C" stroke="none" fill-opacity="1" />
				<path d="M217.622269,304.503357L217.695236,303.946167L217.658112,303.385559L217.512192,302.842834L217.263336,302.339050L216.920944,301.893372L216.498184,301.523132L216.011307,301.242493L215.478973,301.062317L214.921814,300.989319L214.361069,301.026489L213.818375,301.172302L213.314621,301.421204L212.869034,301.763611L212.498749,302.186340L212.218094,302.673279L212.037918,303.205505L160.476547,523.182434L119.819016,535.478210L104.120232,538.972717L92.395477,538.143921L113.917244,516.599182L114.507805,515.828979L114.929810,514.955078L115.165619,514.013733L115.205612,513.044067L115.047859,512.086426L114.699158,511.180786L114.173866,510.364746L113.493858,509.672302L112.687622,509.132202L111.788460,508.766907L110.833908,508.591736L109.863686,508.613953L108.918167,508.832581L100.089622,511.936096L71.456627,521.700806L42.480240,526.822876L34.745350,496.915283L33.245373,437.102905L40.347977,404.892395L63.191360,353.813904L63.474945,353.003601L63.582058,352.151733L63.508240,351.296448L63.256477,350.475586L62.838192,349.725830L62.271885,349.080566L61.582890,348.568420L60.801601,348.212280L59.963150,348.027954L59.104614,348.023621L58.264332,348.199524L57.479553,348.547791L56.785351,349.052917L33.374691,369.395264L16.155567,379.052673L24.498882,351.183899L43.940334,313.713806L57.478180,299.153992L85.713562,288.583557L86.338982,288.283997L86.886459,287.858398L87.331184,287.326355L87.652649,286.711914L87.836380,286.043213L87.873856,285.350830L87.763428,284.666199L87.510170,284.020691L87.125473,283.443665L86.627197,282.961487L72.522186,271.686951L61.121239,258.980774L55.675453,248.490540L55.045799,246.292908L73.315605,253.588196L92.787720,256.790649L113.010414,255.761841L135.147690,254.504395L179.470306,245.219543L179.881042,245.100342L180.260757,244.903442L180.594803,244.636108L180.870148,244.308716L181.076431,243.933960L181.205582,243.526245L181.252731,243.101135L181.216049,242.674927L181.096863,242.264099L180.899902,241.884338L180.632584,241.550415L180.305267,241.274963L179.930481,241.068726L179.522720,240.939575L179.097580,240.892395L178.671402,240.929138L134.615479,248.070618L112.671661,248.958740L93.540520,249.941528L75.718285,246.873779L49.823856,235.294800L49.016647,235.046082L48.175220,234.971069L47.336655,235.072998L46.537685,235.347595L45.813675,235.782654L45.196095,236.358948L44.712296,237.051392L44.383392,237.829468L44.223862,238.658997L44.240742,239.503540L44.433346,240.326050L48.404789,251.347412L54.753742,262.940979L67.619652,276.611572L77.957214,284.437805L54.099194,292.275757L52.634068,293.215820L37.479916,308.270508L15.778199,347.006042L1.715755,389.330627L1.495342,390.380737L1.489964,391.453735L1.699905,392.505981L2.116642,393.494751L2.723064,394.379822L3.494797,395.125427L4.400253,395.701050L5.402927,396.083374L6.461620,396.256958L7.533817,396.214539L8.575745,395.958130L9.545002,395.497864L38.592281,377.154846L47.105713,368.767395L30.551149,400.891357L22.280560,435.332520L24.659271,497.842041L34.630337,533.409851L34.990082,534.330505L35.536251,535.154297L36.243954,535.844299L37.081604,536.369080L38.011093,536.705200L38.990650,536.837341L39.976044,536.759583L73.344040,530.205627L103.039345,520.812012L106.456657,515.909119L80.952362,538.935303L80.464149,539.573792L80.117569,540.298889L79.927368,541.079834L79.901680,541.883057L80.041634,542.674561L80.341354,543.420349L80.787796,544.088562L81.362175,544.650818L82.039780,545.083069L82.791656,545.366821L83.585983,545.489929L104.255219,546.292480L121.540771,542.432739L164.227753,528.908691L165.004181,528.551941L165.662613,528.007141L166.158432,527.311157L166.458374,526.510986z" fill="#000000" stroke="none" fill-opacity="1" />
				<polygon points="397.823944,88.620361 397.769562,69.736816 402.697205,51.343872 409.828674,39.354126 425.965454,52.334595 417.396423,60.440369 404.385590,78.440979" fill="#879F4C" stroke="none" fill-opacity="1" />
				<path d="M395.278473,88.627563L395.328827,89.124084L395.475006,89.601196L395.711578,90.040649L396.029175,90.425415L396.415833,90.740845L396.856628,90.974915L397.334503,91.118347L397.831268,91.165894L398.327667,91.115479L398.804810,90.969177L399.244263,90.732727L399.629028,90.415100L399.944519,90.028442L400.178406,89.587708L400.321930,89.109741L400.369446,88.613098L399.637543,69.979858L405.197479,52.398438L410.645081,43.882080L421.880768,52.498535L416.294006,59.274902L403.237000,77.610840L395.684479,87.241272L395.456482,87.685059L395.319550,88.165039L395.278839,88.662415L395.335938,89.158020L395.488647,89.633118L395.731049,90.069336L396.053925,90.449768L396.444824,90.759949L396.888702,90.987793L397.368591,91.124695L397.865936,91.165405L398.361633,91.108398L398.836700,90.955688L399.272858,90.713257L399.653290,90.390442L399.963440,89.999512L405.556305,79.240601L418.608337,61.502258L427.812592,54.287354L428.184082,53.851929L428.455017,53.348022L428.613098,52.797852L428.651215,52.226929L428.567505,51.660767L428.365906,51.125244L428.055450,50.644287L427.650238,50.240112L411.719360,37.003662L411.177124,36.655884L410.573517,36.431030L409.935883,36.339478L409.293396,36.385376L408.675262,36.566895L408.109772,36.875366L407.622650,37.296753L407.236115,37.812012L400.386993,49.969849L395.965942,69.253662z" fill="#000000" stroke="none" fill-opacity="1" />
				<polyline points="114.220444,253.993835 134.936142,252.523926 184.146149,245.422913 208.292755,290.217957 203.493988,339.314453 140.443039,289.457825 142.332169,281.662659 97.789986,269.961792 112.837196,252.360474" fill="#ACBF6E" stroke="none" fill-opacity="1" />
				<polygon points="411.828522,94.025940 417.319061,81.533325 426.704071,66.879578 441.573517,54.033203 453.464935,49.811279 448.950653,91.972717 439.243256,91.137268 424.381927,94.746643" fill="#879F4C" stroke="none" fill-opacity="1" />
				<path d="M409.584503,93.039612L409.435211,93.496399L409.377899,93.973511L409.414734,94.452576L409.544403,94.915344L409.761749,95.343750L410.058563,95.721802L410.423462,96.034363L410.842285,96.269958L411.299072,96.419250L411.776154,96.476440L412.255219,96.439636L412.717957,96.309998L413.146454,96.092712L413.524384,95.795837L413.837036,95.430908L414.072601,95.012085L418.396454,82.110596L428.043732,68.040161L443.387085,57.151001L448.976959,55.497559L447.614655,90.351135L439.465271,88.557739L424.148438,92.172302L411.969086,91.578552L411.457214,91.602905L410.961578,91.733093L410.503784,91.963440L410.103943,92.283997L409.779449,92.680542L409.544525,93.136047L409.409393,93.630310L409.380066,94.141907L409.457642,94.648376L409.638947,95.127930L409.915955,95.559021L410.276459,95.923157L410.704803,96.204407L411.182281,96.390503L411.688019,96.473145L424.235382,97.299255L439.443024,93.753235L448.821960,93.468079L449.153534,93.459900L449.475220,93.379028L449.771271,93.229553L450.027222,93.018494L450.230682,92.756470L450.371521,92.456238L450.443054,92.132446L457.300110,50.222046L457.295441,49.358765L457.098785,48.518188L456.720123,47.742188L456.178406,47.070068L455.500793,46.535278L454.721100,46.164429L453.878479,45.976562L453.015228,45.980591L452.174408,46.176514L440.387482,50.692383L439.255920,51.350708L425.557312,65.552185L416.292755,80.876099z" fill="#000000" stroke="none" fill-opacity="1" />
				<polyline points="206.997131,276.081665 207.176285,288.857605 199.257370,291.087830 191.101273,277.951416 186.159256,263.418091 180.784836,241.110291 193.412476,226.208862" fill="#25067F" stroke="none" fill-opacity="1" />
				<path d="M210.040344,276.038940L209.973526,275.446106L209.792343,274.877686L209.503784,274.355469L209.118805,273.899536L208.652344,273.527588L208.122314,273.253784L207.548965,273.088562L206.954453,273.038452L206.361526,273.105286L205.793091,273.286438L205.270889,273.575012L204.815079,273.959961L204.443039,274.426453L204.169235,274.956421L204.004028,275.529724L203.953873,276.124329L204.088837,286.553528L200.628677,287.555725L193.841629,276.655579L188.792023,262.655090L183.072968,241.653992L194.600082,227.215210L194.773575,226.964172L194.894775,226.684143L194.959015,226.385925L194.963837,226.080750L194.908966,225.780518L194.796707,225.496887L194.631210,225.240417L194.418869,225.021240L194.167801,224.847900L193.887802,224.726562L193.589447,224.662354L193.284348,224.657532L192.984253,224.712341L192.700470,224.824707L192.444077,224.990173L192.224976,225.202576L179.184784,239.754456L178.913223,240.164001L178.744415,240.625549L178.687592,241.113586L178.745956,241.601562L183.497269,264.059448L188.250046,278.920959L196.684784,292.685120L197.177353,293.288513L197.807541,293.746338L198.533524,294.028198L199.307556,294.115479L200.078262,294.002563L208.004395,291.798035L208.621674,291.548767L209.170471,291.171692L209.624405,290.684631L209.962051,290.110779L210.167496,289.477539L210.230728,288.814758z" fill="#000000" stroke="none" fill-opacity="1" />
				<polyline points="375.790955,571.676758 503.341370,688.902405 530.224365,651.521118 537.404236,621.856079 521.212036,579.994873 489.149109,546.901855 369.256744,381.452026 362.266571,377.721558 300.604065,356.580811 277.597504,430.151917" fill="#ADBF6F" stroke="none" fill-opacity="1" />
				<path d="M379.718506,567.403259L378.809357,566.719116L377.784149,566.225525L376.682312,565.941406L375.546356,565.877747L374.419678,566.036804L373.345825,566.412720L372.365723,566.990906L371.517517,567.749146L370.833313,568.658325L370.339722,569.683594L370.055634,570.785278L369.991882,571.921387L370.151093,573.047974L370.527008,574.121948L371.105194,575.101868L371.863403,575.950195L501.341064,691.078918L501.842072,691.450012L502.409821,691.707825L503.019012,691.840820L503.642456,691.843079L504.252655,691.714539L504.822235,691.460815L505.325897,691.093323L505.741302,690.628296L535.782715,655.518433L536.878723,653.131714L545.922791,623.917847L546.149841,621.279663L545.578491,618.694214L527.976257,577.378357L526.420898,574.948120L492.918121,543.737976L373.710358,378.224792L371.846283,376.599792L365.398071,371.853577L301.823669,353.023499L300.986938,352.839783L300.130402,352.850220L299.298431,353.054199L298.534180,353.441101L297.877350,353.991089L297.361969,354.675293L297.014862,355.458435L273.765869,428.953735L273.605743,429.724243L273.598999,430.511230L273.745941,431.284424L274.040863,432.014038L274.472534,432.672058L275.024200,433.233337L275.674866,433.676147L276.399323,433.983582L277.169800,434.143677L277.956787,434.150391L278.729950,434.003479L279.459503,433.708557L280.117676,433.276917L280.678894,432.725220L281.121643,432.074646L281.429047,431.350159L303.039948,361.391418L359.605194,383.840454L365.547699,385.706909L485.174591,549.781921L514.978760,583.984375L528.240479,622.459961L523.884766,648.610046L502.887482,684.470459z" fill="#000000" stroke="none" fill-opacity="1" />
				<polyline points="256.848450,503.559387 214.654999,366.965210 156.473404,352.950562 100.119263,375.300720 98.044792,415.304688 116.554237,655.693359 134.268555,756.105469 182.232056,794.857544 173.559555,728.278442 209.131454,772.324707 242.326309,681.381836" fill="#ADBF6F" stroke="none" fill-opacity="1" />
				<path d="M252.973938,504.756226L253.281845,505.489075L253.726791,506.147888L254.291840,506.707092L254.955093,507.145447L255.691055,507.445923L256.471497,507.597046L257.266449,507.593018L258.045349,507.433960L258.778198,507.126099L259.436920,506.681030L259.996246,506.116028L260.434509,505.452820L260.735016,504.716858L260.886169,503.936401L260.882111,503.141418L260.723022,502.362610L216.051361,366.533936L215.894577,366.190979L215.655273,365.899719L215.349380,365.679260L214.997238,365.544434L157.132187,350.215393L156.274857,350.144104L155.436172,350.335327L98.660263,371.622131L97.865692,372.047668L97.187973,372.642090L96.662346,373.374512L96.316170,374.206787L96.167213,375.095825L95.093994,415.151672L113.911972,655.896851L130.597626,756.753174L131.057800,757.999390L131.925888,759.005066L179.774261,797.899536L180.484543,798.356323L181.276413,798.649902L182.112747,798.766602L182.954697,798.701050L183.763000,798.456299L184.499817,798.043823L185.130905,797.482666L185.626892,796.799194L185.964600,796.025146L186.128265,795.196655L186.110168,794.352295L179.667892,742.548828L205.853165,774.972290L206.481125,775.600708L207.226868,776.083618L208.057236,776.399414L208.935471,776.534058L209.822327,776.481567L210.678452,776.244324L211.465927,775.832886L212.149597,775.265503L212.699036,774.567383L213.089890,773.769531L246.284698,682.826721L246.490585,682.026733L246.536346,681.201965L246.420303,680.384033L246.147018,679.604553L245.726868,678.893311L245.175995,678.277710L244.515671,677.781372L243.771133,677.423462L242.971130,677.217651L242.146286,677.171875L241.328430,677.287842L240.548904,677.561218L239.837723,677.981384L239.222076,678.532227L238.725815,679.192566L238.367859,679.937012L207.728058,763.880005L176.837830,725.630920L176.248627,725.034119L175.552765,724.565796L174.778000,724.244568L173.954941,724.083191L173.116211,724.088013L172.295090,724.258789L171.524048,724.588745L170.833694,725.065002L170.251236,725.668518L169.799881,726.375488L169.497467,727.157715L169.355911,727.984497L169.380966,728.822754L177.092285,785.677002L137.697083,754.083252L119.186562,655.360596L101.005501,415.267639L103.939766,378.042786L156.681580,355.894531L213.504196,368.191223z" fill="#000000" stroke="none" fill-opacity="1" />
				<polyline points="205.660904,305.856384 207.678909,276.823425 186.884125,184.153748 175.913773,177.112061 157.977219,165.073669 144.916473,146.563416 141.880646,130.301697 185.746994,145.765320 163.124252,117.702454 159.584137,97.344055 156.910172,61.623535 206.171555,92.447144 227.415161,97.488892 247.428528,99.590088 261.587616,96.408936 292.275452,94.724609 351.346375,96.651367 386.001831,97.419495 403.390686,100.825745 408.226044,113.561462 424.197388,167.190247 438.115601,219.795471 439.429810,230.643066 400.673004,290.862244 391.889191,306.991150 386.371643,316.558044 350.368134,306.674500 280.505157,287.497681 276.375885,322.910095" fill="#ADBF6F" stroke="none" fill-opacity="1" />
				<path d="M202.785141,305.656494L202.801376,306.221436L202.927551,306.772339L203.158737,307.287964L203.486069,307.748596L203.897034,308.136536L204.375732,308.436829L204.903900,308.638000L205.461044,308.732178L206.025925,308.716003L206.576782,308.589844L207.092453,308.358582L207.553040,308.031189L207.940979,307.620300L208.241333,307.141663L208.442459,306.613525L208.536774,306.056335L210.724182,277.035156L187.976547,183.908691L187.876907,183.636230L187.710632,183.398682L187.488953,183.211670L176.832565,175.712341L160.117554,162.882812L148.621506,144.999084L147.178757,136.487915L185.160309,147.429871L185.501007,147.513062L185.851593,147.527283L186.197952,147.471741L186.526505,147.348816L186.824341,147.163452L187.079544,146.922607L187.282120,146.636292L187.424011,146.315491L187.499710,145.972961L187.506134,145.622131L187.443008,145.277161L187.313004,144.951294L187.121017,144.657776L166.614929,116.121155L163.661331,96.838257L161.672516,69.510986L204.552612,95.034424L226.986465,99.295105L247.371643,100.131470L261.686798,97.123657L292.296539,96.620422L351.253815,99.490540L385.690918,100.292664L401.203278,103.419067L405.374176,114.526001L421.231415,168.024048L435.019012,220.389771L436.136688,229.887085L397.846008,289.042908L388.413361,305.042725L384.396454,311.751282L351.395233,302.933228L281.392761,284.263733L280.681305,284.148804L279.961700,284.188538L279.267212,284.381042L278.629822,284.717468L278.079132,285.182312L277.640472,285.754211L277.334045,286.406555L277.174255,287.109253L273.258575,322.546631L273.247620,323.161865L273.356781,323.767212L273.582001,324.339783L273.914612,324.857300L274.341827,325.300049L274.847076,325.651001L275.411224,325.896545L276.012421,326.027344L276.627502,326.038391L277.232941,325.929260L277.805511,325.703979L278.323059,325.371399L278.765778,324.944214L279.116760,324.438843L279.362244,323.874817L279.493103,323.273621L283.383698,291.765320L349.341156,310.415894L385.282990,320.523804L386.171631,320.665649L387.069916,320.610901L387.934753,320.362000L388.724640,319.930908L389.401947,319.338379L389.934143,318.612671L395.340698,308.981628L403.566589,292.578247L442.102478,232.363281L442.527588,231.354187L442.585083,230.260864L441.238464,219.417236L427.175507,166.402222L411.109436,112.702698L406.163025,99.773132L405.810242,99.111145L405.302643,98.558960L404.672729,98.151672L403.960724,97.915588L386.555328,94.593994L351.424133,93.811584L292.337189,92.831421L261.548126,95.690857L247.396378,99.039307L227.727646,95.655334L207.364883,89.593384L159.116882,58.096802L158.292221,57.699524L157.400726,57.492310L156.485367,57.484924L155.590668,57.677979L154.759766,58.062134L154.033066,58.618591L153.445526,59.320496L153.025757,60.133789L152.793961,61.019409L152.761459,61.934143L155.491959,97.650391L159.469131,118.338135L160.235886,120.030640L180.472580,142.034668L143.234650,126.460510L142.406555,126.262878L141.555359,126.241943L140.718445,126.398254L139.932343,126.725098L139.231339,127.208252L138.646088,127.826660L138.202240,128.553162L137.919098,129.356140L137.809067,130.200500L137.876877,131.049133L141.053925,147.284424L141.705948,148.828735L155.516281,166.810181L174.980804,178.502197L185.892502,184.847534L204.602753,277.056702z" fill="#000000" stroke="none" fill-opacity="1" />
				<polygon points="337.656616,302.303467 382.453461,257.898193 398.062103,295.387695 386.546936,318.189636 351.858978,304.777283" fill="#25067F" stroke="none" fill-opacity="1" />
				<path d="M334.991119,299.614502L334.517731,300.186157L334.164948,300.839172L333.946381,301.548584L333.870392,302.286865L333.939911,303.025879L334.152252,303.737061L334.499268,304.393188L334.967621,304.969055L335.539276,305.442444L336.192352,305.795166L336.901642,306.013794L337.640015,306.089722L338.378967,306.020264L339.090210,305.807922L339.746368,305.460938L340.322174,304.992615L382.453461,257.898193L394.272217,295.249146L384.551727,313.001160L353.256409,301.163086L338.306335,298.573425L337.566162,298.518311L336.829437,298.608704L336.124481,298.841064L335.478455,299.206482L334.916107,299.690979L334.459076,300.275818L334.124908,300.938599L333.926544,301.653809L333.871399,302.393982L333.961761,303.130737L334.194214,303.835632L334.559631,304.481689L335.044037,305.044067L335.628937,305.501099L336.291748,305.835205L337.006927,306.033691L350.817780,308.529114L385.061127,322.032349L386.038971,322.278076L387.047241,322.279053L388.025635,322.035034L388.915314,321.560730L389.663208,320.884460L390.224457,320.046875L401.137695,296.940918L401.451843,296.005493L401.487854,295.019348L401.242950,294.063416L382.453461,257.898193z" fill="#000000" stroke="none" fill-opacity="1" />
				<polygon points="277.259735,187.222046 310.445496,182.063965 330.105011,191.298218 325.248993,220.401245 329.094391,231.648560 297.919739,222.209961 282.497650,219.580750 258.898834,214.582825 259.485352,210.167480 255.564423,192.828857" fill="#25067F" stroke="none" fill-opacity="1" />
				<path d="M276.932831,185.118896L276.528870,185.223022L276.152985,185.404053L275.819519,185.655029L275.541473,185.966003L275.329437,186.325439L275.191650,186.719177L275.133301,187.132324L275.156647,187.549011L275.260803,187.953003L275.441833,188.328918L275.692688,188.662354L276.003784,188.940308L276.363159,189.152344L276.756989,189.290161L277.170013,189.348572L277.586670,189.325195L310.072479,184.664856L325.552521,193.686584L324.569489,220.287781L324.597198,220.624023L329.094391,231.648560L298.742706,219.491882L282.986938,217.020081L261.481934,212.757935L261.666351,210.457153L257.827545,194.209412L277.792358,189.282654L278.184143,189.139282L278.540436,188.922119L278.847443,188.639587L279.093475,188.302612L279.269012,187.924133L279.367401,187.518616L279.384796,187.101746L279.320465,186.689514L279.176941,186.297668L278.959808,185.941406L278.677307,185.634399L278.340271,185.388428L277.961823,185.212708L277.556305,185.114441L277.139465,185.097107L276.727234,185.161316L255.088303,190.986450L254.697647,191.134766L254.348770,191.364868L254.058563,191.665527L253.840942,192.022278L253.706421,192.417908L253.661499,192.833374L253.708420,193.248596L257.252350,210.268433L256.598694,214.277283L256.586151,214.771484L256.678619,215.257019L256.871857,215.712036L257.157043,216.115784L257.521301,216.450012L257.948151,216.699402L258.418060,216.852722L281.957703,222.130493L297.267151,224.979492L329.094391,231.648560L325.957031,220.342957L334.146423,191.972473L334.197052,191.089905L334.057098,190.217163L333.733276,189.394531L333.240509,188.660645L332.601868,188.049500L331.846893,187.589539L311.513733,179.789734L310.802307,179.576782L310.059570,179.581116z" fill="#000000" stroke="none" fill-opacity="1" />
				<polygon points="404.238342,175.502258 389.985321,176.400574 375.482971,182.670349 379.653259,219.500610 378.002563,231.090576 396.009247,216.899231 404.499146,212.567322 416.447815,208.030334 415.643768,202.053223 416.783905,181.569946" fill="#25067F" stroke="none" fill-opacity="1" />
				<path d="M404.359161,177.418457L404.730621,177.358032L405.083221,177.226318L405.403320,177.028381L405.678741,176.771790L405.898773,176.466370L406.054993,176.123962L406.141327,175.757446L406.154510,175.381470L406.094238,175.009949L405.962524,174.657227L405.764526,174.337219L405.507935,174.061829L405.202484,173.841797L404.860046,173.685608L404.493652,173.599243L404.117493,173.585938L389.834717,174.012512L374.045166,179.344482L373.252441,179.814941L372.604126,180.470276L372.142120,181.267822L371.896301,182.156311L371.882629,183.078064L379.133148,219.493164L378.002563,231.090576L396.954498,218.375183L405.299316,214.371948L417.145782,209.868408L417.536041,209.667786L417.872101,209.385803L418.137177,209.036194L418.318237,208.636536L418.406128,208.206726L418.396484,207.768066L417.603699,201.976624L418.719574,181.677673L418.691437,181.223633L418.558228,180.788757L418.327362,180.396729L418.011444,180.069397L417.628052,179.824707L405.074341,173.773682L404.721069,173.643799L404.349243,173.585327L403.973083,173.600525L403.607208,173.688843L403.265594,173.846863L402.961273,174.068359L402.706085,174.345032L402.509735,174.666260L402.379944,175.019531L402.321442,175.391357L402.336639,175.767395L402.424927,176.133301L402.582886,176.474976L402.804474,176.779236L403.081116,177.034424L403.402374,177.230774L414.776337,182.752502L413.694031,201.944702L414.291168,206.746033L403.799438,210.724548L395.216492,215.345398L378.002563,231.090576L380.164093,219.573303L379.385468,184.930664L390.552032,178.762390z" fill="#000000" stroke="none" fill-opacity="1" />
				<polygon points="283.707031,201.282715 293.193665,194.692200 299.166107,203.933533 298.665833,220.393555 280.063721,217.344666" fill="#EDEEEB" stroke="none" fill-opacity="1" />
				<polyline points="385.303894,224.265564 396.492706,214.771179 395.973236,197.835266 385.821167,189.373108 381.873840,202.874146 382.809692,219.656189" fill="#EDEEEB" stroke="none" fill-opacity="1" />
				<polygon points="366.912628,508.829102 360.602142,432.770569 336.708801,363.465820 282.479370,339.302185 290.202209,317.312439 235.284393,309.792358 187.681320,308.271606 192.061096,330.318542 150.572601,349.204163 179.949142,385.335083 199.929718,517.802307 236.884399,796.745483 243.031540,822.616211 361.555023,891.685486 404.214783,931.585022 415.563599,996.709351 429.840179,1014.360229 501.273987,1039.076294 593.145081,1044.099609 658.254211,1019.704041 682.076355,987.201538 652.642944,960.380554 567.639099,922.179199 532.804871,884.048950 502.988007,839.437744 462.190796,831.458069 420.050079,727.524048 406.765717,672.850342 393.481323,618.176575 380.196991,563.502869" fill="#9B117F" stroke="none" fill-opacity="1" />
				<path d="M362.351196,509.207520L362.512665,510.090210L362.843231,510.924377L363.330170,511.677979L363.954803,512.322205L364.693115,512.832092L365.516693,513.188171L366.393951,513.376709L367.291107,513.390564L368.173645,513.229065L369.007812,512.898499L369.761505,512.411499L370.405640,511.786926L370.915558,511.048584L371.271637,510.225037L371.460236,509.347839L371.474030,508.450684L365.163513,432.392151L340.181641,362.268555L339.729706,361.375916L339.053772,360.638245L338.203857,360.110352L285.209351,338.125549L293.420105,318.442688L293.589905,317.707825L293.593903,316.953796L293.432159,316.217285L293.112549,315.534241L292.650604,314.938110L292.069031,314.458130L291.396179,314.117676L290.664886,313.933411L235.692612,306.811462L187.773239,305.396790L187.129913,305.448669L186.514435,305.642639L185.957626,305.968994L185.487625,306.411255L185.128098,306.947327L184.897095,307.549927L184.806290,308.188843L184.860260,308.831909L189.659271,329.087097L149.392548,346.611816L148.836533,346.946167L148.370529,347.397644L148.018799,347.942871L147.799576,348.553528L147.724289,349.197937L147.796783,349.842712L148.013306,350.454285L148.362640,351.001038L177.732178,386.314941L196.764725,518.250610L231.473465,797.462402L240.295303,823.266357L240.567856,823.972534L241.018814,824.580505L241.615509,825.046143L359.221069,894.821533L399.643097,934.056946L412.275391,997.282349L412.968475,998.808350L427.280243,1016.430786L427.948914,1017.055298L428.763580,1017.471802L499.227478,1044.990967L592.747192,1051.375977L595.701965,1050.923584L660.163086,1024.798462L661.539734,1024.040283L662.642090,1022.920044L686.099548,990.150269L686.692871,989.090698L687.012512,987.919312L687.039673,986.705261L686.772644,985.520630L686.227295,984.435669L685.436096,983.514587L655.621948,957.111389L569.354248,919.809204L535.567261,881.884094L506.109558,837.351318L505.460358,836.611938L504.641327,836.066650L503.708618,835.752808L465.122284,827.901611L422.759674,726.650757L409.946869,672.077393L397.084656,617.301025L384.222473,562.524780L371.360260,507.748474L371.063965,506.901489L370.608154,506.128662L370.010315,505.459534L369.293457,504.919983L368.485046,504.530701L367.616272,504.306458L366.720367,504.256104L365.831970,504.381470L364.985016,504.677734L364.212097,505.133606L363.543030,505.731384L363.003510,506.448303L362.614136,507.256653L362.389923,508.125488L362.339569,509.021301L362.464935,509.909790L376.171478,564.480957L389.878052,619.052124L403.584534,673.623230L417.291107,728.194397L458.434814,832.981018L458.923798,833.856750L459.612915,834.585510L460.459869,835.122803L461.412872,835.435669L500.734283,842.822754L529.895325,885.993591L565.524109,924.111450L566.464844,924.792236L650.185791,964.125366L675.402954,987.868774L654.825623,1015.178955L592.018188,1036.739868L502.491638,1032.874634L431.807465,1011.556824L418.703094,995.283447L409.069794,930.738892L408.549896,929.240967L407.581146,927.985718L364.208588,888.848328L245.489059,820.793274L242.258835,795.753662L203.098526,517.382507L182.261185,384.986389L181.763367,383.860046L155.109100,350.268738L192.937729,332.244263L193.342377,332.002380L193.683411,331.676880L193.943939,331.283875L194.110962,330.842957L194.176193,330.376160L194.136429,329.906311L191.207825,311.261902L235.031601,312.794556L285.599670,320.124756L280.417053,338.577881L280.310608,339.029724L280.301971,339.493835L280.391510,339.949341L280.575256,340.375610L280.844879,340.753479L281.188202,341.065979L281.589722,341.298828L333.756073,366.171753L356.088135,433.720398z" fill="#000000" stroke="none" fill-opacity="1" />
				<polyline points="652.247070,905.144592 617.270874,861.865845" fill="#ADBF6F" stroke="none" fill-opacity="1" />
				<path d="M648.106079,908.491150L648.838562,909.234680L649.701904,909.821045L650.663208,910.227783L651.685303,910.439087L652.729004,910.446899L653.754150,910.251038L654.721436,909.858887L655.593567,909.285522L656.337097,908.553101L656.923462,907.689697L657.330200,906.728455L657.541443,905.706299L657.549377,904.662598L657.353455,903.637451L656.961243,902.670227L656.388000,901.798096L620.893250,858.938416L620.252563,858.287964L619.497314,857.775024L618.656433,857.419312L617.762268,857.234436L616.849243,857.227600L615.952515,857.398987L615.106323,857.742004L614.343445,858.243530L613.692993,858.884277L613.180054,859.639526L612.824341,860.480408L612.639404,861.374512L612.632568,862.287476L612.804016,863.184326L613.146973,864.030396L613.648560,864.793335z" fill="#000000" stroke="none" fill-opacity="1" />
				<polyline points="612.008362,872.606262 590.213257,875.995850 579.776794,873.532288 579.500977,867.426147 600.448730,832.730103 606.430298,812.101807 616.030518,775.818787 626.046509,796.141846 633.567200,825.610352 632.554688,848.828369" fill="#25067F" stroke="none" fill-opacity="1" />
				<path d="M612.664124,876.822449L613.474060,876.613464L614.227661,876.250549L614.895996,875.747559L615.453308,875.123901L615.878357,874.403442L616.154602,873.613953L616.271545,872.785706L616.224609,871.950562L616.015625,871.140625L615.652771,870.387085L615.149658,869.718750L614.526001,869.161377L613.805603,868.736389L613.016052,868.460144L612.187866,868.343201L611.352783,868.390137L590.339722,872.735291L582.577637,871.210938L582.451538,868.176392L603.206848,834.395325L608.850647,812.803589L616.562439,781.141479L624.021240,796.890015L629.984802,825.981201L627.741272,848.618408L627.792908,849.561523L628.027405,850.476440L628.435852,851.328003L629.002625,852.083496L629.705994,852.713928L630.518799,853.195007L631.409790,853.508301L632.344788,853.641724L633.287842,853.590210L634.202698,853.355652L635.054260,852.947144L635.809814,852.380371L636.440308,851.677063L636.921387,850.864258L637.234619,849.973267L637.368042,849.038269L637.126831,825.765625L628.127075,795.610901L617.713074,774.989502L617.512451,774.668701L617.251404,774.394714L616.940735,774.178589L616.593018,774.029297L616.222351,773.952759L615.843994,773.952271L615.473145,774.027710L615.125000,774.176025L614.813660,774.391235L614.551941,774.664490L614.350342,774.984741L614.217102,775.338928L604.001770,811.428467L597.471985,831.426697L577.006653,865.920166L576.677185,866.708008L576.590271,867.557617L576.876953,873.663269L576.972168,874.280762L577.197266,874.863525L577.541870,875.384644L577.990051,875.819946L578.520935,876.149292L579.109985,876.357422L589.477539,879.112671L590.705322,879.160339z" fill="#000000" stroke="none" fill-opacity="1" />
				<polygon points="633.909790,848.638062 647.758728,828.030884 661.995422,797.198364 664.076050,808.903015 664.000244,858.296448 652.247070,905.144592 636.342285,915.401855 608.758545,909.583618 598.813782,900.596802 602.658447,882.850586 618.524231,865.706909" fill="#25067F" stroke="none" fill-opacity="1" />
				<path d="M629.901367,845.944275L629.452881,846.778076L629.175537,847.683289L629.080322,848.625244L629.170532,849.567688L629.442993,850.474365L629.887024,851.310547L630.485657,852.043945L631.215942,852.646484L632.049744,853.095032L632.954956,853.372253L633.896973,853.467590L634.839355,853.377319L635.746094,853.104858L636.582214,852.660767L637.315613,852.062134L637.918152,851.331909L650.873352,830.124084L660.785645,806.573242L660.870911,809.183228L658.411438,857.601807L647.594482,901.809753L635.537231,911.038208L610.196777,906.761536L602.071960,899.548462L605.917847,884.547546L621.958008,868.884827L637.497070,851.871582L638.058960,851.109619L638.461426,850.252686L638.688904,849.333679L638.732788,848.387939L638.591309,847.451843L638.269958,846.561279L637.781067,845.750610L637.143311,845.050781L636.381348,844.488892L635.524414,844.086487L634.605347,843.858948L633.659607,843.815063L632.723450,843.956543L631.833008,844.277893L631.022278,844.766846L630.322449,845.404602L615.069458,862.551514L600.056885,880.442871L599.194092,882.099976L595.918823,899.969604L595.855164,900.741821L595.993958,901.504150L596.325745,902.204346L596.827820,902.794556L606.707947,911.852661L608.127258,912.576050L635.495483,919.416992L636.557007,919.499695L637.604126,919.306519L638.566345,918.850342L655.132568,909.619019L656.152588,908.763123L656.928284,907.680908L657.411194,906.440186L669.422058,859.656677L667.280701,808.907959L664.783447,796.702637L664.617676,796.129517L664.335571,795.603760L663.949463,795.148804L663.476746,794.784851L662.938171,794.528076L662.357727,794.389771L661.761230,794.376221L661.175110,794.487915L660.625427,794.719910L660.136536,795.062012L659.730164,795.498901L659.424377,796.011169L644.477112,826.186096z" fill="#000000" stroke="none" fill-opacity="1" />
				<polyline points="550.384399,901.745422 560.518433,887.432373 570.158508,881.603210 592.013611,885.028687 587.276001,908.557068 576.755249,917.175842 567.359741,918.949890" fill="#25067F" stroke="none" fill-opacity="1" />
				<path d="M547.906006,899.990662L547.611328,900.507812L547.423218,901.072632L547.348816,901.663330L547.391174,902.257080L547.548401,902.831177L547.814819,903.363647L548.179932,903.833862L548.629700,904.223755L549.146790,904.518494L549.711670,904.706665L550.302307,904.781006L550.896057,904.738708L551.470215,904.581360L552.002563,904.315063L552.472778,903.949951L552.862732,903.500183L562.544617,889.610474L570.742371,884.572266L588.333862,887.591309L584.717102,907.017700L575.526794,914.542603L566.830688,916.148438L566.294312,916.305481L565.798889,916.564087L565.363464,916.914490L565.004639,917.343018L564.736389,917.833313L564.568970,918.366577L564.508911,918.922241L564.558228,919.478943L564.715271,920.015320L564.973877,920.510742L565.324280,920.946228L565.752869,921.304932L566.243164,921.573242L566.776306,921.740601L567.332031,921.800781L567.888672,921.751404L577.277649,919.942383L578.539368,919.353699L589.058228,910.732666L589.685913,910.006836L590.033142,909.112183L595.054077,885.640869L595.113464,884.929810L595.008911,884.223999L594.745667,883.560791L594.337891,882.975220L593.807129,882.498352L593.181396,882.155396L592.493835,881.964539L570.598633,878.794617L569.609863,878.813782L568.687439,879.170471L559.011597,884.940430L558.141724,885.749573z" fill="#000000" stroke="none" fill-opacity="1" />
				<polygon points="214.522034,975.446350 181.607605,985.588562 170.226227,982.286133 153.596588,955.485535 131.518997,903.892456 131.478256,876.908691 174.748535,917.485291 207.027527,933.527161 231.542542,951.818787 227.154922,967.260681" fill="#25067F" stroke="none" fill-opacity="1" />
				<path d="M215.479614,978.554077L216.067413,978.307495L216.595978,977.951050L217.044754,977.498291L217.396606,976.966736L217.637955,976.376709L217.759613,975.750854L217.756805,975.113403L217.629715,974.488708L217.383224,973.900879L217.026672,973.372375L216.573944,972.923584L216.042313,972.571716L215.452377,972.330322L214.826599,972.208679L214.189041,972.211487L213.564377,972.338562L181.568359,980.829041L173.293701,978.241943L157.023758,953.701965L134.440445,903.291321L134.310669,883.434204L172.767853,919.597534L205.547729,935.934570L228.188110,952.954590L224.515976,965.310791L212.753662,972.717224L212.255173,973.114685L211.843872,973.601685L211.535400,974.159546L211.341888,974.766968L211.270355,975.400391L211.323914,976.035645L211.500320,976.648193L211.792892,977.214661L212.190338,977.713135L212.677292,978.124390L213.235245,978.432800L213.842636,978.626404L214.476059,978.697876L215.111328,978.644409L215.723923,978.467957L216.290298,978.175415L228.825119,969.838318L229.625229,969.085876L230.109375,968.100098L234.347809,952.615967L234.457001,951.922363L234.397263,951.222839L234.172211,950.557861L233.794617,949.966003L233.286499,949.481445L208.710541,931.271423L176.418625,915.081848L133.409042,874.849792L132.933945,874.490479L132.394135,874.238892L131.813446,874.106140L131.217896,874.098206L130.633911,874.215454L130.087570,874.452576L129.603134,874.799072L129.202194,875.239563L128.902588,875.754395L128.717712,876.320557L128.655792,876.912964L128.596634,903.896912L128.832260,905.042175L150.054871,957.001160L166.199631,984.784607L167.362473,986.061646L168.905640,986.837158L180.336914,989.968018L181.645203,990.148438L182.950470,989.946411z" fill="#000000" stroke="none" fill-opacity="1" />
				<polyline points="217.315750,974.033569 246.834244,995.284912 255.265503,1004.422729 255.614609,1015.019165 247.667130,1019.064636 204.866165,1005.142639 186.356567,987.424438" fill="#25067F" stroke="none" fill-opacity="1" />
				<path d="M219.179749,971.444458L218.638748,971.130493L218.047043,970.928223L217.427170,970.845215L216.802994,970.884766L216.198593,971.045288L215.637085,971.320679L215.139999,971.700256L214.726639,972.169617L214.412781,972.710510L214.210464,973.302368L214.127441,973.922119L214.166962,974.546326L214.327469,975.150757L214.602875,975.712280L214.982529,976.209290L215.451797,976.622681L244.203644,998.255432L250.958908,1006.188232L251.029984,1012.311279L247.310715,1014.514893L206.672226,1002.123047L189.393585,984.251709L188.716263,983.720215L187.948334,983.331055L187.119141,983.099121L186.260666,983.033508L185.405914,983.136597L184.587662,983.404419L183.837433,983.826782L183.183914,984.387390L182.652451,985.064758L182.263184,985.832703L182.031326,986.661865L181.965637,987.520325L182.068802,988.375122L182.336655,989.193359L182.758942,989.943604L183.319534,990.597107L202.494278,1007.620483L203.805145,1008.404602L246.362961,1023.074280L247.445068,1023.275269L248.542328,1023.189270L249.579895,1022.822266L257.652802,1019.023254L258.500214,1018.463013L259.200165,1017.726807L259.716797,1016.852112L260.023682,1015.883728L260.105194,1014.871155L259.625519,1004.279053L259.301819,1002.767944L258.471649,1001.464478L249.735733,992.607788z" fill="#000000" stroke="none" fill-opacity="1" />
				<polyline points="265.842651,210.840881 267.472961,202.273804 272.293457,201.595825 274.630280,204.542847 272.077271,212.780518 267.762848,213.689087" fill="#EDEEEB" stroke="none" fill-opacity="1" />
				<polyline points="401.796204,205.314636 400.715607,195.527466 403.060181,191.597229 406.924011,194.775024 407.233582,204.999939 405.260742,208.065613" fill="#EDEEEB" stroke="none" fill-opacity="1" />
			</g>
			<g id="layer.apron.uuid_0x6">
				<polyline points="503.685608,346.745667 518.914490,269.373413 472.388733,337.345642" fill="#BE6D79" stroke="none" fill-opacity="1" />
				<path d="M500.067200,346.033569L499.997864,346.753113L500.070068,347.472412L500.281342,348.163757L500.623383,348.800659L501.083099,349.358582L501.642944,349.816101L502.281189,350.155579L502.973328,350.364014L503.692932,350.433472L504.412323,350.361145L505.103638,350.149963L505.740509,349.807861L506.298401,349.348083L506.755951,348.788391L507.095367,348.150146L507.303894,347.457886L523.097534,270.196777L523.177307,269.304810L523.068970,268.415833L522.777222,267.569153L522.315063,266.802063L521.702942,266.148438L520.967773,265.637085L520.141968,265.290588L519.262085,265.124207L518.366760,265.145386L517.495667,265.353088L516.687256,265.738098L515.976868,266.283508L515.396362,266.965271L469.535370,335.392456L469.209137,335.986755L469.005096,336.633118L468.931122,337.306946L468.990051,337.982239L469.179535,338.633118L469.492371,339.234436L469.916565,339.763184L470.435669,340.199036L471.029877,340.525269L471.676300,340.729309L472.350098,340.803223L473.025391,340.744324L473.676239,340.554810L474.277557,340.242004L474.806335,339.817871L475.242249,339.298706L510.730255,288.878235z" fill="#000000" stroke="none" fill-opacity="1" />
				<polyline points="210.056259,534.384155 270.629425,452.713135 213.839493,361.615601" fill="#BE6D79" stroke="none" fill-opacity="1" />
				<path d="M207.835480,532.737061L207.556747,533.201965L207.374207,533.712280L207.294617,534.248474L207.321228,534.789856L207.452942,535.315552L207.684616,535.805603L208.007523,536.240906L208.409103,536.604980L208.874084,536.883606L209.384384,537.066223L209.920532,537.145752L210.461884,537.119141L210.987686,536.987488L211.477661,536.755737L211.913055,536.432861L212.277100,536.031250L274.629120,455.679565L275.217865,454.647888L275.545563,453.506104L275.593475,452.319153L275.358978,451.154602L274.855225,450.078796L215.503922,360.577942L215.269547,360.273254L214.980179,360.019958L214.647003,359.828186L214.282776,359.704956L213.901520,359.655151L213.517853,359.680725L213.146622,359.780701L212.801926,359.951172L212.497162,360.185608L212.243958,360.474915L212.052094,360.808167L211.928848,361.172363L211.879135,361.553650L211.904755,361.937256L212.004608,362.308533L212.175064,362.653198L264.609833,452.470154z" fill="#000000" stroke="none" fill-opacity="1" />
				<polygon points="112.104660,433.788818 166.089020,384.279053 213.978424,357.147217 220.565811,495.719788 294.060120,390.947754 387.957428,457.429504 467.617706,324.408264 504.976959,346.717163 430.260376,527.846069 416.248352,718.471497 389.327789,752.208435 384.928802,702.171387 365.795410,780.582825 293.752197,723.250244 244.641449,809.540771 197.952118,589.226318 160.555054,513.709656" fill="#EFACD4" stroke="none" fill-opacity="1" />
				<path d="M107.494522,428.762146L106.602402,429.758118L105.921768,430.908997L105.478760,432.170532L105.290283,433.494263L105.363754,434.829285L105.696312,436.124390L106.275101,437.329773L107.077850,438.398926L108.073891,439.291016L109.224701,439.971741L110.486298,440.414734L111.809975,440.603149L113.145042,440.529724L114.440178,440.197144L115.645523,439.618408L116.714684,438.815613L167.792587,386.621277L212.041397,360.660156L217.366745,495.871887L217.466187,496.525696L217.697739,497.145142L218.051651,497.703857L218.512802,498.177917L219.061493,498.547180L219.674210,498.795898L220.325027,498.913391L220.986145,498.894775L221.629257,498.740723L222.227112,498.457947L222.754044,498.058350L223.187714,497.558960L294.923859,395.935059L385.341858,461.123596L386.275299,461.631653L387.301422,461.908081L388.363770,461.937500L389.403625,461.718567L390.363892,461.263123L391.191376,460.596375L391.840668,459.755066L468.799011,329.104370L500.344849,348.255432L426.605164,526.338318L413.459137,717.378662L392.225677,742.598999L387.740631,701.924133L387.634613,701.367554L387.419678,700.843506L387.104340,700.372803L386.701324,699.974609L386.227020,699.664856L385.700378,699.456116L385.142609,699.356750L384.576263,699.370728L384.024139,699.497559L383.508392,699.731995L383.049896,700.064819L382.667084,700.482422L382.375397,700.968018L382.186554,701.502197L363.022552,772.478027L295.503784,721.049255L294.992126,720.725342L294.423004,720.518494L293.822754,720.438232L293.219330,720.488281L292.640533,720.666382L292.113251,720.964111L291.661896,721.367859L291.307526,721.858887L245.895599,801.476562L198.624863,589.083801L164.132935,511.937805L117.937149,430.252930L117.135315,429.183044L116.140076,428.290100L114.989777,427.608459L113.728630,427.164368L112.405022,426.974854L111.069954,427.047119L109.774529,427.378540L108.568718,427.956299L107.498764,428.758179L106.605835,429.753418L105.924225,430.903687L105.480133,432.164917L105.290627,433.488464L105.362831,434.823547L105.694260,436.118958L106.272072,437.324768L157.052704,515.633911L197.297455,589.453735L241.805588,810.141724L241.982971,810.696533L242.267700,811.204712L242.648346,811.645630L243.109360,812.001587L243.632294,812.258240L244.195908,812.405151L244.777527,812.436340L245.353714,812.350647L245.901077,812.151489L246.397537,811.846985L246.823181,811.449341L247.160751,810.974609L294.571594,727.497192L362.921631,784.193970L363.789825,784.739319L364.757019,785.079590L365.775543,785.197876L366.794983,785.088379L367.765106,784.756470L368.638062,784.218506L369.370605,783.501160L369.926727,782.639771L370.278900,781.676880L383.615295,719.461548L385.613800,752.534912L385.770447,753.324768L386.093170,754.062561L386.566650,754.713806L387.169006,755.248230L387.872070,755.640869L388.643036,755.873413L389.445953,755.934937L390.243286,755.822571L390.997986,755.541748L391.674805,755.105347L392.242096,754.533813L418.485229,720.256409L418.912811,719.515503L419.102417,718.681274L434.157318,528.768066L508.393280,348.126465L508.628754,347.283936L508.659698,346.409607L508.484222,345.552551L508.112183,344.760742L507.564362,344.078552L506.871643,343.544373L469.374329,321.466736L468.676300,321.149719L467.925293,320.995911L467.158813,321.012939L466.415344,321.200012L465.732086,321.547607L465.143219,322.038452L464.678284,322.648010L386.584747,450.911682L296.123718,388.033142L295.421387,387.646179L294.650330,387.425598L293.849670,387.382812L293.059448,387.519653L292.319702,387.829346L291.667786,388.296326L291.136505,388.896973L223.320236,486.216125L216.077728,357.047424L216.014038,356.624451L215.866074,356.223145L215.639877,355.860107L215.344849,355.550354L214.993286,355.306824L214.599609,355.139404L214.180252,355.055237L213.752457,355.057739L213.334122,355.146729L212.942444,355.318665L164.670471,381.775391z" fill="#000000" stroke="none" fill-opacity="1" />
				<polyline points="174.465179,554.625977 235.456009,488.280396 253.733597,480.437012 286.528870,492.913574 311.537079,534.270935 329.770935,573.402893 340.446503,644.777710 340.725006,696.711426 313.265015,649.913696 283.444794,601.771912 268.658752,589.771118 273.714233,641.751221 283.606323,713.875122 282.371796,757.951538 260.509583,706.640503 232.932877,656.722168 222.865280,624.119385 234.154633,660.435913 245.586609,694.127441 259.116455,727.579956 272.453796,786.620850 219.944046,736.581177 177.468048,663.372681 168.945007,598.014282" fill="#ADBF6F" stroke="none" fill-opacity="1" />
				<path d="M174.180222,554.364075L174.134613,554.424683L174.101669,554.493042L174.082718,554.566467L174.078430,554.642273L174.089066,554.717407L174.114136,554.789001L174.152695,554.854370L174.203278,554.910889L174.263824,554.956543L174.332199,554.989502L174.405670,555.008423L174.481430,555.012695L174.556564,555.002075L174.628204,554.976990L174.693542,554.938477L174.750137,554.887939L237.613220,491.325256L253.834763,485.272888L282.043915,498.289978L305.231781,537.633728L324.494629,574.990356L337.107971,645.035034L337.856415,686.265381L316.153290,648.218933L287.490021,599.266235L271.502106,586.268005L270.694885,585.744873L269.795135,585.404846L268.843750,585.263184L267.884003,585.326416L266.959351,585.591675L266.112152,586.046875L265.380493,586.671265L264.797913,587.436646L264.390808,588.308167L264.177643,589.246094L264.168152,590.207886L269.147827,642.195312L280.718933,714.031616L279.920441,745.023315L263.483551,705.373413L238.023209,654.557373L223.264160,625.406494L228.825012,662.092651L241.737961,695.433350L256.298615,728.461670L266.776215,776.608154L222.224579,734.783325L181.051422,662.154541L170.033798,597.872314L169.985229,597.662598L169.896652,597.466431L169.771439,597.291382L169.614487,597.144043L169.431839,597.030151L169.230484,596.953979L169.018204,596.918701L168.803040,596.925537L168.593277,596.974121L168.397125,597.062744L168.221970,597.187866L168.074615,597.344788L167.960815,597.527466L167.884766,597.728882L167.849350,597.941162L167.856155,598.156372L173.788376,663.852539L174.258316,665.234985L217.457489,738.023926L270.155365,789.032837L270.716675,789.463867L271.356537,789.766724L272.045898,789.927490L272.753632,789.939087L273.447815,789.800842L274.097168,789.519043L274.672333,789.106567L275.147308,788.581787L275.500793,787.968445L275.716736,787.294312L275.785278,786.589844L275.703552,785.886719L261.987030,726.931519L249.397949,692.711426L239.462982,658.710571L224.152039,623.719360L224.040802,623.460693L223.878418,623.230774L223.671631,623.039673L223.429642,622.895752L223.163162,622.805115L222.883545,622.771973L222.603149,622.797546L222.334213,622.880920L222.088455,623.018250L221.876678,623.203735L221.707993,623.429138L221.589844,623.684692L221.527344,623.959229L221.523285,624.240723L221.577759,624.516907L227.675461,658.345703L257.600281,708.059326L279.784546,759.053955L280.068726,759.565674L280.452820,760.007446L280.919952,760.360168L281.450043,760.608582L282.020142,760.741821L282.605286,760.754211L283.180450,760.645142L283.720551,760.419434L284.202301,760.086670L284.604675,759.661499L284.910278,759.162231L285.105927,758.610474L285.183105,758.030273L286.487122,713.955811L278.271851,641.217285L274.193878,600.074463L279.822632,604.960327L310.397003,651.643066L338.299316,698.134766L338.632812,698.590942L339.050751,698.971252L339.536316,699.260315L340.069824,699.446472L340.629791,699.522278L341.193634,699.484619L341.738495,699.334961L342.242493,699.079407L342.685211,698.728271L343.048828,698.295776L343.318695,697.799255L343.483734,697.258850L343.537506,696.696289L343.786285,644.759827L335.163971,572.596191L318.005005,531.257141L292.193542,489.488220L290.769257,487.830200L288.882690,486.726379L255.328003,476.246155L254.213501,475.978882L253.067719,476.002930L251.965439,476.316528L234.017212,484.927246L232.769806,485.810974z" fill="#000000" stroke="none" fill-opacity="1" />
				<polyline points="491.657990,571.096191 476.860474,637.658508 453.151581,698.880981 400.063232,743.984009 429.170380,679.855713 447.454407,615.082886 451.867157,592.652954 443.750031,614.158936 422.868622,659.047241 384.595856,707.619568 390.614716,667.366333 418.484528,593.947754 423.621399,582.304871 433.091217,559.823181 428.047180,562.079285 409.050812,572.664185 377.017578,594.295349 349.171204,620.923462 352.887848,598.746338 375.443481,536.244385 422.719177,484.124451 434.397339,477.201355 451.802277,479.112793 473.621460,505.925598" fill="#ADBF6F" stroke="none" fill-opacity="1" />
				<path d="M497.836884,572.469849L497.986084,571.237976L497.892151,570.000732L497.558685,568.805542L496.998474,567.698364L496.232880,566.721802L495.291595,565.913330L494.210724,565.304016L493.031647,564.917297L491.799774,564.768066L490.562439,564.862000L489.367340,565.195496L488.260132,565.755737L487.283478,566.521240L486.475067,567.462585L485.865784,568.543457L485.479065,569.722595L473.954437,636.778320L451.076019,697.405518L409.510132,731.461792L431.731476,681.018066L450.361786,615.903564L456.146179,593.494812L456.228149,592.635254L456.139191,591.776367L455.882629,590.951782L455.468781,590.193970L454.913696,589.532532L454.239136,588.993408L453.471649,588.597839L452.641144,588.361206L451.780365,588.292847L450.922943,588.395447L450.102570,588.664917L449.351379,589.090820L448.698883,589.656311L448.170563,590.339294L447.787109,591.113037L440.977936,612.992920L420.442383,657.555176L388.988495,697.454407L393.362701,668.084473L421.384888,595.137085L427.531860,584.030151L437.826172,561.817627L438.144775,560.750000L438.225769,559.638855L438.065308,558.536316L437.670868,557.494324L437.061218,556.561829L436.264801,555.782715L435.319153,555.193604L434.268799,554.822144L433.163086,554.685913L432.053894,554.791199L430.993530,555.133118L426.145477,557.827576L407.311310,569.542358L374.913666,591.179688L354.892670,610.116333L357.030762,599.831665L379.029877,538.401672L425.346405,487.342896L435.316254,481.452637L449.481873,483.374817L468.145569,510.381653L469.120148,511.364319L470.267670,512.137939L471.544067,512.672852L472.900299,512.948547L474.284241,512.954285L475.642731,512.689880L476.923523,512.165588L478.077454,511.401428L479.060089,510.426880L479.833771,509.279419L480.368713,508.002991L480.644287,506.646790L480.650146,505.262817L480.385681,503.904358L479.861420,502.623535L479.097290,501.469666L455.284851,476.278809L454.441284,475.480286L453.420990,474.924805L452.292419,474.649658L434.847717,473.100464L433.525787,473.168884L432.293518,473.652527L420.624115,480.590576L372.402374,533.485962L371.581421,534.850769L348.875702,597.298462L345.367706,620.286011L345.318085,621.086487L345.435181,621.879822L345.713654,622.631836L346.141724,623.309998L346.700867,623.884888L347.366760,624.331848L348.110687,624.631348L348.900452,624.770508L349.701965,624.743347L350.480499,624.550903L351.202423,624.201782L351.836517,623.710754L379.385620,597.232727L410.924011,575.711487L430.135529,566.247375L429.498291,563.495728L419.696442,580.612549L415.617462,592.682739L387.974579,666.364136L381.785980,707.199463L381.758850,707.770996L381.846741,708.336426L382.046051,708.872681L382.348877,709.358276L382.742889,709.773193L383.211975,710.100830L383.737244,710.327759L384.297302,710.444946L384.869476,710.447449L385.430573,710.335205L385.957794,710.112915L386.429840,709.789429L386.827393,709.377930L425.090851,660.798340L446.474945,615.426514L450.672180,596.847046L444.513763,614.379761L426.521362,678.886902L396.942902,742.567749L396.717865,743.241943L396.636719,743.947998L396.703003,744.655640L396.913849,745.334351L397.260132,745.955017L397.726929,746.490845L398.294342,746.918884L398.937805,747.220703L399.629700,747.383179L400.340240,747.399536L401.038879,747.268921L401.695496,746.997070L402.281921,746.595520L454.749817,700.762146L455.453430,699.772400L479.684052,638.751953z" fill="#000000" stroke="none" fill-opacity="1" />
			</g>
		</g>
	</g>
</svg>
