<?xml version="1.0" encoding="UTF-8"?>
<!-- Generator: Blender, SVG Export for Grease Pencil - v2.0 -->
<!DOCTYPE svg PUBLIC "-//W3C//DTD SVG 1.1//EN" "http://www.w3.org/Graphics/SVG/1.1/DTD/svg11.dtd">
<svg version="1.1" x="0px" y="0px" xmlns="http://www.w3.org/2000/svg" width="1920.000000px" height="1080.000000px" viewBox="0 0 1920.000000 1080.000000">
	<g id="blender_frame.2">
		<g id="blender_object.Stroke.2.uuid_0x0">
			<g id="layer.Fills.uuid_0x1" />
			<g id="layer.black.uuid_0x2" />
			<g id="layer.skin.uuid_0x3" />
			<g id="layer.yella.uuid_0x4" />
			<g id="layer.red.uuid_0x5">
				<polyline points="281.463837,704.673218 235.963715,811.682678 200.574707,794.830811 154.232025,791.460449 196.361786,794.830811 326.121368,852.969788 566.765808,966.214600 386.788025,955.092285 106.710373,923.747803 30.876904,842.858643 36.943645,812.525208 197.541733,713.604614" fill="#879F4C" stroke="none" fill-opacity="1" />
				<path d="M285.909973,706.563721L286.193390,705.659912L286.295013,704.718384L286.210968,703.775024L285.944519,702.866089L285.505829,702.026733L284.911865,701.289062L284.185425,700.681396L283.354340,700.227112L282.450653,699.943787L281.509033,699.842102L280.565643,699.926147L279.656738,700.192627L278.817383,700.631287L278.079681,701.225220L277.472076,701.951660L277.017792,702.782715L234.467941,807.734619L201.849808,792.153198L200.789856,791.872925L154.325470,790.175537L154.056931,790.184082L153.795959,790.248169L153.553909,790.364929L153.341446,790.529480L153.167664,790.734436L153.040237,790.971069L152.964645,791.228882L152.944168,791.496826L152.979752,791.763184L153.069824,792.016479L153.210358,792.245422L153.395462,792.440308L153.616852,792.592529L153.865128,792.695435L154.129257,792.744690L195.640656,797.648804L324.947388,855.525879L547.636536,961.314209L387.113068,951.347961L108.113876,920.947021L36.808949,841.166504L41.973438,816.026184L200.004456,717.602844L200.737152,717.045593L201.347076,716.356079L201.810669,715.560852L202.110397,714.690430L202.234314,713.778198L202.178131,712.859436L201.943649,711.969238L201.540024,711.141907L200.982742,710.409180L200.293182,709.799316L199.497971,709.335693L198.627548,709.036011L197.715408,708.911987L196.796539,708.968262L195.906433,709.202759L195.079010,709.606323L33.996906,807.741150L32.813187,808.716064L31.937201,809.974731L31.433945,811.423279L25.498352,841.782898L25.396328,843.079224L25.602264,844.363281L26.104717,845.562683L26.875364,846.610046L104.565811,925.758301L105.393394,926.375854L106.383369,926.669128L386.370178,958.826294L566.536865,969.918701L567.323425,969.883667L568.085083,969.683411L568.787170,969.326965L569.398254,968.830383L569.890930,968.216187L570.242859,967.511780L570.438293,966.748962L570.468384,965.962158L570.331787,965.186646L570.034546,964.457520L569.590332,963.807312L569.018921,963.265625L568.346008,962.856628L327.319061,850.424866L197.533890,792.214844L155.516678,791.558594L199.803329,797.748169L234.707794,814.320312L235.343445,814.537476L236.011902,814.603638L236.677826,814.515503L237.306046,814.277466L237.863220,813.902283L238.319992,813.409668L238.652176,812.825806z" fill="#000000" stroke="none" fill-opacity="1" />
				<polyline points="505.132721,783.086304 441.095184,828.586853 426.770935,810.049622 496.658813,719.194763 713.311157,720.942017 725.541626,743.655701 676.620056,853.729858 416.287781,965.551208 286.995239,1045.922852 264.281677,1049.417236 211.865784,1012.725830 207.821320,970.259033 247.254700,941.947876 320.054688,904.536682 339.265778,908.581116 505.087952,784.213989 567.102844,759.104980" fill="#879F4C" stroke="none" fill-opacity="1" />
				<path d="M506.734802,785.341187L507.143890,784.985291L507.475769,784.556396L507.717560,784.071045L507.859924,783.547852L507.897614,783.006958L507.829041,782.468994L507.656830,781.954834L507.387573,781.484131L507.031647,781.075073L506.602814,780.743225L506.117493,780.501465L505.594238,780.359009L505.053314,780.321411L504.515442,780.389954L504.001251,780.562256L503.530518,780.831421L441.919495,823.041992L431.022308,810.044922L498.039185,722.026917L709.569031,727.150146L718.618347,743.917969L673.636536,850.708801L414.700043,961.854675L285.122742,1040.862549L265.353699,1044.818848L215.754318,1010.460510L210.920731,971.667664L248.732025,944.364624L320.925476,911.015869L338.095062,914.142029L339.698181,914.247437L341.266754,913.899963L342.675476,913.127319L506.461700,786.646484L567.545471,760.198242L567.750183,760.090942L567.930115,759.945679L568.078308,759.768066L568.188904,759.565063L568.257751,759.344299L568.282227,759.114380L568.261414,758.884094L568.196045,758.662354L568.088745,758.457520L567.943542,758.277649L567.765869,758.129517L567.562866,758.018921L567.342102,757.949951L567.112183,757.925537L566.881958,757.946411L566.660156,758.011719L504.048279,781.646362L337.916412,902.489624L321.323822,898.507935L319.234009,898.430664L317.238739,899.057007L245.963577,939.435425L206.099869,967.861145L205.539780,968.386108L205.134033,969.037659L204.909958,969.771729L204.882721,970.538879L207.798401,1013.113159L208.076523,1014.253906L208.667618,1015.268433L209.522720,1016.072998L261.768799,1053.006958L262.753357,1053.524048L263.836273,1053.776489L264.947937,1053.748169L287.799011,1051.147461L289.785980,1050.412231L418.154205,969.128052L678.180298,857.362305L679.027161,856.865845L679.725647,856.176086L680.232666,855.335449L731.225464,746.181885L731.721008,744.364319L731.649780,742.481689L731.018127,740.706787L718.803772,717.984497L717.827942,716.639282L716.531616,715.599426L715.006714,714.938721L713.361511,714.704041L496.681610,716.374023L495.826141,716.499634L495.048859,716.878418L494.422882,717.474854L424.102325,807.996826L423.720154,808.625427L423.483612,809.322021L423.404083,810.053284L423.485229,810.784424L423.723297,811.480530L424.106750,812.108276L437.896301,831.058716L438.508636,831.693787L439.244263,832.180908L440.067963,832.496826L440.940643,832.626587L441.820648,832.563843L442.666107,832.311829L443.436676,831.882324z" fill="#000000" stroke="none" fill-opacity="1" />
				<polyline points="609.738098,954.418274 647.992493,927.286743 613.446045,884.314453 584.798035,875.888550 551.094238,884.314331 519.075378,910.434509" fill="#879F4C" stroke="none" fill-opacity="1" />
				<path d="M607.883301,951.803040L607.408691,952.215149L607.023560,952.711914L606.742859,953.274292L606.577271,953.880615L606.533081,954.507629L606.612061,955.131165L606.811218,955.727356L607.122803,956.273193L607.534912,956.747742L608.031677,957.132812L608.594055,957.413513L609.200378,957.579163L609.827393,957.623352L610.450989,957.544250L611.047119,957.345154L611.592957,957.033569L651.072571,931.629517L651.992065,930.800964L652.695496,929.782471L653.144653,928.629150L653.315308,927.403198L653.198486,926.171021L652.800049,924.999084L652.141968,923.950806L617.075989,881.396240L616.036682,880.443970L614.760254,879.846252L585.725586,872.734619L584.000549,872.699219L550.382202,881.466003L549.238342,882.039307L516.747742,907.581360L516.235901,908.090271L515.833191,908.689209L515.554932,909.355347L515.411987,910.062866L515.409973,910.784668L515.548706,911.493042L515.822998,912.160767L516.222168,912.762085L516.731079,913.274048L517.330078,913.676758L517.996094,913.954956L518.703674,914.097900L519.425476,914.099976L520.133850,913.961304L520.801636,913.686951L521.402893,913.287720L552.442200,887.003662L584.727966,879.294739L610.731140,888.370605L640.299805,926.215332z" fill="#000000" stroke="none" fill-opacity="1" />
				<polyline points="237.429260,306.488220 174.234695,526.404297 135.475327,553.367188 119.676651,561.559021 98.611908,564.484680 124.357735,531.132141 115.580750,536.398315 86.324104,551.026611 52.971500,562.144165 41.854019,532.887573 38.343201,480.225586 45.364838,449.798645 64.674164,406.498840 43.024120,425.223083 13.767529,443.947327 21.959381,404.743469 39.513416,376.071960 54.141712,360.858521 85.153717,339.208618 69.355087,329.261414 55.897064,316.388428 49.460621,303.515442 45.364666,291.227661 75.791649,292.983032 98.026649,287.716919 122.602325,274.844055 150.103516,263.726440 200.659103,249.683105" fill="#879F4C" stroke="none" fill-opacity="1" />
				<path d="M240.184418,307.279846L240.285934,306.727173L240.277649,306.165344L240.159943,305.615845L239.937286,305.099854L239.618225,304.637207L239.214996,304.245789L238.743271,303.940491L238.220963,303.733093L237.668320,303.631592L237.106415,303.639893L236.556885,303.757629L236.040970,303.980225L235.578400,304.299255L235.186890,304.702454L234.881516,305.174255L234.674149,305.696533L171.395645,524.371460L133.620590,550.294434L118.552780,558.028259L107.511574,559.321411L128.123657,534.039124L128.652939,533.177490L128.988251,532.223389L129.114304,531.220032L129.025436,530.212708L128.725662,529.246887L128.228531,528.366211L127.556480,527.610657L126.739883,527.014099L125.815659,526.603638L124.825516,526.397766L123.814316,526.405884L122.827606,526.627502L121.910080,527.052673L113.328720,532.295776L84.653954,546.994446L55.735241,556.318237L46.848221,531.797668L43.927174,480.673889L50.397945,451.484192L68.390747,408.156250L68.652878,407.353210L68.743515,406.513428L68.658829,405.672913L68.402481,404.868103L67.985519,404.133545L67.425842,403.500793L66.747612,402.997314L65.980049,402.644714L65.156189,402.458130L64.311508,402.445679L63.482609,402.607849L62.704926,402.937683L62.012157,403.420898L40.223522,421.470886L21.569767,432.633789L26.515732,406.551086L42.868137,378.662598L56.626110,363.765198L87.012115,341.870605L87.545876,341.403503L87.965416,340.831604L88.250824,340.182312L88.388390,339.486450L88.371506,338.777344L88.201042,338.088806L87.885132,337.453796L87.438866,336.902527L86.883545,336.461304L71.501488,326.510315L58.952923,314.133789L53.075466,302.018127L51.068745,295.594055L75.586624,296.536377L98.819496,291.064453L124.034103,277.938721L151.143097,266.785889L201.243149,251.785522L201.642090,251.631226L202.003265,251.401978L202.312790,251.106750L202.558777,250.756775L202.731689,250.365601L202.825012,249.948120L202.835083,249.520508L202.761566,249.099060L202.607285,248.700134L202.378052,248.338989L202.082748,248.029480L201.732803,247.783508L201.341568,247.610535L200.924149,247.517151L200.496414,247.507141L200.075058,247.580688L149.240112,260.618164L121.325859,271.686401L96.813301,284.469116L75.477394,289.399841L45.596867,287.203796L44.726257,287.247986L43.885632,287.478333L43.114185,287.883972L42.447796,288.446045L41.918049,289.138245L41.549377,289.928101L41.359177,290.778748L41.356258,291.650391L41.540966,292.502319L45.758057,304.749756L52.550526,318.061707L66.955490,331.770081L79.282211,339.348145L51.963329,357.738159L36.475925,373.151367L17.840366,402.221680L8.556805,442.858521L8.444366,443.986206L8.573227,445.112061L8.937378,446.185120L9.520512,447.156799L10.296078,447.983032L11.229000,448.626343L12.276992,449.057739L13.392391,449.257385L14.524899,449.216492L15.623016,448.936829L16.637020,448.431091L45.541534,429.156555L53.515606,421.529541L40.539551,447.646851L32.943420,478.979431L36.809635,533.223816L48.622059,563.796997L49.083710,564.700439L49.730240,565.482422L50.530758,566.105591L51.447430,566.540466L52.436600,566.766235L53.451061,566.772339L54.442921,566.558350L87.700821,555.156677L117.672218,540.581177L120.802856,534.293762L95.532707,562.107788L95.096283,562.819824L94.821907,563.608582L94.722290,564.437744L94.801880,565.269104L95.057152,566.064270L95.476219,566.786621L96.039902,567.402893L96.722031,567.884644L97.491310,568.209717L98.312302,568.363037L99.147041,568.337585L120.179047,565.176147L137.123978,556.546692L176.113525,529.105103L176.909698,528.319702L177.396744,527.312927z" fill="#000000" stroke="none" fill-opacity="1" />
				<polygon points="418.680389,118.730896 420.084747,94.155090 426.825531,71.405090 436.094086,59.608826 455.473724,78.145935 443.677429,84.886536 426.825531,105.951233" fill="#879F4C" stroke="none" fill-opacity="1" />
				<path d="M416.139069,118.585693L416.159546,119.084167L416.276917,119.569153L416.486664,120.021973L416.780731,120.425171L417.147736,120.763123L417.573669,121.023193L418.042236,121.194885L418.535156,121.272217L419.033722,121.251587L419.518707,121.134277L419.971527,120.924561L420.374664,120.630493L420.712677,120.263489L420.972687,119.837463L421.144562,119.369080L421.221710,118.876099L421.936493,94.477844L429.256714,72.661682L436.411713,64.086853L451.013184,77.598877L442.881500,83.493713L442.424774,83.884460L425.718811,105.066040L416.533813,117.362732L416.308197,117.807739L416.173676,118.288269L416.135498,118.785828L416.195129,119.281250L416.350250,119.755554L416.594971,120.190430L416.919739,120.569214L417.312317,120.877319L417.757355,121.103027L418.237915,121.237549L418.735382,121.275696L419.230774,121.216064L419.705139,121.060913L420.140015,120.816345L420.518799,120.491455L420.826965,120.098938L427.979706,106.777161L444.738983,86.127686L456.807312,80.479553L457.257629,80.156372L457.632111,79.747742L457.914795,79.270996L458.093658,78.746399L458.161133,78.196228L458.114410,77.643738L457.955200,77.112854L457.690552,76.625793L457.331665,76.203369L438.179108,57.428955L437.682739,57.044678L437.117554,56.771362L436.508057,56.620972L435.880585,56.599976L435.262421,56.709290L434.680206,56.944275L434.159271,57.294617L433.722168,57.745117L424.711945,69.744446L424.248230,70.641541L418.294434,93.624634z" fill="#000000" stroke="none" fill-opacity="1" />
				<polyline points="124.094635,276.279236 149.938156,265.064148 206.013611,251.411011 230.881851,292.858093 224.055359,345.520203 150.913406,315.288269 154.957809,301.132751 101.369019,310.232727 122.602325,274.844055" fill="#ACBF6E" stroke="none" fill-opacity="1" />
				<polygon points="433.893250,125.050110 441.734039,110.421509 455.192139,94.622986 478.012329,87.601318 497.906921,92.282471 485.033905,129.730896 470.405609,125.049866 449.340820,126.220154" fill="#879F4C" stroke="none" fill-opacity="1" />
				<path d="M431.732758,123.892029L431.548401,124.335815L431.454132,124.807068L431.453552,125.287476L431.546661,125.758850L431.730133,126.203064L431.996643,126.602905L432.335999,126.943054L432.735260,127.210449L433.178986,127.394958L433.650146,127.489258L434.130646,127.489685L434.602081,127.396484L435.046234,127.213135L435.446106,126.946716L435.786285,126.607361L436.053741,126.208069L442.746399,111.112366L456.196167,96.149231L478.136108,91.272339L492.873230,95.060364L484.092041,127.853577L471.194733,122.583923L449.366577,123.657837L434.078369,122.605835L433.597992,122.616699L433.128937,122.721130L432.689178,122.914856L432.295807,123.190857L431.963806,123.538208L431.705872,123.943665L431.532104,124.391724L431.449005,124.864990L431.459808,125.345337L431.564178,125.814453L431.758057,126.254150L432.033966,126.647522L432.381348,126.979492L432.786804,127.237427L433.234772,127.411194L433.708130,127.494385L449.147705,128.769714L470.071869,127.661499L484.576508,131.160522L484.901489,131.226074L485.233063,131.218628L485.554749,131.138672L485.851105,130.989990L486.107574,130.779785L486.311768,130.518616L486.453461,130.218872L501.554474,93.536316L501.735199,92.752747L501.749512,91.948669L501.596954,91.159302L501.283844,90.418701L500.824005,89.759033L500.237396,89.209045L499.549622,88.792480L498.790283,88.527832L478.824310,84.150574L476.969788,84.213013L454.676270,92.946411L454.228119,93.157349L453.856842,93.485474L440.806305,109.631226z" fill="#000000" stroke="none" fill-opacity="1" />
				<polyline points="229.798752,278.822754 229.798752,291.461670 221.372742,294.270386 212.946793,281.631409 208.031631,267.588074 202.414337,247.927551 215.053253,235.288452" fill="#25067F" stroke="none" fill-opacity="1" />
				<path d="M232.842239,278.822754L232.783829,278.228943L232.610550,277.658020L232.329315,277.131897L231.950851,276.670715L231.489655,276.292114L230.963455,276.010864L230.392517,275.837769L229.798752,275.779175L229.204956,275.837769L228.634018,276.010864L228.107819,276.292114L227.646622,276.670715L227.268051,277.131897L226.986877,277.658081L226.813675,278.228943L226.755234,278.822754L226.743912,289.260010L222.609314,290.666199L215.663635,280.277405L210.642532,266.758911L204.769882,248.537781L216.153946,236.389160L216.347534,236.153320L216.491379,235.884216L216.579956,235.592163L216.609818,235.288452L216.579956,234.984802L216.491379,234.692810L216.347534,234.423706L216.153946,234.187866L215.918152,233.994202L215.648972,233.850464L215.356979,233.761841L215.053253,233.731873L214.749710,233.761841L214.457642,233.850464L214.188538,233.994202L213.952621,234.187805L200.931427,246.444458L200.593811,246.886414L200.384216,247.401428L200.317322,247.953430L200.397888,248.503662L205.398788,268.340332L210.104202,282.626282L218.853210,295.950134L219.274933,296.454041L219.795288,296.855164L220.390030,297.134583L221.031021,297.279175L221.688080,297.282104L222.330322,297.143066L230.764801,294.359802L231.451263,294.031006L232.035080,293.542664L232.480148,292.925232L232.758698,292.216919L232.853561,291.461670z" fill="#000000" stroke="none" fill-opacity="1" />
				<polyline points="359.908966,607.082275 467.761047,754.535828 588.252075,638.258057 578.983582,597.813721 562.974243,572.536011 536.853821,562.424744 381.816376,442.777100 369.996704,411.554443 321.235321,383.760315 281.738678,439.836121" fill="#ADBF6F" stroke="none" fill-opacity="1" />
				<path d="M364.593719,603.655640L363.835205,602.807495L362.925812,602.123657L361.900452,601.630371L360.798615,601.346558L359.662567,601.283325L358.535980,601.442749L357.462097,601.818970L356.482330,602.397461L355.634247,603.155884L354.950409,604.065308L354.457123,605.090698L354.173309,606.192505L354.110016,607.328613L354.269470,608.455200L354.645721,609.528992L355.224152,610.508789L465.375122,756.281006L465.798798,756.746582L466.311371,757.111938L466.889801,757.360474L467.507690,757.480957L468.136993,757.467896L468.749390,757.321777L469.316833,757.049316L469.813782,756.662903L593.006409,643.184570L594.102844,641.813721L594.814697,640.208984L595.095032,638.476013L594.925598,636.728760L587.526611,595.855957L569.101562,568.655396L567.578430,566.932190L565.592529,565.772339L539.289307,558.104248L386.408997,439.374023L376.217194,409.199585L375.052460,407.232483L373.290405,405.775879L323.097534,380.493164L322.246338,380.138184L321.334290,380.001099L320.416321,380.090027L319.547577,380.399719L318.780365,380.911621L318.160858,381.594788L278.456482,437.524353L278.068542,438.209106L277.821625,438.956360L277.725281,439.737427L277.783112,440.522339L277.993011,441.280823L278.346802,441.983765L278.830963,442.604187L279.426880,443.118286L280.111603,443.506226L280.858856,443.753113L281.639954,443.849487L282.424774,443.791687L283.183319,443.581787L283.886322,443.227966L284.506744,442.743835L285.020844,442.147949L322.341949,388.719727L364.623566,416.147644L376.672546,444.724304L378.456116,447.131287L533.855103,566.310486L558.126282,578.436523L570.775940,601.234863L580.714783,636.017334L468.146576,750.055725z" fill="#000000" stroke="none" fill-opacity="1" />
				<polyline points="246.955261,494.830139 238.529251,376.024902 193.871780,322.941711 143.316025,318.728699 118.740456,367.294800 85.387856,622.005737 101.397163,736.934875 145.212067,788.684082 150.618896,711.329590 178.120132,765.161804 176.949860,711.329590" fill="#ADBF6F" stroke="none" fill-opacity="1" />
				<path d="M242.910187,495.117004L243.043839,495.900696L243.327881,496.643188L243.751205,497.315979L244.297775,497.893311L244.946426,498.352844L245.672318,498.677124L246.447433,498.853455L247.242111,498.875244L248.025757,498.741516L248.768234,498.457520L249.441086,498.034058L250.018387,497.487549L250.477921,496.838928L250.802124,496.113037L250.978546,495.337952L251.000305,494.543274L239.987122,375.921570L239.883713,375.475891L239.647690,375.084045L196.024643,321.130554L195.480362,320.633606L194.825592,320.294922L194.105362,320.138000L143.644699,314.785095L142.709198,314.818237L141.807632,315.070068L140.990524,315.526794L140.303482,316.162598L139.785004,316.941956L116.103973,365.960693L82.760239,621.661621L97.705132,737.449158L97.994217,738.456543L98.552231,739.343628L142.227402,791.211182L142.836456,791.790771L143.555313,792.226685L144.350739,792.498962L145.185928,792.594910L146.022430,792.510132L146.821350,792.248535L147.545990,791.822266L148.162766,791.250854L148.643188,790.560974L148.964996,789.784302L149.113495,788.956787L153.765167,726.750732L174.367615,767.078918L174.841690,767.809204L175.455780,768.426514L176.183624,768.904419L176.994263,769.222473L177.852798,769.367188L178.722839,769.332336L179.567123,769.119507L180.349564,768.737610L181.036896,768.203064L181.599716,767.538574L182.013931,766.772705L182.261871,765.937988L182.333054,765.070190L181.162781,711.237915L181.064011,710.417847L180.807037,709.632751L180.401917,708.912842L179.864044,708.285767L179.214310,707.775757L178.477478,707.402283L177.681946,707.179749L176.858307,707.116638L176.038116,707.215454L175.253052,707.472412L174.533157,707.877563L173.906082,708.415283L173.396072,709.065063L173.022598,709.802002L172.800064,710.597473L172.736954,711.421143L173.507599,746.870483L154.371475,709.412476L153.915939,708.705261L153.328918,708.102661L152.633972,707.628662L151.858749,707.302185L151.034088,707.136169L150.192886,707.137268L149.368698,707.305420L148.594208,707.633972L147.900528,708.109741L147.315155,708.713867L146.861404,709.422241L146.557449,710.206604L146.415253,711.035706L141.981415,778.815979L104.940201,735.350586L88.062004,621.994751L121.604744,368.178711L145.643631,322.893799L192.472183,325.648254L237.105164,376.602173z" fill="#000000" stroke="none" fill-opacity="1" />
				<polyline points="229.096527,304.100647 230.500885,279.524902 207.329575,199.478027 196.094910,192.456421 177.838669,178.413147 161.688934,158.752441 153.965149,144.007080 207.329575,159.454712 184.860367,127.155090 178.540878,109.601013 171.519241,80.812195 230.500992,108.196655 250.863708,116.622559 270.524353,121.537781 284.567657,119.431274 314.058441,118.026917 370.231537,122.239868 405.339661,128.559387 423.595917,132.772461 427.401886,145.583923 438.126709,192.932495 448.132324,244.673340 448.448456,255.418396 402.807861,327.039246 391.573273,342.486816 383.849426,350.912842 354.358582,338.273865 297.483398,306.676453 295.376862,329.847839" fill="#ADBF6F" stroke="none" fill-opacity="1" />
				<path d="M226.218567,303.936218L226.241745,304.500793L226.374664,305.050110L226.612183,305.562866L226.945221,306.019470L227.360870,306.402283L227.843231,306.696716L228.373764,306.891235L228.932144,306.978699L229.496780,306.955505L230.045990,306.822571L230.558807,306.585022L231.015305,306.252014L231.398209,305.836304L231.692566,305.354004L231.887222,304.823425L231.974533,304.265137L233.548569,279.698975L208.404938,199.166748L208.222794,198.803162L207.922897,198.528687L197.051239,191.079895L179.947754,176.235596L164.981918,156.570984L162.002625,150.573792L206.838852,161.150024L207.194305,161.214355L207.555328,161.205078L207.906921,161.122437L208.234467,160.969849L208.523987,160.753906L208.763535,160.483582L208.943024,160.170044L209.054764,159.826599L209.094376,159.467590L209.060028,159.107910L208.953262,158.762878L208.778458,158.446838L188.185272,125.438049L182.475876,108.416382L177.609970,88.226807L229.215714,110.964905L250.154068,118.337830L270.392303,122.065918L270.605103,122.076111L284.638184,120.147888L314.032562,119.924500L369.872711,125.061707L404.760529,131.380737L421.245300,135.273376L424.489594,146.345520L435.111481,193.565308L444.995544,245.020447L445.242767,254.534790L400.028229,325.145447L388.483643,339.960876L382.788666,345.983948L356.069305,334.786072L299.112000,303.744995L298.430389,303.459351L297.702881,303.330139L296.964630,303.363342L296.251617,303.557312L295.598358,303.902893L295.036713,304.383057L294.593811,304.974548L294.291229,305.648682L294.143677,306.372803L292.251434,329.563721L292.256012,330.178955L292.380585,330.781433L292.620209,331.348083L292.965942,331.856995L293.404144,332.288696L293.918304,332.626709L294.488464,332.857849L295.092712,332.973328L295.707947,332.968750L296.310425,332.844116L296.876953,332.604492L297.386017,332.258789L297.817780,331.820557L298.155670,331.306458L298.386841,330.736328L298.502380,330.132019L300.356812,312.109131L352.474487,341.665283L382.229462,354.692810L383.201813,354.973999L384.213348,355.009155L385.202881,354.796265L386.110474,354.348022L386.881012,353.691711L394.510376,345.179199L405.526733,329.016541L451.128845,257.126404L451.512482,256.263062L451.625488,255.324890L451.276642,244.580750L441.151245,192.347656L430.336121,144.919373L426.438568,131.927856L426.120026,131.215881L425.626831,130.611572L424.993103,130.156677L424.262756,129.882874L405.987091,125.753845L370.734802,119.443970L314.200134,116.138062L284.533386,118.712891L270.550964,120.983337L251.446899,114.854980L231.727692,105.401001L173.271286,77.038818L172.470184,76.762085L171.629730,76.653320L170.784592,76.717285L169.969986,76.951111L169.219727,77.345215L168.564835,77.883118L168.032639,78.542725L167.644958,79.296204L167.418137,80.112915L167.361603,80.958435L167.477417,81.797974L174.554214,110.573303L181.369797,128.411682L203.037140,156.374634L155.097656,140.094910L154.248001,139.944031L153.385559,139.975647L152.549225,140.188232L151.776413,140.572266L151.101898,141.110535L150.555954,141.778809L150.162964,142.547119L149.940720,143.381042L149.899124,144.242920L150.040115,145.094360L150.357285,145.896851L158.208328,160.575684L175.511337,180.324951L195.074142,193.783447L206.373199,200.200500L227.423447,279.872009z" fill="#000000" stroke="none" fill-opacity="1" />
				<polygon points="344.173340,332.382385 392.876190,297.079041 398.727539,329.749268 384.099152,351.204346 355.072601,338.038757" fill="#25067F" stroke="none" fill-opacity="1" />
				<path d="M341.951172,329.316772L341.395844,329.809143L340.947174,330.400452L340.622528,331.067932L340.434326,331.785889L340.389801,332.526855L340.490692,333.262146L340.733124,333.963745L341.107819,334.604492L341.600189,335.159912L342.191437,335.608521L342.858978,335.933167L343.576996,336.121338L344.317871,336.165894L345.053253,336.065002L345.754791,335.822571L346.395538,335.447998L392.876190,297.079041L395.087921,328.971252L382.646484,346.021667L356.766602,334.552185L345.917480,329.021729L345.228363,328.745972L344.498627,328.609985L343.756439,328.619080L343.030304,328.772827L342.348022,329.065063L341.735931,329.484863L341.217499,330.016113L340.812714,330.638184L340.536957,331.327332L340.401031,332.057068L340.410126,332.799255L340.563751,333.525391L340.856171,334.207642L341.275909,334.819763L341.807159,335.338135L342.429260,335.743042L353.287628,341.478088L382.397400,354.956360L383.309814,355.247864L384.264954,355.320862L385.211029,355.171387L386.097076,354.807312L386.875122,354.248596L387.503082,353.525269L401.574341,331.690308L401.975983,330.897888L402.161713,330.029175L402.119141,329.141846L392.876190,297.079041z" fill="#000000" stroke="none" fill-opacity="1" />
				<polygon points="289.655701,212.849976 313.020386,214.542969 340.109985,211.495483 336.385132,244.680176 339.771332,256.870361 310.988678,240.616638 297.105316,235.537415 276.449493,230.119446 276.788116,224.024353 272.666321,209.376831" fill="#25067F" stroke="none" fill-opacity="1" />
				<path d="M289.809509,210.727173L289.392395,210.737915L288.985352,210.829895L288.604187,210.999451L288.263397,211.240173L287.976105,211.542786L287.753265,211.895447L287.603577,212.284973L287.532867,212.696167L287.543610,213.113281L287.635590,213.520325L287.805176,213.901489L288.045898,214.242249L288.348389,214.529602L288.701202,214.752380L289.090637,214.902039L289.501892,214.972778L312.838837,217.049194L335.465485,216.141174L335.700592,244.603333L335.721405,244.864502L339.771332,256.870361L312.385101,238.143921L298.000763,233.089844L278.871399,228.355896L278.984924,224.146484L275.343719,211.866394L289.229340,214.935181L289.644409,214.978333L290.059845,214.939575L290.459747,214.820618L290.828766,214.625916L291.152618,214.362976L291.419067,214.041809L291.617706,213.674866L291.740967,213.276306L291.783997,212.861206L291.745331,212.445801L291.626373,212.045837L291.431641,211.676880L291.168610,211.352966L290.847473,211.086609L290.480591,210.887878L290.081909,210.764709L273.047394,207.512451L272.660583,207.473938L272.273865,207.514771L271.903625,207.633362L271.565277,207.824829L271.272736,208.081055L271.038422,208.391296L270.872101,208.742737L270.780731,209.120605L270.767975,209.509216L270.834503,209.892212L274.570984,224.267944L274.132690,229.990784L274.163757,230.518494L274.313293,231.025452L274.573761,231.485413L274.931549,231.874512L275.368134,232.172485L275.860809,232.363953L296.325256,238.027344L309.794708,243.203857L339.771332,256.870361L337.084534,244.624390L344.181671,211.952515L344.181335,211.035339L343.976959,210.141235L343.578827,209.314880L343.006836,208.597900L342.289642,208.026123L341.463257,207.628174L340.569153,207.424072L339.651886,207.423889L312.970337,212.020142z" fill="#000000" stroke="none" fill-opacity="1" />
				<polygon points="410.298431,206.688232 395.897491,209.562073 378.793213,207.900024 383.809845,240.785583 382.694153,253.107422 399.282196,235.446106 407.508057,229.678772 419.920410,223.230042 419.214020,217.172363 420.587555,202.364014" fill="#25067F" stroke="none" fill-opacity="1" />
				<path d="M410.674164,208.571228L411.034271,208.461731L411.366150,208.284180L411.656982,208.045227L411.895569,207.754089L412.072876,207.421936L412.181915,207.061768L412.218536,206.687073L412.181427,206.312500L412.071930,205.952454L411.894348,205.620483L411.655334,205.329712L411.364258,205.091125L411.032104,204.913818L410.671875,204.804810L410.297302,204.768250L409.922699,204.805359L395.776459,207.146362L379.143616,204.293701L378.321655,204.307495L377.523926,204.506226L376.791595,204.879700L376.162292,205.408630L375.668365,206.065918L375.335327,206.817566L375.180298,207.624878L375.211273,208.446350L383.290283,240.801514L382.694153,253.107422L400.430664,236.771301L408.532745,231.367859L420.826904,224.974976L421.217926,224.707397L421.533661,224.354126L421.755707,223.935608L421.871185,223.476074L421.873413,223.002380L421.177277,217.149170L422.518005,202.542969L422.513763,202.144104L422.428009,201.754517L422.264282,201.390808L422.029663,201.068237L421.733978,200.800537L421.389709,200.598999L421.011475,200.472168L420.615356,200.425476L420.217987,200.460815L419.836365,200.576721L409.554535,204.918213L409.223480,205.097351L408.933777,205.337646L408.696503,205.629822L408.520721,205.962646L408.413391,206.323425L408.378357,206.698120L408.417206,207.072510L408.528381,207.432251L408.707489,207.763245L408.947723,208.052979L409.239990,208.290222L409.572784,208.465942L409.933533,208.573364L410.308319,208.608398L410.682739,208.569458L411.042358,208.458374L418.358490,205.403748L417.269623,216.992065L417.810333,222.110596L406.599243,227.929688L398.280853,234.017944L382.694153,253.107422L384.323669,240.832153L383.077362,211.956787L395.666046,211.943665z" fill="#000000" stroke="none" fill-opacity="1" />
				<polygon points="314.459656,230.415833 325.074219,222.903992 328.993439,237.927551 327.033875,249.195312 310.988678,240.616638" fill="#EDEEEB" stroke="none" fill-opacity="1" />
				<polygon points="401.505951,225.843384 391.613892,218.331665 387.961426,233.355164 389.787689,244.622864 402.781097,233.268250" fill="#EDEEEB" stroke="none" fill-opacity="1" />
				<polyline points="332.470276,438.584412 320.279968,380.558167 296.386932,364.954407 310.664124,337.453003 262.098083,313.462585 217.042755,304.685547 220.553574,329.261108 193.734787,320.971619 207.875580,371.683716 193.315613,501.268066 216.409561,691.195679 255.842911,841.851624 367.065063,893.418457 406.498444,928.807434 416.609528,995.540955 429.753967,1013.741028 496.147491,1041.696289 583.507202,1053.926758 648.153564,1032.960327 674.361511,1003.257751 644.659180,977.049622 559.046509,931.622192 525.849731,889.689148 497.894684,842.514526 459.456329,830.284058 421.018005,734.187622" fill="#9B117F" stroke="none" fill-opacity="1" />
				<path d="M327.990997,439.525452L328.260681,440.381226L328.692108,441.167969L329.268707,441.855408L329.968353,442.417175L330.764191,442.831604L331.625580,443.082886L332.519348,443.161255L333.411316,443.063721L334.267090,442.794006L335.053864,442.362610L335.741333,441.786011L336.303070,441.086365L336.717499,440.290588L336.968719,439.429199L337.047150,438.535339L336.949585,437.643372L323.874878,379.802917L323.557037,378.898438L323.015961,378.106995L322.288574,377.482483L299.238342,364.205933L313.691254,339.024475L313.967529,338.302063L314.073792,337.536011L314.004822,336.765564L313.764099,336.030518L313.363892,335.368774L312.824768,334.814026L312.174683,334.395142L263.430634,310.765015L217.592743,301.862366L216.987305,301.809814L216.384430,301.885742L215.810867,302.086548L215.292252,302.403381L214.851837,302.822144L214.509247,303.324036L214.279800,303.886658L214.173599,304.485107L214.195465,305.092407L217.986542,326.253052L194.575943,318.250427L193.978226,318.133789L193.369217,318.146912L192.777039,318.289185L192.228531,318.554260L191.749023,318.929810L191.360321,319.398682L191.080170,319.939514L190.921387,320.527588L190.891281,321.135864L190.991196,321.736694L205.501282,371.874146L190.139175,500.911072L210.991287,691.854492L253.122192,842.563721L253.444687,843.320496L253.972321,843.951660L254.659943,844.403076L364.903412,896.698059L401.890747,931.294128L413.309509,996.040955L413.903748,997.495178L427.084808,1015.668823L428.476227,1016.775513L493.718628,1047.464722L582.496948,1061.143677L585.755432,1060.858643L649.831909,1038.135254L652.232910,1036.559814L678.101746,1006.557983L678.742371,1005.642944L679.163269,1004.608276L679.343384,1003.505981L679.273682,1002.391174L678.957703,1001.319824L678.411255,1000.345642L677.661682,999.517517L647.585449,973.733093L560.919800,929.373108L528.740173,887.702026L501.124786,840.600403L500.232025,839.576050L499.033020,838.936584L462.508820,827.002075L423.654114,733.133179L423.397736,732.639160L423.049896,732.204590L422.624054,731.846313L422.136414,731.578003L421.605774,731.409912L421.052582,731.348633L420.498108,731.396423L419.963562,731.551514L419.469543,731.807861L419.035034,732.155701L418.676727,732.581604L418.408386,733.069214L418.240295,733.599731L418.179047,734.153015L418.226807,734.707520L418.381866,735.242065L455.693146,831.789307L456.290985,832.815430L457.160675,833.624268L458.227386,834.146301L495.393585,845.658875L522.839111,891.473267L556.800415,933.400391L557.703796,934.152832L642.124573,980.711731L667.321045,1003.697754L645.059082,1028.244629L582.855469,1046.477173L497.823822,1035.611206L431.882599,1011.064758L419.788513,994.242004L411.371002,928.069153L410.835358,926.466858L409.790070,925.139648L369.659729,890.527344L258.227997,839.857544L221.783310,690.170532L196.533783,501.253357L210.199188,371.944763L210.127945,371.055664L197.880432,325.234314L219.928833,331.282654L220.392609,331.370789L220.864395,331.354004L221.320770,331.232971L221.738953,331.013733L222.098068,330.707275L222.380264,330.328735L222.571625,329.897156L222.662369,329.433899L222.648178,328.961914L220.461960,308.281921L261.126984,316.338684L306.033844,338.969788L294.446930,363.947327L294.260498,364.448364L294.201233,364.979614L294.272705,365.509399L294.470673,366.006042L294.783142,366.439697L295.191711,366.784546L316.997742,382.802063z" fill="#000000" stroke="none" fill-opacity="1" />
				<polyline points="647.992493,927.286743 613.446045,884.314453" fill="#ADBF6F" stroke="none" fill-opacity="1" />
				<path d="M643.842957,930.622681L644.573486,931.368042L645.435364,931.956665L646.395630,932.365784L647.417114,932.579712L648.460815,932.590271L649.486450,932.396973L650.454712,932.007324L651.328369,931.436279L652.073792,930.705688L652.662415,929.843811L653.071533,928.883606L653.285400,927.862061L653.295959,926.818359L653.102661,925.792725L652.713013,924.824463L652.141968,923.950806L617.075989,881.396240L616.436951,880.744202L615.682861,880.229309L614.843018,879.871460L613.949341,879.684265L613.036438,879.675049L612.139099,879.844116L611.292114,880.184998L610.527893,880.684570L609.875793,881.323608L609.360901,882.077576L609.003113,882.917542L608.815979,883.811157L608.806702,884.724121L608.975708,885.621338L609.316650,886.468384L609.816162,887.232544z" fill="#000000" stroke="none" fill-opacity="1" />
				<polyline points="607.126587,893.442505 583.955261,892.740356 573.422791,888.527344 573.422791,882.910095 597.296326,855.525879 605.020142,837.971863 617.658997,807.076904 627.489258,827.439514 633.808716,854.823730 631.000061,875.186401" fill="#25067F" stroke="none" fill-opacity="1" />
				<path d="M606.997375,897.707397L607.831848,897.650635L608.639282,897.432190L609.388611,897.060425L610.050842,896.549622L610.600891,895.919434L611.017334,895.194031L611.284363,894.401306L611.391479,893.571777L611.334656,892.737244L611.116333,891.929810L610.744507,891.180542L610.233643,890.518188L609.603577,889.968201L608.878113,889.551758L608.085388,889.284790L607.255859,889.177612L584.618530,889.556519L576.325623,886.562134L576.336548,884.001831L599.724854,857.643066L607.326721,838.986816L617.800598,811.684814L625.451050,828.156616L630.189636,854.986206L626.227295,874.528076L626.190613,875.471802L626.338684,876.404602L626.666016,877.290588L627.159729,878.095703L627.801147,878.789062L628.565369,879.343933L629.423340,879.739014L630.341736,879.959106L631.285522,879.995850L632.218323,879.847778L633.104309,879.520508L633.909424,879.026733L634.602844,878.385376L635.157654,877.621094L635.552673,876.763184L635.772827,875.844666L637.338257,855.310547L629.581604,826.956665L619.348267,806.261353L619.141846,805.927979L618.870605,805.644836L618.546387,805.424316L618.183533,805.275879L617.797729,805.206177L617.405762,805.218262L617.024902,805.311523L616.671753,805.481934L616.361816,805.721924L616.108459,806.021240L615.922974,806.366699L602.700195,836.987183L594.545044,853.778809L571.226562,880.995422L570.694458,881.887756L570.509155,882.910095L570.520142,888.527344L570.601990,889.211914L570.842957,889.857788L571.229431,890.428650L571.739624,890.892273L572.344788,891.222473L582.765930,895.713745z" fill="#000000" stroke="none" fill-opacity="1" />
				<polygon points="632.544922,875.326843 649.396851,859.177246 667.653015,833.899475 669.057312,844.431885 664.844299,887.263611 647.992493,927.286743 630.297913,934.869995 601.509338,926.444092 591.679016,916.613770 596.594116,901.166260 614.569580,888.246582" fill="#25067F" stroke="none" fill-opacity="1" />
				<path d="M629.203369,871.840027L628.587341,872.558960L628.123352,873.384216L627.829285,874.284180L627.716492,875.224121L627.789246,876.168091L628.044800,877.079712L628.473145,877.923950L629.058044,878.668457L629.776978,879.284546L630.602295,879.748413L631.502136,880.042480L632.442200,880.155273L633.386230,880.082520L634.297729,879.827026L635.142090,879.398682L635.886536,878.813721L651.993225,861.886536L665.785645,841.321533L665.831604,844.487549L659.364136,885.874329L643.919556,923.239685L630.036133,930.517700L603.118896,923.728577L595.048462,915.793945L599.616211,903.359558L617.300110,892.045776L635.363647,879.248535L636.074524,878.623291L636.649841,877.871338L637.067261,877.021667L637.311035,876.106812L637.371582,875.161987L637.246765,874.223511L636.941101,873.327454L636.466614,872.508240L635.841248,871.797302L635.089417,871.222046L634.239685,870.804504L633.324829,870.560791L632.380005,870.500244L631.441650,870.625122L630.545532,870.930725L629.726257,871.405273L611.838928,884.447388L594.525391,898.287842L593.725464,899.084106L593.216248,900.091492L588.856323,915.715637L588.718628,916.511108L588.800781,917.314087L589.096741,918.065186L589.584534,918.708374L599.346802,928.606567L600.650269,929.379150L629.145264,938.808228L630.544312,938.966064L631.914368,938.641663L650.089783,932.180420L651.259705,931.490540L652.217041,930.527161L652.899414,929.352783L669.996094,889.432739L672.246704,844.745544L670.459900,833.525146L670.313843,832.930481L670.043274,832.381042L669.660950,831.902588L669.184692,831.517639L668.636719,831.244019L668.042908,831.094604L667.430786,831.076416L666.828979,831.190186L666.265747,831.430725L665.767395,831.786621L665.357361,832.241455L646.554199,856.703735z" fill="#000000" stroke="none" fill-opacity="1" />
				<polyline points="542.603760,909.660767 553.162659,897.881653 563.321228,893.931091 585.331665,901.267822 579.405762,922.149292 568.400574,928.357300 558.806274,928.921631" fill="#25067F" stroke="none" fill-opacity="1" />
				<path d="M540.342651,907.633911L539.990601,908.114014L539.739075,908.653503L539.597595,909.231750L539.571655,909.826477L539.662170,910.414795L539.865845,910.974243L540.174622,911.483154L540.576904,911.921997L541.057007,912.274048L541.596436,912.525513L542.174683,912.666992L542.769470,912.692993L543.357849,912.602417L543.917175,912.398804L544.426086,912.089966L544.864990,911.687744L554.866699,900.343628L563.395508,896.952515L581.538757,903.272827L577.016113,920.268250L567.584839,925.584961L558.638855,926.075562L558.086792,926.162903L557.562439,926.356323L557.085938,926.648254L556.675415,927.027527L556.346863,927.479675L556.112854,927.987183L555.982239,928.530640L555.960144,929.089050L556.047607,929.641113L556.240906,930.165527L556.532837,930.642090L556.912170,931.052490L557.364319,931.381104L557.871765,931.615112L558.415283,931.745728L558.973755,931.767700L568.565918,931.167847L569.783813,930.809448L580.787537,924.598877L581.371338,924.160889L581.822693,923.587402L582.111267,922.917114L588.315369,902.114563L588.427856,901.449463L588.393860,900.775696L588.214966,900.125244L587.899719,899.528809L587.463013,899.014648L586.925354,898.607178L586.312378,898.325500L564.220276,891.234070L563.251465,891.089050L562.290771,891.281494L552.107056,895.167480L550.994080,895.937805z" fill="#000000" stroke="none" fill-opacity="1" />
				<polygon points="231.194748,1005.400024 199.923187,1017.667114 189.195618,1015.229004 174.028763,989.951050 152.963852,940.237793 152.121216,911.589417 194.251160,951.191528 224.584763,964.673096 247.334930,979.839844 243.121887,995.849243" fill="#25067F" stroke="none" fill-opacity="1" />
				<path d="M232.382309,1008.427368L232.950043,1008.137451L233.450363,1007.742432L233.864090,1007.257446L234.175125,1006.700928L234.371628,1006.094482L234.446121,1005.461365L234.395599,1004.825928L234.222107,1004.212463L233.932175,1003.644653L233.537231,1003.144409L233.052109,1002.730774L232.495651,1002.419678L231.889297,1002.223083L231.256088,1002.148682L230.620651,1002.199158L230.007248,1002.372681L199.564758,1012.909302L192.218353,1011.056396L177.470856,988.200073L155.868820,939.603088L155.142456,918.303101L192.267899,953.301331L223.222794,967.147705L243.984680,981.111328L240.409882,994.086121L229.162033,1002.861633L228.705887,1003.307007L228.345398,1003.832764L228.094421,1004.418762L227.962585,1005.042419L227.954926,1005.679932L228.071762,1006.306519L228.308655,1006.898376L228.656387,1007.432678L229.101746,1007.888855L229.627472,1008.249329L230.213470,1008.500366L230.837173,1008.632263L231.474625,1008.639832L232.101288,1008.523010L232.693115,1008.286133L233.227386,1007.938416L245.041626,998.246765L245.696930,997.523315L246.092148,996.630859L250.155197,980.582031L250.251114,979.867004L250.168488,979.150269L249.912476,978.475708L249.498764,977.884705L248.952545,977.413330L226.145844,962.331299L195.876221,948.745117L154.054413,909.532837L153.573364,909.169067L153.026108,908.915833L152.437531,908.784668L151.834488,908.781494L151.244492,908.906494L150.694611,909.153931L150.209824,909.512573L149.812256,909.966003L149.520035,910.493591L149.346725,911.071167L149.299850,911.672363L150.042633,940.323669L150.272995,941.377930L170.481659,991.454163L185.132172,1017.667114L185.926147,1018.659180L186.955261,1019.404724L188.145462,1019.849976L198.912567,1022.113770L200.265656,1022.214294L201.588409,1021.912231z" fill="#000000" stroke="none" fill-opacity="1" />
				<polyline points="233.853317,1004.275208 260.816406,1021.127258 268.399902,1028.710693 268.399902,1038.821777 260.816406,1043.877319 221.214294,1035.451416 204.362228,1019.442017" fill="#25067F" stroke="none" fill-opacity="1" />
				<path d="M235.544174,1001.569824L234.983871,1001.291992L234.380203,1001.128723L233.756165,1001.086426L233.136002,1001.166626L232.543304,1001.366333L232.000977,1001.677734L231.529831,1002.089111L231.147995,1002.584351L230.870087,1003.144653L230.706879,1003.748352L230.664536,1004.372375L230.744705,1004.992615L230.944458,1005.585266L231.255844,1006.127563L231.667145,1006.598755L232.162476,1006.980591L258.342865,1024.236572L264.037476,1030.517578L263.906891,1036.417236L259.956055,1039.383545L222.875015,1032.297852L207.387253,1016.257874L206.707932,1015.728943L205.938431,1015.342651L205.108398,1015.113953L204.249741,1015.051514L203.395340,1015.157837L202.578094,1015.428833L201.829437,1015.854004L201.178162,1016.417114L200.649094,1017.096375L200.262924,1017.865906L200.034195,1018.695923L199.971771,1019.554626L200.078140,1020.408997L200.349030,1021.226196L200.774231,1021.974915L201.337341,1022.626160L218.851776,1037.938232L220.500473,1038.806519L259.939056,1048.001465L261.053467,1048.087036L262.151245,1047.876831L263.155273,1047.385620L270.892120,1042.560181L271.726624,1041.841797L272.361206,1040.941895L272.757965,1039.914673L272.892914,1038.821777L272.762207,1028.710693L272.613586,1027.581543L272.177826,1026.529419L271.484528,1025.625977L263.607941,1018.335693z" fill="#000000" stroke="none" fill-opacity="1" />
				<polyline points="295.378479,228.534058 296.063904,224.349243 300.219910,222.011414 302.297913,226.167480 300.739471,230.323425 297.102875,232.401367" fill="#EDEEEB" stroke="none" fill-opacity="1" />
				<polyline points="407.946564,221.572327 406.372192,217.634766 408.723572,213.486572 412.649475,215.972046 413.461334,220.335754 411.420532,223.993225" fill="#EDEEEB" stroke="none" fill-opacity="1" />
			</g>
			<g id="layer.apron.uuid_0x6">
				<polyline points="586.987854,412.124084 578.224976,328.370422 537.780579,376.903870" fill="#BE6D79" stroke="none" fill-opacity="1" />
				<path d="M583.320129,412.507874L583.465454,413.216064L583.746216,413.882263L584.151550,414.480896L584.665771,414.988953L585.269287,415.386963L585.938904,415.659485L586.648743,415.796265L587.371704,415.791870L588.079834,415.646545L588.746033,415.365845L589.344604,414.960571L589.852783,414.446228L590.250671,413.842712L590.523254,413.173218L590.660034,412.463318L590.655640,411.740356L582.465271,327.926758L582.275635,327.040588L581.903076,326.214478L581.364319,325.485779L580.683777,324.887451L579.892029,324.446472L579.025085,324.182739L578.121887,324.108276L577.223267,324.226379L576.370117,324.531738L575.600647,325.010437L574.949829,325.641052L535.124268,374.690247L534.743408,375.251038L534.479248,375.875305L534.342041,376.539124L534.336853,377.216980L534.464111,377.882690L534.718872,378.510986L535.091187,379.077332L535.566895,379.560303L536.127686,379.941162L536.751953,380.205200L537.415833,380.342407L538.093628,380.347534L538.759460,380.220337L539.387634,379.965576L539.954102,379.593262L540.436951,379.117493L575.035583,338.857300z" fill="#000000" stroke="none" fill-opacity="1" />
				<polyline points="199.732407,550.646729 276.576874,486.946533 216.247330,337.470459" fill="#BE6D79" stroke="none" fill-opacity="1" />
				<path d="M197.967911,548.518066L197.586548,548.903198L197.287613,549.355347L197.082596,549.857117L196.979538,550.389282L196.982178,550.931274L197.090561,551.462341L197.300430,551.962097L197.603760,552.411316L197.988907,552.792664L198.441071,553.091553L198.942902,553.296570L199.474915,553.399658L200.017029,553.397034L200.548096,553.288635L201.047806,553.078796L201.497040,552.775391L279.754883,490.780334L280.611816,489.864990L281.212860,488.764709L281.520020,487.549072L281.513824,486.295288L281.194672,485.082825L218.066193,336.736328L217.887970,336.395630L217.646774,336.096191L217.351746,335.849609L217.014359,335.665283L216.647476,335.550354L216.265121,335.509094L215.882202,335.543396L215.513245,335.651672L215.172516,335.829773L214.873123,336.070984L214.626450,336.366028L214.442139,336.703430L214.327225,337.070312L214.286041,337.452637L214.320328,337.835571L214.428589,338.204590L270.596985,485.435425z" fill="#000000" stroke="none" fill-opacity="1" />
				<polygon points="92.385803,464.870728 157.265625,383.981873 217.089859,331.741028 212.034286,516.269226 310.617828,394.935669 435.321869,484.250671 526.322144,357.861511 588.674133,412.630127 496.831390,573.565613 474.923859,782.528931 444.590454,819.603088 438.692261,769.047485 415.942200,851.621704 323.256805,806.964111 256.691833,900.492126 189.284195,610.639771 140.835052,537.755249" fill="#EFACD4" stroke="none" fill-opacity="1" />
				<path d="M87.065224,460.603149L86.334862,461.723145L85.837097,462.964111L85.590988,464.278381L85.605927,465.615295L85.881500,466.923706L86.406960,468.153198L87.162262,469.256470L88.118195,470.191345L89.238220,470.921631L90.479111,471.419434L91.793465,471.665588L93.130417,471.650635L94.438759,471.375061L95.668266,470.849609L96.771645,470.094360L97.706451,469.138306L159.350677,385.981567L214.857559,336.480591L208.832870,516.181458L208.883286,516.842041L209.068497,517.478088L209.380707,518.062378L209.806427,518.569946L210.327469,518.979126L210.921478,519.272278L211.563217,519.437012L212.225021,519.466125L212.878632,519.358521L213.496170,519.118652L214.051208,518.756958L214.519897,518.288818L311.270447,399.795715L432.686310,487.930481L433.569733,488.424072L434.540802,488.708984L435.550873,488.771179L436.549438,488.607239L437.486694,488.225647L438.315735,487.645386L438.995117,486.895325L526.897095,362.926758L583.970154,413.416992L493.397156,571.605835L492.898865,573.153320L472.166931,781.379272L447.274445,810.434814L441.495972,768.720337L441.364349,768.137634L441.113037,767.595581L440.753235,767.118652L440.301117,766.728149L439.776978,766.441528L439.204285,766.271545L438.608521,766.225952L438.016602,766.306824L437.454926,766.510376L436.948700,766.827637L436.520599,767.244324L436.189728,767.741699L435.970978,768.297668L412.962158,845.062988L324.477783,804.430115L323.858185,804.216309L323.205933,804.151733L322.556427,804.239868L321.944977,804.475891L321.404755,804.847046L320.965057,805.333130L258.058716,893.572327L189.953888,610.484009L144.160019,535.545044L98.066017,461.094910L97.220253,460.059265L96.188736,459.208557L95.010971,458.575500L93.732376,458.184326L92.402115,458.050049L91.071114,458.177979L89.790749,458.563049L88.610001,459.190552L87.574364,460.036316L86.723732,461.067871L86.090523,462.245605L85.699371,463.524170L85.565186,464.854492L85.693077,466.185425L86.078171,467.465820L86.705643,468.646545L137.509979,539.965454L188.642639,610.916748L253.868362,901.148743L254.065536,901.719238L254.376526,902.236511L254.787994,902.678101L255.281982,903.025024L255.837021,903.262085L256.429199,903.379028L257.032715,903.370850L257.621460,903.237854L258.169952,902.985840L258.654266,902.625671L259.053558,902.173035L324.172943,810.527954L413.938995,855.779358L414.889557,856.115112L415.890259,856.236511L416.893494,856.137695L417.851349,855.823364L418.718109,855.308655L419.452454,854.617920L420.019226,853.784302L420.391541,852.847473L437.566864,783.759521L440.887177,820.035156L441.061890,820.807129L441.395538,821.524902L441.873199,822.156128L442.473419,822.672180L443.168976,823.049927L443.928619,823.272339L444.718140,823.329346L445.501892,823.218384L446.244568,822.944458L446.912659,822.520020L447.476074,821.964111L477.138672,784.341125L477.565094,783.630432L477.770020,782.827393L500.677277,574.804016L591.883850,414.461792L592.214844,413.688538L592.362427,412.860413L592.319092,412.020447L592.086792,411.211975L591.677612,410.477051L591.112976,409.853577L528.583252,355.287292L528.001587,354.875122L527.347290,354.592163L526.648621,354.450806L525.935791,354.457153L525.239624,354.610779L524.590454,354.905090L524.016052,355.327454L523.541687,355.859497L434.286804,477.941772L312.697266,392.032227L312.027679,391.654419L311.292633,391.428772L310.526337,391.365601L309.764374,391.467896L309.041809,391.731018L308.392456,392.142578L307.846252,392.683655L215.493912,506.932434L219.190750,331.798645L219.156357,331.358276L219.030762,330.934814L218.819443,330.546997L218.531631,330.211914L218.180252,329.944336L217.780609,329.756104L217.350586,329.655579L216.908966,329.647156L216.475296,329.731201L216.068863,329.904053L215.707458,330.157959L155.372833,381.814331z" fill="#000000" stroke="none" fill-opacity="1" />
				<polyline points="158.108200,575.250610 230.571381,510.371033 254.163956,506.158081 297.136414,523.009949 332.525299,568.510010 360.331024,619.065674 382.238464,708.380676 387.294128,769.047485 349.377319,714.278809 303.034576,640.973145 281.127014,618.222900 296.293762,695.741760 309.775330,794.325317 305.562347,849.936462 278.599335,783.371521 244.052994,708.942383 226.217880,658.105652 245.881973,714.510803 260.139709,764.076782 275.442963,811.573975 291.217743,880.465698 226.349503,815.433472 175.146851,708.283997 155.690399,624.950195" fill="#ADBF6F" stroke="none" fill-opacity="1" />
				<path d="M157.850021,574.962219L157.798752,575.018066L157.759323,575.083008L157.733398,575.154236L157.721786,575.229248L157.724991,575.305054L157.743011,575.378784L157.775055,575.447510L157.819916,575.508789L157.875824,575.560059L157.940659,575.599426L158.011963,575.625488L158.086853,575.637024L158.162674,575.633789L158.236374,575.615784L158.305206,575.583740L158.366379,575.538940L232.233124,513.780823L253.705734,510.794678L293.027039,528.509094L326.545593,572.444458L355.206299,621.063354L378.932037,708.920532L383.617432,758.795776L352.170471,712.430237L307.056610,638.430420L284.376923,615.093384L283.638123,614.474487L282.784668,614.026733L281.855560,613.770386L280.893250,613.717285L279.941650,613.869690L279.044098,614.220764L278.241577,614.754517L277.570740,615.446472L277.062225,616.265137L276.739136,617.173096L276.616241,618.129028L276.699188,619.089294L291.765961,696.493652L306.878601,794.412659L303.664398,837.759949L281.595612,782.157898L249.156586,706.868408L227.489502,657.659546L227.368973,657.405090L227.198349,657.181213L226.984879,656.997681L226.737839,656.862488L226.468216,656.781555L226.187668,656.758423L225.908386,656.794128L225.642654,656.887085L225.401978,657.033203L225.196899,657.226196L225.036453,657.457520L224.927612,657.717102L224.875015,657.993713L224.881042,658.275208L224.945465,658.549255L240.560989,716.202148L256.233826,765.200317L272.602783,812.355103L285.379242,869.894714L228.731644,813.750854L178.668823,707.047729L156.759628,624.700562L156.690445,624.496704L156.582809,624.310425L156.440796,624.148560L156.269989,624.017578L156.076874,623.922424L155.868942,623.866760L155.654129,623.852783L155.440750,623.880920L155.236877,623.950195L155.050507,624.057861L154.888748,624.199829L154.757767,624.370605L154.662613,624.563721L154.606934,624.771606L154.592972,624.986450L154.621124,625.199829L171.533203,709.127686L223.755630,816.672974L288.858887,882.818604L289.415741,883.268127L290.055786,883.588257L290.749451,883.764404L291.464722,883.788269L292.168579,883.658875L292.828491,883.382202L293.414215,882.970886L293.898529,882.444031L294.259186,881.825928L294.479431,881.145020L294.549225,880.432800L294.465393,879.722046L278.311615,810.917114L264.027740,762.891602L251.245667,712.967896L226.662781,659.377625L238.860870,710.763977L275.633240,784.659668L302.955780,850.992310L303.227234,851.503784L303.597626,851.948730L304.051392,852.308411L304.569092,852.567627L305.128967,852.715210L305.707184,852.745117L306.279205,852.655884L306.820953,852.451477L307.309296,852.140503L307.723633,851.736023L308.046356,851.255310L308.263702,850.718750L308.366608,850.148926L312.648987,794.542969L300.839478,695.120117L288.493713,632.377441L299.271240,643.924988L346.546722,716.068237L384.981598,770.648315L385.348785,771.078735L385.794617,771.426880L386.301086,771.678833L386.847778,771.824341L387.412537,771.857483L387.972443,771.776978L388.504883,771.585999L388.988403,771.292297L389.403381,770.907837L389.733063,770.448059L389.963989,769.931641L390.086945,769.379456L390.096893,768.813843L385.566742,708.103271L365.627075,617.766602L338.777679,565.071228L302.361755,518.945801L299.553162,516.847046L255.801041,501.983643L253.375793,501.744019L229.929932,506.779114L228.137451,507.652588z" fill="#000000" stroke="none" fill-opacity="1" />
				<polyline points="586.708191,643.079468 559.745056,698.690674 520.985779,757.672241 456.386780,810.334351 491.354492,739.135071 518.879211,671.446777 526.322266,651.083923 513.261902,669.902039 483.209381,715.963867 438.692261,774.945435 442.905212,728.602722 477.451691,646.168945 485.035278,634.231934 499.359314,611.481934 492.337769,612.886353 464.953186,622.576355 422.683014,648.556274 389.821808,679.732239 392.349579,653.611816 420.155151,582.833923 486.720184,518.796753 503.572083,514.583801 529.692505,526.380066 561.242981,570.967590" fill="#ADBF6F" stroke="none" fill-opacity="1" />
				<path d="M592.403748,645.840942L592.833008,644.676758L593.026917,643.451111L592.978027,642.211243L592.688110,641.004761L592.168457,639.877930L591.439026,638.874146L590.527771,638.032104L589.469604,637.383789L588.305420,636.954590L587.079834,636.760620L585.839905,636.809570L584.633423,637.099365L583.506653,637.619019L582.502930,638.348572L581.660706,639.259888L581.012512,640.317932L557.106506,697.192505L519.131592,755.999146L466.374573,797.771118L493.878937,740.375000L521.677673,672.584717L530.418213,652.581177L530.637939,651.711243L530.674927,650.814819L530.527771,649.929810L530.202576,649.093567L529.713135,648.341675L529.080139,647.705811L528.330566,647.212891L527.495850,646.883789L526.611572,646.732544L525.714905,646.765381L524.843994,646.981079L524.035706,647.370361L523.324097,647.916931L522.739563,648.597412L510.792969,668.188477L480.892761,714.336731L442.423218,765.286194L445.678223,729.292358L480.239197,647.625183L488.642914,636.523865L503.707092,614.219421L504.185486,613.244141L504.448120,612.190063L504.483124,611.104309L504.289276,610.035461L503.875031,609.031250L503.258728,608.136597L502.468292,607.391602L501.538788,606.829346L500.511810,606.475098L499.433472,606.344727L498.351654,606.443970L491.424316,608.319214L463.761108,619.207336L420.714386,645.353271L394.654541,669.831421L396.537689,654.616333L423.648499,585.170532L488.779114,522.516724L503.181274,518.934021L526.732422,529.969788L555.480103,575.045471L556.386353,576.091431L557.479370,576.940430L558.716797,577.559937L560.051514,577.926086L561.431946,578.024902L562.805115,577.852417L564.118286,577.415283L565.320862,576.730530L566.366821,575.824219L567.215881,574.731323L567.835388,573.493774L568.201599,572.159058L568.300232,570.778687L568.127747,569.405518L567.690674,568.092407L567.005859,566.889709L533.357727,523.786621L531.540527,522.288147L505.270142,510.823914L503.941284,510.474792L502.571533,510.581360L485.723877,514.811157L483.872009,515.836121L417.308685,579.875061L416.333710,581.332642L388.379578,652.052246L385.983246,679.360840L385.986847,680.139160L386.146729,680.901062L386.456299,681.615356L386.903015,682.252869L387.468597,682.787659L388.130219,683.197998L388.860626,683.467041L389.630249,683.583984L390.407654,683.544067L391.161255,683.348755L391.860168,683.006104L392.476105,682.530029L424.985901,651.553772L466.502075,625.819092L493.577637,617.388184L495.128052,614.396240L481.422974,631.947327L474.806641,644.488586L440.300720,727.511230L435.862854,774.688232L435.873230,775.299072L436.014130,775.893616L436.278778,776.444336L436.655090,776.925720L437.125641,777.315552L437.668610,777.595703L438.258942,777.753296L438.869293,777.781006L439.471497,777.677612L440.037628,777.447754L440.541595,777.102234L440.959961,776.656982L485.467529,717.668213L515.755371,671.580200L524.313904,654.955078L516.060364,670.358887L488.786285,737.984009L453.311066,808.823792L453.064941,809.493408L452.962830,810.199402L453.009064,810.911255L453.201721,811.598145L453.532379,812.230225L453.986725,812.780151L454.545197,813.224121L455.183350,813.542725L455.873749,813.722412L456.586365,813.755249L457.290283,813.639771L457.955139,813.381104L458.551971,812.990356L522.545349,759.585449L562.275452,700.353516z" fill="#000000" stroke="none" fill-opacity="1" />
			</g>
		</g>
	</g>
</svg>
