<?xml version="1.0" encoding="UTF-8"?>
<!-- Generator: Blender, SVG Export for Grease Pencil - v2.0 -->
<!DOCTYPE svg PUBLIC "-//W3C//DTD SVG 1.1//EN" "http://www.w3.org/Graphics/SVG/1.1/DTD/svg11.dtd">
<svg version="1.1" x="0px" y="0px" xmlns="http://www.w3.org/2000/svg" width="1920.000000px" height="1080.000000px" viewBox="0 0 1920.000000 1080.000000">
	<g id="blender_frame.2">
		<g id="blender_object.Stroke.2.uuid_0x0">
			<g id="layer.back tread.uuid_0x1">
				<polyline points="460.746857,570.514465 502.457428,571.441345 545.213562,661.454529 497.206635,668.955566" fill="#000000" stroke="none" fill-opacity="1" />
				<path d="M460.796234,568.292786L460.697449,572.736145L501.037994,573.632629L544.132751,660.883301L497.149536,668.590088L497.079285,668.608276L497.013947,668.639771L496.956024,668.683350L496.907837,668.737549L496.871002,668.800049L496.847076,668.868408L496.837006,668.940308L496.841125,669.012695L496.859314,669.082886L496.890778,669.148193L496.934387,669.206177L496.988525,669.254395L497.051025,669.291199L497.119568,669.315125L497.191345,669.325195L497.263733,669.321106L545.326416,662.176880L545.472229,662.138367L545.606934,662.070801L545.725037,661.976929L545.821228,661.860962L545.891724,661.727661L545.933289,661.582764L545.944397,661.432373L545.924255,661.282959L545.873901,661.140808L504.464630,570.487915L504.128357,569.976501L503.665466,569.576233L503.110870,569.317444L502.506744,569.219727z" fill="#C81D2C" stroke="none" fill-opacity="1" />
				<polyline points="537.342285,648.586060 474.599304,655.947632 476.001953,660.270142 538.982056,652.339844" fill="#FE2C36" stroke="none" fill-opacity="1" />
				<polyline points="532.500244,637.859619 472.322235,642.344116 473.485931,646.526306 533.912964,641.508606" fill="#FE2C36" stroke="none" fill-opacity="1" />
				<polyline points="521.701904,624.921326 467.646973,628.949585 468.692169,632.706177 522.970947,628.198975" fill="#FE2C36" stroke="none" fill-opacity="1" />
				<polyline points="509.863434,609.964783 465.920929,613.239502 466.770630,616.293335 510.895294,612.629333" fill="#FE2C36" stroke="none" fill-opacity="1" />
				<polyline points="497.519379,597.498169 463.085083,600.064331 463.750946,602.457275 498.327698,599.586182" fill="#FE2C36" stroke="none" fill-opacity="1" />
				<polyline points="485.593414,583.595459 460.621338,585.456421 461.104248,587.191772 486.179810,585.109619" fill="#FE2C36" stroke="none" fill-opacity="1" />
			</g>
			<g id="layer.antenna.uuid_0x2">
				<polyline points="253.452774,413.681213 254.521851,419.026978 260.936737,423.303528 269.489838,422.234375 272.162659,413.681274 267.886078,409.404663 258.580566,409.164124" fill="#FE2C36" stroke="none" fill-opacity="1" />
				<path d="M269.148285,422.471436L269.039215,422.338318L268.906219,422.229004L268.754669,422.147705L268.589905,422.097595L268.418701,422.080566L268.247437,422.097229L268.082733,422.147034L267.930847,422.227966L267.797699,422.337036L267.688446,422.469910L267.607086,422.621582L267.556946,422.786255L267.539978,422.957520L267.556671,423.128723L267.606415,423.293457L267.687378,423.445312L282.873383,448.557129L246.650909,485.164246L246.426819,485.445129L246.275543,485.771179L246.205841,486.123657L246.221481,486.482666L246.321777,486.827759L246.500916,487.139282L277.225494,531.396973L277.670288,531.884644L278.201569,532.276001L278.799133,532.556274L279.439850,532.714539L280.099182,532.744812L280.751678,532.645874L281.372284,532.421509L281.937317,532.080444L282.424927,531.635620L282.816284,531.104309L283.096558,530.506836L283.254822,529.866028L283.285156,529.206787L283.186157,528.554260L282.961792,527.933533L282.620789,527.368591L249.701828,486.389221L287.199615,450.392761L287.512482,450.004272L287.728455,449.554688L287.836121,449.067627L287.829895,448.568909L287.709961,448.084717L287.482758,447.640686z" fill="#000000" stroke="none" fill-opacity="1" />
			</g>
			<g id="layer.body.uuid_0x3">
				<polyline points="301.428497,495.680359 434.197571,499.430908 503.957489,686.208130 364.062500,693.053467" fill="#000000" stroke="none" fill-opacity="1" />
				<path d="M301.491241,493.458984L301.056702,493.489441L300.636353,493.604065L300.246521,493.798523L299.902191,494.065247L299.616394,494.394043L299.400269,494.772278L299.262085,495.185425L299.207214,495.617554L299.237610,496.052185L299.352264,496.472473L299.546753,496.862305L299.813416,497.206665L300.142303,497.492432L300.520477,497.708496L300.933594,497.846741L301.365784,497.901611L432.639252,501.609985L503.957489,686.208130L364.062500,693.053467L503.957489,686.208130L436.279327,498.653320L436.038605,498.186218L435.694824,497.788818L435.267395,497.483093L434.780151,497.286377L434.260284,497.209534z" fill="#C81D2C" stroke="none" fill-opacity="1" />
				<polygon points="364.062500,693.053467 302.553650,495.024597 211.790710,610.352783 287.926514,651.703125" fill="#000000" stroke="none" fill-opacity="1" />
				<path d="M364.062500,693.053467L304.675812,494.365417L304.483734,493.923279L304.200836,493.532959L303.840363,493.212769L303.419342,492.977966L302.957611,492.839478L302.476898,492.803711L301.999725,492.872498L301.548615,493.042664L301.144867,493.306030L300.807312,493.650269L211.790710,610.352783L286.893768,653.604675L364.062500,693.053467L288.959351,649.801575L211.790710,610.352783L301.685425,499.721069z" fill="#C81D2C" stroke="none" fill-opacity="1" />
			</g>
			<g id="layer.tread.uuid_0x4">
				<polyline points="215.916321,571.441345 184.411697,632.200195 233.492477,691.066650 238.861588,648.113464" fill="#000000" stroke="none" fill-opacity="1" />
				<path d="M217.889053,572.464355L218.050690,572.059753L218.130341,571.631470L218.124832,571.195923L218.034485,570.769775L217.862762,570.369385L217.616272,570.010193L217.304352,569.706055L216.939194,569.468567L216.534637,569.306946L216.106339,569.227295L215.670776,569.232727L215.244583,569.323120L214.844269,569.494873L214.485123,569.741333L214.180908,570.053223L213.943466,570.418457L183.882523,631.925781L183.833145,632.056396L183.815628,632.194824L183.830612,632.333618L183.877655,632.465088L183.953873,632.582031L233.492477,691.066650L238.861588,648.113464L233.492477,691.066650L185.123352,632.122803z" fill="#C81D2C" stroke="none" fill-opacity="1" />
				<polygon points="321.681458,686.958191 233.168732,690.708740 215.916321,571.441345 283.425995,572.941528 302.553680,629.949951" fill="#000000" stroke="none" fill-opacity="1" />
				<path d="M321.699768,687.390869L321.783783,687.378906L321.863861,687.350830L321.937012,687.307739L322.000275,687.251160L322.051331,687.183289L322.088135,687.106812L322.109314,687.024597L322.114044,686.939941L322.102142,686.855835L322.074097,686.775757L322.030945,686.702637L321.974365,686.639404L321.906555,686.588318L321.830048,686.551514L321.747833,686.530396L321.663086,686.525635L233.168732,690.708740L218.491455,573.721375L281.815796,575.128601L300.446960,630.656799L321.270966,687.095947L321.305695,687.173401L321.354919,687.242554L321.416626,687.300781L321.488586,687.345947L321.567871,687.376038L321.651581,687.390198L321.736389,687.387695L321.819183,687.368652L321.896606,687.333984L321.965790,687.284790L322.023987,687.223022L322.069092,687.151123L322.099274,687.071777L322.113342,686.988037L322.110901,686.903198L322.091949,686.820496L304.660492,629.243042L285.532776,572.234680L285.298401,571.744873L284.952209,571.326416L284.514984,571.004517L284.012665,570.798218L283.475372,570.719971L215.965622,569.219666L215.485992,569.261230L215.026459,569.405029L214.608749,569.644531L214.252457,569.968262L213.974258,570.361206L213.787125,570.804810L213.700058,571.278320L213.716873,571.759521L233.168732,690.708740z" fill="#C81D2C" stroke="none" fill-opacity="1" />
				<polyline points="314.029602,671.737793 232.060699,675.675110 233.492477,681.402222 315.819336,676.748962" fill="#FE2C36" stroke="none" fill-opacity="1" />
				<polyline points="308.712372,657.404541 230.324646,657.842529 231.459091,663.366211 310.217438,662.259521" fill="#FE2C36" stroke="none" fill-opacity="1" />
				<polyline points="295.873718,639.672852 225.461700,640.066284 226.480804,645.027954 297.225677,644.033875" fill="#FE2C36" stroke="none" fill-opacity="1" />
				<polyline points="281.867462,619.232788 224.627823,619.552612 225.456223,623.586060 282.966461,622.777954" fill="#FE2C36" stroke="none" fill-opacity="1" />
				<polyline points="266.983398,601.974365 222.129181,602.224976 222.778412,605.385681 267.844635,604.752441" fill="#FE2C36" stroke="none" fill-opacity="1" />
				<polyline points="252.769562,582.892090 220.240860,583.073914 220.711670,585.366028 253.394165,584.906799" fill="#FE2C36" stroke="none" fill-opacity="1" />
				<polyline points="216.771057,644.145447 215.331970,647.455688 215.007629,649.905945 214.822754,652.757385 215.033844,655.406250 215.505295,657.971924 216.269760,660.313599 217.321991,662.337402 218.614822,663.771118 219.901611,664.290588 220.999146,664.005188 221.915298,663.018799 222.593018,661.265747 223.006271,658.857056 223.205811,656.069336 223.165512,652.971985 222.850861,649.777527 222.042770,646.099731 220.693985,644.232483 219.807312,643.585571 217.618729,643.018311" fill="#000000" stroke="none" fill-opacity="1" />
				<path d="M218.163589,644.750854L218.254898,644.467529L218.289246,644.171875L218.265198,643.875244L218.183716,643.588867L218.048126,643.323975L217.863281,643.090576L217.636459,642.897827L217.376389,642.752930L217.093094,642.661621L216.797485,642.627258L216.500748,642.651306L216.214539,642.732788L215.949554,642.868530L215.716156,643.053284L215.523361,643.280029L215.378540,643.540100L213.925323,646.844238L213.498627,649.706177L213.317413,652.659790L213.587708,655.521545L214.164276,658.218384L215.075958,660.703247L216.312332,662.862305L217.857452,664.454041L218.232925,664.716736L219.560104,665.136597L219.842667,665.200989L220.131210,665.173584L221.204163,664.793457L221.416687,664.704468L221.595901,664.559509L222.438629,663.505005L222.581573,663.276367L223.162079,661.485779L223.521378,658.945435L223.691879,656.104126L223.708420,652.964905L223.542648,649.709473L222.987961,645.892029L222.827271,645.533081L221.668106,643.528809L220.580978,642.525024L220.136719,642.314819L217.995926,641.562988L217.704788,641.517456L217.410278,641.529480L217.123764,641.598755L216.856384,641.722595L216.618286,641.896240L216.418579,642.112915L216.265015,642.364502L216.163483,642.641113L216.117828,642.932312L216.129913,643.226685L216.199219,643.513184L216.323044,643.780640L216.496582,644.018799L216.713318,644.218506L216.964874,644.372070L217.241531,644.473572L219.245850,644.772217L219.842392,645.080078L221.140656,646.503540L222.163055,649.886597L222.622818,653.002197L222.718262,656.055054L222.486862,658.794006L222.002045,661.102661L221.298462,662.633240L220.564087,663.276672L219.963684,663.331726L219.214600,662.913452L218.264465,661.683350L217.431488,659.825867L216.829834,657.635681L216.474197,655.217041L216.335175,652.746216L216.523285,650.055176L216.824356,647.870117z" fill="#A42123" stroke="none" fill-opacity="1" />
				<polyline points="196.138397,618.560913 194.776215,621.694214 194.469223,624.013367 194.294189,626.712402 194.494110,629.219604 194.940323,631.648193 195.663925,633.864624 196.659851,635.780273 197.883499,637.137268 199.101562,637.628906 200.140396,637.358887 201.007629,636.425293 201.649063,634.765869 202.040359,632.485962 202.229172,629.847290 202.191010,626.915527 201.893173,623.891846 201.128250,620.410645 199.851608,618.643311 199.012299,618.030945 196.940750,617.494019" fill="#000000" stroke="none" fill-opacity="1" />
				<path d="M197.260147,619.048584L197.333725,618.820312L197.361374,618.582153L197.341980,618.343140L197.276459,618.112549L197.167053,617.899170L197.018219,617.711182L196.835464,617.555786L196.626038,617.439148L196.397842,617.365540L196.159561,617.337891L195.920624,617.357300L195.690018,617.422852L195.476593,617.532227L195.288620,617.681030L195.133270,617.863770L195.016525,618.073242L193.511292,621.144287L193.080994,623.829590L192.939651,626.624512L193.217056,629.321411L193.783554,631.860718L194.674133,634.187744L195.871063,636.190308L197.345978,637.622070L197.612625,637.808533L198.891037,638.150330L199.065170,638.190063L199.243011,638.173157L200.245972,637.764832L200.355423,637.718994L200.447800,637.644409L201.226944,636.629028L201.286926,636.533203L201.862747,634.848450L202.257828,632.523315L202.459946,629.863831L202.404770,626.912720L202.082230,623.873291L201.412766,620.348145L201.364334,620.240112L200.321777,618.303589L199.457413,617.420898L199.201813,617.299927L197.219635,616.418030L197.004379,616.384277L196.786652,616.393188L196.574875,616.444397L196.377121,616.536011L196.200989,616.664307L196.053375,616.824585L195.939835,617.010559L195.864716,617.215088L195.831009,617.430359L195.839935,617.648132L195.891098,617.859863L195.982635,618.057617L196.111038,618.233704L196.271255,618.381348L196.457291,618.494873L196.661850,618.570007L198.683563,618.725830L199.435333,619.057495L200.856812,620.532166L201.705261,623.921753L201.977219,626.927429L201.997665,629.840576L201.820923,632.459351L201.427231,634.704651L200.749115,636.263611L199.916382,636.983643L199.139786,637.038086L198.309341,636.528564L197.396210,635.269287L196.627182,633.460205L196.082840,631.358154L195.766006,629.052490L195.655106,626.702271L195.863571,624.150757L196.118317,622.066833z" fill="#A42123" stroke="none" fill-opacity="1" />
				<polyline points="209.166458,641.902893 208.320007,643.849976 208.129288,645.291199 208.020569,646.968445 208.144669,648.526489 208.422028,650.035645 208.871658,651.412964 209.490555,652.603394 210.251038,653.446716 211.007935,653.752258 211.653488,653.584412 212.192398,653.004211 212.591003,651.973022 212.834076,650.556152 212.951416,648.916504 212.927811,647.094604 212.742645,645.215698 212.267303,643.052368 211.473999,641.954041 210.952423,641.573547 209.665146,641.239868" fill="#000000" stroke="none" fill-opacity="1" />
				<path d="M210.004852,642.267334L210.059784,642.096802L210.080490,641.918823L210.066071,641.740173L210.016983,641.567871L209.935272,641.408325L209.824051,641.267822L209.687576,641.151733L209.530945,641.064575L209.360443,641.009583L209.182419,640.988892L209.003860,641.003418L208.831482,641.052368L208.671967,641.134155L208.531494,641.245361L208.415390,641.381836L208.328201,641.538452L207.454193,643.473572L207.188690,645.166748L207.069626,646.906738L207.200699,648.601807L207.503281,650.204468L208.006714,651.695374L208.719116,653.004456L209.654205,653.984802L209.950165,654.191772L210.744507,654.404785L210.962433,654.454468L211.184967,654.433228L211.799286,654.145142L211.950516,654.081787L212.077972,653.978760L212.512390,653.301514L212.599701,653.161682L212.865082,652.078979L213.014191,650.587158L213.082962,648.925903L213.095856,647.092407L213.033188,645.187073L212.766541,642.942688L212.681747,642.753113L212.036194,641.547974L211.407867,640.949280L211.146286,640.825562L209.889221,640.375427L209.716232,640.348267L209.541321,640.355469L209.371216,640.396729L209.212234,640.470215L209.070801,640.573364L208.952164,640.702026L208.861008,640.851440L208.800644,641.015869L208.773605,641.188782L208.780746,641.363708L208.821884,641.533813L208.895477,641.692749L208.998596,641.834167L209.127274,641.952820L209.276718,642.044067L209.441055,642.104370L210.621933,642.272095L210.982407,642.443298L211.790833,643.265625L212.453659,645.261475L212.759796,647.104004L212.819427,648.912659L212.652466,650.534180L212.306381,651.894531L211.815247,652.768494L211.343994,653.066162L211.053375,653.050049L210.711594,652.788208L210.210739,652.103638L209.713425,651.059570L209.329361,649.805237L209.084885,648.402954L208.975922,646.961365L209.073898,645.384277L209.238571,644.105103z" fill="#A42123" stroke="none" fill-opacity="1" />
				<polyline points="203.439377,636.175781 202.592926,638.122864 202.402206,639.564087 202.293488,641.241333 202.417603,642.799377 202.694946,644.308472 203.144592,645.685913 203.763474,646.876221 204.523956,647.719604 205.280853,648.025146 205.926407,647.857300 206.465332,647.277100 206.863922,646.245972 207.106979,644.829102 207.224350,643.189392 207.200699,641.367554 207.015564,639.488586 206.540222,637.325317 205.746918,636.226929 205.225342,635.846436 203.938065,635.512817" fill="#000000" stroke="none" fill-opacity="1" />
				<path d="M204.054504,636.443176L204.094849,636.318054L204.109955,636.187500L204.099350,636.056396L204.063446,635.929993L204.003464,635.812988L203.921814,635.709961L203.821625,635.624756L203.706833,635.560791L203.581696,635.520508L203.451050,635.505249L203.320084,635.515869L203.193558,635.551880L203.076599,635.611816L202.973557,635.693481L202.888397,635.793579L202.824371,635.908447L201.927155,637.833374L201.667160,639.466797L201.533829,641.192078L201.651810,642.860474L201.941818,644.446899L202.432709,645.918335L203.129196,647.206055L204.034698,648.160645L204.277328,648.330383L205.062149,648.566650L205.243073,648.607971L205.427795,648.590332L206.051743,648.339111L206.181610,648.284790L206.291199,648.196167L206.757584,647.548584L206.837372,647.421021L207.140060,646.352722L207.314117,644.864685L207.384109,643.200806L207.362534,641.365479L207.232346,639.467224L206.860489,637.254883L206.806015,637.133301L206.103683,635.969299L205.521469,635.440552L205.351456,635.360107L204.097549,634.897522L203.974457,634.878296L203.849945,634.883362L203.728806,634.912598L203.615799,634.964966L203.515091,635.038330L203.430634,635.130005L203.365692,635.236328L203.322815,635.353333L203.303421,635.476440L203.308640,635.600891L203.337875,635.721985L203.390167,635.835083L203.463638,635.935791L203.555191,636.020142L203.661575,636.085083L203.778595,636.128052L205.006531,636.308838L205.431061,636.541260L206.234589,637.462097L206.800003,639.522766L207.038956,641.376587L207.064087,643.184692L206.898148,644.803833L206.577118,646.166809L206.120850,647.061768L205.660461,647.411987L205.320572,647.411377L204.911331,647.165710L204.355606,646.465393L203.837357,645.395020L203.438705,644.119629L203.180283,642.699219L203.056580,641.235718L203.140350,639.636841L203.299301,638.319092z" fill="#A42123" stroke="none" fill-opacity="1" />
				<polyline points="208.626999,595.880493 206.553436,600.650391 206.085938,604.180908 205.819641,608.289673 206.123947,612.106506 206.803268,615.803528 207.904739,619.177673 209.420883,622.093811 211.283630,624.159668 213.137970,624.908203 214.719299,624.497070 216.039490,623.075806 217.016098,620.549683 217.611633,617.078857 217.899170,613.062012 217.840988,608.598877 217.387619,603.995972 216.223114,598.696411 214.279816,596.005859 213.002060,595.073730 209.848434,594.256348" fill="#000000" stroke="none" fill-opacity="1" />
				<path d="M210.334671,596.622925L210.446701,596.275452L210.488846,595.912842L210.459366,595.549072L210.359512,595.197998L210.193008,594.873047L209.966339,594.586914L209.688263,594.350464L209.369385,594.172791L209.021988,594.060730L208.659378,594.018677L208.295532,594.048157L207.944397,594.148010L207.619553,594.314453L207.333344,594.541138L207.096924,594.819214L206.919312,595.138062L204.627686,599.813171L203.972672,603.901123L203.757523,608.155945L204.179810,612.261597L205.042343,616.127075L206.397903,619.669556L208.220032,622.718140L210.465240,624.897644L210.871109,625.181519L212.817535,625.701904L213.082642,625.762329L213.353287,625.736572L214.880051,625.115112L215.046677,625.045288L215.187210,624.931641L216.373489,623.385986L216.464722,623.240173L217.341217,620.675415L217.942841,617.135681L218.250488,613.087158L218.166489,608.594666L217.675385,603.967651L216.656174,598.601257L216.582581,598.436768L214.995514,595.488892L213.679550,594.145142L213.290588,593.960938L210.272888,592.618347L209.923096,592.565857L209.569992,592.587280L209.229126,592.681641L208.915161,592.844849L208.642105,593.069641L208.421814,593.346436L208.263763,593.662903L208.175064,594.005310L208.159378,594.358765L208.217529,594.707642L208.347000,595.036865L208.542084,595.331909L208.794312,595.580078L209.092529,595.770264L209.423859,595.894348L212.501617,596.131470L213.646149,596.636475L215.809937,598.881470L217.101501,604.041321L217.515610,608.616943L217.546738,613.051697L217.277588,617.038330L216.678314,620.456421L215.645996,622.829773L214.378281,623.925842L213.196167,624.008667L211.931808,623.233032L210.541824,621.315979L209.371216,618.562012L208.542480,615.361938L208.060059,611.852173L207.891296,608.274292L208.208710,604.390015L208.596329,601.217651z" fill="#A42123" stroke="none" fill-opacity="1" />
			</g>
			<g id="layer.face.uuid_0x5">
				<polyline points="468.105164,628.416260 459.663055,626.305115 458.355438,648.183472 392.561127,646.928772 383.228302,623.878906 374.029419,622.453796 384.290314,653.973999 466.748108,654.240723" fill="#FE2C36" stroke="none" fill-opacity="1" />
				<polygon points="412.027802,526.390015 406.383698,522.213257 400.214874,519.233032 393.730255,517.561523 387.275085,517.384338 381.031555,518.706299 375.180756,521.508972 370.014435,525.563599 365.719574,530.729797 362.454254,536.828308 360.340790,543.643921 359.462341,550.933533 359.950806,558.305786 361.784119,565.541504 364.916138,572.424072 369.097260,578.600342 374.170929,583.850708 379.951508,587.990479 386.229095,590.876526 392.777771,592.410156 399.242798,592.427856 405.441315,590.948486 411.197693,588.013855 416.235413,583.874512 420.386871,578.682556 423.514648,572.621216 425.516968,565.900085 426.326599,558.749146 425.826599,551.536682 424.040100,544.458069 421.006958,537.706665 416.957062,531.614746" fill="#FE2C36" stroke="none" fill-opacity="1" />
				<polygon points="408.115356,532.328430 403.644165,529.030884 398.760437,526.683411 393.630859,525.373718 388.529053,525.246887 383.598907,526.304626 378.983337,528.530457 374.911591,531.741760 371.529846,535.826416 368.961121,540.642517 367.300415,546.020508 366.612091,551.769287 366.999146,557.581543 368.444031,563.286133 370.910614,568.713806 374.203369,573.587524 378.200562,577.734375 382.757050,581.008911 387.708649,583.297546 392.878174,584.521057 397.986206,584.548340 402.888214,583.392395 407.444794,581.084106 411.436249,577.819946 414.728516,573.719238 417.211273,568.926270 418.802490,563.607300 419.447815,557.945129 419.053558,552.232605 417.638092,546.626160 415.233246,541.280396 412.022247,536.459412" fill="#000000" stroke="none" fill-opacity="1" />
				<path d="M406.408508,534.288147L406.823669,534.583557L407.288422,534.792175L407.784943,534.906189L408.294189,534.921021L408.796539,534.836365L409.272675,534.655212L409.704346,534.384766L410.074982,534.035278L410.370422,533.620117L410.579010,533.155334L410.693024,532.658875L410.707916,532.149597L410.623230,531.647278L410.442108,531.171021L410.171631,530.739380L409.822083,530.368774L405.337463,527.086548L400.026672,524.472839L394.361237,522.979065L388.589050,522.809570L382.979462,524.041870L377.816925,526.638245L373.433960,530.294434L369.931732,534.825317L367.393433,540.032104L365.860474,545.720337L365.345032,551.698303L365.902039,557.684814L367.485748,563.520325L370.044006,569.065491L373.380890,574.066650L377.397125,578.386475L381.985870,581.894409L387.035675,584.472534L392.424530,586.008362L397.942871,586.303406L403.401703,585.268066L408.554474,582.884155L413.047913,579.398560L416.734222,574.975708L419.493591,569.814941L421.259552,564.119446L421.998138,558.087891L421.626587,551.990356L420.166626,546.008240L417.652588,540.298523L414.276947,535.145752L410.133087,530.690796L409.774811,530.328552L409.352753,530.043274L408.883148,529.845703L408.384064,529.743652L407.874573,529.740906L407.374390,529.837585L406.902740,530.029968L406.477570,530.310730L406.115448,530.669006L405.830109,531.091064L405.632629,531.560608L405.530487,532.059753L405.527740,532.569153L405.624420,533.069336L405.816895,533.541077L406.097565,533.966187L409.869080,537.947388L412.883759,542.434326L415.154816,547.428833L416.498260,552.662842L416.886841,557.993713L416.307068,563.279236L414.855164,568.227173L412.604065,572.652100L409.654022,576.415649L406.115112,579.419800L402.105408,581.590332L397.771515,582.786926L393.128693,582.971863L388.249451,582.046875L383.440979,580.047485L378.947693,577.012756L374.988831,573.044678L371.752167,568.300476L369.385162,562.981873L368.088745,557.398071L367.884583,551.745117L368.762909,546.212769L370.579498,541.122742L373.222443,536.676636L376.545685,533.029297L380.381073,530.279968L384.543335,528.478516L388.827148,527.693115L393.227509,527.868164L397.743011,529.036438L402.142242,531.141968z" fill="#A42123" stroke="none" fill-opacity="1" />
				<polygon points="398.264740,543.509705 395.636963,541.585327 392.769623,540.221130 389.761444,539.467346 386.773499,539.406982 383.889984,540.039429 381.194336,541.352966 378.819519,543.239136 376.849884,545.631470 375.355682,548.446472 374.391174,551.585327 373.992584,554.937317 374.219269,558.324341 375.060760,561.648254 376.496613,564.811890 378.413757,567.654785 380.742523,570.076904 383.399445,571.993408 386.290161,573.337524 389.311920,574.061829 392.302094,574.088074 395.175873,573.422119 397.851379,572.080322 400.198639,570.176025 402.137726,567.778259 403.602478,564.971252 404.543213,561.852600 404.927032,558.530212 404.697937,555.177307 403.866455,551.886902 402.451752,548.751343 400.562469,545.926453" fill="#000000" stroke="none" fill-opacity="1" />
				<path d="M397.263916,544.658875L397.524719,544.841858L397.817871,544.966553L398.130493,545.027710L398.449036,545.022400L398.759552,544.951050L399.048370,544.816711L399.303009,544.625183L399.512207,544.384949L399.666931,544.106445L399.760315,543.801941L399.788422,543.484558L399.749908,543.168274L399.646423,542.867004L399.482635,542.593750L399.265533,542.360535L396.629364,540.445801L393.511322,538.926392L390.188934,538.065613L386.808594,537.981323L383.527893,538.716797L380.513092,540.247803L377.957031,542.394287L375.917572,545.047485L374.441589,548.090515L373.551788,551.410339L373.254181,554.895935L373.580048,558.384583L374.502411,561.784790L375.991577,565.016907L377.934265,567.934143L380.273926,570.457275L382.949402,572.510132L385.897247,574.023560L389.046875,574.930786L392.276733,575.114258L395.476349,574.519531L398.501129,573.134277L401.142822,571.100952L403.313538,568.514893L404.941040,565.492432L405.984772,562.153076L406.423676,558.614075L406.208069,555.035095L405.350464,551.524231L403.871429,548.175171L401.885193,545.155762L399.447937,542.549377L399.237823,542.337036L398.990356,542.169678L398.715027,542.053894L398.422333,541.994019L398.123596,541.992432L397.830261,542.049072L397.553680,542.161926L397.304382,542.326538L397.092072,542.536621L396.924683,542.784058L396.808868,543.059448L396.749023,543.352112L396.747437,543.650879L396.804138,543.944153L396.916931,544.220764L397.081543,544.470093L399.299408,546.799255L401.073029,549.428467L402.408875,552.358032L403.198151,555.429810L403.424072,558.558777L403.079071,561.660095L402.220490,564.561218L400.892334,567.152710L399.154419,569.353271L397.072784,571.105835L394.717804,572.367798L392.176514,573.058228L389.458221,573.156677L386.605835,572.607178L383.798553,571.432373L381.178253,569.656067L378.871643,567.338379L376.987091,564.570984L375.609222,561.471069L374.854095,558.217468L374.734039,554.923218L375.243591,551.697388L376.299408,548.726440L377.837250,546.127502L379.773438,543.990723L382.010803,542.374878L384.441986,541.310059L386.947845,540.837830L389.525330,540.927429L392.173676,541.599365L394.756744,542.822571z" fill="#C81D2C" stroke="none" fill-opacity="1" />
				<polyline points="382.676971,540.699707 380.917572,549.789917 372.413910,542.165833 375.086670,533.612732" fill="#FEFEFE" stroke="none" fill-opacity="1" />
				<polyline points="405.264587,562.656616 404.028076,569.044983 398.051941,563.686951 399.930328,557.676086" fill="#FEFEFE" stroke="none" fill-opacity="1" />
				<polyline points="408.113525,544.455078 405.644318,557.212463 393.710052,546.512695 397.461243,534.509033" fill="#FEFEFE" stroke="none" fill-opacity="1" />
				<polyline points="210.644531,604.474487 209.783463,606.455322 209.589340,607.921509 209.478668,609.627808 209.605118,611.212891 209.887161,612.748169 210.344681,614.149353 210.974274,615.360413 211.747787,616.218384 212.517868,616.529175 213.174652,616.358459 213.722931,615.768250 214.128342,614.719116 214.375763,613.277771 214.495178,611.609680 214.470978,609.756226 214.282669,607.844666 213.799133,605.643860 212.992096,604.526489 212.461456,604.139404 211.151794,603.799927" fill="#FE2C36" stroke="none" fill-opacity="1" />
				<polyline points="218.032150,649.517151 217.350937,651.084106 217.197357,652.243958 217.109909,653.593689 217.209763,654.847656 217.432953,656.062134 217.794800,657.170593 218.292892,658.128540 218.904877,658.807251 219.513992,659.053162 220.033493,658.918030 220.467209,658.451172 220.788055,657.621277 220.983627,656.481079 221.078094,655.161560 221.059052,653.695312 220.910034,652.183228 220.527603,650.442261 219.889069,649.558350 219.469360,649.252197 218.433380,648.983643" fill="#FE2C36" stroke="none" fill-opacity="1" />
				<polyline points="209.904510,645.046143 209.501495,645.973206 209.410629,646.659302 209.358841,647.457825 209.417938,648.199585 209.550018,648.918091 209.764069,649.573853 210.058762,650.140503 210.420731,650.542053 210.781174,650.687561 211.088501,650.607666 211.345093,650.331421 211.534836,649.840515 211.650528,649.165955 211.706375,648.385254 211.695099,647.517944 211.607040,646.623352 211.380783,645.593384 211.003021,645.070557 210.754669,644.889404 210.141830,644.730469" fill="#FE2C36" stroke="none" fill-opacity="1" />
				<polyline points="204.144058,639.177307 203.721008,640.150269 203.625687,640.870483 203.571396,641.708679 203.633408,642.487305 203.771942,643.241394 203.996719,643.929749 204.306046,644.524597 204.685974,644.946045 205.064224,645.098755 205.386826,645.014771 205.656097,644.724915 205.855347,644.209595 205.976883,643.501587 206.035492,642.682190 206.023636,641.771729 205.931107,640.832764 205.693588,639.751709 205.297150,639.202881 205.036530,639.012695 204.393234,638.845947" fill="#FE2C36" stroke="none" fill-opacity="1" />
				<polyline points="197.362564,623.775879 196.736237,625.216675 196.595016,626.283203 196.514511,627.524414 196.606522,628.677368 196.811661,629.794189 197.144455,630.813416 197.602432,631.694336 198.165207,632.318359 198.725281,632.544495 199.203018,632.420288 199.601837,631.990967 199.896744,631.227905 200.076645,630.179443 200.163559,628.966064 200.145996,627.617798 200.009018,626.227295 199.657288,624.626465 199.070206,623.813721 198.684250,623.532104 197.731644,623.285156" fill="#FE2C36" stroke="none" fill-opacity="1" />
			</g>
		</g>
	</g>
</svg>
