<?xml version="1.0" encoding="UTF-8"?>
<!-- Generator: Blender, SVG Export for Grease Pencil - v2.0 -->
<!DOCTYPE svg PUBLIC "-//W3C//DTD SVG 1.1//EN" "http://www.w3.org/Graphics/SVG/1.1/DTD/svg11.dtd">
<svg version="1.0" x="0px" y="0px" xmlns="http://www.w3.org/2000/svg" width="1900.102417px" height="1068.807495px" viewBox="0 0 1900.102417 1068.807495">
	<g id="blender_frame_3">
		<g id="blender_object_Stroke">
			<!--Layer: Fills-->
			<g id="Fills" />
			<!--Layer: black-->
			<g id="black">
				<polyline points="251.469498,549.101318 241.531250,617.318115 167.267334,890.445068 322.940826,1101.522461 365.078125,1091.389160 279.601044,929.968018 238.370316,878.349731 318.001160,746.241211 357.657990,869.440918 379.531586,1121.741211 422.891754,1117.405273 454.163361,953.809937 424.374786,882.916687 435.574432,607.035156 364.621063,526.367554" fill="#000000" stroke="none" fill-opacity="1" />
			</g>
			<!--Layer: skin-->
			<g id="skin">
				<polyline points="69.368645,392.046814 32.811821,393.905090 12.798656,404.043030 61.332981,417.108948" fill="#AB91EE" stroke="none" fill-opacity="1" />
				<path d="M69.368645,392.046814L32.713234,391.965332L31.934095,392.172424L11.830383,402.131653L11.468647,402.363220L11.160311,402.662231L10.917775,403.016785L10.750895,403.412598L10.666292,403.833679L10.667312,404.263245L10.754178,404.683960L10.922985,405.078857L11.167389,405.432190L11.477255,405.729614L11.840180,405.959290L12.241725,406.112000L60.591103,419.864929L61.142994,419.956726L61.702190,419.939026L62.247231,419.812622L62.757050,419.582336L63.212276,419.257019L63.595303,418.849121L63.891182,418.374268L64.088982,417.850891L64.180717,417.299011L64.163162,416.739807L64.036659,416.194763L63.806412,415.684875L63.480972,415.229736L63.073086,414.846802L62.598320,414.550781L62.074970,414.353027L18.754959,403.427612L33.322037,395.823975z" fill="#000000" stroke="none" fill-opacity="1" />
				<polyline points="147.401001,435.879883 129.385376,475.171265 131.519608,373.667603 112.013710,349.793640 89.838737,331.662109 88.864349,313.050232 75.967728,339.530640 94.610619,356.528320 90.071815,363.390015 56.938461,339.417542 61.047577,305.910034 44.466660,348.374634 74.358429,383.746704 43.417637,350.830688 58.791088,306.895752 29.625055,354.835205 65.065697,388.158325 62.975346,390.351501 21.303705,368.733093 17.728983,334.867249 10.312088,372.919495 64.486282,415.605530 101.542786,553.570068 175.179153,457.279297" fill="#AB91EE" stroke="none" fill-opacity="1" />
				<path d="M151.763931,437.880432L152.070343,436.990845L152.197418,436.058533L152.140045,435.119324L151.900681,434.209412L151.488266,433.363647L150.918823,432.614624L150.214142,431.991028L149.401428,431.516968L148.511871,431.210510L147.579559,431.083496L146.640381,431.140808L145.730377,431.380310L144.884705,431.792664L144.135696,432.362061L143.512054,433.066711L143.037979,433.879456L132.029205,463.644592L133.718506,373.713867L133.598907,372.950806L133.222855,372.276062L115.112709,347.261658L92.137131,330.497925L89.889137,312.996582L89.857368,312.791321L89.784828,312.596680L89.674629,312.420593L89.531197,312.270264L89.360458,312.151978L89.169456,312.070496L88.965881,312.029114L88.758118,312.029602L88.554764,312.071899L88.364159,312.154297L88.193878,312.273438L88.051178,312.424316L87.941833,312.600891L74.073990,338.608337L73.901840,339.119873L73.865265,339.658386L73.966736,340.188477L74.199593,340.675415L74.548531,341.087158L92.719940,356.763123L89.703117,361.364075L59.275307,338.398499L61.126404,305.919678L61.126686,305.903320L61.123684,305.887268L61.117401,305.872131L61.108112,305.858582L61.096279,305.847290L61.082405,305.838623L61.067001,305.833008L61.050804,305.830627L61.034439,305.831665L61.018585,305.836060L61.004147,305.843506L60.991348,305.853821L60.981041,305.866577L60.973511,305.881104L42.494892,347.604675L42.361362,348.155334L42.378635,348.721680L42.545517,349.263062L42.849945,349.740906L74.358429,383.746704L45.829739,350.319214L58.899303,306.933594L58.904797,306.910278L58.905304,306.886292L58.900887,306.862793L58.891602,306.840698L58.878010,306.820923L58.860569,306.804504L58.840012,306.792114L58.817532,306.784119L58.793636,306.781128L58.769794,306.783020L58.746746,306.789917L58.725853,306.801453L58.707676,306.817078L58.693066,306.836121L28.075048,353.892151L27.902561,354.265381L27.818413,354.667908L27.827188,355.078979L27.928213,355.477600L28.116442,355.843201L28.382195,356.156982L64.107216,388.184570L62.697418,388.686829L23.122862,367.491943L17.830572,334.856567L17.826269,334.836304L17.818001,334.817261L17.806110,334.800415L17.791046,334.786194L17.773378,334.775330L17.754013,334.768250L17.733513,334.765259L17.712845,334.766479L17.692856,334.771790L17.674282,334.781067L17.658030,334.793884L17.644665,334.809692L17.634869,334.827881L17.628866,334.847717L8.103900,372.489136L8.069867,373.102661L8.202998,373.702515L8.493497,374.243958L8.919732,374.686584L60.541725,418.206421L99.384766,554.149658L99.545364,554.571655L99.787392,554.952698L100.101219,555.277344L100.473831,555.532288L100.890038,555.707153L101.332977,555.794678L101.784470,555.791443L102.225998,555.697510L102.639771,555.516785L103.008698,555.256531L103.317719,554.927490L179.695023,460.732727L180.281967,459.785339L180.672867,458.741699L180.852554,457.641846L180.814270,456.528076L180.559448,455.443176L180.097931,454.428772L179.447220,453.523987L178.632645,452.763489L177.685211,452.176514L176.641617,451.785706L175.541748,451.605957L174.427933,451.644226L173.343018,451.899048L172.328705,452.360718L171.423843,453.011292L170.663406,453.825928L102.523972,548.608643L68.817039,414.442322L68.229980,413.137085L67.261597,412.083252L12.782914,372.002258L17.698858,335.555054L19.374918,368.936707L19.483019,369.401672L19.701544,369.826111L20.017073,370.184387L20.410521,370.454712L62.353806,391.549438L62.679523,391.668274L63.024727,391.700195L63.366642,391.643127L63.682793,391.500793L63.952171,391.282654L65.554726,388.624512L65.646637,388.503418L65.709091,388.364868L65.738884,388.215942L65.734749,388.063965L65.696747,387.916870L65.626869,387.781982L65.528564,387.666016L31.939873,354.521240L58.323345,307.885132L41.428032,350.134521L41.314041,350.696289L41.355549,351.267883L41.549553,351.807251L41.881729,352.274414L74.358429,383.746704L46.896770,347.970764L60.891739,306.527771L54.759380,339.150330L54.766006,339.733887L54.926147,340.295166L55.228485,340.794373L55.651604,341.196289L89.236336,364.544678L89.522133,364.704956L89.836983,364.795715L90.164116,364.812256L90.486443,364.753540L90.786903,364.622864L91.049492,364.426941L91.260536,364.176270L95.817749,357.326782L95.970924,357.022400L96.048843,356.690674L96.046974,356.349915L95.965431,356.019043L95.808746,355.716370L95.585747,355.458740L78.551521,339.036011L88.047325,317.071472L87.485863,331.785278L87.609764,332.425537L87.904396,333.007385L88.347282,333.486084L109.169205,352.637024L129.303772,374.431641L126.984993,475.120850L127.027351,475.622803L127.173454,476.104919L127.416946,476.545959L127.747086,476.926453L128.149368,477.229614L128.606125,477.442261L129.097092,477.554932L129.600845,477.562561L130.095093,477.464966L130.558075,477.266357L130.969421,476.975586L131.311111,476.605347L131.567856,476.171997z" fill="#000000" stroke="none" fill-opacity="1" />
				<polyline points="273.289368,251.826721 264.700714,309.629395 328.229370,304.872009 336.158875,254.569153 352.522858,155.723938 283.806610,146.982727 226.362457,108.516968 147.459000,167.942749 177.349228,215.703979 243.456360,248.883484 297.088806,251.622559" fill="#AB91EE" stroke="none" fill-opacity="1" />
				<path d="M275.464691,252.149963L275.485870,251.719299L275.422791,251.292847L275.277649,250.886902L275.056061,250.517029L274.766663,250.197571L274.420380,249.940613L274.030731,249.756287L273.612518,249.651428L273.181946,249.630127L272.755463,249.693237L272.349518,249.838440L271.979675,250.059937L271.660248,250.349365L271.403259,250.695618L271.218842,251.085327L271.113953,251.503479L260.243469,308.967163L260.207733,309.974365L260.396820,310.964355L260.801117,311.887573L261.400574,312.697815L262.165070,313.354553L263.056488,313.824951L264.030090,314.085449L265.037201,314.123047L328.720337,311.428467L330.159973,311.157043L331.503693,310.573486L332.684937,309.706909L333.644897,308.600281L334.336029,307.308472L334.723969,305.895813L338.329895,254.919861L357.452545,156.540039L357.508881,155.395874L357.303162,154.268921L356.846130,153.218506L356.161957,152.299622L355.286438,151.560913L354.265778,151.040955L353.153381,150.767029L284.598999,144.866699L227.586060,106.689636L227.101959,106.445923L226.572891,106.327942L226.031021,106.342957L225.509308,106.489990L225.039413,106.760254L145.253525,165.014465L144.686569,165.544373L144.243805,166.181519L143.945206,166.897705L143.803925,167.660767L143.826462,168.436340L144.011734,169.190002L144.351395,169.887573L173.328003,218.220581L175.221237,219.943726L242.469803,250.849060L243.344238,251.079895L296.976685,253.818848L297.407288,253.798523L297.825745,253.694580L298.215790,253.511047L298.562592,253.254883L298.852753,252.935974L299.075073,252.566589L299.221100,252.161011L299.285156,251.734741L299.264893,251.304077L299.160858,250.885620L298.977325,250.495483L298.721191,250.148804L298.402344,249.858704L298.033020,249.636230L297.627319,249.490234L297.201050,249.426147L244.029938,246.710754L180.665176,212.060547L152.350250,168.848267L226.437317,111.213806L282.583008,148.810059L283.529144,149.164429L346.745758,160.026123L333.989197,254.209961L322.545563,298.704407L269.986603,304.714783z" fill="#000000" stroke="none" fill-opacity="1" />
				<polyline points="226.362457,108.516968 178.179733,144.755310 222.398483,196.884094 352.114624,155.256104 284.211884,146.482422" fill="#000000" stroke="none" fill-opacity="1" />
			</g>
			<!--Layer: yella-->
			<g id="yella">
				<polyline points="313.872284,311.146729 403.462585,355.829895 356.569824,518.719910 240.665817,516.566284 202.382706,316.713623 281.537323,309.229980" fill="#E3E3C1" stroke="none" fill-opacity="1" />
				<path d="M314.973450,308.938843L314.521576,308.766479L314.044647,308.685547L313.561218,308.699219L313.089691,308.806946L312.648346,309.004517L312.253876,309.284546L311.921692,309.635986L311.664429,310.045532L311.492065,310.497498L311.411133,310.974304L311.424774,311.457764L311.532440,311.929260L311.730103,312.370667L312.010071,312.765076L312.361633,313.097290L312.771149,313.354553L397.928955,358.260925L353.968323,515.196106L243.302628,513.436096L206.651520,319.916138L281.745605,311.432129L282.171082,311.349182L282.572418,311.184814L282.933868,310.945251L283.241699,310.639893L283.484039,310.280334L283.651489,309.880371L283.737793,309.455383L283.739441,309.021729L283.656555,308.596130L283.492218,308.194885L283.252686,307.833374L282.947235,307.525574L282.587646,307.283264L282.187744,307.115784L281.762695,307.029541L281.329102,307.027832L202.044754,313.139526L201.313293,313.286560L200.627930,313.581726L200.018402,314.012146L199.510956,314.559265L199.127594,315.199402L198.884949,315.905029L198.793381,316.645630L198.856796,317.389038L237.544006,517.164307L237.758850,517.852051L238.123077,518.473694L238.617950,518.997314L239.218140,519.396118L239.892517,519.649475L240.606750,519.744385L356.505280,522.194214L357.258881,522.125793L357.979736,521.895935L358.633789,521.515503L359.189941,521.002441L359.621887,520.381226L359.909088,519.681274L407.926483,357.114990L408.102203,356.056946L408.030609,354.986816L407.715485,353.961609L407.173615,353.036011L406.433960,352.259338L405.535828,351.673096z" fill="#000000" stroke="none" fill-opacity="1" />
				<polyline points="329.693756,316.670776 407.435059,353.595581 425.365295,462.721375 442.471649,461.348633 444.634369,489.659790 384.424988,499.280823 366.130371,445.370117" fill="#E3E3C1" stroke="none" fill-opacity="1" />
				<path d="M330.897491,314.136414L330.344299,313.941528L329.762573,313.865906L329.177948,313.912903L328.615814,314.080383L328.100769,314.361145L327.655396,314.742798L327.299103,315.208740L327.047455,315.738525L326.911438,316.309143L326.897034,316.895447L327.004852,317.471985L327.230255,318.013550L327.563202,318.496399L327.989380,318.899475L328.489990,319.205139L403.221008,356.766785L422.314545,463.222595L422.489014,463.854980L422.792938,464.436279L423.212555,464.940369L423.729218,465.344666L424.319489,465.630737L424.956848,465.785889L425.612579,465.803101L439.424042,464.914185L441.141327,486.903442L386.388855,496.023743L366.130371,445.370117L381.672668,500.214844L381.963745,500.826721L382.388611,501.354675L382.924133,501.769775L383.541321,502.049683L384.206543,502.179016L384.883575,502.150879L445.150818,492.891785L445.821350,492.709961L446.438293,492.390747L446.974121,491.948486L447.404358,491.403076L447.709991,490.779236L447.876923,490.104858L447.897827,489.410522L445.772369,461.096497L445.632935,460.366638L445.334290,459.686157L444.891357,459.089539L444.326508,458.606750L443.668152,458.262085L442.949554,458.072937L442.206879,458.048889L427.954651,459.411987L412.045715,352.838074L411.731445,351.758972L411.168457,350.786133L410.389587,349.975891L409.439728,349.375000z" fill="#000000" stroke="none" fill-opacity="1" />
				<polyline points="247.622452,323.450378 241.929352,373.912109 172.872269,464.810364 131.825394,438.564270 142.575439,416.022156 153.748947,422.711914 176.499023,384.486694 202.382767,316.713623" fill="#E3E3C1" stroke="none" fill-opacity="1" />
				<path d="M250.007935,323.719482L250.014557,323.248901L249.929337,322.786072L249.755432,322.348816L249.499527,321.953918L249.171555,321.616394L248.783997,321.349487L248.351807,321.163208L247.891541,321.064880L247.421021,321.058228L246.958206,321.143494L246.520935,321.317444L246.126007,321.573242L245.788513,321.901306L245.521515,322.288879L245.335327,322.721069L245.236954,323.181274L239.799927,373.059082L172.104004,460.492798L137.511368,436.938782L144.246750,421.558838L152.126450,425.421936L152.771210,425.715393L153.465240,425.857788L154.173645,425.841858L154.860550,425.668518L155.491547,425.346313L156.034943,424.891663L156.463272,424.327332L178.924667,385.930359L205.736588,317.994507L205.921982,317.315613L205.971481,316.613586L205.882965,315.915405L205.659912,315.247925L205.311035,314.636719L204.849564,314.105347L204.293320,313.674255L203.663620,313.359924L202.984772,313.174377L202.282761,313.125000L201.584549,313.213501L200.917023,313.436462L200.305847,313.785400L199.774445,314.246826L199.343338,314.803101L199.029007,315.432800L173.948990,383.252197L152.654343,418.375061L144.574615,412.683044L143.841400,412.341980L143.053497,412.159790L142.245026,412.144348L141.450714,412.296387L140.705032,412.609253L140.040115,413.069458L139.484604,413.657104L139.062561,414.346924L127.824554,436.656372L127.484673,437.666992L127.395943,438.729614L127.563614,439.782654L127.977898,440.765198L128.614853,441.620361L129.437531,442.298645L171.135666,467.526245L171.748611,467.831848L172.412277,468.000977L173.096619,468.026184L173.770950,467.906189L174.404724,467.646484L174.969299,467.258667L175.439133,466.760437L243.690460,375.250061L244.127121,374.160034z" fill="#000000" stroke="none" fill-opacity="1" />
				<polyline points="247.072372,248.168091 281.313477,241.901489 301.641876,195.939819 253.556946,215.117859 194.476898,221.487061" fill="#E3E3C1" stroke="none" fill-opacity="1" />
				<path d="M246.552521,245.327576L246.008286,245.483521L245.505035,245.742676L245.061981,246.095093L244.696274,246.527161L244.421753,247.022278L244.249146,247.561340L244.185043,248.123840L244.231827,248.687927L244.387833,249.232117L244.647018,249.735352L244.999405,250.178528L245.431366,250.544312L245.926514,250.818787L246.465607,250.991394L247.028091,251.055481L247.592270,251.008606L281.547211,243.178772L281.848083,243.084717L282.117401,242.921143L282.339386,242.697388L282.500885,242.426636L302.803070,196.453430L302.885986,196.193665L302.911469,195.922241L302.878387,195.651611L302.788361,195.394226L302.645416,195.162048L302.456299,194.965759L302.229431,194.814270L301.975647,194.714844L301.706390,194.671814L301.434174,194.687256L301.171539,194.760498L253.089722,213.236816L194.131577,218.283264L193.513092,218.412170L192.931747,218.659241L192.409760,219.015076L191.967270,219.465759L191.621170,219.994263L191.384750,220.580139L191.267242,221.200745L191.273087,221.832458L191.402023,222.450806L191.649139,223.032166L192.004929,223.554138L192.455688,223.996643L192.984131,224.342773L193.569946,224.579102L194.190582,224.696655L194.822266,224.690796L253.762848,217.027100L299.222198,198.271912L280.403961,240.747986z" fill="#000000" stroke="none" fill-opacity="1" />
				<polyline points="280.979889,241.234436 289.024139,222.160400 281.321564,237.230835 271.144531,208.735901 260.835785,245.213806 234.176147,219.398499 236.020386,245.310730 202.296799,221.631409 194.260239,224.514099 246.935211,249.303345" fill="#000000" stroke="none" fill-opacity="1" />
				<polyline points="153.748947,422.711914 177.511078,437.514832" fill="#E3E3C1" stroke="none" fill-opacity="1" />
				<path d="M155.419113,420.030945L154.863937,419.756653L154.265961,419.595947L153.648209,419.554871L153.034195,419.635254L152.447708,419.833801L151.911270,420.142944L151.445343,420.550781L151.068039,421.041809L150.793671,421.596924L150.632904,422.194885L150.591904,422.812683L150.672256,423.426697L150.870804,424.013184L151.179977,424.549683L151.587875,425.015503L152.078781,425.392883L177.239441,437.950867L177.329758,437.995544L177.426987,438.021667L177.527496,438.028320L177.627396,438.015259L177.722809,437.982971L177.810013,437.932678L177.885834,437.866333L177.947113,437.786499L177.991730,437.696167L178.017944,437.598938L178.024582,437.498413L178.011551,437.398621L177.979218,437.303162L177.928925,437.215942L177.862625,437.140137L177.782776,437.078796z" fill="#000000" stroke="none" fill-opacity="1" />
				<polyline points="425.365295,462.721375 397.769257,466.412537" fill="#E3E3C1" stroke="none" fill-opacity="1" />
				<path d="M425.775177,465.785706L426.365173,465.646851L426.916656,465.395630L427.408539,465.041565L427.821899,464.598328L428.140961,464.083008L428.353241,463.515320L428.450775,462.917175L428.429626,462.311462L428.290802,461.721497L428.039520,461.169983L427.685547,460.678040L427.242279,460.264709L426.726959,459.945679L426.159332,459.733459L425.561127,459.635925L424.955444,459.656982L397.693665,465.847900L397.584991,465.873474L397.483307,465.919800L397.392700,465.985046L397.316528,466.066711L397.257751,466.161682L397.218628,466.266296L397.200623,466.376465L397.204590,466.488098L397.230164,466.596863L397.276489,466.698486L397.341736,466.789124L397.423370,466.865295L397.518341,466.924072L397.622925,466.963135L397.733124,466.981140L397.844818,466.977234z" fill="#000000" stroke="none" fill-opacity="1" />
			</g>
			<!--Layer: apron-->
			<g id="apron">
				<polyline points="221.963303,304.834351 211.508286,350.163513 242.162872,549.731934 222.746796,674.392151 118.232712,928.750244 208.956421,944.686157 341.604492,946.569458 488.742462,922.754517 455.568176,755.456665 390.374390,598.411255 342.552673,532.283752 367.170624,524.812195 362.409943,506.242065 339.724060,505.062744 361.478638,394.858948 399.364899,344.831177 362.285126,326.527649 326.241302,366.802429 270.075806,442.097290 254.066589,372.818298 251.228424,302.992798 223.064590,303.285522" fill="#282040" stroke="none" fill-opacity="1" />
				<path d="M223.888184,305.278320L223.937836,304.894226L223.911560,304.507874L223.810364,304.134094L223.638336,303.787170L223.401855,303.480469L223.110001,303.225830L222.774200,303.033020L222.407150,302.909424L222.023148,302.859802L221.636780,302.886047L221.262985,302.987183L220.916031,303.159241L220.609329,303.395752L220.354736,303.687500L220.161926,304.023376L220.038300,304.390381L207.920364,349.335938L207.868835,350.722534L238.241257,549.727844L220.594955,673.791504L109.365532,925.106812L108.778809,927.161316L108.661705,929.294800L109.020042,931.401245L109.836044,933.375916L111.069168,935.120911L112.658134,936.549377L114.524063,937.590393L116.574203,938.192261L207.520859,952.859070L341.500977,953.859497L490.111176,931.210693L491.998444,930.677856L493.715149,929.729614L495.171265,928.415894L496.290344,926.805420L497.013947,924.982544L497.303864,923.042969L497.145081,921.088318L457.725403,755.028809L393.254364,597.215759L347.434692,533.928772L368.187531,528.162720L368.888580,527.863281L369.508209,527.419189L370.016998,526.851440L370.390900,526.187012L370.612091,525.457520L370.670197,524.697388L370.562378,523.942688L365.619019,505.419373L365.309998,504.640625L364.815491,503.964233L364.167084,503.433655L363.406372,503.082642L362.581909,502.933655L343.147644,502.394836L363.573395,395.798279L401.286835,346.286682L401.558197,345.832092L401.723785,345.329163L401.775665,344.802246L401.711212,344.276794L401.533569,343.778015L401.251404,343.330017L400.878235,342.954407L400.432098,342.669312L363.311493,324.448425L362.840759,324.276489L362.344147,324.209656L361.844696,324.251160L361.365845,324.398926L360.929932,324.646179L360.557312,324.981323L324.600250,365.333801L271.637695,434.656006L256.832062,372.445862L252.452209,302.943054L252.411774,302.677063L252.314316,302.426392L252.164429,302.203003L251.969391,302.017639L251.738693,301.879395L251.483307,301.794861L251.215683,301.768127L223.045563,301.455811L222.688919,301.494751L222.346771,301.602417L222.032211,301.774719L221.757278,302.005249L221.532593,302.284851L221.366776,302.602905L221.266327,302.947266L221.234848,303.304565L221.273682,303.661194L221.381393,304.003296L221.553818,304.317871L221.784241,304.592773L222.063873,304.817444L222.381943,304.983215L222.726242,305.083801L223.083618,305.115234L250.052902,304.229797L251.290665,372.931091L266.960602,442.817139L267.174652,443.441162L267.512207,444.007874L267.958832,444.493347L268.495667,444.876770L269.099670,445.141846L269.745331,445.277405L270.404968,445.277527L271.050598,445.142273L271.654694,444.877441L272.191681,444.494202L272.638550,444.008972L327.947815,368.197876L362.838318,329.386536L395.681580,345.701599L359.695404,393.508423L359.284058,394.425720L336.935852,504.512329L336.882629,505.117615L336.959167,505.720398L337.162262,506.293152L337.482361,506.809692L337.904968,507.246338L338.410767,507.583069L338.976532,507.804688L339.576569,507.900879L359.805695,509.423889L362.946533,522.435059L341.683777,529.420715L341.102509,529.666687L340.585724,530.029175L340.156494,530.492004L339.833923,531.034607L339.632385,531.632751L339.560822,532.259827L339.622375,532.888062L339.814392,533.489380L340.128235,534.036987L387.634186,599.943359L453.453430,756.098328L478.613739,915.716187L341.069702,939.270447L209.738113,936.398438L131.629410,921.370117L224.799026,675.235474L245.992249,550.328369L215.255035,350.302734z" fill="#000000" stroke="none" fill-opacity="1" />
				<polyline points="431.169830,492.519104 459.145782,607.636963 367.365021,701.398071 350.039215,629.846191 348.891846,618.623291 325.612274,611.233032 334.137726,610.104126 358.609100,603.358276 368.297272,625.996704 417.980011,587.124634 387.216064,501.076599" fill="#AB91EE" stroke="none" fill-opacity="1" />
				<path d="M435.401733,491.490662L435.119843,490.684814L434.686066,489.949463L434.117126,489.312866L433.435059,488.799438L432.665833,488.429016L431.839172,488.215698L430.986694,488.167847L430.141388,488.287170L429.335510,488.569153L428.600189,489.002869L427.963593,489.571716L427.450195,490.253906L427.079742,491.023071L426.866486,491.849731L426.818573,492.702148L426.937958,493.547485L456.720673,606.970581L369.136047,694.963379L353.051239,629.329956L351.532593,618.353333L351.399536,617.752686L351.131683,617.198730L350.743561,616.721313L350.255981,616.346069L349.695038,616.093201L325.980865,611.265442L334.244568,610.911255L357.054230,606.587646L364.660767,627.552979L365.108459,628.337158L365.722412,628.999390L366.470581,629.505188L367.313873,629.828003L368.208496,629.951233L369.107727,629.868286L369.964661,629.583618L370.734741,629.112061L419.335144,588.856689L419.721588,588.467468L419.999725,587.994751L420.152222,587.467896L420.169617,586.919678L420.050812,586.384277L391.777954,499.445557L391.372162,498.586914L390.806580,497.823975L390.103027,497.185913L389.288513,496.697510L388.394348,496.377319L387.454956,496.237732L386.506348,496.284058L385.584961,496.514587L384.726379,496.920471L383.963379,497.486084L383.325409,498.189575L382.836945,499.004089L382.516724,499.898193L382.377136,500.837646L382.423492,501.786255L382.654022,502.707581L415.374847,586.370544L369.910431,619.712219L361.091431,602.296021L360.768982,601.738037L360.323547,601.272400L359.780457,600.925537L359.170624,600.717285L358.528809,600.659424L357.891571,600.755371L333.975372,609.304321L325.601624,611.153076L325.585449,611.156982L325.570312,611.164185L325.557007,611.174316L325.546082,611.187012L325.537994,611.201599L325.533112,611.217590L325.531647,611.234253L325.533691,611.250854L325.539062,611.266724L325.547607,611.281128L325.558929,611.293396L325.572601,611.303101L325.587891,611.309753L346.428192,620.626282L347.006012,630.156250L364.220215,702.159546L364.452209,702.806946L364.815643,703.390686L365.294312,703.884399L365.866547,704.265869L366.506439,704.517822L367.185059,704.628784L367.871826,704.593872L368.535736,704.414551L369.146698,704.098999L369.677216,703.661499L460.717377,609.175354L461.052734,608.732483L461.266388,608.219666L461.344696,607.669678L461.282806,607.117615z" fill="#000000" stroke="none" fill-opacity="1" />
			</g>
			<!--Layer: red-->
			<g id="red">
				<polyline points="260.280945,107.313721 165.413361,71.571289 241.805115,159.508484 357.900970,151.959717 386.046478,103.321167 367.065338,73.948425 262.870575,45.311096 260.380341,107.233948" fill="#F92929" stroke="none" fill-opacity="1" />
				<path d="M259.510315,109.359192L259.924194,109.470154L260.351746,109.498352L260.776550,109.442505L261.182404,109.304932L261.553497,109.090881L261.875763,108.808411L262.136688,108.468567L262.326263,108.084412L262.437317,107.670471L262.465515,107.242981L262.409698,106.818115L262.272156,106.412415L262.058075,106.041260L261.775635,105.719055L261.435822,105.458069L261.051544,105.268372L167.523911,65.969482L166.347885,65.658447L165.133163,65.591614L163.930115,65.771729L162.788269,66.191284L161.754822,66.833069L160.872513,67.670593L160.177750,68.669067L159.699127,69.787537L159.456436,70.979553L159.459824,72.195984L159.709106,73.386658L160.193893,74.502380L160.894257,75.497070L239.760910,161.284302L240.392700,161.818726L241.156494,162.137329L241.980759,162.210510L358.137390,155.595520L359.013306,155.429260L359.822632,155.055176L360.516876,154.495850L361.054504,153.784607L390.586853,105.948486L391.129181,104.619080L391.290680,103.192322L391.059357,101.775269L390.452362,100.473999L370.592834,71.668884L369.548737,70.561279L368.178345,69.898621L263.533051,42.901001L262.979034,42.813965L262.419434,42.852539L261.882721,43.015137L261.395721,43.293091L260.982849,43.672852L260.665100,44.134888L260.458435,44.656250L260.373138,45.210571L258.196381,107.146179L258.221283,107.573914L258.329071,107.988647L258.515717,108.374268L258.773987,108.716125L259.094025,109.001160L259.463470,109.218140L259.868134,109.358826L260.292511,109.417908L260.720276,109.393066L261.135010,109.285278L261.520630,109.098633L261.862549,108.840393L262.147491,108.520447L262.364380,108.150940L262.505219,107.746155L262.564270,107.321899L265.241699,48.554993L364.407410,77.573669L379.898193,103.472229L355.722290,148.450256L242.968918,156.719421L185.461746,85.521729z" fill="#000000" stroke="none" fill-opacity="1" />
				<polyline points="278.201630,317.325012 250.659714,354.517700 245.339569,403.786499 232.131317,380.613525 222.281830,372.628235 235.924515,334.251587 267.618408,313.372192" fill="#F92929" stroke="none" fill-opacity="1" />
				<path d="M280.024109,318.674622L280.252441,318.293152L280.401825,317.874451L280.466766,317.434692L280.444641,316.990662L280.336304,316.559448L280.145874,316.157776L279.880798,315.800842L279.551178,315.502563L279.169708,315.274292L278.750946,315.124756L278.311249,315.059875L277.867188,315.082031L277.436005,315.190369L277.034302,315.380737L276.677429,315.645813L276.379120,315.975403L248.119186,352.636353L247.516785,354.178345L243.883102,396.790100L234.041931,379.524475L233.516266,378.905212L224.874908,371.899475L238.655319,336.392456L268.832489,315.215088L269.168701,314.942810L269.445312,314.610229L269.651764,314.229980L269.780029,313.816833L269.825287,313.386597L269.785645,312.955750L269.662750,312.540955L269.461334,312.158081L269.189087,311.821899L268.856384,311.545227L268.476257,311.338867L268.063080,311.210510L267.632782,311.165283L267.201965,311.204956L266.787170,311.327820L266.404297,311.529236L234.114532,331.504028L233.335342,332.221558L232.824509,333.149536L220.209717,371.891602L220.092667,372.418884L220.107620,372.958801L220.253830,373.478760L220.522247,373.947449L220.896881,374.336609L230.425369,382.061584L243.429016,404.875549L243.697479,405.249268L244.037872,405.559021L244.435333,405.791199L244.872330,405.935486L245.329880,405.985596L245.787827,405.939453L246.226120,405.799072L246.625519,405.570496L246.968735,405.263733L247.240494,404.892334L247.429001,404.472473L247.526062,404.022583L253.710693,355.709717z" fill="#000000" stroke="none" fill-opacity="1" />
				<polyline points="299.828369,324.133423 312.503601,375.076965 330.860504,410.443604 346.238831,389.580811 356.756042,382.632751 324.057068,349.695923 309.898346,320.985657" fill="#F92929" stroke="none" fill-opacity="1" />
				<path d="M301.161621,323.801697L301.071289,323.547974L300.933136,323.316772L300.752594,323.116943L300.536621,322.956116L300.293243,322.840637L300.032196,322.774780L299.763214,322.761108L299.496704,322.800232L299.243011,322.890503L299.011749,323.028625L298.811859,323.209167L298.651154,323.425232L298.535522,323.668518L298.469727,323.929688L298.456116,324.198669L298.495209,324.465149L310.369476,375.607971L328.908630,411.456726L329.184235,411.867188L329.544617,412.205627L329.971527,412.455139L330.443298,412.602844L330.936218,412.641541L331.425262,412.569031L331.885803,412.389221L332.294495,412.110962L332.630737,411.748474L347.777130,391.200378L357.970978,384.471741L358.344666,384.160522L358.641052,383.774963L358.845703,383.333801L358.948517,382.858521L358.944672,382.372192L358.834259,381.898621L358.622711,381.460754L358.320190,381.079895L326.521149,347.936951L311.373535,320.258118L311.203247,319.984314L310.982819,319.748962L310.720734,319.561157L310.427002,319.428101L310.113007,319.354858L309.790741,319.344299L309.472534,319.396790L309.170776,319.510376L308.896973,319.680664L308.661591,319.901123L308.473816,320.163269L308.340668,320.456970L308.267517,320.770935L308.256989,321.093262L308.309540,321.411377L308.423065,321.713135L321.377350,351.017395L353.296661,382.276550L345.026550,387.745911L331.185608,406.296143L314.575073,374.294128z" fill="#000000" stroke="none" fill-opacity="1" />
				<polyline points="293.866241,299.704590 343.680634,276.969543 332.896606,310.003418 336.482086,349.265503 297.218994,321.141296" fill="#F92929" stroke="none" fill-opacity="1" />
				<path d="M293.698730,299.337585L293.630402,299.377380L293.571045,299.429688L293.523041,299.492554L293.488312,299.563599L293.468048,299.640015L293.463074,299.718933L293.473602,299.797302L293.499237,299.872192L293.538940,299.940552L293.591278,299.999817L293.654175,300.047791L293.725128,300.082581L293.801697,300.102844L293.880615,300.107788L293.959015,300.097290L294.033813,300.071655L337.876160,283.467468L330.980286,309.377869L330.889099,310.186707L332.740875,342.733582L297.605194,320.602112L297.492615,320.537170L297.369446,320.495361L297.240570,320.478394L297.110779,320.486938L296.985229,320.520630L296.868622,320.578125L296.765503,320.657288L296.679840,320.755066L296.614899,320.867737L296.573029,320.990784L296.556152,321.119751L296.564606,321.249451L296.598297,321.375000L296.655884,321.491638L296.734985,321.594788L296.832794,321.680481L334.658508,351.811401L335.222351,352.132568L335.840271,352.330627L336.485779,352.397156L337.131104,352.329102L337.748627,352.129578L338.311676,351.807129L338.796234,351.375427L339.181427,350.853271L339.450684,350.262817L339.592468,349.629578L339.600739,348.980774L334.941895,310.233948L347.009155,278.056152L347.162659,277.336975L347.162659,276.601624L347.008972,275.882446L346.708557,275.211304L346.274567,274.617676L345.726196,274.127747L345.087494,273.763184L344.386841,273.540100L343.654968,273.468262L342.924255,273.550781L342.226898,273.784180z" fill="#000000" stroke="none" fill-opacity="1" />
				<polyline points="288.338226,299.223328 240.857895,279.073364 249.379822,308.159424 243.235580,337.949524 285.880402,317.122437" fill="#F92929" stroke="none" fill-opacity="1" />
				<path d="M287.925964,300.194641L288.123444,300.256470L288.329102,300.278503L288.535126,300.260010L288.733521,300.201660L288.916779,300.105713L289.077942,299.975891L289.210510,299.817139L289.309540,299.635559L289.371338,299.438110L289.393372,299.232422L289.374908,299.026428L289.316559,298.827942L289.220642,298.644653L289.090851,298.483704L288.932068,298.351074L288.750458,298.251953L242.291260,275.695862L241.572998,275.474609L240.824661,275.404419L240.077850,275.488159L239.363678,275.722290L238.712234,276.097046L238.150818,276.596680L237.702896,277.200256L237.387482,277.882446L237.217667,278.614502L237.200500,279.365906L237.336807,280.104980L246.799927,308.264771L240.702011,337.427002L240.648605,337.947449L240.701096,338.468018L240.857224,338.967407L241.110687,339.425049L241.451065,339.822449L241.864334,340.143188L242.333832,340.374268L242.840149,340.506104L243.362640,340.533386L243.879944,340.454956L244.370895,340.274048L286.843994,319.095337L287.210419,318.869446L287.525665,318.576416L287.777771,318.227539L287.956818,317.836121L288.056213,317.417358L288.071899,316.987183L288.003448,316.562256L287.853302,316.158875L287.627441,315.792480L287.334503,315.477234L286.985504,315.225159L286.594147,315.046021L286.175323,314.946716L285.745178,314.930969L285.320251,314.999451L284.916840,315.149475L246.833237,333.313477L251.833496,308.665466L251.784119,307.455017L246.557739,285.478088z" fill="#000000" stroke="none" fill-opacity="1" />
				<polyline points="298.790741,323.467529 299.580811,297.336914 280.832764,295.647278 281.826050,319.695618 298.500519,324.047729" fill="#F92929" stroke="none" fill-opacity="1" />
				<path d="M297.348114,323.423950L297.367340,323.706238L297.441254,323.979309L297.567078,324.232788L297.739777,324.456787L297.953064,324.642822L298.198425,324.783630L298.466553,324.873901L298.747070,324.910156L299.029419,324.890930L299.302429,324.817017L299.555878,324.691284L299.779907,324.518433L299.965942,324.305298L300.106750,324.059875L300.197083,323.791748L300.233337,323.511169L301.346863,297.390320L301.317230,297.010742L301.207092,296.646423L301.021423,296.314087L300.768921,296.029236L300.461243,295.805054L300.112640,295.652039L299.739349,295.577148L280.902649,294.871399L280.737213,294.874146L280.576172,294.911682L280.426636,294.982422L280.295471,295.083191L280.188446,295.209351L280.110535,295.355286L280.065125,295.514282L280.054352,295.679443L280.239288,319.761169L280.307098,320.159058L280.472931,320.527039L280.726288,320.841309L281.050537,321.081543L281.424957,321.232239L298.316498,324.752625L298.457550,324.774963L298.600250,324.769409L298.739105,324.736084L298.868835,324.676331L298.984406,324.592346L299.081360,324.487488L299.155945,324.365723L299.205414,324.231750L299.227722,324.090637L299.222198,323.947937L299.188873,323.809082L299.129089,323.679443L299.045105,323.563904L298.940247,323.466919L298.818420,323.392334L298.684509,323.342834L283.364349,318.455750L281.647736,296.502869L297.764435,298.947205z" fill="#000000" stroke="none" fill-opacity="1" />
				<polyline points="262.870575,45.311096 298.544708,105.939941" fill="#F92929" stroke="none" fill-opacity="1" />
				<path d="M265.024872,44.043457L264.736176,43.647583L264.375793,43.315552L263.957611,43.060181L263.497559,42.891479L263.013519,42.815552L262.523956,42.835693L262.047668,42.950928L261.603027,43.156738L261.207092,43.445557L260.875092,43.805786L260.619812,44.224121L260.450989,44.684082L260.375183,45.168091L260.395294,45.657776L260.510406,46.134033L260.716309,46.578552L298.544708,105.939941z" fill="#000000" stroke="none" fill-opacity="1" />
				<polyline points="386.046478,103.321167 311.598358,108.186646" fill="#F92929" stroke="none" fill-opacity="1" />
				<path d="M386.388550,108.555847L387.403259,108.388428L388.365753,108.026489L389.239136,107.483582L389.989899,106.780762L390.589020,105.944946L391.013611,105.008362L391.247314,104.006897L391.281128,102.979065L391.113831,101.964355L390.751709,101.001892L390.208832,100.128479L389.506012,99.377747L388.670258,98.778503L387.733582,98.354004L386.732117,98.120300L385.704315,98.086426L311.598358,108.186646z" fill="#000000" stroke="none" fill-opacity="1" />
			</g>
		</g>
	</g>
</svg>
