<?xml version="1.0" encoding="UTF-8"?>
<!-- Generator: Blender, SVG Export for Grease Pencil - v2.0 -->
<!DOCTYPE svg PUBLIC "-//W3C//DTD SVG 1.1//EN" "http://www.w3.org/Graphics/SVG/1.1/DTD/svg11.dtd">
<svg version="1.0" x="0px" y="0px" xmlns="http://www.w3.org/2000/svg" width="1577.574219px" height="887.385498px" viewBox="0 0 1577.574219 887.385498">
	<g id="blender_frame_1">
		<g id="blender_object_Stroke">
			<!--Layer: Fills-->
			<g id="Fills" />
			<!--Layer: black-->
			<g id="black">
				<polyline points="208.308533,456.132904 199.908478,512.533081 165.108414,742.933655 268.308716,914.534119 303.108826,906.134155 255.108673,775.333740 222.708588,733.333618 263.508759,619.333313 301.908844,717.733582 315.108948,931.334106 351.109039,927.734131 379.909119,786.133728 354.709045,723.733582 355.909058,509.122406 299.459106,439.498077" fill="#000000" stroke="none" fill-opacity="1" />
			</g>
			<!--Layer: skin-->
			<g id="skin">
				<polyline points="160.317352,472.820831 184.504654,490.728607 202.645065,493.752014 177.127228,460.345795" fill="#AB91EE" stroke="none" fill-opacity="1" />
				<path d="M160.317352,472.820831L183.545013,492.024658L184.239487,492.319305L202.352631,495.506744L202.737442,495.528534L203.117935,495.466888L203.476288,495.324768L203.795532,495.108795L204.060837,494.829132L204.259613,494.498840L204.382553,494.133514L204.423981,493.750275L204.381851,493.367126L204.258163,493.002045L204.058762,492.672150L179.010330,458.907410L178.693542,458.567657L178.316528,458.296265L177.893814,458.103638L177.441666,457.997162L176.977493,457.980957L176.518997,458.055603L176.083862,458.218262L175.688797,458.462708L175.349106,458.779541L175.077682,459.156525L174.885025,459.579224L174.778580,460.031403L174.762360,460.495636L174.837021,460.954102L174.999695,461.389221L175.244171,461.784241L198.501358,491.257935L185.152374,489.201691z" fill="#000000" stroke="none" fill-opacity="1" />
				<polyline points="127.856575,365.954468 69.986145,447.133820 113.389000,465.218323 121.426559,484.910370 117.005852,513.041809 133.482864,488.929138 133.884750,466.825867 140.314758,465.620209 143.529800,500.985474 140.716644,545.995850 155.586151,503.396759 160.408707,463.610840 157.595535,502.593018 142.726074,545.995850 167.642487,508.621155 172.063110,463.208954 176.081848,463.208954 180.502563,505.406128 182.511948,537.958252 189.343887,509.424927 185.726959,450.750732 105.753326,437.488739 144.802460,385.726746" fill="#AB91EE" stroke="none" fill-opacity="1" />
				<path d="M131.101486,368.267700L131.490387,367.590149L131.739716,366.849792L131.839767,366.075073L131.786774,365.295654L131.582687,364.541565L131.235519,363.841797L130.758362,363.223145L130.169785,362.709534L129.492233,362.320618L128.751938,362.071289L127.977165,361.971252L127.197701,362.024231L126.443665,362.228271L125.743889,362.575562L125.125259,363.052612L124.611618,363.641235L68.499283,446.073853L68.300690,446.431335L68.186584,446.824036L68.162842,447.232239L68.230408,447.635559L68.386070,448.013702L68.621994,448.347687L68.926376,448.620819L69.283882,448.819397L110.835175,467.753632L119.409462,485.145050L116.164223,512.909546L116.155014,513.085815L116.182327,513.260254L116.244995,513.425171L116.340302,513.573730L116.464233,513.699463L116.611343,513.796997L116.775429,513.862061L116.949387,513.891968L117.125786,513.885376L117.297012,513.842529L117.455688,513.765381L117.595184,513.657104L117.709343,513.522522L134.926743,489.915802L135.148895,489.460663L135.231400,488.960938L135.068405,467.826538L139.254089,467.023010L141.701843,501.011322L140.650818,545.991699L140.651337,546.005188L140.654633,546.018311L140.660461,546.030457L140.668686,546.041138L140.678894,546.049988L140.690689,546.056519L140.703613,546.060547L140.717072,546.061829L140.730423,546.060364L140.743301,546.056213L140.755005,546.049561L140.765167,546.040588L140.773254,546.029785L140.778931,546.017578L157.245422,503.975952L160.408707,463.610840L155.866318,502.240570L142.636002,545.964966L142.631622,545.984009L142.631149,546.003601L142.634735,546.022827L142.642212,546.040955L142.653259,546.057129L142.667267,546.070801L142.683914,546.081177L142.702194,546.088013L142.721573,546.090942L142.741119,546.089844L142.759979,546.084778L142.777466,546.075928L142.792801,546.063721L142.805252,546.048645L168.895828,509.456757L169.141769,508.767120L172.908401,464.140472L174.405975,465.069580L178.897446,505.539673L182.427368,537.963501L182.430145,537.980469L182.436340,537.996521L182.445602,538.010986L182.457596,538.023315L182.471893,538.032898L182.487732,538.039490L182.504608,538.042725L182.521774,538.042480L182.538559,538.038696L182.554260,538.031677L182.568222,538.021606L182.579834,538.008972L182.588684,537.994202L182.594360,537.978027L191.160339,509.859863L189.443008,450.521637L189.299133,449.701385L188.976471,448.933624L188.491364,448.256775L187.867798,447.704712L187.137177,447.305054L186.336044,447.077789L109.079758,436.159821L148.570465,388.569336L149.052658,387.779602L149.371475,386.911011L149.514725,385.996887L149.476883,385.072388L149.259384,384.173035L148.870667,383.333374L148.325562,382.585693L147.645020,381.958771L146.855347,381.476593L145.986694,381.157776L145.072571,381.014526L144.148056,381.052338L143.248749,381.269836L142.409058,381.658600L141.661423,382.203705L141.034470,382.884155L104.272255,436.371460L104.075630,436.696777L103.949440,437.055389L103.898903,437.432190L103.926361,437.811401L104.030495,438.176971L104.206947,438.513733L104.448372,438.807404L104.744568,439.045746L105.083122,439.218628L105.449799,439.318970L182.193283,453.938660L187.462479,509.261353L182.561600,537.386963L182.109772,505.306946L177.932373,463.015076L177.830444,462.573059L177.624649,462.168854L177.327087,461.826447L176.955582,461.566223L176.532059,461.403625L176.081848,461.348328L172.063110,462.277405L171.836639,462.305359L171.623657,462.387543L171.437195,462.519073L171.288162,462.692017L171.185760,462.895966L171.135971,463.118683L166.179749,508.099579L143.054062,545.332153L159.251083,503.160187L160.408707,463.610840L153.864258,502.996796L140.812500,545.521057L145.348969,501.099182L141.493195,465.513092L141.445618,465.271820L141.349228,465.045624L141.208099,464.844238L141.028442,464.676361L140.817963,464.549225L140.585709,464.468353L140.341782,464.437225L140.096741,464.457184L133.663254,465.644745L133.402176,465.725311L133.166016,465.862762L132.967056,466.050018L132.815475,466.277405L132.719193,466.533142L132.683273,466.804016L131.743851,488.374359L118.434036,509.441681L123.358986,485.214050L123.237640,484.171143L116.465126,463.962769L116.033241,463.206665L115.419785,462.588745L114.666878,462.151398L72.802368,446.329041z" fill="#000000" stroke="none" fill-opacity="1" />
				<polyline points="215.921921,209.561707 219.779953,263.574158 273.748566,257.270630 242.446060,164.229858 178.305862,114.075439 145.063690,160.889709 95.041061,188.139343 107.644379,269.140320 154.251099,266.070435 203.369568,230.626892 224.133255,191.778687" fill="#AB91EE" stroke="none" fill-opacity="1" />
				<path d="M217.743195,209.431580L217.682831,209.078796L217.554764,208.744507L217.363922,208.441711L217.117752,208.181885L216.825562,207.975159L216.498703,207.829346L216.149658,207.750122L215.791779,207.740479L215.438980,207.800842L215.104797,207.928955L214.801926,208.119690L214.542114,208.365906L214.335342,208.658081L214.189590,208.984985L214.110321,209.333984L214.100693,209.691833L216.048203,263.840759L216.208099,264.687378L216.557571,265.475037L217.077881,266.161865L217.741562,266.711426L218.513367,267.094543L219.352356,267.290955L220.214005,267.290222L274.381866,262.692566L275.562103,262.419373L276.652985,261.892639L277.600861,261.138184L278.359039,260.193298L278.890076,259.104431L279.167938,257.925293L279.178894,256.713928L278.922424,255.529907L244.176651,163.647583L243.936508,163.175110L243.570816,162.791504L180.861374,110.807373L180.045242,110.309082L179.136719,110.010925L178.184143,109.928589L177.237946,110.066650L176.348465,110.417664L175.562988,110.962830L174.923294,111.673523L143.819473,159.488281L94.167610,186.535889L93.804466,186.796021L93.515228,187.136414L93.317383,187.536987L93.222694,187.973572L93.236893,188.420044L104.636902,269.608276L104.802490,270.229858L105.094925,270.802795L105.501236,271.301514L106.003311,271.703674L106.578728,271.991272L107.201637,272.151611L107.844429,272.177368L154.509964,270.000488L155.584732,269.776367L156.555786,269.264282L204.438034,232.107605L204.979889,231.487610L225.743576,192.639343L225.880524,192.308655L225.950394,191.957581L225.950394,191.599731L225.880524,191.248596L225.743530,190.917908L225.544647,190.620361L225.291611,190.367188L224.993958,190.168335L224.663300,190.031311L224.312195,189.961548L223.954208,189.961548L223.603195,190.031372L223.272491,190.168457L222.974884,190.367249L222.721802,190.620361L222.522980,190.918030L201.958450,229.393555L152.863678,262.214661L110.223595,265.920166L97.042793,189.128174L145.937180,162.493103L146.552429,161.946777L179.172958,120.019897L240.890091,165.330933L266.427765,252.629822L223.232956,259.404114z" fill="#000000" stroke="none" fill-opacity="1" />
				<polyline points="95.041061,188.139343 102.676735,237.570496 156.930405,225.112244 177.828140,114.193542 144.874069,160.409668" fill="#000000" stroke="none" fill-opacity="1" />
			</g>
			<!--Layer: yella-->
			<g id="yella">
				<polyline points="261.399506,262.321716 332.290985,300.419922 293.228302,433.039856 199.670776,430.146332 166.917603,270.801392 233.908646,261.518799" fill="#E3E3C1" stroke="none" fill-opacity="1" />
				<path d="M262.369171,260.517395L261.998596,260.362915L261.604889,260.283691L261.203369,260.282776L260.809326,260.360229L260.437958,260.513062L260.103577,260.735413L259.819000,261.018677L259.595154,261.352051L259.440674,261.722717L259.361450,262.116333L259.360504,262.517883L259.437988,262.911926L259.590820,263.283264L259.813110,263.617615L260.096436,263.902283L260.429810,264.126099L327.706573,302.334473L291.090393,430.087372L201.836121,427.572968L170.477753,273.317200L234.160690,263.337891L234.510773,263.253723L234.837662,263.102966L235.128830,262.891296L235.373123,262.626892L235.561188,262.319824L235.685684,261.982056L235.742004,261.626465L235.727707,261.266663L235.643646,260.916687L235.492828,260.589783L235.281113,260.298523L235.016693,260.054260L234.709732,259.866211L234.371887,259.741638L234.016357,259.685425L233.656586,259.699646L166.508530,267.848938L165.835968,268.023865L165.222183,268.349854L164.700546,268.809143L164.299515,269.376648L164.040741,270.021667L163.938431,270.709045L163.998047,271.401489L197.085770,430.677704L197.267166,431.235870L197.567398,431.740204L197.971634,432.165680L198.460037,432.491272L199.008240,432.700897L199.589249,432.784149L293.139130,435.923492L293.768341,435.873932L294.371674,435.688660L294.920349,435.376648L295.388000,434.952759L295.752289,434.437347L295.995789,433.855042L335.990540,301.509583L336.140930,300.647644L336.093231,299.773987L335.849762,298.933594L335.423218,298.169678L334.835449,297.521606L334.116699,297.022644z" fill="#000000" stroke="none" fill-opacity="1" />
				<polyline points="274.340118,268.109009 335.666779,298.490845 351.098938,390.119202 365.566559,388.672424 367.013367,411.338440 316.376556,418.572235 301.908905,375.651581" fill="#E3E3C1" stroke="none" fill-opacity="1" />
				<path d="M275.374176,266.021667L274.947083,265.859985L274.496674,265.784790L274.040253,265.798950L273.595337,265.901794L273.179016,266.089539L272.807343,266.354858L272.494629,266.687561L272.252747,267.074951L272.091095,267.502014L272.015930,267.952454L272.030029,268.408875L272.132904,268.853760L272.320618,269.270081L272.585968,269.641785L272.918671,269.954529L273.306030,270.196350L332.170166,301.087952L348.567719,390.545502L348.716766,391.075287L348.975250,391.561035L349.331421,391.980591L349.768768,392.314545L350.267334,392.547638L350.804047,392.669098L351.354309,392.673370L363.005188,391.690735L364.141327,409.003693L318.022095,415.899597L301.908905,375.651581L314.089935,419.343048L314.327454,419.846619L314.674133,420.282349L315.111389,420.627045L315.616058,420.862305L316.161194,420.975677L316.717804,420.961029L367.397644,414.028534L367.958160,413.886261L368.476013,413.628601L368.927490,413.267181L369.292389,412.818390L369.553955,412.302612L369.700409,411.743164L369.725189,411.165314L368.309418,388.497375L368.197632,387.877899L367.947876,387.300140L367.573212,386.794281L367.093292,386.387024L366.533234,386.099609L365.922516,385.947174L365.293060,385.937653L353.231537,387.326263L339.492249,297.846558L339.235596,296.969971L338.781097,296.177734L338.153961,295.513672L337.388855,295.014648z" fill="#000000" stroke="none" fill-opacity="1" />
				<polyline points="204.878860,276.789185 199.091827,318.456116 142.957581,391.373169 108.814034,369.960999 117.494621,353.178467 126.753830,358.965576 145.272385,329.451538 166.917694,270.801331" fill="#E3E3C1" stroke="none" fill-opacity="1" />
				<path d="M206.853027,277.063416L206.868546,276.672974L206.807663,276.287048L206.672638,275.920410L206.468628,275.587158L206.203613,275.300049L205.887665,275.070251L205.532928,274.906433L205.153046,274.815063L204.762634,274.799500L204.376724,274.860352L204.010010,274.995422L203.676773,275.199341L203.389694,275.464478L203.159882,275.780396L202.996078,276.135132L202.904678,276.515015L197.339935,317.721558L142.319870,387.813995L113.639030,368.642944L118.754303,357.776245L125.363914,361.189453L125.893021,361.442749L126.465157,361.572144L127.051720,361.571045L127.623428,361.439697L128.151550,361.184448L128.609848,360.818298L128.975204,360.359375L147.257462,330.697144L169.714035,271.833374L169.861618,271.268005L169.896072,270.684692L169.816101,270.105835L169.624710,269.553772L169.329300,269.049622L168.941238,268.612793L168.475418,268.260132L167.949646,268.005005L167.384323,267.857422L166.801010,267.822937L166.222153,267.902954L165.670151,268.094299L165.165955,268.389709L164.729141,268.777832L164.376419,269.243652L164.121323,269.769348L143.157913,328.411987L125.923775,355.354248L119.207108,350.438416L118.518990,350.113953L117.774033,349.959412L117.013557,349.983337L116.279793,350.184326L115.613396,350.551453L115.051277,351.064087L114.624565,351.694031L105.545242,368.270264L105.262115,368.997925L105.138840,369.768982L105.181107,370.548706L105.386848,371.301941L105.746933,371.994812L106.245018,372.596069L106.858803,373.078796L141.535599,393.640594L142.130112,393.918457L142.774368,394.043274L143.429611,394.007629L144.056473,393.813568L144.617279,393.472778L145.078354,393.005798L200.546860,319.576233L200.910614,318.708740z" fill="#000000" stroke="none" fill-opacity="1" />
				<polyline points="204.010010,227.590820 210.987091,199.403442 186.148727,166.471497 181.404358,209.171387 164.848511,255.720215" fill="#E3E3C1" stroke="none" fill-opacity="1" />
				<path d="M201.682663,227.014771L201.615051,227.479858L201.639404,227.949280L201.754822,228.404846L201.956985,228.829163L202.238007,229.205933L202.587189,229.520569L202.990952,229.761047L203.433975,229.918213L203.899048,229.985840L204.368454,229.961487L204.824036,229.846008L205.248398,229.643860L205.625076,229.362854L205.939758,229.013733L206.180283,228.609863L206.337372,228.166870L212.033508,199.662415L212.063553,199.345642L211.999802,199.033813L211.847763,198.754211L186.990356,165.836792L186.834167,165.670654L186.645828,165.541931L186.434204,165.456787L186.209290,165.419128L185.981491,165.430725L185.761505,165.491089L185.559677,165.597290L185.385391,165.744568L185.246933,165.925781L185.150543,166.132507L185.101044,166.355164L179.840210,208.811401L162.327728,254.823730L162.201309,255.332703L162.176575,255.856567L162.254532,256.375183L162.432098,256.868713L162.702591,257.317993L163.055527,257.705994L163.477402,258.017639L163.951965,258.240906L164.460953,258.367371L164.984848,258.392151L165.503479,258.314209L165.996948,258.136597L166.446274,257.866150L166.834244,257.513123L167.145859,257.091309L167.369232,256.616760L182.906555,209.705627L186.903656,169.223083L209.817261,199.642700z" fill="#000000" stroke="none" fill-opacity="1" />
				<path d="M210.768417,200.459045L210.978531,200.481384L211.189072,200.462341L211.391708,200.402588L211.578918,200.304382L211.743332,200.171631L211.878693,200.009338L211.979721,199.823792L212.042679,199.622009L212.065063,199.411865L212.045975,199.201355L211.986267,198.998718L211.888092,198.811584L211.755325,198.647156L211.593033,198.511780L211.407410,198.410767L211.205673,198.347778L183.467957,193.150635L183.352295,193.139282L183.236832,193.153015L183.126953,193.190918L183.027618,193.251404L182.943542,193.331665L182.878387,193.427979L182.835266,193.536011L182.816238,193.650635L182.821915,193.766785L182.852249,193.878967L182.905838,193.982178L182.980225,194.071594L203.661255,215.374329L177.211487,224.281250L176.996521,224.377563L176.807480,224.518005L176.653320,224.696045L176.541367,224.903259L176.476776,225.129700L176.462860,225.364807L176.500046,225.597412L176.586700,225.816406L176.718567,226.011475L176.889664,226.173401L177.091644,226.294495L195.019257,234.671814L166.893341,248.238403L166.573776,248.443726L166.300385,248.707458L166.083694,249.019470L165.932114,249.367737L165.851303,249.738892L165.844482,250.118652L165.911850,250.492493L166.050964,250.845947L166.256287,251.165527L166.519943,251.438904L166.831985,251.655518L167.180145,251.807190L167.551331,251.888000L167.931168,251.894836L168.304932,251.827393L168.658447,251.688354L198.325851,235.686401L198.531219,235.553406L198.705460,235.381653L198.841415,235.178284L198.933533,234.951660L198.977905,234.711121L198.972824,234.466492L198.918335,234.227966L198.816788,234.005432L198.672501,233.807922L198.491165,233.643616L198.280380,233.519409L180.519714,225.488342L206.823975,217.377930L207.094696,217.258667L207.335312,217.086487L207.535599,216.868835L207.687180,216.614807L207.783554,216.335083L207.820755,216.041626L207.797104,215.746704L207.713699,215.462891L207.574005,215.202148L207.383881,214.975464L185.075882,194.591919z" fill="#000000" stroke="none" fill-opacity="1" />
				<polyline points="126.753830,358.965576 146.526291,371.021912" fill="#E3E3C1" stroke="none" fill-opacity="1" />
				<path d="M128.119110,356.726501L127.656097,356.503174L127.158348,356.374512L126.645081,356.345337L126.136002,356.416931L125.650658,356.586426L125.207726,356.847351L124.824173,357.189697L124.514771,357.600281L124.291489,358.063354L124.162766,358.561035L124.133614,359.074341L124.205215,359.583435L124.374664,360.068787L124.635643,360.511719L124.977966,360.895264L125.388550,361.204590L146.304184,371.386108L146.379547,371.422424L146.460464,371.443359L146.543961,371.448120L146.626801,371.436462L146.705704,371.408936L146.777817,371.366455L146.840164,371.310730L146.890472,371.244019L146.926804,371.168701L146.947739,371.087708L146.952438,371.004211L146.940781,370.921387L146.913269,370.842468L146.870819,370.770447L146.815094,370.708069L146.748337,370.657715z" fill="#000000" stroke="none" fill-opacity="1" />
				<polyline points="351.098938,390.119202 327.950684,393.012726" fill="#E3E3C1" stroke="none" fill-opacity="1" />
				<path d="M351.417328,392.666290L351.908112,392.555206L352.367828,392.350525L352.778687,392.060120L353.125092,391.695129L353.393616,391.269562L353.573914,390.799774L353.659119,390.303833L353.645996,389.800842L353.534882,389.310059L353.330231,388.850372L353.039825,388.439453L352.674805,388.093048L352.249207,387.824524L351.779480,387.644196L351.283569,387.558990L350.780548,387.572174L327.891998,392.543427L327.801575,392.563873L327.716858,392.601593L327.641113,392.655121L327.577332,392.722351L327.527863,392.800781L327.494568,392.887360L327.478912,392.978729L327.481354,393.071442L327.501831,393.161896L327.539520,393.246552L327.593079,393.322296L327.660339,393.386139L327.738739,393.435608L327.825287,393.468811L327.916687,393.484528L328.009399,393.482086z" fill="#000000" stroke="none" fill-opacity="1" />
			</g>
			<!--Layer: apron-->
			<g id="apron">
				<polyline points="183.631577,260.614563 174.075180,300.031616 200.741882,456.699371 184.864792,559.919189 114.908539,772.534851 206.575165,788.368286 294.075104,785.868286 413.241730,755.868103 378.241760,625.033813 318.241760,500.032990 281.575134,443.365936 301.575104,438.365845 298.241760,423.365753 279.908447,421.699127 297.408417,333.365173 329.075043,290.864868 299.908386,276.698059 268.241760,309.198303 223.241791,372.532104 209.075119,316.698425 208.429123,258.590210 184.585510,259.165466" fill="#282040" stroke="none" fill-opacity="1" />
				<path d="M185.225540,261.001038L185.270248,260.682617L185.252045,260.361633L185.171555,260.050293L185.031876,259.760742L184.838455,259.503967L184.598541,259.289856L184.321518,259.126648L184.017990,259.020630L183.699600,258.975891L183.378586,258.994080L183.067337,259.074585L182.777725,259.214233L182.520981,259.407715L182.306824,259.647583L182.143585,259.924622L182.037567,260.228149L171.104141,299.311279L171.061356,300.544556L197.482300,456.725372L183.067291,559.488342L107.347954,770.047241L106.991577,771.715210L106.998718,773.420776L107.369057,775.085693L108.085670,776.633423L109.115540,777.993042L110.411423,779.101929L111.913895,779.909302L113.553795,780.377991L205.402512,795.157288L294.247986,791.919006L414.978027,762.765076L416.482513,762.198975L417.821594,761.309387L418.926544,760.141907L419.741150,758.756042L420.223694,757.222656L420.349518,755.619995L420.112274,754.030151L380.005585,624.562012L320.575714,498.912689L285.548035,444.933228L302.280243,441.186188L302.880341,440.963501L303.417206,440.614899L303.864746,440.157227L304.201294,439.612701L304.410492,439.007721L304.482239,438.371613L304.413025,437.735229L300.926758,422.769135L300.692810,422.117767L300.303650,421.545410L299.783997,421.088379L299.166687,420.775482L298.490784,420.626617L282.732452,419.586517L299.148682,334.138062L330.680145,292.060791L330.902344,291.681946L331.036530,291.263733L331.076355,290.826294L331.019745,290.390747L330.869537,289.978027L330.632843,289.607971L330.321228,289.298462L329.949585,289.064331L300.749512,274.966431L300.294739,274.812134L299.815887,274.775146L299.342804,274.857910L298.904999,275.055115L298.529541,275.354614L266.932190,307.922302L224.402924,366.314819L211.378632,316.397705L209.445923,258.578979L209.417435,258.351135L209.338638,258.135498L209.213486,257.943054L209.048279,257.783630L208.851562,257.665222L208.633316,257.594055L208.404633,257.573669L184.548843,257.646729L184.253250,257.683044L183.970413,257.776367L183.711212,257.923035L183.485641,258.117493L183.302277,258.352234L183.168289,258.618164L183.088730,258.905151L183.066727,259.202148L183.103073,259.497742L183.196350,259.780579L183.343033,260.039734L183.537491,260.265381L183.772202,260.448669L184.038162,260.582703L184.325150,260.662231L184.622192,260.684265L207.423752,259.631653L206.768585,316.723999L220.668777,373.184937L220.857742,373.699463L221.148285,374.164246L221.528122,374.559387L221.981033,374.868103L222.487671,375.077271L223.026459,375.177856L223.574417,375.165710L224.108231,375.041260L224.605042,374.809814L225.043839,374.481262L225.405670,374.069641L269.650238,310.372864L300.317383,279.036987L326.024780,291.608582L295.919098,332.255493L295.586548,333.004272L277.593781,421.240540L277.549011,421.731873L277.607422,422.221741L277.766418,422.688782L278.018982,423.112579L278.354187,423.474548L278.757355,423.758911L279.210815,423.953247L279.694794,424.049011L295.992493,425.923096L298.122955,436.232330L280.972626,440.955994L280.480988,441.135773L280.037903,441.414581L279.663116,441.779999L279.373199,442.215881L279.181122,442.702881L279.095337,443.219269L279.119720,443.742188L279.253052,444.248383L279.489532,444.715424L315.978882,501.301453L376.521881,625.670349L404.505798,750.733276L293.239868,779.836487L207.067978,781.461914L125.351692,766.261536L186.614563,560.494873L203.922089,457.188538L177.194702,300.139648z" fill="#000000" stroke="none" fill-opacity="1" />
				<polyline points="355.535309,413.794464 376.176178,510.200623 301.940308,583.766724 285.817566,524.484680 284.857544,515.051636 266.505096,508.018829 273.203064,507.348999 292.627167,502.660400 300.329834,522.084595 341.321411,491.742584 318.637634,420.085480" fill="#AB91EE" stroke="none" fill-opacity="1" />
				<path d="M359.071045,413.037476L358.855438,412.362274L358.512207,411.742035L358.054565,411.200745L357.500153,410.759094L356.870239,410.434082L356.188995,410.238220L355.482635,410.179016L354.778320,410.258789L354.103027,410.474365L353.482880,410.817596L352.941559,411.275208L352.499878,411.829651L352.174866,412.459595L351.979065,413.140839L351.919830,413.847168L351.999542,414.551514L374.181702,509.606506L303.323029,578.614441L288.314880,524.021240L287.050171,514.828491L286.906494,514.239746L286.607849,513.712402L286.176910,513.286255L285.646179,512.993652L266.792450,508.057312L273.270325,508.021667L291.260864,505.296295L297.277008,523.295166L297.631104,523.956055L298.125946,524.519409L298.735687,524.955811L299.428467,525.242554L300.168243,525.364746L300.916443,525.315918L301.634094,525.098633L302.283722,524.724243L342.407776,493.210144L342.734802,492.898560L342.975342,492.516205L343.114624,492.086517L343.144196,491.635742L343.062164,491.191528L322.472504,418.871490L322.136292,418.100708L321.647186,417.416687L321.026520,416.849274L320.301514,416.423340L319.503754,416.157379L318.668091,416.063202L317.831238,416.144745L317.029510,416.398529L316.298065,416.813477L315.668884,417.371368L315.169495,418.047913L314.821625,418.813538L314.640564,419.634674L314.634186,420.475555L314.802765,421.299408L339.187195,491.050659L301.808472,516.904175L294.710999,501.834076L294.456970,501.365417L294.099457,500.970032L293.658752,500.670197L293.159729,500.482910L292.630524,500.418732L292.101166,500.481293L273.089600,506.680969L266.498413,507.952240L266.484985,507.955017L266.472321,507.960480L266.461090,507.968384L266.451752,507.978455L266.444611,507.990204L266.440033,508.003174L266.438202,508.016785L266.439178,508.030518L266.442993,508.043701L266.449402,508.055878L266.458130,508.066498L266.468842,508.075073L266.481140,508.081299L282.802246,516.624268L283.299133,524.740967L299.348083,584.471741L299.550232,584.993286L299.856110,585.461731L300.252319,585.856567L300.721710,586.160889L301.244019,586.361328L301.796448,586.449341L302.355072,586.420898L302.895813,586.277466L303.395050,586.025146L303.831207,585.674927L377.461426,511.497559L377.742554,511.138916L377.926086,510.721863L378.000671,510.272339L377.961639,509.818329z" fill="#000000" stroke="none" fill-opacity="1" />
			</g>
			<!--Layer: red-->
			<g id="red">
				<polyline points="107.421341,162.825684 63.214947,208.036499 139.231003,190.290588 177.811401,108.709229 153.698532,69.164429 124.763054,71.575684 63.034126,136.679932 107.401878,162.721619" fill="#F92929" stroke="none" fill-opacity="1" />
				<path d="M108.718872,164.094360L108.941444,163.816772L109.105621,163.501221L109.205055,163.159607L109.235947,162.805237L109.197113,162.451599L109.089966,162.112366L108.918777,161.800476L108.690002,161.528076L108.412521,161.305542L108.096954,161.141357L107.755341,161.041931L107.400986,161.011047L107.047287,161.049866L106.708115,161.156921L106.396217,161.328186L106.123810,161.556946L60.328766,205.214417L59.794109,205.893555L59.416340,206.670959L59.212669,207.510864L59.192547,208.375000L59.356770,209.223511L59.697914,210.017639L60.200226,210.721008L60.840858,211.301208L61.590187,211.731750L62.414085,211.992981L63.274796,212.072754L64.132591,211.967468L139.646149,192.068665L140.152878,191.866699L140.577332,191.523987L140.881622,191.071167L180.546051,110.002441L180.779434,109.293579L180.832184,108.549194L180.701111,107.814514L180.394180,107.134277L157.417114,66.896912L156.656601,65.967590L155.671249,65.281372L154.535828,64.890259L153.336838,64.824036L124.473534,68.100647L123.254005,68.432068L122.232643,69.176331L61.528221,135.252075L61.247730,135.623779L61.057224,136.048645L60.966202,136.505310L60.979366,136.970764L61.095917,137.421570L61.310120,137.835083L61.611015,138.190430L61.983612,138.469604L106.483246,164.286621L106.806190,164.435791L107.152039,164.519043L107.507568,164.533203L107.858963,164.477783L108.192772,164.354858L108.496208,164.169250L108.757614,163.927856L108.966827,163.640198L109.116058,163.317261L109.199226,162.971375L109.213470,162.615906L109.158043,162.264465L109.035095,161.930664L108.849434,161.627197L108.608101,161.365845L108.320419,161.156616L66.337189,136.212341L126.378273,74.940125L151.380066,73.728027L174.379227,108.890930L137.957352,188.712952L75.782249,200.957520z" fill="#000000" stroke="none" fill-opacity="1" />
				<polyline points="230.947662,268.981995 206.462189,301.974915 202.277313,343.152466 191.090469,324.783081 182.915817,318.594666 194.699738,286.246460 222.160950,266.617615" fill="#F92929" stroke="none" fill-opacity="1" />
				<path d="M232.459625,270.104065L232.649521,269.787537L232.773926,269.440063L232.828232,269.074951L232.810226,268.706299L232.720657,268.348206L232.562912,268.014526L232.343216,267.717957L232.069778,267.469971L231.753220,267.280151L231.405731,267.155701L231.040649,267.101379L230.671967,267.119446L230.313889,267.208984L229.980179,267.366699L229.683655,267.586487L229.435638,267.859863L204.354538,300.410767L203.850998,301.709534L201.010284,337.561401L192.649963,323.833374L192.192596,323.327271L185.092957,317.952698L196.976746,287.976624L223.226517,268.108276L223.496796,267.871765L223.715851,267.587036L223.875046,267.265076L223.968460,266.918213L223.992340,266.559814L223.945892,266.203674L223.830841,265.863403L223.651627,265.552124L223.415131,265.281738L223.130417,265.062744L222.808456,264.903503L222.461563,264.810181L222.103226,264.786255L221.747025,264.832703L221.406738,264.947754L221.095444,265.126953L193.111282,284.024109L192.524765,284.593750L192.133087,285.311462L181.200226,317.969666L181.098145,318.421570L181.113144,318.884644L181.244125,319.329041L181.482788,319.726135L181.813766,320.050415L189.711594,326.029297L200.717850,344.102234L200.947281,344.403503L201.233948,344.650940L201.565491,344.833923L201.927658,344.944580L202.304901,344.978149L202.680893,344.933228L203.039520,344.811707L203.365433,344.618774L203.644470,344.362732L203.864731,344.054688L204.016693,343.707825L204.093887,343.337097L209.000320,302.958984z" fill="#000000" stroke="none" fill-opacity="1" />
				<polyline points="248.770767,273.633362 257.063385,316.051758 272.453766,346.102234 284.773254,328.472351 293.320801,322.809998 267.227600,295.332947 257.485596,271.016479" fill="#F92929" stroke="none" fill-opacity="1" />
				<path d="M249.890244,273.414490L249.826019,273.200378L249.721268,273.002808L249.579987,272.829468L249.407593,272.687012L249.210693,272.580994L248.996994,272.515381L248.774521,272.492737L248.551910,272.513916L248.337799,272.578125L248.140198,272.682922L247.966934,272.824158L247.824478,272.996582L247.718414,273.193420L247.652786,273.407166L247.630173,273.629639L247.651367,273.852173L255.271439,316.402161L270.828644,346.934570L271.033051,347.249146L271.297485,347.515320L271.610687,347.721802L271.959503,347.859924L272.329193,347.923828L272.704132,347.910889L273.068512,347.821533L273.406952,347.659607L273.705139,347.431885L273.950470,347.148071L286.071014,329.802795L294.331390,324.335571L294.637634,324.080688L294.881409,323.765564L295.051239,323.405151L295.139069,323.016479L295.140625,322.618042L295.055939,322.228760L294.888977,321.867004L294.647766,321.549866L269.353668,293.969238L258.753265,270.508606L258.629761,270.270996L258.462372,270.062134L258.257477,269.889954L258.022827,269.760986L257.767578,269.680237L257.501465,269.650879L257.234802,269.674072L256.977722,269.748840L256.740204,269.872192L256.531250,270.039673L256.359009,270.244568L256.230072,270.479187L256.149353,270.734436L256.120026,271.000549L256.143188,271.267273L256.217865,271.524353L264.924835,296.255493L265.428741,297.041199L290.492157,322.488770L283.764862,326.950134L283.276520,327.426514L272.695465,342.568604L258.805969,315.448730z" fill="#000000" stroke="none" fill-opacity="1" />
				<polyline points="244.480896,251.803162 286.223633,230.612305 277.416626,262.275513 277.416626,295.196899 246.727798,271.168884" fill="#F92929" stroke="none" fill-opacity="1" />
				<path d="M244.329269,251.504456L244.273880,251.539795L244.226486,251.585205L244.188873,251.639099L244.162506,251.699158L244.148346,251.763245L244.146896,251.828979L244.158371,251.893616L244.182251,251.954773L244.217560,252.010132L244.262970,252.057556L244.316757,252.095154L244.376892,252.121582L244.441025,252.135742L244.506653,252.137085L244.571350,252.125671L244.632523,252.101807L281.654175,236.192200L275.804169,261.826965L274.816589,289.858948L247.067261,270.735291L246.976135,270.677368L246.875473,270.638428L246.769226,270.619812L246.661270,270.622253L246.555923,270.645691L246.457184,270.689331L246.368790,270.751343L246.294235,270.829407L246.236404,270.920471L246.197327,271.021118L246.178711,271.127502L246.181198,271.235413L246.204666,271.340759L246.248245,271.439514L246.310303,271.527832L246.388351,271.602417L275.813721,297.244080L276.259796,297.525391L276.753510,297.710938L277.274445,297.793030L277.801239,297.768372L278.312256,297.637817L278.786377,297.406860L279.204132,297.084961L279.548401,296.685425L279.804901,296.224609L279.963165,295.721497L280.016663,295.196899L279.090271,262.503967L289.024353,231.391296L289.125244,230.789856L289.098450,230.180603L288.945129,229.590393L288.672058,229.045105L288.291229,228.568787L287.819427,228.182373L287.277344,227.902954L286.688934,227.742737L286.080048,227.708801L285.477509,227.802612L284.907715,228.020142z" fill="#000000" stroke="none" fill-opacity="1" />
				<polyline points="239.763138,251.628662 199.611908,235.645508 206.802017,263.370544 200.720352,288.995605 237.357117,268.160217" fill="#F92929" stroke="none" fill-opacity="1" />
				<path d="M239.439102,252.442627L239.604126,252.490234L239.775269,252.504639L239.945938,252.485474L240.109543,252.433350L240.259903,252.350281L240.391113,252.239502L240.498260,252.105286L240.577118,251.952698L240.624695,251.787659L240.639130,251.616516L240.619949,251.445862L240.567749,251.282227L240.484772,251.131897L240.374008,251.000610L240.239731,250.893555L240.087158,250.814697L200.738586,232.815186L200.092789,232.637329L199.423660,232.604980L198.763702,232.719666L198.144745,232.975769L197.596741,233.360962L197.146149,233.856628L196.814819,234.438843L196.618683,235.079346L196.567337,235.747192L196.663193,236.410217L204.658829,263.392761L198.630554,288.499634L198.573013,288.948364L198.610764,289.399109L198.742035,289.831970L198.961029,290.227783L199.258072,290.568848L199.619995,290.840210L200.030670,291.029785L200.472015,291.129089L200.924301,291.133789L201.367599,291.043640L201.782135,290.862671L238.258316,269.744873L238.550140,269.538635L238.796127,269.279419L238.986725,268.977112L239.114792,268.643494L239.175354,268.291321L239.165939,267.934082L239.087097,267.585510L238.941727,267.259094L238.735474,266.967285L238.476273,266.721252L238.174011,266.530579L237.840393,266.402527L237.488205,266.342041L237.130936,266.351379L236.782410,266.430237L236.455933,266.575623L203.950211,284.687927L208.825882,263.850830L208.815445,262.848328L204.069443,240.698669z" fill="#000000" stroke="none" fill-opacity="1" />
				<polyline points="247.945404,273.177368 249.347412,249.341125 233.351410,248.854004 233.883301,270.724609 247.671875,273.561890" fill="#F92929" stroke="none" fill-opacity="1" />
				<path d="M246.749298,273.107056L246.758499,273.341736L246.813370,273.570190L246.911774,273.783447L247.049866,273.973450L247.222412,274.132874L247.422699,274.255615L247.643097,274.336853L247.875076,274.373535L248.109863,274.364319L248.338226,274.309448L248.551529,274.211060L248.741562,274.072998L248.900955,273.900452L249.023666,273.700134L249.104950,273.479797L249.141617,273.247742L250.811844,249.427246L250.793320,249.093384L250.699661,248.772339L250.535721,248.480896L250.310043,248.234131L250.034348,248.044861L249.722961,247.923035L249.392120,247.874756L233.371109,248.207520L233.221786,248.220337L233.079422,248.267212L232.951645,248.345520L232.845383,248.451172L232.766312,248.578430L232.718582,248.720459L232.704803,248.869751L232.565125,270.756653L232.605179,271.048584L232.709045,271.324341L232.871475,271.570129L233.084503,271.773682L233.337448,271.924866L233.617569,272.016174L247.549911,274.154358L247.667923,274.166748L247.785934,274.155884L247.899658,274.122192L248.004608,274.067017L248.096756,273.992432L248.172546,273.901245L248.229141,273.797058L248.264313,273.683777L248.276672,273.565857L248.265869,273.447754L248.232162,273.334045L248.177002,273.229126L248.102341,273.136963L248.011185,273.061218L247.906998,273.004578L247.793732,272.969421L235.175980,269.644470L234.014572,249.521240L247.794388,250.761414z" fill="#000000" stroke="none" fill-opacity="1" />
				<polyline points="63.034126,136.679932 121.387070,134.268677" fill="#F92929" stroke="none" fill-opacity="1" />
				<path d="M62.948463,134.606445L62.545635,134.662964L62.161472,134.797058L61.810925,135.003479L61.507393,135.274353L61.262493,135.599121L61.085712,135.965576L60.983784,136.359436L60.960651,136.765625L61.017166,137.168457L61.151253,137.552551L61.357697,137.903137L61.628506,138.206726L61.953335,138.451538L62.319820,138.628357L62.713623,138.730225L63.119785,138.753418L121.387070,134.268677z" fill="#000000" stroke="none" fill-opacity="1" />
				<polyline points="153.698532,69.164429 128.138947,125.588440" fill="#F92929" stroke="none" fill-opacity="1" />
				<path d="M157.665833,70.961548L157.940201,70.152954L158.051590,69.306458L157.995682,68.454468L157.774628,67.629883L157.396942,66.864136L156.877090,66.186768L156.235107,65.623901L155.495697,65.197083L154.687164,64.922668L153.840652,64.811340L152.988647,64.867249L152.163986,65.088318L151.398209,65.465942L150.720947,65.985779L150.158035,66.627808L149.731186,67.367249L128.138947,125.588440z" fill="#000000" stroke="none" fill-opacity="1" />
			</g>
		</g>
	</g>
</svg>
