<?xml version="1.0" encoding="UTF-8"?>
<!-- Generator: Blender, SVG Export for Grease Pencil - v2.0 -->
<!DOCTYPE svg PUBLIC "-//W3C//DTD SVG 1.1//EN" "http://www.w3.org/Graphics/SVG/1.1/DTD/svg11.dtd">
<svg version="1.0" x="0px" y="0px" xmlns="http://www.w3.org/2000/svg" width="1099.596191px" height="618.522766px" viewBox="0 0 1099.596191 618.522766">
	<g id="blender_frame_2">
		<g id="blender_object_Stroke">
			<!--Layer: Fills-->
			<g id="Fills" />
			<!--Layer: black-->
			<g id="black">
				<polyline points="147.767258,313.858459 142.972931,353.101624 118.149948,526.251160 188.464600,638.660034 213.323868,631.744934 181.898239,543.601440 158.932693,515.285706 189.387619,424.371796 215.052612,497.898071 220.920792,648.906799 246.495956,645.176208 270.005646,543.477112 252.036636,500.092987 252.899902,345.666077 211.403839,295.937042" fill="#000000" stroke="none" fill-opacity="1" />
			</g>
			<!--Layer: skin-->
			<g id="skin">
				<polyline points="39.344582,177.158508 21.963949,163.828827 9.165259,160.425201 27.863691,184.496582" fill="#AB91EE" stroke="none" fill-opacity="1" />
				<path d="M39.344582,177.158508L22.648001,162.936890L22.252789,162.742523L9.483920,159.226929L9.230112,159.186951L8.973486,159.200195L8.725119,159.265991L8.495659,159.381622L8.294972,159.542023L8.131578,159.740356L8.012654,159.968079L7.943148,160.215454L7.926140,160.471832L7.962417,160.726227L8.050275,160.967651L8.186043,161.185822L26.559294,185.509827L26.782003,185.744812L27.046297,185.931854L27.342018,186.063721L27.657763,186.135376L27.981468,186.144043L28.300621,186.089447L28.602930,185.973572L28.876890,185.800995L29.111889,185.578247L29.298910,185.313965L29.430843,185.018250L29.502480,184.702484L29.511131,184.378845L29.456503,184.059662L29.340660,183.757324L29.168089,183.483368L12.400234,162.568512L21.458103,164.857361z" fill="#000000" stroke="none" fill-opacity="1" />
				<polyline points="105.743225,247.238556 36.928051,279.461304 36.981499,209.315033 19.626526,174.368500 27.211885,143.102814 51.956741,148.999725 63.411251,156.510040 37.541744,153.814606 33.680393,166.540192 54.952328,158.577789 73.911415,180.861542 69.689102,194.808380 69.386101,183.553802 62.543552,178.602509 53.439445,187.872437 72.346069,207.341675 66.092995,245.329651 90.788597,230.172363" fill="#AB91EE" stroke="none" fill-opacity="1" />
				<path d="M106.260117,248.342499L106.465553,248.220428L106.643272,248.060608L106.786308,247.869232L106.889313,247.653625L106.948296,247.422028L106.960915,247.183441L106.926765,246.946930L106.847099,246.721588L106.725067,246.516174L106.565277,246.338501L106.373894,246.195435L106.158264,246.092438L105.926743,246.033478L105.688072,246.020844L105.451599,246.054962L105.226273,246.134613L38.148457,277.543884L39.214745,209.316772L38.981682,208.321777L20.915850,174.224152L28.110258,144.570038L51.466724,150.136047L58.545811,154.777527L37.668041,152.602234L37.388378,152.605377L37.116676,152.672180L36.867458,152.799133L36.653664,152.979645L36.486698,153.204102L36.375278,153.460693L32.513958,166.186279L32.466572,166.427643L32.468735,166.673615L32.520187,166.914154L32.618958,167.139465L32.760818,167.340393L32.940174,167.508667L33.149742,167.637573L33.380836,167.721771L33.624161,167.757874L33.869774,167.744385L34.107689,167.681793L54.578350,160.019318L72.552063,181.144897L70.704918,187.246185L70.604607,183.520966L70.538185,183.155640L70.364861,182.827209L70.100700,182.566223L63.258114,177.614990L63.006535,177.474884L62.729069,177.397766L62.441242,177.387848L62.159157,177.445770L61.898499,177.568207L61.673859,177.748413L52.569813,187.018311L52.403698,187.229736L52.287987,187.472443L52.228344,187.734558L52.227558,188.003418L52.285759,188.265930L52.400093,188.509247L52.564964,188.721588L69.828049,208.131073L64.890221,245.131653L64.875244,245.383881L64.912598,245.633820L65.000687,245.870636L65.135704,246.084259L65.311874,246.265411L65.521545,246.406342L65.755882,246.501068L66.004646,246.545380L66.257172,246.537476L66.502693,246.477692L66.730614,246.368530L91.226707,230.886230L91.357559,230.787018L91.466553,230.664215L91.549461,230.522491L91.603172,230.367340L91.625557,230.204620L91.615753,230.040771L91.574173,229.881897L91.502403,229.734222L91.403236,229.603363L91.280418,229.494385L91.138718,229.411438L90.983513,229.357758L90.820839,229.335388L90.656921,229.345154L90.498116,229.386749L90.350418,229.458496L67.729065,242.895233L74.671204,207.724396L74.696632,207.176086L74.594582,206.636749L74.370499,206.135651L74.036568,205.700012L55.143250,187.877228L62.678471,180.204773L68.183784,184.188416L68.470558,194.841187L68.501793,195.084381L68.581001,195.316376L68.705101,195.527832L68.868988,195.710205L69.066071,195.856110L69.288315,195.959595L69.526817,196.016479L69.771843,196.024506L70.013557,195.983368L70.242134,195.894653L70.448326,195.762024L70.623779,195.590820L70.761482,195.387878L70.855766,195.161560L75.078079,181.214783L75.129173,180.915497L75.104691,180.612854L75.006218,180.325623L74.839836,180.071686L55.880718,157.787933L55.661613,157.586456L55.400169,157.444122L55.112053,157.369385L54.814365,157.366638L54.525002,157.436218L35.562996,164.533966L38.416061,155.131256L63.284954,157.722412L63.534405,157.722748L63.778675,157.672272L64.007607,157.573151L64.211510,157.429474L64.381981,157.247314L64.511688,157.034302L64.595413,156.799286L64.629463,156.552155L64.612556,156.303314L64.545311,156.063080L64.430542,155.841583L64.273178,155.648071L64.079605,155.490662L52.625130,147.980316L27.494467,141.917084L27.224209,141.883942L26.953392,141.911591L26.695488,141.998718L26.463276,142.140869L26.268423,142.331024L26.120628,142.559692L26.027298,142.815460L18.441906,174.081085L18.415098,174.504059L18.534744,174.910645L34.747795,209.838257L35.709118,279.460388L35.739170,279.730316L35.828274,279.986877L35.971939,280.217377L36.163055,280.410309L36.392185,280.556122L36.647926,280.647644L36.917564,280.680176L37.187725,280.652283L37.445007,280.565216z" fill="#000000" stroke="none" fill-opacity="1" />
				<polyline points="150.636215,150.894318 152.747101,182.496490 190.175919,176.870667 169.792358,112.082306 124.219933,86.303711 101.393204,123.699646 66.836655,144.948273 76.002998,199.181854 108.239456,195.135132 142.205704,166.045349 156.501617,134.114014" fill="#AB91EE" stroke="none" fill-opacity="1" />
				<path d="M151.906082,150.809448L151.865112,150.563354L151.776962,150.329956L151.644928,150.118256L151.474167,149.936371L151.271179,149.791321L151.043823,149.688629L150.800751,149.632294L150.551346,149.624420L150.305298,149.665405L150.071915,149.753571L149.860214,149.885559L149.678299,150.056335L149.533234,150.259308L149.430557,150.486725L149.374222,150.729736L149.366364,150.979095L150.145111,182.670288L150.258041,183.274292L150.509140,183.835114L150.884521,184.321625L151.363266,184.706787L151.918884,184.969208L152.520523,185.094391L153.134674,185.075287L190.741440,180.633270L191.534027,180.424896L192.263596,180.051666L192.896332,179.530792L193.402832,178.886597L193.759659,178.148865L193.950226,177.351807L193.965698,176.532471L193.805420,175.728760L171.006409,111.700378L170.873886,111.411499L170.673950,111.164398L170.418991,110.974609L125.643646,83.786804L125.061058,83.536987L124.438019,83.420227L123.804504,83.442017L123.190971,83.601257L122.626862,83.890381L122.139297,84.295471L121.751755,84.797119L100.466156,122.775604L66.170006,143.864136L65.933762,144.051300L65.748154,144.288818L65.623619,144.563232L65.567093,144.859283L65.581772,145.160339L73.911156,199.535400L74.037384,199.980103L74.256950,200.386841L74.559387,200.736420L74.930351,201.012238L75.352272,201.201080L75.805031,201.294098L76.267227,201.286835L108.581352,197.859009L109.350212,197.645660L110.025185,197.220215L143.033585,167.012024L143.367264,166.565399L157.663162,134.634064L157.742310,134.397430L157.773804,134.149902L157.756332,133.901062L157.690689,133.660309L157.579376,133.437042L157.426559,133.239807L157.238235,133.076141L157.021652,132.952393L156.785019,132.873260L156.537537,132.841797L156.288635,132.859192L156.047974,132.924896L155.824707,133.036255L155.627426,133.189026L155.463776,133.377319L155.339996,133.593964L141.160889,165.264557L107.079742,192.513947L77.755959,196.823669L68.234612,145.582672L102.059853,124.783752L102.479477,124.362732L125.230804,90.197693L168.728989,112.942963L185.211411,173.769257L155.160294,179.496735z" fill="#000000" stroke="none" fill-opacity="1" />
				<polyline points="66.836655,144.948273 73.703224,185.765015 125.171036,163.178375 123.882820,86.479797 101.261040,123.326355" fill="#000000" stroke="none" fill-opacity="1" />
			</g>
			<!--Layer: yella-->
			<g id="yella">
				<polyline points="181.691299,181.342255 229.841125,199.774689 206.801743,291.707153 140.862411,296.681091 116.945236,197.043152 162.489090,181.186371" fill="#E3E3C1" stroke="none" fill-opacity="1" />
				<path d="M182.201767,180.008820L181.931839,179.934875L181.652664,179.915009L181.374969,179.949951L181.109390,180.038422L180.866241,180.177002L180.654739,180.360382L180.483109,180.581451L180.357925,180.831757L180.283966,181.101746L180.264084,181.380890L180.299042,181.658600L180.387527,181.924164L180.526077,182.167328L180.709457,182.378815L180.930527,182.550415L181.180862,182.675659L226.654190,201.433044L205.203827,289.811066L142.285568,294.729034L119.404335,198.386871L162.909958,182.395294L163.137711,182.289917L163.340561,182.142181L163.510635,181.957703L163.641525,181.743591L163.728073,181.508057L163.766998,181.260162L163.756882,181.009430L163.697952,180.765472L163.592636,180.537750L163.444901,180.334900L163.260376,180.164795L163.046280,180.033966L162.810730,179.947388L162.562851,179.908447L162.312119,179.918610L162.068176,179.977478L116.262070,195.081085L115.806168,195.305603L115.418427,195.634125L115.122047,196.046936L114.934738,196.519379L114.867752,197.023132L114.925034,197.528046L139.073761,297.110443L139.222961,297.515228L139.462387,297.874176L139.778748,298.167480L140.154800,298.378998L140.569763,298.497131L141.000793,298.515381L206.953018,293.712402L207.444366,293.612640L207.895813,293.394409L208.279236,293.071320L208.570801,292.663391L208.752380,292.196014L232.448639,200.428131L232.529251,199.784790L232.453491,199.140839L232.225708,198.533752L231.859192,197.998871L231.375305,197.567322L230.802155,197.264160z" fill="#000000" stroke="none" fill-opacity="1" />
				<polyline points="190.480881,183.781250 232.168259,198.367950 244.062744,258.886597 253.781860,257.586884 255.588165,274.147430 221.805725,280.309875 210.291016,250.971466" fill="#E3E3C1" stroke="none" fill-opacity="1" />
				<path d="M191.017136,182.248688L190.707840,182.173523L190.389801,182.160156L190.075348,182.209076L189.776382,182.318420L189.504547,182.483948L189.270203,182.699371L189.082397,182.956329L188.948303,183.245026L188.873154,183.554291L188.859787,183.872314L188.908707,184.186829L189.018036,184.485779L189.183563,184.757599L189.398956,184.991974L189.655945,185.179749L189.944656,185.313843L229.813660,200.408783L242.307190,259.231628L242.421692,259.599335L242.612213,259.934021L242.869995,260.220123L243.182983,260.444489L243.536743,260.596649L243.914886,260.669617L244.299866,260.659943L252.090240,259.745880L253.514114,272.600403L222.865662,278.406830L210.291016,250.971466L220.240021,280.924347L220.420914,281.264465L220.674423,281.554474L220.987320,281.779266L221.343109,281.926910L221.723145,281.989777L222.107544,281.964478L255.928070,276.010742L256.316284,275.895935L256.671234,275.701294L256.976715,275.435638L257.218719,275.111115L257.386322,274.742615L257.471710,274.346863L257.471069,273.942047L255.686249,257.379181L255.590103,256.954315L255.400452,256.562164L255.127121,256.223022L254.784271,255.954376L254.389557,255.770111L253.963440,255.679810L253.527924,255.688049L245.493729,256.890137L234.821487,197.846497L234.598221,197.181824L234.211563,196.596954L233.687531,196.131134L233.061325,195.815704z" fill="#000000" stroke="none" fill-opacity="1" />
				<polyline points="142.785248,195.796295 138.896179,224.517456 82.712631,264.372955 72.864464,234.175018 84.918770,229.131226 87.321770,235.596680 99.696411,218.321075 116.945236,197.043152" fill="#E3E3C1" stroke="none" fill-opacity="1" />
				<path d="M144.161942,195.982697L144.171844,195.710541L144.128448,195.441681L144.033508,195.186462L143.890503,194.954620L143.705124,194.755188L143.484314,194.595734L143.236664,194.482422L142.971649,194.419586L142.699493,194.409698L142.430649,194.453064L142.175400,194.548065L141.943573,194.691010L141.744171,194.876434L141.584671,195.097229L141.471344,195.344879L141.408569,195.609863L137.702484,223.795044L83.700401,261.384979L76.036522,235.628357L83.624695,232.114105L85.608398,236.233490L85.785095,236.586548L86.033493,236.893433L86.342033,237.139801L86.696243,237.314209L87.079628,237.408447L87.474319,237.418182L87.861862,237.342987L88.224274,237.186249L88.544533,236.955353L88.807747,236.661133L100.995987,219.311920L118.559120,198.351440L118.783340,198.011444L118.936935,197.634216L119.014008,197.234283L119.011520,196.827026L118.929688,196.428101L118.771538,196.052765L118.543259,195.715485L118.253571,195.429230L117.913544,195.204987L117.536354,195.051422L117.136421,194.974365L116.729149,194.976837L116.330200,195.058685L115.954849,195.216797L115.617577,195.445099L115.331360,195.734802L98.427437,217.292419L87.837578,231.737640L87.029884,228.346588L86.795212,227.885620L86.461578,227.490387L86.046471,227.181671L85.571991,226.975800L85.062965,226.883636L84.546371,226.910004L84.049469,227.053558L71.874306,231.808685L71.396873,232.071198L70.985634,232.428650L70.659142,232.864899L70.432137,233.360260L70.314949,233.892395L70.312790,234.437286L70.425781,234.970337L80.939026,264.951355L81.096779,265.305237L81.324211,265.618896L81.611542,265.878815L81.946320,266.073822L82.314171,266.195404L82.699196,266.238434L83.084839,266.200958L83.454453,266.084656L83.791992,265.894501L139.636734,225.561340L139.890823,225.322937L140.071198,225.024872L140.164490,224.689178z" fill="#000000" stroke="none" fill-opacity="1" />
				<polyline points="141.600922,165.667084 147.265869,144.437317 148.825577,138.363129 144.623642,141.691254 122.039124,181.843781" fill="#E3E3C1" stroke="none" fill-opacity="1" />
				<path d="M139.986328,165.236206L139.933273,165.559448L139.944382,165.886902L140.019028,166.205841L140.154572,166.504120L140.345657,166.770203L140.585007,166.993896L140.863388,167.166626L141.170120,167.281677L141.493408,167.334747L141.820816,167.323669L142.139771,167.248962L142.438019,167.113464L142.704117,166.922363L142.927811,166.683014L143.100510,166.404633L143.215591,166.097900L147.991837,144.631012L149.537262,138.545929L149.559647,138.395203L149.550491,138.243164L149.510162,138.096283L149.440414,137.960876L149.344299,137.842743L149.225845,137.746979L149.090240,137.677704L148.943192,137.637848L148.791107,137.629181L148.640564,137.652039L148.497910,137.705475L148.369354,137.787109L143.933670,140.820160L143.655075,141.146515L120.413834,180.929596L120.259254,181.287506L120.182510,181.669708L120.186897,182.059540L120.272232,182.439941L120.434776,182.794250L120.667442,183.107086L120.960052,183.364655L121.299850,183.555786L121.671928,183.672058L122.060097,183.708435L122.447311,183.663361L122.816704,183.538757L123.152138,183.340027L123.438850,183.075928L123.664444,182.757996L145.485016,142.426666L147.571152,140.294067L146.538925,144.247009z" fill="#000000" stroke="none" fill-opacity="1" />
				<path d="M147.159729,144.462891L147.259705,144.436127L147.352615,144.390350L147.434738,144.327301L147.503021,144.249481L147.554810,144.159821L147.588104,144.061768L147.601608,143.959106L147.594849,143.855774L147.568039,143.755798L147.522263,143.662933L147.459244,143.580750L147.381378,143.512482L147.291718,143.460693L147.193680,143.427460L147.091034,143.413879L146.987717,143.420654L143.277664,144.032867L143.145569,144.072998L143.028351,144.145905L142.934097,144.246704L139.827881,148.723602L139.770859,148.832062L139.745163,148.951813L139.752792,149.074097L139.793106,149.189789L142.662567,156.028473L134.300537,158.665619L134.178757,158.712341L134.068924,158.782623L133.975555,158.873657L133.902481,158.981720L133.852768,159.102264L133.828415,159.230377L133.830444,159.360779L133.858765,159.488068L133.912170,159.607025L133.988571,159.712738L139.194229,165.858551L127.230362,172.350037L127.046684,172.480682L126.891914,172.644684L126.772202,172.835693L126.691978,173.046417L126.654427,173.268707L126.660980,173.494080L126.711380,173.713806L126.803696,173.919525L126.934349,174.103271L127.098335,174.257996L127.289352,174.377747L127.500031,174.457916L127.722351,174.495453L127.947746,174.488922L128.167465,174.438538L128.373169,174.346222L140.926483,166.801910L141.076859,166.692047L141.199295,166.551697L141.287842,166.387817L141.338043,166.208496L141.347473,166.022461L141.315659,165.838989L141.244186,165.666992L141.136566,165.514954L135.638626,159.634369L144.379929,157.641693L144.586945,157.560059L144.770859,157.434814L144.922607,157.272156L145.034760,157.080017L145.101837,156.867859L145.120453,156.646118L145.089737,156.425781L145.011154,156.217590L140.718674,149.024506L143.665802,145.039490z" fill="#000000" stroke="none" fill-opacity="1" />
				<polyline points="87.321770,235.596680 92.607361,249.107513" fill="#E3E3C1" stroke="none" fill-opacity="1" />
				<path d="M89.024033,234.930725L88.861427,234.611450L88.639633,234.329987L88.367180,234.097229L88.054550,233.922089L87.713806,233.811310L87.357948,233.769104L87.000717,233.797180L86.655838,233.894379L86.336555,234.057037L86.055092,234.278809L85.822319,234.551270L85.647194,234.863892L85.536400,235.204651L85.494255,235.560486L85.522278,235.917725L85.619507,236.262634L92.330452,249.215820L92.356895,249.267761L92.392975,249.313507L92.437279,249.351379L92.488144,249.379883L92.543556,249.397919L92.601463,249.404755L92.659561,249.400208L92.715668,249.384369L92.767578,249.357941L92.813354,249.321838L92.851234,249.277527L92.879684,249.226715L92.897705,249.171265L92.904556,249.113403L92.900002,249.055267L92.884209,248.999207z" fill="#000000" stroke="none" fill-opacity="1" />
				<polyline points="244.062744,258.886597 228.538330,261.603485" fill="#E3E3C1" stroke="none" fill-opacity="1" />
				<path d="M244.371185,260.648956L244.709076,260.554932L245.022125,260.396759L245.298325,260.180573L245.526993,259.914642L245.699432,259.609253L245.808990,259.276031L245.851425,258.927917L245.825104,258.578156L245.731094,258.240265L245.572937,257.927185L245.356720,257.651031L245.090820,257.422302L244.785400,257.249878L244.452194,257.140350L244.104034,257.097931L243.754303,257.124237L228.481476,261.278748L228.419205,261.296082L228.361526,261.325226L228.310669,261.365082L228.268524,261.414062L228.236740,261.470337L228.216522,261.531738L228.208725,261.595886L228.213547,261.660339L228.230881,261.722595L228.260040,261.780304L228.299896,261.831177L228.348877,261.873322L228.405151,261.905090L228.466568,261.925293L228.530701,261.933105L228.595154,261.928253z" fill="#000000" stroke="none" fill-opacity="1" />
			</g>
			<!--Layer: apron-->
			<g id="apron">
				<polyline points="128.467163,188.662354 121.780136,215.110138 142.325882,314.719391 131.968460,386.567291 82.517776,548.156921 147.446930,556.042480 209.583405,548.354187 292.693970,521.554810 267.979401,429.428894 227.321167,338.424377 199.296112,299.783630 212.794098,294.994904 209.740601,284.653625 197.063324,284.681641 206.233704,223.263336 227.716965,193.903259 207.866623,186.884888 186.113815,210.725525 156.217758,256.619598 145.751343,222.425690 145.303406,181.308197 129.139832,187.603455" fill="#282040" stroke="none" fill-opacity="1" />
				<path d="M129.575455,188.942566L129.608856,188.720978L129.598358,188.497101L129.544388,188.279602L129.449020,188.076782L129.315918,187.896515L129.150192,187.745636L128.958252,187.630005L128.747375,187.554016L128.525818,187.520660L128.301926,187.531158L128.084396,187.585144L127.881615,187.680511L127.701340,187.813599L127.550468,187.979309L127.434853,188.171295L127.358856,188.382141L119.714249,214.587799L119.693146,215.540588L140.050034,314.787964L130.711746,386.286194L77.212852,546.533447L76.987129,547.721252L77.024094,548.929688L77.322006,550.101440L77.866592,551.180908L78.632172,552.116699L79.582260,552.864380L80.671715,553.388550L81.848930,553.664185L146.867996,560.809570L210.101501,552.541443L294.215363,526.272888L295.196716,525.833984L296.060364,525.193848L296.765625,524.382568L297.279541,523.438354L297.577759,522.405518L297.646301,521.332703L297.481995,520.270325L269.208618,429.099121L228.968735,337.688293L202.057098,300.641296L213.471588,296.904602L213.866348,296.714264L214.210999,296.443481L214.489319,296.104950L214.688354,295.714478L214.798737,295.290375L214.815384,294.852386L214.737457,294.421112L211.579285,284.110718L211.380707,283.660919L211.074265,283.276398L210.680069,282.982452L210.224136,282.798431L209.736343,282.736481L198.972473,283.032684L207.466919,223.770203L228.842896,194.727142L228.988174,194.478210L229.079208,194.204681L229.112045,193.918335L229.085403,193.631348L229.000336,193.355927L228.860458,193.103912L228.671799,192.885986L228.442413,192.711517L228.182022,192.587860L208.313904,185.619781L208.008087,185.550507L207.694580,185.554108L207.390427,185.630341L207.112305,185.775085L206.875381,185.980438L185.172348,209.866486L156.828308,252.292511L147.356537,222.176575L146.012100,181.300476L145.994202,181.149750L145.944656,181.006256L145.865616,180.876617L145.760818,180.766815L145.635040,180.681824L145.494064,180.625580L145.344330,180.600616L145.192703,180.608124L145.046158,180.647766L128.755539,186.616760L128.570419,186.710693L128.407227,186.838928L128.272110,186.996552L128.170395,187.177490L128.105896,187.374817L128.081192,187.580902L128.097107,187.787872L128.153152,187.987762L128.247070,188.172882L128.375275,188.336121L128.532928,188.471191L128.713852,188.572906L128.911194,188.637390L129.117294,188.662140L129.324265,188.646210L129.524139,188.590179L144.605820,182.340515L144.143631,222.443207L154.448517,257.161133L154.596802,257.511749L154.813705,257.824585L155.089996,258.086456L155.414062,258.286194L155.772171,258.415375L156.149078,258.468597L156.528946,258.443481L156.895645,258.341217L157.233612,258.166016L157.528641,257.925385L157.768127,257.629486L187.125137,211.507996L208.258163,188.446564L225.483231,194.593292L205.188980,222.498901L204.953354,223.072205L195.436661,284.438751L195.422318,284.791656L195.483658,285.139465L195.617813,285.466156L195.818634,285.756683L196.076843,285.997650L196.380554,286.177917L196.715759,286.289185L197.066971,286.326294L208.308670,286.573914L210.307007,293.727264L198.717194,298.151825L198.395126,298.305084L198.111267,298.521088L197.877670,298.790649L197.704315,299.102356L197.598465,299.443024L197.564713,299.798096L197.604431,300.152588L197.715927,300.491394L197.894485,300.800201L225.750183,339.331879L266.776245,429.855988L286.683929,518.284058L208.668808,544.216003L147.441513,551.204407L89.760551,543.447998L133.196213,386.943054L144.545746,315.039398L123.965866,215.158478z" fill="#000000" stroke="none" fill-opacity="1" />
				<polyline points="247.966766,275.847809 266.269775,347.298279 217.448257,397.763336 205.839828,356.494385 204.905121,349.829437 191.674545,345.735718 196.403656,344.943909 209.921326,340.872375 215.909515,354.406921 242.449417,332.580719 223.417191,281.226471" fill="#AB91EE" stroke="none" fill-opacity="1" />
				<path d="M250.408234,275.222382L250.239334,274.758087L249.983063,274.335663L249.649292,273.971344L249.250900,273.679138L248.803162,273.470276L248.323242,273.352783L247.829651,273.331177L247.341309,273.406281L246.877045,273.575226L246.454590,273.831482L246.090317,274.165222L245.798111,274.563660L245.589264,275.011383L245.471741,275.491302L245.450150,275.984863L245.525253,276.473206L264.860352,346.924805L218.368362,394.119263L207.570602,356.131348L206.426453,349.616089L206.339783,349.280212L206.179993,348.972351L205.955215,348.708160L205.676865,348.501160L205.359222,348.361877L191.876083,345.749268L196.481461,345.408661L209.050720,342.766479L213.816208,355.333130L214.082901,355.786530L214.446060,356.167084L214.886520,356.454712L215.380997,356.634155L215.903366,356.696014L216.426086,356.636963L216.921509,356.460175L217.363525,356.174927L243.257797,333.563690L243.473984,333.335693L243.627716,333.061707L243.709641,332.758392L243.714783,332.444275L243.642761,332.138458L226.046173,280.252167L225.805557,279.757996L225.473206,279.320282L225.061798,278.955780L224.587189,278.678589L224.067673,278.499268L223.523132,278.424774L222.974487,278.457977L222.442886,278.597504L221.948730,278.838104L221.510986,279.170502L221.146545,279.581848L220.869339,280.056427L220.689987,280.575989L220.615494,281.120575L220.648697,281.669189L220.788269,282.200775L240.941147,332.173340L216.783417,350.724518L211.350220,340.240204L211.157928,339.917267L210.894058,339.649567L210.573929,339.452667L210.215973,339.337891L209.841019,339.311951L209.470703,339.376251L196.296371,344.484131L191.666840,345.689728L191.657639,345.692291L191.649109,345.696655L191.641647,345.702698L191.635605,345.710114L191.631149,345.718628L191.628601,345.727844L191.627945,345.737396L191.629288,345.746887L191.632538,345.755920L191.637512,345.764069L191.644073,345.771057L191.651932,345.776520L191.660782,345.780273L203.519287,351.008667L204.092468,356.739441L215.645721,398.270386L215.790894,398.634766L216.008789,398.960876L216.289825,399.234497L216.621719,399.443542L216.989868,399.578857L217.378098,399.634521L217.769440,399.608093L218.146698,399.500671L218.493317,399.317078L218.794052,399.065308L267.184479,348.183197L267.378052,347.923950L267.500031,347.624298L267.542450,347.303558L267.502655,346.982483z" fill="#000000" stroke="none" fill-opacity="1" />
			</g>
			<!--Layer: red-->
			<g id="red">
				<polyline points="75.245804,126.728027 43.128529,170.443634 111.430809,153.283203 123.848480,82.342224 106.914902,53.885071 86.737900,56.880127 47.662754,113.455536 75.232201,126.655518" fill="#F92929" stroke="none" fill-opacity="1" />
				<path d="M76.265129,127.476898L76.391655,127.263641L76.474106,127.029816L76.509369,126.784363L76.496124,126.536774L76.434784,126.296539L76.327751,126.072845L76.179169,125.874329L75.994675,125.708649L75.781433,125.582123L75.547585,125.499664L75.302162,125.464386L75.054550,125.477661L74.814308,125.539001L74.590584,125.646057L74.392128,125.794647L74.226440,125.979126L40.192749,168.286713L39.816315,168.926910L39.577579,169.630157L39.486347,170.367188L39.546547,171.107391L39.755623,171.820038L40.104824,172.475464L40.579704,173.046448L41.160526,173.509247L41.823082,173.844666L42.539936,174.038757L43.281239,174.083405L44.016216,173.976776L111.832382,154.881378L112.186501,154.747559L112.500832,154.536377L112.758644,154.259125L112.946320,153.930298L113.054001,153.567291L125.925407,82.705811L125.922264,81.961182L125.660431,81.263977L109.523766,52.332642L109.087852,51.765076L108.531242,51.315308L107.884781,51.008362L107.184471,50.861267L106.469162,50.882202L86.381027,54.475891L85.746033,54.661194L85.184479,55.010742L84.738014,55.498779L46.472530,112.633514L46.323982,112.907837L46.237663,113.207611L46.217674,113.518951L46.264862,113.827301L46.377071,114.118408L46.549084,114.378632L46.772873,114.595978L47.038116,114.760223L74.685951,127.796356L74.919014,127.881012L75.164139,127.918549L75.411819,127.907593L75.652679,127.848480L75.877289,127.743500L76.077156,127.596771L76.244545,127.413818L76.373009,127.201782L76.457687,126.968689L76.495277,126.723602L76.484261,126.475861L76.425148,126.235046L76.320183,126.010376L76.173401,125.810577L75.990509,125.643158L75.778419,125.514679L49.816204,112.882904L88.138245,59.129395L105.347031,57.186890L121.636833,82.748718L109.992119,151.945618L52.056625,164.444305z" fill="#000000" stroke="none" fill-opacity="1" />
				<polyline points="160.315094,186.046722 143.949005,213.208466 141.259293,240.013031 133.410721,229.476410 127.779831,226.248444 135.955093,204.150177 154.307373,184.479431" fill="#F92929" stroke="none" fill-opacity="1" />
				<path d="M161.439148,186.724030L161.549713,186.491730L161.612808,186.242310L161.626038,185.985382L161.588913,185.730804L161.502792,185.488373L161.370987,185.267395L161.198685,185.076385L160.992386,184.922668L160.760086,184.812103L160.510666,184.749023L160.253738,184.735779L159.999176,184.772949L159.756714,184.859070L159.535767,184.990784L159.344727,185.163147L159.190964,185.369415L142.382050,212.264313L142.128723,213.025787L140.320480,236.622192L134.431366,228.716125L134.043655,228.372284L129.347183,225.679962L137.608139,205.169434L155.241196,185.350677L155.393219,185.151733L155.503494,184.927002L155.567856,184.685059L155.583710,184.435150L155.550552,184.187012L155.469635,183.950104L155.344025,183.733521L155.178604,183.545593L154.979660,183.393555L154.754944,183.283295L154.512970,183.218964L154.263062,183.203064L154.014923,183.236206L153.778030,183.317169L153.561447,183.442749L153.373505,183.608215L134.562927,202.851318L134.169418,203.489563L126.586227,225.806885L126.516357,226.095795L126.515411,226.393036L126.583443,226.682404L126.716751,226.948120L126.908035,227.175629L127.146866,227.352570L132.548141,230.448914L140.238663,240.773285L140.427551,240.976257L140.655884,241.133545L140.912872,241.237671L141.186386,241.283600L141.463257,241.269257L141.730499,241.195251L141.975296,241.065155L142.186203,240.885101L142.353073,240.663635L142.468033,240.411316L142.525650,240.140045L145.728241,213.800323z" fill="#000000" stroke="none" fill-opacity="1" />
				<polyline points="172.856003,189.589661 178.545593,216.344666 189.439301,233.957245 197.533646,221.236237 203.299454,216.778015 185.413574,201.927887 178.934677,187.315979" fill="#F92929" stroke="none" fill-opacity="1" />
				<path d="M173.633682,189.424286L173.586456,189.275757L173.511215,189.139252L173.410751,189.020111L173.288971,188.922852L173.150543,188.851196L173.000824,188.807892L172.845520,188.794708L172.690643,188.811981L172.542130,188.859222L172.405609,188.934509L172.286453,189.034943L172.189194,189.156738L172.117554,189.295135L172.074234,189.444855L172.061066,189.600159L172.078369,189.755035L177.300735,216.609406L188.356918,234.626709L188.533157,234.850922L188.754913,235.030243L189.011017,235.155701L189.288651,235.220978L189.573822,235.222809L189.852234,235.161041L190.109955,235.038879L190.333969,234.862396L190.513062,234.640442L198.488022,222.107025L204.079697,217.787079L204.284180,217.588776L204.439545,217.349976L204.538086,217.082672L204.574783,216.800171L204.547913,216.516571L204.458710,216.246002L204.311737,216.001984L204.114227,215.796661L186.829941,200.856476L179.804871,186.930115L179.712875,186.767761L179.590973,186.626495L179.443863,186.511688L179.277161,186.427826L179.097321,186.378082L178.911209,186.364380L178.726059,186.387238L178.548874,186.445770L178.386490,186.537750L178.245255,186.659668L178.130447,186.806763L178.046524,186.973480L177.996780,187.153320L177.983078,187.339417L178.005920,187.524597L178.064514,187.701782L183.832886,202.628723L184.309006,203.258179L201.260056,216.742584L196.755157,220.229401L189.454575,231.562561L179.744370,215.863434z" fill="#000000" stroke="none" fill-opacity="1" />
				<polyline points="170.114944,175.784393 199.016052,158.809906 192.638580,179.741394 192.348633,200.745819 171.436752,188.032471" fill="#F92929" stroke="none" fill-opacity="1" />
				<path d="M169.996719,175.583069L169.959717,175.610016L169.928680,175.643677L169.904831,175.682709L169.889023,175.725677L169.881882,175.770874L169.883713,175.816620L169.894440,175.861084L169.913666,175.902679L169.940582,175.939636L169.974228,175.970673L170.013290,175.994568L170.056229,176.010345L170.101440,176.017517L170.147156,176.015656L170.191696,176.004944L170.233246,175.985718L195.564148,163.187256L191.522659,179.401367L190.580338,197.549866L171.636124,187.704529L171.568329,187.671936L171.495468,187.653168L171.420334,187.648987L171.345871,187.659576L171.274857,187.684509L171.210068,187.722778L171.154007,187.772949L171.108810,187.833069L171.076172,187.900909L171.057495,187.973755L171.053299,188.048889L171.063858,188.123383L171.088760,188.194366L171.127029,188.259186L171.177231,188.315216L171.237366,188.360413L191.407196,202.294403L191.751266,202.456818L192.121628,202.543854L192.501999,202.551636L192.875641,202.479828L193.226059,202.331573L193.537781,202.113434L193.797089,201.835052L193.992599,201.508636L194.115616,201.148621L194.160782,200.770844L193.802795,179.923035L200.954330,159.400482L201.036163,158.967377L201.022430,158.526825L200.913727,158.099640L200.715271,157.706085L200.436371,157.364777L200.090271,157.091858L199.693329,156.900208L199.264359,156.798950L198.823624,156.792816L198.391983,156.882141L197.989883,157.062714z" fill="#000000" stroke="none" fill-opacity="1" />
				<polyline points="163.467484,174.003448 143.372833,163.488800 140.802567,168.006195 139.177750,169.519135 144.139267,185.040283 140.051666,205.266388 164.818832,185.682220" fill="#F92929" stroke="none" fill-opacity="1" />
				<path d="M163.184372,174.544495L163.295364,174.589325L163.412979,174.611664L163.532669,174.610596L163.649857,174.586182L163.760056,174.539429L163.859024,174.472046L163.942917,174.386658L164.008560,174.286530L164.053391,174.175537L164.075699,174.057922L164.074661,173.938232L164.050247,173.821014L164.003479,173.710815L163.936096,173.611908L163.850662,173.528015L163.750580,173.462372L144.113907,162.072479L143.787964,161.945129L143.442078,161.891785L143.092865,161.914978L142.757141,162.013641L142.450836,162.182983L142.188797,162.414886L141.983490,162.698303L140.318024,167.622955L137.730789,167.965210L137.419281,168.329102L137.197296,168.753571L137.076035,169.217010L137.061813,169.695831L137.155273,170.165649L142.643417,185.122650L138.584274,204.969849L138.554581,205.272156L138.586563,205.574280L138.678909,205.863708L138.827759,206.128540L139.026962,206.357880L139.268417,206.542236L139.542114,206.674072L139.836792,206.747955L140.140274,206.760864L140.440155,206.712189L140.724060,206.604004L140.980225,206.440704L165.606964,186.678894L165.786285,186.505981L165.928391,186.301422L166.027908,186.073090L166.080902,185.829681L166.085419,185.580658L166.041275,185.335541L165.950150,185.103699L165.815552,184.894104L165.642654,184.714813L165.438065,184.572662L165.209732,184.473206L164.966370,184.420197L164.717316,184.415649L164.472198,184.459778L164.240341,184.550934L164.030777,184.685516L142.328568,201.557373L145.560394,185.327515L145.520279,184.598846L141.231934,170.056427L141.218689,168.453094L143.999039,165.620544z" fill="#000000" stroke="none" fill-opacity="1" />
				<polyline points="172.272552,189.300476 173.533432,174.078796 162.392044,173.802551 162.343750,187.253387 172.075089,189.537872" fill="#F92929" stroke="none" fill-opacity="1" />
				<path d="M171.440186,189.231537L171.442749,189.395264L171.477158,189.555298L171.542175,189.705566L171.635208,189.840332L171.752792,189.954285L171.890320,190.043091L172.042572,190.103394L172.203613,190.132874L172.367294,190.130310L172.527390,190.095886L172.677673,190.030884L172.812363,189.937805L172.926331,189.820221L173.015137,189.682709L173.075500,189.530487L173.104935,189.369415L174.552444,174.163208L174.544449,173.925964L174.482010,173.696991L174.368393,173.488586L174.209793,173.311951L174.014771,173.176666L173.793762,173.089996L173.558731,173.056610L162.403198,173.351898L162.301285,173.360962L162.204086,173.392822L162.116516,173.445709L162.043182,173.517059L161.987793,173.603027L161.953217,173.699310L161.941193,173.800934L161.424728,187.250061L161.446945,187.454254L161.513962,187.648438L161.622467,187.822845L161.766953,187.968842L161.940247,188.079071L162.133728,188.148102L171.978745,189.948334L172.060669,189.959259L172.143112,189.953949L172.222977,189.932678L172.297165,189.896240L172.362839,189.846039L172.417404,189.783997L172.458832,189.712463L172.485535,189.634247L172.496414,189.552307L172.491135,189.469849L172.469910,189.389984L172.433456,189.315826L172.383255,189.250153L172.321198,189.195557L172.249680,189.154114L172.171463,189.127441L163.265457,186.525696L162.841202,174.264648L172.424973,175.074127z" fill="#000000" stroke="none" fill-opacity="1" />
				<polyline points="47.662754,113.455536 98.208397,104.244324" fill="#F92929" stroke="none" fill-opacity="1" />
				<path d="M47.403378,112.032501L47.130791,112.110443L46.878590,112.240082L46.656536,112.416412L46.473087,112.632690L46.335449,112.880554L46.248772,113.150574L46.216427,113.432312L46.239727,113.714935L46.317623,113.987518L46.447266,114.239716L46.623634,114.461761L46.839855,114.645172L47.087795,114.782837L47.357761,114.869507L47.639454,114.901855L47.922070,114.878601L98.208397,104.244324z" fill="#000000" stroke="none" fill-opacity="1" />
				<polyline points="106.914902,53.885071 102.836349,97.192261" fill="#F92929" stroke="none" fill-opacity="1" />
				<path d="M109.937332,54.169678L109.934776,53.574585L109.816208,52.991394L109.586098,52.442566L109.253372,51.949219L108.830734,51.530151L108.334488,51.201599L107.783714,50.976196L107.199547,50.862671L106.604439,50.865173L106.021286,50.983826L105.472443,51.213867L104.979019,51.546631L104.560013,51.969238L104.231491,52.465454L104.006126,53.016296L103.892509,53.600403L102.836349,97.192261z" fill="#000000" stroke="none" fill-opacity="1" />
				<path d="M61.932350,163.986450L61.767712,163.813293L61.572433,163.675598L61.354015,163.578613L61.120918,163.526154L60.882023,163.520142L60.646568,163.560822L60.423565,163.646698L60.221630,163.774414L60.048439,163.939056L59.910706,164.134338L59.813770,164.352722L59.761238,164.585846L59.755241,164.824738L59.795940,165.060211L59.881802,165.283173L60.009506,165.485138L63.132538,169.492157L59.373203,169.646301L58.858082,169.784149L44.880505,177.096832L44.680637,177.227814L44.510197,177.395264L44.375710,177.592804L44.282280,177.812714L44.233616,178.046661L44.231453,178.285614L44.275990,178.520386L44.365517,178.741974L44.496502,178.941833L44.663990,179.112244L44.861500,179.246796L45.081455,179.340210L45.315369,179.388855L45.554333,179.390961L45.789101,179.346436L46.010628,179.256958L59.746067,172.070953L65.601501,171.830872L65.865105,171.790863L66.113770,171.694489L66.335495,171.546387L66.519699,171.353607L66.657562,171.125397L66.742538,170.872620L66.770493,170.607483L66.740143,170.342560L66.652908,170.090576L66.512978,169.863617z" fill="#000000" stroke="none" fill-opacity="1" />
				<path d="M64.648796,171.432037L64.825989,171.592407L65.030998,171.715149L65.256035,171.795563L65.492409,171.830475L65.731079,171.818604L65.962830,171.760406L66.178787,171.658112L66.370659,171.515686L66.531067,171.338562L66.653793,171.133514L66.734146,170.908478L66.769051,170.672089L66.757217,170.433441L66.699051,170.201660L66.596779,169.985718L66.454292,169.793823L63.259983,166.273346L62.972584,166.040192L62.628395,165.904053L56.601734,164.529144L56.255054,164.500946L55.914536,164.571808L37.358425,171.310455L37.142895,171.413666L36.951679,171.556915L36.791988,171.734711L36.670177,171.940247L36.590744,172.165619L36.556793,172.402161L36.569572,172.640778L36.628757,172.872284L36.731983,173.087799L36.875225,173.279053L37.053005,173.438660L37.258541,173.560577L37.483971,173.640015L37.720440,173.673950L37.959045,173.661102L38.190601,173.601959L56.409370,166.985809L61.712231,168.195587z" fill="#000000" stroke="none" fill-opacity="1" />
			</g>
		</g>
	</g>
</svg>
