<?xml version="1.0" encoding="UTF-8"?>
<!-- Generator: Blender, SVG Export for Grease Pencil - v2.0 -->
<!DOCTYPE svg PUBLIC "-//W3C//DTD SVG 1.1//EN" "http://www.w3.org/Graphics/SVG/1.1/DTD/svg11.dtd">
<svg version="1.1" x="0px" y="0px" xmlns="http://www.w3.org/2000/svg" width="1920.000000px" height="1080.000000px" viewBox="0 0 1920.000000 1080.000000">
	<g id="blender_frame.23">
		<g id="blender_object.Stroke.23.uuid_0x0">
			<g id="layer.Fills.uuid_0x1" />
			<g id="layer.black.uuid_0x2" />
			<g id="layer.skin.uuid_0x3" />
			<g id="layer.yella.uuid_0x4" />
			<g id="layer.red.uuid_0x5">
				<polygon points="919.88196,10.517456 1090.2173,27.441895 1218.0363,154.97229 1334.1791,336.45 1410.1918,447.52283 1528.0792,596.1279 1690.9232,708.4264 1766.5067,796.40894 1767.2327,826.45715 1729.8682,927.36475 1381.839,1019.6677 956.1572,1043.3485 583.8207,986.2289 141.89754,930.41345 25.886078,879.4625 24.549007,848.0841 46.475204,771.7986 82.36839,740.34436 191.29149,685.7466 406.35535,522.05963 458.555,451.61798 608.1354,209.8833 814.2492,28.81372" fill="#83E759" stroke="none" fill-opacity="1" />
				<path d="M920.3424,5.883911L919.42957,5.8830566L918.5341,6.060425L917.6904,6.4090576L916.93115,6.9155273L916.2851,7.560425L915.7773,8.31897L915.42725,9.161987L915.2484,10.057007L915.24756,10.969727L915.4249,11.865356L915.77344,12.708862L916.28,13.468384L916.9249,14.11438L917.6834,14.622314L918.5264,14.97229L919.42163,15.151123L1084.35,39.85132L1209.4714,161.86896L1325.9983,341.6856L1407.3788,449.44788L1520.2169,602.365L1687.9324,711.7523L1752.9008,801.6384L1759.0826,825.0981L1709.5615,905.0227L1380.2601,1009.721L957.4041,1017.5663L584.6362,980.9131L145.67299,916.75726L48.162518,864.22974L34.81081,849.3073L60.487747,780.6923L85.109085,744.41907L193.27927,689.7123L415.6955,534.3315L468.53137,459.0108L611.0199,212.32306L817.66986,35.96521L920.67676,15.105713L921.5565,14.862427L922.37195,14.4522705L923.0918,13.890869L923.68823,13.199829L924.1384,12.405762L924.425,11.5390625L924.53705,10.633179L924.4701,9.722778L924.2269,8.8428955L923.8168,8.027466L923.2554,7.307617L922.5644,6.7113037L921.77026,6.2609863L920.9036,5.9744873L919.9976,5.862549L919.08734,5.9293213L812.94696,21.295166L809.21326,23.081177L605.6692,207.07599L448.26926,444.64252L395.27017,511.11584L188.934,681.9663L80.18572,735.99L35.980167,759.8223L33.03063,763.2652L31.170732,767.39966L14.745655,845.26636L3.0021858,880.4376L3.783703,885.4717L5.6586456,890.2085L8.53426,894.4137L12.268124,897.8793L16.675703,900.4339L136.25914,943.25146L583.0759,991.55554L952.2643,1068.7249L1382.3955,1029.6714L1736.7388,953.27026L1742.6814,950.90454L1747.8944,947.198L1752.0807,942.3617L1755.0016,936.67126L1774.8425,829.27496L1775.3448,826.26117L1780.231,796.0774L1779.321,791.48364L1776.92,787.46313L1694.2882,705.53577L1535.0101,588.717L1412.9368,445.49854L1342.2792,331.08826L1227.2438,149.07965L1099.3489,18.28955L1095.7434,15.75354L1091.4955,14.576538z" fill="#000000" stroke="none" fill-opacity="1" />
				<polygon points="1384.0309,519.7205 1322.5616,415.77972 1230.6522,294.00134 1099.928,154.84534 891.20557,60.453613 743.0562,159.38812 641.087,268.84412 570.87885,384.60468 519.585,502.34937 530.9885,581.4156 521.57056,648.66705 404.0772,708.46985 215.32042,896.2301 792.4763,946.85925 1338.7015,900.8507 1606.4708,826.63025" fill="#6BE84D" stroke="none" fill-opacity="1" />
				<polygon points="781.01666,136.71075 748.1963,169.34143 717.535,155.40344 763.33374,124.684326" fill="#EEF4D9" stroke="none" fill-opacity="1" />
				<path d="M796.82086,152.60693L799.61835,149.21826L801.70105,145.34888L802.98883,141.1477L803.4322,136.77582L803.01416,132.40149L801.75073,128.19281L799.6906,124.31134L796.9128,120.90662L793.52405,118.10907L789.65466,116.02649L785.4534,114.73859L781.0816,114.29535L776.70734,114.71338L772.4986,115.97681L768.61725,118.036804L765.2124,120.81464L742.9462,140.14545L741.5912,153.42432L763.261,147.27478L768.4105,155.24585L772.26874,157.34906L776.4632,158.65918L780.8326,159.1258L785.20905,158.7309L789.42444,157.48993L793.31665,155.45044L796.7362,152.69073L799.5517,149.31696L801.65485,145.45868L802.96497,141.26428L803.4315,136.8949L803.03674,132.51843L801.7958,128.30322L799.75616,124.41077L796.9965,120.99127L793.62274,118.17572L776.03827,106.00458L771.28436,103.53894L766.0837,102.26166L760.72845,102.244446L755.5196,103.48822L750.74994,105.92322L704.0894,135.35754L700.1655,138.64264L697.0225,142.68115L694.8014,147.29144L693.6022,152.26636L693.47876,157.38239L694.4367,162.40942L696.43274,167.12152L699.37744,171.30682L703.13824,174.7774L707.5462,177.37701L738.0964,191.55957L743.7111,193.33179L749.58685,193.70782L755.38165,192.66571L760.7583,190.2663L765.4039,186.64905z" fill="#FAFE70" stroke="none" fill-opacity="0.261109591" />
				<polygon points="410.18494,584.801 363.45148,638.6549 393.90326,671.3871 448.31146,625.60315 428.72662,605.2904" fill="#EEF4D9" stroke="none" fill-opacity="1" />
				<path d="M429.10092,601.21606L431.93988,597.21027L433.9428,592.72766L435.03268,587.9404L435.16766,583.03253L434.34262,578.1926L432.5892,573.6067L429.9748,569.4509L426.59985,565.885L422.5941,563.04614L418.11154,561.0432L413.32425,559.95325L408.4164,559.8183L403.57648,560.6433L398.99054,562.3967L394.8348,565.0111L391.26886,568.38605L347.24713,624.593L344.32993,628.9244L342.5454,633.83234L341.99963,639.02594L342.7248,644.1976L344.6778,649.0409L347.7431,653.2688L375.95084,688.08875L379.97354,691.5662L384.65134,694.09467L389.7642,695.5553L395.07175,695.8793L400.32434,695.0515L405.2749,693.1108L409.69077,690.14844L469.5771,650.8746L474.85837,645.2534L478.69202,638.56055L480.8688,631.16113L481.2701,623.45856L479.87402,615.87305L476.75668,608.81805L472.0882,602.6784L449.58603,585.8053L428.75525,567.996L425.11987,564.696L420.9106,562.16864L416.28915,560.51105L411.43314,559.78687L406.52908,560.024L401.76562,561.2133L397.3256,563.3091L393.37985,566.2307L390.07983,569.8661L387.55252,574.0753L385.89484,578.6968L385.17072,583.55286L385.4079,588.4568L386.59717,593.22034L388.69293,597.66034L391.6146,601.6061L407.56183,624.44336L415.3278,623.88464L395.96555,637.6054L392.29153,638.156z" fill="#FAFE70" stroke="none" fill-opacity="0.261109591" />
				<polygon points="1235.1019,667.5795 1213.1698,673.9095 1192.7853,681.8963 1174.2653,690.81744 1157.3286,701.36743 1171.4818,722.3629 1186.6827,744.6969 1203.6682,768.4453 1221.3896,793.3427 1239.3846,783.22437 1258.792,774.36285 1279.88,766.6779 1301.5481,759.681 1283.6959,735.21655 1266.024,711.56714 1250.1837,688.9281" fill="#61DD4A" stroke="none" fill-opacity="1" />
				<polygon points="1092.4741,666.32947 1071.4142,661.32654 1050.5914,657.1421 1029.2393,653.47766 1006.60297,649.4142 1004.9037,671.66064 1003.7509,694.5619 1002.46893,718.5155 1001.72284,742.6553 1022.71844,747.2 1043.3418,752.1089 1064.1772,757.4856 1084.8682,764.05865 1085.5519,737.98236 1087.2749,712.6935 1089.5637,688.9755" fill="#61DD4A" stroke="none" fill-opacity="1" />
				<polygon points="1258.5525,571.1963 1232.6622,585.7235 1207.491,601.85925 1184.8716,619.547 1163.9148,639.4553 1189.0697,660.6736 1217.5043,685.3322 1248.4342,712.75696 1281.5895,742.79456 1305.0612,722.99585 1330.6401,705.4081 1357.989,689.2428 1386.2833,674.83496 1352.5502,646.9452 1319.6716,620.1217 1288.0841,594.66345" fill="#61DD4A" stroke="none" fill-opacity="1" />
				<polygon points="857.65094,826.893 834.12384,784.5398 807.7613,741.8782 779.7637,699.2685 749.2843,657.3077 716.44354,669.62164 683.76685,682.0215 650.7067,694.1798 616.81714,706.4934 640.9433,746.2797 663.7909,785.93164 685.01935,825.336 705.04065,864.71094 744.1325,855.0438 782.41766,845.46265 820.14905,836.09155" fill="#61DD4A" stroke="none" fill-opacity="1" />
				<polygon points="1007.5678,510.78748 913.17816,499.4959 823.79474,493.35828 741.6553,491.7837 666.2554,491.69556 689.57275,565.0215 715.6738,638.1184 739.8226,710.52734 759.1648,781.96576 843.15924,788.7418 924.6325,797.6852 992.9471,795.81885 1053.2319,788.2112 1040.1307,712.02893 1029.9171,644.74475 1019.8572,579.85095" fill="#61DD4A" stroke="none" fill-opacity="1" />
				<polygon points="891.4829,544.63666 855.3555,551.8995 820.2494,560.0134 786.5879,568.8949 754.24133,578.07983 776.0669,612.03613 798.19904,646.16504 819.8129,680.53345 840.5675,715.22095 874.7543,708.7638 909.2523,702.59094 941.3097,694.1421 971.38324,683.2156 955.2744,651.3169 935.9128,617.2479 914.0203,580.97986" fill="#61DD4A" stroke="none" fill-opacity="1" />
				<polygon points="1107.3843,694.0593 1102.8271,667.9346 1099.9502,643.6327 1096.9484,620.3092 1094.4181,598.1142 1073.4836,601.208 1052.5326,604.47766 1031.5503,608.201 1010.24384,611.8234 1016.75745,635.96387 1022.4697,660.2882 1028.0142,684.6005 1034.0994,710.3824 1051.7433,705.2685 1069.9581,700.83856 1088.5769,696.927" fill="#61DD4A" stroke="none" fill-opacity="1" />
				<polygon points="815.00385,465.3003 844.5139,438.19653 876.3851,411.74615 912.3644,385.9922 951.67004,361.9892 918.85614,329.30145 888.5785,297.89026 860.54193,267.03796 836.9069,237.03021 793.8938,262.84503 756.5946,289.79315 723.47107,317.25916 693.8655,345.15082 719.30994,374.84607 747.5473,404.43652 780.1407,434.6114" fill="#61DD4A" stroke="none" fill-opacity="1" />
				<polygon points="1242.3912,593.8521 1216.863,530.1998 1195.967,468.0619 1167.312,394.05988 1139.727,316.23993 1052.0067,320.30145 960.86163,331.8612 876.8146,349.2143 801.5594,371.07983 846.2661,446.9057 900.0187,526.07684 957.7788,608.16235 1000.81287,678.7511 1051.3754,646.9844 1105.2855,619.6286 1167.2505,600.89484" fill="#61DD4A" stroke="none" fill-opacity="1" />
				<polygon points="1161.7938,510.68756 1141.6707,483.6731 1118.5862,453.14178 1090.5906,418.5838 1061.6617,382.82526 1026.8295,396.42346 992.9122,410.77045 961.1449,426.59363 931.08813,442.95782 963.7533,477.37024 997.56067,512.5208 1027.3555,544.3964 1051.8508,571.2173 1076.3481,553.7142 1103.3503,538.11975 1131.5452,523.35925" fill="#61DD4A" stroke="none" fill-opacity="1" />
				<polygon points="1195.7147,911.33685 1200.0599,874.13745 1203.5343,836.7887 1208.038,800.6188 1213.8743,766.3247 1181.5656,745.67914 1152.1312,727.9381 1125.7286,712.67993 1101.1552,700.28925 1095.4109,733.1051 1091.0289,767.48157 1087.8115,803.937 1084.8263,841.2943 1110.4044,856.41077 1137.532,873.2833 1166.1499,891.71136" fill="#61DD4A" stroke="none" fill-opacity="1" />
				<polygon points="1003.81006,490.28564 1064.5231,486.5312 1123.7166,482.38104 1182.2272,481.17786 1237.6086,483.63116 1230.0477,443.40875 1219.3694,397.48236 1208.4849,350.43793 1202.1449,305.24927 1145.3942,296.06042 1079.4486,290.09943 1006.89606,288.76398 935.18225,291.453 945.7319,339.29248 961.01227,388.1969 980.38965,438.48022" fill="#61DD4A" stroke="none" fill-opacity="1" />
				<polygon points="1486.7961,839.6919 1490.5026,819.93536 1494.2477,800.4397 1498.0781,781.3544 1502.0657,762.6902 1479.5083,754.36835 1455.6638,745.041 1431.1166,735.4225 1406.1716,725.28455 1403.2361,744.31586 1400.8027,763.9129 1398.5376,784.1058 1397.0465,804.8595 1420.7363,814.57263 1443.4285,823.6515 1465.5629,832.0817" fill="#61DD4A" stroke="none" fill-opacity="1" />
				<polygon points="1374.9432,723.108 1365.6514,676.4645 1357.6487,633.58984 1348.3317,593.0367 1337.8594,554.10706 1288.255,542.90204 1240.0475,534.6262 1193.9684,530.26483 1150.6488,529.0687 1152.9941,565.27997 1156.3196,602.5403 1161.5243,642.2191 1170.0659,687.0481 1214.2372,690.2803 1263.9321,698.35645 1317.9688,709.8518" fill="#61DD4A" stroke="none" fill-opacity="1" />
				<polygon points="982.878,298.1374 917.50006,379.0583 874.39795,465.99054 849.5819,556.70166 834.03326,649.4635 935.24445,703.5447 1012.7528,741.8262 1082.906,782.03735 1163.4213,840.732 1186.9202,737.9208 1232.4374,657.5652 1297.5154,597.89087 1356.1719,547.30035 1265.6832,485.5373 1183.4799,426.398 1086.0957,359.0426" fill="#61DD4A" stroke="none" fill-opacity="1" />
				<polygon points="582.734,489.00568 567.4007,502.07947 551.95557,515.28235 536.11804,528.1967 520.25964,540.93207 533.1172,561.62415 547.29425,582.0647 561.94507,602.4565 577.8713,622.6311 594.41864,609.9529 611.36786,597.2018 627.75183,584.1829 644.0014,571.08484 627.7668,550.5771 611.46344,530.1458 596.48987,509.6725" fill="#61DD4A" stroke="none" fill-opacity="1" />
				<polygon points="593.2711,722.8003 574.60706,718.1952 556.4669,713.6117 537.8992,709.0564 519.55365,704.43616 517.8242,719.25854 515.5914,734.0871 512.96277,748.96686 510.3289,763.76666 529.0049,768.4179 548.03046,772.89716 566.96124,777.60864 586.1161,782.24976 588.46,767.53784 590.30493,752.76996 591.68634,737.86536" fill="#61DD4A" stroke="none" fill-opacity="1" />
				<polygon points="741.79926,495.32825 718.43445,476.59436 696.4793,457.6502 675.579,439.26123 656.0821,420.57367 644.0655,437.6983 632.75476,454.40863 622.4217,471.5699 612.54663,488.4721 633.0415,507.18195 653.57245,525.76465 676.8063,544.54926 700.07294,563.3591 710.3069,546.1664 719.8381,529.172 730.44574,512.1632" fill="#61DD4A" stroke="none" fill-opacity="1" />
				<polygon points="982.3441,68.37836 792.14624,105.20856 877.6339,147.75745 1023.4428,114.0484" fill="#EEF4D9" stroke="none" fill-opacity="1" />
				<path d="M986.96936,92.263794L991.54034,90.902466L995.75806,88.675476L999.4601,85.6687L1002.5043,81.997314L1004.77386,77.80249L1006.1815,73.24567L1006.67316,68.50171L1006.2297,63.75299L1004.86847,59.18213L1002.6415,54.964478L999.63464,51.26245L995.96326,48.21814L991.76855,45.94861L987.2117,44.540894L982.46765,44.04944L977.719,44.492676L788.0693,84.154785L783.82184,85.44519L779.931,87.58252L776.5637,90.47516L773.86414,93.99921L771.9479,98.00342L770.8971,102.31653L770.7569,106.75354L771.53326,111.12421L773.19293,115.241516L775.6646,118.928955L778.84265,122.02832L782.5907,124.40704L865.8152,171.50311L874.52936,174.09943L883.6084,173.60016L1031.5804,149.24744L1038.6617,146.8139L1045.0895,142.97272L1050.5872,137.8891L1054.9188,131.78131L1057.8983,124.911804L1059.3976,117.5755L1059.3525,110.08765L1057.7648,102.77014L1054.7025,95.93689L1050.2975,89.8819L1000.4288,52.10388L996.90643,48.888428L992.8243,46.421997L988.3395,44.799316L983.62427,44.082764L978.8598,44.299805L974.2292,45.442383L969.91064,47.466064L966.0699,50.29358L962.85443,53.816162L960.38794,57.898193L958.7652,62.382996L958.04877,67.098206L958.2658,71.86255L959.40826,76.493164L961.4321,80.81183L964.25964,84.65271L988.98737,103.18506L880.9322,119.770996L858.38904,114.22455z" fill="#FAFE70" stroke="none" fill-opacity="0.261109591" />
				<polygon points="368.89615,781.3142 253.51823,885.74536 134.02422,865.35156 136.21748,781.5172 152.85147,745.6008 199.23386,756.2486 270.81757,692.5205 317.60315,737.64014" fill="#EEF4D9" stroke="none" fill-opacity="1" />
				<path d="M390.9358,805.66406L395.26273,800.8965L398.5764,795.3764L400.7495,789.31586L401.69858,782.9478L401.38693,776.517L399.82678,770.2705L397.0779,764.4485L393.24606,759.27454L388.47845,754.94763L382.95834,751.6339L376.89783,749.4608L370.5298,748.51184L364.099,748.8234L357.85248,750.38354L352.0304,753.13245L346.85654,756.9643L244.78433,855.7453L157.69707,845.9009L159.24048,786.9065L165.97212,772.37134L194.06274,778.7748L199.52539,779.3589L204.97153,778.6372L210.09361,776.6505L214.60196,773.51105L270.21417,722.786L301.6537,754.17847L347.60422,806.3205L352.89178,809.9939L358.7945,812.5651L365.08536,813.93536L371.52267,814.052L377.85904,812.9105L383.85092,810.5549L389.2681,807.07556L393.90244,802.60614L397.5758,797.31854L400.1471,791.4159L401.51733,785.12506L401.63397,778.68774L400.49246,772.3514L398.1368,766.3595L394.65747,760.94226L390.18808,756.30786L333.0403,720.6078L286.23114,676.5378L282.4942,673.6345L278.227,671.589L273.6232,670.49426L268.892,670.39996L264.2482,671.3103L259.90283,673.18414L256.05313,675.93616L192.77682,731.053L158.03256,723.0318L152.81754,722.4448L147.6043,723.0471L142.6605,724.80786L138.24022,727.6366L134.57034,731.38806L131.83943,735.8695L115.20544,771.7859L113.0693,780.9116L110.87603,864.746L111.38574,870.2201L113.17154,875.4198L116.13282,880.052L120.10261,883.8554L124.85716,886.61584L130.12854,888.1776L248.79027,913.4478L257.23154,913.6019L265.33768,911.242L272.3771,906.58105z" fill="#FAFE70" stroke="none" fill-opacity="0.261109591" />
			</g>
			<g id="layer.apron.uuid_0x6">
				<polyline points="1087.0918,209.56213 1021.5758,176.95215 1015.8198,228.32068 1082.9518,260.6952 1125.3727,252.703 1130.8875,211.91626" fill="#000000" stroke="none" fill-opacity="1" />
				<polyline points="792.87646,237.3338 867.8431,189.47748 883.3298,239.3529 804.3931,284.40216 751.7048,291.35583 739.66846,250.5545" fill="#000000" stroke="none" fill-opacity="1" />
				<polyline points="698.33453,391.58997 718.3518,418.40717 801.96936,464.84528 946.0064,405.3531 1056.7137,417.0191 1110.5283,425.01324 1151.9421,408.09015 1165.0531,350.54828 1150.3699,306.78906 1152.5641,348.64325 1131.471,387.05695 1061.5902,385.34723 938.8043,370.67047 796.45636,430.73187 709.9131,392.87128 691.1103,339.8155" fill="#000000" stroke="none" fill-opacity="1" />
			</g>
		</g>
	</g>
</svg>
