<?xml version="1.0" encoding="UTF-8"?>
<!-- Generator: Blender, SVG Export for Grease Pencil - v2.0 -->
<!DOCTYPE svg PUBLIC "-//W3C//DTD SVG 1.1//EN" "http://www.w3.org/Graphics/SVG/1.1/DTD/svg11.dtd">
<svg version="1.1" x="0px" y="0px" xmlns="http://www.w3.org/2000/svg" width="1920.000000px" height="1080.000000px" viewBox="0 0 1920.000000 1080.000000">
	<g id="blender_frame.23">
		<g id="blender_object.Stroke.23.uuid_0x0">
			<g id="layer.Fills.uuid_0x1" />
			<g id="layer.black.uuid_0x2" />
			<g id="layer.skin.uuid_0x3" />
			<g id="layer.yella.uuid_0x4" />
			<g id="layer.red.uuid_0x5">
				<polygon points="1007.2495,8.338623 1178.2347,25.327637 1306.5415,153.34467 1423.1276,335.5149 1499.43,447.01147 1617.7675,596.1836 1781.2329,708.9105 1857.1047,797.2288 1857.8334,827.3917 1820.3264,928.6844 1470.9692,1021.33954 1043.6631,1045.1108 669.90594,987.7731 226.29639,931.74457 109.842285,880.5994 108.50012,849.10114 130.51003,772.52454 166.54015,740.95044 275.87888,686.1443 491.7634,521.8327 544.1622,451.12225 694.3133,208.46521 901.2136,26.704712" fill="#53ABE7" stroke="none" fill-opacity="1" />
				<path d="M1007.71173,3.687378L1006.79535,3.6866455L1005.8966,3.864502L1005.04974,4.2144775L1004.2875,4.7229004L1003.63885,5.3702393L1003.1291,6.131714L1002.77783,6.9780273L1002.5983,7.876587L1002.5975,8.792847L1002.77545,9.69165L1003.12537,10.538452L1003.63385,11.300781L1004.2811,11.949341L1005.0426,12.458984L1005.8888,12.810425L1006.78735,12.98999L1172.3452,37.7843L1297.9438,160.2677L1414.9155,340.7704L1496.6064,448.9439L1609.8752,602.44446L1778.2307,712.24927L1843.4469,802.4783L1849.6522,826.0274L1799.9424,906.2571L1469.3844,1011.3548L1044.9147,1019.2302L670.7245,982.437L230.08627,918.0363L132.20377,865.3085L118.80106,850.3291L144.57596,781.4523L169.29132,745.04065L277.8742,690.125L501.1392,534.1513L554.1766,458.54327L697.2088,210.91418L904.6474,33.883667L1008.04724,12.944214L1008.9304,12.700073L1009.749,12.288452L1010.47156,11.7248535L1011.0702,11.03125L1011.52216,10.234131L1011.8098,9.364136L1011.9223,8.454834L1011.8551,7.5410156L1011.611,6.657715L1011.1993,5.8391113L1010.6358,5.116699L1009.9421,4.5179443L1009.14496,4.06604L1008.275,3.7783203L1007.36566,3.6658936L1006.45184,3.7331543L899.90643,19.157715L896.15845,20.950562L691.8377,205.64722L533.83716,444.12018L480.63593,510.84717L273.51242,682.3495L164.34912,736.57935L119.974884,760.50256L117.01407,763.9586L115.147194,768.10895L98.659294,846.2727L86.87102,881.57825L87.65557,886.63153L89.53766,891.3864L92.42426,895.60767L96.17243,899.0865L100.59683,901.65076L220.6366,944.6316L669.15826,993.12L1039.7552,1070.584L1471.5278,1031.3813L1827.223,954.6888L1833.1886,952.31396L1838.4214,948.59326L1842.6235,943.7386L1845.5558,938.0264L1865.4722,830.2202L1865.9768,827.19495L1870.8815,796.896L1869.9678,792.2847L1867.5579,788.2488L1784.6106,706.0089L1624.7249,588.7443L1502.1859,444.9795L1431.2585,330.13263L1315.784,147.4295L1187.4012,16.14038L1183.7819,13.594849L1179.518,12.413208z" fill="#000000" stroke="none" fill-opacity="1" />
				<polygon points="1473.1694,519.4846 1411.4657,415.14722 1319.2054,292.90417 1187.9825,153.21716 978.46356,58.465332 829.74896,157.7774 727.3906,267.65088 656.91455,383.85327 605.4251,502.04718 616.8721,581.41516 607.4182,648.9232 489.4765,708.9542 299.99948,897.4309 879.3577,948.25323 1427.6672,902.06915 1696.4585,827.5655" fill="#7FD2E8" stroke="none" fill-opacity="1" />
				<polygon points="867.8543,135.01355 834.90875,167.76874 804.1304,153.77734 850.1039,122.9411" fill="#EEF4D9" stroke="none" fill-opacity="1" />
				<path d="M883.7188,150.97034L886.5271,147.56879L888.6177,143.68457L889.91034,139.46722L890.3554,135.0788L889.9357,130.6878L888.6676,126.46301L886.59955,122.56683L883.8111,119.148926L880.4095,116.34088L876.5253,114.25012L872.30804,112.95758L867.91956,112.51239L863.5285,112.93207L859.3038,114.20038L855.4076,116.26837L851.98975,119.05676L829.6386,138.46136L828.27844,151.7909L850.0309,145.6178L855.20013,153.61932L859.07306,155.73053L863.2835,157.04565L867.66956,157.51398L872.0627,157.11768L876.2942,155.87189L880.2013,153.82465L883.6339,151.05432L886.46014,147.66772L888.5712,143.79474L889.88635,139.58423L890.35474,135.1983L889.95844,130.80505L888.7127,126.57373L886.66534,122.666565L883.8952,119.23395L880.5085,116.40784L862.8569,104.190125L858.0848,101.71521L852.8643,100.43298L847.48865,100.41571L842.25995,101.664185L837.47205,104.10846L790.63354,133.65509L786.6947,136.95264L783.5396,141.00665L781.3101,145.63458L780.10626,150.62854L779.9824,155.76398L780.94385,160.81012L782.94763,165.54022L785.90356,169.74158L789.6787,173.22534L794.10345,175.8349L824.7702,190.07153L830.4063,191.85052L836.3045,192.22797L842.1214,191.18195L847.5186,188.77338L852.18195,185.14233z" fill="#8CFEB5" stroke="none" fill-opacity="0.261109591" />
				<polygon points="495.60754,584.8136 448.69577,638.8729 479.26376,671.73004 533.87946,625.7713 514.22003,605.381" fill="#EEF4D9" stroke="none" fill-opacity="1" />
				<path d="M514.5957,601.2912L517.44543,597.27014L519.45605,592.77045L520.5501,587.96497L520.6856,583.0383L519.85736,578.17993L518.0973,573.57654L515.4729,569.4049L512.08514,565.8254L508.06415,562.97565L503.56442,560.9651L498.75894,559.87103L493.83224,559.7355L488.9739,560.56366L484.3704,562.3238L480.1988,564.9482L476.6194,568.336L432.42957,624.7573L429.5012,629.10535L427.71002,634.032L427.1621,639.24536L427.88998,644.43677L429.85046,649.2986L432.9275,653.5426L461.24292,688.49536L465.28098,691.9861L469.9766,694.52423L475.109,695.9904L480.43674,696.3157L485.70935,695.4846L490.67883,693.5365L495.11145,690.56287L555.2264,651.13916L560.5278,645.4965L564.37604,638.7782L566.56104,631.3505L566.964,623.61865L565.56256,616.0041L562.4334,608.92224L557.7471,602.7593L535.15906,585.82153L514.24866,567.94434L510.59937,564.6318L506.37405,562.0948L501.735,560.43085L496.86035,559.704L491.9377,559.942L487.15598,561.13586L482.69913,563.2396L478.73825,566.1725L475.4257,569.8217L472.88873,574.047L471.22485,578.68616L470.49796,583.56067L470.73596,588.4834L471.9298,593.26514L474.03357,597.72205L476.96643,601.68286L492.97455,624.60706L500.77002,624.04626L481.33395,637.8194L477.6459,638.3721z" fill="#8CFEB5" stroke="none" fill-opacity="0.261109591" />
				<polygon points="1323.6724,667.90784 1301.6564,674.26196 1281.194,682.27924 1262.6035,691.23444 1245.6023,701.8247 1259.8092,722.90027 1275.0684,745.31946 1292.1187,769.15845 1309.9077,794.1509 1327.9714,783.99396 1347.4529,775.0985 1368.6212,767.38446 1390.372,760.36084 1372.4518,735.803 1354.7124,712.06335 1338.8115,689.33777" fill="#83DDD7" stroke="none" fill-opacity="1" />
				<polygon points="1180.5002,666.65295 1159.3599,661.6309 1138.4578,657.43054 1117.0239,653.7522 1094.3015,649.6732 1092.5957,672.0045 1091.4385,694.99316 1090.1515,719.0382 1089.4027,743.27 1110.4784,747.83215 1131.1803,752.7598 1152.0953,758.1569 1172.8655,764.75525 1173.5516,738.57935 1175.2811,713.194 1177.5787,689.3855" fill="#83DDD7" stroke="none" fill-opacity="1" />
				<polygon points="1347.2123,571.15686 1321.2234,585.7395 1295.956,601.93677 1273.2502,619.69214 1252.2135,639.6763 1277.4645,660.9756 1306.0074,685.7283 1337.0553,713.25757 1370.3373,743.41 1393.8984,723.53564 1419.575,705.88074 1447.0282,689.6538 1475.4305,675.191 1441.5686,647.1948 1408.5648,620.26904 1376.8567,594.7135" fill="#83DDD7" stroke="none" fill-opacity="1" />
				<polygon points="944.781,827.82916 921.1641,785.31433 894.701,742.49 866.5967,699.7178 836.00073,657.5968 803.0347,669.95776 770.23334,682.40485 737.04706,694.6096 703.02814,706.97015 727.24634,746.9084 750.1812,786.71155 771.49066,826.26624 791.5884,865.7914 830.82947,856.0874 869.2606,846.46985 907.136,837.06287" fill="#83DDD7" stroke="none" fill-opacity="1" />
				<polygon points="1095.2699,510.51746 1000.5202,499.18286 910.79565,493.02185 828.34265,491.44122 752.655,491.35266 776.0614,564.9585 802.2621,638.3344 826.503,711.01953 845.9191,782.7306 930.23395,789.53253 1012.01825,798.51 1080.5934,796.6366 1141.1082,788.9997 1127.9572,712.52686 1117.7045,644.98596 1107.6062,579.8446" fill="#83DDD7" stroke="none" fill-opacity="1" />
				<polygon points="978.7421,544.4959 942.4768,551.7864 907.2367,559.9313 873.4468,568.8467 840.9768,578.06665 862.8856,612.15247 885.1022,646.4116 906.7986,680.91113 927.6324,715.73096 961.9496,709.24927 996.5794,703.05286 1028.759,694.5717 1058.9473,683.6036 1042.7771,651.5831 1023.34143,617.3842 1001.36554,580.97766" fill="#83DDD7" stroke="none" fill-opacity="1" />
				<polygon points="1195.4673,694.48865 1190.8928,668.2643 1188.0048,643.8696 1184.9916,620.45715 1182.4517,598.1774 1161.4371,601.2831 1140.4062,604.5652 1119.3439,608.30273 1097.9562,611.939 1104.4948,636.1716 1110.2288,660.5887 1115.7943,684.9939 1121.9027,710.874 1139.6139,705.7406 1157.8983,701.2938 1176.5881,697.3673" fill="#83DDD7" stroke="none" fill-opacity="1" />
				<polygon points="901.9712,464.8568 931.5939,437.6496 963.58673,411.09833 999.7032,385.24603 1039.1588,361.1515 1006.21985,328.33893 975.82654,296.80798 947.6829,265.8379 923.958,235.71564 880.7806,261.6291 843.33905,288.68005 810.08905,316.25073 780.3705,344.2489 805.9121,374.05743 834.25726,403.76086 866.9749,434.05078" fill="#83DDD7" stroke="none" fill-opacity="1" />
				<polygon points="1330.9894,593.8991 1305.3638,530.00397 1284.388,467.62897 1255.6235,393.3446 1227.9335,315.22772 1139.8784,319.30463 1048.3856,330.9085 964.0178,348.32782 888.4754,370.2768 933.35284,446.3919 987.3104,525.8653 1045.291,608.26404 1088.4894,679.12213 1139.2446,647.2341 1193.3606,619.7739 1255.5619,600.96875" fill="#83DDD7" stroke="none" fill-opacity="1" />
				<polygon points="1250.0845,510.41724 1229.8845,483.29968 1206.7119,452.65192 1178.6094,417.9619 1149.5703,382.06702 1114.605,395.71716 1080.5586,410.11877 1048.6698,426.00244 1018.49835,442.42908 1051.2883,476.97278 1085.2246,512.2575 1115.1332,544.25476 1139.7218,571.17786 1164.3129,553.60803 1191.4178,537.95416 1219.7203,523.1374" fill="#83DDD7" stroke="none" fill-opacity="1" />
				<polygon points="1284.1346,912.59534 1288.4965,875.2539 1291.9841,837.7628 1296.5051,801.4547 1302.3636,767.02985 1269.9316,746.3055 1240.3848,728.4967 1213.8816,713.1804 1189.2144,700.74243 1183.4482,733.6836 1179.0494,768.19104 1175.8198,804.78564 1172.8231,842.28546 1198.499,857.4596 1225.73,874.3965 1254.4573,892.89496" fill="#83DDD7" stroke="none" fill-opacity="1" />
				<polygon points="1091.4978,489.93756 1152.4425,486.16864 1211.8618,482.00275 1270.5957,480.79492 1326.1886,483.25763 1318.5989,442.8817 1307.8796,396.78015 1296.9536,349.5561 1290.5894,304.19507 1233.6222,294.9712 1167.4249,288.98743 1094.5957,287.6469 1022.6081,290.34613 1033.198,338.36816 1048.5366,387.4591 1067.988,437.9344" fill="#83DDD7" stroke="none" fill-opacity="1" />
				<polygon points="1576.3269,840.67694 1580.0474,820.84503 1583.8069,801.2751 1587.652,782.1168 1591.6547,763.3815 1569.0111,755.02783 1545.0758,745.6649 1520.4348,736.00977 1495.3947,725.83307 1492.4478,744.9369 1490.0052,764.6089 1487.7314,784.87866 1486.2346,805.71173 1510.015,815.4618 1532.7936,824.5753 1555.0126,833.03784" fill="#83DDD7" stroke="none" fill-opacity="1" />
				<polygon points="1464.0474,723.6481 1454.7198,676.82666 1446.6866,633.78845 1437.334,593.08057 1426.8219,554.00244 1377.0282,542.75464 1328.6366,534.44714 1282.3817,530.06915 1238.897,528.86847 1241.2511,565.21796 1244.5892,602.62036 1249.8137,642.4507 1258.3881,687.4507 1302.7279,690.6953 1352.6125,698.8021 1406.8552,710.34143" fill="#83DDD7" stroke="none" fill-opacity="1" />
				<polygon points="1070.486,297.0561 1004.8584,378.2857 961.5919,465.54962 936.68115,556.607 921.07324,649.7228 1022.67053,704.01025 1100.4749,742.4378 1170.8956,782.80237 1251.718,841.72107 1275.3065,738.51746 1320.9976,657.85535 1386.3239,597.95325 1445.2042,547.1698 1354.3702,485.1709 1271.853,425.80603 1174.0974,358.1936" fill="#83DDD7" stroke="none" fill-opacity="1" />
				<polygon points="668.81506,488.6526 653.4232,501.77637 637.919,515.02954 622.02124,527.9932 606.10223,540.77716 619.0088,561.54816 633.24005,582.0668 647.9468,602.5363 663.9338,622.7879 680.5441,610.0613 697.55817,597.26154 714.0046,584.193 730.3162,571.0449 714.01965,550.45905 697.6542,529.94977 682.62335,509.3982" fill="#83DDD7" stroke="none" fill-opacity="1" />
				<polygon points="679.3924,723.3393 660.6571,718.71655 642.44763,714.1157 623.80914,709.54297 605.3935,704.90515 603.65753,719.7842 601.41626,734.66907 598.7776,749.6058 596.1336,764.4619 614.8808,769.131 633.979,773.6273 652.9822,778.3568 672.20996,783.0156 674.563,768.24744 676.41473,753.42334 677.8016,738.4618" fill="#83DDD7" stroke="none" fill-opacity="1" />
				<polygon points="828.4873,494.99933 805.0333,476.1939 782.99426,457.1775 762.0142,438.71838 742.44305,419.95947 730.3805,437.1494 719.0267,453.92358 708.65424,471.15033 698.7415,488.117 719.3145,506.89825 739.92377,525.5519 763.2462,544.4081 786.6017,563.28973 796.8747,546.0315 806.4424,528.9722 817.0904,511.89844" fill="#83DDD7" stroke="none" fill-opacity="1" />
				<polygon points="1069.95,66.42029 879.02625,103.39111 964.8402,146.10223 1111.2056,112.26459" fill="#EEF4D9" stroke="none" fill-opacity="1" />
				<path d="M1074.5929,90.39691L1079.4764,88.907776L1083.9437,86.43573L1087.7993,83.08887L1090.8749,79.01349L1093.0358,74.38776L1094.1879,69.41394L1094.2806,64.30914L1093.31,59.296753L1091.3185,54.59558L1088.393,50.411133L1084.6615,46.926514L1080.2869,44.293823L1075.4607,42.628174L1070.3936,42.00232L1065.3071,42.443726L874.9338,82.256836L870.67017,83.552246L866.76447,85.697876L863.38434,88.60144L860.6744,92.138916L858.75085,96.15851L857.69617,100.487976L857.55536,104.941956L858.3347,109.329285L860.0006,113.46228L862.4819,117.16382L865.672,120.275024L869.4343,122.66284L952.97644,169.9386L961.7239,172.54486L970.83746,172.04364L1119.374,147.59802L1126.4825,145.15509L1132.9347,141.29944L1138.4535,136.19635L1142.8016,130.06519L1145.7925,123.16931L1147.2977,115.805176L1147.2523,108.288635L1145.6584,100.94318L1142.5845,94.083984L1138.1625,88.0058L1088.1035,50.08374L1084.5677,46.85608L1080.4701,44.38037L1075.968,42.751465L1071.2349,42.032104L1066.4523,42.250122L1061.8041,43.396973L1057.469,45.428467L1053.6135,48.266724L1050.3859,51.802612L1047.9099,55.90039L1046.281,60.402344L1045.5618,65.13544L1045.7797,69.91809L1046.9265,74.566284L1048.9583,78.90143L1051.7964,82.7569L1076.6185,101.359924L968.1511,118.009155L945.522,112.44147z" fill="#8CFEB5" stroke="none" fill-opacity="0.261109591" />
				<polygon points="454.16125,782.0765 338.3431,886.906 218.39305,866.4345 220.59467,782.2804 237.29227,746.22687 283.85153,756.9153 355.7084,692.944 402.67258,738.23584" fill="#EEF4D9" stroke="none" fill-opacity="1" />
				<path d="M476.28494,806.5193L480.62842,801.7335L483.95474,796.19226L486.13623,790.10864L487.0888,783.7163L486.77597,777.261L485.20984,770.9907L482.45053,765.1464L478.6041,759.95276L473.8183,755.6093L468.2771,752.28296L462.19342,750.10156L455.8011,749.1489L449.3458,749.46173L443.07547,751.02783L437.2312,753.78723L432.03754,757.63367L329.57584,856.7915L242.15631,846.90955L243.70554,787.6902L250.46292,773.0995L278.6606,779.52747L284.14417,780.1138L289.6111,779.38934L294.7527,777.3951L299.27835,774.24365L355.1028,723.325L386.6623,754.8372L432.7881,807.1782L438.0959,810.8656L444.02106,813.44666L450.33594,814.8221L456.79776,814.9392L463.15826,813.79346L469.1731,811.4287L474.61102,807.93604L479.26297,803.44965L482.95044,798.14185L485.5314,792.2167L486.90686,785.90186L487.02396,779.43994L485.87814,773.07947L483.5135,767.0647L480.02084,761.6267L475.5344,756.97473L418.16855,721.1384L371.18082,676.9003L367.42966,673.98596L363.14618,671.93274L358.5248,670.8338L353.7755,670.73914L349.11404,671.65295L344.75208,673.53394L340.88776,676.29645L277.36996,731.62354L242.49304,723.5718L237.25806,722.9825L232.02501,723.5871L227.06229,725.3546L222.62512,728.1941L218.94133,731.9599L216.20001,736.4584L199.50252,772.51184L197.35817,781.6725L195.15656,865.8266L195.66817,871.3216L197.46077,876.54114L200.43338,881.191L204.41832,885.009L209.19109,887.77997L214.48248,889.34766L333.5971,914.7143L342.07062,914.869L350.20764,912.5001L357.27383,907.8213z" fill="#8CFEB5" stroke="none" fill-opacity="0.261109591" />
			</g>
			<g id="layer.apron.uuid_0x6">
				<polyline points="1175.0974,208.1427 1109.3315,175.40833 1103.5535,226.97284 1170.9417,259.4709 1213.5243,251.44818 1219.06,210.50586" fill="#000000" stroke="none" fill-opacity="1" />
				<polyline points="879.7594,236.02045 955.0121,187.98157 970.5579,238.0473 891.3199,283.26837 838.4305,290.2486 826.34827,249.29156" fill="#000000" stroke="none" fill-opacity="1" />
				<polyline points="784.8567,390.86517 804.95026,417.78473 888.887,464.4001 1033.4736,404.68085 1144.6034,416.39136 1198.6234,424.41602 1240.1952,407.42834 1253.3561,349.6668 1238.617,305.74066 1240.8195,347.75464 1219.6458,386.31488 1149.4987,384.5987 1026.244,369.8659 883.353,430.15643 796.4795,392.15137 777.6048,338.8932" fill="#000000" stroke="none" fill-opacity="1" />
			</g>
		</g>
	</g>
</svg>
