<?xml version="1.0" encoding="UTF-8"?>
<!-- Generator: Blender, SVG Export for Grease Pencil - v2.0 -->
<!DOCTYPE svg PUBLIC "-//W3C//DTD SVG 1.1//EN" "http://www.w3.org/Graphics/SVG/1.1/DTD/svg11.dtd">
<svg version="1.1" x="0px" y="0px" xmlns="http://www.w3.org/2000/svg" width="1920.000000px" height="1080.000000px" viewBox="0 0 1920.000000 1080.000000">
	<g id="blender_frame.23">
		<g id="blender_object.GPencil.23.uuid_0x0">
			<g id="layer.Layer.001.uuid_0x1">
				<polyline points="1932.3444,1104.0184 1935.8433,-13.890747 -23.571281,-27.886353 -25.320854,1102.2689" fill="#356292" stroke="none" fill-opacity="1" />
				<polygon points="49.28541,75.43439 68.00509,113.95337 89.75418,152.27643 113.689674,189.53491 140.6214,225.77368 169.9676,217.13416 199.82066,207.76971 230.27023,198.94427 261.9083,189.23157 239.507,157.0708 219.27339,123.97662 200.90059,90.4436 184.21698,56.156982 148.965,61.352356 114.90761,66.2392 81.876015,70.64264" fill="#579AA6" stroke="none" fill-opacity="1" />
				<polygon points="20.554104,462.3487 80.590385,424.55493 139.75565,381.80847 196.77252,335.65448 251.5682,284.7516 232.03201,237.99481 211.21033,190.5346 191.16846,141.99469 169.45032,91.658325 120.549545,134.36346 69.71953,173.6684 17.829952,209.98877 -35.605774,243.66412 -20.671806,300.76843 -6.462021,355.96173 6.7662625,409.5536" fill="#579AA6" stroke="none" fill-opacity="1" />
				<polygon points="192.90894,191.62006 281.58194,218.3689 374.38705,240.01569 468.7073,256.62628 565.80194,266.9796 595.1159,207.66956 624.0212,146.4906 654.65826,85.15442 685.62823,20.62793 601.6597,9.056274 519.3874,-7.32959 439.14667,-27.316406 360.1865,-51.092896 316.73654,12.550903 274.54834,73.843994 233.09651,132.79779" fill="#579AA6" stroke="none" fill-opacity="1" />
				<polygon points="1000.464,-202.10657 698.3962,-293.2273 382.25186,-366.9679 60.94614,-423.55225 -269.8106,-458.82153 -369.6697,-256.7799 -468.13626,-48.37085 -572.5029,160.57318 -678.00354,380.3852 -391.96152,419.80457 -111.697426,475.62372 161.6459,543.7095 430.6269,624.70496 578.64075,407.8996 722.3566,199.10272 863.5636,-1.7260742" fill="#579AA6" stroke="none" fill-opacity="1" />
				<polygon points="1667.5521,169.90558 1686.2716,208.4245 1708.0208,246.74756 1731.9562,284.00604 1758.8881,320.24487 1788.2343,311.60535 1818.0872,302.24084 1848.5367,293.41547 1880.1747,283.70282 1857.7734,251.54205 1837.5398,218.44775 1819.1672,184.91473 1802.4834,150.62811 1767.2314,155.82355 1733.1742,160.71027 1700.1426,165.11389" fill="#579AA6" stroke="none" fill-opacity="1" />
				<polygon points="1621.5739,520.218 1679.4456,494.0252 1737.1495,463.3324 1793.3638,429.3546 1848.1879,390.893 1836.5687,347.03076 1823.8951,302.38757 1812.045,256.8819 1798.9274,209.57794 1750.3336,241.48761 1700.4437,270.14545 1649.9788,296.0266 1598.4651,319.37244 1604.7382,371.85144 1610.6022,422.5467 1615.7911,471.70154" fill="#579AA6" stroke="none" fill-opacity="1" />
				<polyline points="-72.556915,1093.5216 1988.3276,1109.2667 1969.0833,787.36487 -70.807236,818.85535" fill="#314274" stroke="none" fill-opacity="1" />
				<polygon points="71.59956,1024.5997 38.767723,1016.7669 5.972672,1009.7084 -26.638985,1003.50446 -58.270573,997.1665 -57.6273,1027.0984 -57.103157,1056.8457 -57.540897,1086.1285 -59.292645,1115.4248 -29.231188,1124.4105 0.6612397,1133.6272 29.564495,1140.2802 58.06097,1144.1794 63.230267,1117.5781 66.93415,1088.5709 69.74991,1056.7852" fill="#4789AF" stroke="none" fill-opacity="0.672221303" />
				<polygon points="301.49365,1191.4468 319.48816,1138.1292 340.06927,1087.3685 361.7659,1024.4099 386.1623,957.46545 319.4795,924.7653 243.00232,899.11224 166.68166,880.88904 92.24196,870.2582 87.95786,941.3446 88.60468,1014.99945 88.707565,1090.3728 82.2658,1152.3696 136.3928,1150.834 189.94246,1153.5017 244.23816,1165.8693" fill="#4789AF" stroke="none" fill-opacity="0.672221303" />
				<polygon points="278.9474,882.1832 182.71317,917.52484 100.75419,964.5766 31.398869,1018.14355 -30.049784,1072.5073 20.017605,1144.0146 56.568607,1197.8779 84.43354,1252.1423 108.642426,1323.6492 181.73761,1265.2759 258.4442,1229.9629 338.5476,1217.2047 409.3721,1208.4155 379.8842,1127.9766 354.92346,1053.5856 322.98337,966.3442" fill="#4789AF" stroke="none" fill-opacity="0.672221303" />
				<polygon points="1673.9808,1132.8461 1701.7463,1152.0393 1729.7578,1170.4973 1757.9077,1188.0922 1785.0957,1205.4572 1795.3376,1177.3248 1805.6241,1149.4076 1816.6387,1122.2717 1828.8828,1095.5994 1804.1177,1076.3352 1779.5934,1056.917 1755.0625,1040.2466 1729.9135,1026.2904 1715.4598,1049.213 1701.5007,1074.9088 1687.363,1103.5161" fill="#4789AF" stroke="none" fill-opacity="0.672221303" />
				<polygon points="1520.1318,894.0583 1484.0469,937.23755 1446.4772,977.0966 1403.4496,1027.9213 1356.4615,1081.483 1406.7719,1136.1162 1468.764,1187.7283 1533.3014,1232.3583 1598.8358,1269.2302 1628.5774,1204.5227 1654.6532,1135.6351 1681.8586,1065.3427 1710.319,1009.889 1659.3113,991.7149 1610.3639,969.83203 1564.2349,938.6376" fill="#4789AF" stroke="none" fill-opacity="0.672221303" />
				<polygon points="1429.1279,1190.488 1531.6285,1192.4034 1625.0651,1178.2334 1709.1134,1153.425 1786.0806,1125.0105 1765.314,1040.2238 1750.755,976.7788 1744.4374,916.1061 1747.7731,840.68616 1658.4978,868.6196 1574.2091,873.7506 1494.924,856.62805 1425.725,839.16693 1424.0747,924.82446 1420.395,1003.20514 1418.5664,1096.0916" fill="#4789AF" stroke="none" fill-opacity="0.672221303" />
				<polygon points="1488.7124,941.17773 1530.521,905.1697 1571.2682,868.46924 1610.7073,831.19366 1649.3857,795.34534 1609.1064,767.5449 1569.1859,739.763 1530.8019,711.15137 1493.6575,680.78564 1452.9735,712.01886 1412.1453,742.807 1375.6609,774.7389 1343.2152,808.7674 1373.5167,841.08215 1408.409,873.75775 1447.8335,907.9166" fill="#79D3D3" stroke="none" fill-opacity="0.572221041" />
				<polygon points="1047.5493,1086.0974 1100.976,1160.9818 1148.5382,1236.846 1211.1965,1325.8649 1276.5518,1422.277 1383.717,1365.217 1490.9196,1288.4324 1588.1271,1204.7432 1673.4733,1116.2781 1583.3762,1042.5521 1485.1554,972.90155 1385.1783,900.88525 1309.1915,833.0013 1259.4124,906.19635 1204.616,974.6023 1136.2515,1034.7117" fill="#4789AF" stroke="none" fill-opacity="0.672221303" />
				<polygon points="1478.9436,1352.2698 1524.2339,1190.9163 1540.3416,1037.2695 1535.7505,894.0873 1522.5353,760.61975 1379.8513,758.51306 1273.4869,755.38574 1174.9055,740.3644 1056.976,703.9927 1064.3558,856.7317 1037.7208,992.1813 977.9463,1110.541 921.79486,1212.8057 1056.614,1250.7324 1179.0852,1288.8688 1325.266,1330.058" fill="#4789AF" stroke="none" fill-opacity="0.672221303" />
				<polygon points="1931.3622,913.4852 1947.9309,899.2151 1964.0796,884.6704 1979.7092,869.8979 1995.0378,855.6909 1979.0751,844.67346 1963.2542,833.6633 1948.0422,822.32434 1933.3218,810.2903 1917.1984,822.66815 1901.018,834.8697 1886.559,847.5245 1873.7004,861.0102 1885.7092,873.8168 1899.5371,886.76624 1915.1613,900.3036" fill="#4789AF" stroke="none" fill-opacity="0.672221303" />
				<polygon points="1756.5262,970.91785 1777.6997,1000.595 1796.5488,1030.6604 1821.3805,1065.9392 1847.2815,1104.1478 1889.7515,1081.5347 1932.2367,1051.1045 1970.7605,1017.93787 2004.5837,982.87854 1968.8778,953.6605 1929.9523,926.0576 1890.3308,897.5171 1860.2168,870.61426 1840.489,899.6219 1818.7727,926.7316 1791.6794,950.55334" fill="#4789AF" stroke="none" fill-opacity="0.672221303" />
				<polygon points="1927.4904,1076.4036 1945.4393,1012.4581 1951.8229,951.5671 1950.0033,894.823 1944.766,841.92896 1888.2196,841.0941 1846.0665,839.8547 1806.9984,833.9017 1760.262,819.4873 1763.1869,880.01874 1752.6311,933.69824 1728.9423,980.605 1706.6891,1021.1331 1760.1188,1036.1637 1808.6548,1051.2773 1866.5869,1067.6008" fill="#4789AF" stroke="none" fill-opacity="0.672221303" />
			</g>
			<g id="layer.Layer.uuid_0x2">
				<polyline points="284.52692,660.0264 96.61606,325.96582 364.01077,156.40753 1460.7003,61.05133 1746.3622,199.70905 1567.2477,621.24133" fill="#3582BE" stroke="none" fill-opacity="1" />
				<path d="M276.61578,664.47644L277.63596,665.9343L278.92093,667.16516L280.42142,668.12164L282.07953,668.7671L283.83176,669.07654L285.61072,669.03827L287.34805,668.6537L288.97687,667.9375L290.4348,666.91736L291.66556,665.6324L292.62204,664.13196L293.26752,662.47375L293.57706,660.72156L293.53873,658.94257L293.15417,657.20526L292.438,655.5764L122.11882,332.38654L367.66943,167.23267L1457.2522,79.72681L1731.2511,205.37201L1561.4132,618.76215L1561.0415,619.94806L1560.9084,621.1837L1561.019,622.4215L1561.369,623.614L1561.9448,624.7153L1562.7245,625.68304L1563.678,626.48016L1564.7686,627.0759L1565.9543,627.4475L1567.19,627.58057L1568.4279,627.47L1569.6205,627.1201L1570.7216,626.5442L1571.6895,625.76465L1572.4865,624.81116L1573.0823,623.7206L1757.1243,204.28192L1757.8569,201.85486L1758.0492,199.3269L1757.6921,196.8169L1756.8025,194.44281L1755.4221,192.31635L1753.6157,190.53748L1751.4684,189.18958L1468.6942,44.582397L1459.1146,42.8136L363.0491,145.34778L358.06567,147.0321L86.39849,309.85266L83.170685,312.4286L80.572815,315.63873L78.72649,319.33264L77.71826,323.33728L77.59535,327.4651L78.36347,331.52277L79.98666,335.31995z" fill="#26274D" stroke="none" fill-opacity="1" />
				<polyline points="1499.3694,626.48303 1565.0404,267.0042 585.9793,216.21967 216.09346,365.6433 318.97574,637.5454" fill="#00DEDC" stroke="none" fill-opacity="0.5611099" />
				<polygon points="1497.0298,415.10712 1478.8262,422.9414 1462.4357,432.53333 1447.061,442.18536 1433.4569,453.5713 1444.0875,469.79095 1456.0431,487.49792 1469.0347,505.99213 1483.0447,525.5504 1497.7367,514.7664 1513.7605,505.06097 1531.2963,496.25763 1549.2781,487.97064 1535.1394,468.5642 1521.0903,449.86426 1508.7241,431.95233" fill="#79D3D3" stroke="none" fill-opacity="0.572221041" />
				<polygon points="1382.366,430.92804 1365.428,429.14142 1348.9331,428.48053 1331.8551,428.46857 1313.891,428.55438 1311.8369,447.7165 1310.3317,467.29193 1308.629,487.7647 1307.3635,508.36707 1324.1561,509.16565 1340.6208,510.55493 1357.2811,512.6232 1373.6044,515.6755 1374.8374,493.4441 1376.8083,471.4124 1379.4991,450.93604" fill="#79D3D3" stroke="none" fill-opacity="0.572221041" />
				<polygon points="1518.7463,327.8756 1497.1931,343.59943 1476.3435,360.77844 1457.5514,378.95142 1440.3081,398.93958 1459.8794,414.37524 1482.2151,432.48877 1506.4896,452.66357 1533.0836,475.25067 1552.8905,455.60516 1574.3887,437.5949 1597.3552,420.5807 1621.7252,405.56775 1594.1119,384.21857 1567.5193,364.00592 1542.3,345.22467" fill="#79D3D3" stroke="none" fill-opacity="0.572221041" />
				<polygon points="1184.4271,598.8335 1166.0826,569.07385 1144.9683,539.877 1121.9764,511.2857 1096.0986,484.30817 1066.1587,500.46252 1035.5055,516.2231 1003.9682,531.6658 971.0695,546.42584 992.5671,572.72876 1012.1906,598.1893 1029.9884,624.01483 1046.1359,650.2065 1082.7069,637.302 1117.6763,624.52185 1151.4132,611.63525" fill="#79D3D3" stroke="none" fill-opacity="0.572221041" />
				<polygon points="1317.0768,308.3813 1239.4905,316.33813 1163.3849,331.24908 1090.5872,349.26996 1020.8189,366.44263 1043.0381,422.42297 1066.1333,475.8894 1086.0591,528.0592 1100.3954,579.4622 1173.7572,570.984 1242.1881,565.33545 1298.4524,554.04083 1347.6321,540.14166 1339.1086,476.81372 1332.626,420.84283 1325.9031,366.34088" fill="#79D3D3" stroke="none" fill-opacity="0.572221041" />
				<polygon points="1221.0349,360.5307 1190.3843,374.66663 1160.2412,389.3885 1130.7706,404.66876 1101.9875,419.2379 1120.994,442.3697 1139.793,465.43018 1157.5483,488.7201 1174.2793,512.8326 1203.4646,501.3153 1232.66,490.08417 1259.493,477.44897 1284.3042,462.9005 1271.9255,438.794 1256.908,413.7022 1239.4747,386.97498" fill="#79D3D3" stroke="none" fill-opacity="0.572221041" />
				<polygon points="1393.4192,453.0465 1390.6147,431.11523 1388.9971,410.36554 1386.8779,390.28595 1385.4902,371.25897 1368.7189,377.00055 1351.7549,382.71307 1334.8911,389.227 1317.4755,395.59912 1322.211,415.3288 1326.3146,435.36096 1330.1829,455.1988 1334.4213,476.36908 1348.4712,469.47705 1363.4723,463.47217 1378.39,457.68585" fill="#79D3D3" stroke="none" fill-opacity="0.572221041" />
				<polygon points="1504.8828,349.5921 1486.0729,296.55676 1470.8765,243.93256 1449.0175,181.03003 1426.8174,113.325745 1354.1862,128.83661 1278.2112,155.94122 1206.9518,188.78943 1141.8636,226.4436 1182.4343,284.97272 1228.4688,342.47302 1275.1377,401.66058 1308.394,454.378 1349.9941,419.7149 1393.7384,388.713 1444.0648,364.87518" fill="#79D3D3" stroke="none" fill-opacity="0.572221041" />
				<polygon points="1441.879,285.96002 1426.4553,264.47693 1408.2526,239.98016 1385.8243,212.68805 1362.2208,184.44598 1333.7136,202.67633 1305.684,221.88379 1279.4359,242.20642 1254.419,262.6245 1281.5107,286.83118 1308.8892,311.50018 1332.6868,334.42883 1351.8589,353.815 1372.1165,334.98328 1394.0299,317.41498 1417.3159,300.88123" fill="#79D3D3" stroke="none" fill-opacity="0.572221041" />
				<polygon points="1459.916,630.063 1463.9789,597.3433 1467.6012,564.9023 1472.0829,533.33 1477.485,503.09027 1451.7115,488.89008 1428.3362,476.91193 1407.8579,467.06183 1388.2822,459.2032 1382.963,488.17517 1378.4124,518.0604 1374.9601,549.5148 1371.4305,581.6118 1391.8467,591.8502 1413.2227,603.35254 1436.2108,616.1416" fill="#79D3D3" stroke="none" fill-opacity="0.572221041" />
				<polygon points="1610.91,448.74847 1604.2202,408.79407 1598.9475,372.14478 1592.098,337.15063 1584.856,304.2212 1544.0938,299.55438 1504.8726,297.79095 1467.4104,299.38904 1432.5527,303.6637 1433.4366,335.2168 1435.0566,367.5172 1438.0615,401.46472 1443.9752,439.54053 1479.3885,437.15125 1519.8004,438.66205 1563.8549,442.7956" fill="#79D3D3" stroke="none" fill-opacity="0.572221041" />
				<polygon points="1296.0039,120.41553 1242.1987,207.67987 1206.8533,295.326 1185.4426,380.30347 1170.7399,461.02014 1254.2965,486.28552 1316.322,506.03546 1371.7676,531.46954 1434.9963,572.71765 1456.3761,481.65027 1494.8484,406.47852 1549.9318,346.9375 1600.1743,296.2517 1527.2748,251.24506 1461.6722,208.19446 1382.6403,159.35602" fill="#79D3D3" stroke="none" fill-opacity="0.572221041" />
				<polygon points="940.485,379.13336 925.49713,392.41473 910.39087,404.9909 894.9067,417.86444 879.1589,429.65472 891.9429,445.18066 905.78436,459.84918 920.1476,474.2055 935.3486,487.9569 952.03326,475.60168 968.6022,463.27283 984.4976,449.9795 1000.07916,436.81537 984.6724,422.87146 968.89496,409.28253 954.1261,394.6726" fill="#79D3D3" stroke="none" fill-opacity="0.572221041" />
				<polygon points="947.3187,562.0224 929.0898,560.7191 911.5635,559.5188 893.337,557.62256 875.35284,555.8219 873.0095,567.304 870.2567,578.00146 866.9538,588.78015 863.6866,599.7888 881.88995,601.73834 900.2665,603.66736 918.7698,605.26514 937.5088,606.4621 940.50555,595.7213 943.0876,584.41974 945.1892,573.12683" fill="#79D3D3" stroke="none" fill-opacity="0.572221041" />
				<polygon points="1090.6573,352.45215 1069.2343,341.61053 1048.5427,330.04034 1028.6157,319.10425 1009.60913,306.88574 998.7626,324.27716 988.25305,340.9818 978.72345,357.84595 969.47253,373.96655 989.52234,386.07013 1009.1585,397.63373 1031.161,408.289 1052.7615,418.67444 1062.2982,402.41724 1070.9783,386.23688 1080.6133,369.29553" fill="#79D3D3" stroke="none" fill-opacity="0.572221041" />
				<polygon points="495.40228,386.83936 514.1218,425.35846 535.8707,463.68146 559.80634,500.93982 586.73816,537.1787 616.0842,528.53925 645.9373,519.1747 676.3869,510.34937 708.0249,500.63666 685.6237,468.47595 665.3901,435.38165 647.0172,401.8485 630.3336,367.562 595.08167,372.75732 561.0243,377.64423 527.9926,382.04767" fill="#79D3D3" stroke="none" fill-opacity="0.572221041" />
				<polygon points="371.4524,659.63947 449.7958,669.45874 526.4978,673.7506 599.62646,674.19305 669.1294,672.7257 643.1384,614.0292 617.1914,554.2432 595.181,493.79437 579.2987,432.94385 506.4788,420.79938 438.05902,407.01715 381.67044,405.07275 332.2697,409.88342 341.59488,479.26733 349.7615,539.5938 358.93954,597.9614" fill="#79D3D3" stroke="none" fill-opacity="0.572221041" />
				<polygon points="748.9869,671.07477 762.992,660.0031 777.16547,648.66077 791.56213,637.8229 806.43384,626.74536 792.5003,611.9318 777.62897,597.3108 762.5006,581.92346 746.5904,566.7746 730.9102,577.1614 715.2044,587.5349 700.19727,597.9115 685.42847,608.7781 701.7152,624.73157 718.4556,640.27576 734.2339,655.6104" fill="#79D3D3" stroke="none" fill-opacity="0.572221041" />
				<polygon points="730.32446,488.04108 748.233,491.46185 765.36926,495.02625 783.46136,497.8913 801.3006,501.0869 802.78375,489.50958 804.8159,477.8982 807.39355,466.3051 809.9559,454.06567 791.943,450.9754 773.869,447.68237 755.67084,443.92743 737.417,440.3885 735.0633,452.31866 733.1621,464.13184 731.87885,475.7624" fill="#79D3D3" stroke="none" fill-opacity="0.572221041" />
				<polygon points="599.25146,671.20703 621.8429,686.0841 643.59424,701.2447 664.6545,715.25 684.8312,729.20123 694.5284,714.63324 703.8646,701.0078 712.27386,686.6802 720.3712,673.0502 699.3548,658.90674 678.7611,644.9808 656.0024,630.4242 633.62756,615.14624 624.94586,628.96814 617.0857,643.0713 608.4483,657.02405" fill="#79D3D3" stroke="none" fill-opacity="0.572221041" />
				<polygon points="544.143,191.7644 458.40793,243.2052 301.63498,267.70093 394.71875,206.46173 469.4309,199.1131" fill="#EEF4D9" stroke="none" fill-opacity="1" />
				<path d="M557.88885,214.67426L562.09424,211.55225L565.6097,207.66992L568.30035,203.17645L570.0625,198.24432L570.8287,193.06311L570.5692,187.83209L569.2944,182.75208L567.0529,178.01855L563.93097,173.81317L560.0487,170.29767L555.55505,167.60718L550.623,165.84485L545.4418,165.07874L540.21075,165.33807L535.13074,166.61304L530.39716,168.85455L448.92664,217.04504L378.67868,237.95581L404.22095,233.3263L472.09366,226.18433L546.7583,218.35327L551.8954,217.33221L556.7344,215.32849L561.08954,212.41925L564.7935,208.71625L567.70386,204.36176L569.70874,199.52325L570.7313,194.3866L570.73193,189.14905L569.7108,184.01208L567.70715,179.17303L564.79785,174.81787L561.0949,171.11389L556.7404,168.20349L551.902,166.19861L546.7652,165.17609L541.5277,165.17548L466.76822,172.04193L392.01062,178.92896L379.51324,183.3493L292.0196,253.08539L289.19855,255.39624L286.91785,258.24176L285.27667,261.4983L284.34616,265.02423L284.1668,268.66644L284.74646,272.26678L286.0599,275.6687L288.05005,278.7245L290.63043,281.3012L293.68887,283.2871L297.09268,284.59576L300.69376,285.17047L304.3358,284.98608L462.62393,270.18817L472.45895,266.6236z" fill="#C0FEF2" stroke="none" fill-opacity="0.261109591" />
				<polyline points="281.89172,624.2837 122.66928,477.30963 235.3496,332.7851 477.8577,369.52863 482.75677,482.20874 463.1603,514.05316 487.65598,545.8975 512.152,531.2002 509.70224,504.25488 504.80328,330.33545 218.20268,286.24323 68.778534,482.20874 186.35817,624.28375" fill="#96C0C4" stroke="none" fill-opacity="1" />
				<path d="M278.74072,627.6974L279.4672,628.24646L280.28687,628.64343L281.16824,628.8727L282.07742,628.92566L282.97943,628.8003L283.83975,628.5012L284.62503,628.04016L285.3054,627.43475L285.8546,626.70825L286.25137,625.88855L286.4807,625.0072L286.5337,624.098L286.40826,623.19604L286.10922,622.3357L285.6482,621.5504L285.04276,620.87L123.27616,477.26L235.54169,333.26733L477.42606,369.91638L478.34158,481.06207L459.44193,511.76483L459.0026,512.72046L458.80444,513.7534L458.85916,514.8037L459.16348,515.8104L459.69965,516.7153L486.67798,546.6498L486.88727,546.86273L487.14166,547.0191L487.42618,547.10974L487.7241,547.1295L488.01797,547.0771L488.29068,546.95557L512.58307,531.9187L512.73206,531.8048L512.85187,531.66077L512.9368,531.4935L512.9825,531.3117L512.9863,531.12427L510.7538,504.19232L509.33136,330.20795L509.18106,329.17175L508.79694,328.19763L508.1994,327.33783L507.42038,326.63818L506.50165,326.13605L505.49207,325.85828L219.55605,277.44598L217.17819,277.40167L214.87352,277.98853L212.80656,279.1648L211.12479,280.84637L65.794426,479.93335L65.363846,480.65234L65.10355,481.44904L65.02665,482.28363L65.136795,483.11438L65.42863,483.9001L65.887474,484.60138L184.73976,625.62317L185.03215,625.9132L185.37553,626.1406L185.7566,626.29663L186.16087,626.37537L186.57275,626.37366L186.97627,626.2916L187.3561,626.13245L187.69759,625.9023L187.98758,625.60986L188.21498,625.2665L188.37108,624.8854L188.44969,624.4811L188.44804,624.0692L188.36604,623.6658L188.2068,623.2859L187.9766,622.94434L73.57064,482.11322L222.07472,295.84442L500.3815,334.2384L508.64963,504.2845L511.26987,530.75226L487.9637,544.274L468.45676,513.7774L486.4711,484.4944L486.97794,483.305L487.11392,482.0193L478.30533,369.50916L478.28918,369.40784L478.2504,369.31293L478.191,369.2292L478.11407,369.16125L478.02386,369.1125L477.9248,369.08563L235.4167,332.34204L235.2985,332.3399L235.1838,332.36884L235.08066,332.4267L234.99626,332.50952L122.31589,477.03412L122.26576,477.11487L122.23372,477.20435L122.22136,477.29858L122.22909,477.39325L122.25661,477.4842L122.30278,477.56732L122.365326,477.6388z" fill="#D1E3D7" stroke="none" fill-opacity="1" />
				<polyline points="1634.9733,621.775 1727.9343,437.9323 1658.9933,257.74713 1511.6863,305.0274 1509.005,446.0263 1521.4609,485.64026 1508.1375,525.22614 1482.3855,508.2021 1481.109,482.06085 1483.7727,264.40906 1670.8813,199.01282 1761.497,443.56342 1693.1488,621.2306" fill="#96C0C4" stroke="none" fill-opacity="1" />
				<path d="M1630.6893,619.60876L1630.349,620.4861L1630.1865,621.4131L1630.2078,622.3539L1630.4124,623.27246L1630.7921,624.1335L1631.3324,624.9039L1632.013,625.554L1632.8069,626.05896L1633.6844,626.39923L1634.6112,626.56177L1635.5521,626.5404L1636.4706,626.33594L1637.3317,625.9562L1638.1022,625.41565L1638.7523,624.73535L1639.2572,623.9412L1730.5919,439.27606L1730.8585,438.4956L1730.9009,437.67188L1730.7157,436.86816L1659.412,257.5871L1659.3677,257.50085L1659.3059,257.42615L1659.2297,257.36658L1659.1426,257.3246L1659.0482,257.30243L1658.9514,257.30115L1658.8563,257.32056L1511.4888,304.41168L1511.3435,304.47906L1511.2192,304.58014L1511.1237,304.70856L1511.0626,304.8567L1511.0397,305.01514L1507.829,446.00385L1518.7653,485.61328L1507.7513,524.1025L1484.0421,507.25842L1484.361,482.0014L1488.546,267.8413L1667.7633,205.63818L1760.5448,443.55756L1692.5796,621.0116L1692.5479,621.1269L1692.5391,621.24615L1692.5537,621.3648L1692.5916,621.4783L1692.6506,621.5823L1692.7286,621.6727L1692.8229,621.7462L1692.9298,621.79987L1693.0452,621.83167L1693.1644,621.8404L1693.283,621.82556L1693.3966,621.788L1693.5006,621.729L1693.5911,621.65076L1693.6646,621.55646L1693.718,621.4496L1762.3281,443.8833L1762.3877,443.56897L1762.332,443.25397L1675.7812,197.19708L1675.2622,196.16394L1674.5284,195.27014L1673.6158,194.5597L1672.5696,194.06744L1671.4406,193.81714L1670.2843,193.82135L1669.1572,194.07977L1482.1841,259.86383L1481.1312,260.38348L1480.2356,261.14252L1479.55,262.09576L1479.1157,263.18658L1478.9583,264.35022L1477.8583,482.02106L1480.6865,508.28503L1480.7523,508.67743L1480.9075,509.04388L1481.1434,509.3642L1481.4473,509.62097L1507.7378,525.8304L1507.8853,525.9053L1508.0459,525.9447L1508.2113,525.9467L1508.3728,525.9112L1508.522,525.83997L1508.6512,525.73676L1508.7537,525.60693L1508.8239,525.45715L1523.8904,486.45795L1524.0242,485.66595L1523.9064,484.87134L1510.1848,445.85657L1512.3241,305.5019L1658.7264,258.3034L1724.6819,437.76514z" fill="#D1E3D7" stroke="none" fill-opacity="1" />
				<polyline points="1698.4518,856.7874 1730.0009,730.8795 1755.5265,759.85583 1790.7828,733.40393 1755.3619,617.07965 159.88112,630.996 247.5977,864.34143" fill="#3582BE" stroke="none" fill-opacity="1" />
				<path d="M1697.7292,856.6063L1697.7078,856.7508L1697.715,856.8967L1697.7506,857.0383L1697.813,857.1704L1697.8998,857.2877L1698.008,857.3858L1698.1335,857.4609L1698.271,857.5101L1698.4154,857.5315L1698.5613,857.5244L1698.7029,857.4889L1698.835,857.42645L1698.9521,857.3395L1699.0504,857.23126L1699.1255,857.106L1699.1746,856.9685L1734.4277,749.10156L1746.7523,767.5852L1748.5862,769.2666L1750.7344,770.522L1753.0995,771.2944L1755.5745,771.54895L1758.0474,771.2739L1760.4062,770.4821L1762.544,769.2091L1799.4064,744.89795L1801.9326,742.46814L1803.7954,739.4989L1804.8839,736.1671L1805.1334,732.6709L1804.529,729.21826L1762.8574,614.79724L1762.032,612.9684L1760.769,611.4092L1759.1515,610.2218L1757.2856,609.48413L1755.2935,609.2446L159.74803,615.7391L156.51811,616.1137L153.44101,617.1643L150.65639,618.843L148.29066,621.07367L146.45135,623.75494L145.22192,626.76514L144.65837,629.96747L144.78603,633.21643L145.59935,636.3646L244.4755,865.5151L244.76442,866.1016L245.16228,866.62054L245.65367,867.0519L246.21986,867.379L246.83894,867.5895L247.48718,867.67505L248.13968,867.63257L248.77129,867.4636L249.35785,867.1746L249.87677,866.7768L250.3081,866.28534L250.63524,865.71924L250.84576,865.10016L250.93123,864.4519L250.88876,863.79944L250.71986,863.1678L181.84462,646.0625L1749.5725,624.9657L1774.1025,727.9546L1757.1555,744.0154L1736.5465,725.1134L1735.1487,723.8374L1733.5087,722.8928L1731.7036,722.3242L1729.8182,722.1583L1727.9417,722.403L1726.1619,723.0467L1724.5626,724.0591L1723.2197,725.39246L1722.1958,726.98425L1721.5394,728.7593z" fill="#26274D" stroke="none" fill-opacity="1" />
				<polygon points="1664.8145,726.3372 1651.2333,720.2356 1637.8625,713.91724 1624.3916,707.37604 1611.2579,700.3805 1604.3851,715.7903 1598.3331,731.73486 1592.293,748.01807 1586.9183,764.7008 1600.3762,772.36755 1613.8248,780.0014 1627.5985,787.00183 1641.3545,793.7502 1646.805,776.5979 1652.1584,759.22986 1658.1316,742.46106" fill="#79D3D3" stroke="none" fill-opacity="0.572221041" />
				<polygon points="1567.523,668.00867 1562.127,674.62305 1556.6652,681.103 1550.9498,687.6134 1545.1417,693.8589 1553.6799,700.69696 1562.6714,707.22253 1571.8793,713.73737 1581.4338,719.9946 1587.7504,713.6467 1594.0605,707.2556 1600.0267,700.62244 1605.8839,693.91174 1596.0194,687.58325 1586.0901,681.3168 1576.555,674.79175" fill="#79D3D3" stroke="none" fill-opacity="0.572221041" />
				<polygon points="1565.252,777.3043 1573.9812,762.76807 1583.0615,748.43274 1592.3512,734.059 1602.2625,720.0735 1583.5449,708.6772 1564.158,697.9844 1544.3243,687.37085 1524.0594,677.3162 1513.5474,691.54315 1503.0135,705.85986 1493.324,720.5479 1483.9601,735.33105 1504.5983,745.50995 1525.5771,755.4795 1545.797,766.0896" fill="#79D3D3" stroke="none" fill-opacity="0.572221041" />
				<polygon points="1646.878,675.31836 1639.0712,667.4797 1631.346,659.5599 1623.6381,651.45917 1616.2605,643.1266 1606.8373,651.83075 1597.8578,661.08923 1588.828,670.6054 1580.1838,680.54333 1587.6749,689.42065 1595.1244,698.3005 1602.9259,706.81775 1610.8365,715.1621 1619.6854,704.89526 1628.4543,694.4403 1637.5531,684.5613" fill="#79D3D3" stroke="none" fill-opacity="0.572221041" />
				<polyline points="316.67612,818.47485 269.11124,681.63763 1136.0753,635.95703 1455.0186,786.09924 1324.3362,807.7976" fill="#00DEDC" stroke="none" fill-opacity="0.5611099" />
				<polygon points="1750.8557,691.5044 1726.7301,664.99225 1743.5773,643.00867" fill="#EEF4D9" stroke="none" fill-opacity="1" />
				<path d="M1740.1671,701.23065L1742.2699,703.1289L1744.7029,704.58057L1747.3722,705.52966L1750.1752,705.9398L1753.0044,705.79517L1755.7512,705.1013L1758.3097,703.885L1760.5818,702.1929L1762.4801,700.08997L1763.9316,697.65717L1764.8809,694.9879L1765.2911,692.18475L1765.1464,689.3555L1764.4524,686.6088L1763.2361,684.0503L1761.544,681.77814L1740.6459,664.40454L1737.9152,664.9581L1736.5643,693.64923L1737.2574,696.3961L1738.473,698.95496L1740.1643,701.22766L1742.2667,703.1265L1744.6992,704.57886L1747.3682,705.5287L1750.1711,705.9396L1753.0006,705.7957L1755.7474,705.10266L1758.3063,703.8871L1760.5789,702.1956L1762.4777,700.09326L1763.9299,697.6609L1764.8798,694.9919L1765.2908,692.18884L1765.1469,689.35956L1752.3363,641.6941L1751.8619,639.8755L1751.014,638.1979L1749.8315,636.73694L1748.3673,635.5584L1746.6873,634.71545L1744.8672,634.246L1742.9893,634.1711L1741.1377,634.4942L1739.3959,635.2008L1737.8424,636.2589L1736.5472,637.6211L1718.247,658.4911L1716.9791,660.6161L1716.2341,662.9756L1716.0516,665.44324L1716.4418,667.8867L1717.3829,670.17505L1718.8253,672.18555z" fill="#C0FEF2" stroke="none" fill-opacity="0.261109591" />
				<polygon points="248.00473,719.1206 208.81126,662.7805 451.3192,665.2301" fill="#EEF4D9" stroke="none" fill-opacity="1" />
				<path d="M234.77939,728.32104L236.8284,730.72437L239.30696,732.6818L242.11967,734.1181L245.15858,734.978L248.30698,735.22864L251.44365,734.8601L254.44817,733.88684L257.2051,732.34607L259.6085,730.297L261.5659,727.8185L263.00217,725.00574L263.86215,721.96674L264.1127,718.8185L263.7442,715.68176L262.77094,712.67725L261.23016,709.9203L233.42577,675.80054L376.30887,674.61743L243.87697,703.5476L240.91812,704.65216L238.23166,706.3127L235.9207,708.46545L234.07419,711.02765L232.763,713.9009L232.03748,716.9747L231.92569,720.131L232.43173,723.2484L233.53621,726.2073L235.19676,728.8937L237.3495,731.20465L239.91173,733.0512L242.785,734.3624L245.85875,735.0878L249.01503,735.1997L252.13252,734.6936L453.9184,675.036L455.86166,674.3008L457.6144,673.18506L459.10312,671.7357L460.26526,670.0134L461.05215,668.09045L461.4308,666.04755L461.38525,663.97034L460.91745,661.9459L460.0471,660.0593L458.81055,658.38965L457.2598,657.00684L455.4598,655.969L453.4862,655.3197L451.4217,655.08606L208.94029,650.0104L206.16447,650.28705L203.51492,651.1598L201.1182,652.587L199.08836,654.5006L197.5225,656.8092L196.49529,659.4028L196.05579,662.1575L196.22475,664.9419L196.99431,667.6232L198.32771,670.0735z" fill="#C0FEF2" stroke="none" fill-opacity="0.261109591" />
			</g>
		</g>
	</g>
</svg>
