<?xml version="1.0" encoding="UTF-8"?>
<!-- Generator: Blender, SVG Export for Grease Pencil - v2.0 -->
<!DOCTYPE svg PUBLIC "-//W3C//DTD SVG 1.1//EN" "http://www.w3.org/Graphics/SVG/1.1/DTD/svg11.dtd">
<svg version="1.1" x="0px" y="0px" xmlns="http://www.w3.org/2000/svg" width="1920.000000px" height="920.000000px" viewBox="0 0 1920.000000 920.000000">
	<g id="blender_frame.23">
		<g id="blender_object.GPencil.23.uuid_0x0">
			<g id="layer.Layer.uuid_0x1">
				<polyline points="248.61287,684.6662 44.020844,320.95038 335.15277,136.34003 1529.1978,32.5188 1840.2186,183.48553 1645.2036,642.4381" fill="#57BE6B" stroke="none" fill-opacity="1" />
				<path d="M239.9995,689.5113L241.11024,691.0985L242.5093,692.43866L244.14293,693.4801L245.94826,694.18274L247.85608,694.5198L249.79294,694.478L251.68443,694.0593L253.45786,693.27954L255.04526,692.1688L256.38538,690.7698L257.4268,689.1362L258.12946,687.3308L258.4664,685.42303L258.4247,683.4862L258.00598,681.5946L257.2263,679.82117L71.78759,327.94104L339.13626,148.12622L1525.4435,52.852173L1823.7661,189.65118L1638.851,639.73883L1638.4465,641.03L1638.3016,642.3753L1638.4221,643.723L1638.8031,645.02136L1639.43,646.2204L1640.2787,647.2741L1641.3169,648.14197L1642.5044,648.79065L1643.7955,649.1952L1645.1409,649.3401L1646.4885,649.21967L1647.7867,648.8387L1648.9858,648.2118L1650.0397,647.3629L1650.9076,646.3248L1651.5563,645.1373L1851.9359,188.46423L1852.7336,185.82178L1852.9429,183.0694L1852.5542,180.33661L1851.5857,177.75183L1850.0826,175.43652L1848.1158,173.49976L1845.778,172.03229L1537.9015,14.587891L1527.4713,12.661987L334.1058,124.29852L328.67993,126.13226L32.89627,303.40674L29.381962,306.21136L26.553497,309.70648L24.543228,313.7284L23.44557,318.08856L23.311617,322.5827L24.14795,327.00055L25.915203,331.1349z" fill="#1C4D05" stroke="none" fill-opacity="1" />
				<polyline points="1571.2997,648.14514 1642.8003,256.75464 576.82605,201.46185 174.10452,364.1501 286.1199,660.1895" fill="#41923D" stroke="none" fill-opacity="0.5611099" />
				<polygon points="1568.7522,418.00494 1548.933,426.5346 1531.0873,436.9781 1514.3478,447.487 1499.5361,459.88367 1511.1102,477.54327 1524.1271,496.82202 1538.2721,516.95795 1553.5259,538.2525 1569.5217,526.5112 1586.9683,515.94415 1606.0607,506.3593 1625.6388,497.33667 1610.2449,476.20752 1594.9487,455.84747 1581.4847,436.34552" fill="#3D7921" stroke="none" fill-opacity="0.572221041" />
				<polygon points="1443.9095,435.2303 1425.468,433.28516 1407.5089,432.56555 1388.9147,432.5526 1369.3561,432.64594 1367.1195,453.50916 1365.4807,474.82227 1363.6268,497.11243 1362.2491,519.5437 1380.5323,520.4132 1398.4586,521.9258 1416.5979,524.1778 1434.3702,527.501 1435.7126,503.29596 1437.8585,479.30853 1440.7883,457.01447" fill="#3D7921" stroke="none" fill-opacity="0.572221041" />
				<polygon points="1592.3967,323.0296 1568.9302,340.14935 1546.2297,358.85333 1525.7694,378.63965 1506.9954,400.40216 1528.3041,417.208 1552.6224,436.92963 1579.0519,458.89532 1608.0066,483.4875 1629.5721,462.09802 1652.9784,442.48895 1677.9838,423.96442 1704.5171,407.61877 1674.4526,384.3744 1645.4993,362.36737 1618.0413,341.91882" fill="#3D7921" stroke="none" fill-opacity="0.572221041" />
				<polygon points="1228.399,618.0411 1208.4264,585.63965 1185.4375,553.8509 1160.4048,522.7215 1132.2297,493.34918 1099.6317,510.9375 1066.2574,528.09717 1031.9207,544.9107 996.10144,560.98114 1019.5074,589.619 1040.873,617.3397 1060.2507,645.45776 1077.8315,673.97455 1117.6492,659.9245 1155.7227,646.0098 1192.4547,631.9794" fill="#3D7921" stroke="none" fill-opacity="0.572221041" />
				<polygon points="1372.8245,301.8048 1288.3507,310.46808 1205.4891,326.70258 1126.229,346.32324 1050.2672,365.0204 1074.4589,425.97015 1099.6042,484.18292 1121.2988,540.98395 1136.9078,596.9502 1216.7821,587.7193 1291.288,581.56934 1352.5468,569.2721 1406.0924,554.13904 1396.8121,485.18933 1389.7542,424.24988 1382.4343,364.9096" fill="#3D7921" stroke="none" fill-opacity="0.572221041" />
				<polygon points="1268.2568,358.58362 1234.8853,373.97437 1202.0664,390.00317 1169.9795,406.63995 1138.6414,422.50232 1159.3351,447.68762 1179.8027,472.79523 1199.1344,498.15265 1217.3506,524.40564 1249.1268,511.86597 1280.914,499.6377 1310.129,485.88098 1337.1427,470.04102 1323.6652,443.7945 1307.3146,416.47528 1288.3335,387.37543" fill="#3D7921" stroke="none" fill-opacity="0.572221041" />
				<polygon points="1455.944,459.3122 1452.8906,435.43408 1451.1294,412.8423 1448.822,390.9803 1447.3112,370.26416 1429.051,376.5155 1410.581,382.73505 1392.2202,389.82727 1373.2587,396.76514 1378.4146,418.24628 1382.8824,440.0567 1387.094,461.65558 1391.7087,484.70526 1407.006,477.20135 1423.3386,470.6634 1439.5806,464.36346" fill="#3D7921" stroke="none" fill-opacity="0.572221041" />
				<polygon points="1577.3024,346.674 1556.8226,288.9306 1540.2773,231.63489 1516.478,163.14838 1492.3071,89.433716 1413.2283,106.321594 1330.5088,135.83221 1252.9236,171.59662 1182.0574,212.59332 1226.2296,276.3181 1276.3507,338.92297 1327.1626,403.3647 1363.3711,460.7619 1408.6641,423.02173 1456.2916,389.2677 1511.0854,363.31378" fill="#3D7921" stroke="none" fill-opacity="0.572221041" />
				<polygon points="1508.7056,277.3932 1491.9127,254.00293 1472.0941,227.33167 1447.6749,197.61664 1421.9761,166.8675 1390.9382,186.71613 1360.4203,207.62878 1331.8423,229.75543 1304.6044,251.98608 1334.1012,278.3416 1363.91,305.20056 1389.8202,330.16455 1410.6943,351.2718 1432.7504,330.76837 1456.6088,311.64038 1481.962,293.63898" fill="#3D7921" stroke="none" fill-opacity="0.572221041" />
				<polygon points="1528.3436,652.0429 1532.7673,616.4186 1536.7113,581.0978 1541.591,546.7228 1547.4727,513.7985 1519.411,498.3377 1493.9607,485.29626 1471.6643,474.57172 1450.351,466.01544 1444.5596,497.55933 1439.605,530.0976 1435.8464,564.3442 1432.0033,599.2906 1454.2319,610.43787 1477.5055,622.9613 1502.5342,636.8857" fill="#3D7921" stroke="none" fill-opacity="0.572221041" />
				<polygon points="1692.7418,454.6327 1685.4583,411.13147 1679.7175,371.2287 1672.26,333.12805 1664.3752,297.27533 1619.9941,292.19427 1577.2911,290.27435 1536.5037,292.01434 1498.5516,296.6684 1499.5139,331.02258 1501.2777,366.19037 1504.5493,403.15143 1510.9879,444.6073 1549.545,442.00592 1593.5446,443.65082 1641.5096,448.15137" fill="#3D7921" stroke="none" fill-opacity="0.572221041" />
				<polygon points="1349.881,97.15289 1291.2992,192.16394 1252.816,287.59045 1229.505,380.1117 1213.497,467.9937 1304.4711,495.50195 1372.0028,517.0051 1432.3702,544.6971 1501.2122,589.6069 1524.4896,490.45526 1566.3772,408.61035 1626.3506,343.7837 1681.0533,288.5984 1601.6823,239.5965 1530.256,192.72412 1444.2083,139.55023" fill="#3D7921" stroke="none" fill-opacity="0.572221041" />
				<polygon points="962.8019,378.8376 946.48346,393.2981 930.03613,406.99066 913.17755,421.0069 896.0318,433.844 909.95056,450.74817 925.0209,466.7188 940.6591,482.3496 957.2095,497.32178 975.37524,483.8697 993.4152,470.4464 1010.72156,455.97302 1027.6864,441.64026 1010.91205,426.4585 993.73395,411.6632 977.65393,395.75635" fill="#3D7921" stroke="none" fill-opacity="0.572221041" />
				<polygon points="970.2423,577.96216 950.39514,576.5432 931.3129,575.2363 911.46844,573.17175 891.88776,571.2112 889.33655,583.71265 886.33923,595.35974 882.74316,607.0953 879.18585,619.0812 899.00525,621.20374 919.013,623.3041 939.15894,625.04364 959.5616,626.3468 962.8242,614.65265 965.6354,602.3478 967.9237,590.05237" fill="#3D7921" stroke="none" fill-opacity="0.572221041" />
				<polygon points="1126.3053,349.7879 1102.9805,337.9839 1080.4521,325.3866 1058.7561,313.47968 1038.0624,300.1764 1026.2529,319.11182 1014.8105,337.29938 1004.4348,355.66052 994.36273,373.21216 1016.1925,386.3902 1037.5718,398.9804 1061.5275,410.58154 1085.0454,421.88892 1095.4287,404.18854 1104.8794,386.57184 1115.3696,368.12653" fill="#3D7921" stroke="none" fill-opacity="0.572221041" />
				<polygon points="478.2081,387.22784 498.58942,429.16626 522.2692,470.89124 548.3296,511.45728 577.6522,550.9131 609.60333,541.5066 642.1066,531.3108 675.2592,521.702 709.7058,511.12714 685.3159,476.11133 663.2863,440.07922 643.2824,403.56934 625.11786,366.23914 586.7366,371.8957 549.65576,377.2163 513.69165,382.01068" fill="#3D7921" stroke="none" fill-opacity="0.572221041" />
				<polygon points="343.25497,684.2449 428.5532,694.9359 512.06415,699.60876 591.68463,700.09045 667.35754,698.4929 639.05927,634.5857 610.80896,569.49243 586.8445,503.67737 569.5523,437.4251 490.26813,424.20258 415.77444,409.19678 354.3801,407.0797 300.594,412.3175 310.74698,487.86084 319.63852,553.54254 329.63144,617.09155" fill="#3D7921" stroke="none" fill-opacity="0.572221041" />
				<polygon points="754.304,696.6954 769.55255,684.64087 784.9842,672.2916 800.6589,660.4916 816.8507,648.4308 801.68036,632.3021 785.4888,616.3831 769.01746,599.63 751.69476,583.1362 734.6226,594.44507 717.52277,605.7395 701.18335,617.0373 685.10345,628.8684 702.836,646.23816 721.0625,663.16223 738.2415,679.85815" fill="#3D7921" stroke="none" fill-opacity="0.572221041" />
				<polygon points="733.98505,497.41333 753.4832,501.13782 772.1407,505.01868 791.839,508.13812 811.2618,511.6173 812.87665,499.01215 815.0892,486.37006 817.8956,473.748 820.6854,460.422 801.0735,457.0573 781.3951,453.472 761.5813,449.38367 741.70703,445.53052 739.1445,458.51978 737.0745,471.3817 735.67737,484.04456" fill="#3D7921" stroke="none" fill-opacity="0.572221041" />
				<polygon points="591.2763,696.83936 615.8732,713.03705 639.5556,729.5435 662.48535,744.7921 684.4531,759.9818 695.0111,744.1206 705.1763,729.2855 714.33203,713.68604 723.14825,698.84607 700.26605,683.44714 677.84424,668.2849 653.0651,652.4361 628.704,635.80194 619.2516,650.8508 610.69385,666.20593 601.2897,681.3972" fill="#3D7921" stroke="none" fill-opacity="0.572221041" />
				<polygon points="531.2758,174.83557 437.92987,230.84296 267.2397,257.51318 368.5868,190.83759 449.93134,182.83667" fill="#EEF4D9" stroke="none" fill-opacity="1" />
				<path d="M546.24194,199.77911L550.8206,196.38013L554.6482,192.15314L557.57764,187.26068L559.4963,181.89069L560.33044,176.24963L560.048,170.55414L558.6598,165.02332L556.21936,159.86938L552.8204,155.29077L548.5934,151.4632L543.7009,148.53381L538.331,146.61511L532.6899,145.78094L526.9944,146.06348L521.46356,147.45142L516.3097,149.8919L427.60684,202.36041L351.12296,225.12738L378.93246,220.0871L452.83044,212.31097L534.1233,203.78479L539.7163,202.67303L544.985,200.49152L549.7268,197.32404L553.7595,193.29236L556.9282,188.55133L559.11115,183.28333L560.22437,177.69055L560.22516,171.9881L559.11334,166.39508L556.9318,161.12653L553.7643,156.38464L549.7326,152.35193L544.9916,149.18323L539.7235,147.00012L534.1308,145.88708L528.4283,145.88623L447.0322,153.36218L365.6382,160.8606L352.0315,165.67346L256.7707,241.60022L253.69928,244.11621L251.21613,247.2143L249.42926,250.75983L248.41605,254.59875L248.22081,258.5644L248.852,262.48438L250.282,266.18823L252.4487,269.51532L255.25826,272.3208L258.58826,274.4829L262.2942,275.90778L266.21494,276.5334L270.1803,276.3327L442.52014,260.22113L453.22815,256.34015z" fill="#FAFE70" stroke="none" fill-opacity="0.261109591" />
				<polyline points="245.74385,645.7505 72.38692,485.72925 195.0701,328.37494 459.1062,368.3803 464.4402,491.06335 443.10416,525.73456 469.7743,560.4058 496.4447,544.40375 493.77768,515.06647 488.4437,325.708 176.40102,277.70154 13.71214,491.06335 141.72958,645.7507" fill="#2FA439" stroke="none" fill-opacity="1" />
				<path d="M242.31308,649.4673L243.10411,650.0652L243.99657,650.4972L244.95622,650.7469L245.94606,650.80457L246.92819,650.668L247.86478,650.3425L248.7199,649.84045L249.4606,649.1813L250.0585,648.39026L250.49059,647.49786L250.7403,646.53827L250.79796,645.54834L250.66138,644.5663L250.33586,643.62964L249.83386,642.77454L249.17467,642.0338L73.04758,485.67523L195.27924,328.90002L458.63626,368.8025L459.63303,489.81482L439.0555,523.24316L438.5772,524.2836L438.3616,525.4082L438.42114,526.5518L438.75235,527.6478L439.33618,528.63306L468.7095,561.2249L468.9374,561.4567L469.21436,561.62695L469.52417,561.7257L469.84845,561.74713L470.16846,561.69006L470.46542,561.5578L496.91406,545.1861L497.0762,545.0621L497.2069,544.9052L497.29926,544.7232L497.3489,544.52527L497.35324,544.32117L494.92264,514.99835L493.37378,325.5691L493.21014,324.44086L492.792,323.3803L492.1414,322.4442L491.29324,321.68243L490.29285,321.13568L489.19376,320.83325L177.87454,268.1234L175.28555,268.07507L172.77632,268.7141L170.5259,269.99475L168.69484,271.8255L10.463104,488.58588L9.994297,489.36877L9.710941,490.23615L9.627171,491.14478L9.747105,492.04938L10.064793,492.90472L10.564327,493.66833L139.96748,647.209L140.28586,647.52466L140.65973,647.7723L141.0747,647.94214L141.51472,648.02783L141.9631,648.026L142.40256,647.9367L142.81609,647.7634L143.18796,647.51276L143.50365,647.1944L143.75125,646.82056L143.92113,646.4056L144.00679,645.96545L144.00496,645.5171L143.9157,645.07764L143.74237,644.6641L143.49174,644.2923L18.929615,490.9593L180.61684,288.15503L483.6294,329.9574L492.63168,515.09875L495.48434,543.9161L470.10944,558.63824L448.8707,525.4343L468.4842,493.55194L469.03607,492.2569L469.18408,490.85706L459.59354,368.35907L459.57596,368.24884L459.53372,368.1454L459.46902,368.05426L459.38538,367.98022L459.28708,367.92725L459.1793,367.89795L195.14311,327.89258L195.01442,327.89026L194.88951,327.92175L194.77731,327.9848L194.68535,328.07495L72.00217,485.42926L71.94757,485.51715L71.91278,485.61462L71.899284,485.71722L71.90764,485.8203L71.93762,485.91943L71.987915,486.0099L72.05607,486.08777z" fill="#ECF2C0" stroke="none" fill-opacity="1" />
				<polyline points="1718.9413,643.0191 1820.1545,442.85638 1745.0938,246.67572 1584.7098,298.1532 1581.7906,451.66882 1595.3523,494.79944 1580.846,537.8994 1552.8079,519.3641 1551.4182,490.90228 1554.3186,253.92908 1758.037,182.72742 1856.6968,448.98743 1782.2811,642.4264" fill="#2FA439" stroke="none" fill-opacity="1" />
				<path d="M1714.2769,640.66064L1713.9066,641.61584L1713.7294,642.62506L1713.7528,643.6494L1713.9755,644.64954L1714.3889,645.587L1714.9773,646.4258L1715.7181,647.1336L1716.5829,647.68335L1717.538,648.05383L1718.5472,648.23083L1719.5717,648.20764L1720.5717,647.9849L1721.5092,647.5715L1722.348,646.98303L1723.0559,646.24225L1723.6055,645.37756L1823.0483,444.3194L1823.3384,443.4696L1823.3846,442.5728L1823.1831,441.6977L1745.5493,246.5014L1745.5012,246.4076L1745.4341,246.3263L1745.3511,246.26135L1745.2561,246.21576L1745.1533,246.19153L1745.048,246.19006L1744.9446,246.21118L1584.4948,297.4828L1584.3365,297.55615L1584.2014,297.6662L1584.0974,297.8061L1584.0309,297.9673L1584.0061,298.13977L1580.5101,451.64447L1592.4174,494.77002L1580.4255,536.676L1554.6119,518.3367L1554.9589,490.8376L1559.5155,257.66595L1754.6423,189.94086L1855.66,448.98096L1781.6615,642.188L1781.6268,642.3135L1781.6174,642.44324L1781.6334,642.5725L1781.6743,642.69604L1781.7388,642.8092L1781.8239,642.9077L1781.9264,642.9878L1782.0428,643.04614L1782.1683,643.0808L1782.2981,643.0902L1782.4275,643.0742L1782.5508,643.0332L1782.6641,642.969L1782.7626,642.88385L1782.8427,642.7811L1782.9009,642.6648L1857.6019,449.33563L1857.6666,448.99347L1857.6062,448.65045L1763.3721,180.75061L1762.8068,179.62567L1762.0077,178.65259L1761.0144,177.87909L1759.8752,177.34308L1758.6461,177.07056L1757.3871,177.07513L1756.1598,177.3565L1552.5889,248.98041L1551.4425,249.54614L1550.4672,250.37256L1549.721,251.41046L1549.2479,252.59802L1549.0767,253.86493L1547.8789,490.8589L1550.9584,519.4544L1551.0299,519.88165L1551.1987,520.2806L1551.4557,520.6294L1551.7866,520.90894L1580.411,538.5574L1580.5715,538.63885L1580.7463,538.68176L1580.9264,538.68396L1581.1022,538.6453L1581.2648,538.56775L1581.4055,538.4553L1581.517,538.31396L1581.5934,538.151L1597.9973,495.68976L1598.1432,494.8274L1598.0148,493.96228L1583.0752,451.48407L1585.4043,298.66974L1744.8031,247.28137L1816.6135,442.67432z" fill="#ECF2C0" stroke="none" fill-opacity="1" />
				<polyline points="1788.0552,898.89417 1822.4049,761.8091 1850.1963,793.35767 1888.5824,764.5577 1850.0171,637.907 112.90209,653.0587 208.40544,907.1188" fill="#57BE6B" stroke="none" fill-opacity="1" />
				<path d="M1787.2683,898.69696L1787.2449,898.85425L1787.2527,899.01306L1787.2914,899.16736L1787.3594,899.3111L1787.4541,899.43884L1787.572,899.54553L1787.7081,899.6273L1787.858,899.6809L1788.0154,899.7042L1788.1742,899.6965L1788.3281,899.65784L1788.4719,899.58984L1788.6,899.4952L1788.7065,899.3774L1788.7883,899.24097L1788.8418,899.09125L1827.2249,781.6487L1840.643,801.77313L1842.6398,803.6039L1844.9789,804.9707L1847.554,805.81165L1850.2488,806.08875L1852.9412,805.7895L1855.5092,804.92725L1857.8368,803.5413L1897.9714,777.072L1900.7222,774.42645L1902.7501,771.1937L1903.9353,767.5661L1904.2069,763.7595L1903.5488,760.00037L1858.1779,635.422L1857.2794,633.4308L1855.9045,631.73315L1854.1436,630.4404L1852.1117,629.6372L1849.9427,629.37634L112.757095,636.4474L109.24055,636.85535L105.8903,637.99915L102.85835,639.82684L100.28269,642.2555L98.28008,645.17487L96.94159,648.4523L96.32796,651.93884L96.467,655.4763L97.352425,658.90393L205.00603,908.3966L205.3207,909.0352L205.75385,909.6002L206.28891,910.0698L206.90529,910.426L207.57935,910.65515L208.28516,910.7484L208.9955,910.7021L209.68324,910.5181L210.32187,910.2035L210.88692,909.7704L211.35654,909.2353L211.71272,908.6189L211.94183,907.9448L212.03505,907.2391L211.98875,906.5286L211.8048,905.8409L136.81532,669.46265L1843.714,646.4931L1870.4216,758.6245L1851.9698,776.111L1829.5315,755.5311L1828.0098,754.14185L1826.2241,753.1134L1824.2588,752.49426L1822.2063,752.31366L1820.1627,752.5801L1818.2249,753.2809L1816.4841,754.38306L1815.0217,755.83496L1813.907,757.568L1813.1921,759.5006z" fill="#1C4D05" stroke="none" fill-opacity="1" />
				<polygon points="1751.4315,756.8635 1736.6449,750.2202 1722.087,743.34106 1707.4203,736.2191 1693.1207,728.60254 1685.6378,745.3803 1679.0486,762.7403 1672.4724,780.4691 1666.6205,798.6328 1681.2731,806.9802 1695.9155,815.2916 1710.9117,822.9135 1725.889,830.2609 1731.8235,811.58606 1737.6521,792.67615 1744.1554,774.4188" fill="#3D7921" stroke="none" fill-opacity="0.572221041" />
				<polygon points="1645.5033,693.3571 1639.6284,700.55865 1633.6818,707.61383 1627.459,714.70215 1621.1353,721.50195 1630.4315,728.94714 1640.2211,736.052 1650.2466,743.14526 1660.649,749.95795 1667.5262,743.0465 1674.3967,736.0881 1680.8927,728.86597 1687.2698,721.5596 1676.5295,714.6693 1665.7186,707.84656 1655.337,700.7423" fill="#3D7921" stroke="none" fill-opacity="0.572221041" />
				<polygon points="1643.0308,812.3551 1652.5349,796.52844 1662.4213,780.92065 1672.5355,765.2709 1683.3265,750.04376 1662.9474,737.63574 1641.8395,725.9937 1620.2454,714.43805 1598.1815,703.49084 1586.7362,718.9807 1575.2671,734.56836 1564.7178,750.5603 1554.5223,766.65576 1576.9927,777.7384 1599.8339,788.5929 1621.8488,800.1448" fill="#3D7921" stroke="none" fill-opacity="0.572221041" />
				<polygon points="1731.9032,701.3157 1723.4028,692.781 1714.992,684.1582 1706.5997,675.3385 1698.5674,666.2661 1688.3077,675.743 1678.531,685.8234 1668.6996,696.1843 1659.288,707.0045 1667.444,716.6698 1675.5552,726.3379 1684.049,735.6112 1692.6617,744.6964 1702.2964,733.5182 1711.8438,722.13513 1721.7501,711.379" fill="#3D7921" stroke="none" fill-opacity="0.572221041" />
				<polyline points="283.61612,857.1805 231.82886,708.1959 1175.7551,658.4602 1523.0118,821.9308 1380.7285,845.5554" fill="#41923D" stroke="none" fill-opacity="0.5611099" />
				<polygon points="1845.1108,718.9386 1818.8435,690.0729 1837.1865,666.1377" fill="#EEF4D9" stroke="none" fill-opacity="1" />
				<path d="M1833.4736,729.5283L1835.9297,731.7164L1838.7867,733.34607L1841.9205,734.346L1845.1937,734.6726L1848.463,734.3115L1851.5862,733.2786L1854.426,731.619L1856.8589,729.40515L1858.7783,726.7339L1860.1003,723.7219L1860.7672,720.50085L1860.7501,717.21155L1860.0492,713.9978L1858.6956,710.9999L1856.748,708.3489L1833.9949,689.433L1831.0215,690.03564L1829.5508,721.2738L1830.3054,724.2645L1831.6287,727.05066L1833.4706,729.5249L1835.7593,731.5924L1838.4078,733.17365L1841.3137,734.20776L1844.3655,734.6552L1847.446,734.49854L1850.437,733.744L1853.2229,732.4205L1855.6971,730.57886L1857.7646,728.28986L1859.3458,725.64154L1860.38,722.7356L1860.8275,719.6838L1860.6709,716.6033L1846.723,664.70654L1846.2062,662.7263L1845.2834,660.8999L1843.9956,659.30927L1842.4016,658.0261L1840.5723,657.1084L1838.591,656.59717L1836.546,656.5156L1834.53,656.86743L1832.6337,657.6367L1830.9423,658.7888L1829.5322,660.2719L1809.6074,682.9945L1808.2272,685.3082L1807.416,687.8772L1807.2172,690.56384L1807.6417,693.22424L1808.6666,695.71576L1810.2369,697.9048z" fill="#FAFE70" stroke="none" fill-opacity="0.261109591" />
				<polygon points="208.84868,749.00635 166.176,687.6648 430.21185,690.33185" fill="#EEF4D9" stroke="none" fill-opacity="1" />
				<path d="M194.44925,759.02344L196.68016,761.64014L199.3787,763.77136L202.4412,765.3351L205.74991,766.2714L209.17769,766.54425L212.59283,766.14307L215.86401,765.0834L218.86575,763.40576L221.4825,761.1748L223.61368,758.4763L225.17744,755.4138L226.11374,752.1051L226.38658,748.6773L225.98534,745.2622L224.92569,741.99097L223.24814,738.98926L192.97554,701.8407L348.5425,700.5526L204.35446,732.05084L201.13295,733.2534L198.20802,735.0614L195.69191,737.40515L193.68147,740.1949L192.25389,743.3231L191.46407,746.6698L191.34224,750.1063L191.89322,753.5005L193.09576,756.722L194.9037,759.647L197.24756,762.1631L200.03725,764.1736L203.16554,765.6012L206.51213,766.391L209.94868,766.5127L213.34288,765.96185L433.04175,701.0083L435.15753,700.20776L437.06583,698.99304L438.68665,697.41504L439.95206,695.5398L440.80875,693.44617L441.221,691.2219L441.17148,688.96027L440.66217,686.7562L439.7145,684.70215L438.36816,682.88416L436.6798,681.37866L434.7201,680.24866L432.57123,679.5417L430.32346,679.2873L166.31647,673.76105L163.2942,674.06226L160.4095,675.0125L157.79984,676.5664L155.58998,678.64984L153.8851,681.16345L152.76672,683.9872L152.28813,686.98645L152.47215,690.01807L153.31003,692.93744L154.76183,695.60516z" fill="#FAFE70" stroke="none" fill-opacity="0.261109591" />
			</g>
			<g id="layer.Layer.001.uuid_0x2" />
		</g>
	</g>
</svg>
