<?xml version="1.0" encoding="UTF-8"?>
<!-- Generator: Blender, SVG Export for Grease Pencil - v2.0 -->
<!DOCTYPE svg PUBLIC "-//W3C//DTD SVG 1.1//EN" "http://www.w3.org/Graphics/SVG/1.1/DTD/svg11.dtd">
<svg version="1.1" x="0px" y="0px" xmlns="http://www.w3.org/2000/svg" width="1080.000000px" height="1080.000000px" viewBox="0 0 1080.000000 1080.000000">
	<g id="blender_frame.23">
		<g id="blender_object.GPencil.001.23.uuid_0x0">
			<g id="layer.blue.uuid_0x1">
				<polyline points="-22.63836,1107.0197 -11.10054,-10.330566 1181.602,-7.576172 1176.5979,1110.1719" fill="#2E3A99" stroke="none" fill-opacity="1" />
				<polyline points="95.247856,990.7769 142.14255,134.78192 978.2892,99.29773 949.46173,961.9822" fill="#2467AF" stroke="none" fill-opacity="1" />
				<polyline points="779.0526,386.35315 820.7953,406.92914 885.01624,386.29388 948.2936,444.6869 889.1856,420.83527 837.86096,455.9605 775.49133,419.71143 731.7345,444.65515" fill="#2E3A99" stroke="none" fill-opacity="1" />
				<polyline points="272.97104,829.5181 326.90814,847.97217 423.24673,822.0724 489.6009,880.0542 419.10913,857.93097 334.22253,898.5432 255.38422,865.17175 178.8917,895.7361" fill="#2E3A99" stroke="none" fill-opacity="1" />
				<polyline points="583.6734,272.49396 548.1116,296.98682 470.52203,261.997 364.6915,296.3551 297.49603,283.18494 228.94757,336.16833 300.15402,301.95642 357.13525,342.56647 464.44385,306.8235 543.46594,334.75293 579.0278,306.7611 616.206,336.50238" fill="#2E3A99" stroke="none" fill-opacity="1" />
			</g>
		</g>
	</g>
</svg>
