<?xml version="1.0" encoding="UTF-8"?>
<!-- Generator: Blender, SVG Export for Grease Pencil - v2.0 -->
<!DOCTYPE svg PUBLIC "-//W3C//DTD SVG 1.1//EN" "http://www.w3.org/Graphics/SVG/1.1/DTD/svg11.dtd">
<svg version="1.1" x="0px" y="0px" xmlns="http://www.w3.org/2000/svg" width="1080.000000px" height="1080.000000px" viewBox="0 0 1080.000000 1080.000000">
	<g id="blender_frame.23">
		<g id="blender_object.GPencil.001.23.uuid_0x0">
			<g id="layer.blue.uuid_0x1">
				<polyline points="-22.63836,1107.0197 -11.10054,-10.330566 1181.602,-7.576172 1176.5979,1110.1719" fill="#2E3A99" stroke="none" fill-opacity="1" />
				<polyline points="114.59318,990.7769 165.34721,134.78192 1070.3073,99.29761 1039.1073,961.9822" fill="#2467AF" stroke="none" fill-opacity="1" />
				<polyline points="854.6738,386.35315 899.85175,406.92914 969.35803,386.29388 1037.8431,444.6869 973.8706,420.83527 918.322,455.9605 850.8194,419.71143 803.4614,444.65515" fill="#2E3A99" stroke="none" fill-opacity="1" />
				<polyline points="306.94266,829.5181 365.31863,847.97217 469.58572,822.0724 541.40063,880.0542 465.10754,857.93097 373.23505,898.5432 287.9084,865.17175 205.1207,895.7361" fill="#2E3A99" stroke="none" fill-opacity="1" />
				<polyline points="643.21515,272.49396 604.7266,296.98682 520.7517,261.997 406.21152,296.3551 333.48593,283.18494 259.2961,336.16833 336.36273,301.95642 398.03345,342.56647 514.1733,306.8235 599.6988,334.75293 638.1872,306.7611 678.42523,336.50238" fill="#2E3A99" stroke="none" fill-opacity="1" />
			</g>
			<g id="layer.green.uuid_0x2">
				<polyline points="-22.63836,1107.0197 -11.10054,-10.330566 1181.602,-7.576172 1176.5979,1110.1719" fill="#58D164" stroke="none" fill-opacity="1" />
				<polyline points="869.2541,110.73645 910.22845,198.67188 973.2675,110.483154 1035.3802,360.03723 971.2874,241.82495 929.1319,334.17957 872.4209,255.94464 822.80676,359.90137" fill="#32672C" stroke="none" fill-opacity="1" />
				<polyline points="243.47447,385.83783 260.26422,603.76636 323.30322,515.57764 385.41602,765.1318 321.32315,646.91943 279.16763,739.2742 222.4566,661.0392 172.84245,764.99585 160.75012,695.4648 97.26522,777.08826 151.68085,589.6565 187.95795,650.11835" fill="#32672C" stroke="none" fill-opacity="1" />
				<polyline points="753.5945,724.4243 724.8113,812.35986 680.5284,724.1711 615.66,901.171 675.5485,843.42053 711.5323,911.5905 753.4935,860.56335 796.84033,919.1737" fill="#32672C" stroke="none" fill-opacity="1" />
			</g>
		</g>
	</g>
</svg>
