<?xml version="1.0" encoding="UTF-8"?>
<!-- Generator: Blender, SVG Export for Grease Pencil - v2.0 -->
<!DOCTYPE svg PUBLIC "-//W3C//DTD SVG 1.1//EN" "http://www.w3.org/Graphics/SVG/1.1/DTD/svg11.dtd">
<svg version="1.1" x="0px" y="0px" xmlns="http://www.w3.org/2000/svg" width="1080.000000px" height="1080.000000px" viewBox="0 0 1080.000000 1080.000000">
	<g id="blender_frame.23">
		<g id="blender_object.GPencil.001.23.uuid_0x0">
			<g id="layer.blue.uuid_0x1">
				<polyline points="-22.63836,1107.0197 -11.100541,-10.330566 1181.6022,-7.576172 1176.598,1110.1719" fill="#2E3A99" stroke="none" fill-opacity="1" />
				<polyline points="95.24786,990.7769 142.14255,134.78192 978.2892,99.29773 949.4618,961.9822" fill="#2467AF" stroke="none" fill-opacity="1" />
				<polyline points="779.0527,386.3531 820.7953,406.92914 885.01624,386.29382 948.29364,444.68683 889.18567,420.83527 837.861,455.9605 775.49133,419.71143 731.7345,444.65515" fill="#2E3A99" stroke="none" fill-opacity="1" />
				<polyline points="272.97107,829.5181 326.90817,847.9722 423.24677,822.0724 489.60092,880.0542 419.10916,857.93097 334.22253,898.5432 255.38425,865.17175 178.8917,895.7361" fill="#2E3A99" stroke="none" fill-opacity="1" />
				<polyline points="583.67346,272.49396 548.1116,296.98676 470.5221,261.997 364.69153,296.3551 297.49603,283.18494 228.94759,336.16833 300.15405,301.95636 357.13528,342.56647 464.44388,306.8235 543.466,334.75287 579.0278,306.7611 616.206,336.50232" fill="#2E3A99" stroke="none" fill-opacity="1" />
			</g>
			<g id="layer.white.uuid_0x2">
				<polyline points="-22.63836,1107.0197 -11.100541,-10.330566 1181.6022,-7.576172 1176.598,1110.1719" fill="#9A9A9A" stroke="none" fill-opacity="1" />
				<polyline points="59.86399,417.0348 41.899338,164.27277 77.58934,26.304688 560.2921,37.526 569.66766,217.76324 482.83817,467.28473 363.07315,496.4497" fill="#D0D0D0" stroke="none" fill-opacity="1" />
				<polygon points="1033.0275,617.7309 1029.225,829.9862 984.86206,1032.52 827.69073,1022.7983 698.40454,935.3038 741.4999,666.3389 652.7741,494.5904 644.96625,223.7602 701.0113,41.419556 906.6229,50.270752 1019.5979,129.04749 983.0066,450.86462" fill="#D0D0D0" stroke="none" fill-opacity="1" />
				<polyline points="674.46204,642.2739 602.6031,927.44135 440.92032,700.6036 530.74414,522.37396" fill="#D0D0D0" stroke="none" fill-opacity="1" />
				<polyline points="227.29553,512.38556 379.99597,560.9937 427.90198,758.66656 565.6317,943.3773 496.76685,1043.834 89.56582,1050.3152 53.63634,859.1233 95.55405,577.1964" fill="#D0D0D0" stroke="none" fill-opacity="1" />
			</g>
			<g id="layer.red.uuid_0x3">
				<polyline points="-22.63836,1107.0197 -11.100541,-10.330566 1181.6022,-7.576172 1176.598,1110.1719" fill="#621B13" stroke="none" fill-opacity="1" />
				<polyline points="538.7614,354.26935 563.9003,529.60876 242.68083,463.10077 228.71475,339.15387" fill="#4F160F" stroke="none" fill-opacity="1" />
				<polyline points="771.42834,562.86273 962.17053,723.08673 967.2571,995.1651 812.12006,1001.2113 578.14294,762.38696 308.56064,1025.3961 69.49705,1019.3499 59.32417,868.19525 374.68466,650.53253 74.58361,248.46106 87.29965,45.91382 219.54759,33.82141 506.93256,339.15387 761.2555,39.867676 982.51636,30.79834 946.91113,275.66888" fill="#4F160F" stroke="none" fill-opacity="1" />
				<polyline points="622.0981,284.7381 974.0431,275.66888 990.8023,466.12378 594.166,460.07764" fill="#350D0F" stroke="none" fill-opacity="1" />
				<polyline points="116.98625,94.283264 463.34476,88.23712 480.1039,278.69196 89.05409,269.62274" fill="#350D0F" stroke="none" fill-opacity="1" />
				<polyline points="27.603209,844.0105 541.5547,831.9181 558.314,1022.37305 41.99438,1019.3499" fill="#350D0F" stroke="none" fill-opacity="1" />
			</g>
			<g id="layer.yellow.uuid_0x4">
				<polyline points="-22.63836,1107.0197 -11.100541,-10.330566 1181.6022,-7.576172 1176.598,1110.1719" fill="#F0EC96" stroke="none" fill-opacity="1" />
				<polygon points="724.01184,741.5454 668.30554,766.5327 604.54126,783.5774 537.77155,789.38654 470.69064,783.85803 406.00006,767.1475 348.9357,742.6502 324.94315,684.3855 308.57693,618.33386 302.84644,549.5193 307.79898,480.59253 323.23877,414.2068 345.87344,355.45203 399.7077,329.78937 460.7365,311.75787 524.4738,304.85468 588.5224,309.28925 650.4777,325.01294 705.67004,348.83496 731.53467,407.7751 750.63617,474.81342 759.399,544.722 757.4788,614.74274 744.7743,682.11536" fill="#EBCD24" stroke="none" fill-opacity="1" />
				<polyline points="958.7372,1011.63257 992.2557,760.7158 786.67255,706.3001 765.91003,765.73016" fill="#EBCD24" stroke="none" fill-opacity="1" />
				<polyline points="795.0522,467.4757 986.1748,304.2287 997.34766,670.023 800.6386,633.74585" fill="#EBCD24" stroke="none" fill-opacity="1" />
				<polyline points="1010.12964,77.496704 806.22504,44.242676 736.3947,310.27484 767.12006,373.75983" fill="#EBCD24" stroke="none" fill-opacity="1" />
				<polyline points="728.0151,47.265747 473.8326,47.265747 535.2833,267.9516 658.1847,283.06708" fill="#EBCD24" stroke="none" fill-opacity="1" />
				<polyline points="390.0361,59.358154 144.23334,53.31201 317.4126,307.25177 473.8326,261.9054" fill="#EBCD24" stroke="none" fill-opacity="1" />
				<polyline points="40.884476,609.5611 63.230038,86.56592 253.8179,422.33868 246.93312,488.42798" fill="#EBCD24" stroke="none" fill-opacity="1" />
				<polyline points="267.13464,736.531 45.746445,966.28613 63.230038,712.34625 255.96182,621.65344" fill="#EBCD24" stroke="none" fill-opacity="1" />
				<polyline points="454.28,818.15454 417.96823,1014.65564 105.128235,1014.65564 295.06686,760.71576" fill="#EBCD24" stroke="none" fill-opacity="1" />
				<polyline points="510.14423,1023.72485 834.157,1029.771 714.0489,806.06213 521.3171,830.2469" fill="#EBCD24" stroke="none" fill-opacity="1" />
			</g>
			<g id="layer.orange.uuid_0x5">
				<polyline points="-56.23444,1110.5801 -11.738091,-13.958374 1181.6022,-7.576172 1182.1313,1106.6868" fill="#994B05" stroke="none" fill-opacity="1" />
				<path d="M322.44778,50.33496L323.61346,50.007202L324.69287,49.458252L325.64447,48.70923L326.43158,47.789185L327.0241,46.733032L327.39917,45.581543L327.54245,44.37915L327.4484,43.171875L327.12057,42.006226L326.57166,40.92688L325.82275,39.97522L324.90253,39.18811L323.84647,38.595703L322.69507,38.22046L321.49265,38.07727L320.2854,38.171265L250.8154,42.737793L150.19714,59.728638L144.7808,62.04535L140.00908,65.50006L136.11736,69.92267L133.29753,75.09485L131.68854,80.7619L131.3697,86.64441L132.35689,92.45203L134.60123,97.898926L137.99223,102.716064L209.27834,204.33453L222.75604,214.32025L543.4578,353.7447L1029.3705,417.24036L1033.9734,417.45093L1038.5167,416.68414L1042.7955,414.9746L1046.6163,412.39954L1049.807,409.07538L1052.2231,405.15198L1053.7555,400.80676L1054.3354,396.23572L1053.9363,391.6454L1031.7158,297.515L1030.4386,293.52875L1028.2728,289.94684L1025.3363,286.96405L1021.7887,284.7425L760.0183,149.73358L367.24396,108.35248L358.02997,108.98364L349.56244,112.67096L133.55228,245.76086L127.56958,250.74396L122.85118,256.93744L119.635216,264.02832L118.084496,271.65845L118.277145,279.4422L120.20348,286.9862L149.28697,407.35266L156.3219,420.00415L166.6777,430.11884L344.64038,554.6503L363.6329,562.7551L486.7101,587.73517L733.15564,640.9071L756.9176,640.20715L926.54047,561.99115L930.6514,560.5373L934.38245,558.2803L937.5784,555.31384L940.10675,551.7611L941.8624,547.7697L942.7726,543.5052L942.7994,539.1448L941.94183,534.86945L940.2354,530.8567L937.751,527.27313L934.59174,524.26764L836.52606,431.7256L823.3991,425.44135L555.2974,380.8811L548.89667,380.70062L193.10973,424.00708L185.56876,426.23627L178.69019,430.04688L172.80104,435.25775L168.18129,441.62122L165.05058,448.83472L163.55765,456.55524L126.28332,640.1161L127.11502,655.7549L132.08519,670.6063L140.83397,683.5957L152.72856,693.7832L423.04697,865.40076L543.689,896.7443L721.75714,891.4954L856.9023,820.42L861.4562,818.1155L865.4032,814.8799L868.5563,810.8666L870.76587,806.26587L871.9272,801.296L871.9851,796.19257L870.9369,791.1975L868.8324,786.548L865.77124,782.46405L861.8987,779.1397L776.5018,709.1354L765.2617,704.2092L516.12573,653.9109L508.96008,653.27783L501.89258,654.61707L495.45523,657.82764L343.29825,766.9671L339.68137,770.06506L336.81183,773.86584L334.82297,778.1929L333.807,782.8456L333.81107,787.6079L334.83496,792.2588L367.3049,944.243L374.05838,956.5503L384.66425,965.7479L487.58942,1042.2673L502.83395,1048.3782L519.2181,1049.5175L812.0782,976.14264L813.0572,975.9598L813.9816,975.5895L814.8161,975.04584L815.5285,974.35L816.0915,973.52844L816.48334,972.6128L816.689,971.63837L816.7006,970.64246L816.51776,969.6635L816.14746,968.739L815.6038,967.90454L814.9079,967.19214L814.08636,966.6292L813.17084,966.2373L812.19635,966.0317L811.2005,966.01996L527.065,942.67035L438.06204,904.8847L382.0715,794.0035L515.58484,707.5591L744.4129,767.0676L798.2559,792.3793L713.7177,800.68805L563.88153,792.76746L476.02612,766.85156L245.18596,614.87427L233.18178,490.08044L551.2161,412.03467L800.07855,491.00775L873.19666,530.8852L741.65314,525.68713L504.12796,491.30707L390.40707,473.70825L237.75198,357.80072L194.82468,288.37476L371.2908,163.28033L740.48816,202.09369L998.2283,313.29846L1005.45605,369.7013L567.342,290.20422L264.2636,144.2096L205.18738,98.56769L256.4584,69.84961z" fill="#C46C00" stroke="none" fill-opacity="1" />
				<path d="M177.7235,67.543945L173.91089,64.006226L169.48134,61.280273L164.6052,59.470886L159.46971,58.647705L154.27231,58.842102L149.21265,60.04663L144.48526,62.21521L140.27179,65.26428L136.73407,69.07684L134.00821,73.50641L132.19878,78.38269L131.37549,83.51813L131.56992,88.715576L132.77454,93.775085L134.94307,98.50256L137.99223,102.716064L209.27834,204.33453L222.75604,214.32025L543.4578,353.7447L1029.3705,417.24036L1033.9734,417.45093L1038.5167,416.68414L1042.7955,414.9746L1046.6163,412.39954L1049.807,409.07538L1052.2231,405.15198L1053.7555,400.80676L1054.3354,396.23572L1053.9363,391.6454L1031.7158,297.515L1030.7052,294.14496L1029.0564,291.03693L1026.833,288.31018L1024.1205,286.06958L1021.02277,284.4013L1017.6593,283.36932L1014.159,283.01337L1010.6566,283.34717L1007.28656,284.35785L1004.1784,286.00653L1001.4517,288.22992L999.2112,290.9425L997.54285,294.0401L996.5109,297.4037L996.155,300.90393L996.4887,304.40637L1005.45605,369.7013L567.342,290.20422L264.2636,144.2096z" fill="#F99E06" stroke="none" fill-opacity="1" />
				<path d="M184.97366,262.4112L181.95421,256.32922L177.80623,250.95331L172.68922,246.4898L166.7997,243.11035L160.36406,240.94495L153.62967,240.0766L146.85518,240.5387L140.30113,242.3136L134.21912,245.33301L128.84326,249.48096L124.379715,254.59796L121.00039,260.4875L118.83483,266.92316L117.966446,273.6576L118.42856,280.43207L120.20348,286.9862L149.28697,407.35266L156.3219,420.00415L166.6777,430.11884L344.64038,554.6503L363.6329,562.7551L486.7101,587.73517L733.15564,640.9071L756.9176,640.20715L926.54047,561.99115L930.5009,560.6078L934.11536,558.47845L937.24493,555.6849L939.7694,552.33435L941.59174,548.5558L942.6418,544.49426L942.8794,540.30597L942.2953,536.1518L940.912,532.19135L938.7826,528.57684L935.989,525.4473L932.6385,522.92285L928.86,521.1005L924.79846,520.0504L920.61017,519.81287L916.4559,520.3969L741.65314,525.68713L504.12796,491.30707L390.40707,473.70825L237.75198,357.80072z" fill="#F99E06" stroke="none" fill-opacity="1" />
				<path d="M215.89258,595.9597L205.74348,590.7382L194.77083,587.59705L183.39615,586.65686L172.0566,587.95386L161.18797,591.4381L151.20787,596.9758L142.50002,604.3541L135.39888,613.28955L130.17729,623.4386L127.03611,634.41125L126.095985,645.7859L127.392944,657.1255L130.87721,667.99414L136.41496,677.9741L143.79324,686.682L152.72856,693.7832L423.04697,865.40076L543.689,896.7443L721.75714,891.4954L856.9023,820.42L861.2838,818.22675L865.1136,815.1705L868.22424,811.38477L870.47974,807.035L871.7817,802.3114L872.073,797.4203L871.34106,792.57544L869.61786,787.9888L866.97864,783.8605L863.5388,780.3712L859.4486,777.67334L854.88696,775.8848L850.0531,775.0838L845.1584,775.3053L840.4166,776.5396L713.7177,800.68805L563.88153,792.76746L476.02612,766.85156z" fill="#F99E06" stroke="none" fill-opacity="1" />
				<path d="M425.40237,897.34503L418.33862,894.02844L410.76355,892.15356L402.9683,891.7926L395.2524,892.95935L387.91232,895.60895L381.23026,899.6396L375.4629,904.8964L370.8319,911.1774L367.5153,918.24115L365.6404,925.8162L365.27945,933.6115L366.44617,941.3274L369.09583,948.6675L373.12643,955.34955L378.3833,961.1169L384.66425,965.7479L487.58942,1042.2673L502.83395,1048.3782L519.2181,1049.5175L812.0782,976.14264L813.0572,975.9598L813.9816,975.5895L814.8161,975.04584L815.5285,974.35L816.0915,973.52844L816.48334,972.6128L816.689,971.63837L816.7006,970.64246L816.51776,969.6635L816.14746,968.739L815.6038,967.90454L814.9079,967.19214L814.08636,966.6292L813.17084,966.2373L812.19635,966.0317L811.2005,966.01996L527.065,942.67035z" fill="#F99E06" stroke="none" fill-opacity="1" />
			</g>
		</g>
	</g>
</svg>
