<?xml version="1.0" encoding="UTF-8"?>
<!-- Generator: Blender, SVG Export for Grease Pencil - v2.0 -->
<!DOCTYPE svg PUBLIC "-//W3C//DTD SVG 1.1//EN" "http://www.w3.org/Graphics/SVG/1.1/DTD/svg11.dtd">
<svg version="1.1" x="0px" y="0px" xmlns="http://www.w3.org/2000/svg" width="1080.000000px" height="1080.000000px" viewBox="0 0 1080.000000 1080.000000">
	<g id="blender_frame.23">
		<g id="blender_object.GPencil.001.23.uuid_0x0">
			<g id="layer.blue.uuid_0x1">
				<polyline points="-22.63836,1107.0197 -11.10054,-10.330566 1181.602,-7.576172 1176.5979,1110.1719" fill="#2E3A99" stroke="none" fill-opacity="1" />
				<polyline points="95.247856,990.7769 142.14255,134.78192 978.2892,99.29773 949.46173,961.9822" fill="#2467AF" stroke="none" fill-opacity="1" />
				<polyline points="779.0526,386.35315 820.7953,406.92914 885.01624,386.29388 948.2936,444.6869 889.1856,420.83527 837.86096,455.9605 775.49133,419.71143 731.7345,444.65515" fill="#2E3A99" stroke="none" fill-opacity="1" />
				<polyline points="272.97104,829.5181 326.90814,847.97217 423.24673,822.0724 489.6009,880.0542 419.10913,857.93097 334.22253,898.5432 255.38422,865.17175 178.8917,895.7361" fill="#2E3A99" stroke="none" fill-opacity="1" />
				<polyline points="583.6734,272.49396 548.1116,296.98682 470.52203,261.997 364.6915,296.3551 297.49603,283.18494 228.94757,336.16833 300.15402,301.95642 357.13525,342.56647 464.44385,306.8235 543.46594,334.75293 579.0278,306.7611 616.206,336.50238" fill="#2E3A99" stroke="none" fill-opacity="1" />
			</g>
			<g id="layer.white.uuid_0x2">
				<polyline points="-22.63836,1107.0197 -11.10054,-10.330566 1181.602,-7.576172 1176.5979,1110.1719" fill="#9A9A9A" stroke="none" fill-opacity="1" />
				<polyline points="32.656174,423.081 14.6915245,170.31891 50.381527,32.350952 533.0842,43.572266 542.4599,223.80945 455.63034,473.33093 335.86533,502.49585" fill="#D0D0D0" stroke="none" fill-opacity="1" />
				<polygon points="1044.6704,620.75397 1040.1792,833.0093 987.782,1035.5431 802.14636,1025.8214 649.446,938.32684 700.3461,669.362 595.5517,497.61346 586.32996,226.78333 652.52496,44.442627 895.3734,53.293823 1028.8085,132.07056 985.59033,453.8877" fill="#D0D0D0" stroke="none" fill-opacity="1" />
				<polyline points="647.2543,648.32007 575.3953,933.48755 413.71252,706.6498 503.53625,528.42017" fill="#D0D0D0" stroke="none" fill-opacity="1" />
				<polyline points="200.08777,518.43176 352.78815,567.03986 400.69415,764.71277 538.4238,949.4236 469.55905,1049.8802 62.357998,1056.3613 26.428528,865.1695 68.34624,583.24255" fill="#D0D0D0" stroke="none" fill-opacity="1" />
			</g>
			<g id="layer.red.uuid_0x3">
				<polyline points="-22.63836,1107.0197 -11.10054,-10.330566 1181.602,-7.576172 1176.5979,1110.1719" fill="#621B13" stroke="none" fill-opacity="1" />
				<polyline points="1024.2861,1010.2807 1029.8726,753.3177 610.8905,756.3408 641.61584,1025.3961" fill="#4F160F" stroke="none" fill-opacity="1" />
				<polyline points="415.36566,571.9321 440.50455,747.2715 105.318886,759.3639 105.318886,556.8166" fill="#4F160F" stroke="none" fill-opacity="1" />
				<polyline points="976.8015,127.537415 1004.7337,311.94604 683.51404,287.76135 661.16833,97.30646" fill="#4F160F" stroke="none" fill-opacity="1" />
				<polyline points="57.83415,847.03357 571.7855,834.9412 588.5448,1025.3961 29.902094,1022.37305" fill="#350D0F" stroke="none" fill-opacity="1" />
				<polyline points="658.3752,487.28546 1010.3202,478.2162 1027.0793,668.6711 630.4431,662.6249" fill="#350D0F" stroke="none" fill-opacity="1" />
				<polyline points="147.21709,97.30646 493.57556,91.260254 510.33484,281.71515 119.28497,272.6458" fill="#350D0F" stroke="none" fill-opacity="1" />
				<polyline points="568.9924,357.29248 594.1312,532.6319 272.91165,466.12384 258.9457,342.177" fill="#4F160F" stroke="none" fill-opacity="1" />
			</g>
			<g id="layer.yellow.uuid_0x4">
				<polyline points="-22.63836,1107.0197 -11.10054,-10.330566 1181.602,-7.576172 1176.5979,1110.1719" fill="#F0EC96" stroke="none" fill-opacity="1" />
				<polygon points="724.01184,741.5454 668.30554,766.5327 604.54126,783.5774 537.7715,789.38654 470.69064,783.858 406.00006,767.1476 348.93567,742.65015 324.94315,684.3855 308.57693,618.33386 302.84644,549.51935 307.79898,480.59253 323.23877,414.20673 345.8734,355.45203 399.7077,329.78943 460.73648,311.75787 524.47375,304.85468 588.5224,309.28925 650.4777,325.01294 705.67004,348.83496 731.5346,407.77515 750.63617,474.81348 759.399,544.722 757.47876,614.74274 744.77423,682.11536" fill="#EBCD24" stroke="none" fill-opacity="1" />
				<polyline points="1010.1296,1035.8174 1043.6482,784.9005 786.67255,706.3001 765.91003,765.73016" fill="#EBCD24" stroke="none" fill-opacity="1" />
				<polyline points="795.05206,467.47577 1007.33636,310.2749 1018.5093,676.0692 800.6386,633.7459" fill="#EBCD24" stroke="none" fill-opacity="1" />
				<polyline points="1010.1296,77.496765 806.2251,44.242676 736.39465,310.2749 767.12006,373.75983" fill="#EBCD24" stroke="none" fill-opacity="1" />
				<polyline points="728.015,47.26587 473.8326,47.26587 535.2833,267.9516 658.18463,283.06708" fill="#EBCD24" stroke="none" fill-opacity="1" />
				<polyline points="390.03607,59.358154 144.23332,53.31201 317.41257,307.25177 473.8326,261.9054" fill="#EBCD24" stroke="none" fill-opacity="1" />
				<polyline points="40.884476,609.56116 63.230038,86.56586 253.81789,422.33868 246.9331,488.42798" fill="#EBCD24" stroke="none" fill-opacity="1" />
				<polyline points="267.1346,736.531 18.538685,993.494 63.230038,712.34625 255.96182,621.65344" fill="#EBCD24" stroke="none" fill-opacity="1" />
				<polyline points="454.27997,818.15454 417.96823,1014.65564 105.12823,1014.65564 295.06686,760.7158" fill="#EBCD24" stroke="none" fill-opacity="1" />
				<polyline points="510.1442,1023.72485 834.157,1029.771 714.0488,806.0622 521.3171,830.2469" fill="#EBCD24" stroke="none" fill-opacity="1" />
			</g>
			<g id="layer.green.uuid_0x5">
				<polyline points="-22.63836,1107.0197 -11.10054,-10.330566 1181.602,-7.576172 1176.5979,1110.1719" fill="#58D164" stroke="none" fill-opacity="1" />
				<polyline points="792.5242,110.73645 830.38293,198.67188 888.62836,110.483154 946.0182,360.03723 886.799,241.82495 847.8489,334.17957 795.4502,255.94464 749.60876,359.90137" fill="#32672C" stroke="none" fill-opacity="1" />
				<polyline points="214.32901,385.83783 229.84198,603.76636 288.08755,515.57764 345.47726,765.1318 286.2581,646.91943 247.30814,739.2742 194.90936,661.0392 149.06783,764.99585 137.89507,695.4648 79.23752,777.08826 129.51537,589.6565 163.0339,650.11835" fill="#32672C" stroke="none" fill-opacity="1" />
				<polyline points="685.65936,724.4243 659.0649,812.35986 618.1493,724.1711 558.2135,901.171 613.5481,843.42053 646.7956,911.5905 685.5661,860.56335 725.6168,919.1737" fill="#32672C" stroke="none" fill-opacity="1" />
			</g>
			<g id="layer.purpur.uuid_0x6">
				<polyline points="-22.63836,1107.0197 -11.10054,-10.330566 1181.602,-7.576172 1176.5979,1110.1719" fill="#44185A" stroke="none" fill-opacity="1" />
				<polyline points="693.6263,693.9813 535.07776,654.1218 458.94055,501.53558 560.0818,363.1892 722.2271,292.85065 510.5316,200.09375 251.57243,349.29706 254.06165,711.5948 478.82108,915.77106 767.7212,799.4923 877.13837,553.78235" fill="#976BB1" stroke="none" fill-opacity="1" />
				<polyline points="920.0777,166.37463 998.2877,184.51318 914.4912,208.69794 892.14557,311.48315 872.593,211.72107 794.38306,178.46698 869.79987,157.30542 900.52515,42.427734" fill="#976BB1" stroke="none" fill-opacity="1" />
				<polyline points="181.43211,918.7437 246.92647,933.9332 176.75394,954.1859 158.04124,1040.26 141.66756,956.7176 76.17325,928.87006 139.32855,911.1489 165.05843,814.9485" fill="#976BB1" stroke="none" fill-opacity="1" />
				<polyline points="414.84662,962.5023 458.8817,972.715 411.70123,986.332 399.11978,1044.2039 388.111,988.0341 344.0759,969.3108 386.53827,957.396 403.83777,892.7157" fill="#976BB1" stroke="none" fill-opacity="1" />
				<polyline points="853.04047,890.1613 559.75305,950.62317 799.9695,847.838 889.3523,723.8911" fill="#976BB1" stroke="none" fill-opacity="1" />
				<polyline points="414.4135,42.75476 644.88556,158.932 439.10138,117.228455 179.17609,366.7682" fill="#976BB1" stroke="none" fill-opacity="1" />
				<polyline points="127.11937,235.46735 102.68668,285.735 70.81392,244.86237 97.66497,203.7893" fill="#976BB1" stroke="none" fill-opacity="1" />
				<polyline points="945.55084,813.9356 979.8085,770.9078 1002.36554,818.4946 967.66345,851.9748" fill="#976BB1" stroke="none" fill-opacity="1" />
				<polyline points="139.73619,473.95282 74.05174,533.8547 49.0198,450.6153 113.13143,406.26727" fill="#976BB1" stroke="none" fill-opacity="1" />
			</g>
		</g>
	</g>
</svg>
