<?xml version="1.0" encoding="UTF-8"?>
<!-- Generator: Blender, SVG Export for Grease Pencil - v2.0 -->
<!DOCTYPE svg PUBLIC "-//W3C//DTD SVG 1.1//EN" "http://www.w3.org/Graphics/SVG/1.1/DTD/svg11.dtd">
<svg version="1.1" x="0px" y="0px" xmlns="http://www.w3.org/2000/svg" width="1080.000000px" height="1080.000000px" viewBox="0 0 1080.000000 1080.000000">
	<g id="blender_frame.23">
		<g id="blender_object.GPencil.001.23.uuid_0x0">
			<g id="layer.blue.uuid_0x1">
				<polyline points="-22.63836,1107.0197 -11.10054,-10.330566 1181.602,-7.576172 1176.5979,1110.1719" fill="#2E3A99" stroke="none" fill-opacity="1" />
				<polyline points="95.247856,990.7769 142.14255,134.78192 978.2892,99.29773 949.46173,961.9822" fill="#2467AF" stroke="none" fill-opacity="1" />
				<polyline points="779.0526,386.35315 820.7953,406.92914 885.01624,386.29388 948.2936,444.6869 889.1856,420.83527 837.86096,455.9605 775.49133,419.71143 731.7345,444.65515" fill="#2E3A99" stroke="none" fill-opacity="1" />
				<polyline points="272.97104,829.5181 326.90814,847.97217 423.24673,822.0724 489.6009,880.0542 419.10913,857.93097 334.22253,898.5432 255.38422,865.17175 178.8917,895.7361" fill="#2E3A99" stroke="none" fill-opacity="1" />
				<polyline points="583.6734,272.49396 548.1116,296.98682 470.52203,261.997 364.6915,296.3551 297.49603,283.18494 228.94757,336.16833 300.15402,301.95642 357.13525,342.56647 464.44385,306.8235 543.46594,334.75293 579.0278,306.7611 616.206,336.50238" fill="#2E3A99" stroke="none" fill-opacity="1" />
			</g>
			<g id="layer.white.uuid_0x2">
				<polyline points="-22.63836,1107.0197 -11.10054,-10.330566 1181.602,-7.576172 1176.5979,1110.1719" fill="#9A9A9A" stroke="none" fill-opacity="1" />
				<polyline points="59.86399,417.0348 41.899338,164.27277 77.58934,26.30481 560.29205,37.526 569.66766,217.76324 482.83817,467.2848 363.07312,496.4497" fill="#D0D0D0" stroke="none" fill-opacity="1" />
				<polygon points="1033.0275,617.73083 1029.225,829.9862 984.86206,1032.52 827.6907,1022.7983 698.40454,935.3038 741.4998,666.3389 652.7741,494.5904 644.96625,223.76025 701.0113,41.419556 906.62286,50.270752 1019.59784,129.04749 983.0065,450.86462" fill="#D0D0D0" stroke="none" fill-opacity="1" />
				<polyline points="674.46204,642.2739 602.603,927.44135 440.92032,700.6036 530.74414,522.37396" fill="#D0D0D0" stroke="none" fill-opacity="1" />
				<polyline points="227.2955,512.3856 379.99597,560.9937 427.90198,758.6666 565.6317,943.3773 496.76685,1043.8341 89.56581,1050.3152 53.63634,859.1233 95.55405,577.1964" fill="#D0D0D0" stroke="none" fill-opacity="1" />
			</g>
			<g id="layer.red.uuid_0x3">
				<polyline points="-22.63836,1107.0197 -11.10054,-10.330566 1181.602,-7.576172 1176.5979,1110.1719" fill="#621B13" stroke="none" fill-opacity="1" />
				<polyline points="538.7614,354.26935 563.90027,529.6088 242.68083,463.10077 228.71474,339.15387" fill="#4F160F" stroke="none" fill-opacity="1" />
				<polyline points="771.4283,562.86273 962.1704,723.0867 967.257,995.1651 812.12006,1001.2113 578.14294,762.38696 308.56064,1025.3961 69.49705,1019.3499 59.32417,868.19525 374.68466,650.53253 74.5836,248.46106 87.29965,45.91382 219.54758,33.82141 506.93253,339.15387 761.25543,39.867554 982.5164,30.79834 946.9112,275.66888" fill="#4F160F" stroke="none" fill-opacity="1" />
				<polyline points="622.0981,284.73816 974.043,275.66888 990.8022,466.12378 594.166,460.07764" fill="#350D0F" stroke="none" fill-opacity="1" />
				<polyline points="116.98625,94.283325 463.34476,88.23718 480.1039,278.69196 89.054085,269.62274" fill="#350D0F" stroke="none" fill-opacity="1" />
				<polyline points="27.603207,844.0105 541.5547,831.9181 558.31396,1022.37305 41.99438,1019.3499" fill="#350D0F" stroke="none" fill-opacity="1" />
			</g>
		</g>
	</g>
</svg>
