<?xml version="1.0" encoding="UTF-8"?>
<!-- Generator: Blender, SVG Export for Grease Pencil - v2.0 -->
<!DOCTYPE svg PUBLIC "-//W3C//DTD SVG 1.1//EN" "http://www.w3.org/Graphics/SVG/1.1/DTD/svg11.dtd">
<svg version="1.1" x="0px" y="0px" xmlns="http://www.w3.org/2000/svg" width="1080.000000px" height="1080.000000px" viewBox="0 0 1080.000000 1080.000000">
	<g id="blender_frame.23">
		<g id="blender_object.GPencil.001.23.uuid_0x0">
			<g id="layer.blue.uuid_0x1">
				<polyline points="-22.63836,1107.0197 -11.10054,-10.330566 1181.602,-7.576172 1176.5979,1110.1719" fill="#2E3A99" stroke="none" fill-opacity="1" />
				<polyline points="95.247856,990.7769 142.14255,134.78192 978.2892,99.29773 949.46173,961.9822" fill="#2467AF" stroke="none" fill-opacity="1" />
				<polyline points="779.0526,386.35315 820.7953,406.92914 885.01624,386.29388 948.2936,444.6869 889.1856,420.83527 837.86096,455.9605 775.49133,419.71143 731.7345,444.65515" fill="#2E3A99" stroke="none" fill-opacity="1" />
				<polyline points="272.97104,829.5181 326.90814,847.97217 423.24673,822.0724 489.6009,880.0542 419.10913,857.93097 334.22253,898.5432 255.38422,865.17175 178.8917,895.7361" fill="#2E3A99" stroke="none" fill-opacity="1" />
				<polyline points="583.6734,272.49396 548.1116,296.98682 470.52203,261.997 364.6915,296.3551 297.49603,283.18494 228.94757,336.16833 300.15402,301.95642 357.13525,342.56647 464.44385,306.8235 543.46594,334.75293 579.0278,306.7611 616.206,336.50238" fill="#2E3A99" stroke="none" fill-opacity="1" />
			</g>
			<g id="layer.yellow.uuid_0x2">
				<polyline points="-22.63836,1107.0197 -11.10054,-10.330566 1181.602,-7.576172 1176.5979,1110.1719" fill="#F0EC96" stroke="none" fill-opacity="1" />
				<polygon points="724.01184,741.5454 668.30554,766.5327 604.54126,783.5774 537.7715,789.38654 470.69064,783.858 406.00006,767.1476 348.93567,742.65015 324.94315,684.3855 308.57693,618.33386 302.84644,549.51935 307.79898,480.59253 323.23877,414.20673 345.8734,355.45203 399.7077,329.78943 460.73648,311.75787 524.47375,304.85468 588.5224,309.28925 650.4777,325.01294 705.67004,348.83496 731.5346,407.77515 750.63617,474.81348 759.399,544.722 757.47876,614.74274 744.77423,682.11536" fill="#EBCD24" stroke="none" fill-opacity="1" />
				<polyline points="958.73706,1011.63257 992.2556,760.7158 786.67255,706.3001 765.91003,765.73016" fill="#EBCD24" stroke="none" fill-opacity="1" />
				<polyline points="795.05206,467.47577 986.17474,304.2287 997.34766,670.0231 800.6386,633.7459" fill="#EBCD24" stroke="none" fill-opacity="1" />
				<polyline points="1010.1296,77.496765 806.2251,44.242676 736.39465,310.2749 767.12006,373.75983" fill="#EBCD24" stroke="none" fill-opacity="1" />
				<polyline points="728.015,47.26587 473.8326,47.26587 535.2833,267.9516 658.18463,283.06708" fill="#EBCD24" stroke="none" fill-opacity="1" />
				<polyline points="390.03607,59.358154 144.23332,53.31201 317.41257,307.25177 473.8326,261.9054" fill="#EBCD24" stroke="none" fill-opacity="1" />
				<polyline points="40.884476,609.56116 63.230038,86.56586 253.81789,422.33868 246.9331,488.42798" fill="#EBCD24" stroke="none" fill-opacity="1" />
				<polyline points="267.1346,736.531 45.74644,966.28613 63.230038,712.34625 255.96182,621.65344" fill="#EBCD24" stroke="none" fill-opacity="1" />
				<polyline points="454.27997,818.15454 417.96823,1014.65564 105.12823,1014.65564 295.06686,760.7158" fill="#EBCD24" stroke="none" fill-opacity="1" />
				<polyline points="510.1442,1023.72485 834.157,1029.771 714.0488,806.0622 521.3171,830.2469" fill="#EBCD24" stroke="none" fill-opacity="1" />
			</g>
		</g>
	</g>
</svg>
