<?xml version="1.0" encoding="UTF-8"?>
<!-- Generator: Blender, SVG Export for Grease Pencil - v2.0 -->
<!DOCTYPE svg PUBLIC "-//W3C//DTD SVG 1.1//EN" "http://www.w3.org/Graphics/SVG/1.1/DTD/svg11.dtd">
<svg version="1.1" x="0px" y="0px" xmlns="http://www.w3.org/2000/svg" width="1920.000000px" height="1080.000000px" viewBox="0 0 1920.000000 1080.000000">
	<g id="blender_frame.3">
		<g id="blender_object.Stroke.003.3.uuid_0x0">
			<g id="layer.chair.uuid_0x1">
				<polygon points="140.058289,575.586426 309.937012,110.358398 1060.179077,65.307007 1543.694702,386.340942 1415.784546,727.809814 1576.611084,1052.537964 1082.588989,902.310425 443.306274,997.101501" fill="#C44C21" stroke="none" fill-opacity="1" />
				<path d="M119.447937,568.060486L118.375687,572.225952L118.136787,576.520630L118.740181,580.779358L120.162910,584.838501L122.350273,588.542114L125.217995,591.747803L128.656082,594.332520L132.532425,596.196777L136.697906,597.268982L140.992538,597.507935L145.251221,596.904419L149.310440,595.481750L153.014038,593.294434L156.219742,590.426636L158.804413,586.988586L160.668640,583.112305L324.015381,129.253784L1050.703003,100.492981L1516.671631,395.090576L1396.324707,720.520325L1395.080444,726.031982L1395.366821,731.675171L1397.162842,737.032471L1564.088135,1041.923950L1088.322144,883.457458L1079.698853,882.818176L467.466888,939.952148L157.869370,562.772644L155.027283,559.544128L151.609955,556.932068L147.748734,555.036865L143.591949,553.931396L139.299377,553.658142L135.035934,554.227539L130.965561,555.617737L127.244576,557.775330L124.016022,560.617432L121.403961,564.034668L119.508774,567.895935L118.403328,572.052734L118.130035,576.345337L118.699440,580.608765L120.089668,584.679199L122.247223,588.400146L400.293335,1028.046021L410.253998,1038.516724L422.673187,1045.906738L436.627258,1049.666382L451.078094,1049.515991L1081.095703,922.452698L1574.716797,1058.767822L1576.066406,1059.026611L1577.440430,1058.996460L1578.777344,1058.678589L1580.017822,1058.087280L1581.106567,1057.248779L1581.995117,1056.200439L1582.643799,1054.989014L1583.023804,1053.668335L1583.118286,1052.297363L1582.922852,1050.937012L1582.446289,1049.648071L1438.405151,726.661438L1564.518433,394.141235L1565.730469,389.324158L1565.842896,384.358276L1564.850342,379.491211L1562.801880,374.966003L1559.800049,371.008362L1555.994751,367.815796L1079.292603,36.519775L1069.165161,31.941040L1058.108032,30.814453L308.755890,90.688416L304.262177,91.487671L300.073059,93.299561L296.413025,96.026428L293.478546,99.522156L291.427124,103.599365z" fill="#FEFEFE" stroke="none" fill-opacity="1" />
				<polygon points="1380.381348,466.551819 1352.092896,718.183044 538.743713,817.576233 269.394165,582.777466 429.119019,220.141541 1066.818848,229.170654" fill="#B42C1C" stroke="none" fill-opacity="1" />
				<polygon points="649.720520,251.940613 904.024597,200.454163 947.074768,583.568726 835.674316,601.941040 777.268250,486.901855 714.252136,370.829285" fill="#DBDBDB" stroke="none" fill-opacity="1" />
				<path d="M633.774536,173.179443L618.715393,177.803772L604.847717,185.277039L592.704590,195.312195L582.752502,207.523560L575.373962,221.441833L570.852478,236.532166L569.361877,252.214600L570.959412,267.886475L575.583679,282.945679L583.057007,296.813232L593.092102,308.956482L605.303467,318.908569L619.221741,326.287048L634.312073,330.808533L649.994446,332.299133L665.666382,330.701599L801.346619,341.407471L884.519104,536.237976L868.417664,537.285522L831.114441,459.563904L774.915894,337.898071L720.346313,213.605530L711.510437,200.563782L700.300049,189.496216L687.145874,180.828552L672.553467,174.893555L657.083679,171.919617L641.330811,172.020691L625.900452,175.193115L611.385437,181.314758L598.343567,190.150635L587.276123,201.360962L578.608521,214.515137L572.673523,229.107544L569.699402,244.577393L569.800537,260.330261L572.972961,275.760620L579.094604,290.275635L653.586853,403.757751L723.799255,514.982666L783.542664,628.408569L791.823059,640.610229L802.893005,650.352051L816.048340,657.014282L830.452087,660.173035L845.188049,659.627563L956.330383,639.689819L968.198120,636.380127L979.074707,630.592651L988.449890,622.598755L995.883789,612.773621L1001.027588,601.578186L1003.639954,589.537720L1003.598206,577.217285L1021.063416,187.302673L1014.705872,160.196472L1002.163208,135.340149L984.136169,114.122375L961.632202,97.729248L935.908813,87.076843L908.403748,82.760254L880.653992,85.020874z" fill="#3E0C18" stroke="none" fill-opacity="1" />
				<polygon points="653.248413,252.326477 907.335144,200.701904 950.238464,583.926392 838.960266,602.327820 780.734436,487.286926 717.859131,371.304077" fill="#FEFEFE" stroke="none" fill-opacity="1" />
				<path d="M648.515381,229.031311L644.061768,230.402283L639.960999,232.615845L636.370972,235.586853L633.429443,239.201111L631.249695,243.319702L629.915222,247.784607L629.477539,252.423950L629.953247,257.059509L631.324280,261.513245L633.537842,265.613892L636.508728,269.203979L640.123047,272.145386L644.241760,274.325195L648.706543,275.659668L653.345947,276.097412L657.981506,275.621582L899.856445,210.971619L926.959351,566.313354L846.559753,587.337036L797.912415,478.592590L738.722839,359.993591L674.138062,240.982361L671.523621,237.124939L668.206787,233.851746L664.315186,231.288452L659.998230,229.533691L655.421814,228.654846L650.762024,228.685791L646.197632,229.625061L641.904358,231.436829L638.046936,234.051392L634.773743,237.368164L632.210510,241.259827L630.455750,245.576782L629.576965,250.153137L629.607727,254.812927L630.547058,259.377258L632.358765,263.670532L696.999451,382.622009L763.679138,496.223633L826.870483,608.446899L828.789062,611.280518L831.356323,613.543213L834.408569,615.090576L837.751221,615.823853L841.170959,615.696289L953.693054,604.817688L958.108337,603.584595L962.154724,601.430176L965.642578,598.455444L968.408508,594.799683L970.322815,590.634399L971.295837,586.154663L971.281982,581.570557L915.856812,199.747864L915.394226,197.772888L914.480835,195.961853L913.167480,194.415955L911.527771,193.221863L909.653503,192.446289L907.649475,192.132812L905.627869,192.298706z" fill="#7D2A1D" stroke="none" fill-opacity="1" />
				<polygon points="863.101013,816.693970 841.656006,700.719360 993.754883,686.424194 1014.574158,796.256836 940.059631,807.201538" fill="#DBDBDB" stroke="none" fill-opacity="1" />
				<path d="M800.758118,828.221863L804.205017,840.162842L809.915222,851.201965L817.669312,860.914917L827.169373,868.928467L838.050232,874.934692L849.893738,878.702820L862.244873,880.087891L874.628845,879.036865L886.569885,875.589966L897.608948,869.879761L907.321899,862.125671L915.335449,852.625610L921.341736,841.744751L925.109802,829.901184L926.494812,817.550110L925.443848,805.166138L915.270996,756.347900L940.605225,757.087646L956.053162,754.582886L931.000000,740.140259L855.339783,753.771118L843.213257,756.494324L831.851013,761.530884L821.689697,768.687500L813.119812,777.688782L806.470642,788.189087L801.997681,799.784912L799.873047,812.030396L800.178101,824.455200L802.901306,836.581726L807.937927,847.943909L815.094421,858.105286L824.095825,866.675171L834.596069,873.324341L846.191833,877.797241L858.437439,879.921997L870.862183,879.616882L948.343079,874.358582L1025.014526,867.337219L1040.966187,863.076660L1055.523804,855.286804L1067.918823,844.379272L1077.496338,830.930115L1083.750366,815.649536L1086.350830,799.344727L1085.160278,782.876892L1057.990967,674.247925L1053.086548,658.959656L1044.603882,645.327759L1033.054688,634.174194L1019.135559,626.171692L1003.685791,621.802856L987.637024,621.331055L835.828979,638.719604L821.427246,641.823486L808.157715,648.223755L796.763123,657.562134L787.881042,669.315979L782.008728,682.827515L779.474915,697.340332L780.421204,712.042297z" fill="#3E0C18" stroke="none" fill-opacity="1" />
				<polygon points="866.402527,817.008057 844.988953,701.046143 996.916626,686.640869 1017.689697,796.402344 943.252991,807.469971" fill="#FEFEFE" stroke="none" fill-opacity="1" />
				<path d="M854.755127,819.158813L855.398621,821.389832L856.464905,823.452393L857.913086,825.267334L859.687439,826.764832L861.719910,827.887390L863.932312,828.591858L866.239746,828.851196L868.553284,828.655396L870.784241,828.011963L872.846863,826.945679L874.661743,825.497559L876.159302,823.723145L877.281799,821.690674L877.986328,819.478149L878.245605,817.170898L878.049866,814.857178L853.145142,707.205750L982.719971,705.526001L995.690247,780.760620L941.114502,791.789673L864.943726,805.253967L862.678589,805.764404L860.556702,806.706970L858.659302,808.045349L857.059631,809.728149L855.818909,811.690796L854.984924,813.857727L854.589722,816.145752L854.648438,818.466919L855.158936,820.731934L856.101440,822.853943L857.439819,824.751221L859.122681,826.350952L861.085266,827.591675L863.252258,828.425659L865.540222,828.820862L867.861328,828.762085L945.202026,823.173828L1020.440857,814.906067L1024.587524,813.791382L1028.370605,811.760498L1031.591064,808.920532L1034.079224,805.421143L1035.703857,801.446655L1036.379517,797.206299L1036.070557,792.923706L1014.072937,683.393921L1012.762878,679.307617L1010.495850,675.664246L1007.408569,672.683838L1003.687622,670.546326L999.557800,669.380981L995.268372,669.258057L844.337463,694.174927L842.742554,694.519958L841.273132,695.229736L840.011475,696.264648L839.028137,697.566833L838.377808,699.063477L838.097168,700.671021L838.201660,702.299438z" fill="#7D2A1D" stroke="none" fill-opacity="1" />
			</g>
			<g id="layer.Layer.uuid_0x2" />
		</g>
	</g>
</svg>
