<?xml version="1.0" encoding="UTF-8"?>
<!-- Generator: Blender, SVG Export for Grease Pencil - v2.0 -->
<!DOCTYPE svg PUBLIC "-//W3C//DTD SVG 1.1//EN" "http://www.w3.org/Graphics/SVG/1.1/DTD/svg11.dtd">
<svg version="1.1" x="0px" y="0px" xmlns="http://www.w3.org/2000/svg" width="1920.000000px" height="1080.000000px" viewBox="0 0 1920.000000 1080.000000">
	<g id="blender_frame.4">
		<g id="blender_object.Stroke.003.4.uuid_0x0">
			<g id="layer.chair.uuid_0x1">
				<polygon points="158.016922,607.956360 264.368835,145.457642 1044.241577,44.944580 1518.678345,345.267517 1389.414062,716.034546 1544.718384,1060.953247 1098.693115,944.642090 509.230499,1028.168457" fill="#C44C21" stroke="none" fill-opacity="1" />
				<path d="M136.633530,603.039246L136.085129,607.305420L136.379532,611.596558L137.505463,615.747864L139.419647,619.599731L142.048538,623.004150L145.291046,625.830322L149.022614,627.969543L153.099762,629.339722L157.365936,629.888062L161.657135,629.593689L165.808411,628.467773L169.660324,626.553589L173.064713,623.924683L175.890839,620.682251L178.030075,616.950684L179.400223,612.873413L280.497772,163.247253L1036.293823,80.809448L1491.870117,354.614990L1369.791870,709.193481L1368.704468,714.319702L1368.933838,719.554932L1370.465698,724.566284L1533.194092,1051.218872L1103.665527,925.574463L1095.928589,925.131653L530.982971,971.569336L174.852341,593.885254L171.783783,590.871216L168.186050,588.513733L164.197601,586.903442L159.971649,586.102173L155.670486,586.140747L151.459518,587.017700L147.500610,588.699341L143.945908,591.120911L140.931763,594.189575L138.574280,597.787231L136.963974,601.775696L136.162720,606.001587L136.201294,610.302734L137.078247,614.513672L138.759903,618.472656L141.181473,622.027466L468.573700,1062.149414L478.410004,1071.270386L490.221649,1077.629028L503.251495,1080.817627L516.664612,1080.631958L1097.545044,964.707092L1543.075317,1067.254028L1544.388794,1067.456421L1545.715942,1067.387817L1547.001587,1067.051270L1548.192017,1066.460693L1549.237915,1065.640747L1550.095459,1064.625610L1550.728882,1063.457275L1551.112183,1062.184814L1551.229004,1060.860962L1551.074707,1059.541016L1550.655762,1058.279907L1411.762573,715.054993L1539.675537,352.588013L1540.776245,347.748657L1540.776245,342.785706L1539.675415,337.946289L1537.528564,333.471741L1534.442871,329.584717L1530.571899,326.478760L1062.723389,15.747803L1051.717773,11.208374L1039.824585,10.673340L261.850006,125.914001L257.215576,127.096497L253.002609,129.360718L249.459244,132.573303L246.794312,136.544922L245.164612,141.041687z" fill="#FEFEFE" stroke="none" fill-opacity="1" />
				<polygon points="1360.130005,432.787354 1332.378296,713.515991 596.340576,854.037292 292.965332,619.326538 401.623535,255.290527 1055.824829,209.603943" fill="#B42C1C" stroke="none" fill-opacity="1" />
				<polygon points="636.637817,276.827271 891.284424,198.617920 965.653503,613.500244 862.866333,635.293152 793.606628,507.086487 717.754517,392.712891" fill="#DBDBDB" stroke="none" fill-opacity="1" />
				<path d="M613.044800,200.009521L598.511841,206.088379L585.443909,214.885620L574.343384,226.063232L565.636780,239.191711L559.658691,253.766357L556.638916,269.227417L556.693420,284.980408L559.820129,300.420166L565.898926,314.953186L574.696106,328.021057L585.873779,339.121704L599.002197,347.828247L613.576965,353.806274L629.037964,356.826111L644.790894,356.771545L660.230713,353.644836L798.807922,350.225220L899.942749,569.288696L893.520447,569.028564L846.737915,478.383911L775.279419,354.562561L702.471313,230.745605L692.216309,218.787476L679.825317,209.059875L665.774841,201.936523L650.604431,197.691223L634.897400,196.487000L619.257324,198.370300L604.284973,203.268494L590.556091,210.993713L578.598022,221.248779L568.870422,233.639648L561.747131,247.690247L557.501709,262.860535L556.297546,278.567627L558.180786,294.207764L563.079102,309.179993L570.804260,322.908936L660.708679,431.585388L741.771973,538.189392L811.426819,663.081848L820.174927,675.239136L831.724792,684.774902L845.318359,691.063293L860.063538,693.691650L874.992737,692.487488L977.450806,669.142578L989.303650,665.229492L1000.017639,658.825195L1009.076538,650.238281L1016.044373,639.882080L1020.585632,628.255371L1022.481323,615.918091L1021.640442,603.464417L1007.212158,177.837524L1000.269836,153.972229L988.473999,132.095337L972.349731,113.180969L952.615234,98.071472L930.149353,87.439941L905.952698,81.759521L881.102783,81.283386L856.706360,86.032837z" fill="#3E0C18" stroke="none" fill-opacity="1" />
				<polygon points="640.334595,276.931702 894.689209,198.430725 968.648438,613.834106 865.708496,635.632812 796.922485,507.246216 721.640564,393.071777" fill="#FEFEFE" stroke="none" fill-opacity="1" />
				<path d="M633.324402,254.217712L629.027893,256.021729L625.165771,258.629395L621.886658,261.940369L619.316528,265.827393L617.554016,270.141174L616.666992,274.715942L616.689453,279.375793L617.620605,283.941833L619.424744,288.238403L622.032288,292.100403L625.343262,295.379578L629.230347,297.949768L633.544189,299.712219L638.118835,300.599243L642.778870,300.576721L647.344727,299.645569L887.947632,209.485352L944.208252,597.365051L872.849854,620.270020L813.893066,498.153809L741.453613,380.007935L659.808044,263.298889L656.774292,259.761841L653.108704,256.884460L648.952209,254.777588L644.464600,253.521973L639.818237,253.166199L635.191772,253.723511L630.762878,255.172791L626.701843,257.458130L623.164734,260.491943L620.287415,264.157654L618.180542,268.314026L616.925049,272.801575L616.569092,277.447998L617.126465,282.074524L618.575745,286.503296L620.861145,290.564392L702.009460,406.411560L780.366150,517.111877L853.764648,642.032043L855.788330,644.862976L858.466248,647.085205L861.621765,648.552002L865.046936,649.166809L868.515625,648.889038L973.035217,634.549683L977.445618,633.095215L981.432922,630.714233L984.805115,627.521362L987.400330,623.670105L989.093567,619.345764L989.803284,614.756348L989.495544,610.122437L903.131287,196.927673L902.626892,195.187012L901.767822,193.591187L900.592651,192.211670L899.153748,191.109863L897.515442,190.335022L895.750916,189.921814L893.938904,189.888733L892.160400,190.237183z" fill="#7D2A1D" stroke="none" fill-opacity="1" />
				<polygon points="903.253235,866.211670 877.036377,746.240356 1017.041870,734.794434 1040.081421,851.165161 973.173279,861.620850" fill="#DBDBDB" stroke="none" fill-opacity="1" />
				<path d="M841.315063,879.746704L845.145813,891.570190L851.209595,902.419189L859.273315,911.876648L869.027161,919.579285L880.096313,925.231018L892.055298,928.614624L904.444763,929.600220L916.788269,928.149780L928.611755,924.319092L939.460693,918.255371L948.918213,910.191589L956.620789,900.437744L962.272522,889.368591L965.656128,877.409546L966.641724,865.020142L965.191284,852.676575L953.074036,802.504700L964.235046,804.709717L981.202148,809.999023L965.725525,794.366089L899.099487,802.948120L886.036987,805.194214L873.727051,810.107056L862.707397,817.471924L853.459900,826.966919L846.388550,838.177185L841.802429,850.612610L839.902039,863.729858L840.770447,876.955505L844.369568,889.711548L850.542297,901.440674L859.018677,911.630066L869.428284,919.834473L881.316223,925.695312L894.162964,928.956360L907.406921,929.475220L977.606506,929.141479L1051.173706,922.146729L1067.075684,917.743958L1081.553589,909.829285L1093.844116,898.820251L1103.298584,885.297485L1109.418579,869.974304L1111.881226,853.658997L1110.556519,837.212158L1081.177002,722.096680L1076.242432,707.048584L1067.834595,693.628296L1056.446533,682.623413L1042.746704,674.679443L1027.538574,670.262573L1011.714600,669.631836L871.962219,684.174561L858.953857,686.650574L846.763123,691.821167L835.941284,699.452454L826.977661,709.199341L820.277527,720.621094L816.143860,733.201233L814.763550,746.371094L816.199097,759.534912z" fill="#3E0C18" stroke="none" fill-opacity="1" />
				<polygon points="906.080078,866.697021 880.352661,746.914795 1019.824341,734.795654 1042.885620,851.204956 976.164001,862.080200" fill="#FEFEFE" stroke="none" fill-opacity="1" />
				<path d="M894.499878,869.184204L895.207642,871.395630L896.333191,873.426453L897.833313,875.198608L899.650452,876.644104L901.714539,877.707397L903.946350,878.347473L906.260254,878.539856L908.567322,878.277100L910.778687,877.569336L912.809509,876.443848L914.581665,874.943726L916.027222,873.126648L917.090454,871.062500L917.730530,868.830566L917.922852,866.516724L917.660217,864.209717L888.743591,753.113647L1005.738770,753.546143L1020.774109,835.855103L974.366943,846.339966L905.301453,854.878296L903.010742,855.257324L900.837952,856.075928L898.866638,857.302673L897.172424,858.890503L895.820618,860.778259L894.863098,862.893433L894.336609,865.154846L894.261414,867.475525L894.640381,869.766235L895.458984,871.939087L896.685730,873.910400L898.273560,875.604492L900.161316,876.956360L902.276550,877.913879L904.537964,878.440369L906.858582,878.515625L977.204163,877.870300L1045.895020,869.668457L1050.012207,868.501404L1053.756470,866.429321L1056.931763,863.560547L1059.372070,860.045288L1060.949707,856.067383L1061.582031,851.834961L1061.236084,847.569641L1036.952393,731.402466L1035.627930,727.370605L1033.369873,723.777466L1030.311646,720.835083L1026.633911,718.717407L1022.554016,717.549438L1018.312805,717.400330L879.755188,740.038574L878.322021,740.318237L876.979736,740.893066L875.788391,741.737427L874.801331,742.813599L874.062744,744.073242L873.605652,745.460083L873.450684,746.912048L873.604553,748.364136z" fill="#7D2A1D" stroke="none" fill-opacity="1" />
			</g>
			<g id="layer.Layer.uuid_0x2" />
		</g>
	</g>
</svg>
