<?xml version="1.0" encoding="UTF-8"?>
<!-- Generator: Blender, SVG Export for Grease Pencil - v2.0 -->
<!DOCTYPE svg PUBLIC "-//W3C//DTD SVG 1.1//EN" "http://www.w3.org/Graphics/SVG/1.1/DTD/svg11.dtd">
<svg version="1.1" x="0px" y="0px" xmlns="http://www.w3.org/2000/svg" width="1920.000000px" height="1080.000000px" viewBox="0 0 1920.000000 1080.000000">
	<g id="blender_frame.2">
		<g id="blender_object.Stroke.003.2.uuid_0x0">
			<g id="layer.chair.uuid_0x1">
				<polygon points="192.254501,625.544067 339.312500,139.597656 1043.012817,37.996948 1545.462036,358.841980 1410.658203,727.144897 1557.716431,1070.047485 1079.776978,904.946167 467.033661,1019.247131" fill="#C44C21" stroke="none" fill-opacity="1" />
				<path d="M171.253677,619.188721L170.417404,623.407959L170.420212,627.709167L171.262146,631.927246L172.910843,635.899963L175.302887,639.474731L178.346390,642.514221L181.924255,644.901489L185.899246,646.544861L190.118393,647.381226L194.419724,647.378357L198.637726,646.536377L202.610550,644.887695L206.185211,642.495667L209.224716,639.452271L211.612015,635.874268L213.255325,631.899414L354.540680,157.308716L1035.239746,74.032227L1518.441162,367.971191L1391.143799,720.002319L1389.979248,725.093750L1390.120972,730.314697L1391.559937,735.335327L1545.931030,1059.087158L1086.211060,886.320740L1076.163452,885.574829L490.920837,960.889648L210.247131,612.986389L207.451569,609.717529L204.071960,607.056885L200.238190,605.106567L196.097595,603.941772L191.809387,603.607117L187.538269,604.115479L183.448380,605.447327L179.696899,607.551514L176.428070,610.347046L173.767365,613.726624L171.817123,617.560425L170.652298,621.700928L170.317657,625.989197L170.826004,630.260315L172.157883,634.350159L174.261993,638.101624L423.582581,1049.573242L431.607971,1058.651367L441.485809,1065.668945L452.699585,1070.259033L464.663025,1072.181519L476.750366,1071.336182L1078.268188,925.272949L1555.590332,1076.202026L1556.919189,1076.509888L1558.283081,1076.534302L1559.622070,1076.273804L1560.877319,1075.740234L1561.993896,1074.956787L1562.922852,1073.958008L1563.623291,1072.787476L1564.064575,1071.496826L1564.227173,1070.142456L1564.104126,1068.784058L1563.700684,1067.480957L1433.008789,726.538208L1566.343872,366.485046L1567.524170,361.621094L1567.586914,356.616333L1566.528809,351.724426L1564.403198,347.192993L1561.317993,343.251709L1557.429565,340.100403L1061.609863,8.873657L1050.298706,4.219116L1038.074829,3.796875L336.496613,120.094543L332.184967,121.226501L328.237946,123.298706L324.857819,126.205017L322.217377,129.796753L320.451843,133.890076z" fill="#FEFEFE" stroke="none" fill-opacity="1" />
				<polygon points="1374.477539,439.703552 1346.924561,717.070435 568.094971,849.324890 327.466217,638.085266 459.720215,250.506348 1047.515991,198.461731" fill="#B42C1C" stroke="none" fill-opacity="1" />
				<polygon points="653.504639,260.114868 890.752625,179.765015 937.837830,583.304443 829.554688,617.384277 770.871338,498.294495 712.187866,379.204773" fill="#DBDBDB" stroke="none" fill-opacity="1" />
				<path d="M627.727295,184.002441L613.373779,190.493835L600.562500,199.660767L589.785828,211.150879L581.457703,224.522705L575.898376,239.262207L573.321411,254.803101L573.825745,270.548218L577.392273,285.892334L583.883606,300.245850L593.050476,313.057068L604.540649,323.833801L617.912415,332.161865L632.651978,337.721191L648.192871,340.298218L663.937927,339.793762L679.282043,336.227356L790.643066,338.016174L875.890015,543.171448L859.834167,546.561462L825.040222,471.601868L774.104553,348.694336L725.587402,224.595032L717.272888,211.214966L706.507629,199.713928L693.705566,190.534180L679.358582,184.028442L664.018066,180.446472L648.273499,179.926270L632.730042,182.487610L617.984863,188.032166L604.604736,196.346802L593.103760,207.112000L583.924011,219.914062L577.418152,234.260986L573.836304,249.601501L573.316040,265.346130L575.877441,280.889648L581.421997,295.634766L650.271240,409.715088L716.702332,524.987061L777.110413,643.226990L784.618225,654.786865L794.623718,664.267822L806.570740,671.142822L819.795410,675.029663L833.562378,675.712402L847.106689,673.153076L954.913635,637.559998L966.849609,632.228516L977.253174,624.312744L985.574707,614.230835L991.374634,602.515381L994.346680,589.785034L994.333679,576.712463L1007.734375,166.115417L1001.832886,140.621155L990.447388,117.059387L974.140320,96.593201L953.716492,80.233032L930.184204,68.786560L904.705322,62.818970L878.537598,62.624756L852.972900,68.213440z" fill="#3E0C18" stroke="none" fill-opacity="1" />
				<polygon points="656.678223,260.114929 893.926086,179.765015 941.011414,583.304443 832.728149,617.384277 774.044800,498.294495 715.361511,379.204773" fill="#FEFEFE" stroke="none" fill-opacity="1" />
				<path d="M649.052917,237.600037L644.807068,239.520325L641.017334,242.231995L637.829407,245.630859L635.365906,249.586365L633.721375,253.946472L632.959106,258.543701L633.108337,263.201233L634.163269,267.740173L636.083496,271.986145L638.795166,275.775879L642.194031,278.963745L646.149597,281.427246L650.509766,283.071838L655.106995,283.834106L659.764465,283.684875L664.303406,282.629883L886.637390,191.286804L917.949402,568.363770L839.745850,600.970276L791.314819,489.784424L736.649536,368.714722L678.001099,249.607788L675.541504,245.649841L672.357056,242.247681L668.570129,239.532227L664.326050,237.607666L659.788147,236.548218L655.130737,236.394165L650.532898,237.151917L646.171082,238.792114L642.213013,241.251709L638.810913,244.436096L636.095459,248.223145L634.170898,252.467102L633.111389,257.005066L632.957458,261.662476L633.715210,266.260315L635.355286,270.622131L694.073486,389.694702L756.774780,506.804565L820.573608,623.373596L822.313599,626.052734L824.632507,628.250122L827.401367,629.843384L830.466309,630.744263L833.656921,630.902466L836.796082,630.309326L947.368347,603.502686L951.811829,601.517944L955.684875,598.571045L958.782898,594.817749L960.942078,590.456299L962.048401,585.717041L962.043640,580.850403L902.443237,178.771179L902.013550,176.915100L901.184570,175.199585L899.997375,173.709473L898.510315,172.518372L896.796997,171.684937L894.942017,171.250549L893.036804,171.236389L891.175476,171.643250z" fill="#7D2A1D" stroke="none" fill-opacity="1" />
				<polygon points="861.575439,830.780518 838.561707,719.618408 987.631470,688.756836 1010.645325,799.918945 936.110413,815.349731" fill="#DBDBDB" stroke="none" fill-opacity="1" />
				<path d="M799.492310,843.633606L803.192688,855.498413L809.136719,866.413391L817.095947,875.959045L826.764526,883.768494L837.770813,889.541626L849.691895,893.056580L862.069702,894.178345L874.428467,892.863770L886.293396,889.163330L897.208313,883.219299L906.753967,875.260071L914.563354,865.591492L920.336548,854.585205L923.851501,842.664062L924.973267,830.286255L923.658630,817.927490L912.166138,767.973633L936.863708,766.033569L950.600769,760.471924L922.392639,749.088867L848.722534,768.697327L836.857666,772.397705L825.942749,778.341736L816.397095,786.300964L808.587646,795.969482L802.814514,806.975769L799.299500,818.896851L798.177734,831.274658L799.492310,843.633484L803.192688,855.498352L809.136719,866.413330L817.095886,875.958923L826.764404,883.768372L837.770813,889.541504L849.691895,893.056519L862.069580,894.178284L874.428406,892.863708L949.828247,881.610596L1025.210083,870.270203L1040.499390,865.265381L1054.291992,856.983887L1065.895630,845.840820L1074.729126,832.395142L1080.348999,817.320923L1082.473633,801.374023L1080.996460,785.354248L1051.653931,675.502319L1047.099365,661.588257L1039.562744,649.036682L1029.422241,638.476746L1017.186035,630.438110L1003.467896,625.323730L988.955811,623.390259L974.377136,624.734375L825.937134,658.638550L812.684448,662.976685L800.729248,670.155029L790.671143,679.813721L783.014465,691.468323L778.143127,704.534546L776.301575,718.357117L777.581848,732.242920z" fill="#3E0C18" stroke="none" fill-opacity="1" />
				<polygon points="864.748901,830.780579 841.735168,719.618408 990.805054,688.756836 1013.818909,799.919006 939.283997,815.349792" fill="#FEFEFE" stroke="none" fill-opacity="1" />
				<path d="M853.150696,833.181763L853.841980,835.398315L854.952393,837.437500L856.439331,839.220825L858.245605,840.679688L860.301819,841.758301L862.528931,842.414917L864.841309,842.624512L867.150146,842.378906L869.366760,841.687622L871.405884,840.577148L873.189209,839.090210L874.648132,837.283936L875.726624,835.227783L876.383301,833.000671L876.592834,830.688293L876.347290,828.379395L849.893188,724.977783L977.246643,709.394836L991.707764,785.392883L936.075867,799.854126L862.347778,819.182312L860.131165,819.873596L858.092163,820.984070L856.308899,822.471008L854.849915,824.277222L853.771301,826.333435L853.114685,828.560547L852.905029,830.872864L853.150696,833.181763L853.841980,835.398315L854.952393,837.437439L856.439331,839.220764L858.245605,840.679688L860.301819,841.758301L862.528870,842.414917L864.841309,842.624512L867.150146,842.378906L942.492004,830.845520L1017.611389,818.237671L1021.592468,816.934448L1025.183960,814.778076L1028.205444,811.876526L1030.505615,808.375427L1031.968872,804.450317L1032.522095,800.297913L1032.137451,796.126587L1007.903320,685.216919L1006.686951,681.500977L1004.674194,678.148804L1001.965881,675.328613L998.698059,673.181763L995.034424,671.815918L991.158630,671.299561L987.265320,671.658569L840.335938,712.859619L838.867065,713.340454L837.542053,714.136108L836.427246,715.206604L835.578613,716.498291L835.038696,717.946533L834.834534,719.478516L834.976501,721.017578z" fill="#7D2A1D" stroke="none" fill-opacity="1" />
			</g>
			<g id="layer.Layer.uuid_0x2" />
		</g>
	</g>
</svg>
