<?xml version="1.0" encoding="UTF-8"?>
<!-- Generator: Blender, SVG Export for Grease Pencil - v2.0 -->
<!DOCTYPE svg PUBLIC "-//W3C//DTD SVG 1.1//EN" "http://www.w3.org/Graphics/SVG/1.1/DTD/svg11.dtd">
<svg version="1.1" x="0px" y="0px" xmlns="http://www.w3.org/2000/svg" width="980.000000px" height="1080.000000px" viewBox="0 0 980.000000 1080.000000">
	<g id="blender_frame.25">
		<g id="blender_object.Stroke.25.uuid_0x0">
			<g id="layer.Fills.uuid_0x1">
				<polyline points="817.804932,891.151245 857.682617,837.480042 873.012451,774.902100 963.244080,777.898804 899.089111,876.399536 828.653564,916.992004 772.327271,916.940491" fill="#6B57C1" stroke="none" fill-opacity="1" />
			</g>
			<g id="layer.black.uuid_0x2" />
			<g id="layer.skin.uuid_0x3" />
			<g id="layer.yella.uuid_0x4" />
			<g id="layer.red.uuid_0x5">
				<polyline points="404.123718,692.758789 355.590088,806.902710 317.841583,788.927368 268.409210,785.332275 313.347870,788.927368 451.758514,850.942566 708.447083,971.737549 516.470093,959.873779 217.718979,926.439453 136.829620,840.157227 143.300858,807.801453 314.606384,702.285645" fill="#D19048" stroke="none" fill-opacity="1" />
				<path d="M408.866272,694.775269L409.168579,693.811340L409.276886,692.806946L409.187286,691.800659L408.902985,690.831177L408.435150,689.935852L407.801575,689.148987L407.026672,688.500854L406.140228,688.016296L405.176239,687.713989L404.171783,687.605591L403.165558,687.695251L402.196136,687.979492L401.300690,688.447388L400.513855,689.080933L399.865662,689.855835L399.381195,690.742310L353.994476,802.691406L319.201569,786.071167L318.071014,785.772217L268.508789,783.961548L268.222321,783.970764L267.943939,784.039185L267.685822,784.163757L267.459229,784.339172L267.273834,784.557861L267.137939,784.810181L267.057281,785.085205L267.035461,785.371094L267.073364,785.655273L267.169403,785.925293L267.319458,786.169556L267.516785,786.377380L267.753021,786.539795L268.017822,786.649658L268.299591,786.702148L312.578644,791.933228L450.506256,853.669067L688.042480,966.510376L516.816772,955.879700L219.216202,923.451904L143.157288,838.352234L148.666077,811.535889L317.233307,706.550415L318.014893,705.956055L318.665436,705.220520L319.160034,704.372253L319.479614,703.443787L319.611908,702.470825L319.551880,701.490723L319.301758,700.541199L318.871185,699.658752L318.276733,698.877197L317.541321,698.226624L316.692963,697.732056L315.764587,697.412415L314.791595,697.280151L313.811462,697.340210L312.861938,697.590332L311.979523,698.020813L140.157730,802.698486L138.895050,803.738281L137.960648,805.080872L137.423920,806.626099L131.092590,839.009766L130.983688,840.392578L131.203369,841.762146L131.739349,843.041504L132.561371,844.158752L215.431473,928.583984L216.314270,929.242676L217.370331,929.555542L516.024353,963.856628L708.202942,975.688599L709.041992,975.651245L709.854370,975.437561L710.603271,975.057373L711.255249,974.527771L711.780579,973.872498L712.156006,973.121216L712.364441,972.307556L712.396545,971.468201L712.250854,970.641052L711.933899,969.863159L711.459900,969.169739L710.850464,968.591919L710.132629,968.155640L453.035980,848.227905L314.598145,786.136963L269.779388,785.436890L317.018677,792.039246L354.250244,809.716187L354.928314,809.947876L355.641388,810.018494L356.351746,809.924377L357.021820,809.670532L357.616241,809.270264L358.103485,808.744873L358.457794,808.122070z" fill="#000000" stroke="none" fill-opacity="1" />
				<polyline points="642.705017,776.399780 574.397888,824.934021 559.118591,805.160828 633.666077,708.248474 864.762939,710.112244 877.808838,734.340332 825.625549,851.753296 547.936584,971.029907 410.023956,1056.759888 385.795990,1060.487427 329.885437,1021.349609 325.571350,976.051636 367.633820,945.852966 445.287537,905.947449 465.779419,910.261414 642.657104,777.602783 708.806580,750.819580" fill="#D19048" stroke="none" fill-opacity="1" />
				<path d="M644.413940,778.804932L644.850281,778.425293L645.204285,777.967896L645.462219,777.450195L645.614136,776.892029L645.654236,776.315063L645.581055,775.741333L645.397339,775.192871L645.110168,774.690796L644.730530,774.254395L644.273071,773.900452L643.755310,773.642578L643.197266,773.490601L642.620300,773.450439L642.046509,773.523682L641.498108,773.707397L640.996094,773.994568L575.277100,819.019531L563.653442,805.155884L635.138489,711.269409L860.771240,716.734314L870.424072,734.620117L822.443115,848.530762L546.242920,967.086914L408.026672,1051.362305L386.939514,1055.582397L334.033173,1018.933167L328.877441,977.554199L369.209625,948.430786L446.216400,912.858643L464.530762,916.193115L466.240723,916.305542L467.913940,915.934937L469.416473,915.110779L644.122559,780.197388L709.278748,751.985718L709.497192,751.871216L709.689087,751.716309L709.847046,751.526855L709.965088,751.310303L710.038513,751.074829L710.064697,750.829590L710.042480,750.583984L709.972778,750.347412L709.858215,750.128967L709.703247,749.937073L709.513855,749.779114L709.297363,749.661133L709.061890,749.587585L708.816650,749.561523L708.570984,749.583679L708.334473,749.653442L641.548218,774.863892L464.340088,903.763855L446.641327,899.516785L444.412109,899.434387L442.283813,900.102478L366.256653,943.173096L323.735046,973.493896L323.137634,974.053772L322.704895,974.748779L322.465820,975.531860L322.436920,976.350159L325.546906,1021.762817L325.843628,1022.979553L326.473999,1024.061768L327.386230,1024.919922L383.115631,1064.316528L384.165863,1064.867920L385.320953,1065.137207L386.506744,1065.107056L410.881348,1062.333008L413.000793,1061.548706L549.927368,974.845276L827.289795,855.627869L828.193237,855.098389L828.938232,854.362610L829.479004,853.465942L883.871643,737.034912L884.400330,735.096191L884.324219,733.088074L883.650452,731.194824L870.621643,706.957520L869.580811,705.522644L868.198059,704.413452L866.571533,703.708740L864.816589,703.458374L633.690369,705.239624L632.777832,705.373535L631.948792,705.777710L631.281067,706.413940L556.272095,802.971130L555.864441,803.641602L555.612122,804.384644L555.527344,805.164734L555.613892,805.944702L555.867798,806.687134L556.276855,807.356750L570.985840,827.570679L571.638916,828.248047L572.423645,828.767639L573.302185,829.104614L574.233032,829.243042L575.171692,829.176147L576.073486,828.907288L576.895508,828.449219z" fill="#000000" stroke="none" fill-opacity="1" />
				<polyline points="754.284485,959.154663 795.089417,930.214233 758.239624,884.376953 727.681458,875.389282 691.730774,884.376770 657.577148,912.238586" fill="#D19048" stroke="none" fill-opacity="1" />
				<path d="M752.305969,956.365051L751.799683,956.804688L751.388977,957.334534L751.089600,957.934387L750.912903,958.581177L750.865723,959.250000L750.950012,959.915100L751.162415,960.550964L751.494812,961.133240L751.934387,961.639465L752.464355,962.050171L753.064148,962.349670L753.710938,962.526306L754.379700,962.573425L755.044800,962.489136L755.680725,962.276733L756.263000,961.944336L798.374817,934.846619L799.355652,933.962891L800.105957,932.876465L800.585022,931.646179L800.767212,930.338501L800.642395,929.024170L800.217529,927.774109L799.515564,926.656006L762.111450,881.264282L761.003052,880.248535L759.641418,879.610962L728.671021,872.025085L726.831116,871.987305L690.971252,881.338562L689.751221,881.950073L655.094482,909.195190L654.548401,909.738037L654.118774,910.376953L653.822021,911.087463L653.669556,911.842163L653.667358,912.612061L653.815430,913.367676L654.107849,914.079834L654.533813,914.721313L655.076599,915.267395L655.715576,915.697021L656.426086,915.993774L657.180725,916.146179L657.950684,916.148438L658.706299,916.000427L659.418457,915.707947L660.059937,915.281982L693.168579,887.245361L727.606873,879.022583L755.343628,888.703552L786.883850,929.071472z" fill="#000000" stroke="none" fill-opacity="1" />
				<polyline points="357.153259,268.026184 289.745361,502.604370 248.401901,531.364929 231.549973,540.102905 209.080582,543.223633 236.543015,507.647400 227.180847,513.264709 195.973495,528.868286 160.397354,540.727112 148.538589,509.519897 144.793793,453.346863 152.283432,420.891418 172.880280,374.704712 149.786850,394.677307 118.579559,414.649902 127.317696,372.832214 146.041946,342.249207 161.645508,326.021423 194.725220,302.928040 177.873291,292.317627 163.518051,278.586426 156.652496,264.855225 152.283264,251.748291 184.738724,253.620667 208.456421,248.003357 234.670486,234.272156 264.005341,222.413391 317.931641,207.433716" fill="#D19048" stroke="none" fill-opacity="1" />
				<path d="M360.092072,268.870667L360.200348,268.281128L360.191559,267.681763L360.065979,267.095642L359.828461,266.545288L359.488159,266.051880L359.058075,265.634338L358.554840,265.308594L357.997742,265.087402L357.408264,264.979126L356.808868,264.987976L356.222717,265.113586L355.672394,265.351074L355.178955,265.691406L354.761414,266.121399L354.435699,266.624695L354.214508,267.181702L286.717041,500.436035L246.423447,528.087402L230.351044,536.336731L218.573730,537.716064L240.559998,510.748230L241.124725,509.829163L241.482300,508.811462L241.616745,507.741211L241.521896,506.666687L241.202148,505.636536L240.671814,504.697144L239.954971,503.891113L239.083969,503.254822L238.098114,502.816956L237.042053,502.597473L235.963394,502.606079L234.910858,502.842468L233.932175,503.296082L224.778625,508.888672L194.191925,524.567261L163.345352,534.512756L153.865860,508.357361L150.750031,453.825012L157.652145,422.689148L176.844574,376.472534L177.124222,375.616028L177.220917,374.720276L177.130615,373.823792L176.857178,372.965332L176.412384,372.181763L175.815353,371.506836L175.091965,370.969727L174.273193,370.593628L173.394455,370.394653L172.493530,370.381348L171.609238,370.554321L170.779846,370.906067L170.040833,371.421631L146.799484,390.674927L126.902100,402.581970L132.177765,374.760376L149.620331,345.012512L164.295547,329.121887L196.707504,305.767578L197.276810,305.269226L197.724442,304.659241L198.028793,303.966614L198.175446,303.224365L198.157547,302.468079L197.975693,301.733582L197.638718,301.056213L197.162704,300.468140L196.570358,299.997620L180.162796,289.383118L166.777664,276.181580L160.508301,263.258057L158.367752,256.405701L184.520126,257.410828L209.302139,251.574036L236.197769,237.573242L265.114166,225.676819L318.554535,209.676331L318.980072,209.511780L319.365356,209.267273L319.695435,208.952271L319.957855,208.579041L320.142395,208.161743L320.241852,207.716370L320.252594,207.260254L320.174225,206.810791L320.009583,206.385254L319.765137,206.000000L319.450195,205.669861L319.076843,205.407471L318.659515,205.222961L318.214233,205.123413L317.758148,205.112671L317.308685,205.191101L263.084320,219.097900L233.308929,230.904175L207.162201,244.538940L184.403564,249.798462L152.530914,247.456055L151.602341,247.503235L150.705582,247.748962L149.882629,248.181641L149.171951,248.781128L148.606903,249.519470L148.213699,250.362000L148.010727,251.269409L148.007751,252.199219L148.204651,253.107849L152.703156,266.171692L159.948349,280.371277L175.313644,294.993591L188.462219,303.076904L159.321960,322.693054L142.802017,339.133850L122.924080,370.142273L113.021500,413.488464L112.901566,414.691284L113.038963,415.892273L113.427490,417.036865L114.049469,418.073242L114.876656,418.954590L115.871773,419.640869L116.989578,420.100952L118.179413,420.313965L119.387390,420.270325L120.558701,419.972046L121.640396,419.432495L152.472092,398.872986L160.977692,390.737671L147.136505,418.596069L139.033981,452.017639L143.157867,509.878540L155.757858,542.490112L156.250290,543.453857L156.939865,544.287903L157.793823,544.952698L158.771667,545.416504L159.826752,545.657410L160.908966,545.663818L161.966858,545.435547L197.441940,533.273743L229.411697,517.726501L232.751129,511.019836L205.796127,540.688293L205.330627,541.447693L205.038010,542.289124L204.931702,543.173584L205.016617,544.060303L205.288864,544.908508L205.735809,545.679016L206.337036,546.336365L207.064758,546.850220L207.885300,547.196960L208.761002,547.360535L209.651367,547.333435L232.085770,543.961182L250.160416,534.756470L291.749481,505.485291L292.598694,504.647461L293.118256,503.573669z" fill="#000000" stroke="none" fill-opacity="1" />
				<polygon points="550.488770,67.750488 551.986633,41.536377 559.176758,17.269531 569.063354,4.686768 589.735107,24.459839 577.152283,31.650024 559.176758,54.118896" fill="#D19048" stroke="none" fill-opacity="1" />
				<path d="M547.777954,67.595764L547.799805,68.127502L547.924988,68.644775L548.148743,69.127869L548.462463,69.557861L548.853943,69.918518L549.308289,70.195679L549.807922,70.379028L550.333923,70.461243L550.865662,70.439453L551.382935,70.314270L551.865906,70.090454L552.295959,69.776917L552.656555,69.385315L552.933838,68.931030L553.117249,68.431274L553.199524,67.905457L553.961914,41.880737L561.770081,18.609863L569.402283,9.463501L584.977173,23.876343L576.303284,30.164185L575.816101,30.581055L557.996338,53.174561L548.198975,66.291199L547.958313,66.765991L547.814880,67.278625L547.774170,67.809265L547.837830,68.337769L548.003296,68.843567L548.264221,69.307495L548.610779,69.711548L549.029419,70.040344L549.504150,70.281006L550.016663,70.424438L550.547485,70.465210L551.075867,70.401489L551.581726,70.236084L552.045654,69.975159L552.449707,69.628601L552.778442,69.209900L560.407959,54.999878L578.284607,32.973755L591.157593,26.949097L591.638000,26.604370L592.037415,26.168579L592.338989,25.660034L592.529724,25.100342L592.601685,24.513428L592.551819,23.924438L592.382019,23.358032L592.099792,22.838501L591.716980,22.387817L571.287415,2.361694L570.757935,1.951782L570.155090,1.660156L569.504944,1.499756L568.835693,1.477295L568.176270,1.593994L567.555298,1.844604L566.999634,2.218384L566.533325,2.698975L556.922302,15.498169L556.427795,16.455078L550.076965,40.970581z" fill="#000000" stroke="none" fill-opacity="1" />
				<polyline points="236.262314,235.803162 263.828888,223.840332 323.643036,209.276917 350.169373,253.487305 342.887695,309.660522 264.869171,277.413025 269.183350,262.313660 212.021591,272.020447 234.670486,234.272156" fill="#DDC759" stroke="none" fill-opacity="1" />
				<polygon points="566.715759,74.491150 575.079346,58.887329 589.434753,42.035522 613.776306,34.545654 634.997253,39.538940 621.266113,79.484131 605.662598,74.491028 583.193359,75.739197" fill="#D19048" stroke="none" fill-opacity="1" />
				<path d="M564.411255,73.255920L564.214539,73.729309L564.114014,74.231873L564.113403,74.744446L564.212830,75.247253L564.408447,75.721069L564.692688,76.147522L565.054749,76.510437L565.480591,76.795593L565.953857,76.992371L566.456421,77.093018L566.968994,77.093567L567.471863,76.994141L567.945679,76.798584L568.372192,76.514282L568.735046,76.152222L569.020325,75.726379L576.159180,59.624207L590.505737,43.663574L613.908325,38.461304L629.628052,42.502197L620.261414,77.481628L606.504395,71.860596L583.220825,73.006042L566.913269,71.883972L566.400818,71.895447L565.900513,72.006897L565.431519,72.213684L565.011841,72.507935L564.657654,72.878479L564.382629,73.311035L564.197266,73.788818L564.108582,74.293640L564.120117,74.806091L564.231506,75.306458L564.438293,75.775452L564.732544,76.195068L565.103027,76.549377L565.535645,76.824280L566.013428,77.009705L566.518372,77.098450L582.987305,78.458679L605.306641,77.276855L620.778076,81.009033L621.124756,81.078979L621.478333,81.071106L621.821594,80.985779L622.137695,80.827087L622.411316,80.603027L622.628967,80.324280L622.780212,80.004578L638.888062,40.876343L639.080872,40.040527L639.096130,39.182983L638.933228,38.340942L638.599365,37.550781L638.108948,36.847168L637.483215,36.260620L636.749512,35.816406L635.939636,35.534058L614.642456,30.864746L612.664246,30.931519L588.884460,40.247192L588.406433,40.472290L588.010376,40.822144L574.089722,58.044312z" fill="#000000" stroke="none" fill-opacity="1" />
				<polyline points="349.014008,238.516174 349.014008,251.997864 340.026276,254.993713 331.038544,241.512085 325.795654,226.532471 319.803864,205.561035 333.285492,192.079407" fill="#20116D" stroke="none" fill-opacity="1" />
				<path d="M352.260498,238.516174L352.198090,237.882874L352.013336,237.273804L351.713318,236.712585L351.309631,236.220581L350.817657,235.816833L350.256378,235.516846L349.647308,235.332092L349.014008,235.269714L348.380646,235.332092L347.771637,235.516846L347.210388,235.816895L346.718384,236.220581L346.314697,236.712585L346.014679,237.273865L345.829926,237.882874L345.767517,238.516174L345.755524,249.649414L341.345337,251.149353L333.936493,240.067871L328.580566,225.648193L322.316437,206.212158L334.459534,193.253418L334.666046,193.001892L334.819397,192.714783L334.913910,192.403320L334.945862,192.079407L334.913910,191.755493L334.819397,191.444092L334.665955,191.156921L334.459473,190.905396L334.207886,190.698853L333.920807,190.545410L333.609344,190.450928L333.285492,190.419006L332.961487,190.450928L332.650055,190.545410L332.362976,190.698853L332.111359,190.905396L318.222015,203.979187L317.862000,204.450500L317.638367,204.999817L317.567078,205.588745L317.652924,206.175598L322.987244,227.334900L328.006500,242.573364L337.338806,256.785522L337.788574,257.322998L338.343658,257.750854L338.978058,258.048950L339.661804,258.203125L340.362610,258.206238L341.047729,258.058044L350.044434,255.089172L350.776642,254.738403L351.399475,254.217712L351.874176,253.559021L352.171326,252.803467L352.272491,251.997864z" fill="#000000" stroke="none" fill-opacity="1" />
				<polyline points="487.798798,588.661255 602.841614,745.945862 731.365906,621.915588 721.479492,578.774780 704.402832,551.811768 676.540833,541.026367 511.166962,413.401611 498.559204,380.097290 446.546814,350.450195 404.416748,410.264587" fill="#DDC759" stroke="none" fill-opacity="1" />
				<path d="M492.795929,585.006226L491.986816,584.101501L491.016846,583.372070L489.923126,582.845947L488.747711,582.543213L487.536041,582.475647L486.334290,582.645752L485.188843,583.046997L484.143799,583.664062L483.239044,584.473145L482.509613,585.443176L481.983490,586.536865L481.680786,587.712219L481.613220,588.924072L481.783325,590.125732L482.184570,591.271118L482.801605,592.316284L600.296631,747.807373L600.748474,748.304016L601.295288,748.693726L601.912170,748.958862L602.571228,749.087402L603.242615,749.073364L603.895813,748.917542L604.501099,748.626953L605.031128,748.214783L736.437195,627.170654L737.606812,625.708252L738.366028,623.996582L738.665100,622.148132L738.484314,620.284302L730.592163,576.686462L710.938599,547.672424L709.314087,545.834290L707.195679,544.597168L679.138733,536.417786L516.065857,409.771545L505.194427,377.585510L503.951996,375.487122L502.072540,373.933533L448.533264,346.965210L447.625244,346.586487L446.652344,346.440186L445.673218,346.535156L444.746582,346.865540L443.928223,347.411499L443.267303,348.140198L400.915771,407.798645L400.501984,408.528992L400.238617,409.326050L400.135864,410.159241L400.197540,410.996460L400.421387,411.805481L400.798767,412.555298L401.315186,413.217102L401.950897,413.765564L402.681274,414.179321L403.478333,414.442688L404.311462,414.545471L405.148651,414.483704L405.957733,414.259949L406.707642,413.882507L407.369385,413.366089L407.917786,412.730408L447.727203,355.740173L492.827850,384.996826L505.680206,415.478699L507.582642,418.046082L673.342102,545.171204L699.231689,558.105713L712.724670,582.424011L723.325989,619.525513L603.252869,741.167114z" fill="#000000" stroke="none" fill-opacity="1" />
				<polyline points="367.314270,468.925110 358.326630,342.198975 310.691742,285.576660 256.765381,281.082825 230.551285,332.886780 194.974991,604.579712 212.051697,727.171387 258.787872,782.370728 264.555054,699.858887 293.889832,757.280273 292.641541,699.858887" fill="#DDC759" stroke="none" fill-opacity="1" />
				<path d="M362.999481,469.231140L363.142090,470.067017L363.445068,470.859070L363.896698,471.576721L364.479614,472.192505L365.171539,472.682739L365.945831,473.028564L366.772644,473.216736L367.620270,473.239868L368.456207,473.097290L369.248199,472.794373L369.965851,472.342773L370.581665,471.759827L371.071930,471.067871L371.417725,470.293640L371.605804,469.466736L371.629089,468.619141L359.881653,342.088623L359.771332,341.613342L359.519592,341.195374L312.988190,283.644775L312.407623,283.114624L311.709259,282.753479L310.941010,282.586060L257.115997,276.876160L256.118164,276.911499L255.156372,277.180298L254.284805,277.667358L253.551956,278.345581L252.998947,279.176880L227.739075,331.463745L192.172211,604.212769L208.113556,727.720032L208.421921,728.794556L209.017181,729.740723L255.604141,785.066406L256.253754,785.684570L257.020569,786.149597L257.869049,786.439941L258.759949,786.542358L259.652130,786.451904L260.504395,786.172852L261.277313,785.718140L261.935242,785.108765L262.447662,784.372803L262.791016,783.544373L262.949341,782.661682L267.911102,716.308289L289.887024,759.325195L290.392822,760.104126L291.047852,760.762634L291.824219,761.272400L292.688812,761.611694L293.604706,761.766052L294.532745,761.728882L295.433289,761.501831L296.268005,761.094482L297.001190,760.524292L297.601501,759.815552L298.043274,758.998596L298.307800,758.108276L298.383636,757.182617L297.135315,699.761230L297.029907,698.886414L296.755859,698.048950L296.323700,697.281128L295.750061,696.612305L295.056885,696.068237L294.271027,695.669861L293.422455,695.432434L292.543884,695.365173L291.669037,695.470581L290.831604,695.744629L290.063721,696.176758L289.394928,696.750427L288.850800,697.443604L288.452515,698.229492L288.215088,699.078003L288.147797,699.956604L288.969757,737.769470L268.557800,697.813965L268.071899,697.059692L267.445862,696.416870L266.704498,695.911255L265.877533,695.562988L264.997894,695.385864L264.100555,695.387085L263.221436,695.566406L262.395386,695.916870L261.655365,696.424438L261.030914,697.068848L260.546936,697.824402L260.222687,698.661072L260.071106,699.545471L255.341766,771.844788L215.830872,725.481567L197.827423,604.567993L233.606598,333.829651L259.248169,285.525635L309.198853,288.463562L356.807556,342.814697z" fill="#000000" stroke="none" fill-opacity="1" />
				<polyline points="348.265045,265.479431 349.762909,239.265076 325.046600,153.881470 313.063141,146.391724 293.589722,131.412109 276.363251,110.440674 268.124359,94.712036 325.046753,111.189575 301.079498,76.736511 294.338715,58.012024 286.848877,27.303833 349.763092,56.514099 371.483521,65.501831 392.454865,70.744690 407.434357,68.497742 438.891388,66.999817 498.809601,71.493774 536.258545,78.234619 555.731873,82.728455 559.791748,96.394104 571.231506,146.899597 581.904114,202.089966 582.241394,213.551453 533.557922,289.947327 521.574219,306.424866 513.335449,315.412598 481.878448,301.931091 421.211304,268.227051 418.964355,292.943237" fill="#DDC759" stroke="none" fill-opacity="1" />
				<path d="M345.195190,265.304077L345.219879,265.906311L345.361664,266.492188L345.614990,267.039124L345.970276,267.526123L346.413635,267.934509L346.928162,268.248535L347.494110,268.456177L348.089630,268.549377L348.691864,268.524597L349.277802,268.382812L349.824707,268.129456L350.311737,267.774231L350.720093,267.330811L351.034119,266.816345L351.241730,266.250427L351.334930,265.654846L353.013794,239.450928L326.193695,153.549377L325.999420,153.161743L325.679504,152.868896L314.083221,144.923401L295.839325,129.089417L279.875793,108.113708L276.697693,101.716553L324.523254,112.997803L324.902435,113.066589L325.287628,113.056702L325.662720,112.968628L326.012024,112.805847L326.320892,112.575500L326.576324,112.287048L326.767792,111.952637L326.887024,111.586304L326.929321,111.203369L326.892700,110.819763L326.778717,110.451660L326.592163,110.114563L304.626099,74.905029L298.536133,56.748596L293.345703,35.212891L348.392120,59.467041L370.726440,67.331482L392.313995,71.307861L392.540985,71.318848L407.509674,69.262146L438.863800,69.023804L498.426849,74.503601L535.640808,81.244080L553.224609,85.396179L556.685303,97.206421L568.015259,147.574646L578.558228,202.460205L578.822021,212.608887L530.592957,287.927246L518.278687,303.730530L512.203979,310.155151L483.703217,298.210693L422.948456,265.100098L422.221466,264.795471L421.445374,264.657532L420.657898,264.692932L419.897400,264.899963L419.200623,265.268494L418.601471,265.780701L418.129059,266.411682L417.806335,267.130737L417.648895,267.903137L415.630524,292.640137L415.635437,293.296387L415.768311,293.939026L416.024017,294.543396L416.392700,295.086304L416.860199,295.546875L417.408539,295.907349L418.016754,296.153931L418.661316,296.277039L419.317505,296.272156L419.960114,296.139343L420.564606,295.883606L421.107422,295.514954L421.567932,295.047424L421.928436,294.499023L422.175049,293.890869L422.298187,293.246338L424.276306,274.021851L479.868652,305.548645L511.607483,319.444580L512.644592,319.744568L513.723633,319.782104L514.779175,319.554932L515.747192,319.076843L516.569153,318.376831L524.707153,309.296753L536.458069,292.056519L585.100464,215.373352L585.509766,214.452271L585.630249,213.451599L585.258057,201.991211L574.457703,146.275635L562.921692,95.685181L558.764099,81.827637L558.424316,81.068115L557.898193,80.423584L557.222290,79.938477L556.443176,79.646240L536.949097,75.242004L499.346497,68.511414L439.042511,64.985046L407.397858,67.731628L392.483246,70.153137L372.105560,63.616272L351.071594,53.532227L288.717621,23.278931L287.863190,22.983643L286.966736,22.867798L286.065216,22.936035L285.196381,23.185425L284.396027,23.605713L283.697540,24.179565L283.129730,24.882935L282.716400,25.687012L282.474396,26.557983L282.413971,27.459961L282.537628,28.355347L290.086212,59.049316L297.356140,78.076904L320.468109,107.904236L269.332367,90.539001L268.425964,90.378235L267.506104,90.411926L266.614044,90.638733L265.789734,91.048340L265.070190,91.622498L264.487762,92.335327L264.068756,93.154846L263.831635,94.044373L263.787354,94.963745L263.937653,95.871887L264.275970,96.727905L272.650574,112.385498L291.107208,133.451294L311.974274,147.807312L324.026520,154.652161L346.480347,239.635498z" fill="#000000" stroke="none" fill-opacity="1" />
				<polygon points="471.014252,295.646729 522.963928,257.989685 529.205566,292.838135 513.601929,315.723633 482.640045,301.680176" fill="#20116D" stroke="none" fill-opacity="1" />
				<path d="M468.643890,292.376709L468.051453,292.901978L467.572906,293.532715L467.226685,294.244751L467.025909,295.010559L466.978455,295.800903L467.086060,296.585327L467.344727,297.333557L467.744202,298.017090L468.269531,298.609497L468.900269,299.088013L469.612274,299.434326L470.378082,299.635010L471.168396,299.682495L471.952820,299.574890L472.701111,299.316284L473.384583,298.916687L522.673889,258.709290L525.323303,292.008179L512.052368,310.195374L484.446930,297.961182L472.874634,292.062012L472.139526,291.767883L471.361206,291.622925L470.569489,291.632568L469.794891,291.796448L469.067230,292.108276L468.414307,292.556152L467.861298,293.122742L467.429443,293.786377L467.135406,294.521423L466.990417,295.299805L467.000061,296.091370L467.163971,296.866028L467.475800,297.593750L467.923645,298.246704L468.490295,298.799622L469.153809,299.231445L480.736084,305.348938L511.786652,319.725708L512.759949,320.036804L513.778687,320.114624L514.787903,319.955078L515.733032,319.566833L516.562927,318.970764L517.232788,318.199219L532.242188,294.908508L532.670532,294.063232L532.868652,293.136719L532.823242,292.190125L523.369995,257.916870L523.343567,257.828308L523.298096,257.747864L523.235962,257.679504L523.160095,257.626770L523.074402,257.592224L522.983154,257.577698L522.890930,257.583740L522.802368,257.610168L522.721924,257.655701z" fill="#000000" stroke="none" fill-opacity="1" />
				<polygon points="412.861664,168.144897 437.784302,169.950989 466.679871,166.700195 462.706635,202.097168 466.318573,215.100281 435.617065,197.762939 420.808014,192.344971 398.775024,186.565857 399.136292,180.064331 394.739563,164.440247" fill="#20116D" stroke="none" fill-opacity="1" />
				<path d="M413.025757,165.880554L412.580872,165.892090L412.146729,165.990173L411.740051,166.171021L411.376587,166.427856L411.070099,166.750549L410.832489,167.126770L410.672852,167.542236L410.597351,167.980896L410.608795,168.425659L410.706879,168.859802L410.887756,169.266541L411.144562,169.630005L411.467255,169.936462L411.843567,170.174072L412.259033,170.333740L412.697632,170.409241L437.590546,172.624084L461.725739,171.655579L461.976501,202.015259L461.998749,202.293884L465.654877,214.251831L437.106567,195.125244L421.763245,189.734192L401.358490,184.684631L401.479523,180.194519L397.595428,167.095764L412.407013,170.369141L412.849670,170.415222L413.292816,170.373840L413.719360,170.246948L414.112976,170.039307L414.458496,169.758728L414.742676,169.416199L414.954529,169.024780L415.085968,168.599609L415.131958,168.156921L415.090668,167.713745L414.963684,167.287292L414.755951,166.893677L414.475464,166.548157L414.133026,166.263916L413.741547,166.052002L413.316437,165.920654L395.146057,162.451538L394.733398,162.410400L394.320953,162.454041L393.925995,162.580627L393.565063,162.784729L393.253082,163.058044L393.003204,163.388977L392.825775,163.763794L392.728271,164.166931L392.714691,164.581421L392.785675,164.989990L396.771362,180.324097L396.303802,186.428589L396.336884,186.991394L396.496399,187.532166L396.774200,188.022766L397.155884,188.437805L397.621521,188.755737L398.147034,188.959900L419.975891,195.000916L434.343384,200.522522L466.115784,215.459412L466.196777,215.494263L466.283264,215.511169L466.371399,215.509277L466.457153,215.488647L466.536530,215.450439L466.606018,215.396118L466.662262,215.328247L466.702850,215.250000L466.725952,215.164917L466.730408,215.076782L466.715973,214.989868L463.452667,202.037720L471.023102,167.187683L471.022736,166.209351L470.804749,165.255493L470.380035,164.374207L469.769897,163.609375L469.005005,162.999390L468.123444,162.574951L467.169617,162.357178L466.191345,162.357056L437.730835,167.259888z" fill="#000000" stroke="none" fill-opacity="1" />
				<polygon points="541.547913,161.572388 526.186768,164.637756 507.942230,162.864990 513.293213,197.943054 512.103149,211.086426 529.797119,192.247620 538.571350,186.095825 551.811462,179.217163 551.057922,172.755554 552.522888,156.959778" fill="#20116D" stroke="none" fill-opacity="1" />
				<path d="M541.948730,163.580933L542.332886,163.464111L542.686768,163.274658L542.997009,163.019775L543.251465,162.709229L543.440552,162.355042L543.556946,161.970703L543.596008,161.571228L543.556396,161.171631L543.439636,160.787415L543.250122,160.433472L542.995239,160.123352L542.684692,159.868774L542.330444,159.679688L541.946289,159.563477L541.546692,159.524353L541.147095,159.563904L526.057678,162.060913L508.316132,159.018127L507.439270,159.032959L506.588409,159.244934L505.807159,159.643250L505.135895,160.207581L504.609039,160.908569L504.253815,161.710266L504.088440,162.571411L504.121521,163.447815L512.739136,197.960022L511.692474,211.049255L511.693604,211.134216L511.712097,211.217224L511.747131,211.294617L511.797424,211.363220L511.860718,211.420044L511.934204,211.462646L512.014954,211.489319L512.099487,211.498840L512.184082,211.490845L512.265259,211.465698L512.339600,211.424377L512.403870,211.368713L531.022156,193.661072L539.664307,187.897400L552.778381,181.078186L553.195435,180.792908L553.532166,180.416016L553.769104,179.969604L553.892212,179.479614L553.894592,178.974243L553.151978,172.730835L554.582092,157.150818L554.577576,156.725403L554.486084,156.309814L554.311523,155.921753L554.061218,155.577698L553.745850,155.292114L553.378601,155.077148L552.975159,154.941895L552.552673,154.892029L552.128845,154.929749L551.721680,155.053467L540.754395,159.684326L540.401245,159.875427L540.092224,160.131775L539.839050,160.443359L539.651733,160.798401L539.537170,161.183167L539.499817,161.583069L539.541260,161.982361L539.659729,162.366028L539.850891,162.719116L540.107239,163.028198L540.418823,163.281128L540.773926,163.468628L541.158691,163.583130L541.558533,163.620483L541.957825,163.578979L542.341431,163.460510L550.145447,160.202271L548.983826,172.563171L549.560608,178.022949L537.602051,184.229980L528.729004,190.724182L512.621887,209.931702L513.841431,197.992737L512.511963,167.192139L525.939941,167.178162z" fill="#000000" stroke="none" fill-opacity="1" />
				<polygon points="439.319275,186.881836 450.641632,178.869263 454.822174,194.894470 452.731873,206.913452 435.617065,197.762939" fill="#EDEEEB" stroke="none" fill-opacity="1" />
				<polygon points="532.169128,182.004578 521.617615,173.992004 517.721802,190.017334 519.669556,202.036133 533.529480,189.924500" fill="#EDEEEB" stroke="none" fill-opacity="1" />
				<polyline points="458.530823,408.929382 445.527771,347.034363 420.041779,330.390442 435.270844,301.055481 383.466675,275.465515 335.407623,266.103333 339.152466,292.317383 310.545776,283.475281 325.629211,337.568359 310.098450,475.792236 334.732178,678.382629 376.794495,839.083069 495.432129,894.088013 537.494446,931.836426 548.279785,1003.019043 562.300659,1022.432556 633.120544,1052.251831 726.304810,1065.297485 795.261108,1042.933350 823.216431,1011.250366 791.533813,983.294922 700.213196,934.838745 664.803223,890.110046 634.984375,839.790222 593.983154,826.744263 552.982056,724.241089" fill="#20033D" stroke="none" fill-opacity="1" />
				<path d="M453.752777,409.933167L454.040497,410.846008L454.500671,411.685242L455.115723,412.418457L455.862061,413.017639L456.710938,413.459717L457.629639,413.727722L458.583130,413.811401L459.534607,413.707397L460.447418,413.419739L461.286652,412.959534L462.019897,412.344421L462.619019,411.598206L463.061157,410.749268L463.329163,409.830505L463.412781,408.877075L463.308746,407.925659L449.362396,346.228882L449.023346,345.264038L448.446198,344.419861L447.670258,343.753662L423.083344,329.592041L438.499695,302.731750L438.794342,301.961121L438.907806,301.143921L438.834290,300.322266L438.577423,299.538147L438.150513,298.832214L437.575592,298.240540L436.882080,297.793640L384.888092,272.588135L335.994232,263.091919L335.348450,263.035828L334.705353,263.116760L334.093475,263.330994L333.540405,263.669006L333.070618,264.115662L332.705170,264.651001L332.460358,265.251160L332.347137,265.889404L332.370453,266.537170L336.414246,289.108765L311.442993,280.572571L310.805267,280.448120L310.155762,280.462158L309.523987,280.613953L308.939087,280.896606L308.427551,281.297180L308.012878,281.797424L307.714050,282.374268L307.544678,283.001526L307.512634,283.650391L307.619202,284.291321L323.096497,337.771484L306.710114,475.411499L328.952637,679.085388L373.892365,839.842712L374.236328,840.649902L374.799103,841.323120L375.532684,841.804626L493.126282,897.586304L532.579529,934.488831L544.759705,1003.552429L545.393616,1005.103516L559.453430,1024.488770L560.937683,1025.669312L630.529846,1058.404785L725.227173,1072.995605L728.702881,1072.691528L797.051453,1048.453247L799.612549,1046.772705L827.206055,1014.770630L827.889343,1013.794556L828.338318,1012.690979L828.530518,1011.515137L828.456177,1010.325989L828.119080,1009.183228L827.536133,1008.144165L826.736633,1007.260742L794.655212,979.757324L702.211426,932.439697L667.886230,887.990417L638.429810,837.748413L637.477478,836.655762L636.198730,835.973694L597.239136,823.243408L555.793945,723.116211L555.520447,722.589355L555.149475,722.125854L554.695129,721.743652L554.175049,721.457397L553.609070,721.278198L553.018982,721.212769L552.427490,721.263794L551.857361,721.429199L551.330322,721.702637L550.866882,722.073608L550.484619,722.527954L550.198425,723.048035L550.019226,723.614014L549.953796,724.204102L550.004761,724.795654L550.170105,725.365723L589.969116,828.349854L590.606934,829.444458L591.534485,830.307190L592.672363,830.864014L632.316406,843.144165L661.591797,892.013062L697.817322,936.735474L698.780945,937.538025L788.830139,987.201172L815.706604,1011.719788L791.960449,1037.903198L725.609680,1057.351196L634.908691,1045.760864L564.571167,1019.577881L551.670654,1001.633423L542.691956,931.048828L542.120544,929.339722L541.005493,927.924011L498.199768,891.004089L379.338623,836.956055L340.464203,677.289185L313.531128,475.776611L328.107788,337.846802L328.031647,336.898438L314.967651,288.022095L338.485962,294.473694L338.980682,294.567810L339.483948,294.549866L339.970856,294.420715L340.416870,294.186890L340.799896,293.859985L341.100922,293.456299L341.304993,292.995850L341.401855,292.501648L341.386688,291.998230L339.054779,269.939514L382.430908,278.533386L430.331757,302.673401L417.972382,329.316101L417.773560,329.850525L417.710297,330.417297L417.786591,330.982422L417.997681,331.512146L418.331085,331.974731L418.766846,332.342590L442.026703,349.427917z" fill="#000000" stroke="none" fill-opacity="1" />
				<polyline points="795.089417,930.214233 758.239624,884.376953" fill="#DDC759" stroke="none" fill-opacity="1" />
				<path d="M790.663269,933.772583L791.442505,934.567749L792.361816,935.195557L793.386108,935.631958L794.475708,935.860168L795.588989,935.871399L796.683044,935.665222L797.715820,935.249573L798.647705,934.640503L799.442871,933.861206L800.070740,932.941772L800.507080,931.917603L800.735291,930.827942L800.746521,929.714722L800.540344,928.620605L800.124756,927.587830L799.515564,926.656006L762.111450,881.264282L761.429871,880.568726L760.625549,880.019531L759.729614,879.637756L758.776428,879.438110L757.802673,879.428345L756.845581,879.608643L755.942078,879.972290L755.126953,880.505127L754.431335,881.186768L753.882141,881.991028L753.500427,882.886963L753.300781,883.840210L753.290955,884.814026L753.471313,885.771057L753.834900,886.674561L754.367737,887.489685z" fill="#000000" stroke="none" fill-opacity="1" />
				<polyline points="751.498962,894.113586 726.782776,893.364624 715.548096,888.870728 715.548096,882.878967 741.013184,853.668945 749.252014,834.944641 762.733459,801.989868 773.219177,823.710083 779.959900,852.920105 776.964111,874.640381" fill="#20116D" stroke="none" fill-opacity="1" />
				<path d="M751.361023,898.662842L752.251221,898.602295L753.112427,898.369263L753.911682,897.972717L754.618164,897.427856L755.204895,896.755615L755.649109,895.981873L755.933777,895.136292L756.048035,894.251465L755.987610,893.361328L755.754578,892.500061L755.358032,891.700867L754.813110,890.994324L754.140930,890.407654L753.367188,889.963440L752.521667,889.678711L751.636780,889.564392L727.490295,889.968506L718.644348,886.774414L718.656006,884.043518L743.603699,855.927368L751.712341,836.027222L762.884521,806.905029L771.045105,824.474976L776.099548,853.093445L771.873108,873.938171L771.833984,874.944824L771.991882,875.939819L772.341003,876.884888L772.867737,877.743652L773.551819,878.483215L774.367126,879.075134L775.282166,879.496521L776.261841,879.731323L777.268555,879.770508L778.263611,879.612549L779.208618,879.263428L780.067383,878.736755L780.806946,878.052551L781.398804,877.237305L781.820251,876.322266L782.055054,875.342529L783.724792,853.439392L775.450989,823.195068L764.535339,801.119995L764.315186,800.764465L764.025879,800.462402L763.680115,800.227173L763.292969,800.068848L762.881409,799.994507L762.463379,800.007385L762.057129,800.106812L761.680542,800.288635L761.349792,800.544617L761.079590,800.863892L760.881653,801.232300L746.777527,833.894348L738.078552,851.805359L713.205322,880.836609L712.637695,881.788452L712.440063,882.878967L712.451782,888.870728L712.539124,889.600891L712.796143,890.289795L713.208374,890.898743L713.752686,891.393250L714.398071,891.745483L725.514038,896.536255z" fill="#000000" stroke="none" fill-opacity="1" />
				<polygon points="778.611877,874.790161 796.587280,857.563721 816.060669,830.600647 817.558594,841.835266 813.064697,887.522705 795.089417,930.214233 776.215149,938.303101 745.507019,929.315369 735.021362,918.829712 740.264282,902.352417 759.438049,888.571167" fill="#20116D" stroke="none" fill-opacity="1" />
				<path d="M775.047546,871.070801L774.390442,871.837646L773.895508,872.717957L773.581909,873.677856L773.461609,874.680542L773.539185,875.687439L773.811707,876.659851L774.268677,877.560425L774.892578,878.354492L775.659424,879.011597L776.539734,879.506531L777.499695,879.820129L778.502319,879.940491L779.509216,879.862854L780.481628,879.590332L781.382141,879.133362L782.176270,878.509460L799.356873,860.453735L814.068848,838.517517L814.117920,841.894653L807.219238,886.040771L790.745056,925.897400L775.935913,933.660645L747.223938,926.418884L738.615417,917.955200L743.487671,904.692017L762.350708,892.623657L781.618469,878.973267L782.376831,878.306274L782.990417,877.504272L783.435791,876.597900L783.695801,875.622070L783.760376,874.614258L783.627136,873.613220L783.301208,872.657471L782.794983,871.783569L782.128052,871.025269L781.325989,870.411621L780.419678,869.966248L779.443787,869.706299L778.436035,869.641602L777.434998,869.774902L776.479126,870.100891L775.605347,870.607056L756.525269,884.518677L738.057495,899.282104L737.204163,900.131409L736.661133,901.205933L732.010437,917.871643L731.863525,918.720093L731.951172,919.576660L732.266846,920.377808L732.787109,921.063904L743.200378,931.622070L744.590698,932.446167L774.985657,942.503906L776.477966,942.672241L777.939331,942.326294L797.326477,935.434265L798.574402,934.698364L799.595642,933.670715L800.323486,932.418091L818.559998,889.836548L820.960571,842.169922L819.054810,830.201416L818.898926,829.567017L818.610291,828.981018L818.202454,828.470703L817.694458,828.059998L817.110046,827.768188L816.476501,827.608826L815.823547,827.589355L815.181702,827.710754L814.580994,827.967285L814.049377,828.347046L813.611877,828.832153L793.555176,854.925293z" fill="#000000" stroke="none" fill-opacity="1" />
				<polyline points="682.674316,911.413208 693.937012,898.848755 704.772949,894.634827 728.250793,902.460693 721.929810,924.734253 710.190918,931.356262 699.957031,931.958130" fill="#20116D" stroke="none" fill-opacity="1" />
				<path d="M680.262329,909.251221L679.886841,909.763245L679.618591,910.338745L679.467651,910.955505L679.439941,911.589966L679.536560,912.217529L679.753723,912.814209L680.083191,913.357056L680.512207,913.825195L681.024292,914.200684L681.599792,914.468994L682.216614,914.619873L682.851013,914.647583L683.478577,914.550964L684.075256,914.333801L684.618042,914.004333L685.086243,913.575317L695.754700,901.474915L704.852173,897.857666L724.204956,904.599304L719.380859,922.727905L709.320801,928.399109L699.778503,928.922363L699.189575,929.015503L698.630310,929.221741L698.122009,929.533142L697.684143,929.937744L697.333618,930.419983L697.083984,930.961365L696.944702,931.541016L696.921204,932.136658L697.014343,932.725525L697.220642,933.284790L697.532043,933.793213L697.936584,934.231079L698.418823,934.581543L698.960266,934.831177L699.539917,934.970459L700.135559,934.993958L710.367249,934.354187L711.666382,933.971924L723.403748,927.347168L724.026428,926.880005L724.507874,926.268311L724.815796,925.553284L731.433411,903.363892L731.553406,902.654358L731.517151,901.935669L731.326477,901.241882L730.990112,900.605713L730.524231,900.057251L729.950867,899.622559L729.296936,899.322144L705.731873,891.757996L704.698425,891.603271L703.673828,891.808594L692.811218,895.953613L691.623962,896.775330z" fill="#000000" stroke="none" fill-opacity="1" />
				<polygon points="350.503082,1013.535461 317.146545,1026.620361 305.703735,1024.019897 289.525726,997.056580 267.056274,944.028748 266.157623,913.470337 311.096344,955.712891 343.452301,970.093140 367.719208,986.271240 363.225464,1003.347961" fill="#20116D" stroke="none" fill-opacity="1" />
				<path d="M351.769806,1016.764587L352.375427,1016.455383L352.909119,1016.034058L353.350281,1015.516663L353.682098,1014.923096L353.891754,1014.276184L353.971130,1013.600891L353.917267,1012.922974L353.732178,1012.268738L353.423035,1011.663086L353.001648,1011.129395L352.484253,1010.688171L351.890656,1010.356384L351.243774,1010.146729L350.568481,1010.067322L349.890564,1010.121216L349.236328,1010.306335L316.764313,1021.545410L308.927948,1019.569031L293.197357,995.188721L270.155060,943.351746L269.380249,920.631714L308.980927,957.963318L341.999634,972.732788L364.145691,987.627502L360.332642,1001.467285L348.334930,1010.827820L347.848297,1011.302856L347.463745,1011.863708L347.196045,1012.488770L347.055359,1013.154053L347.047241,1013.833923L347.171783,1014.502319L347.424500,1015.133667L347.795441,1015.703613L348.270416,1016.190186L348.831268,1016.574768L349.456360,1016.842468L350.121643,1016.983154L350.801514,1016.991333L351.469971,1016.866699L352.101288,1016.613953L352.671204,1016.243042L365.273254,1005.905334L365.972198,1005.133667L366.393799,1004.181702L370.727509,987.062866L370.829834,986.300110L370.741760,985.535706L370.468658,984.816162L370.027374,984.185730L369.444794,983.682983L345.117584,967.595215L312.829803,953.103394L268.219757,911.276672L267.706604,910.888672L267.122894,910.618530L266.494995,910.478516L265.851776,910.475220L265.222504,910.608521L264.635925,910.872498L264.118835,911.255005L263.694763,911.738770L263.383148,912.301453L263.198151,912.917480L263.148254,913.558838L263.940399,944.120361L264.186127,945.244934L285.742157,998.659851L301.369385,1026.620483L302.216309,1027.678711L303.314026,1028.473999L304.583588,1028.948853L316.068573,1031.363525L317.511902,1031.470703L318.922882,1031.148560z" fill="#000000" stroke="none" fill-opacity="1" />
				<polyline points="353.338959,1012.335632 382.099731,1030.311279 390.188660,1038.400146 390.188660,1049.185425 382.099731,1054.578369 339.857178,1045.590576 321.881653,1028.513794" fill="#20116D" stroke="none" fill-opacity="1" />
				<path d="M355.142548,1009.449951L354.544861,1009.153564L353.900909,1008.979370L353.235321,1008.934204L352.573761,1009.019775L351.941528,1009.232788L351.363098,1009.565063L350.860504,1010.003784L350.453156,1010.532104L350.156738,1011.129700L349.982635,1011.773682L349.937500,1012.439270L350.023102,1013.100891L350.236053,1013.733032L350.568268,1014.311523L351.007019,1014.814087L351.535309,1015.221436L379.461243,1033.628052L385.535431,1040.327637L385.396149,1046.620605L381.181885,1049.784912L341.628632,1042.226685L325.108276,1025.117310L324.383698,1024.553101L323.562927,1024.141113L322.677551,1023.897095L321.761627,1023.830505L320.850281,1023.943970L319.978577,1024.233032L319.179962,1024.686523L318.485229,1025.287109L317.920990,1026.011719L317.508942,1026.832520L317.265015,1027.717773L317.198395,1028.633789L317.311890,1029.545166L317.600891,1030.416870L318.054382,1031.215454L318.655060,1031.910156L337.337158,1048.243286L339.095764,1049.169312L381.163788,1058.977417L382.352600,1059.068726L383.523651,1058.844604L384.594543,1058.320435L392.847229,1053.172974L393.737244,1052.406616L394.414154,1051.446777L394.837311,1050.351074L394.981201,1049.185425L394.841858,1038.400146L394.683380,1037.195801L394.218506,1036.073608L393.478943,1035.109863L385.077301,1027.333740z" fill="#000000" stroke="none" fill-opacity="1" />
				<polyline points="418.965973,184.874634 419.697235,180.410828 424.130219,177.917419 426.346771,182.350281 424.684357,186.783325 420.805511,188.999817" fill="#EDEEEB" stroke="none" fill-opacity="1" />
				<polyline points="539.039124,177.448669 537.359924,173.248718 539.868042,168.823853 544.055542,171.475098 544.921631,176.129822 542.744812,180.031128" fill="#EDEEEB" stroke="none" fill-opacity="1" />
			</g>
			<g id="layer.apron.uuid_0x6">
				<polyline points="641.161255,310.967712 657.405518,228.436890 607.777893,300.940918" fill="#69BEB7" stroke="none" fill-opacity="1" />
				<path d="M637.301636,310.208008L637.227661,310.975647L637.304749,311.742859L637.530090,312.480408L637.894897,313.159668L638.385315,313.754761L638.982361,314.242798L639.663208,314.604919L640.401611,314.827271L641.169128,314.901367L641.936401,314.824219L642.673889,314.598938L643.353210,314.234070L643.948303,313.743652L644.436279,313.146484L644.798462,312.465698L645.020813,311.727356L661.867493,229.315063L661.952515,228.363647L661.836914,227.415466L661.525757,226.512268L661.032837,225.694153L660.379944,224.996948L659.595825,224.451477L658.714905,224.081787L657.776306,223.904419L656.821350,223.926941L655.892151,224.148499L655.029663,224.559265L654.272095,225.141052L653.652771,225.868347L604.734131,298.857544L604.386292,299.491333L604.168640,300.180908L604.089783,300.899597L604.152588,301.619934L604.354736,302.314148L604.688416,302.955627L605.140808,303.519592L605.694580,303.984558L606.328369,304.332520L607.017883,304.550171L607.736694,304.629028L608.456970,304.566284L609.151123,304.364075L609.792664,304.030396L610.356689,303.578003L610.821594,303.024292L648.675598,249.242126z" fill="#000000" stroke="none" fill-opacity="1" />
				<polyline points="327.955261,511.116272 392.566833,424.000122 331.990753,326.828918" fill="#69BEB7" stroke="none" fill-opacity="1" />
				<path d="M325.586334,509.359314L325.289154,509.855286L325.094391,510.399597L325.009521,510.971497L325.037842,511.549011L325.178345,512.109802L325.425568,512.632446L325.769989,513.096802L326.198303,513.485168L326.694244,513.782410L327.238586,513.977173L327.810516,514.062012L328.387970,514.033691L328.948822,513.893188L329.471436,513.646057L329.935852,513.301514L330.324158,512.873169L396.833160,427.164307L397.461182,426.063843L397.810760,424.845947L397.861847,423.579834L397.611633,422.337708L397.074402,421.190125L333.766205,325.722168L333.516144,325.397034L333.207489,325.126953L332.852081,324.922302L332.463562,324.790894L332.056915,324.737854L331.647705,324.765076L331.251648,324.871704L330.884003,325.053467L330.558868,325.303589L330.288788,325.612183L330.084106,325.967651L329.952728,326.356140L329.899689,326.762817L329.926941,327.172058L330.033569,327.568054L330.215363,327.935730L386.145905,423.740906z" fill="#000000" stroke="none" fill-opacity="1" />
				<polygon points="223.472885,403.814087 281.056580,351.003540 332.138885,322.062744 339.165497,469.874084 417.559845,358.116699 517.717285,429.031006 602.688721,287.141052 642.538818,310.937317 562.840698,504.142334 547.894470,707.476990 519.179138,743.463196 514.486877,690.090149 494.077698,773.729248 417.231262,712.574402 364.846222,804.618042 315.044128,569.614868 275.153625,489.063416" fill="#6A87EF" stroke="none" fill-opacity="1" />
				<path d="M218.555481,398.452209L217.603912,399.514587L216.877792,400.742249L216.405304,402.087891L216.204239,403.499878L216.282623,404.923950L216.637329,406.305359L217.254761,407.591064L218.111008,408.731567L219.173416,409.683105L220.400955,410.409180L221.746674,410.881775L223.158585,411.082764L224.582748,411.004395L225.964172,410.649719L227.249847,410.032349L228.390366,409.176025L282.873749,353.501892L330.072723,325.809875L335.753174,470.036316L335.859314,470.733765L336.106323,471.394470L336.483826,471.990417L336.975677,472.496033L337.560883,472.890015L338.214569,473.155273L338.908722,473.280579L339.613892,473.260681L340.299927,473.096375L340.937500,472.794739L341.499634,472.368469L341.962158,471.835938L418.481201,363.436584L514.927429,432.971375L515.923096,433.513245L517.017639,433.808105L518.150818,433.839478L519.260010,433.605957L520.284241,433.120117L521.166931,432.408936L521.859497,431.511475L603.948914,292.150208L637.597839,312.578125L558.941711,502.533936L544.919373,706.311279L522.270264,733.213135L517.486145,689.826416L517.373047,689.232788L517.143799,688.673706L516.807373,688.171692L516.377563,687.746948L515.871582,687.416626L515.309814,687.193909L514.714966,687.087891L514.110840,687.102844L513.521851,687.238098L512.971741,687.488281L512.482666,687.843140L512.074402,688.288635L511.763245,688.806641L511.561737,689.376343L491.120026,765.084229L419.099609,710.226685L418.553864,709.881165L417.946747,709.660522L417.306549,709.574829L416.662842,709.628296L416.045471,709.818237L415.483093,710.135864L415.001617,710.566528L414.623627,711.090271L366.183990,796.016174L315.761658,569.462769L278.970093,487.173340L229.694366,400.042542L228.839035,398.901245L227.777405,397.948730L226.550430,397.221680L225.205185,396.747986L223.793320,396.545837L222.369293,396.622925L220.987518,396.976379L219.701263,397.592712L218.560013,398.448059L217.607574,399.509644L216.880463,400.736572L216.406754,402.081848L216.204575,403.493713L216.281723,404.917847L216.635223,406.299561L217.251495,407.585693L271.417755,491.115967L314.345764,569.857422L361.821381,805.259033L362.010529,805.850830L362.314270,806.392822L362.720245,806.863281L363.212006,807.242920L363.769806,807.516602L364.371063,807.673340L364.991455,807.706665L365.605988,807.615234L366.189880,807.402893L366.719513,807.078003L367.173492,806.653809L367.533539,806.147461L418.105316,717.104492L491.012329,777.581177L491.938446,778.162964L492.970184,778.525879L494.056549,778.652039L495.143982,778.535217L496.178711,778.181152L497.109833,777.607422L497.891357,776.842285L498.484497,775.923462L498.860199,774.896240L513.085754,708.533081L515.217468,743.811523L515.384583,744.654053L515.728821,745.441040L516.233887,746.135681L516.876465,746.705750L517.626343,747.124512L518.448730,747.372559L519.305176,747.438232L520.155701,747.318359L520.960693,747.018799L521.682617,746.553345L522.287659,745.943726L550.280457,709.380859L550.736572,708.590576L550.938843,707.700806L566.997437,505.125732L646.182800,312.440491L646.434021,311.541870L646.466980,310.609192L646.279785,309.695007L645.882935,308.850464L645.298645,308.122864L644.559814,307.552917L604.562439,284.003235L603.817810,283.665222L603.016785,283.501099L602.199280,283.519348L601.406250,283.718811L600.677490,284.089600L600.049316,284.613220L599.553284,285.263306L516.253174,422.078552L419.761047,355.007751L419.011841,354.595032L418.189362,354.359802L417.335297,354.314148L416.492462,354.460022L415.703369,354.790405L415.008026,355.288452L414.441254,355.929199L342.103607,459.736877L334.378174,321.956238L334.310181,321.505066L334.152374,321.077026L333.911133,320.689758L333.596436,320.359375L333.221375,320.099609L332.801514,319.921082L332.354156,319.831299L331.897919,319.833862L331.451691,319.928833L331.033844,320.112183L279.543518,348.332825z" fill="#000000" stroke="none" fill-opacity="1" />
				<polyline points="289.991211,532.707642 355.048492,461.938721 374.544617,453.572388 409.526428,466.880798 436.201904,510.995544 455.651489,552.736450 467.038818,628.869995 467.335876,684.266174 438.044983,634.348389 406.236694,582.996948 390.464874,570.196045 395.857483,625.641724 406.409058,702.574219 405.092194,749.589355 381.772491,694.857178 352.357178,641.610840 341.618164,606.834229 353.660309,645.572144 365.854431,681.509888 380.286255,717.192749 394.512970,780.170044 338.502167,726.794067 293.194366,648.704712 284.102997,578.988770" fill="#DDC759" stroke="none" fill-opacity="1" />
				<path d="M289.687317,532.428284L289.638580,532.492981L289.603485,532.565796L289.583282,532.644226L289.578766,532.725037L289.590057,532.805176L289.616821,532.881531L289.657898,532.951172L289.711823,533.011597L289.776520,533.060242L289.849396,533.095459L289.927765,533.115662L290.008545,533.120117L290.088715,533.108887L290.165039,533.082092L290.234802,533.041016L290.295166,532.987061L357.349487,465.186523L374.652557,458.730652L404.742493,472.615784L429.476288,514.582520L450.023438,554.429810L463.477753,629.144409L464.276093,673.123718L441.125793,632.540588L410.551544,580.324219L393.497650,566.459351L392.636719,565.901367L391.676971,565.538574L390.662201,565.387512L389.638397,565.454895L388.652222,565.737915L387.748291,566.223389L386.967987,566.889526L386.346588,567.705933L385.912354,568.635498L385.684998,569.635986L385.674866,570.661865L390.986633,626.115479L403.329102,702.741089L402.477356,735.799072L384.944794,693.505615L357.786774,639.301636L342.043518,608.207153L347.975342,647.339355L361.749207,682.902893L377.280518,718.133301L388.456818,769.489624L340.934753,724.876343L297.016632,647.405273L285.264435,578.837280L285.212555,578.613647L285.118103,578.404419L284.984528,578.217651L284.817261,578.060486L284.622345,577.939026L284.407593,577.857788L284.181122,577.820190L283.951660,577.827393L283.727905,577.879272L283.518738,577.973755L283.331970,578.107300L283.174774,578.274658L283.053314,578.469482L282.972076,578.684326L282.934448,578.910767L282.941711,579.140259L289.269318,649.216553L289.770630,650.691162L335.849854,728.333008L392.061249,782.742798L392.660004,783.202637L393.342529,783.525696L394.077881,783.697205L394.832733,783.709473L395.573212,783.562073L396.265869,783.261475L396.879425,782.821411L397.386078,782.261719L397.763092,781.607422L397.993469,780.888428L398.066650,780.136963L397.979462,779.386963L383.348175,716.501099L369.919922,679.999451L359.322510,643.731689L342.990753,606.407532L342.872131,606.131653L342.698822,605.886475L342.478210,605.682617L342.220184,605.528931L341.935852,605.432373L341.637604,605.396973L341.338501,605.424316L341.051666,605.513184L340.789581,605.659729L340.563629,605.857544L340.383728,606.097961L340.257690,606.370605L340.191010,606.663391L340.186676,606.963684L340.244873,607.258301L346.749176,643.342529L378.669128,696.370728L402.332367,750.765137L402.635590,751.311035L403.045227,751.782349L403.543579,752.158569L404.108978,752.423462L404.716980,752.565613L405.341248,752.578857L405.954712,752.462524L406.530884,752.221680L407.044586,751.866821L407.473816,751.413330L407.799866,750.880798L408.008545,750.292236L408.090851,749.673340L409.481842,702.660278L400.718994,625.072144L396.369049,581.186279L402.372955,586.397949L434.985809,636.192993L464.748474,685.784424L465.104126,686.270996L465.549988,686.676697L466.067902,686.984985L466.636993,687.183594L467.234314,687.264526L467.835663,687.224243L468.416962,687.064697L468.954559,686.792114L469.426819,686.417542L469.814636,685.956177L470.102448,685.426514L470.278564,684.850098L470.335907,684.250061L470.601257,628.850830L461.404144,551.876038L443.101044,507.780823L415.568787,463.227051L414.049530,461.458435L412.037201,460.281128L376.245270,449.102173L375.056549,448.817078L373.834351,448.842590L372.658600,449.177124L353.513672,458.362000L352.183167,459.304626z" fill="#000000" stroke="none" fill-opacity="1" />
				<polyline points="628.331787,550.276001 612.547791,621.276184 587.258118,686.580383 530.630249,734.690552 561.678040,666.286621 581.181030,597.195190 585.888184,573.270020 577.229736,596.209717 554.956055,644.090942 514.131714,695.901611 520.551819,652.964539 550.279846,574.651062 555.759155,562.231934 565.860352,538.251404 560.479919,540.657898 540.217102,551.948486 506.048126,575.021851 476.345184,603.425293 480.309692,579.769592 504.369019,513.100525 554.796631,457.505676 567.253540,450.120972 585.818848,452.159851 618.419495,499.413818" fill="#DDC759" stroke="none" fill-opacity="1" />
				<path d="M634.922546,551.741150L635.081726,550.427185L634.981567,549.107483L634.625854,547.832581L634.028198,546.651611L633.211670,545.609924L632.207581,544.747559L631.054565,544.097656L629.796875,543.685120L628.482971,543.525940L627.163208,543.626099L625.888367,543.981873L624.707397,544.579468L623.665710,545.396057L622.803345,546.400146L622.153381,547.553162L621.740906,548.810791L609.447998,620.337280L585.044189,685.006470L540.707031,721.333435L564.409912,667.526611L584.282288,598.070679L590.452454,574.167969L590.539856,573.251099L590.444946,572.334900L590.171326,571.455322L589.729858,570.646973L589.137695,569.941467L588.418213,569.366455L587.599548,568.944458L586.713745,568.692139L585.795471,568.619141L584.880981,568.728577L584.005920,569.015991L583.204651,569.470276L582.508545,570.073486L581.945007,570.802002L581.536011,571.627380L574.272827,594.966064L552.368042,642.499268L518.817139,685.058716L523.482971,653.730530L553.373535,575.919739L559.930298,564.072266L570.910950,540.378784L571.250793,539.239990L571.337280,538.054749L571.166016,536.878723L570.745361,535.767212L570.094971,534.772583L569.245483,533.941528L568.236816,533.313171L567.116455,532.916931L565.937012,532.771545L564.753906,532.883911L563.622864,533.248596L558.451538,536.122742L538.361572,548.618591L503.803925,571.698364L482.448181,591.897583L484.728790,580.927185L508.194550,515.401550L557.599060,460.938721L568.233704,454.655701L583.119995,456.681519L614.328125,502.236389L614.957458,502.980347L615.719788,503.587219L616.585815,504.033691L617.522400,504.302673L618.493408,504.383728L619.461609,504.273865L620.389709,503.977173L621.242065,503.505127L621.986084,502.875854L622.592957,502.113525L623.039429,501.247437L623.308411,500.310852L623.389526,499.339905L623.279541,498.371704L622.982849,497.443542L622.510864,496.591125L589.760986,449.440186L588.834229,448.439087L587.662842,447.739807L586.341675,447.399231L567.733948,445.746704L566.323853,445.819702L565.009460,446.335571L552.561951,453.736145L501.125183,510.158264L500.249542,511.613953L476.029999,578.225220L472.288025,602.745361L472.235199,603.599182L472.359955,604.445435L472.657166,605.247559L473.113708,605.970947L473.710175,606.584229L474.420410,607.060913L475.213989,607.380371L476.056366,607.528809L476.911316,607.499817L477.741791,607.294678L478.511841,606.922119L479.188232,606.398438L508.574005,578.155029L542.215088,555.198975L562.707520,545.103882L562.027893,542.168762L551.572510,560.426697L547.221558,573.301758L517.735657,651.895508L511.134583,695.453430L511.105469,696.063110L511.199219,696.666260L511.411957,697.238281L511.734924,697.756226L512.155212,698.198792L512.655579,698.548340L513.215881,698.790405L513.813293,698.915283L514.423584,698.917969L515.022156,698.798340L515.584473,698.561157L516.087952,698.216125L516.512024,697.777222L557.326538,645.958618L580.136353,597.561890L584.613403,577.743713L578.044312,596.445312L558.852417,665.253296L527.301941,733.179871L527.061829,733.898987L526.975342,734.652100L527.046021,735.406921L527.270935,736.130981L527.640259,736.792969L528.138245,737.364502L528.743469,737.821045L529.429871,738.142944L530.167786,738.316406L530.925659,738.333740L531.670898,738.194458L532.371399,737.904419L532.996887,737.476135L588.962830,688.586914L589.713379,687.531250L615.559570,622.442505z" fill="#000000" stroke="none" fill-opacity="1" />
				<polyline points="130.927338,910.789490 90.377769,839.231445 102.304062,739.050232 9.278584,834.460938 45.057564,906.019043 109.459938,939.412720 176.247528,951.339111" fill="#6B57C1" stroke="none" fill-opacity="1" />
				<polyline points="212.853134,967.386292 204.765015,900.730225 235.840057,839.569275 116.124626,794.172729 119.230957,911.706482 177.693558,983.515686 250.942505,1013.395203" fill="#6B57C1" stroke="none" fill-opacity="1" />
			</g>
		</g>
	</g>
</svg>
