<?xml version="1.0" encoding="UTF-8"?>
<!-- Generator: Blender, SVG Export for Grease Pencil - v2.0 -->
<!DOCTYPE svg PUBLIC "-//W3C//DTD SVG 1.1//EN" "http://www.w3.org/Graphics/SVG/1.1/DTD/svg11.dtd">
<svg version="1.1" x="0px" y="0px" xmlns="http://www.w3.org/2000/svg" width="1170.000000px" height="1080.000000px" viewBox="0 0 1170.000000 1080.000000">
	<g id="blender_frame.25">
		<g id="blender_object.Stroke.002.25.uuid_0x0">
			<g id="layer.Color.uuid_0x1" />
			<g id="layer.Lines.uuid_0x2">
				<polygon points="114.145721,27.439087 382.136322,29.991333 439.025757,144.969177 473.045502,115.485596 532.013184,138.165283 606.856750,147.237122 573.558167,27.439087 785.398376,27.439087 770.151855,115.485474 810.975586,142.701111 930.879089,24.886719 1152.928467,22.334473 1155.480713,152.500366 1030.970337,249.295715 1152.928467,226.516296 1158.032959,484.295837 1062.974243,525.022156 1156.556030,533.037292 1080.036621,643.145752 1158.032959,661.537231 1168.372070,688.123474 1083.973999,694.332642 1074.786499,754.706909 1155.078979,837.301697 1146.216797,1036.698242 1002.946167,1036.698242 947.475098,948.954590 905.475464,948.954590 903.985962,1044.083252 447.587555,1041.129150 405.416931,952.892090 347.667419,951.579590 369.979736,973.891785 307.270966,1048.514282 35.499802,1055.899414 35.499802,828.439575 145.806381,774.656616 130.056442,740.006958 126.906517,626.608154 10.544071,603.909912 21.320457,361.407654 112.731689,350.198364 16.003132,283.421326 19.547939,26.421021" fill="#6A87EF" stroke="none" fill-opacity="1" />
				<path d="M114.187035,23.097656L113.339203,23.172974L112.522438,23.412231L111.768097,23.806274L111.105026,24.339844L110.558853,24.992676L110.150536,25.739502L109.895676,26.551514L109.804176,27.397705L109.879593,28.245483L110.118889,29.062256L110.512909,29.816650L111.046608,30.479614L111.699371,31.025757L112.446098,31.434204L113.258171,31.688965L114.104408,31.780518L378.878693,35.182495L435.597900,146.665161L436.070374,147.396729L436.696136,148.002258L437.442566,148.450562L438.271088,148.718445L439.138763,148.791992L440.000549,148.667358L440.811859,148.351013L441.530457,147.859314L473.909149,120.414124L530.694275,141.594421L606.490356,150.260620L607.153076,150.268311L607.801819,150.132446L608.405701,149.859436L608.936401,149.462158L609.368408,148.959656L609.681580,148.375488L609.860962,147.737366L609.898071,147.075623L609.791138,146.421570L580.015076,32.345947L780.058533,31.933716L766.880249,114.919006L766.837402,115.682617L766.970398,116.435730L767.272278,117.138428L767.726807,117.753479L768.310059,118.248230L809.153809,145.433838L809.816833,145.774292L810.539612,145.956421L811.284851,145.970886L812.014099,145.816895L812.689941,145.502502L813.277344,145.043823L933.433655,31.030640L1147.362427,28.076172L1151.396606,150.551697L1029.556519,247.477234L1029.215820,247.803040L1028.948730,248.191528L1028.766357,248.626221L1028.676147,249.089111L1028.682129,249.560486L1028.783936,250.020874L1028.977417,250.450745L1029.254272,250.832336L1029.603027,251.149536L1030.009155,251.389038L1030.455444,251.540955L1030.923462,251.598755L1031.393188,251.559998L1150.262573,229.791687L1154.098999,481.757080L1062.453247,523.806396L1062.217896,523.937073L1062.013794,524.112793L1061.849487,524.326172L1061.731812,524.568420L1061.665649,524.829346L1061.653809,525.098389L1061.696533,525.364197L1061.792358,525.615906L1061.937134,525.842957L1062.124878,526.036011L1062.347900,526.187073L1062.596802,526.289734L1062.861450,526.339966L1149.067017,536.553955L1078.685547,642.206909L1078.515503,642.518677L1078.416382,642.859741L1078.392822,643.214050L1078.445679,643.565186L1078.572876,643.896851L1078.768066,644.193481L1079.022461,644.441284L1079.324097,644.628662L1079.658936,644.747009L1155.405762,664.558655L1163.332153,684.940918L1083.851440,692.667603L1083.484131,692.736694L1083.141235,692.885681L1082.840088,693.107300L1082.595825,693.390259L1082.420898,693.720520L1082.323486,694.081421L1073.013306,754.437012L1073.014771,754.986267L1073.182495,755.509399L1073.500488,755.957153L1150.886963,838.895935L1137.694092,1027.788208L1006.103333,1030.967041L949.807861,947.479858L949.366943,946.945312L948.806763,946.537354L948.162598,946.281860L947.475098,946.194824L905.475464,946.938721L905.031250,946.988281L904.608887,947.134460L904.229126,947.370117L903.910583,947.683716L903.669067,948.059692L903.516235,948.479675L903.459778,948.923096L900.961792,1040.991455L448.626953,1039.492188L406.854828,952.204956L406.613586,951.839600L406.282104,951.553711L405.885284,951.368835L405.453125,951.298828L347.714600,949.501587L347.267609,949.539856L346.839294,949.673096L346.449463,949.895264L346.116394,950.195862L345.855560,950.560913L345.679199,950.973450L345.595490,951.414185L345.608215,951.862671L345.716949,952.297852L345.916504,952.699707L346.197632,953.049316L367.344330,974.005920L305.705444,1045.269653L42.637028,1048.565552L38.747578,830.469299L146.629044,776.343933L146.978256,776.123047L147.270645,775.831177L147.492157,775.482422L147.631943,775.093628L147.683380,774.683716L147.643829,774.272461L147.515320,773.879761L131.682877,739.630920L128.955582,626.551270L128.891205,626.095459L128.726761,625.665405L128.470413,625.282959L128.135269,624.967407L127.738098,624.734619L127.298988,624.596191L13.923855,601.249390L27.797356,367.400330L113.314713,354.953308L114.253578,354.740723L115.130997,354.344788L115.911545,353.781372L116.563683,353.073303L117.060989,352.249268L117.383652,351.342285L117.518410,350.389221L117.459869,349.428406L117.210510,348.498596L116.780273,347.637512L116.186546,346.879822L115.453270,346.256104L23.656771,279.471924L25.421335,32.440430L114.098976,31.780396L114.946815,31.706055L115.763969,31.467896L116.518768,31.074707L117.182526,30.541992L117.729439,29.889771L118.138733,29.143433L118.394508,28.331787L118.487099,27.485718L118.412766,26.637939L118.174507,25.820801L117.781395,25.065918L117.248505,24.402222L116.596474,23.855225L115.850151,23.446045L115.038475,23.190186L114.192360,23.097656L19.611969,20.465454L18.287659,20.600098L17.026348,21.025269L15.890924,21.720093L14.938259,22.649780L14.215795,23.767700L13.759576,25.018311L13.592606,26.338989L8.405514,283.316589L8.607159,285.163208L9.250774,286.905762L10.298080,288.440125L11.686421,289.674316L99.634789,346.978027L20.500546,354.721252L18.972073,355.093811L17.571775,355.810547L16.375866,356.832581L15.449639,358.104187L14.843559,359.555908L14.590646,361.108582L7.288857,603.765198L7.345963,604.533813L7.581997,605.267456L7.983685,605.925293L8.528710,606.470215L9.186459,606.871948L9.920197,607.108032L124.903000,628.305847L128.420853,740.052368L128.566940,740.684021L143.341263,773.770020L34.076328,825.520325L33.464928,825.908203L32.954578,826.422058L32.570801,827.036133L32.332764,827.719971L32.252026,828.439575L28.362467,1055.899414L28.547688,1057.514526L29.093573,1059.045898L29.971907,1060.413940L31.136972,1061.547852L32.528400,1062.388672L34.074097,1062.892822L35.693665,1063.033936L307.360229,1051.799072L308.269531,1051.644775L309.100128,1051.244141L309.786591,1050.628296L371.468201,975.142578L371.698120,974.801392L371.850983,974.419373L371.920166,974.013672L371.902374,973.602600L371.798431,973.204529L371.613007,972.837158L371.354553,972.517029L352.802643,953.775391L404.401428,954.463074L446.104492,1041.838013L446.298706,1042.149292L446.557129,1042.409790L446.866852,1042.606445L447.212524,1042.729614L447.576904,1042.772949L903.966125,1047.155396L904.646301,1047.083740L905.293762,1046.863281L905.876343,1046.505005L906.365356,1046.026733L906.736389,1045.452148L906.971130,1044.809814L907.057800,1044.131348L907.460022,950.970581L945.954773,951.714417L998.101746,1039.760742L999.017456,1040.870972L1000.180664,1041.718140L1001.518433,1042.248779L1002.946167,1042.429443L1146.216797,1045.608276L1148.144409,1045.397217L1149.980469,1044.774292L1151.638550,1043.768921L1153.039673,1042.428467L1154.117798,1040.816772L1154.821777,1039.010132L1155.118042,1037.093872L1159.191895,837.484436L1159.089844,836.373169L1158.693115,835.330139L1158.030884,834.431946L1076.693848,754.095642L1085.424194,695.899963L1168.632080,691.657715L1169.354858,691.528198L1170.035522,691.252563L1170.644653,690.842590L1171.156250,690.315796L1171.548340,689.694946L1171.804077,689.006592L1171.912354,688.280334L1171.868652,687.547363L1171.674927,686.839050L1161.335693,660.252869L1160.931519,659.498535L1160.358276,658.863159L1159.649414,658.383667L1158.846313,658.088135L1082.767212,642.099365L1159.958008,535.401550L1160.375000,534.643250L1160.625244,533.814819L1160.697998,532.952454L1160.589966,532.093811L1160.306030,531.276306L1159.858398,530.535706L1159.266602,529.904236L1158.556641,529.409424L1157.759399,529.072998L1156.909424,528.909485L1068.355347,524.155579L1159.562134,487.865112L1160.357910,487.405823L1161.023560,486.772644L1161.521729,486.000671L1161.824585,485.133301L1161.915161,484.218994L1155.658081,226.462280L1155.582397,225.875977L1155.382446,225.319641L1155.067383,224.819458L1154.651855,224.398865L1154.155762,224.077515L1153.601929,223.870422L1153.016602,223.787537L1152.427124,223.832458L1039.877808,245.288696L1157.963501,155.694092L1158.632324,155.036438L1159.131592,154.242432L1159.434692,153.354736L1159.525146,152.421082L1158.604858,22.223145L1158.439209,20.969238L1158.000244,19.783081L1157.309570,18.723389L1156.401367,17.843140L1155.320923,17.185669L1154.121582,16.783813L1152.863281,16.657349L930.808105,18.714355L929.253235,18.931885L927.803467,19.534668L926.552734,20.483643L810.577087,138.488281L773.792175,113.921997L789.827148,28.205933L789.888184,27.230957L789.737183,26.265747L789.381165,25.355957L788.837036,24.544678L788.130432,23.869995L787.294800,23.364014L786.369507,23.050659L785.398376,22.944458L573.558167,22.532227L572.438416,22.661499L571.377686,23.043335L570.432007,23.656860L569.651428,24.470093L569.076965,25.439941L568.739014,26.515381L568.655396,27.639526L568.830505,28.753174L602.703003,143.665833L532.907166,134.572754L474.585541,111.481445L473.460419,111.215637L472.305084,111.259827L471.203522,111.611023L470.235809,112.243591L440.259583,138.839050L386.816559,27.675537L386.010254,26.489990L384.911896,25.568237L383.604309,24.980103L382.186035,24.769775z" fill="#000000" stroke="none" fill-opacity="1" />
				<polygon points="126.993484,49.887939 383.882782,63.841431 435.035492,166.059692 473.358673,134.154846 535.683044,148.375244 617.550476,150.352295 588.036255,39.617188 782.089050,40.741943 766.055542,124.506775 799.721375,151.962585 918.014709,47.382690 1141.060181,37.891357 1131.727539,153.312317 1008.818787,248.818848 1123.814941,227.391846 1141.598145,485.321167 1049.215454,524.546143 1137.419312,532.729370 1059.235962,643.620300 1132.695190,662.475342 1141.661865,689.483704 1062.981934,696.298584 1061.268311,759.718445 1142.343628,840.000977 1126.761963,1011.858459 1006.879395,1021.085693 956.527161,942.503662 879.979797,936.628296 890.863586,1025.540283 466.589386,1027.545654 398.302795,942.148193 328.620300,936.639099 347.513977,960.998718 278.835419,1029.879150 54.513874,1040.706665 62.656921,841.239136 161.178238,780.406128 143.685272,743.027588 134.463669,617.507812 32.491837,593.867981 47.185879,361.312134 127.273521,344.400146 33.727169,274.092163 41.578564,47.392212" fill="#69BEB7" stroke="none" fill-opacity="1" />
			</g>
		</g>
	</g>
</svg>
