<?xml version="1.0" encoding="UTF-8"?>
<!-- Generator: Blender, SVG Export for Grease Pencil - v2.0 -->
<!DOCTYPE svg PUBLIC "-//W3C//DTD SVG 1.1//EN" "http://www.w3.org/Graphics/SVG/1.1/DTD/svg11.dtd">
<svg version="1.1" x="0px" y="0px" xmlns="http://www.w3.org/2000/svg" width="1920.000000px" height="1080.000000px" viewBox="0 0 1920.000000 1080.000000">
	<g id="blender_frame.19">
		<g id="blender_object.Stroke.19.uuid_0x0">
			<g id="layer.Fills.uuid_0x1" />
			<g id="layer.black.uuid_0x2" />
			<g id="layer.skin.uuid_0x3" />
			<g id="layer.yella.uuid_0x4" />
			<g id="layer.red.uuid_0x5">
				<polyline points="302.594818,281.305786 316.872711,339.851562 320.002258,386.248840 319.638702,403.193848 308.155029,381.425781 299.077301,431.369812 262.798492,451.870056 222.125870,464.576599 204.548096,468.193359 182.497787,467.711792 223.991592,444.946350 214.606644,447.779785 177.630325,455.671570 122.731697,456.727112 118.944328,430.942322 113.348633,389.828186 114.047523,367.459167 118.213058,327.700317 104.365257,344.202271 78.676521,352.781677 79.200035,321.317566 86.900307,292.334351 95.634895,280.229370 119.469620,272.047119 103.500366,261.948425 89.622856,249.801086 82.315346,240.071350 77.423851,230.707520 103.184967,241.773071 121.928162,244.154846 141.780441,241.671265 165.290848,238.372620 213.010468,228.299011" fill="#879F4C" stroke="none" fill-opacity="1" />
				<path d="M304.993286,280.720886L304.833069,280.264099L304.586823,279.847473L304.264099,279.486877L303.877258,279.196106L303.440979,278.986450L302.972321,278.865967L302.489075,278.839294L302.009979,278.907349L301.553253,279.067444L301.136627,279.313721L300.775970,279.636536L300.485260,280.023315L300.275604,280.459595L300.155151,280.928284L300.128387,281.411560L300.196442,281.890686L314.423859,340.229919L317.531708,386.305481L317.374908,393.611938L310.338593,380.273865L310.056213,379.851013L309.693176,379.494812L309.264893,379.220642L308.789490,379.039978L308.287170,378.960632L307.779236,378.985840L307.287323,379.114563L306.832123,379.341492L306.433136,379.656738L306.107086,380.047119L305.868073,380.495972L305.726105,380.984314L296.855316,429.789795L261.666443,449.255249L221.353210,461.586487L204.261917,465.041382L195.069290,464.635559L225.962387,448.538330L226.666260,448.049988L227.253281,447.425842L227.697601,446.693298L227.979874,445.884338L228.087784,445.034424L228.016495,444.180664L227.769287,443.360291L227.356842,442.609314L226.797226,441.960510L226.114944,441.442383L225.339722,441.077454L224.505676,440.881592L223.649124,440.863586L222.807541,441.024109L213.602585,443.875854L177.199112,451.929932L126.183411,452.652832L123.255379,430.332336L118.131348,389.579224L118.590149,367.767700L121.698471,328.065552L121.697151,327.322815L121.539398,326.597107L121.232239,325.920898L120.789406,325.324585L120.230988,324.835083L119.581825,324.474182L118.871323,324.258179L118.131180,324.196716L117.394691,324.292664L116.695007,324.541626L116.063454,324.932373L115.528503,325.447510L102.014229,340.747070L83.368088,346.381470L83.350349,321.894653L90.235458,293.914124L97.683563,282.991211L120.377365,274.691589L120.894928,274.452576L121.353203,274.113281L121.733261,273.688232L122.019028,273.194946L122.198860,272.653931L122.265244,272.087646L122.215340,271.519653L122.051231,270.973633L121.779778,270.472229L121.412254,270.036377L120.963989,269.684143L105.294739,259.545654L91.997742,247.597595L85.167557,238.271973L85.017525,237.747192L101.975159,244.589539L121.554733,247.093933L142.144547,244.581726L165.676865,241.124023L213.398666,230.137817L213.749924,230.026733L214.072723,229.849304L214.354767,229.612244L214.585129,229.324768L214.754944,228.997925L214.857788,228.644104L214.889603,228.277100L214.849152,227.910950L214.738129,227.559692L214.560684,227.236877L214.323624,226.954773L214.036148,226.724487L213.709259,226.554626L213.355576,226.451843L212.988510,226.420044L212.622345,226.460388L164.810303,235.634644L141.394547,238.763550L121.931076,241.168884L103.998810,238.786621L78.793884,227.518127L78.116455,227.306152L77.410126,227.236389L76.704422,227.311707L76.028763,227.528992L75.411469,227.879211L74.878227,228.347656L74.451424,228.914673L74.148956,229.556763L73.983360,230.246826L73.961555,230.956360L74.084641,231.655334L74.347168,232.314758L79.336166,241.627563L87.046333,251.736206L101.531235,264.197998L113.049316,271.295105L94.570770,277.129700L93.682480,277.597168L92.977242,278.311646L83.957520,290.210938L75.180122,320.249512L74.092766,352.705444L74.179459,353.672424L74.468018,354.599548L74.945236,355.445129L75.589882,356.171204L76.373001,356.745300L77.259460,357.141541L78.209435,357.342224L79.180351,357.338318L80.128777,357.129883L105.639259,348.016968L107.446053,346.787476L113.533913,338.728149L109.522247,366.985046L108.578339,389.679199L114.630142,431.529480L118.767014,457.309387L119.020157,458.237732L119.487297,459.078979L120.141388,459.784546L120.944878,460.313843L121.851425,460.636414L122.808662,460.733582L177.702316,459.420044L215.447311,451.718567L220.214005,446.532410L180.886398,464.774780L180.331467,465.156494L179.864105,465.641418L179.503265,466.210022L179.263397,466.839294L179.154221,467.503906L179.180191,468.176941L179.340302,468.831116L179.627884,469.440063L180.031631,469.979187L180.534958,470.426575L181.117691,470.764343L181.756134,470.978699L182.424591,471.061035L204.479416,471.337585L222.747513,467.597839L263.643463,454.574585L300.291809,433.519226L300.859497,433.078186L301.276184,432.492310L301.506256,431.811279L309.306061,388.898499L317.455139,404.345825L317.731689,404.761719L318.086304,405.113464L318.504395,405.386658L318.969025,405.570068L319.460938,405.656250L319.960327,405.641541L320.446411,405.526733L320.899414,405.316406L321.300812,405.019226L321.634308,404.647278L321.885956,404.215820L322.045654,403.742554L322.106812,403.246826L322.470398,386.301758L319.335754,339.685486z" fill="#000000" stroke="none" fill-opacity="1" />
				<polygon points="412.449463,117.047180 415.691803,92.528320 426.027740,71.876526 438.781616,62.142700 463.678009,94.754700 448.733124,95.584473 424.797638,107.534668" fill="#879F4C" stroke="none" fill-opacity="1" />
				<path d="M408.676453,116.548340L408.651642,117.293823L408.772736,118.030029L409.035156,118.728516L409.428802,119.362244L409.938446,119.907104L410.544586,120.342041L411.224030,120.650269L411.950500,120.820068L412.696198,120.844910L413.432281,120.723877L414.130707,120.461487L414.764557,120.067810L415.309326,119.558105L415.744293,118.951965L416.052521,118.272583L416.222351,117.546082L418.397980,93.358704L429.205353,74.506958L437.933136,68.463562L455.879883,91.162659L448.600128,93.189636L447.661713,93.438477L423.851135,105.638855L410.126862,114.032349L409.583282,114.543335L409.149872,115.150635L408.843262,115.830627L408.675262,116.557678L408.652313,117.303345L408.775238,118.039185L409.039368,118.737000L409.434540,119.369690L409.945557,119.913330L410.552826,120.346680L411.232941,120.653320L411.959869,120.821350L412.705566,120.844299L413.441406,120.721313L414.139191,120.457214L414.772064,120.062012L425.927887,109.338623L449.360992,97.951843L463.900757,98.767151L464.758453,98.625427L465.565552,98.302490L466.284332,97.813599L466.881256,97.181519L467.328094,96.435913L467.604279,95.611694L467.696716,94.747314L467.601196,93.883301L467.321960,93.059998L466.872375,92.316101L442.366364,59.406067L441.667603,58.677063L440.824097,58.121826L439.878265,57.768066L438.877411,57.633667L437.871704,57.725464L436.911713,58.038574L436.045471,58.557556L423.589569,68.681641L422.433868,70.077759L413.195282,91.278809z" fill="#000000" stroke="none" fill-opacity="1" />
				<polyline points="167.994919,241.319946 217.215424,231.875122 297.647705,272.689758 309.509796,313.161011 298.983582,337.043213 272.814148,310.445129 212.490921,311.563477 178.945587,274.128296 178.407028,267.339294 127.930809,260.706543 140.574814,244.552979" fill="#ACBF6E" stroke="none" fill-opacity="1" />
				<polygon points="433.126648,130.486633 444.449432,119.235229 462.258636,110.980286 487.629333,112.963989 506.365448,121.303101 489.627197,151.209717 475.515076,144.080078 452.224945,138.116394" fill="#879F4C" stroke="none" fill-opacity="1" />
				<path d="M430.543427,127.886963L430.085876,128.440918L429.745178,129.073486L429.534485,129.760193L429.461761,130.475037L429.529968,131.190186L429.736359,131.878479L430.073029,132.513000L430.527008,133.069885L431.080963,133.527405L431.713531,133.868103L432.400299,134.078918L433.115082,134.151489L433.830261,134.083374L434.518402,133.876953L435.153168,133.540283L435.709900,133.086365L445.506378,120.753601L462.738678,113.648438L486.307037,118.177002L498.246460,124.001770L488.719360,148.236694L477.260742,140.624939L453.413177,134.474426L434.486328,127.083313L433.796234,126.883362L433.080414,126.822083L432.366364,126.901489L431.681549,127.118713L431.052246,127.465332L430.502716,127.928162L430.053925,128.489258L429.723328,129.127014L429.523499,129.817078L429.462067,130.532959L429.541473,131.246948L429.758759,131.931824L430.105377,132.561096L430.568146,133.110657L431.129181,133.559387L431.767090,133.889954L450.806763,141.666382L474.146088,147.725403L488.615234,153.212708L489.073090,153.384338L489.557281,153.452698L490.044830,153.414551L490.512512,153.271790L490.938232,153.031006L491.301575,152.703735L491.585510,152.305725L511.397644,124.119568L511.919037,122.856750L512.128662,121.506714L512.014832,120.145142L511.583862,118.848755L510.860016,117.690002L509.883911,116.734070L508.710358,116.034546L489.784485,108.121704L462.463104,108.365723L461.155731,108.600891L443.683258,117.582092z" fill="#000000" stroke="none" fill-opacity="1" />
				<polyline points="175.277985,238.096985 164.040237,214.895447 149.551102,211.771973 126.175293,206.026184 108.727798,192.127319 103.880302,177.521484 156.923843,177.260925 127.545486,159.467712 123.578049,142.254761 121.541916,102.278442 182.314850,118.398254 209.792908,115.832703 235.982254,113.365295 254.255142,108.898682 292.536377,107.538513 361.879639,114.699341 399.014801,123.271484 416.659058,131.000427 419.879425,143.157349 431.832489,195.779236 443.212524,253.427979 444.074005,265.476257 400.300079,323.595825 390.450500,335.990662 384.357758,342.984436 350.477631,327.758240 250.190735,299.342285 197.640320,273.459229 175.046585,239.912598" fill="#ADBF6F" stroke="none" fill-opacity="1" />
				<path d="M172.530670,239.427673L172.843079,239.938049L173.249069,240.377808L173.732986,240.729736L174.276291,240.980530L174.858154,241.120667L175.456009,241.144470L176.047150,241.051147L176.608704,240.844299L177.119110,240.531921L177.558792,240.125977L177.910767,239.641968L178.161621,239.098694L178.301636,238.516907L178.325439,237.918945L178.232178,237.327820L178.025375,236.766296L165.047775,214.407471L164.856659,214.129517L164.591446,213.921143L164.276093,213.801147L149.927429,210.140381L127.535469,203.258850L112.089211,189.781433L109.514175,181.566711L156.932541,179.025940L157.281921,178.989258L157.617126,178.883972L157.924850,178.714417L158.192993,178.487488L158.410721,178.211731L158.569565,177.898376L158.663177,177.559753L158.687958,177.209229L158.642746,176.860901L158.529510,176.528381L158.352585,176.224915L158.119064,175.962402L157.838120,175.751343L130.808487,157.106628L127.657921,141.684998L125.986862,107.761597L181.532303,121.348267L209.965500,117.681030L236.033417,113.907349L254.354324,109.614807L292.472473,109.436096L361.412354,117.506897L398.105560,126.016602L414.158813,133.142761L416.957458,143.876099L428.818756,196.418945L440.088715,253.846375L440.818817,264.515259L397.640900,321.538330L387.387054,333.441406L383.260864,337.982727L352.067963,324.219543L251.398590,296.198975L199.923019,270.845337L177.828079,238.039368L177.409103,237.532715L176.899506,237.117554L176.318481,236.809692L175.688782,236.621155L175.034348,236.559143L174.380264,236.625977L173.751923,236.819153L173.173309,237.131165L172.666626,237.550110L172.251419,238.059753L171.943634,238.640747L171.755157,239.270569L171.693130,239.924988L171.759964,240.578918L171.953140,241.207397L172.265106,241.785950L194.858765,275.332581L196.158524,276.467651L248.708939,302.350647L349.146454,331.413513L382.671936,346.735474L383.673920,347.039673L384.720154,347.080872L385.742950,346.856567L386.675903,346.381287L387.458588,345.685730L393.454681,338.607910L402.932129,325.687378L446.612793,267.388367L447.122314,266.376221L447.244263,265.249512L446.350098,253.203674L434.854706,195.182678L422.813232,142.490967L419.525604,130.241028L419.173737,129.428833L418.597687,128.756470L417.848907,128.284119L400.170074,120.634155L362.518524,111.931335L292.730927,105.654480L254.229630,108.180054L235.891632,112.827026L209.619583,113.984436L182.572113,115.308838L122.608566,98.257202L121.750999,98.123413L120.884399,98.170410L120.046402,98.396240L119.273468,98.790955L118.599243,99.337524L118.053123,100.012085L117.658821,100.785217L117.433487,101.623413L117.387024,102.490112L119.479691,142.463440L123.930359,160.300964L124.277565,161.223816L124.855553,162.022583L125.623627,162.640869L150.653854,175.526794L103.860214,173.448730L103.013306,173.541992L102.204262,173.809448L101.468643,174.239380L100.838524,174.812927L100.341568,175.505127L99.999565,176.285522L99.827271,177.119934L99.832474,177.971985L100.014778,178.804443L104.998566,193.364990L105.505592,194.375916L106.279617,195.200623L124.298683,208.381897L125.456482,208.950989L149.151474,213.397827L163.270615,215.874756z" fill="#000000" stroke="none" fill-opacity="1" />
				<polygon points="339.275604,321.954468 383.711853,290.393250 397.338226,327.145569 384.541138,344.404114 351.795898,326.524475" fill="#25067F" stroke="none" fill-opacity="1" />
				<path d="M337.083130,318.867554L336.523071,319.354675L336.068726,319.941528L335.737640,320.605896L335.542480,321.322021L335.490784,322.062500L335.584656,322.798767L335.820282,323.502625L336.188721,324.146912L336.675781,324.707031L337.262695,325.161438L337.927032,325.492432L338.643158,325.687622L339.383636,325.739197L340.119934,325.645447L340.823761,325.409790L341.468109,325.041321L383.711853,290.393250L393.458649,326.592896L383.367828,339.069519L353.652924,323.123413L340.573883,318.397705L339.855011,318.212830L339.113953,318.171692L338.379059,318.275879L337.678619,318.521484L337.039520,318.898926L336.486450,319.393921L336.040466,319.987244L335.718842,320.656189L335.533875,321.375061L335.492737,322.116150L335.596954,322.851013L335.842590,323.551514L336.220093,324.190552L336.715057,324.743652L337.308350,325.189636L337.977325,325.511292L350.194122,330.064880L382.566772,348.020020L383.477936,348.384399L384.449432,348.522888L385.426117,348.427795L386.352600,348.104370L387.176331,347.570984L387.850494,346.857971L400.105896,329.197754L400.525330,328.454773L400.749359,327.631470L400.764130,326.778381L400.568878,325.947754L383.711853,290.393250z" fill="#000000" stroke="none" fill-opacity="1" />
				<polygon points="275.642670,240.338257 319.059448,227.754211 345.946930,225.382812 344.730835,233.811890 351.160339,236.057556 310.094360,240.736389 289.169250,245.260559 257.611694,253.823242 257.134552,252.647156 247.617249,251.321716" fill="#25067F" stroke="none" fill-opacity="1" />
				<path d="M274.928040,237.872498L274.460724,238.059265L274.038849,238.333618L273.678589,238.685059L273.393860,239.099976L273.195465,239.562561L273.091217,240.054810L273.084930,240.558105L273.176941,241.052917L273.363800,241.520142L273.638123,241.942017L273.989563,242.302307L274.404541,242.587036L274.867004,242.785461L275.359436,242.889771L275.862610,242.895935L276.357361,242.803894L319.619690,230.747314L340.164337,230.854126L343.908508,233.693237L343.903137,233.883606L343.941132,234.070129L344.020660,234.243103L344.137512,234.393494L344.285492,234.513367L344.456848,234.596313L350.169342,235.946777L309.706635,237.333008L288.504913,242.187866L258.854645,251.315613L259.593658,251.649475L259.251709,251.047058L258.765533,250.553711L258.168335,250.203003L257.500580,250.018616L256.620941,250.258301L276.579437,242.728455L277.027740,242.499756L277.422882,242.187927L277.749542,241.805176L277.995239,241.365845L278.150513,240.887146L278.209473,240.387390L278.169708,239.885681L278.032806,239.401428L277.804169,238.953186L277.492432,238.558044L277.109558,238.231384L276.670471,237.985657L276.191681,237.830383L275.691895,237.771423L275.190155,237.811218L274.705994,237.947998L246.779755,249.184753L246.367477,249.396545L246.006134,249.686829L245.710602,250.043884L245.492691,250.453003L245.361557,250.897400L245.322357,251.359314L245.376663,251.819702L245.522400,252.259583L245.753555,252.661377L246.060730,253.008545L246.431351,253.286804L246.850372,253.484985L247.300644,253.594971L255.503464,254.740662L255.018250,254.875427L255.345428,255.465698L255.804504,255.960388L256.368713,256.330811L257.005066,256.555481L257.676697,256.621277L258.344604,256.524292L289.913574,248.316040L310.651611,244.120422L351.185516,236.278320L351.230377,236.268494L351.272217,236.249634L351.309296,236.222473L351.340088,236.188354L351.363068,236.148560L351.377502,236.104919L351.382538,236.059326L351.378174,236.013550L351.364441,235.969788L351.342072,235.929626L351.311859,235.895020L351.275177,235.867371L351.233643,235.847778L345.650879,233.253174L350.838348,226.088623L350.872467,224.978210L350.657623,223.888367L350.204742,222.873962L349.536804,221.986206L348.687439,221.270264L347.699707,220.762024L346.623291,220.487305L345.512726,220.459839L318.793182,224.735107z" fill="#000000" stroke="none" fill-opacity="1" />
				<polygon points="416.730530,235.703369 400.608765,228.846191 383.671936,222.473694 385.133118,234.718384 381.851929,236.918091 404.152039,242.959778 414.262848,246.114502 428.294373,250.516113 427.939148,248.451965 430.503601,243.138733" fill="#25067F" stroke="none" fill-opacity="1" />
				<path d="M415.824097,237.834595L416.257233,237.970459L416.708679,238.019226L417.160889,237.979126L417.596588,237.851440L417.998993,237.641174L418.352600,237.356506L418.643921,237.008179L418.861694,236.609863L418.997681,236.176697L419.046387,235.725220L419.006104,235.273071L418.878448,234.837402L418.668243,234.434998L418.383575,234.081238L418.035370,233.789917L417.637024,233.572205L401.738434,226.190430L385.210999,218.383118L384.346313,218.155579L383.453369,218.108704L382.569641,218.244568L381.732025,218.557373L380.975555,219.034119L380.332031,219.654785L379.828247,220.393433L379.485352,221.219299L379.317657,222.097473L379.332275,222.991455L384.469971,234.413574L381.728149,236.733521L381.692657,236.763123L381.664185,236.799316L381.643646,236.840576L381.632111,236.885193L381.630066,236.931213L381.637573,236.976807L381.654236,237.019653L381.679443,237.058289L381.712128,237.090881L381.750793,237.116028L381.793762,237.132568L403.563416,244.980042L413.552979,248.383667L427.584503,252.778992L428.058929,252.876038L428.543060,252.874634L429.016968,252.774963L429.460571,252.581238L429.855743,252.301331L430.185730,251.946960L430.436890,251.532959L430.598755,251.076660L430.664612,250.596985L430.631622,250.113953L430.271576,248.779724L432.609589,244.155151L432.779510,243.675720L432.841797,243.171082L432.793488,242.664734L432.636871,242.180847L432.379333,241.742310L432.033051,241.369751L431.614471,241.080994L417.830688,233.665466L417.411957,233.489929L416.967010,233.399597L416.513031,233.397644L416.067383,233.484436L415.647247,233.656494L415.268707,233.907104L414.946350,234.226807L414.692596,234.603271L414.517090,235.021973L414.426666,235.466919L414.424835,235.920898L414.511566,236.366516L414.683502,236.786682L414.934235,237.165283L415.253937,237.487549L415.630341,237.741455L427.426239,244.134827L425.817932,247.428040L425.606720,248.124146L425.617889,248.851318L426.733002,248.730957L414.974457,243.845886L404.778717,240.951294L382.380676,236.831177L385.479614,235.235229L385.606903,235.121826L385.698608,234.978149L385.747894,234.814941L385.751068,234.644592L388.863708,229.096680L399.535309,231.526123z" fill="#000000" stroke="none" fill-opacity="1" />
			</g>
			<g id="layer.apron.uuid_0x6">
				<polyline points="198.269516,274.297241 223.637238,289.909546 215.642838,294.537659 181.581558,281.717957 174.582993,270.707703 166.202591,254.218079 177.570694,238.487427" fill="#25067F" stroke="none" fill-opacity="1" />
				<path d="M199.864700,271.705322L199.328384,271.443848L198.751373,271.292175L198.155884,271.255798L197.564682,271.336365L197.000580,271.530762L196.485260,271.831482L196.038589,272.227051L195.677536,272.702026L195.416107,273.238342L195.264359,273.815369L195.228119,274.410889L195.308685,275.002075L195.503082,275.566223L195.803772,276.081482L196.199280,276.528259L196.674255,276.889282L217.678574,289.829346L215.367111,291.198425L183.583649,279.253540L176.964386,269.349854L168.652206,254.408997L178.832413,239.399109L178.985992,239.135437L179.085220,238.846863L179.126297,238.544556L179.107590,238.239929L179.029770,237.944824L178.895859,237.670654L178.711105,237.427795L178.482452,237.225708L178.218826,237.072144L177.930267,236.972778L177.627914,236.931885L177.323395,236.950562L177.028366,237.028381L176.754059,237.162170L176.511322,237.346924L176.309097,237.575562L164.502808,252.989746L164.233871,253.495483L164.111771,254.055054L164.145630,254.626953L164.333023,255.168213L172.141968,271.948303L179.040009,283.333435L179.682602,284.055298L180.520706,284.536499L214.576263,297.371704L215.445999,297.559326L216.332748,297.486084L217.160034,297.158264L225.167709,292.553284L225.677246,292.183228L226.100052,291.716614L226.418320,291.173218L226.618408,290.576172L226.691711,289.950684L226.635193,289.323547L226.451340,288.721191L226.147888,288.169434L225.737671,287.691589L225.238312,287.308044z" fill="#000000" stroke="none" fill-opacity="1" />
				<polyline points="242.204880,196.479614 234.481186,204.905579 221.842392,194.373230 226.437195,162.515747" fill="#EFACD4" stroke="none" fill-opacity="1" />
				<path d="M245.207230,199.231812L245.686386,198.593201L246.031891,197.873352L246.230209,197.099976L246.273880,196.302673L246.161209,195.512329L245.896439,194.759033L245.489883,194.071960L244.956955,193.477356L244.318375,192.998169L243.598541,192.652649L242.825134,192.454407L242.027939,192.410706L241.237503,192.523376L240.484314,192.788086L239.797150,193.194702L239.202560,193.727539L234.103989,199.289612L226.198425,192.701599L228.183975,162.767761L228.199585,162.422058L228.147415,162.080017L228.029648,161.754700L227.850555,161.458740L227.617096,161.203308L227.338486,160.998230L227.025070,160.851562L226.689148,160.768921L226.343536,160.753357L226.001419,160.805542L225.676163,160.923279L225.380173,161.102356L225.124725,161.335815L224.919830,161.614380L224.773117,161.927795L224.690384,162.263794L217.811279,193.791748L217.794846,194.826721L218.039917,195.832397L218.530472,196.743774L219.235092,197.502075L231.873825,208.034424L232.610947,208.523560L233.436401,208.842102L234.311066,208.974731L235.193863,208.915588L236.042908,208.666992L236.818375,208.241028L237.483505,207.657593z" fill="#000000" stroke="none" fill-opacity="1" />
				<polyline points="251.945160,162.612976 246.758026,168.271606 238.270172,161.198303 241.355942,139.803467" fill="#EFACD4" stroke="none" fill-opacity="1" />
				<path d="M253.961502,164.461243L254.283310,164.032349L254.515289,163.548950L254.648483,163.029602L254.677902,162.494141L254.602203,161.963318L254.424408,161.457458L254.151291,160.995911L253.793503,160.596680L253.364624,160.274780L252.881180,160.042786L252.361847,159.909607L251.826370,159.880371L251.295593,159.956055L250.789719,160.133728L250.328278,160.406799L249.928955,160.764648L246.504807,164.500000L241.195618,160.075623L242.529083,139.972534L242.539505,139.740479L242.504486,139.510742L242.425400,139.292236L242.305115,139.093506L242.148331,138.921997L241.961212,138.784241L241.750778,138.685730L241.525192,138.630310L241.292999,138.619751L241.063324,138.654724L240.844864,138.733948L240.646072,138.854187L240.474518,139.010925L240.336899,139.198059L240.238312,139.408569L240.182816,139.634094L235.562943,160.807861L235.551910,161.502869L235.716476,162.178223L236.045990,162.790222L236.519104,163.299622L245.007004,170.372864L245.502075,170.701477L246.056427,170.915283L246.643814,171.004395L247.236603,170.964600L247.806931,170.797729L248.327621,170.511719L248.774338,170.119873z" fill="#000000" stroke="none" fill-opacity="1" />
			</g>
		</g>
	</g>
</svg>
