<?xml version="1.0" encoding="UTF-8"?>
<!-- Generator: Blender, SVG Export for Grease Pencil - v2.0 -->
<!DOCTYPE svg PUBLIC "-//W3C//DTD SVG 1.1//EN" "http://www.w3.org/Graphics/SVG/1.1/DTD/svg11.dtd">
<svg version="1.1" x="0px" y="0px" xmlns="http://www.w3.org/2000/svg" width="1920.000000px" height="1080.000000px" viewBox="0 0 1920.000000 1080.000000">
	<g id="blender_frame.18">
		<g id="blender_object.Stroke.18.uuid_0x0">
			<g id="layer.Fills.uuid_0x1" />
			<g id="layer.black.uuid_0x2" />
			<g id="layer.skin.uuid_0x3" />
			<g id="layer.yella.uuid_0x4" />
			<g id="layer.red.uuid_0x5">
				<polyline points="285.809845,292.660950 275.696350,350.351074 256.629456,389.443542 245.705627,402.812012 241.736221,380.489136 187.403458,413.708252 125.652008,416.450317 80.725761,410.874817 65.034424,408.102295 47.238178,399.371094 82.231750,385.507996 72.908478,384.193909 43.198528,381.055725 11.642131,375.463867 18.395060,343.169312 46.995907,296.074707 68.992134,274.556885 106.392563,245.721008 81.501610,254.521790 51.280346,259.196838 77.065598,233.949158 102.213760,210.911743 115.846985,202.970886 138.138474,202.763611 130.425278,190.782227 124.547935,178.345459 122.286926,168.901184 121.493172,160.121643 137.893570,174.742371 150.526657,182.409363 164.790390,188.063354 181.768051,195.397522 220.104721,208.552002" fill="#879F4C" stroke="none" fill-opacity="1" />
				<path d="M288.241486,293.087158L288.277954,292.604675L288.219482,292.124268L288.068451,291.664429L287.830750,291.242920L287.515167,290.875977L287.134277,290.577515L286.702240,290.359131L286.236115,290.229248L285.753540,290.192871L285.273102,290.251282L284.813293,290.402222L284.391785,290.640076L284.024780,290.955505L283.726440,291.336487L283.508087,291.768433L283.378143,292.234680L273.324799,349.581787L254.536331,388.103516L247.195175,397.087585L244.166794,380.056946L244.017731,379.546143L243.762634,379.079163L243.413483,378.677734L242.986374,378.360413L242.501160,378.141907L241.980438,378.032532L241.448364,378.037292L240.929642,378.155884L240.448380,378.382935L186.658447,411.270203L125.764435,413.609131L81.184387,407.823608L66.019989,405.082703L55.509338,399.697693L83.740822,389.317078L84.473930,388.937134L85.115944,388.417969L85.640884,387.780579L86.027290,387.050903L86.259552,386.258545L86.328217,385.435730L86.230598,384.615784L85.970528,383.832092L85.558540,383.116516L85.011459,382.498047L84.351479,382.001831L83.605438,381.648071L82.803665,381.450989L73.470612,380.205811L43.723236,377.341064L16.410313,372.239197L22.504063,344.791260L50.763069,299.065979L71.982590,277.996643L108.532501,248.496338L109.045258,248.011230L109.450371,247.433167L109.731499,246.785706L109.877182,246.095032L109.881424,245.389221L109.744209,244.696838L109.470978,244.045837L109.072884,243.463013L108.565971,242.971680L107.970940,242.591919L107.311874,242.339050L106.615501,242.223450L105.910088,242.249756L105.224297,242.416809L80.515305,250.604736L64.689331,252.483643L79.926163,236.969421L104.377380,213.851196L116.746033,206.239929L138.164520,205.559448L138.755890,205.490479L139.319214,205.297974L139.829117,204.990479L140.262268,204.581970L140.599197,204.091064L140.824417,203.540100L140.927979,202.953735L140.904968,202.358765L140.756546,201.782104L140.489441,201.250183L133.044891,189.328125L127.603912,177.270508L125.612404,168.355652L123.054138,163.222046L135.853897,177.030396L148.989655,184.942017L163.668121,190.773560L180.666260,197.947937L219.494751,210.329468L219.853287,210.414307L220.221451,210.427551L220.585083,210.368713L220.930313,210.240112L221.243820,210.046570L221.513428,209.795715L221.729034,209.497009L221.882172,209.161865L221.967087,208.803406L221.980301,208.435181L221.921463,208.071594L221.792892,207.726440L221.599319,207.412964L221.348419,207.143250L221.049728,206.927673L220.714630,206.774536L182.771225,192.804443L165.953568,185.370789L151.850327,179.747253L139.723892,172.267517L123.802925,157.530579L123.190376,157.093750L122.498016,156.799194L121.758492,156.660645L121.006454,156.684753L120.277336,156.870422L119.605240,157.208679L119.021919,157.683899L118.554779,158.273682L118.225540,158.950317L118.049919,159.681946L118.036018,160.434204L118.939362,169.203918L121.414261,179.095764L127.722183,192.059570L133.043732,200.014832L115.816551,199.693665L114.197548,200.138916L100.387283,207.776001L74.255959,230.882080L48.073021,255.921265L47.460537,256.661865L47.016045,257.513794L46.758896,258.439941L46.700359,259.399170L46.843185,260.349426L47.181015,261.249268L47.698975,262.058716L48.374229,262.742432L49.177265,263.270447L50.072765,263.619385L51.021252,263.773987L51.981182,263.727356L82.116447,258.496338L86.886574,256.334961L66.213913,270.953491L43.658466,292.663086L14.673672,340.909241L7.719783,374.643677L7.635955,375.554688L7.760983,376.460938L8.088226,377.315247L8.600749,378.073059L9.271717,378.694824L10.066395,379.148193L10.943012,379.409607L42.544327,384.747375L72.415749,388.191772L78.163429,385.992737L46.004276,396.256653L45.382629,396.581970L44.842300,397.029663L44.407139,397.580139L44.096085,398.209106L43.922939,398.889099L43.895245,399.590210L44.014263,400.281799L44.274731,400.933411L44.665142,401.516418L45.168457,402.005310L45.762577,402.378601L63.649120,410.925842L80.189034,413.912292L125.303131,419.262085L187.513046,416.174561L188.691269,415.814575L239.938644,384.481750L243.275055,403.244263L243.416061,403.735352L243.655167,404.186890L243.982010,404.579468L244.382675,404.896362L244.840103,405.124084L245.334488,405.252747L245.844879,405.276794L246.349167,405.195374L246.825989,405.011902L247.254852,404.734192L247.617355,404.374146L258.541199,391.005615L277.915192,351.433289z" fill="#000000" stroke="none" fill-opacity="1" />
				<polygon points="399.854370,80.564392 399.947968,53.107910 407.150421,26.049194 417.552124,8.508423 441.711578,26.464355 429.102325,38.090454 409.783264,64.797546" fill="#879F4C" stroke="none" fill-opacity="1" />
				<path d="M396.048584,80.551392L396.119110,81.294128L396.333313,82.008911L396.682770,82.667969L397.154114,83.246399L397.729218,83.721619L398.386017,84.075623L399.099121,84.294617L399.841400,84.370300L400.584106,84.299744L401.298798,84.085449L401.957977,83.736084L402.536316,83.264771L403.011597,82.689636L403.365509,82.032898L403.584534,81.319580L403.660187,80.577454L402.738464,53.477783L410.890991,27.620605L418.878632,15.113525L435.422150,26.796997L427.476471,36.327148L408.066467,63.555664L396.633911,78.536377L396.300140,79.203735L396.102966,79.923279L396.049957,80.667419L396.143127,81.407532L396.378906,82.115479L396.748291,82.763611L397.237000,83.327332L397.826294,83.784851L398.493561,84.118713L399.213135,84.315796L399.957336,84.368835L400.697540,84.275635L401.405334,84.039978L402.053589,83.670532L402.617279,83.181824L403.074799,82.592529L411.540009,65.984314L430.904877,39.691040L444.435730,29.418945L445.014130,28.754150L445.433777,27.979370L445.674530,27.131714L445.724701,26.251953L445.581940,25.382446L445.253143,24.565063L444.754059,23.838745L444.108734,23.238770L420.242310,4.888916L419.431366,4.408813L418.538422,4.107788L417.602325,3.998901L416.664154,4.086914L415.764679,4.368042L414.943207,4.829834L414.235718,5.452271L413.673004,6.208130L403.693665,23.999268L397.250214,52.389771z" fill="#000000" stroke="none" fill-opacity="1" />
				<polyline points="182.963379,198.751770 222.941483,213.249390 284.092712,282.785583 279.322113,324.693970 256.091064,342.446960 241.811417,307.480164 187.404602,275.801575 179.965607,229.206116 182.125214,223.532166 148.902100,197.224609 163.213409,189.979431" fill="#ACBF6E" stroke="none" fill-opacity="1" />
				<polygon points="420.640869,87.159302 428.970398,68.612671 442.922668,47.407471 464.762848,29.605713 482.269684,24.669800 475.636810,85.991516 461.284821,83.666443 439.246399,88.112061" fill="#879F4C" stroke="none" fill-opacity="1" />
				<path d="M417.297638,85.657776L417.068970,86.338867L416.977570,87.051392L417.026917,87.768188L417.215118,88.461609L417.535004,89.104919L417.974274,89.673279L418.515961,90.145325L419.139343,90.502380L419.820435,90.731079L420.533051,90.822632L421.249817,90.773193L421.943146,90.584961L422.586456,90.265137L423.154938,89.825867L423.626892,89.284058L423.984070,88.660706L430.572723,69.492249L444.891968,49.185669L467.259308,34.408691L475.618317,32.536743L473.660156,83.397888L461.903870,79.845093L438.961731,84.269592L420.828278,83.499207L420.110596,83.532898L419.413300,83.706116L418.763214,84.011841L418.185303,84.438599L417.701752,84.969910L417.331024,85.585510L417.087616,86.261414L416.980743,86.971802L417.014496,87.689514L417.187653,88.386780L417.493469,89.036865L417.920319,89.614868L418.451599,90.098450L419.067139,90.469055L419.743011,90.712402L420.453461,90.819458L439.050842,91.929871L461.360413,87.600098L475.277924,88.206909L475.796722,88.230103L476.307037,88.133423L476.781433,87.921875L477.194519,87.607056L477.524231,87.205750L477.752777,86.739258L477.868011,86.232971L488.003082,25.289917L488.002167,24.040771L487.732178,22.821167L487.205994,21.688110L486.448029,20.695190L485.494171,19.888672L484.389008,19.306519L483.184296,18.976074L481.936768,18.912598L480.704834,19.119385L463.324615,24.504272L461.414154,25.497314L441.265686,45.374512L427.448303,67.611145z" fill="#000000" stroke="none" fill-opacity="1" />
				<polyline points="186.713852,199.819031 179.805969,178.270691 169.328201,170.639465 152.483643,158.216492 140.110519,141.409119 136.567780,127.085632 176.395096,145.112671 154.700943,118.244202 151.291290,100.202454 147.063721,55.971436 195.408310,102.307617 216.962173,108.971924 238.477936,112.314026 254.502853,109.866272 289.602814,107.144287 353.240204,98.835449 388.239777,92.582703 405.606293,93.984802 410.344208,106.435364 429.719116,164.642273 446.395386,228.274353 447.962463,241.331482 406.314056,310.887085 395.549744,325.781555 388.353241,334.047974 351.489746,320.428894 244.964905,279.921875 203.076706,238.881775 185.628830,201.589783" fill="#ADBF6F" stroke="none" fill-opacity="1" />
				<path d="M183.806931,200.750916L184.044617,201.300171L184.384842,201.792419L184.814529,202.208801L185.317307,202.533447L185.873611,202.753784L186.462296,202.861328L187.060730,202.851868L187.645737,202.726013L188.194885,202.488281L188.687195,202.148010L189.103592,201.718262L189.428268,201.215576L189.648575,200.659180L189.756073,200.070435L189.746689,199.472168L189.620758,198.887207L180.872040,177.928955L180.713364,177.614929L180.465073,177.365845L170.318008,169.289062L154.638687,156.063416L143.737503,139.708130L142.537476,134.258301L175.667313,146.720520L176.011215,146.835388L176.371307,146.877441L176.732422,146.845032L177.079239,146.739624L177.397156,146.565552L177.672897,146.330078L177.894684,146.043396L178.053177,145.717285L178.141708,145.365723L178.156631,145.003418L178.097137,144.645874L177.965866,144.307983L177.768219,144.004028L158.173203,116.638977L155.358398,99.625000L152.270782,66.724854L193.296417,104.511108L194.506744,105.223694L216.413788,110.745422L238.394379,112.852173L254.585083,110.581299L289.749298,109.032715L353.608002,101.652222L388.379395,95.482727L403.500793,96.789917L407.509735,107.446106L426.764526,165.520142L443.297882,228.863159L444.677307,240.631165L403.504303,309.035400L392.426117,323.301575L387.115509,329.206543L352.851471,316.795959L246.811508,277.036255L205.857071,236.910950L188.666336,200.168640L188.330658,199.603394L187.891205,199.114380L187.364899,198.720581L186.771744,198.437012L186.134705,198.274597L185.478287,198.239624L184.827576,198.333374L184.207703,198.552307L183.642365,198.887939L183.153458,199.327332L182.759613,199.853760L182.476105,200.446899L182.313690,201.083923L182.278687,201.740356L182.372406,202.391113L182.591339,203.010986L200.039215,240.302979L242.617981,282.317261L243.772934,283.056335L350.110748,324.055237L386.928070,337.905701L387.892700,338.134644L388.884155,338.126099L389.844727,337.880554L390.718597,337.412170L391.455048,336.748352L398.554840,328.397766L409.038849,312.856201L450.689331,242.964233L451.070953,241.994141L451.118195,240.952759L449.518616,227.899536L432.699005,163.861267L413.198761,105.485229L408.377869,92.930115L408.072235,92.337524L407.641815,91.828308L407.108521,91.427979L406.499329,91.156982L405.844910,91.028870L388.471436,89.712708L352.806305,96.027161L289.406891,105.259644L254.447296,109.149353L238.478622,111.763367L217.381027,107.158447L196.999329,99.604858L149.942490,52.968140L149.279541,52.450439L148.526001,52.076660L147.712723,51.862183L146.872849,51.815552L146.040848,51.939087L145.250641,52.227173L144.534531,52.668335L143.921814,53.244629L143.437500,53.932251L143.101501,54.703369L142.927383,55.526245L142.922348,56.367371L147.206268,100.592896L151.055420,118.933167L151.814392,120.574829L170.355087,140.441467L138.247314,123.375122L137.462814,123.112244L136.641479,123.013428L135.816925,123.082520L135.023514,123.316833L134.293839,123.706665L133.657883,124.235840L133.142105,124.882812L132.767654,125.620483L132.549881,126.418640L132.498032,127.244385L132.614075,128.063416L136.296204,142.352417L136.946350,143.738525L150.058121,160.002136L168.334518,171.986816L178.851471,178.960510z" fill="#000000" stroke="none" fill-opacity="1" />
				<polygon points="339.271820,315.144226 388.517212,275.213562 403.182495,315.205261 388.546173,335.572449 353.188019,319.023926" fill="#25067F" stroke="none" fill-opacity="1" />
				<path d="M336.887085,312.203247L336.359192,312.724976L335.943176,313.339661L335.655090,314.023804L335.506042,314.750916L335.501556,315.493042L335.642090,316.221863L335.922150,316.909363L336.330811,317.528931L336.852539,318.056824L337.467255,318.472839L338.151337,318.760925L338.878357,318.909973L339.620636,318.914368L340.349518,318.773865L341.036835,318.493835L341.656433,318.085205L388.517212,275.213562L399.319061,314.677246L387.195923,330.391785L354.830627,315.514343L340.288635,311.497070L339.557556,311.368774L338.815491,311.385559L338.090973,311.546814L337.411865,311.846252L336.804138,312.272522L336.291321,312.809082L335.893005,313.435364L335.624603,314.127441L335.496307,314.858459L335.513123,315.600525L335.674316,316.325073L335.973816,317.004150L336.400024,317.611877L336.936646,318.124634L337.562988,318.523010L338.254944,318.791443L351.837128,322.670044L386.799805,339.303955L387.700104,339.604553L388.645325,339.691101L389.585236,339.559204L390.470032,339.215576L391.252777,338.678589L391.891754,337.976685L405.980499,317.215881L406.382874,316.481506L406.596344,315.671692L406.608032,314.834473L406.417389,314.018982L388.517212,275.213562z" fill="#000000" stroke="none" fill-opacity="1" />
				<polygon points="266.255890,180.429138 309.663208,170.919189 336.507629,177.727722 334.431427,216.503113 340.700836,231.059753 299.413055,223.105530 278.470398,220.238892 246.720825,211.667236 246.429504,205.957520 238.087753,184.850525" fill="#25067F" stroke="none" fill-opacity="1" />
				<path d="M265.706451,177.921326L265.227814,178.076721L264.788574,178.322571L264.405823,178.649292L264.094147,179.044434L263.865570,179.492737L263.728790,179.977051L263.689087,180.478760L263.748138,180.978638L263.903564,181.457214L264.149261,181.896423L264.475983,182.279236L264.871155,182.590881L265.319550,182.819458L265.803833,182.956238L266.305542,182.995850L266.805328,182.936829L309.612335,174.033020L331.355438,181.519531L333.601746,216.458618L333.668335,216.831726L340.330688,230.762207L300.061096,219.741943L279.095764,217.151428L249.412354,209.494934L249.079803,205.822144L241.276184,186.673462L266.653961,182.965271L267.141083,182.838867L267.594269,182.619812L267.995911,182.316650L268.330688,181.940979L268.585785,181.507141L268.751373,181.031860L268.821014,180.533325L268.791992,180.031006L268.665649,179.543823L268.446625,179.090820L268.143494,178.689087L267.767700,178.354187L267.333923,178.099182L266.858582,177.933777L266.360260,177.864075L265.857758,177.892883L237.731766,182.583008L237.237167,182.718750L236.785049,182.960815L236.397842,183.297302L236.095093,183.711365L235.891968,184.182312L235.798416,184.686646L235.819077,185.199036L235.953125,185.694153L243.801315,206.527771L243.925598,211.809937L244.048843,212.500305L244.339813,213.138306L244.780258,213.684021L245.342499,214.103088L245.991257,214.369263L277.651001,223.273987L298.856445,226.486572L340.658783,231.277954L340.706665,231.281982L340.754272,231.275452L340.799500,231.258911L340.839996,231.233032L340.873993,231.199097L340.899872,231.158447L340.916443,231.113464L340.922974,231.065796L340.919098,231.017883L340.904907,230.971985L335.271423,216.353210L341.442627,177.992065L341.373474,176.863342L341.049591,175.779846L340.487946,174.798401L339.717865,173.970276L338.779724,173.338928L337.722565,172.937378L310.408325,167.981384L309.014557,167.958679z" fill="#000000" stroke="none" fill-opacity="1" />
				<polygon points="405.742249,151.061829 388.018158,153.370911 370.154816,163.519958 377.290222,213.887634 375.565826,231.396667 397.950592,209.476257 408.499725,203.003540 423.295044,196.503296 422.004364,187.808411 421.816956,158.863892" fill="#25067F" stroke="none" fill-opacity="1" />
				<path d="M406.041443,153.358398L406.483704,153.255981L406.897522,153.069153L407.266876,152.805237L407.577698,152.474243L407.818054,152.089050L407.978485,151.664246L408.053009,151.216492L408.038788,150.762634L407.936310,150.320435L407.749481,149.906616L407.485565,149.537109L407.154633,149.226318L406.769409,148.986084L406.344727,148.825500L405.896851,148.751038L405.443054,148.765259L387.645294,150.508911L386.592377,150.861511L367.995789,159.720093L367.157715,160.339111L366.489868,161.138794L366.030457,162.073975L365.805420,163.091248L365.827545,164.132996L376.663635,213.900879L375.344727,231.374878L375.344849,231.420166L375.354248,231.464294L375.372192,231.505676L375.398315,231.542725L375.431305,231.573608L375.469818,231.597168L375.512390,231.612305L375.557098,231.618774L375.602173,231.615906L375.645782,231.604126L375.686005,231.583618L375.721344,231.555420L399.253143,211.145447L409.604767,205.114929L424.248871,198.674622L424.694763,198.417725L425.074707,198.070923L425.370850,197.650208L425.569305,197.175537L425.660828,196.669189L425.640930,196.155029L424.358490,187.627075L424.155396,158.848816L424.094391,158.333191L423.921112,157.843689L423.644135,157.404541L423.277069,157.037354L422.838013,156.760193L406.753510,148.978333L406.327545,148.821045L405.879181,148.750000L405.425568,148.767578L404.984009,148.873413L404.571686,149.063477L404.204285,149.330200L403.896027,149.663513L403.658722,150.050598L403.501434,150.476624L403.430298,150.924866L403.447998,151.378540L403.553864,151.820068L403.743866,152.232422L404.010651,152.599792L404.343964,152.908081L404.730988,153.145325L419.487976,160.332825L419.649048,187.823669L420.683197,195.060303L407.543365,200.826660L396.850281,207.682983L375.846924,230.810486L377.909637,213.948669L374.899109,165.851074L388.951996,156.159668z" fill="#000000" stroke="none" fill-opacity="1" />
				<polygon points="277.009277,197.370789 288.527802,188.781555 297.890564,199.596191 300.089935,220.677063 274.869690,217.481384" fill="#EDEEEB" stroke="none" fill-opacity="1" />
				<polyline points="384.681152,220.908630 398.469696,206.348816 397.016876,181.970398 383.737396,171.016602 379.454895,189.693787 381.370270,213.953796" fill="#EDEEEB" stroke="none" fill-opacity="1" />
				<polyline points="254.977386,208.003113 255.557037,197.476624 261.878967,197.228577 265.488556,201.096863 263.554443,211.273804 258.085968,211.757263" fill="#EDEEEB" stroke="none" fill-opacity="1" />
				<polyline points="404.809967,192.507446 402.931793,178.641846 405.578979,173.104309 410.572632,177.459167 411.618927,192.001648 409.318665,196.458069" fill="#EDEEEB" stroke="none" fill-opacity="1" />
			</g>
			<g id="layer.apron.uuid_0x6">
				<polyline points="201.319412,237.653320 221.090057,260.577759 212.172928,261.589355 185.343002,238.523132 181.453339,227.167542 176.732941,211.877136 187.773270,202.328979" fill="#25067F" stroke="none" fill-opacity="1" />
				<path d="M203.624268,235.665649L203.192123,235.254150L202.688065,234.934875L202.131500,234.720154L201.543655,234.618103L200.947205,234.632568L200.364990,234.763367L199.819565,235.005066L199.331635,235.348511L198.920227,235.780579L198.600983,236.284668L198.386124,236.841309L198.284164,237.429077L198.298706,238.025574L198.429321,238.607727L198.671082,239.153198L199.014587,239.641113L215.000534,258.194275L213.144821,258.431519L187.926865,236.772949L184.057327,226.319824L179.140823,212.567322L188.791504,203.506165L189.001633,203.284973L189.164490,203.026978L189.274002,202.742126L189.325729,202.441406L189.317825,202.136353L189.250656,201.838684L189.126648,201.559937L188.950592,201.310730L188.729324,201.100525L188.471375,200.937622L188.186462,200.828125L187.885834,200.776367L187.580734,200.784241L187.283188,200.851562L187.004303,200.975586L186.755051,201.151550L175.361008,210.290955L175.033768,210.647888L174.797104,211.070435L174.663620,211.535950L174.640564,212.019592L174.729019,212.495911L178.836990,227.975281L182.493881,239.499084L183.379654,240.806885L210.198822,263.885498L210.894684,264.334534L211.686218,264.578125L212.514252,264.598206L221.434402,263.613037L222.079697,263.467834L222.678619,263.187012L223.203033,262.783936L223.628357,262.277466L223.934784,261.691162L224.107742,261.052795L224.139160,260.392151L224.027756,259.740112L223.778610,259.127441L223.403366,258.582764z" fill="#000000" stroke="none" fill-opacity="1" />
			</g>
		</g>
	</g>
</svg>
