<?xml version="1.0" encoding="UTF-8"?>
<!-- Generator: Blender, SVG Export for Grease Pencil - v2.0 -->
<!DOCTYPE svg PUBLIC "-//W3C//DTD SVG 1.1//EN" "http://www.w3.org/Graphics/SVG/1.1/DTD/svg11.dtd">
<svg version="1.1" x="0px" y="0px" xmlns="http://www.w3.org/2000/svg" width="1920.000000px" height="1080.000000px" viewBox="0 0 1920.000000 1080.000000">
	<g id="blender_frame.19">
		<g id="blender_object.Stroke.19.uuid_0x0">
			<g id="layer.Fills.uuid_0x1" />
			<g id="layer.black.uuid_0x2" />
			<g id="layer.skin.uuid_0x3" />
			<g id="layer.yella.uuid_0x4" />
			<g id="layer.red.uuid_0x5">
				<polyline points="654.093262,578.577515 690.059082,726.053955 697.942322,842.928101 697.026489,885.612671 668.099365,830.779053 645.232727,956.587708 553.846802,1008.227539 451.392731,1040.235229 407.114380,1049.345825 351.569794,1048.132690 456.092560,990.786804 432.451752,997.924194 339.308746,1017.803467 201.019608,1020.462280 191.479294,955.510864 177.383835,851.944702 179.144226,795.597290 189.637070,695.445129 154.754623,737.013184 90.045097,758.624634 91.363853,679.367065 110.760727,606.358582 132.763077,575.866211 192.802460,555.255310 152.576065,529.816406 117.618660,499.217590 99.211128,474.708374 86.889557,451.121033 151.781448,478.995178 198.995529,484.994995 249.003296,478.738708 308.225647,470.429443 428.431152,445.054321" fill="#D19048" stroke="none" fill-opacity="1" />
				<path d="M660.134949,577.104126L659.731384,575.953735L659.111145,574.904236L658.298157,573.995850L657.323547,573.263550L656.224731,572.735474L655.044067,572.431885L653.826843,572.364502L652.619873,572.535889L651.469482,572.939331L650.420044,573.559631L649.511658,574.372620L648.779358,575.347290L648.251282,576.446045L647.947693,577.626709L647.880310,578.843933L648.051575,580.050903L683.890503,727.006958L691.719116,843.070984L691.324219,861.475769L673.599609,827.877441L672.888367,826.812012L671.973877,825.914917L670.895081,825.224182L669.697510,824.769226L668.432129,824.569275L667.152710,824.632812L665.913391,824.957214L664.766785,825.528687L663.761841,826.322876L662.940735,827.306152L662.338562,828.436890L661.980896,829.666992L639.635437,952.607666L550.995178,1001.640930L449.446442,1032.703247L406.393494,1041.406006L383.237396,1040.383667L461.056793,999.835022L462.830017,998.604797L464.308624,997.032593L465.427917,995.187378L466.138977,993.149658L466.410736,991.008667L466.231232,988.857910L465.608429,986.791565L464.569427,984.899902L463.159790,983.265686L461.441071,981.960388L459.488464,981.040955L457.387390,980.547791L455.229675,980.502380L453.109650,980.906738L429.922577,988.090149L338.222412,1008.378357L209.714417,1010.199219L202.338821,953.974365L189.431366,851.317383L190.586990,796.374451L198.416992,696.364990L198.413605,694.494141L198.016220,692.666077L197.242416,690.962769L196.127075,689.460815L194.720322,688.227539L193.085251,687.318481L191.295334,686.774292L189.430923,686.619629L187.575760,686.861206L185.813202,687.488281L184.222366,688.472778L182.874710,689.770386L148.832535,728.309937L101.863121,742.502563L101.818489,680.820679L119.161842,610.337952L137.923508,582.823181L195.089218,561.916687L196.392990,561.314270L197.547470,560.459961L198.504593,559.389160L199.224533,558.146545L199.677597,556.783630L199.844589,555.357239L199.718857,553.926514L199.305511,552.551086L198.621841,551.288147L197.696075,550.190125L196.566757,549.302795L157.096024,523.763977L123.601059,493.667053L106.395782,470.176025L106.017838,468.853943L148.734055,486.089661L198.054718,492.398254L249.920441,486.069946L309.198029,477.359924L429.408966,449.685852L430.293701,449.406189L431.106903,448.959167L431.817291,448.362061L432.397583,447.637939L432.825470,446.814514L433.084442,445.923401L433.164551,444.998901L433.062836,444.076477L432.783051,443.191711L432.336060,442.378479L431.739075,441.668152L431.014893,441.087891L430.191376,440.659973L429.300354,440.401062L428.375854,440.320862L427.453491,440.422607L307.015259,463.532288L248.031296,471.414246L199.002869,477.473083L153.831665,471.472290L90.340584,443.087036L88.634323,442.553040L86.855171,442.377319L85.077438,442.567139L83.375481,443.114441L81.820450,443.996582L80.477318,445.176514L79.402260,446.605042L78.640198,448.222351L78.223061,449.960815L78.168243,451.747803L78.478035,453.508545L79.139389,455.169495L91.706604,478.628540L111.128487,504.092041L147.615692,535.483337L176.629715,553.360840L130.082535,568.057983L127.844704,569.235718L126.068352,571.035583L103.347878,601.009644L81.237717,676.676636L78.498520,758.432617L78.717041,760.868652L79.443748,763.204224L80.645889,765.334167L82.269806,767.163208L84.242485,768.609192L86.475449,769.607300L88.868469,770.112793L91.314415,770.102905L93.703255,769.578125L157.963898,746.622437L162.515198,743.525574L177.850403,723.223999L167.745148,794.403015L165.367523,851.569275L180.611862,956.989868L191.032730,1021.929260L191.670288,1024.267578L192.846924,1026.386597L194.494705,1028.163940L196.518707,1029.497314L198.802261,1030.309814L201.213638,1030.554443L339.490326,1027.245972L434.569366,1007.846008L446.576691,994.782104L347.510803,1040.734375L346.113007,1041.695801L344.935760,1042.917358L344.026611,1044.349731L343.422394,1045.934937L343.147461,1047.609009L343.212921,1049.304321L343.616119,1050.952271L344.340881,1052.486206L345.357697,1053.844116L346.625702,1054.971313L348.093475,1055.822021L349.701782,1056.361938L351.385529,1056.569336L406.941467,1057.266113L452.958588,1047.845703L555.975159,1015.040161L648.292114,962.001831L649.722107,960.890991L650.771423,959.415222L651.351196,957.699768L670.998596,849.602661L691.526245,888.514282L692.222961,889.562012L693.116150,890.448059L694.169495,891.136169L695.339722,891.598206L696.579102,891.815247L697.836731,891.778381L699.061218,891.489075L700.202454,890.959229L701.213623,890.210571L702.053345,889.273682L702.687378,888.186890L703.089661,886.994751L703.243774,885.746033L704.159668,843.061523L696.263733,725.635437z" fill="#000000" stroke="none" fill-opacity="1" />
				<polygon points="930.816101,164.811707 938.983521,103.048645 965.019897,51.026978 997.146545,26.507690 1059.860352,108.656982 1022.214355,110.747131 961.921021,140.849487" fill="#D19048" stroke="none" fill-opacity="1" />
				<path d="M921.312012,163.554871L921.249451,165.433167L921.554565,167.287598L922.215576,169.046814L923.207031,170.643372L924.490906,172.015808L926.017883,173.111328L927.729309,173.887939L929.559265,174.315735L931.437561,174.378296L933.291992,174.073181L935.051208,173.412170L936.647766,172.420715L938.020142,171.136841L939.115662,169.609802L939.892334,167.898376L940.320129,166.068359L945.800415,105.140564L973.024231,57.653015L995.009338,42.429932L1040.217041,99.608826L1021.879395,104.714600L1019.515625,105.341553L959.536804,136.074219L924.965515,157.217102L923.596313,158.504456L922.504578,160.034180L921.732239,161.747437L921.308960,163.578430L921.250977,165.456970L921.560669,167.310547L922.226074,169.068176L923.221497,170.662170L924.508850,172.031433L926.038513,173.123169L927.751831,173.895508L929.582947,174.318848L931.461365,174.376648L933.314941,174.067017L935.072571,173.401611L936.666626,172.406189L964.768311,145.393677L1023.796021,116.710510L1060.421631,118.764587L1062.582031,118.407410L1064.615112,117.593994L1066.425781,116.362427L1067.929077,114.770325L1069.055054,112.892151L1069.750732,110.815796L1069.983398,108.638428L1069.742676,106.461914L1069.039551,104.388062L1067.906860,102.514038L1006.176514,19.614136L1004.416260,17.777832L1002.291565,16.379028L999.909058,15.488159L997.387878,15.149658L994.854614,15.380859L992.436340,16.169678L990.254211,17.476929L958.877930,42.979492L955.966858,46.495972L932.694763,99.901184z" fill="#000000" stroke="none" fill-opacity="1" />
				<polyline points="315.037262,477.853577 439.023346,454.062317 641.631287,556.874084 671.512024,658.820618 644.996643,718.979736 579.076111,651.979431 427.122314,654.796509 342.621979,560.497620 341.265289,543.396240 214.116272,526.688110 245.966263,485.997681" fill="#DDC759" stroke="none" fill-opacity="1" />
				<polygon points="982.901855,198.665466 1011.423828,170.323425 1056.285034,149.529297 1120.193359,154.526062 1167.389648,175.532227 1125.226196,250.866455 1089.677979,232.907104 1031.010132,217.884644" fill="#D19048" stroke="none" fill-opacity="1" />
				<path d="M976.394653,192.116943L975.242065,193.512268L974.384033,195.105652L973.853149,196.835876L973.670166,198.636292L973.841797,200.437927L974.361694,202.171387L975.209717,203.770142L976.353333,205.172668L977.748657,206.325195L979.342041,207.183411L981.072205,207.714172L982.872681,207.897278L984.674255,207.725647L986.407715,207.205688L988.006470,206.357666L989.409119,205.213989L1014.086304,174.148132L1057.494141,156.250244L1116.862915,167.657593L1146.937866,182.330017L1122.939331,243.377563L1094.075073,224.203674L1034.003418,208.710754L986.326721,190.092468L984.588501,189.588989L982.785339,189.434387L980.986694,189.634460L979.261536,190.181702L977.676514,191.054932L976.292053,192.220581L975.161743,193.633850L974.328857,195.240540L973.825439,196.978882L973.670776,198.782104L973.870850,200.580750L974.418091,202.305786L975.291321,203.890930L976.456909,205.275269L977.870239,206.405640L979.476990,207.238586L1027.437744,226.827026L1086.229492,242.089966L1122.677002,255.912170L1123.830444,256.344482L1125.050171,256.516846L1126.278198,256.420837L1127.456421,256.061035L1128.528564,255.454590L1129.443970,254.630371L1130.159058,253.627441L1180.065918,182.626892L1181.379272,179.445862L1181.907227,176.045044L1181.620483,172.615540L1180.535034,169.349609L1178.711670,166.430786L1176.252808,164.022766L1173.296631,162.260742L1125.622437,142.328430L1056.800049,142.943054L1053.506836,143.535522L1009.493713,166.159302z" fill="#000000" stroke="none" fill-opacity="1" />
				<polyline points="333.383331,469.734985 305.075409,411.290649 268.577454,403.422668 209.694153,388.948853 165.743820,353.937744 153.533081,317.145874 287.149200,316.489563 213.145599,271.668396 203.151398,228.309143 198.022629,127.609375 351.108978,168.214966 420.326050,161.752258 486.296906,155.536926 532.326050,144.285828 628.756165,140.859436 803.431030,158.897400 896.974426,180.490784 941.420044,199.959900 949.532104,230.582886 979.641785,363.137146 1008.307983,508.353760 1010.478088,538.703247 900.211975,685.105835 875.400757,716.328369 860.053345,733.945557 774.709534,695.591064 522.087769,624.011353 389.713715,558.812256 332.800323,474.308777" fill="#DDC759" stroke="none" fill-opacity="1" />
				<path d="M326.462799,473.087036L327.249817,474.372681L328.272400,475.480225L329.491425,476.366943L330.860046,476.998779L332.325623,477.351501L333.831848,477.411499L335.320770,477.176453L336.735382,476.655518L338.021057,475.868652L339.128571,474.845947L340.015259,473.626953L340.647095,472.258362L340.999786,470.792786L341.059753,469.286560L340.824799,467.797546L340.303864,466.383057L307.613373,410.061279L307.131958,409.361145L306.463867,408.836060L305.669647,408.533936L269.525360,399.312622L213.120346,381.978333L174.211197,348.028687L167.724670,327.335754L287.170990,320.935303L288.051178,320.842957L288.895599,320.578003L289.670807,320.151062L290.346069,319.579102L290.894714,318.884705L291.294891,318.095337L291.530853,317.242310L291.593109,316.359558L291.479248,315.481873L291.193817,314.644226L290.748199,313.879639L290.159912,313.218445L289.452393,312.686951L221.365082,265.720886L213.428726,226.874207L209.219345,141.421509L349.137787,175.646301L420.760773,166.408142L486.425537,156.902283L532.575867,146.089722L628.595032,145.639465L802.254211,165.969788L894.683838,187.405701L935.121887,205.356323L942.171692,232.393066L972.050171,364.748352L1000.439087,509.407654L1002.278442,536.282471L893.513611,679.923218L867.684204,709.906738L857.290222,721.346313L778.715637,686.677002L525.130493,616.093506L395.463898,552.227905L339.806854,469.589844L338.751587,468.313599L337.467621,467.267761L336.004333,466.492554L334.417908,466.017639L332.769318,465.861328L331.121918,466.029785L329.539001,466.516296L328.081482,467.302246L326.805237,468.357483L325.759338,469.641479L324.984100,471.104797L324.509247,472.691162L324.352966,474.339783L324.521332,475.987183L325.007874,477.570068L325.793854,479.027649L382.707275,563.531189L385.981323,566.390381L518.355225,631.589478L771.356445,704.798584L855.806824,743.394531L858.330750,744.160645L860.966248,744.264526L863.542542,743.699585L865.892761,742.502258L867.864380,740.750244L882.968384,722.921143L906.842102,690.374390L1016.873291,543.519958L1018.156616,540.970154L1018.463928,538.132263L1016.211548,507.788635L987.254822,361.634399L956.922363,228.904175L948.641052,198.046936L947.754578,196.000671L946.303589,194.307190L944.417358,193.117554L899.884521,173.847229L805.040527,151.924866L629.246216,136.113403L532.261780,142.475525L486.068481,154.181152L419.889404,157.096741L351.757141,160.432678L200.709473,117.479919L198.549347,117.142822L196.366257,117.261475L194.255402,117.830200L192.308350,118.824646L190.610062,120.201294L189.234421,121.900513L188.241119,123.848083L187.673553,125.959351L187.556366,128.142517L192.827850,228.834961L204.039062,273.767395L204.913635,276.092102L206.369644,278.104248L208.304214,279.661865L271.355164,312.121399L153.482681,306.886536L151.349213,307.121582L149.311310,307.795288L147.458221,308.878296L145.870972,310.323181L144.619156,312.066589L143.757492,314.032471L143.323578,316.134521L143.336639,318.280884L143.795944,320.377563L156.349930,357.055420L157.627197,359.602051L159.576828,361.679382L204.966904,394.883057L207.883133,396.316467L267.570709,407.518127L303.136841,413.757507z" fill="#000000" stroke="none" fill-opacity="1" />
				<polygon points="746.491882,680.971313 858.426453,601.468872 892.751099,694.047668 860.515381,737.521790 778.030273,692.483154" fill="#20116D" stroke="none" fill-opacity="1" />
				<path d="M740.968872,673.195435L739.558044,674.422302L738.413635,675.900879L737.579651,677.574280L737.088135,679.378235L736.958069,681.243347L737.194336,683.098083L737.787964,684.871094L738.715881,686.494202L739.942871,687.905090L741.421387,689.049500L743.094788,689.883423L744.898743,690.374878L746.763855,690.505066L748.618652,690.268799L750.391602,689.675293L752.014709,688.747192L858.309448,601.848389L882.978516,692.655640L857.559875,724.083862L782.708191,683.916077L749.762085,672.011841L747.951355,671.546021L746.084534,671.442383L744.233337,671.704956L742.468933,672.323608L740.859192,673.274536L739.465881,674.521362L738.342529,676.015930L737.532410,677.701050L737.066528,679.511841L736.962952,681.378662L737.225464,683.229736L737.844116,684.994202L738.795105,686.604004L740.041809,687.997314L741.536499,689.120605L743.221497,689.930786L773.995422,701.401245L855.541870,746.630310L857.837097,747.548157L860.284302,747.897095L862.744568,747.657471L865.078308,746.842773L867.153259,745.499146L868.851624,743.703003L899.722839,699.217041L900.779419,697.345459L901.343567,695.271606L901.380859,693.122681L900.888977,691.030396L858.652954,601.384888L858.627930,601.335571L858.592468,601.293335L858.548218,601.260132L858.497620,601.237976L858.443359,601.227844L858.388123,601.230286L858.334961,601.245239L858.286560,601.271851z" fill="#000000" stroke="none" fill-opacity="1" />
				<polygon points="586.201111,475.380676 695.567444,443.681641 763.296814,437.708374 760.233459,458.940979 776.429382,464.597839 672.984497,476.383667 620.274231,487.780151 540.781067,509.349243 539.579102,506.386902 515.605103,503.047974" fill="#20116D" stroke="none" fill-opacity="1" />
				<path d="M584.400818,469.169495L583.223694,469.640076L582.160950,470.331238L581.253479,471.216431L580.536133,472.261658L580.036499,473.426758L579.773865,474.666931L579.758057,475.934570L579.989929,477.180969L580.460510,478.358032L581.151611,479.420776L582.036865,480.328247L583.082153,481.045593L584.247192,481.545227L585.487427,481.807922L586.755005,481.823669L588.001343,481.591797L696.978760,451.221252L748.730408,451.490417L758.162109,458.642090L758.148376,459.121582L758.244263,459.591492L758.444641,460.027222L758.738892,460.406006L759.111694,460.707764L759.543396,460.916748L773.933044,464.318909L672.007812,467.810608L618.600830,480.039978L543.912231,503.032532L545.773560,503.873413L544.912292,502.356201L543.687622,501.113403L542.183105,500.229919L540.501282,499.765808L538.285339,500.369202L588.560730,481.401489L589.690063,480.825500L590.685242,480.040283L591.508057,479.075867L592.127075,477.969543L592.518250,476.763672L592.666687,475.504700L592.566589,474.240967L592.222046,473.021057L591.645935,471.891724L590.860657,470.896484L589.896362,470.073608L588.789917,469.454712L587.584106,469.063477L586.325134,468.915039L585.061340,469.015076L583.841431,469.359741L513.495361,497.664917L512.456970,498.198486L511.546906,498.929932L510.802246,499.829224L510.253510,500.859741L509.923004,501.979553L509.824219,503.142944L509.961121,504.302429L510.328247,505.410706L510.910522,506.422729L511.684387,507.297119L512.617859,507.998230L513.673340,508.497437L514.807556,508.774414L535.470581,511.660400L534.248230,512.000000L535.072693,513.486694L536.229065,514.732849L537.649963,515.665894L539.253113,516.231812L540.944946,516.397461L542.627197,516.153320L622.149170,495.476807L674.388123,484.908081L776.492676,465.153992L776.605713,465.129150L776.711121,465.081543L776.804626,465.013245L776.881958,464.927185L776.940063,464.827148L776.976318,464.717224L776.989075,464.602234L776.978027,464.487000L776.943542,464.376526L776.887024,464.275574L776.811035,464.188354L776.718689,464.118713L776.613953,464.069336L762.551086,457.533630L775.618225,439.486084L775.704102,436.689026L775.162903,433.943542L774.022278,431.388306L772.339722,429.152283L770.200195,427.348755L767.711914,426.068481L765.000549,425.376404L762.203125,425.307373L694.896790,436.076782z" fill="#000000" stroke="none" fill-opacity="1" />
				<polygon points="941.600098,463.705688 900.989502,446.432617 858.325684,430.379944 862.006348,461.224182 853.741150,466.765564 909.914978,481.984253 935.384033,489.931152 970.729309,501.018738 969.834412,495.818970 976.294373,482.435059" fill="#20116D" stroke="none" fill-opacity="1" />
				<path d="M939.316650,469.074158L940.407898,469.416504L941.544983,469.539368L942.684082,469.437988L943.781616,469.116394L944.795227,468.586792L945.686157,467.869690L946.419983,466.992554L946.968567,465.989075L947.310852,464.897827L947.433716,463.760803L947.332397,462.621643L947.010803,461.524231L946.481262,460.510559L945.764099,459.619690L944.886963,458.885742L943.883484,458.337158L903.835083,439.742554L862.202637,420.076111L860.024536,419.502747L857.775330,419.384705L855.549133,419.726807L853.439209,420.514771L851.533752,421.715698L849.912598,423.279297L848.643494,425.140015L847.779785,427.220154L847.357422,429.432495L847.394104,431.684570L860.335938,460.456604L853.429443,466.300598L853.340210,466.374939L853.268188,466.466064L853.216553,466.570129L853.187622,466.682617L853.182373,466.798584L853.201233,466.913269L853.243347,467.021423L853.306824,467.118713L853.389038,467.200745L853.486450,467.264038L853.594727,467.305847L908.432190,487.073486L933.595825,495.647095L968.941223,506.718933L970.136169,506.963318L971.355774,506.959900L972.549377,506.708801L973.666992,506.220642L974.662354,505.515503L975.493591,504.622986L976.126343,503.580261L976.534119,502.430786L976.699951,501.222412L976.616882,500.005554L975.709839,496.644714L981.599304,484.995544L982.027405,483.788025L982.184265,482.516541L982.062622,481.241150L981.668091,480.022339L981.019287,478.917603L980.147034,477.979187L979.092590,477.251648L944.371399,458.572021L943.316650,458.130066L942.195923,457.902222L941.052307,457.897522L939.929688,458.116028L938.871338,458.549255L937.917725,459.180725L937.105774,459.986023L936.466431,460.934326L936.024414,461.989075L935.796692,463.109802L935.791992,464.253418L936.010437,465.376038L936.443726,466.434387L937.075134,467.387939L937.880432,468.199951L938.828796,468.839355L968.542480,484.944275L964.491150,493.240051L963.959106,494.993225L963.987244,496.825195L966.796204,496.522034L937.176636,484.216614L911.493652,476.924927L855.073120,466.546448L862.879456,462.526306L863.199951,462.240662L863.430969,461.878723L863.555054,461.467651L863.563110,461.038452L871.403748,447.063354L898.285461,453.182922z" fill="#000000" stroke="none" fill-opacity="1" />
			</g>
			<g id="layer.apron.uuid_0x6">
				<polyline points="391.298737,560.923218 455.199707,600.250549 435.062042,611.908691 349.261902,579.615784 331.632629,551.881165 310.522552,510.343933 339.158661,470.718384" fill="#20116D" stroke="none" fill-opacity="1" />
				<path d="M395.317108,554.394043L393.966125,553.735535L392.512604,553.353271L391.012482,553.261963L389.523315,553.464966L388.102417,553.954651L386.804321,554.712158L385.678986,555.708313L384.769562,556.904907L384.111084,558.255859L383.728821,559.709412L383.637421,561.209534L383.840515,562.698730L384.330139,564.119568L385.087616,565.417664L386.083801,566.543030L387.280396,567.452454L440.190094,600.048462L434.367340,603.496948L354.305145,573.408203L337.631470,548.460693L316.692902,510.824890L342.336670,473.015015L342.723663,472.350830L342.973724,471.624084L343.077057,470.862427L343.029846,470.095154L342.833862,469.351929L342.496674,468.661133L342.031250,468.049500L341.455353,467.540344L340.791199,467.153381L340.064362,466.903381L339.302704,466.799988L338.535461,466.847168L337.792267,467.043213L337.101471,467.380371L336.489807,467.845886L335.980713,468.421753L306.240753,507.249695L305.563202,508.523560L305.255676,509.933472L305.341034,511.373901L305.813080,512.737427L325.483673,555.006165L342.859619,583.685303L344.478363,585.503662L346.589661,586.715698L432.375122,619.047607L434.566162,619.520325L436.799927,619.335815L438.883728,618.510010L459.055054,606.910034L460.338654,605.978027L461.403839,604.802612L462.205414,603.433716L462.709259,601.929565L462.894012,600.354065L462.751770,598.774170L462.288635,597.257080L461.524078,595.867065L460.490997,594.663452L459.232941,593.697144z" fill="#000000" stroke="none" fill-opacity="1" />
				<polyline points="501.971436,364.901367 482.515533,386.126160 450.678589,359.595276 462.252808,279.346375" fill="#6A87EF" stroke="none" fill-opacity="1" />
				<path d="M509.534271,371.833923L510.741364,370.225281L511.611450,368.411987L512.111267,366.463867L512.221191,364.455688L511.937256,362.464539L511.270416,360.567200L510.246185,358.836365L508.903931,357.338501L507.295319,356.131348L505.481995,355.261230L503.533875,354.761597L501.525665,354.651550L499.534637,354.935547L497.637177,355.602356L495.906403,356.626587L494.408600,357.968872L481.565582,371.979553L461.651550,355.384583L466.653076,279.981079L466.692322,279.110413L466.561005,278.248901L466.264069,277.429443L465.813049,276.683777L465.225159,276.040344L464.523071,275.523987L463.733734,275.154480L462.887482,274.946228L462.016815,274.906921L461.155243,275.038208L460.335907,275.335266L459.590118,275.786255L458.946716,276.374146L458.430359,277.076172L458.060974,277.865540L457.852570,278.711731L440.524261,358.130737L440.483002,360.737671L441.100220,363.270874L442.336029,365.566711L444.110687,367.476746L475.947601,394.007629L477.804535,395.239990L479.883789,396.042297L482.087219,396.376648L484.310760,396.227295L486.449707,395.601318L488.402954,394.528198L490.078491,393.058655z" fill="#000000" stroke="none" fill-opacity="1" />
				<polyline points="526.507324,279.591309 513.440918,293.845459 492.060028,276.027832 499.832977,222.134338" fill="#6A87EF" stroke="none" fill-opacity="1" />
				<path d="M531.586304,284.247131L532.397034,283.166748L532.981384,281.948975L533.316895,280.640808L533.390808,279.291992L533.200195,277.954895L532.752380,276.680603L532.064453,275.518250L531.163147,274.512329L530.082764,273.701599L528.865051,273.117249L527.556641,272.781616L526.208069,272.707764L524.870789,272.898438L523.596619,273.346313L522.434143,274.034119L521.428345,274.935547L512.803040,284.344971L499.429199,273.199951L502.788086,222.560486L502.814514,221.975830L502.726288,221.397217L502.526886,220.846924L502.223999,220.346069L501.829163,219.914001L501.357666,219.567261L500.827576,219.319092L500.259155,219.179260L499.674591,219.152832L499.095856,219.240967L498.545624,219.440430L498.044830,219.743408L497.612701,220.138123L497.265961,220.609741L497.017853,221.139771L496.877899,221.708008L485.240631,275.044250L485.212799,276.794983L485.627319,278.496216L486.457336,280.038086L487.649017,281.320801L509.030029,299.138550L510.276978,299.966125L511.673370,300.504944L513.153076,300.729492L514.646423,300.629211L516.082886,300.208862L517.394714,299.488220L518.519897,298.501282z" fill="#000000" stroke="none" fill-opacity="1" />
			</g>
		</g>
	</g>
</svg>
