<?xml version="1.0" encoding="UTF-8"?>
<!-- Generator: Blender, SVG Export for Grease Pencil - v2.0 -->
<!DOCTYPE svg PUBLIC "-//W3C//DTD SVG 1.1//EN" "http://www.w3.org/Graphics/SVG/1.1/DTD/svg11.dtd">
<svg version="1.1" x="0px" y="0px" xmlns="http://www.w3.org/2000/svg" width="1920.000000px" height="1080.000000px" viewBox="0 0 1920.000000 1080.000000">
	<g id="blender_frame.17">
		<g id="blender_object.Stroke.17.uuid_0x0">
			<g id="layer.Fills.uuid_0x1" />
			<g id="layer.black.uuid_0x2" />
			<g id="layer.skin.uuid_0x3" />
			<g id="layer.yella.uuid_0x4" />
			<g id="layer.red.uuid_0x5">
				<polyline points="723.439453,737.628845 697.707520,884.411377 649.195312,983.875244 621.401550,1017.889160 611.301880,961.092468 473.061798,1045.612671 315.945801,1052.589355 201.638794,1038.403564 161.714859,1031.349243 116.435394,1009.134277 205.470657,973.862061 181.749176,970.518616 106.157463,962.533875 25.867540,948.306580 43.049412,866.138672 115.819023,746.314575 171.784744,691.566162 266.943512,618.198303 203.612839,640.590332 126.719978,652.485413 192.326157,588.246948 256.311218,529.632324 290.998840,509.427917 347.715576,508.900574 328.090698,478.416077 313.136749,446.773071 307.383911,422.743713 305.364319,400.405640 347.092621,437.605469 379.235077,457.112854 415.526642,471.498474 458.723297,490.158875 556.264343,523.628235" fill="#D19048" stroke="none" fill-opacity="1" />
				<path d="M729.626404,738.713501L729.719116,737.485596L729.570496,736.263306L729.186340,735.093445L728.581299,734.020996L727.778564,733.087158L726.809204,732.328003L725.710266,731.772461L724.524109,731.441956L723.296265,731.349243L722.073914,731.497803L720.904053,731.882080L719.831604,732.487122L718.897827,733.289795L718.138672,734.259155L717.583008,735.358032L717.252625,736.544312L691.673523,882.454102L643.869629,980.465820L625.191345,1003.324158L617.486145,959.992798L617.106873,958.693176L616.457886,957.505005L615.569458,956.483521L614.482605,955.676147L613.248169,955.120361L611.923279,954.842041L610.569580,954.854065L609.249817,955.155884L608.025330,955.733459L471.166260,1039.409424L316.231842,1045.360352L202.805618,1030.640259L164.222549,1023.666504L137.480164,1009.965149L209.310089,983.553528L211.175323,982.586914L212.808914,981.265930L214.144424,979.644165L215.127655,977.787598L215.718628,975.771606L215.893433,973.678040L215.644913,971.591919L214.983047,969.598083L213.934952,967.777344L212.543060,966.203735L210.863861,964.941162L208.965683,964.041016L206.925491,963.539673L183.179398,960.371582L107.492355,953.082581L37.999249,940.101929L53.503880,870.265381L125.403969,753.925293L179.393066,700.318237L272.388000,625.259888L273.692719,624.025574L274.723511,622.554932L275.438721,620.907471L275.809296,619.150085L275.820190,617.354126L275.470978,615.592407L274.775879,613.936401L273.762878,612.453369L272.473328,611.203308L270.959412,610.237061L269.282532,609.593750L267.510864,609.299561L265.716095,609.366455L263.971100,609.791504L201.103302,630.623901L160.836700,635.404541L199.604370,595.931641L261.816101,537.111145L293.286224,517.745667L347.781738,516.014038L349.286346,515.838806L350.719818,515.348877L352.017029,514.566589L353.119171,513.527405L353.976318,512.278381L354.549469,510.876221L354.812927,509.384399L354.754395,507.870789L354.376801,506.403748L353.697113,505.049927L334.755890,474.716492L320.912140,444.038147L315.845215,421.355835L309.336060,408.293945L341.902893,443.427002L375.324280,463.556824L412.671295,478.394287L455.919983,496.648071L554.712585,528.150696L555.624634,528.366516L556.561340,528.400330L557.486694,528.250671L558.364929,527.923401L559.162598,527.431091L559.848755,526.792542L560.397156,526.032532L560.786804,525.179993L561.002686,524.267944L561.036438,523.331177L560.886902,522.406006L560.559570,521.527649L560.067139,520.730103L559.428772,520.043884L558.668640,519.495422L557.816162,519.105774L461.275818,483.561340L418.486145,464.647644L382.603119,450.339417L351.749359,431.308777L311.241333,393.813171L309.682678,392.701660L307.921143,391.952087L306.039490,391.599731L304.126068,391.661133L302.270905,392.133362L300.561066,392.994263L299.076874,394.203430L297.888062,395.703979L297.050598,397.425354L296.603699,399.286804L296.568390,401.200867L298.866821,423.513733L305.163544,448.681946L321.213074,481.666321L334.752930,501.906982L290.921356,501.089722L286.802002,502.222595L251.664047,521.653931L185.177597,580.443481L118.559364,644.151062L117.001198,646.035522L115.870056,648.203369L115.215691,650.559387L115.066971,653.000061L115.430374,655.418152L116.289833,657.707275L117.607681,659.766968L119.325897,661.506714L121.369118,662.849976L123.647461,663.737793L126.060860,664.131042L128.503189,664.012573L205.177185,650.703003L217.313873,645.203735L164.716019,682.398071L107.327499,737.634277L33.580856,860.388306L15.887891,946.219727L15.674687,948.537598L15.992661,950.843323L16.825335,953.016846L18.129274,954.944885L19.836502,956.526978L21.858158,957.680603L24.088669,958.345703L104.493034,971.926758L180.495529,980.690491L195.119492,975.095276L113.296059,1001.209961L111.714256,1002.037720L110.339531,1003.176880L109.232254,1004.577332L108.441017,1006.177795L108.000587,1007.907898L107.930153,1009.691833L108.232788,1011.451294L108.895401,1013.109131L109.888870,1014.592590L111.169342,1015.836548L112.681053,1016.786499L158.190369,1038.533081L200.273285,1046.131836L315.057983,1059.743530L473.340485,1051.887817L476.338318,1050.971680L606.728455,971.250916L615.217224,1018.988831L615.575989,1020.238281L616.184265,1021.386963L617.015991,1022.386047L618.035583,1023.192383L619.199219,1023.771729L620.457275,1024.098999L621.755676,1024.160400L623.038940,1023.953247L624.252136,1023.486267L625.343201,1022.779724L626.265442,1021.863586L654.059204,987.849731L703.353027,887.164917z" fill="#000000" stroke="none" fill-opacity="1" />
				<polygon points="1013.606079,197.986084 1013.844299,128.127686 1032.169678,59.281677 1058.635010,14.652344 1120.104370,60.337769 1088.022461,89.918579 1038.868408,157.870117" fill="#D19048" stroke="none" fill-opacity="1" />
				<path d="M1003.922974,197.953125L1004.102600,199.842834L1004.647461,201.661316L1005.536560,203.338318L1006.735718,204.809814L1008.198975,206.019043L1009.870056,206.919495L1011.684631,207.476746L1013.573059,207.669250L1015.462830,207.489563L1017.281128,206.944885L1018.958252,206.055786L1020.429749,204.856445L1021.638916,203.393250L1022.539490,201.722107L1023.096680,199.907593L1023.289185,198.019165L1020.944214,129.068848L1041.686768,63.279785L1062.009888,31.457764L1104.102173,61.184387L1083.885742,85.432068L1034.500366,154.710266L1005.412231,192.826172L1004.562988,194.523865L1004.061401,196.354614L1003.926453,198.248047L1004.163574,200.131348L1004.763489,201.932373L1005.703308,203.581665L1006.946777,205.015869L1008.446228,206.179993L1010.143860,207.029236L1011.974609,207.530945L1013.868103,207.665710L1015.751404,207.428650L1017.552368,206.828735L1019.201599,205.888916L1020.635864,204.645508L1021.799988,203.146118L1043.338135,160.889587L1092.608765,93.990723L1127.035522,67.854980L1128.507324,66.163757L1129.574951,64.192566L1130.187378,62.035889L1130.315063,59.797546L1129.951904,57.585327L1129.115234,55.505493L1127.845581,53.657715L1126.203735,52.131226L1065.479736,5.442749L1063.416382,4.221313L1061.144409,3.455444L1058.762817,3.178345L1056.375610,3.402344L1054.086914,4.117432L1051.997070,5.292603L1050.196777,6.876221L1048.765137,8.799561L1023.374451,54.066162L1006.980225,126.300659z" fill="#000000" stroke="none" fill-opacity="1" />
				<polyline points="461.764771,498.693359 563.482117,535.580078 719.070557,712.502808 706.932739,819.131226 647.825256,864.300781 611.493286,775.333862 473.064606,694.733154 454.137268,576.179199 459.632111,561.742493 375.101807,494.807922 411.514282,476.373840" fill="#DDC759" stroke="none" fill-opacity="1" />
				<polygon points="1066.493652,214.765564 1087.686890,167.577026 1123.185913,113.623962 1178.754395,68.330444 1223.297607,55.772095 1206.421265,211.794617 1169.905273,205.878418 1113.832031,217.189636" fill="#D19048" stroke="none" fill-opacity="1" />
				<path d="M1057.987549,210.945312L1057.405640,212.678101L1057.173096,214.491211L1057.298706,216.314880L1057.777588,218.078979L1058.591431,219.715698L1059.709106,221.162292L1061.087402,222.362976L1062.673462,223.271667L1064.406250,223.853516L1066.219360,224.086121L1068.042969,223.960571L1069.807129,223.481628L1071.443848,222.667725L1072.890381,221.550110L1074.091187,220.171814L1074.999878,218.585754L1091.763672,169.814880L1128.196655,118.148193L1185.106201,80.550964L1206.374146,75.788086L1201.391846,205.195312L1171.480469,196.155884L1113.107910,207.413269L1066.970581,205.453003L1065.144653,205.538940L1063.370483,205.979431L1061.716431,206.757568L1060.245972,207.843384L1059.015625,209.195251L1058.072632,210.761169L1057.453125,212.481079L1057.181274,214.288696L1057.267212,216.114563L1057.707642,217.888672L1058.485718,219.542786L1059.571533,221.013245L1060.923340,222.243652L1062.489380,223.186646L1064.209229,223.806091L1066.016846,224.078003L1113.334839,226.903198L1170.097656,215.887329L1205.508057,217.431091L1206.828247,217.490051L1208.126587,217.244080L1209.333618,216.705994L1210.384644,215.905090L1211.223389,214.883911L1211.804932,213.697266L1212.098022,212.408752L1237.885254,57.349976L1237.882812,54.171631L1237.196045,51.068481L1235.857056,48.185913L1233.928833,45.659302L1231.501709,43.607422L1228.689697,42.126099L1225.624756,41.285034L1222.450562,41.123779L1219.316040,41.649780L1175.094971,55.350830L1170.234131,57.877319L1118.969971,108.451721L1083.814087,165.028870z" fill="#000000" stroke="none" fill-opacity="1" />
				<polyline points="471.307037,501.408752 453.731201,446.582886 427.072388,427.166382 384.214417,395.558350 352.733002,352.794800 343.719147,316.351013 445.052795,362.217957 389.855713,293.855835 381.180664,247.951782 370.424377,135.413696 493.428650,253.308105 548.268616,270.264099 603.011780,278.767639 643.784424,272.539612 733.090271,265.614014 895.004395,244.473328 984.054871,228.564392 1028.240967,232.131775 1040.295654,263.810486 1089.591675,411.907654 1132.021729,573.808411 1136.008789,607.029968 1030.041626,784.002014 1002.653625,821.898560 984.343445,842.931091 890.550598,808.279541 619.516663,705.216370 512.939575,600.797241 468.546387,505.914185" fill="#DDC759" stroke="none" fill-opacity="1" />
				<path d="M463.910889,503.779785L464.515594,505.177124L465.381256,506.429688L466.474640,507.489319L467.753754,508.315186L469.169403,508.875671L470.667145,509.149292L472.189545,509.125305L473.678040,508.804871L475.075348,508.200195L476.327881,507.334534L477.387482,506.241150L478.213440,504.962036L478.773895,503.546387L479.047455,502.048584L479.023560,500.526245L478.703125,499.037720L456.443604,445.713318L456.039856,444.914490L455.408142,444.280457L429.590576,423.730530L389.697388,390.080078L361.961121,348.466980L358.907837,334.600647L443.201141,366.308899L444.076019,366.600952L444.992249,366.708069L445.910919,366.625732L446.793457,366.357361L447.602539,365.914307L448.303986,365.315430L448.868256,364.585754L449.271545,363.756226L449.496887,362.861694L449.534668,361.940063L449.383301,361.030151L449.049255,360.170410L448.546539,359.397034L398.690247,289.771790L391.528717,246.482605L383.672821,162.773804L488.055176,258.914429L491.134796,260.727234L546.873474,274.776489L602.799133,280.136353L643.993530,274.358582L733.462891,270.418945L895.940186,251.640320L984.410034,235.942871L1022.883789,239.268982L1033.083740,266.381653L1082.074463,414.141235L1124.140503,575.306763L1127.650146,605.248108L1022.892639,779.291016L994.706177,815.588501L981.194275,830.612793L894.015442,799.036255L624.215027,697.874512L520.013611,595.782959L476.274689,502.298279L475.420776,500.860107L474.302643,499.616089L472.963379,498.614014L471.454315,497.892578L469.833557,497.479431L468.163269,497.390442L466.507721,497.628906L464.930481,498.185913L463.492340,499.039856L462.248291,500.157898L461.246307,501.497192L460.524811,503.006226L460.111664,504.627014L460.022583,506.297241L460.261139,507.952881L460.818054,509.530029L505.211243,604.413086L613.545410,711.311096L616.484131,713.191650L887.042114,817.506226L980.717285,852.746216L983.171814,853.328796L985.694336,853.307129L988.138306,852.682251L990.361816,851.490601L992.235413,849.801514L1010.299683,828.554932L1036.974365,789.012329L1142.946777,611.184326L1143.917725,608.716064L1144.037720,606.066345L1139.968262,572.854675L1097.173584,409.920654L1047.558594,261.392883L1035.292847,229.448364L1034.514893,227.940613L1033.419922,226.644836L1032.062988,225.626465L1030.513062,224.936829L1028.848022,224.611145L984.644348,221.262329L893.900330,237.328308L732.591614,260.819031L643.642883,270.715332L603.013550,277.366211L549.334412,265.650024L497.476654,246.431274L377.748840,127.771851L376.062012,126.454773L374.144745,125.503967L372.075409,124.958252L369.938690,124.839783L367.821747,125.153564L365.811157,125.886719L363.989197,127.009399L362.430206,128.475464L361.198059,130.225220L360.342987,132.187134L359.899994,134.280823L359.887238,136.420837L370.787079,248.945129L380.580658,295.608704L382.511566,299.785645L429.685089,350.332947L347.992249,306.910461L345.996338,306.241699L343.906464,305.990112L341.808868,306.166016L339.790100,306.762207L337.933350,307.754028L336.315491,309.100586L335.003113,310.746399L334.050262,312.623352L333.496399,314.654114L333.364410,316.754944L333.659668,318.839111L343.028259,355.195190L344.682098,358.721680L378.043121,400.101501L424.544006,430.594727L451.302612,448.337891z" fill="#000000" stroke="none" fill-opacity="1" />
				<polygon points="859.464233,794.833679 984.760742,693.237061 1022.074036,794.988770 984.834290,846.809937 894.871582,804.704895" fill="#20116D" stroke="none" fill-opacity="1" />
				<path d="M853.396790,787.350891L852.053528,788.678345L850.995056,790.242432L850.262085,791.982849L849.882751,793.832886L849.871582,795.721375L850.229126,797.575684L850.941528,799.324707L851.981384,800.901123L853.308899,802.244263L854.872864,803.302795L856.613281,804.035767L858.463379,804.415161L860.351807,804.426270L862.206177,804.068726L863.955200,803.356445L865.531555,802.316406L984.609070,693.787109L1012.244141,793.645508L981.398682,833.628418L899.050903,795.775269L862.051208,785.554077L860.191223,785.227661L858.303101,785.270386L856.459717,785.680603L854.731812,786.442627L853.185669,787.527100L851.880920,788.892334L850.867554,790.485901L850.184448,792.246582L849.858093,794.106689L849.900818,795.994690L850.311096,797.838135L851.073120,799.566040L852.157593,801.112183L853.522827,802.416931L855.116394,803.430359L856.877075,804.113403L891.434570,813.981812L980.390869,856.303833L982.681580,857.068726L985.086548,857.289124L987.478149,856.953308L989.729248,856.079041L991.720764,854.712769L993.346680,852.927002L1029.192993,800.104614L1030.216919,798.236084L1030.759766,796.175781L1030.789551,794.045410L1030.304565,791.970581L985.072205,693.122803L985.041443,693.060059L984.998047,693.005249L984.944153,692.960571L984.882080,692.928284L984.814697,692.909668L984.744934,692.905701L984.675842,692.916382L984.610413,692.941284L984.551880,692.979370z" fill="#000000" stroke="none" fill-opacity="1" />
				<polygon points="673.687988,452.074524 784.130371,427.877991 852.431213,445.201416 847.148743,543.858582 863.100159,580.895508 758.050659,560.657166 704.765625,553.363647 623.984436,531.554443 623.243103,517.026917 602.018982,463.324097" fill="#20116D" stroke="none" fill-opacity="1" />
				<path d="M672.290039,445.694031L671.072144,446.089294L669.954773,446.714600L668.980896,447.545959L668.187866,448.551270L667.606201,449.692017L667.258240,450.924316L667.157349,452.200806L667.307556,453.472412L667.702820,454.690369L668.328064,455.807678L669.159424,456.781616L670.164795,457.574585L671.305481,458.156311L672.537720,458.504272L673.814270,458.605103L675.085876,458.455017L784.000793,435.800476L839.322327,454.848938L845.037842,543.745605L845.207214,544.694763L862.158386,580.138306L759.699341,552.099304L706.356873,545.508240L630.832703,526.027344L629.986511,516.682800L610.131348,467.962036L674.700867,458.527344L675.940247,458.205750L677.093140,457.648499L678.115112,456.877197L678.967041,455.921143L679.616028,454.817322L680.037231,453.608154L680.214355,452.340027L680.140808,451.061707L679.819214,449.822266L679.262024,448.669373L678.490601,447.647461L677.534668,446.795471L676.430908,446.146484L675.221619,445.725281L673.953491,445.548035L672.675171,445.621704L601.113525,457.554810L599.854919,457.899963L598.704468,458.515991L597.719543,459.372131L596.949219,460.425598L596.432190,461.623779L596.194153,462.906860L596.246948,464.210754L596.588013,465.470398L616.556213,518.477966L616.872620,531.917358L617.186096,533.673889L617.926392,535.297424L619.046997,536.685852L620.477600,537.752197L622.128418,538.429443L702.680786,561.085815L756.634277,569.259766L862.993225,581.450684L863.115173,581.460693L863.236328,581.444275L863.351196,581.402100L863.454346,581.336304L863.540833,581.249878L863.606689,581.146729L863.648926,581.031921L863.665405,580.910767L863.655457,580.788818L863.619385,580.671875L849.286072,543.477173L864.987488,445.873657L864.811646,443.001892L863.987549,440.245239L862.558472,437.748108L860.599182,435.641174L858.212219,434.034790L855.522644,433.013000L786.026123,420.403381L782.480042,420.345398z" fill="#000000" stroke="none" fill-opacity="1" />
				<polygon points="1028.586792,377.354675 983.490906,383.229431 938.040649,409.052063 956.195679,537.203796 951.808228,581.752686 1008.762329,525.979980 1035.602539,509.511108 1073.246582,492.972412 1069.962891,470.849854 1069.485962,397.205505" fill="#20116D" stroke="none" fill-opacity="1" />
				<path d="M1029.348022,383.197876L1030.473267,382.937073L1031.526123,382.461792L1032.465942,381.790222L1033.256714,380.948181L1033.868164,379.968018L1034.276489,378.887512L1034.466187,377.747986L1034.430054,376.593445L1034.169189,375.468079L1033.693970,374.415222L1033.022217,373.475403L1032.180176,372.684570L1031.200073,372.073303L1030.119629,371.664917L1028.980103,371.475220L1027.825439,371.511475L982.542297,375.947693L979.863464,376.844788L932.547546,399.383728L930.415100,400.958679L928.716125,402.993713L927.547058,405.372986L926.974426,407.961487L927.030701,410.611816L954.601196,537.237732L951.245544,581.697327L951.246033,581.812256L951.269653,581.924744L951.315552,582.030151L951.381836,582.124023L951.465820,582.202637L951.563843,582.262573L951.671997,582.301453L951.785767,582.317688L951.900574,582.310547L952.011475,582.280334L952.113953,582.228394L952.203796,582.156677L1012.076355,530.227051L1038.414185,514.883362L1075.673828,498.496948L1076.808228,497.843506L1077.774902,496.960815L1078.528320,495.890503L1079.033447,494.682739L1079.265991,493.394531L1079.215332,492.086487L1075.952759,470.388306L1075.435669,397.166992L1075.280518,395.855164L1074.839600,394.609802L1074.134888,393.492493L1073.201050,392.558105L1072.084106,391.852966L1031.159790,372.053467L1030.076172,371.653442L1028.935181,371.472351L1027.781006,371.517456L1026.657593,371.786743L1025.608398,372.270081L1024.673828,372.948853L1023.889465,373.796875L1023.285645,374.781677L1022.885437,375.865295L1022.704529,377.006165L1022.749512,378.160461L1023.018860,379.283752L1023.502258,380.332886L1024.181030,381.267639L1025.029053,382.051941L1026.013794,382.655823L1063.560425,400.942932L1063.970337,470.888672L1066.601440,489.301147L1033.169312,503.972778L1005.962646,521.417236L952.523254,580.261169L957.771545,537.359009L950.111694,414.983154L985.866882,390.325195z" fill="#000000" stroke="none" fill-opacity="1" />
				<polygon points="701.048035,495.179504 730.354858,473.325745 754.176819,500.841675 759.772766,554.478394 695.604309,546.347534" fill="#EDEEEB" stroke="none" fill-opacity="1" />
				<polyline points="975.000610,555.067627 1010.082947,518.022705 1006.386536,455.995972 972.599182,428.126038 961.703186,475.647034 966.576477,537.372314" fill="#EDEEEB" stroke="none" fill-opacity="1" />
				<polyline points="644.991821,522.231750 646.466553,495.448792 662.551636,494.817810 671.735718,504.659790 666.814636,530.553528 652.900879,531.783447" fill="#EDEEEB" stroke="none" fill-opacity="1" />
				<polyline points="1026.214722,482.805725 1021.436157,447.527161 1028.171387,433.437927 1040.876831,444.517944 1043.538818,481.518982 1037.686157,492.857605" fill="#EDEEEB" stroke="none" fill-opacity="1" />
			</g>
			<g id="layer.apron.uuid_0x6">
				<polyline points="508.468445,597.671631 558.771423,655.998840 536.083313,658.572632 467.819214,599.884644 457.922607,570.992310 445.912231,532.088684 474.002625,507.794739" fill="#20116D" stroke="none" fill-opacity="1" />
				<path d="M514.332642,592.614258L513.153015,591.505493L511.768585,590.666260L510.239990,590.133179L508.633942,589.929626L507.020660,590.064331L505.470673,590.531616L504.051727,591.310913L502.825714,592.368164L501.846344,593.657288L501.156494,595.121826L500.786011,596.697754L500.751465,598.316284L501.054169,599.906616L501.680847,601.399292L502.604279,602.729065L543.277588,649.934265L538.556091,650.538147L474.393494,595.431763L464.548035,568.835327L452.038818,533.844788L476.593353,510.790283L477.127930,510.227234L477.542511,509.570801L477.821014,508.846069L477.952728,508.080994L477.932709,507.304810L477.761597,506.547546L477.446045,505.838196L476.998169,505.203979L476.435181,504.669312L475.778748,504.254822L475.053986,503.976379L474.288910,503.844543L473.512756,503.864685L472.755493,504.035767L472.046082,504.351257L471.411896,504.799133L442.421753,528.052673L441.589142,528.960938L440.986877,530.036011L440.647400,531.220459L440.588623,532.451233L440.813782,533.662659L451.265808,573.047363L460.570190,602.367737L462.823914,605.695068L531.060608,664.414917L532.831238,665.557129L534.845154,666.177002L536.951660,666.228027L559.647461,663.721680L561.289368,663.352051L562.812988,662.637695L564.147400,661.612061L565.229553,660.323364L566.009094,658.831787L566.449280,657.207520L566.529358,655.526489L566.245911,653.867615L565.611877,652.308716L564.657288,650.922729z" fill="#000000" stroke="none" fill-opacity="1" />
			</g>
		</g>
	</g>
</svg>
