<?xml version="1.0" encoding="UTF-8"?>
<!-- Generator: Blender, SVG Export for Grease Pencil - v2.0 -->
<!DOCTYPE svg PUBLIC "-//W3C//DTD SVG 1.1//EN" "http://www.w3.org/Graphics/SVG/1.1/DTD/svg11.dtd">
<svg version="1.1" x="0px" y="0px" xmlns="http://www.w3.org/2000/svg" width="1920.000000px" height="1080.000000px" viewBox="0 0 1920.000000 1080.000000">
	<g id="blender_frame.2">
		<g id="blender_object.Stroke.2.uuid_0x0">
			<g id="layer.body.uuid_0x1">
				<polyline points="171.815643,762.446655 151.138519,625.323608 111.960808,589.410522 88.018974,628.588501 67.341789,740.681030 69.518280,983.367065" fill="#000000" stroke="none" fill-opacity="1" />
				<path d="M170.620026,762.626831L170.678284,762.856689L170.780136,763.070679L170.921692,763.260742L171.097702,763.419495L171.301422,763.540833L171.524689,763.620117L171.759171,763.654297L171.995941,763.642151L172.225632,763.584045L172.439636,763.482178L172.629776,763.340454L172.788574,763.164551L172.909882,762.960938L172.989182,762.737549L173.023285,762.503052L173.011276,762.266357L152.334137,625.143311L152.205688,624.755371L151.955521,624.432373L112.777809,588.519226L112.563118,588.362122L112.319183,588.255737L112.057861,588.205322L111.791901,588.213257L111.534180,588.279175L111.297058,588.399902L111.092148,588.569580L110.929184,588.780029L86.987289,627.958008L66.152802,740.461792L68.309273,983.377930L68.334564,983.613525L68.405457,983.839722L68.519043,984.047791L68.671021,984.229675L68.855614,984.378357L69.065613,984.488220L69.293007,984.554993L69.529099,984.576111L69.764786,984.550781L69.990982,984.479980L70.198975,984.366333L70.380882,984.214355L70.529655,984.029785L70.639519,983.819763L70.706238,983.592285L70.727295,983.356262L68.551773,740.786255L89.167389,629.027954L112.226547,591.294250L150.006699,625.926270z" fill="#FEF1B5" stroke="none" fill-opacity="1" />
				<polyline points="498.616119,730.091431 543.204468,598.782104 588.113037,570.359131 604.753235,613.152100 605.292236,727.134644 560.254700,965.614868" fill="#000000" stroke="none" fill-opacity="1" />
				<path d="M497.471252,729.702759L497.417480,729.933594L497.409698,730.170410L497.448273,730.404236L497.531647,730.626099L497.656769,730.827393L497.818817,731.000366L498.011536,731.138428L498.227356,731.236328L498.458191,731.290161L498.695068,731.297974L498.928894,731.259399L499.150787,731.175903L499.351990,731.050781L499.525024,730.888672L499.663147,730.696106L499.760986,730.480225L544.212036,599.575317L587.518494,572.166382L603.545227,613.381714L604.082581,727.024292L559.066650,965.390442L559.045776,965.626587L559.071228,965.862183L559.142212,966.088318L559.255981,966.296265L559.408020,966.478027L559.592773,966.626648L559.802856,966.736328L560.030396,966.802917L560.266479,966.823853L560.502014,966.798340L560.728271,966.727356L560.936157,966.613647L561.117920,966.461487L561.266479,966.276855L561.376221,966.066711L561.442810,965.839233L606.480286,727.358948L605.962158,613.146423L589.239929,569.921021L589.116821,569.685120L588.945068,569.481873L588.732971,569.321167L588.490906,569.210693L588.230591,569.155823L587.964478,569.159302L587.705627,569.220825L587.466431,569.337524L542.557861,597.760498L542.254517,598.034302L542.059692,598.393433z" fill="#FEF1B5" stroke="none" fill-opacity="1" />
				<polyline points="339.721985,540.290527 230.895142,463.022827 227.095245,602.464600 108.695984,590.498779 132.637894,616.617432 150.050125,663.413391 154.403229,747.210754 95.636734,881.068909 67.341789,993.161560 179.381271,848.305725 275.148773,728.595154" fill="#432F1C" stroke="none" fill-opacity="1" />
				<path d="M337.200226,543.842224L337.941589,544.265930L338.751373,544.536865L339.598450,544.644653L340.450287,544.585083L341.274170,544.360474L342.038330,543.979492L342.713440,543.456726L343.273743,542.812256L343.697388,542.070923L343.968323,541.261108L344.076080,540.414062L344.016571,539.562256L343.791962,538.738403L343.410950,537.974182L342.888153,537.299072L342.243744,536.738770L233.416901,459.471130L232.596588,459.013062L231.697372,458.741455L230.760681,458.669006L229.830338,458.799072L228.949371,459.125671L228.159027,459.633484L227.495972,460.299011L226.990875,461.091248L226.667648,461.973328L226.540894,462.904175L224.577728,599.602234L108.874451,588.733032L108.518089,588.732971L108.168930,588.804077L107.840942,588.943542L107.547516,589.145691L107.300323,589.402344L107.109436,589.703247L106.982574,590.036255L106.924675,590.387817L106.938232,590.743958L107.022690,591.090088L107.174438,591.412476L107.387634,591.697998L128.208221,619.327637L145.730682,664.307251L152.609085,746.882690L92.456764,879.672852L66.169510,992.865662L66.133575,993.116577L66.150742,993.369446L66.220268,993.613281L66.339058,993.837158L66.502075,994.031372L66.701828,994.187317L66.929688,994.298218L67.175735,994.359192L67.429108,994.367432L67.678528,994.322754L67.913307,994.227051L68.122849,994.084473L68.298111,993.901306L183.440033,851.498535L276.534760,729.703796L276.724396,729.412109L276.853424,729.089111L276.917053,728.747070L276.912689,728.399170L276.840546,728.058838L276.703430,727.739075L276.506500,727.452209L276.257477,727.209290L275.965820,727.019653L275.642700,726.890503L275.300690,726.826904L274.952820,726.831299L274.612488,726.903381L274.292755,727.040527L274.005890,727.237427L273.762878,727.486450L175.348892,845.079895L69.933472,987.834595L98.933205,882.199768L156.028305,747.924194L156.175690,747.118652L154.404205,663.187195L137.414642,614.840088L136.394867,613.173462L113.151459,592.732849L226.834427,605.046143L227.442413,605.035889L228.031265,604.884521L228.568893,604.600220L229.025406,604.198608L229.375946,603.701782L229.601273,603.136963L229.688934,602.535278L235.027084,471.298645z" fill="#000000" stroke="none" fill-opacity="1" />
				<polyline points="465.238007,496.656250 463.992554,635.269409 580.033875,574.866211 555.078186,595.144775 542.390808,657.165039 548.370361,772.773438 562.416260,848.821228 558.141418,993.013245 499.010834,844.443359 420.378845,726.980103 299.581085,737.862793 245.167709,678.007507 321.346497,536.531433" fill="#432F1C" stroke="none" fill-opacity="1" />
				<path d="M469.593658,496.695374L469.517609,495.844788L469.277130,495.025513L468.881317,494.268860L468.345581,493.603943L467.690399,493.056335L466.941010,492.647095L466.126129,492.391846L465.277130,492.300537L464.426636,492.376587L463.607330,492.617065L462.850616,493.012817L462.185669,493.548584L461.638062,494.203735L461.228851,494.953186L460.973633,495.768066L460.882263,496.617126L461.397919,635.246155L461.448059,635.777283L461.605713,636.286926L461.864227,636.753540L462.212769,637.157471L462.636505,637.481567L463.117554,637.712158L463.635651,637.839478L464.168762,637.858154L464.694519,637.767334L465.190552,637.570984L565.352905,584.508911L551.864014,591.189331L550.720154,592.502136L550.084900,594.123352L538.119263,656.291260L546.597961,772.865234L558.933838,849.088135L557.105957,987.141846L503.808746,842.533813L421.853668,725.992798L421.540039,725.637817L421.143646,725.378540L420.692780,725.233276L420.219635,725.212402L299.671265,737.631531L245.437958,677.974426L321.542175,536.636780L321.559814,536.593811L321.568085,536.548157L321.566803,536.501648L321.555756,536.456543L321.535675,536.414673L321.507111,536.377930L321.471741,536.347839L321.430847,536.325867L321.386230,536.312805L321.339935,536.309326L321.293854,536.315552L321.250153,536.331177L321.210541,536.355591L321.177063,536.387695L321.150818,536.426086L244.972061,677.902222L244.952316,677.953003L244.945526,678.007263L244.952148,678.061401L244.971771,678.112366L245.003311,678.156982L299.416626,738.012329L299.469635,738.055054L299.533081,738.079712L299.601013,738.084106L419.489655,728.842041L494.415344,846.861267L557.018066,993.460388L557.136047,993.684937L557.298462,993.880005L557.497925,994.036804L557.725647,994.148621L557.971802,994.210327L558.225281,994.219360L558.475220,994.175293L558.710388,994.080139L558.920532,993.937866L559.096313,993.754944L559.230103,993.539307L559.315918,993.300537L559.349915,993.049072L565.887695,848.924194L550.136719,772.565613L546.773682,657.494629L559.706421,597.951294L581.153015,576.243530L581.415466,575.980103L581.617249,575.667725L581.749512,575.320068L581.806519,574.952576L581.785522,574.581238L581.687744,574.222412L581.517273,573.891907L581.281616,573.604126L580.991150,573.371826L580.658691,573.205078L580.298767,573.111328L579.927307,573.094727L579.560547,573.155762L579.214478,573.291992L466.625916,630.973511z" fill="#000000" stroke="none" fill-opacity="0.821325898" />
				<polygon points="333.394684,403.566895 266.616516,428.388977 232.195541,462.556824 250.924530,491.662842 322.212769,582.194458 353.264587,655.232117 407.933472,595.752380 464.351776,502.159241 463.039642,447.927673 440.734772,407.254028 379.942993,399.819092" fill="#231800" stroke="none" fill-opacity="1" />
				<path d="M334.912323,407.649780L335.679657,407.275269L336.359314,406.758240L336.924988,406.118591L337.354980,405.380859L337.632690,404.573303L337.747650,403.727234L337.695190,402.874939L337.477692,402.049194L337.103088,401.281921L336.586090,400.602295L335.946289,400.036682L335.208557,399.606750L334.401123,399.328857L333.554993,399.213928L332.702698,399.266296L331.877075,399.484009L265.998047,426.725342L265.366119,427.129395L227.498871,457.825378L226.555191,459.002747L225.900482,460.362061L225.568268,461.833862L225.575348,463.342712L225.921661,464.811279L226.589310,466.164307L248.357620,493.314514L320.484100,583.217896L351.614777,655.933594L351.809509,656.279297L352.075592,656.573792L352.399811,656.802490L352.766479,656.954224L353.157562,657.021606L353.553955,657.001343L353.936035,656.894348L354.285278,656.705933L354.584503,656.445251L409.750977,597.422791L470.061279,505.600952L470.795837,503.867554L471.016479,501.997986L465.128601,447.877136L464.871765,446.922913L445.022949,404.902466L444.351379,403.961914L443.477814,403.205078L442.451019,402.674438L441.328461,402.399597L380.237396,397.411743L333.045105,399.224976L332.204712,399.376709L331.410217,399.689392L330.691772,400.151001L330.077362,400.743896L329.590393,401.445435L329.249542,402.228333L329.068054,403.062744L329.052948,403.916443L329.204498,404.756836L329.517120,405.551392L329.978821,406.269714L330.571808,406.884155L331.273102,407.371155L332.056122,407.712036L332.890503,407.893494L333.744232,407.908752L379.892639,402.256165L437.652252,411.804138L460.963043,448.486511L457.640167,500.379944L405.947754,594.265015L353.826447,651.971619L324.045227,581.415344L253.412537,489.888733L240.721664,463.486938L267.594513,429.918884z" fill="#000000" stroke="none" fill-opacity="1" />
				<polyline points="315.623779,1154.175415 274.456116,1009.108582 207.803726,777.785950 247.011063,705.252563 288.178772,658.203857 322.634064,681.324890 365.743805,693.804077 420.198181,686.997192 459.904449,745.989624 464.442352,784.561523 457.635559,1030.741211 447.833740,1183.649414" fill="#231800" stroke="none" fill-opacity="1" />
				<path d="M313.708130,1154.718994L313.851013,1155.082275L314.061981,1155.410767L314.333038,1155.691650L314.653717,1155.914429L315.011505,1156.070190L315.392944,1156.153198L315.783325,1156.160278L316.167542,1156.091064L316.530762,1155.948120L316.859222,1155.737183L317.140045,1155.466064L317.362732,1155.145508L317.518646,1154.787598L317.601624,1154.406250L317.608734,1154.015869L317.539490,1153.631714L276.371796,1008.564941L209.942627,778.016724L248.656723,706.395813L288.523804,660.833496L321.635101,682.813538L365.245300,695.526123L365.966156,695.582947L419.326599,688.912842L458.174805,746.630371L462.646698,784.641907L455.844421,1030.659180L446.044647,1183.534790L446.056610,1183.885986L446.136963,1184.228149L446.282471,1184.547974L446.487579,1184.833496L446.744415,1185.073364L447.043091,1185.258545L447.372223,1185.381836L447.719025,1185.438599L448.070251,1185.426636L448.412445,1185.346191L448.732300,1185.200806L449.017700,1184.995605L449.257568,1184.738770L449.442749,1184.440186L449.566101,1184.110962L449.622894,1183.764160L459.424622,1030.855957L466.234436,784.611084L461.684967,745.780151L461.391724,744.988647L421.685455,685.996216L421.356781,685.629150L420.940643,685.365479L420.468445,685.224976L419.975830,685.218262L365.887695,691.979370L323.401031,679.680542L289.288330,656.550415L288.862579,656.333679L288.397369,656.224609L287.919678,656.229492L287.456818,656.348022L287.035645,656.573364L286.680054,656.892578L245.512573,703.941284L206.052017,776.838989L205.868057,777.318604L205.813019,777.829407L205.890381,778.337280L272.541565,1009.656006z" fill="#000000" stroke="none" fill-opacity="1" />
			</g>
			<g id="layer.head.uuid_0x2" />
			<g id="layer.eyes.uuid_0x3">
				<polygon points="148.799286,477.016968 178.862930,476.667480 203.413071,461.506226 213.638306,433.760315 205.596603,406.092773 180.890579,385.476746 150.010590,386.545471 126.892326,403.027893 118.496880,430.615601 126.068741,457.087158" fill="#000000" stroke="none" fill-opacity="1" />
				<path d="M148.775482,474.977173L148.378082,475.020996L147.996658,475.141479L147.646240,475.334106L147.339996,475.591370L147.089951,475.903442L146.905579,476.258301L146.794006,476.642334L146.759323,477.040771L146.803223,477.438293L146.923828,477.819519L147.116486,478.170044L147.373749,478.476196L147.685730,478.726318L148.040543,478.910645L148.424545,479.022278L148.823029,479.056885L178.879333,478.077332L179.603821,477.867065L204.008392,462.470032L204.290146,462.223267L204.476013,461.897949L214.701233,434.152100L214.770416,433.800049L214.726028,433.444214L206.684433,405.776550L206.544754,405.472839L206.322510,405.222961L181.629135,384.591675L181.264587,384.386353L180.850708,384.324707L149.935516,384.373108L149.312439,384.487061L148.748764,384.775635L124.851784,400.165833L124.038399,400.975769L123.529533,402.004578L114.990746,429.548584L114.832024,430.584778L114.973305,431.623535L123.394035,457.852234L123.718819,458.576172L124.234596,459.178955L147.454376,478.550842L147.779449,478.783813L148.143723,478.948792L148.533157,479.039612L148.932907,479.052612L149.327484,478.987427L149.701782,478.846497L150.041260,478.635315L150.333084,478.361877L150.566025,478.036804L150.731049,477.672485L150.821747,477.283081L150.834961,476.883301L150.769669,476.488831L150.628738,476.114502L150.417542,475.774963L150.144135,475.483093L128.518295,455.535034L122.317947,430.647644L129.906876,405.195618L150.739746,388.695190L180.490265,386.643860L204.605316,406.741028L212.446457,433.718506L202.485306,460.747681L178.455048,475.262085z" fill="#FEF1B5" stroke="none" fill-opacity="1" />
				<polygon points="159.863434,458.356873 173.701645,461.566589 187.565979,456.166138 197.034531,442.360413 198.118240,426.532288 190.349365,412.622803 176.013123,409.708679 162.577240,415.983337 153.974487,429.910583 152.881622,445.040771" fill="#FEE870" stroke="none" fill-opacity="1" />
				<path d="M160.350052,456.258850L159.931473,456.204285L159.510208,456.232239L159.102417,456.342041L158.724075,456.529236L158.389435,456.786621L158.111526,457.104370L157.900711,457.470276L157.765335,457.870239L157.710800,458.288879L157.738907,458.710144L157.848663,459.117798L158.035828,459.496277L158.293304,459.830933L158.610992,460.108887L158.976929,460.319641L159.376892,460.454834L173.361343,463.033630L173.809616,463.068665L174.248260,462.969910L188.005157,457.293579L188.317978,457.114075L188.563843,456.850464L198.032410,443.044800L198.241669,442.443054L199.325348,426.614929L199.298874,426.267639L199.174576,425.942200L191.405701,412.032776L191.195465,411.757935L190.916122,411.553772L190.590424,411.437073L176.372009,407.942627L175.800644,407.919128L175.250473,408.075928L161.642365,413.981689L161.108566,414.332947L160.697662,414.822327L152.012390,428.698669L151.674332,429.744446L150.602127,444.876038L150.644241,445.506836L150.857620,446.101990L157.956100,459.356995L158.187790,459.709839L158.484024,460.010742L158.833069,460.248047L159.221939,460.412781L159.635300,460.498413L160.057465,460.501770L160.472260,460.422729L160.863586,460.264221L161.216415,460.032471L161.517334,459.736328L161.754684,459.387207L161.919418,458.998413L162.005035,458.585022L162.008347,458.162842L161.929337,457.748047L161.770767,457.356812L155.208038,444.556091L156.233765,430.641113L164.109940,417.705750L176.236786,411.593140L189.563828,413.697815L196.886444,426.808350L195.849854,441.948364L186.779099,455.174072L173.588577,459.994263z" fill="#621A08" stroke="none" fill-opacity="1" />
				<polygon points="512.641174,468.947449 539.523804,482.410889 568.292114,480.182678 590.093201,460.205139 595.621521,431.927979 583.106812,402.283447 555.168945,389.085388 527.068115,393.144043 506.965973,413.819336 501.567871,440.818176" fill="#000000" stroke="none" fill-opacity="1" />
				<path d="M513.544006,467.144531L513.174927,467.003052L512.785400,466.936279L512.390381,466.946777L512.004761,467.034119L511.643738,467.195068L511.321014,467.423340L511.049072,467.710205L510.838287,468.044556L510.696716,468.413635L510.630005,468.803223L510.640442,469.198364L510.727875,469.583801L510.888763,469.944885L511.117096,470.267639L511.403870,470.539551L511.738281,470.750427L538.892456,483.671631L539.632751,483.816711L568.379639,481.312073L568.743225,481.221863L569.057495,481.017822L590.858459,461.040283L591.081299,460.759155L591.205017,460.422485L596.733337,432.145264L596.748291,431.811279L596.665100,431.487305L584.150391,401.842896L583.924377,401.499390L583.590698,401.259216L555.889587,387.559814L555.419312,387.416809L554.927673,387.415466L526.772339,391.096924L526.128662,391.301270L525.585144,391.702148L505.418030,412.314270L505.055237,412.814026L504.848816,413.395996L499.469849,440.398621L499.436768,441.007996L499.576965,441.601868L510.764923,469.686035L510.945068,470.037903L511.190308,470.347900L511.491425,470.604004L511.836761,470.796448L512.212952,470.917847L512.605530,470.963562L512.999512,470.931763L513.379700,470.823730L513.731628,470.643555L514.041504,470.398254L514.297607,470.097168L514.490112,469.751892L514.611511,469.375732L514.657166,468.983093L514.625488,468.589172L514.517456,468.208862L503.789551,440.620239L508.958160,414.867493L528.060425,395.090515L554.907471,390.827820L582.231445,403.122864L594.443359,432.049927L589.052917,459.621765L567.814880,479.083435L539.805237,480.974854z" fill="#FEF1B5" stroke="none" fill-opacity="1" />
				<polygon points="540.959839,459.987549 557.516113,459.791809 571.036194,451.300171 576.667236,435.760132 572.238586,420.264038 558.632874,408.717102 541.626953,409.315857 528.895508,418.547363 524.272095,433.998779 528.441833,448.825195" fill="#FEE870" stroke="none" fill-opacity="1" />
				<path d="M540.930420,457.496094L540.444885,457.549744L539.979187,457.697021L539.551086,457.932312L539.177307,458.246643L538.871887,458.627869L538.646667,459.061401L538.510437,459.530396L538.468323,460.017029L538.522034,460.502563L538.669312,460.968201L538.904602,461.396301L539.218811,461.770142L539.600159,462.075623L540.033508,462.300659L540.502625,462.436951L540.989258,462.479004L557.536743,461.534058L558.442871,461.267273L571.780701,452.485657L572.125671,452.179077L572.352356,451.777100L577.983398,436.237000L578.066284,435.808716L578.013184,435.375488L573.584656,419.879272L573.415161,419.505371L573.144409,419.196655L559.538513,407.649841L559.092041,407.394836L558.583618,407.318176L541.553589,407.232178L540.948853,407.344238L540.403076,407.627869L527.395020,416.478149L526.810913,417.068298L526.446777,417.814697L521.716003,433.234009L521.604065,433.976685L521.703674,434.721191L525.896545,449.540955L526.199341,450.226013L526.682068,450.798584L539.301575,461.847290L539.696167,462.135010L540.139404,462.340332L540.614197,462.455200L541.102173,462.475159L541.584778,462.399597L542.043335,462.231323L542.460266,461.976807L542.819458,461.645874L543.107300,461.251221L543.312622,460.807983L543.427368,460.333252L543.447449,459.845215L543.371765,459.362610L543.203552,458.904053L542.949036,458.487183L542.618103,458.127869L530.778015,447.365723L527.049988,434.021851L531.096069,420.108704L542.335999,411.377014L558.140259,410.135254L571.009277,421.056702L575.196777,435.709106L569.883972,450.370728L557.004944,458.055359z" fill="#621A08" stroke="none" fill-opacity="1" />
				<polygon points="387.021912,145.324036 417.085541,144.974426 441.635773,129.813354 451.860931,102.067383 443.819244,74.399780 419.113251,53.783691 388.233276,54.852539 365.114929,71.334961 356.719513,98.922607 364.291382,125.394226" fill="#000000" stroke="none" fill-opacity="1" />
				<path d="M386.997589,143.233337L386.590210,143.278259L386.199371,143.401672L385.840149,143.599182L385.526367,143.862854L385.269989,144.182678L385.081055,144.546509L384.966644,144.940063L384.931213,145.348450L384.976074,145.755798L385.099609,146.146667L385.296997,146.505920L385.560760,146.819702L385.880554,147.075989L386.244293,147.265015L386.637909,147.379395L387.046234,147.414856L417.105682,146.705200L417.994965,146.447021L442.794830,131.690063L443.343506,131.209412L443.705475,130.575989L455.372620,103.361572L455.601166,102.198853L455.454803,101.022888L448.086975,73.159424L447.538910,71.967346L446.666748,70.987488L421.256134,51.215820L420.198364,50.619995L418.997589,50.441162L388.147614,52.377563L387.437897,52.507324L386.795746,52.836182L363.748230,69.417969L363.203491,69.960449L362.862640,70.649536L354.566071,98.267334L354.468689,98.903687L354.555420,99.541626L362.192047,125.994751L362.446930,126.562988L362.851807,127.036011L385.643463,146.896240L385.976654,147.135010L386.350006,147.304138L386.749207,147.397034L387.158905,147.410461L387.563293,147.343628L387.946869,147.199219L388.294952,146.982605L388.594055,146.702454L388.832794,146.369324L389.001923,145.995972L389.094971,145.596680L389.108276,145.187134L389.041473,144.782654L388.897034,144.399048L388.680573,144.051147L388.400330,143.751892L366.214111,124.176086L359.066467,98.942322L367.134003,72.786804L389.063934,57.301636L417.951691,57.170532L439.930176,76.943054L447.923309,101.929138L439.829193,128.336548L416.584991,143.249390z" fill="#FEF1B5" stroke="none" fill-opacity="1" />
				<polygon points="381.279541,94.413452 370.472809,100.900146 366.495850,112.470459 371.823822,126.327271 383.761810,136.299316 399.455109,139.783691 410.324066,132.821594 413.350250,120.996033 407.409149,107.591797 396.031677,98.025024" fill="#FEE870" stroke="none" fill-opacity="1" />
				<path d="M382.297607,96.109436L382.628021,95.860718L382.899475,95.548767L383.100098,95.187134L383.221161,94.791687L383.257385,94.379761L383.207214,93.969299L383.072723,93.578186L382.859955,93.223572L382.578003,92.921021L382.239349,92.683777L381.858734,92.521912L381.452881,92.442871L381.039398,92.449890L380.636414,92.542786L380.261505,92.717346L369.760864,99.714233L369.397736,100.029724L369.164673,100.450562L365.444885,112.109314L365.384705,112.490540L365.458557,112.869324L370.786591,126.726135L371.111389,127.180237L383.049377,137.152283L383.520874,137.384277L399.214203,140.868774L399.504211,140.893982L399.790924,140.843140L400.054535,140.719604L411.216888,134.215454L411.534149,133.950989L411.776123,133.616211L411.927643,133.232056L415.316071,121.499146L415.372375,120.827209L415.205322,120.173828L409.345642,106.733582L408.772369,105.970642L397.382538,96.418457L396.530762,95.986084L381.749908,92.491943L381.366058,92.437195L380.978882,92.458374L380.603210,92.554504L380.253540,92.722168L379.943359,92.954773L379.684479,93.243530L379.486847,93.577209L379.358185,93.942993L379.303345,94.326965L379.324432,94.714111L379.420624,95.089783L379.588348,95.439392L379.820984,95.749573L380.109741,96.008484L380.443390,96.206116L380.809174,96.334717L395.056061,99.947205L405.671204,108.897766L411.209991,121.174866L408.882263,131.779541L399.244812,138.598755L384.266754,135.273071L372.757660,125.659302L367.678314,112.449280L371.617065,101.826660z" fill="#621A08" stroke="none" fill-opacity="1" />
				<polygon points="178.126205,435.510742 172.623596,444.681763 173.724121,457.154358 185.096283,452.385376 192.901169,441.005310 193.951050,426.885986" fill="#E5A943" stroke="none" fill-opacity="1" />
				<polygon points="555.606873,432.942749 550.471252,440.646484 556.340698,455.686951 568.079590,448.350220 572.949768,435.869568 570.698120,426.885986" fill="#E5A943" stroke="none" fill-opacity="1" />
				<polygon points="395.949951,116.090210 396.919830,124.312317 407.732635,130.604980 409.585785,120.961304 405.135620,109.723755 400.535156,107.037964" fill="#E5A943" stroke="none" fill-opacity="1" />
				<polygon points="168.921158,449.064087 172.594589,449.994751 176.709885,446.781921 180.031082,439.720154 181.130280,432.057068 179.678894,425.709412 175.852432,424.943054 171.811813,428.557373 168.724442,435.639343 167.658066,442.967041" fill="#231800" stroke="none" fill-opacity="1" />
				<path d="M169.061127,448.511414L168.950745,448.494751L168.839050,448.499878L168.730545,448.526733L168.629456,448.574219L168.539383,448.640625L168.464127,448.723145L168.406448,448.818909L168.368515,448.924011L168.351807,449.034546L168.356842,449.146179L168.383804,449.254639L168.431229,449.355835L168.497604,449.445862L168.580231,449.521118L168.676071,449.578735L168.781189,449.616760L172.496750,450.381226L172.616730,450.392822L172.734665,450.367981L172.840073,450.309021L176.906967,447.034424L176.999771,446.918213L180.320831,439.856445L181.447388,432.102539L179.991074,425.638062L179.966751,425.568848L179.927063,425.506958L179.874527,425.455811L179.811569,425.417969L179.741821,425.395325L175.946106,424.475220L175.836136,424.466187L175.727066,424.482727L175.624649,424.523804L175.534470,424.587402L171.421967,428.121582L171.275772,428.323730L168.164917,435.395386L167.059311,442.879883L168.362808,449.179688L168.396088,449.286377L168.449661,449.384521L168.521286,449.470337L168.608276,449.540649L168.707199,449.592468L168.814331,449.624023L168.925720,449.634216L169.036804,449.622314L169.143616,449.589050L169.241699,449.535522L169.327530,449.463989L169.397675,449.377075L169.449646,449.278015L169.481216,449.170837L169.491180,449.059631L169.479446,448.948364L168.272110,442.948669L169.316711,435.808289L172.296814,428.908203L175.992691,425.457642L179.412872,425.982849L180.804749,432.070374L179.720764,439.627197L176.452560,446.576477L172.503265,449.560364z" fill="#000000" stroke="none" fill-opacity="1" />
				<polygon points="547.636292,442.051514 552.261902,441.989624 556.039062,439.304382 557.612366,434.390320 556.375000,429.489929 552.573730,425.838562 547.822632,426.027832 544.265686,428.947021 542.973999,433.833252 544.139038,438.521729" fill="#231800" stroke="none" fill-opacity="1" />
				<path d="M547.626953,441.355530L547.491455,441.370728L547.361328,441.412109L547.241821,441.478027L547.137451,441.566040L547.052307,441.672668L546.989624,441.793823L546.951721,441.924988L546.940186,442.060913L546.955383,442.196533L546.996704,442.326538L547.062744,442.446045L547.150757,442.550415L547.257263,442.635559L547.378479,442.698242L547.509644,442.736145L547.645569,442.747681L552.268433,442.476379L552.412964,442.452393L552.544006,442.386414L556.265625,439.623108L556.354736,439.535217L556.411499,439.423706L557.984863,434.509521L558.003296,434.402527L557.991516,434.294495L556.754272,429.394226L556.713196,429.293457L556.645996,429.207886L552.830566,425.571289L552.750427,425.512756L552.657776,425.477539L552.559021,425.468201L547.799438,425.445862L547.615479,425.483398L547.453003,425.577637L543.812622,428.395203L543.664856,428.561157L543.575378,428.764587L542.253235,433.642700L542.250488,434.013000L543.422119,438.699829L543.614258,439.041626L547.141846,442.541565L547.246887,442.628601L547.366943,442.693481L547.497253,442.733704L547.633118,442.747681L547.768921,442.734985L547.899780,442.695923L548.020386,442.632202L548.126221,442.546021L548.213318,442.441040L548.278198,442.320984L548.318359,442.190552L548.332458,442.054810L548.319641,441.918945L548.280640,441.788147L548.216858,441.667542L548.130798,441.561584L544.806885,438.146240L543.743530,433.838989L544.897034,429.352722L548.040955,426.602051L552.430847,426.215149L556.023376,429.694397L557.205750,434.377502L555.706360,439.061096L552.103516,441.504883z" fill="#000000" stroke="none" fill-opacity="1" />
				<polygon points="386.836823,106.034729 382.888580,108.638611 382.089203,113.675903 385.249634,119.967041 390.831024,124.702515 397.483124,126.652649 401.423126,123.838989 401.816162,118.664062 398.437897,112.557922 393.113892,108.017151" fill="#231800" stroke="none" fill-opacity="1" />
				<path d="M387.246185,106.655457L387.359406,106.563660L387.452545,106.451477L387.522003,106.323364L387.565155,106.184204L387.580322,106.039185L387.566925,105.894104L387.525482,105.754333L387.457550,105.625305L387.365753,105.512146L387.253632,105.419067L387.125488,105.349548L386.986267,105.306396L386.841309,105.291199L386.696167,105.304626L386.556427,105.346191L386.427521,105.414062L382.602356,108.204590L382.494690,108.299377L382.416931,108.419983L382.375122,108.557129L381.676666,113.610474L381.676422,113.739990L381.716003,113.863342L384.876465,120.154724L384.979431,120.285645L390.560791,125.020996L390.713501,125.103455L397.365601,127.053406L397.490082,127.070251L397.613892,127.049255L397.725861,126.992493L401.784607,124.345337L401.914917,124.219910L402.003723,124.062500L402.043457,123.886169L402.576660,118.721863L402.561340,118.501587L402.483521,118.294983L399.134521,112.172546L393.625946,107.416809L393.351593,107.264709L387.060791,105.325684L386.918091,105.295593L386.772369,105.294067L386.629089,105.320801L386.493835,105.375061L386.371735,105.454590L386.267487,105.556519L386.185181,105.676819L386.127838,105.810852L386.097809,105.953491L386.096069,106.099182L386.122955,106.242493L386.177155,106.377686L386.256836,106.499878L386.358673,106.604004L386.478943,106.686401L386.612946,106.743713L392.723724,108.721252L397.811279,113.069763L401.038361,118.833740L400.824738,123.501831L397.405670,126.194702L391.033661,124.326721L385.584747,119.703674L382.522888,113.608582L383.366211,108.946533z" fill="#000000" stroke="none" fill-opacity="1" />
				<polyline points="371.745605,103.988037 385.869995,108.526978 385.080780,114.578003 369.295319,112.473328" fill="#FEFEFE" stroke="none" fill-opacity="1" />
				<polyline points="164.653534,420.319397 174.724060,433.107971 171.820511,436.474609 158.728241,430.672424" fill="#FEFEFE" stroke="none" fill-opacity="1" />
				<polyline points="531.576477,420.018555 547.048523,432.004456 545.321289,436.608093 526.960144,432.899231" fill="#FEFEFE" stroke="none" fill-opacity="1" />
				<polyline points="237.388000,203.864746 196.021042,315.931274 193.764679,353.537476 228.362442,379.861816 313.352600,402.425598 342.109467,408.722717 362.889984,429.503174 378.632751,405.154358 480.465668,392.539490 513.057739,365.588379 502.402618,336.130249 483.599518,262.798340 474.197968,201.374878" fill="#231800" stroke="none" fill-opacity="1" />
				<path d="M243.642212,206.173340L243.972488,204.908813L244.049606,203.604248L243.870697,202.309570L243.442841,201.074768L242.782120,199.947083L241.914200,198.970032L240.872330,198.181091L239.696579,197.610474L238.431992,197.280334L237.127380,197.203064L235.832809,197.381958L234.598007,197.809875L233.470413,198.470459L232.493317,199.338440L231.704407,200.380310L231.133804,201.556213L193.160416,314.875244L191.180649,353.382385L191.220200,354.014038L191.411835,354.617126L191.744156,355.155823L192.197189,355.597656L226.323563,382.541504L227.498489,383.116211L312.375488,406.106079L340.205505,412.203918L360.197357,432.195862L360.858856,432.724182L361.620636,433.093262L362.445190,433.285095L363.291779,433.289856L364.118530,433.107422L364.884460,432.747009L365.551880,432.226135L366.087708,431.570740L380.865143,408.714783L480.933868,396.318542L481.973450,396.036133L482.892273,395.473999L515.484375,368.522949L516.124573,367.845581L516.581055,367.032898L516.826416,366.133728L516.846008,365.201843L516.638611,364.293213L506.045715,335.007141L487.334991,262.035522L477.962006,200.798889L477.777283,200.075562L477.455048,199.402222L477.007599,198.804688L476.452179,198.305969L475.810181,197.925232L475.106140,197.676880L474.367218,197.570801L473.621826,197.610962L472.898560,197.795593L472.225250,198.117920L471.627747,198.565430L471.128937,199.120789L470.748230,199.762817L470.500000,200.466736L470.393890,201.205688L470.433960,201.951111L479.835449,263.374451L498.714081,337.076050L508.565033,364.362427L478.895142,388.897095L378.164612,401.375244L377.099365,401.668823L376.163239,402.255798L375.435028,403.086792L362.250671,423.478638L344.802094,406.030090L343.936676,405.381836L342.923981,405.002991L314.248810,398.723755L229.870773,376.778564L196.431488,352.313721L199.037933,316.564087z" fill="#000000" stroke="none" fill-opacity="1" />
				<polygon points="274.732422,325.701050 263.628784,365.205505 277.121704,372.169678 289.129486,360.668274 277.417999,325.447754" fill="#FEE870" stroke="none" fill-opacity="1" />
				<path d="M276.952515,326.325134L277.031708,325.880066L277.022339,325.427979L276.925049,324.986511L276.743500,324.572510L276.484680,324.201904L276.158539,323.888855L275.777618,323.645447L275.356537,323.481018L274.911346,323.401978L274.459381,323.411316L274.017853,323.508484L273.603973,323.690063L273.233246,323.948853L272.920319,324.275024L272.676788,324.655945L272.512451,325.077087L261.428558,364.587158L261.345703,365.100586L261.381012,365.619446L261.532928,366.116882L261.793213,366.567139L262.148499,366.946777L262.580566,367.236389L276.073547,374.200500L276.604218,374.395630L277.166687,374.454590L277.726379,374.373657L278.248962,374.157715L278.702606,373.820129L290.715149,362.323730L291.045197,361.927063L291.278290,361.466736L291.402344,360.965881L291.411377,360.449890L291.304718,359.944946L279.599823,324.722229L279.384094,324.255798L279.070312,323.848938L278.673950,323.521912L278.214874,323.291077L277.716003,323.167969L277.202057,323.158752L274.515900,323.405212L274.072205,323.491516L273.653839,323.662781L273.276947,323.912354L272.955841,324.230713L272.703278,324.605591L272.528473,325.022583L272.438446,325.465637L272.436523,325.917603L272.522919,326.361389L272.694183,326.779785L272.943817,327.156677L273.262085,327.477661L273.636993,327.730347L274.053894,327.905090L274.496918,327.995117L274.949066,327.997009L276.162140,327.373657L286.496826,360.015747L276.719513,369.390076L266.333252,364.029541z" fill="#621A08" stroke="none" fill-opacity="1" />
				<polyline points="276.027435,325.038025 276.784973,371.655457 288.749542,360.110718" fill="#E5A943" stroke="none" fill-opacity="1" />
				<polyline points="268.858856,341.085815 267.406281,347.354004 275.748657,362.225220" fill="#FEFEFE" stroke="none" fill-opacity="1" />
				<polyline points="270.723450,335.206177 269.893127,338.789246 274.661804,347.289917" fill="#FEFEFE" stroke="none" fill-opacity="1" />
				<polygon points="420.525574,334.770813 409.833130,372.201782 427.890015,372.636475 431.203827,366.071472 422.192078,335.330444" fill="#FEE870" stroke="none" fill-opacity="1" />
				<path d="M422.742950,335.404175L422.823914,334.959473L422.816528,334.507446L422.721130,334.065552L422.541321,333.650757L422.284149,333.278992L421.959290,332.964600L421.579346,332.719604L421.158936,332.553406L420.714203,332.472473L420.262146,332.479858L419.820282,332.575195L419.405487,332.755005L419.033722,333.012207L418.719360,333.337036L418.474365,333.716980L418.308167,334.137451L407.635590,371.574158L407.550568,372.087341L407.583740,372.606445L407.733612,373.104736L407.992126,373.556091L408.346069,373.937378L408.777130,374.228699L409.262878,374.414978L409.778107,374.486633L427.835052,374.921204L428.347260,374.875732L428.836273,374.716736L429.277435,374.452576L429.648376,374.096436L429.930237,373.666321L433.250183,367.104431L433.442596,366.564026L433.494781,365.992798L433.403534,365.426575L423.259125,335.017700L423.153961,334.772583L422.993500,334.559570L422.786865,334.390930L422.546051,334.276306L421.259735,332.584717L420.819122,332.483459L420.367249,332.470093L419.921448,332.545166L419.498871,332.705811L419.115784,332.945740L418.786743,333.255920L418.524628,333.624207L418.339417,334.036560L418.238220,334.477234L418.224854,334.929138L418.299988,335.374878L418.460602,335.797485L418.700623,336.180603L419.010681,336.509583L419.378967,336.771729L419.791382,336.956909L421.288086,336.199890L428.749329,365.847107L426.500763,370.316895L412.842255,369.988281z" fill="#621A08" stroke="none" fill-opacity="1" />
				<polyline points="421.299408,334.661804 427.905273,372.454529 431.229126,365.766052" fill="#E5A943" stroke="none" fill-opacity="1" />
				<polyline points="417.797028,346.076172 416.539520,354.126221 427.630188,371.335571" fill="#FEFEFE" stroke="none" fill-opacity="1" />
				<polyline points="419.229553,340.167664 418.520081,344.158630 423.557190,353.192078" fill="#FEFEFE" stroke="none" fill-opacity="1" />
				<polyline points="436.160797,274.388977 434.957153,305.844299 426.037598,312.541748 421.258728,332.135254 420.533936,314.341797 388.407623,346.360352 349.011169,377.840088 322.437317,355.286011 279.461456,308.561890 276.980835,323.185791 275.354248,308.188477 266.019928,299.974243 266.503326,268.932922" fill="#000000" stroke="none" fill-opacity="1" />
				<path d="M436.756348,274.411743L436.749329,274.295166L436.719727,274.182129L436.668610,274.077026L436.598022,273.983948L436.510590,273.906494L436.409760,273.847473L436.299316,273.809326L436.183563,273.793457L436.066925,273.800415L435.953918,273.830017L435.848816,273.881104L435.755707,273.951782L435.678253,274.039124L435.619232,274.140076L435.581116,274.250488L435.565186,274.366211L434.032715,305.360046L425.679718,312.065186L425.540039,312.213684L425.458557,312.400574L421.416626,330.550293L421.129456,314.317505L421.111298,314.193665L421.067596,314.076477L421.000397,313.970886L420.912689,313.881592L420.808258,313.812744L420.691772,313.767029L420.568268,313.746826L420.443298,313.752747L420.322205,313.784668L420.210571,313.841064L420.113220,313.919678L388.010040,345.915100L349.048706,375.301025L322.851074,354.855469L280.016754,308.051270L279.902405,307.949951L279.770233,307.873657L279.625244,307.825623L279.473724,307.807678L279.321503,307.820618L279.175201,307.863953L279.040558,307.935913L278.923157,308.033447L278.827759,308.152710L278.758392,308.288635L278.717834,308.435791L277.029236,321.571411L275.946808,308.124207L275.913116,307.981262L275.845428,307.850952L275.748077,307.741028L267.489410,299.323730L267.390930,268.946899L267.376495,268.773438L267.328552,268.606201L267.249023,268.451416L267.140747,268.315186L267.007874,268.202698L266.855804,268.118286L266.690094,268.065186L266.517120,268.045471L266.343811,268.059753L266.176483,268.107788L266.021759,268.187378L265.885590,268.295654L265.773010,268.428406L265.688721,268.580566L265.635468,268.746277L265.615784,268.919128L264.561035,299.951538L264.614624,300.367188L264.784424,300.750488L265.056000,301.069702L274.786804,308.482910L276.759857,323.209717L276.769348,323.254150L276.787720,323.295654L276.814056,323.332642L276.847290,323.363525L276.886322,323.386841L276.929138,323.401917L276.974091,323.407959L277.019348,323.404602L277.063080,323.392212L277.103302,323.371155L277.138550,323.342346L277.166992,323.307068L277.187744,323.266663L277.199951,323.222900L279.947845,310.204956L321.998688,355.689514L347.742767,379.334534L348.116302,379.583923L348.536743,379.741943L348.982147,379.800049L349.429047,379.755188L349.854004,379.609741L350.234772,379.371460L388.779663,346.825928L419.993683,315.721680L421.036743,332.144348L421.043182,332.189270L421.058594,332.231812L421.082397,332.270447L421.113495,332.303406L421.150665,332.329407L421.192291,332.347351L421.236725,332.356384L421.282013,332.356262L421.326447,332.346985L421.367981,332.328735L421.405060,332.302612L421.435944,332.269409L421.459534,332.230591L421.474640,332.187988L426.565979,312.890259L435.522949,306.597717L435.718170,306.399780L435.847168,306.153503L435.898712,305.880249z" fill="#FEF1B5" stroke="none" fill-opacity="1" />
				<polygon points="339.835052,190.046631 269.745453,194.399048 237.388000,203.864746 245.874710,229.406433 309.927521,340.306580 350.130798,398.256409 395.088440,335.016052 455.037537,231.824402 475.324432,200.757385 454.742096,198.527100 381.053406,192.909058" fill="#432F1C" stroke="none" fill-opacity="1" />
				<path d="M339.972931,192.266113L340.403137,192.196411L340.811768,192.044434L341.182587,191.815491L341.501770,191.518616L341.756927,191.165161L341.938110,190.768799L342.038574,190.344604L342.054352,189.908875L341.984833,189.478638L341.832825,189.070129L341.603821,188.699219L341.306885,188.380066L340.953491,188.124817L340.557007,187.943604L340.132874,187.843201L339.697235,187.827393L269.635406,192.627808L235.516144,197.466248L234.109283,198.060059L232.874283,198.958496L231.876251,200.114319L231.167450,201.466980L230.785049,202.945374L230.748993,204.472046L231.061432,205.966858L242.978058,230.368835L308.203125,341.302490L348.657776,399.278381L348.907074,399.566650L349.211731,399.795715L349.557892,399.955261L349.929932,400.037903L350.311096,400.040100L350.684113,399.961670L351.032013,399.806152L351.339294,399.580627L351.591888,399.295227L397.100311,336.446289L460.714630,235.323792L477.073914,201.899780L477.269196,201.521484L477.383698,201.111328L477.412689,200.686462L477.354980,200.264709L477.212982,199.863281L476.992523,199.499023L476.702728,199.187012L476.355774,198.940186L475.965973,198.768860L475.549530,198.680054L455.268921,193.665100L381.237762,190.490967L339.989166,187.828491L339.553406,187.840942L339.128510,187.938354L338.730835,188.116638L338.375427,188.369202L338.076172,188.686218L337.844513,189.055542L337.689423,189.462769L337.616791,189.892639L337.629364,190.328369L337.726654,190.753235L337.905029,191.151062L338.157532,191.506409L338.474609,191.805542L338.843781,192.037170L339.251190,192.192322L339.681000,192.264893L380.877289,195.327942L454.292633,203.397705L471.712036,202.467712L449.455566,228.179443L393.010895,333.678162L350.148651,395.137146L311.610657,339.239258L248.673264,228.149048L245.894241,208.322388L270.053345,196.158142z" fill="#000000" stroke="none" fill-opacity="1" />
				<polyline points="69.143089,669.120850 54.445553,662.044312 62.066517,654.967773 34.848919,677.830505 8.175716,715.390747 9.808732,700.693237 24.114590,668.812134 44.297050,646.372742 23.258286,669.668518 9.808732,697.427124 8.720113,662.044312 25.050602,651.701721 14.960632,653.879089 2.717514,643.030273 18.393002,644.421204 41.800060,644.421204 65.751518,633.534180 76.638565,651.497803 81.537613,656.396912" fill="#000000" stroke="none" fill-opacity="1" />
				<path d="M68.467484,670.524170L68.754219,670.629028L69.055885,670.675903L69.360985,670.663086L69.657669,670.590942L69.934555,670.462280L70.180954,670.282104L70.387634,670.057373L70.546364,669.796509L70.651192,669.509766L70.698112,669.208130L70.685181,668.903076L70.613083,668.606384L70.484451,668.329468L70.304321,668.083008L70.079498,667.876404L69.818748,667.717651L57.795185,661.538696L63.192959,656.180969L63.417439,655.924683L63.584751,655.628052L63.687748,655.303284L63.722076,654.964355L63.686314,654.625610L63.582005,654.301270L63.413544,654.005249L63.188042,653.750000L62.914986,653.546204L62.606052,653.402649L62.274342,653.325317L61.933769,653.317627L61.598740,653.379639L61.283627,653.509033L61.001648,653.700073L33.179798,675.843384L12.482758,704.088257L12.928105,701.543884L26.534729,670.387878L45.806984,647.730774L46.056232,647.387451L46.228638,646.999756L46.316761,646.584717L46.316761,646.160461L46.228470,645.745422L46.056004,645.357788L45.806808,645.014404L45.491642,644.730347L45.124287,644.518066L44.720821,644.386597L44.298939,644.341919L43.876934,644.385803L43.473190,644.516479L43.105549,644.728088L42.789921,645.011536L21.118240,667.735840L12.626209,684.222168L11.922742,663.743286L26.450560,653.912231L26.860430,653.591309L27.198715,653.195679L27.451859,652.740967L27.610016,652.245117L27.666950,651.727722L27.620316,651.209351L27.472057,650.710327L27.227955,650.250671L26.897678,649.848389L26.494217,649.519531L26.033707,649.276917L25.534286,649.130310L25.015814,649.085449L24.498598,649.144043L15.782777,650.741333L11.249771,646.706177L18.159027,647.058350L41.800060,646.491455L42.656765,646.305908L65.188240,635.357544L75.495537,652.190552L80.637871,657.296753L80.830772,657.454956L81.050781,657.572510L81.289383,657.645020L81.537613,657.669434L81.785950,657.645020L82.024666,657.572510L82.244629,657.454956L82.437462,657.296692L82.595734,657.103882L82.713318,656.883850L82.785820,656.645142L82.810196,656.396851L82.785706,656.148621L82.713318,655.909912L82.595734,655.689941L82.437462,655.497070L77.697830,650.666870L66.971687,632.794678L66.758827,632.523682L66.487198,632.311707L66.172714,632.171021L65.833511,632.109741L65.489677,632.131592L65.161057,632.235352L41.351624,642.350952L18.510189,641.773682L2.974491,640.134277L2.368870,640.143799L1.778183,640.278809L1.228352,640.533203L0.743237,640.896057L0.343781,641.351562L0.047379,641.879883L-0.132980,642.458252L-0.189629,643.061340L-0.120163,643.663208L0.072727,644.237549L0.380173,644.759399L0.789356,645.206299L13.041459,656.044861L13.597012,656.431396L14.227124,656.678345L14.897289,656.772095L15.571060,656.707703L22.629091,652.692932L7.035198,659.384094L6.409607,659.904907L5.938339,660.568726L5.653096,661.331055L5.572644,662.141235L6.587963,697.526245L6.675282,698.178528L6.893234,698.799438L7.232895,699.363159L7.679901,699.846069L8.215771,700.228149L8.818130,700.493408L9.461747,700.630737L10.119781,700.634399L10.764829,700.504333L11.370164,700.245850L11.910267,699.869873L12.362653,699.392029L12.708608,698.832153L25.674078,671.296021L42.937374,647.881287L21.993315,666.904236L6.894436,699.385498L5.161744,715.055786L5.156021,715.669373L5.273895,716.271484L5.510559,716.837524L5.856400,717.344421L6.297055,717.771301L6.814728,718.100708L7.388077,718.319214L7.993699,718.417847L8.606701,718.392456L9.202137,718.244263L9.755573,717.979309L10.244293,717.608276L10.648271,717.146606L36.772556,679.604004L60.825634,656.063843L53.146820,660.645691L52.877140,660.956665L52.680420,661.318176L52.565746,661.713501L52.538509,662.124146L52.600025,662.531128L52.747192,662.915405L52.973389,663.259277L53.268131,663.546631L53.617577,663.764160z" fill="#FEF1B5" stroke="none" fill-opacity="1" />
				<polygon points="132.706207,715.186768 128.895905,719.541504 103.855766,742.948608 75.549545,750.569580 102.222755,720.085876 97.867989,698.856262 85.347923,673.271729 63.029652,693.412720 45.610428,715.731079 52.687000,691.235352 73.372253,661.296021 100.045563,643.332520 102.222977,650.953369 111.476898,671.094360 121.819443,685.247437 127.262703,701.033691" fill="#000000" stroke="none" fill-opacity="1" />
				<path d="M132.706207,715.186768L128.895905,719.541504L103.647308,742.573608L79.047607,748.388672L102.576660,720.395630L102.653732,720.274170L102.690529,720.135071L102.683487,719.991455L98.570938,698.712036L86.418518,672.747803L86.289085,672.540283L86.120056,672.363647L85.918411,672.225159L85.692841,672.130737L85.452751,672.084412L85.208138,672.088013L84.969460,672.141479L84.746758,672.242493L84.549240,672.386841L61.856632,692.112915L50.720848,705.719849L54.570011,692.128540L74.397301,662.333374L99.393311,645.119751L101.183685,651.250366L110.773041,671.417786L121.488129,685.420654L127.262703,701.033691L132.706207,715.186768L127.262703,701.033691L122.168938,685.126953L112.148384,670.700195L103.239616,650.577148L101.120514,643.025391L101.033195,642.808472L100.902618,642.614624L100.734619,642.452026L100.536407,642.328003L100.316910,642.247803L100.085449,642.215088L99.852226,642.231262L99.627457,642.295532L99.420952,642.405151L72.571854,660.107544L72.193398,660.481567L50.994816,690.066101L43.563080,715.139648L43.484520,715.584351L43.501225,716.035645L43.612808,716.473267L43.813995,716.877563L44.095974,717.230347L44.445877,717.515808L44.848083,717.721191L45.284561,717.837097L45.735687,717.858398L46.181206,717.784302L46.600971,717.617981L46.976337,717.366821L47.290367,717.042297L64.315857,694.610352L84.972443,675.216248L97.183281,699.089844L101.715149,719.951904L74.649071,749.781616L74.503044,749.989502L74.404167,750.223511L74.357018,750.473145L74.363480,750.727051L74.423447,750.973877L74.534225,751.202515L74.690781,751.402588L74.886017,751.565186L75.111069,751.682861L75.356087,751.750244L75.609741,751.764526L75.860657,751.724854L103.963913,743.350708L104.140099,743.252808L128.895905,719.541504z" fill="#FEF1B5" stroke="none" fill-opacity="1" />
				<polyline points="25.050602,651.701721 40.927567,644.897278" fill="#000000" stroke="none" fill-opacity="1" />
				<path d="M24.019833,649.296753L23.570480,649.544067L23.178005,649.874268L22.857456,650.274719L22.621250,650.729980L22.478315,651.222534L22.434254,651.733643L22.490847,652.243408L22.645626,652.732422L22.892933,653.181763L23.223095,653.574280L23.623581,653.894836L24.078886,654.131104L24.571552,654.273987L25.082474,654.317993L25.592251,654.261475L26.081316,654.106689L41.754627,646.826965L42.115173,646.628540L42.430119,646.363525L42.687321,646.042236L42.876896,645.676941L42.991562,645.281677L43.026810,644.871643L42.981491,644.462524L42.857265,644.070190L42.658772,643.709656L42.393894,643.394714L42.072544,643.137573L41.707249,642.947998L41.312027,642.833313L40.901932,642.797974L40.492916,642.843323L40.100555,642.967590z" fill="#FEF1B5" stroke="none" fill-opacity="1" />
				<polyline points="668.979858,547.090637 679.170105,559.632507 668.195984,572.958252 625.083313,610.583923 596.123901,625.368408 576.527283,621.449097 566.336975,582.255737 565.553040,554.820312 574.175659,530.520447 574.175659,508.572144 590.564026,532.689697 590.035339,550.025574 624.343079,521.897888 653.954895,528.513306" fill="#000000" stroke="none" fill-opacity="1" />
				<path d="M671.078735,545.385315L670.705627,545.008545L670.266418,544.711853L669.777466,544.506592L669.258118,544.400635L668.727966,544.398010L668.207520,544.498901L667.716797,544.699341L667.274414,544.991760L666.897766,545.364807L666.601074,545.804138L666.395752,546.292908L666.289795,546.812378L666.287292,547.342468L666.388123,547.862976L666.588623,548.353699L666.880981,548.795959L675.629272,559.620789L666.835999,571.636719L624.617249,609.894958L596.123901,625.368408L576.527283,621.449097L567.089905,582.148438L566.523621,554.973206L575.251038,530.902039L575.393616,512.531921L589.341675,533.045410L588.938965,549.992188L588.955688,550.219299L589.018982,550.438049L589.126099,550.639038L589.272339,550.813599L589.451416,550.954163L589.655823,551.054749L589.876587,551.110901L590.104126,551.120300L590.328613,551.082520L590.540588,550.999146L590.730774,550.873840L624.723694,523.498718L653.483704,530.622437L653.904236,530.673828L654.326599,530.642151L654.734802,530.528748L655.112976,530.337891L655.446777,530.076843L655.723145,529.755737L655.931519,529.386963L656.063904,528.984558L656.115356,528.564026L656.083679,528.141602L655.970215,527.733398L655.779358,527.355225L655.518433,527.021545L655.197266,526.745178L654.828491,526.536743L654.426025,526.404297L624.665588,520.454224L624.221313,520.423645L623.788025,520.526611L623.405090,520.753967L591.205200,547.648071L591.774475,532.726624L591.726868,532.351318L591.565613,532.009033L575.183167,507.887512L575.016418,507.690796L574.812134,507.533630L574.579224,507.422852L574.328247,507.363647L574.070557,507.358643L573.817383,507.407959L573.580383,507.509338L573.370056,507.658386L573.195923,507.848450L573.065430,508.070862L572.984741,508.315796L572.957520,508.572144L573.034546,530.323975L564.642944,554.497375L565.581543,582.277344L576.527283,621.449097L596.123901,625.368408L625.458618,611.319275L669.438599,574.382202L681.285767,561.374817L681.625488,560.850159L681.837524,560.262268L681.910889,559.641541L681.841675,559.020447L681.633423,558.431030L681.297302,557.904236z" fill="#FEF1B5" stroke="none" fill-opacity="1" />
				<polyline points="634.827820,508.996216 626.889404,496.521484 602.318054,490.095154 573.966431,490.473145 595.513611,479.132446 631.425720,480.644653 659.167053,514.059265" fill="#000000" stroke="none" fill-opacity="1" />
				<path d="M633.453735,509.870728L633.650696,510.122009L633.892944,510.330017L634.171204,510.486877L634.474548,510.586304L634.791565,510.624695L635.109924,510.600464L635.417542,510.514648L635.702332,510.370483L635.953735,510.173401L636.161743,509.931152L636.318420,509.653015L636.417969,509.349548L636.456299,509.032593L636.432068,508.714233L636.346252,508.406616L636.202026,508.121704L628.254150,495.653015L627.997559,495.343079L627.672241,495.106018L627.298767,494.956604L602.683350,488.698669L579.168823,489.150818L595.835938,480.565979L630.591309,482.328491L657.407654,515.519958L657.726440,515.835144L658.100525,516.082092L658.515686,516.251282L658.955811,516.336243L659.404114,516.333740L659.843201,516.243713L660.256531,516.069885L660.627808,515.818665L660.942871,515.499878L661.189941,515.125793L661.359131,514.710693L661.444031,514.270508L661.441528,513.822205L661.351501,513.383057L661.177612,512.969910L660.926514,512.598633L632.747131,479.547485L632.394409,479.226318L631.967163,479.014587L631.497925,478.928528L595.573303,477.715088L594.852783,477.877075L573.382874,489.364441L573.169006,489.506775L572.988647,489.689758L572.849487,489.905701L572.757141,490.145447L572.715698,490.398987L572.726929,490.655640L572.790222,490.904602L572.902954,491.135498L573.060364,491.338501L573.255981,491.505127L573.481445,491.628296L573.727234,491.703003L573.983154,491.725891L602.141907,491.541016L625.865723,497.925720z" fill="#FEF1B5" stroke="none" fill-opacity="1" />
				<polyline points="660.138733,570.833557 641.098022,558.813782 637.494385,563.078186 625.818665,565.235352 631.255920,546.134888 645.354004,549.686890 620.370972,540.492249 590.997986,557.040833 600.555664,538.146973 617.040466,526.729431 649.202515,535.429810 621.778809,520.844666 605.945801,527.337585 580.556519,541.764771 590.712585,526.635498 616.222412,501.818665 658.539856,516.388306 661.262329,533.435181 671.002930,540.487488 669.508484,548.837830" fill="#000000" stroke="none" fill-opacity="1" />
				<path d="M659.223999,572.282593L659.524292,572.433105L659.848145,572.522278L660.183167,572.546509L660.516541,572.504883L660.835205,572.399170L661.127258,572.233154L661.381470,572.013367L661.587708,571.748291L661.738281,571.447998L661.827393,571.124146L661.851685,570.789124L661.810059,570.455811L661.704224,570.136963L661.538269,569.844971L661.318542,569.590942L661.053406,569.384644L641.857300,557.611145L641.551331,557.465698L641.219849,557.396790L640.881348,557.408203L640.555054,557.499268L640.259644,557.664978L640.011719,557.895813L636.797668,561.877869L627.503967,563.702576L632.222168,547.809631L644.947266,551.301392L645.280029,551.350220L645.615845,551.331116L645.940918,551.244934L646.242126,551.095093L646.507141,550.887878L646.725037,550.631531L646.886902,550.336731L646.986206,550.015320L647.018860,549.680542L646.983582,549.346008L646.881897,549.025391L646.717651,548.731812L646.497864,548.477173L646.231262,548.271973L645.929077,548.124512L620.837402,539.225037L620.457458,539.144653L620.070312,539.175781L619.708130,539.315796L593.494751,554.429749L601.518677,538.985962L617.303894,528.257202L648.695007,537.305969L649.094055,537.370422L649.497803,537.350891L649.888794,537.248291L650.250061,537.066956L650.566101,536.814880L650.822998,536.502869L651.010010,536.144470L651.118774,535.755127L651.144592,535.351685L651.086304,534.951660L650.946716,534.572327L650.731567,534.230042L650.450378,533.939636L650.115173,533.713806L622.467529,519.549622L622.064636,519.405945L621.637512,519.384583L621.222229,519.487488L605.440735,526.106262L584.090088,538.484985L591.671570,527.435425L616.609558,503.549744L656.497009,518.104675L658.803345,533.827881L658.988892,534.451233L659.329468,535.005188L659.802063,535.452209L667.825378,541.769653L666.859375,548.363770L666.817688,548.889648L666.879639,549.413574L667.042358,549.915405L667.299988,550.375793L667.642517,550.777100L668.056641,551.103882L668.526672,551.343567L669.034485,551.486938L669.560242,551.528503L670.084229,551.466736L670.585999,551.303894L671.046448,551.046265L671.447815,550.703857L671.774536,550.289612L672.014221,549.819641L672.157593,549.311951L673.859619,540.998718L673.901733,540.350708L673.798706,539.709595L673.555786,539.107239L673.184814,538.574158L672.704834,538.136841L663.558411,532.023376L660.799133,516.027527L660.620728,515.437500L660.291504,514.916565L659.835144,514.502380L659.284607,514.225037L616.714111,500.390198L616.306580,500.310242L615.892639,500.344360L615.503662,500.489807L615.168945,500.735779L589.846375,525.745178L579.638367,541.148438L579.531677,541.349365L579.468445,541.567810L579.451111,541.794617L579.480530,542.020142L579.555603,542.234863L579.673035,542.429749L579.827759,542.596436L580.013245,542.727966L580.221924,542.818726L580.444580,542.864929L580.672058,542.864563L580.894531,542.817688L581.102844,542.726257L606.529358,528.536743L621.698120,522.463196L633.073669,529.053162L617.407654,525.372253L617.004211,525.323975L616.603821,525.393005L616.239929,525.573608L599.850708,537.129150L599.450806,537.588135L590.061646,556.567200L589.982666,556.775513L589.949585,556.995789L589.963684,557.218079L590.024414,557.432434L590.129028,557.629089L590.272766,557.799255L590.449097,557.935303L590.650330,558.030945L590.867188,558.082031L591.089844,558.086182L591.308472,558.043213L591.513123,557.955078L620.490173,541.974976L643.763367,549.195374L631.594971,544.789001L631.292969,544.747498L630.989258,544.772827L630.698486,544.863831L630.434448,545.016174L630.210022,545.222412L630.036194,545.472717L629.921021,545.754883L624.663513,564.906494L624.619202,565.173279L624.635681,565.443298L624.712280,565.702698L624.844910,565.938416L625.026794,566.138489L625.249023,566.292725L625.500000,566.393433L625.767212,566.435364L626.036926,566.416504L637.731873,564.363281L638.150452,564.208374L638.492554,563.921692L641.385559,560.677124z" fill="#FEF1B5" stroke="none" fill-opacity="1" />
				<path d="M375.478760,951.087646L376.090240,953.338318L377.128998,955.426392L378.555237,957.271729L380.314026,958.803345L382.337860,959.962463L384.548920,960.704468L386.862213,961.000793L389.188904,960.840149L391.439514,960.228760L393.527679,959.189880L395.372955,957.763733L396.904633,956.004944L398.063690,953.981079L398.805664,951.770081L399.102020,949.456787L398.941376,947.130066L398.534271,945.838745L397.932434,943.623413L396.909912,941.568054L395.506104,939.751648L393.774933,938.244080L391.782837,937.103210L389.606506,936.372864L387.329468,936.081177L385.039276,936.239258L382.823975,936.841125L380.768585,937.863647L378.952209,939.267456L377.444641,940.998596L376.303772,942.990662L375.573395,945.166992L375.281708,947.444092L375.439789,949.734253z" fill="#110100" stroke="none" fill-opacity="0.126386926" />
				<path d="M428.332275,943.262085L429.113922,946.139526L430.441895,948.809082L432.265106,951.168396L434.513580,953.126709L437.100922,954.608582L439.927643,955.557312L442.885193,955.936340L445.859802,955.731079L448.737244,954.949463L451.406830,953.621460L453.766083,951.798218L455.724396,949.549683L457.206360,946.962402L458.155029,944.135681L458.534027,941.178162L458.328857,938.203491L457.938599,936.909363L457.165710,934.064026L455.852600,931.424133L454.049622,929.091125L451.826233,927.154785L449.267700,925.689331L446.472504,924.751221L443.547943,924.376465L440.606476,924.579346L437.761139,925.352234L435.121277,926.665405L432.788330,928.468384L430.851868,930.691772L429.386475,933.250305L428.448303,936.045471L428.073517,938.970032L428.276489,941.911499z" fill="#110100" stroke="none" fill-opacity="0.263577223" />
				<path d="M300.790863,1005.588013L301.535522,1008.328552L302.800385,1010.871155L304.536896,1013.118103L306.678558,1014.983093L309.142853,1016.394409L311.835083,1017.297852L314.651855,1017.658813L317.485016,1017.463196L320.225464,1016.718628L322.768097,1015.453796L325.015076,1013.717163L326.880066,1011.575623L328.291473,1009.111328L329.194916,1006.419067L329.555695,1003.602234L329.360229,1000.769165L328.968048,999.475281L328.232361,996.767212L326.982361,994.254761L325.266449,992.034302L323.150085,990.191406L320.715027,988.796814L318.054504,987.903992L315.271057,987.547363L312.471497,987.740723L309.763489,988.476379L307.251038,989.726318L305.030670,991.442322L303.187805,993.558594L301.793060,995.993713L300.900269,998.654175L300.543640,1001.437622L300.736938,1004.237183z" fill="#110100" stroke="none" fill-opacity="0.377564609" />
				<path d="M354.556458,997.337280L355.400696,1000.444763L356.834991,1003.327881L358.804169,1005.875793L361.232605,1007.990479L364.026917,1009.590881L367.079742,1010.615417L370.273743,1011.024597L373.486298,1010.802795L376.593781,1009.958557L379.476868,1008.524292L382.024780,1006.555054L384.139557,1004.126648L385.739899,1001.332336L386.764404,998.279541L387.173615,995.085449L386.951813,991.872925L386.564178,990.578308L385.728424,987.502441L384.308746,984.648621L382.359589,982.126587L379.955872,980.033325L377.189941,978.449219L374.168121,977.435181L371.006531,977.030090L367.826660,977.249695L364.750763,978.085388L361.896942,979.505066L359.374939,981.454224L357.281708,983.857971L355.697540,986.623840L354.683533,989.645691L354.278473,992.807251L354.497955,995.987183z" fill="#110100" stroke="none" fill-opacity="0.394527137" />
				<path d="M406.975952,989.313354L407.948700,992.893921L409.601288,996.215820L411.870178,999.151611L414.668274,1001.588257L417.887939,1003.432190L421.405457,1004.612610L425.085693,1005.084106L428.787170,1004.828552L432.367706,1003.855835L435.689667,1002.203186L438.625366,999.934326L441.062012,997.136230L442.906006,993.916565L444.086395,990.399048L444.557892,986.718811L444.302338,983.017334L443.928131,981.720459L442.963226,978.168945L441.324005,974.873901L439.073486,971.961975L436.298126,969.545044L433.104523,967.716003L429.615509,966.545166L425.965088,966.077515L422.293579,966.330933L418.742004,967.295837L415.447052,968.935059L412.535095,971.185547L410.118134,973.960999L408.289124,977.154541L407.118256,980.643616L406.650574,984.294006L406.904022,987.965515z" fill="#110100" stroke="none" fill-opacity="0.474511594" />
				<path d="M275.598633,1053.207764L276.558838,1056.741821L278.190063,1060.020752L280.429657,1062.918335L283.191376,1065.323486L286.369415,1067.143555L289.841309,1068.308594L293.473907,1068.773926L297.127380,1068.521606L300.661469,1067.561401L303.940399,1065.930298L306.838013,1063.690674L309.243103,1060.928955L311.063263,1057.750977L312.228210,1054.278931L312.693573,1050.646484L312.441376,1046.992920L312.087280,1045.692749L311.133911,1042.183716L309.514221,1038.928223L307.290741,1036.051147L304.548584,1033.663208L301.393188,1031.856079L297.945953,1030.699219L294.339111,1030.237305L290.711578,1030.487671L287.202698,1031.441040L283.947083,1033.060669L281.070099,1035.284302L278.682190,1038.026489L276.875092,1041.181763L275.718170,1044.629028L275.256104,1048.235718L275.506683,1051.863281z" fill="#110100" stroke="none" fill-opacity="0.659853816" />
				<path d="M330.609619,1046.378784L331.659851,1050.244629L333.444183,1053.831177L335.893829,1057.000854L338.914795,1059.631592L342.391052,1061.622437L346.188751,1062.896851L350.162170,1063.405884L354.158539,1063.130005L358.024353,1062.079834L361.610931,1060.295532L364.780487,1057.845825L367.411285,1054.824829L369.402191,1051.348755L370.676575,1047.550903L371.185638,1043.577515L370.909760,1039.581055L370.557587,1038.280518L369.513977,1034.439575L367.741211,1030.875977L365.307190,1027.726685L362.305664,1025.112793L358.851776,1023.134644L355.078308,1021.868347L351.130371,1021.362610L347.159576,1021.636719L343.318604,1022.680237L339.755066,1024.453003L336.605713,1026.886963L333.991760,1029.888550L332.013763,1033.342529L330.747375,1037.115967L330.241638,1041.063843L330.515717,1045.034668z" fill="#110100" stroke="none" fill-opacity="0.656497955" />
				<path d="M384.367859,1038.127441L385.517883,1042.361694L387.471832,1046.290161L390.154663,1049.761963L393.463226,1052.643677L397.270477,1054.824585L401.429962,1056.220703L405.781921,1056.778564L410.159180,1056.476807L414.393372,1055.326782L418.321838,1053.372925L421.793701,1050.690063L424.675354,1047.381470L426.856232,1043.574219L428.252411,1039.414795L428.810333,1035.062744L428.508514,1030.685547L428.165985,1029.383301L427.022217,1025.171997L425.078857,1021.264771L422.410553,1017.811768L419.119904,1014.945679L415.333282,1012.776611L411.196228,1011.388000L406.867859,1010.833130L402.514435,1011.133362L398.303070,1012.277161L394.395935,1014.220520L390.942902,1016.888794L388.076843,1020.179504L385.907806,1023.966003L384.519165,1028.103027L383.964294,1032.431519L384.264465,1036.785034z" fill="#110100" stroke="none" fill-opacity="0.69272387" />
				<path d="M437.151459,1030.041992L438.410980,1034.679321L440.550964,1038.981812L443.489227,1042.784180L447.112823,1045.940308L451.282562,1048.328857L455.838165,1049.858032L460.604523,1050.468994L465.398438,1050.138428L470.035797,1048.878906L474.338318,1046.738892L478.140747,1043.800659L481.296875,1040.177002L483.685333,1036.007324L485.214508,1031.451782L485.825531,1026.685425L485.494873,1021.891418L485.168884,1020.586426L483.914703,1015.968811L481.783813,1011.684692L478.858154,1007.898499L475.250000,1004.755859L471.098053,1002.377563L466.561920,1000.854919L461.815857,1000.246521L457.042358,1000.575684L452.424805,1001.829834L448.140656,1003.960693L444.354431,1006.886414L441.211823,1010.494629L438.833496,1014.646545L437.310852,1019.182678L436.702484,1023.928711L437.031616,1028.702148z" fill="#110100" stroke="none" fill-opacity="0.766459584" />
				<path d="M251.354431,1101.450073L252.458054,1105.512329L254.333054,1109.281372L256.907349,1112.612183L260.081909,1115.376709L263.734894,1117.468872L267.725769,1118.808105L271.901276,1119.343018L276.100922,1119.053101L280.163086,1117.949463L283.932281,1116.074463L287.262909,1113.500244L290.027435,1110.325684L292.119659,1106.672729L293.458801,1102.681885L293.993866,1098.506348L293.703918,1094.306763L293.401184,1092.997803L292.301758,1088.950684L290.433716,1085.195923L287.869110,1081.877686L284.706421,1079.123535L281.067291,1077.039185L277.091461,1075.705078L272.931763,1075.172119L268.747833,1075.460938L264.700775,1076.560547L260.945953,1078.428467L257.627808,1080.993042L254.873596,1084.155640L252.789291,1087.794922L251.455139,1091.770630L250.922195,1095.930420L251.211044,1100.114258z" fill="#110100" stroke="none" fill-opacity="0.877107382" />
				<path d="M305.576324,1093.120483L306.755615,1097.462280L308.759125,1101.490723L311.510193,1105.050659L314.902985,1108.005615L318.806854,1110.241943L323.072113,1111.673706L327.534668,1112.245850L332.023224,1111.936279L336.365021,1110.757080L340.393372,1108.753418L343.953430,1106.002441L346.908386,1102.609619L349.144714,1098.705688L350.576416,1094.440430L351.148499,1089.977905L350.838959,1085.489380L350.533295,1084.180908L349.358368,1079.854980L347.362152,1075.841309L344.621155,1072.294312L341.240906,1069.350098L337.351196,1067.121948L333.101349,1065.695557L328.655151,1065.125488L324.183014,1065.433960L319.857178,1066.608887L315.843414,1068.605225L312.296448,1071.346069L309.352356,1074.726440L307.124146,1078.616089L305.697601,1082.865845L305.127625,1087.312134L305.436127,1091.784180z" fill="#110100" stroke="none" fill-opacity="0.855259776" />
				<path d="M358.894806,1084.944824L360.155579,1089.587158L362.297913,1093.894409L365.239410,1097.700928L368.866943,1100.860352L373.041168,1103.251465L377.601654,1104.782349L382.373138,1105.394043L387.172363,1105.063110L391.814697,1103.802246L396.121887,1101.659912L399.928406,1098.718506L403.087921,1095.090942L405.479004,1090.916748L407.009827,1086.356079L407.621460,1081.584717L407.290558,1076.785522L406.989288,1075.476318L405.732483,1070.848999L403.597107,1066.555664L400.665192,1062.761475L397.049408,1059.612183L392.888672,1057.228882L388.342957,1055.703003L383.586914,1055.093384L378.803284,1055.423218L374.175903,1056.679932L369.882599,1058.815308L366.088409,1061.747314L362.939209,1065.363037L360.555817,1069.523804L359.029968,1074.069580L358.420258,1078.825562L358.750122,1083.609253z" fill="#110100" stroke="none" fill-opacity="0.861935318" />
				<path d="M413.333710,1076.854370L414.682556,1081.819214L416.974243,1086.425659L420.120453,1090.496582L424.000366,1093.875366L428.464905,1096.432251L433.342560,1098.069092L438.445770,1098.722900L443.578522,1098.368530L448.543488,1097.019653L453.149811,1094.728027L457.220734,1091.581787L460.599487,1087.701904L463.156403,1083.237305L464.793274,1078.359619L465.447083,1073.256470L465.092712,1068.123779L464.801697,1066.812866L463.456390,1061.860962L461.170776,1057.266724L458.032776,1053.206543L454.163086,1049.836548L449.710175,1047.286377L444.845428,1045.653809L439.755615,1045.001709L434.636353,1045.355225L429.684448,1046.700562L425.090179,1048.986084L421.030060,1052.124023L417.660095,1055.993774L415.109833,1060.446655L413.477295,1065.311401L412.825226,1070.401245L413.178650,1075.520386z" fill="#110100" stroke="none" fill-opacity="0.895807385" />
				<path d="M229.109985,1148.570679L230.275269,1152.861084L232.255173,1156.841919L234.973709,1160.359741L238.326263,1163.279785L242.184052,1165.489502L246.398804,1166.904297L250.808731,1167.469604L255.244049,1167.163696L259.534546,1165.998413L263.515289,1164.018433L267.033203,1161.299927L269.953156,1157.947388L272.163116,1154.089600L273.577667,1149.874756L274.143005,1145.464966L273.837036,1141.029541L273.569397,1139.714722L272.406403,1135.432861L270.430481,1131.460083L267.717438,1127.949219L264.371582,1125.035156L260.521515,1122.829712L256.314972,1121.417847L251.914001,1120.853638L247.487488,1121.158936L243.205734,1122.321899L239.232849,1124.297974L235.722153,1127.010864L232.807907,1130.356812L230.602585,1134.206909L229.190613,1138.413330L228.626465,1142.814331L228.931747,1147.240723z" fill="#110100" stroke="none" fill-opacity="0.984302223" />
				<path d="M284.320496,1141.709961L285.565796,1146.293701L287.681427,1150.546509L290.586151,1154.304810L294.168274,1157.424194L298.290100,1159.784912L302.793213,1161.296021L307.504761,1161.899658L312.243347,1161.572510L316.827118,1160.327148L321.079956,1158.211426L324.838226,1155.306763L327.957703,1151.724731L330.318329,1147.602905L331.829498,1143.099731L332.433075,1138.388306L332.105927,1133.649658L331.839996,1132.334473L330.596832,1127.758911L328.484955,1123.513794L325.585541,1119.762207L322.009918,1116.648438L317.895416,1114.291992L313.400330,1112.783569L308.697540,1112.181030L303.967285,1112.507568L299.391693,1113.750732L295.146637,1115.862549L291.395020,1118.762085L288.281250,1122.337646L285.924744,1126.452026L284.416290,1130.947144L283.813751,1135.650146L284.140381,1140.380249z" fill="#110100" stroke="none" fill-opacity="0.975266576" />
				<path d="M391.982635,1125.186157L393.379242,1130.326538L395.751740,1135.095825L399.009216,1139.310425L403.026337,1142.808716L407.648712,1145.456055L412.698669,1147.150635L417.982239,1147.827637L423.296417,1147.460693L428.436890,1146.064209L433.206055,1143.691528L437.420715,1140.434082L440.918945,1136.416992L443.566254,1131.794678L445.260956,1126.744629L445.937897,1121.461060L445.570984,1116.146973L445.309204,1114.831177L443.914673,1109.698120L441.545502,1104.935791L438.292847,1100.727295L434.281525,1097.234009L429.665863,1094.590576L424.623138,1092.898315L419.347229,1092.222412L414.040802,1092.588745L408.907776,1093.983276L404.145416,1096.352417L399.936859,1099.605103L396.443665,1103.616455L393.800140,1108.232056L392.107880,1113.274780L391.432007,1118.550659L391.798340,1123.857178z" fill="#110100" stroke="none" fill-opacity="0.978954434" />
				<path d="M446.634064,1117.056641L448.106995,1122.478882L450.609406,1127.509644L454.045227,1131.955566L458.282379,1135.645752L463.158020,1138.438354L468.484802,1140.226074L474.058075,1140.940430L479.663513,1140.553589L485.085754,1139.080688L490.116577,1136.578247L494.562378,1133.142456L498.252625,1128.905273L501.045227,1124.029663L502.833069,1118.702759L503.547241,1113.129639L503.160461,1107.524170L502.898499,1106.208496L501.427612,1100.793701L498.928558,1095.769775L495.497467,1091.330078L491.266296,1087.644897L486.397247,1084.856201L481.077942,1083.070801L475.512329,1082.357544L469.914642,1082.743896L464.499847,1084.214722L459.476013,1086.713745L455.036285,1090.144775L451.351196,1094.376099L448.562408,1099.244995L446.777069,1104.564453L446.063812,1110.130005L446.450043,1115.727661z" fill="#110100" stroke="none" fill-opacity="0.990393162" />
			</g>
		</g>
	</g>
</svg>
