<?xml version="1.0" encoding="UTF-8"?>
<!-- Generator: Blender, SVG Export for Grease Pencil - v2.0 -->
<!DOCTYPE svg PUBLIC "-//W3C//DTD SVG 1.1//EN" "http://www.w3.org/Graphics/SVG/1.1/DTD/svg11.dtd">
<svg version="1.1" x="0px" y="0px" xmlns="http://www.w3.org/2000/svg" width="1920.000000px" height="1080.000000px" viewBox="0 0 1920.000000 1080.000000">
	<g id="blender_frame.2">
		<g id="blender_object.Stroke.001.2.uuid_0x0">
			<g id="layer.chair.uuid_0x1">
				<polyline points="488.304260,974.238281 487.660950,974.238281" fill="#FEF1B5" stroke="none" fill-opacity="1" />
				<path d="M488.304260,981.550903L489.730896,981.410400L491.102692,980.994263L492.366974,980.318481L493.475037,979.409058L494.384583,978.300964L495.060333,977.036682L495.476410,975.664856L495.616974,974.238281L495.476410,972.811646L495.060333,971.439819L494.384583,970.175598L493.475037,969.067505L492.366974,968.158081L491.102692,967.482300L489.730896,967.066162L488.304260,966.925659L487.660950,966.925659L486.234375,967.066162L484.862579,967.482300L483.598267,968.158081L482.490173,969.067505L481.580719,970.175598L480.904968,971.439819L480.488831,972.811646L480.348328,974.238281L480.488831,975.664856L480.904968,977.036682L481.580719,978.300964L482.490173,979.409058L483.598267,980.318481L484.862579,980.994263L486.234375,981.410339L487.660950,981.550903z" fill="#FEF0B5" stroke="none" fill-opacity="1" />
				<polyline points="554.933289,926.422485 554.289856,926.422485" fill="#FEF1B5" stroke="none" fill-opacity="1" />
				<path d="M554.933289,933.735107L556.359924,933.594666L557.731689,933.178467L558.995911,932.502747L560.104065,931.593262L561.013489,930.485168L561.689270,929.220947L562.105347,927.849121L562.245911,926.422485L562.105347,924.995850L561.689270,923.624023L561.013489,922.359863L560.104065,921.251709L558.995911,920.342285L557.731689,919.666504L556.359924,919.250427L554.933289,919.109863L554.289856,919.109863L552.863281,919.250366L551.491455,919.666504L550.227234,920.342285L549.119080,921.251709L548.209656,922.359863L547.533875,923.624023L547.117737,924.995850L546.977234,926.422485L547.117737,927.849121L547.533875,929.220947L548.209656,930.485168L549.119080,931.593262L550.227234,932.502747L551.491455,933.178467L552.863281,933.594604L554.289856,933.735107z" fill="#FEF0B5" stroke="none" fill-opacity="1" />
				<polyline points="570.610657,880.174438 569.967285,880.174438" fill="#FEF1B5" stroke="none" fill-opacity="1" />
				<path d="M570.610657,887.487061L572.037231,887.346558L573.409058,886.930420L574.673279,886.254639L575.781494,885.345215L576.690857,884.237122L577.366638,882.972900L577.782776,881.601074L577.923279,880.174438L577.782776,878.747803L577.366638,877.376038L576.690857,876.111816L575.781494,875.003662L574.673279,874.094238L573.409058,873.418457L572.037231,873.002319L570.610657,872.861816L569.967285,872.861816L568.540710,873.002319L567.168884,873.418457L565.904602,874.094238L564.796509,875.003662L563.887146,876.111816L563.211365,877.376038L562.795166,878.747803L562.654663,880.174438L562.795166,881.601074L563.211365,882.972900L563.887146,884.237122L564.796509,885.345215L565.904602,886.254639L567.168884,886.930420L568.540710,887.346558L569.967285,887.487061z" fill="#FEF0B5" stroke="none" fill-opacity="1" />
				<polyline points="555.717163,828.439392 555.073792,828.439392" fill="#FEF1B5" stroke="none" fill-opacity="1" />
				<path d="M555.717163,835.751953L557.143799,835.611450L558.515625,835.195312L559.779846,834.519531L560.888000,833.610168L561.797363,832.502014L562.473083,831.237793L562.889221,829.865967L563.029724,828.439392L562.889221,827.012756L562.473083,825.640930L561.797363,824.376709L560.888000,823.268555L559.779846,822.359131L558.515625,821.683350L557.143799,821.267334L555.717163,821.126709L555.073792,821.126709L553.647156,821.267212L552.275391,821.683350L551.011047,822.359131L549.903015,823.268555L548.993530,824.376709L548.317749,825.640930L547.901672,827.012756L547.761108,828.439392L547.901672,829.865967L548.317749,831.237793L548.993530,832.502014L549.903015,833.610168L551.011047,834.519531L552.275391,835.195312L553.647156,835.611450L555.073792,835.751953z" fill="#FEF0B5" stroke="none" fill-opacity="1" />
				<polyline points="172.561508,809.939575 171.918076,809.939575" fill="#FEF1B5" stroke="none" fill-opacity="1" />
				<path d="M172.561508,817.252136L173.988068,817.111694L175.359924,816.695557L176.624146,816.019775L177.732224,815.110352L178.641693,814.002197L179.317474,812.738037L179.733627,811.366211L179.874176,809.939575L179.733627,808.512939L179.317474,807.141113L178.641693,805.876892L177.732224,804.768738L176.624146,803.859375L175.359924,803.183533L173.988068,802.767456L172.561508,802.626953L171.918076,802.626953L170.491501,802.767395L169.119751,803.183533L167.855469,803.859375L166.747345,804.768738L165.837875,805.876892L165.162170,807.141113L164.746002,808.512939L164.605515,809.939575L164.746002,811.366211L165.162170,812.738037L165.837875,814.002197L166.747345,815.110352L167.855469,816.019775L169.119751,816.695557L170.491501,817.111633L171.918076,817.252136z" fill="#FEF0B5" stroke="none" fill-opacity="1" />
				<polygon points="938.428467,398.972900 909.769958,396.836609 907.972046,446.306885 939.147461,443.197937 988.533081,439.792969 1002.301758,486.408081 1025.672729,483.425964 1026.075073,348.106934 997.458923,348.572144 987.771973,392.966370 964.401001,395.948547" fill="#C47F2A" stroke="none" fill-opacity="1" />
				<path d="M938.037659,404.215759L939.067993,404.191284L940.073730,403.966248L941.016296,403.549316L941.859375,402.956604L942.570618,402.210632L943.122681,401.340332L943.494324,400.379089L943.671326,399.363708L943.646790,398.333374L943.421875,397.327576L943.004822,396.385071L942.412048,395.541931L941.666199,394.830750L940.795898,394.278687L939.834656,393.906982L938.819214,393.730042L910.160767,391.593750L908.956116,391.642639L907.794189,391.964600L906.736267,392.542908L905.837769,393.346985L905.146179,394.334595L904.697754,395.453796L904.516052,396.645691L902.718079,446.115967L902.796753,447.232605L903.109985,448.307190L903.643677,449.291138L904.373596,450.139893L905.266541,450.814819L906.282227,451.285339L907.374390,451.530273L908.493713,451.538452L939.589172,448.437378L984.685974,445.328125L997.259644,487.897339L997.745239,489.030762L998.481506,490.020020L999.427856,490.810486L1000.532288,491.358704L1001.734192,491.634705L1002.967102,491.623230L1026.338135,488.641113L1027.559448,488.333191L1028.672485,487.743530L1029.613403,486.906128L1030.328003,485.869019L1030.775513,484.691650L1030.930054,483.441589L1031.332520,348.122559L1031.201050,346.938171L1030.806152,345.813904L1030.168213,344.807373L1029.320068,343.970398L1028.305054,343.345886L1027.175659,342.966003L1025.989624,342.850220L997.373413,343.315430L996.211426,343.464844L995.111572,343.867798L994.128052,344.504395L993.310120,345.342957L992.698059,346.341797L992.322327,347.451355L983.426392,388.220886L963.764221,390.729675L937.820374,393.750793L936.813232,393.969788L935.868225,394.380981L935.021606,394.968689L934.305847,395.710266L933.748596,396.577271L933.371155,397.536316L933.187988,398.550476L933.206360,399.580994L933.425293,400.588135L933.836609,401.533142L934.424316,402.379761L935.165833,403.095459L936.032837,403.652771L936.991882,404.030273L938.006042,404.213318L939.036560,404.195007L965.009094,401.170654L988.437378,398.181519L989.686462,397.862854L990.820374,397.249756L991.771057,396.379211L992.481384,395.303467L992.908447,394.087280L1001.707764,353.761169L1020.801758,353.450745L1020.429016,478.794983L1006.076050,480.626404L993.575134,438.303650L993.114746,437.214478L992.422607,436.255615L991.533630,435.475830L990.492737,434.914429L989.352844,434.599854L988.171448,434.547974L938.785767,437.953064L913.444824,440.477661L914.825623,402.485535z" fill="#621908" stroke="none" fill-opacity="1" />
				<polyline points="535.948547,1145.952881 548.957642,864.087463 489.547089,860.618347 500.388092,1144.651855" fill="#C47F2A" stroke="none" fill-opacity="1" />
				<path d="M530.696777,1145.710449L530.750305,1146.739746L531.003784,1147.738770L531.447144,1148.669067L532.063538,1149.495117L532.829285,1150.185059L533.714844,1150.712158L534.686279,1151.056519L535.706177,1151.204712L536.735474,1151.151123L537.734375,1150.897705L538.664795,1150.454224L539.490784,1149.837891L540.180603,1149.072144L540.707886,1148.186646L541.052185,1147.215210L541.200378,1146.195312L554.209534,864.329834L554.133362,863.164124L553.801819,862.044006L553.230957,861.024780L552.449158,860.156738L551.494995,859.482788L550.415588,859.036194L549.264099,858.838989L489.853577,855.369873L488.760986,855.420044L487.702576,855.695190L486.723785,856.183350L485.867249,856.863464L485.170013,857.706116L484.662201,858.674805L484.365784,859.727539L484.293610,860.818848L495.134521,1144.852417L495.274597,1145.873535L495.611176,1146.847656L496.131317,1147.737427L496.815033,1148.508545L497.636139,1149.131592L498.562866,1149.582275L499.559875,1149.843750L500.588654,1149.905518L501.609772,1149.765381L502.583862,1149.428833L503.473602,1148.908691L504.244751,1148.224976L504.867737,1147.403931L505.318542,1146.477173L505.579834,1145.480225L505.641724,1144.451416L495.021637,866.204346L543.466431,869.033142z" fill="#621908" stroke="none" fill-opacity="1" />
				<polyline points="940.600464,445.830078 947.034424,839.370178 91.036888,831.564758 96.240524,438.690186 124.860474,441.291992 127.462349,391.857361 96.240524,394.459229 46.805992,397.061035 33.796921,350.228271 10.380535,352.830078 7.778664,488.124695 36.398735,488.124695 46.805935,443.893799 70.222313,441.291992 41.602249,870.592041 999.070801,875.795654 968.716248,443.893738" fill="#C47F2A" stroke="none" fill-opacity="1" />
				<path d="M945.857178,445.744141L945.739441,444.720276L945.424133,443.739075L944.923523,442.838135L944.256775,442.052307L943.449524,441.411621L942.532776,440.940613L941.541748,440.657654L940.514526,440.573364L939.490723,440.691162L938.509460,441.006409L937.608582,441.507080L936.822693,442.173828L936.181946,442.981079L935.711060,443.897827L935.428040,444.888916L935.343811,445.916016L941.689575,834.063843L96.363770,826.355652L101.422287,444.440369L124.384575,446.527832L125.589928,446.498535L126.756821,446.195496L127.824097,445.634460L128.735443,444.845154L129.443085,443.868896L129.909607,442.757141L130.110626,441.568298L132.712494,392.133728L132.651962,391.016052L132.356232,389.936462L131.838623,388.943909L131.122620,388.083496L130.240738,387.394165L129.232925,386.907104L128.144821,386.644470L127.025757,386.618225L95.883980,389.213318L50.742531,391.589233L38.862476,348.821167L38.395443,347.679932L37.675381,346.679016L36.742001,345.873169L35.646572,345.307068L34.449406,345.011597L33.216362,345.003052L9.799976,347.604858L8.573742,347.892883L7.451305,348.464294L6.496925,349.286377L5.765591,350.311768L5.298958,351.481689L5.124092,352.729004L2.522220,488.023621L2.634487,489.209961L3.011055,490.340576L3.632526,491.357239L4.466915,492.207947L5.471535,492.848816L6.594657,493.247070L7.778664,493.382141L36.398735,493.382141L37.562828,493.251648L38.669243,492.866516L39.662819,492.246094L40.494404,491.420959L41.122742,490.432190L41.516361,489.328857L51.073780,448.709351L64.558525,447.210999L36.356506,870.242310L36.417561,871.463684L36.759281,872.637939L37.362900,873.701416L38.195972,874.596680L39.213238,875.275269L40.359821,875.700562L41.573639,875.849365L999.042175,881.053040L1000.268188,880.914917L1001.428162,880.494995L1002.458374,879.816223L1003.302063,878.916077L1003.912781,877.844116L1004.256836,876.659424L1004.315308,875.427124L973.960754,443.525146L973.788025,442.509094L973.420471,441.546265L972.872131,440.673645L972.164001,439.924683L971.323486,439.328369L970.382629,438.907410L969.377808,438.678101L968.347595,438.649292L967.331665,438.821960L966.368774,439.189575L965.496155,439.737854L964.747192,440.445984L964.150879,441.286560L963.729980,442.227295L963.500610,443.232117L963.471802,444.262390L993.428711,870.507507L47.219810,865.365112L75.468063,441.641663L75.419083,440.496277L75.123024,439.388672L74.593956,438.371582L73.856964,437.493408L72.947159,436.795837L71.907745,436.312073L70.788170,436.065125L69.641762,436.066711L46.225376,438.668518L44.971329,438.966797L43.827492,439.561462L42.862816,440.416443L42.135086,441.480469L41.688194,442.689636L32.234741,482.867249L13.138103,482.867249L15.548229,357.545715L29.929218,355.947815L41.740437,398.468140L42.183037,399.564758L42.859612,400.534607L43.735828,401.328796L44.767342,401.907043L45.901909,402.240112L47.082310,402.311157L96.516838,399.709412L121.895485,397.596985L119.897400,435.561707L96.716484,433.454285L95.481888,433.487732L94.289185,433.808228L93.204178,434.398193L92.286583,435.224976L91.587410,436.243042L91.144867,437.396057L90.983498,438.620483L85.779930,831.495117L85.896889,832.669678L86.272881,833.788574L86.889153,834.795288L87.714386,835.639160L88.707161,836.277710L89.817291,836.678772L90.988998,836.821899L946.986572,844.627380L948.176270,844.502136L949.306885,844.111206L950.319824,843.474731L951.162659,842.625732L951.791748,841.608215L952.174500,840.474854L952.291138,839.284241z" fill="#621908" stroke="none" fill-opacity="1" />
				<polyline points="70.222313,441.291992 108.165428,441.291992" fill="#C47F2A" stroke="none" fill-opacity="1" />
				<path d="M70.222313,436.034607L69.196587,436.135559L68.210388,436.434753L67.301437,436.920593L66.504707,437.574463L65.850906,438.371094L65.365051,439.280090L65.065842,440.266235L64.964844,441.291992L65.065842,442.317627L65.365051,443.303894L65.850906,444.212830L66.504707,445.009521L67.301437,445.663330L68.210388,446.149170L69.196587,446.448364L70.222313,446.549377L108.165428,446.549377L109.191048,446.448364L110.177368,446.149170L111.086250,445.663330L111.882935,445.009521L112.536789,444.212830L113.022591,443.303894L113.321793,442.317627L113.422791,441.291992L113.321793,440.266235L113.022591,439.280090L112.536789,438.371094L111.882935,437.574463L111.086250,436.920593L110.177368,436.434753L109.191048,436.135559L108.165428,436.034607z" fill="#621908" stroke="none" fill-opacity="1" />
				<polygon points="124.860420,77.067566 323.253937,77.067566 521.647217,77.067566 720.040771,77.067566 918.434143,77.067566 918.434143,259.179871 918.434143,441.291992 918.434143,623.404053 918.434143,805.516357 720.040771,805.516357 521.647217,805.516357 323.253815,805.516357 124.860474,805.516357 124.860474,623.404053 124.860474,441.291992 124.860420,259.179871" fill="#C47F2A" stroke="none" fill-opacity="1" />
				<path d="M124.860420,71.810181L123.834740,71.911255L122.848488,72.210327L121.939484,72.696228L121.142807,73.350037L120.488953,74.146667L120.003151,75.055725L119.703941,76.041931L119.602943,77.067566L119.703941,78.093262L120.003151,79.079651L120.488953,79.988525L121.142807,80.785156L121.939484,81.439026L122.848488,81.924805L123.834740,82.224060L124.860420,82.324951L323.253937,82.324951L521.647217,82.324951L720.040771,82.324951L913.176758,82.324951L913.176758,259.179871L913.176758,441.291992L913.176758,623.404053L913.176758,800.258972L720.040771,800.258972L521.647217,800.258972L323.253815,800.258972L130.117889,800.258972L130.117889,623.404053L130.117889,441.291992L130.117844,259.179871L130.117844,77.067566L130.016785,76.041931L129.717682,75.055725L129.231827,74.146667L128.577972,73.350037L127.781235,72.696228L126.872345,72.210327L125.886040,71.911255L124.860420,71.810181L123.834740,71.911255L122.848488,72.210327L121.939484,72.696228L121.142807,73.350037L120.488953,74.146667L120.003151,75.055725L119.703941,76.041931L119.602943,77.067566L119.602943,259.179871L119.603058,441.291992L119.603058,623.404053L119.603058,805.516357L119.734840,806.686279L120.123711,807.797485L120.750046,808.794312L121.582550,809.626770L122.579437,810.253113L123.690552,810.641968L124.860474,810.773804L323.253815,810.773804L521.647217,810.773804L720.040771,810.773804L918.434143,810.773804L919.604065,810.641968L920.715271,810.253113L921.712097,809.626770L922.544617,808.794312L923.170959,807.797485L923.559753,806.686218L923.691589,805.516357L923.691589,623.404053L923.691589,441.291992L923.691589,259.179871L923.691589,77.067566L923.559753,75.897766L923.170959,74.786560L922.544617,73.789673L921.712097,72.957214L920.715271,72.330872L919.604065,71.942078L918.434143,71.810181L720.040771,71.810181L521.647217,71.810181L323.253937,71.810181z" fill="#621908" stroke="none" fill-opacity="1" />
				<polyline points="292.638245,84.387268 247.993683,90.366211 506.669647,795.234924 605.538696,795.234924" fill="#FEE870" stroke="none" fill-opacity="1" />
				<polyline points="428.483887,81.785461 361.885681,87.764343 747.764099,792.633057 895.251465,792.633057" fill="#FEE870" stroke="none" fill-opacity="1" />
				<polygon points="159.200302,108.589294 340.423920,108.589294 521.647217,108.589294 702.870850,108.589294 884.094299,108.589294 884.094299,274.940674 884.094299,441.291992 884.094299,607.643188 884.094299,773.994568 702.870850,773.994568 521.647217,773.994568 340.423767,773.994568 159.200363,773.994568 159.200363,607.643188 159.200363,441.291992 159.200302,274.940674" fill="#000000" stroke="none" fill-opacity="1" />
				<path d="M159.200302,104.363525L158.375809,104.444641L157.583084,104.685120L156.852493,105.075684L156.212082,105.601135L155.686508,106.241577L155.295990,106.972168L155.055542,107.764954L154.974335,108.589294L155.055542,109.413818L155.295990,110.206604L155.686508,110.937195L156.212082,111.577576L156.852493,112.103027L157.583084,112.493591L158.375809,112.734070L159.200302,112.815247L340.423920,112.815247L521.647217,112.815247L702.870850,112.815247L879.868286,112.815247L879.868286,274.940674L879.868286,441.291992L879.868286,607.643188L879.868286,769.768616L702.870850,769.768616L521.647217,769.768616L340.423767,769.768616L163.426315,769.768616L163.426315,607.643188L163.426315,441.291992L163.426208,274.940674L163.426208,108.589294L163.345001,107.764954L163.104507,106.972168L162.713974,106.241577L162.188416,105.601135L161.548004,105.075623L160.817398,104.685120L160.024673,104.444641L159.200302,104.363403L158.375809,104.444641L157.583084,104.685120L156.852493,105.075623L156.212082,105.601135L155.686508,106.241577L155.295990,106.972168L155.055542,107.764954L154.974289,108.589294L154.974335,274.940674L154.974396,441.291992L154.974396,607.643188L154.974396,773.994568L155.080322,774.934937L155.392914,775.828186L155.896332,776.629395L156.565475,777.298584L157.366730,777.802063L158.259995,778.114624L159.200363,778.220520L340.423767,778.220459L521.647217,778.220459L702.870850,778.220459L884.094299,778.220459L885.034668,778.114502L885.927856,777.802002L886.729126,777.298523L887.398315,776.629395L887.901794,775.828125L888.214294,774.934937L888.320190,773.994568L888.320251,607.643188L888.320251,441.291992L888.320251,274.940674L888.320251,108.589294L888.214294,107.648987L887.901794,106.755676L887.398315,105.954529L886.729126,105.285339L885.927856,104.781921L885.034668,104.469360L884.094299,104.363403L702.870850,104.363403L521.647217,104.363403L340.423920,104.363525z" fill="#130C05" stroke="none" fill-opacity="1" />
				<polyline points="58.819027,417.826599 58.819027,402.769836 109.893494,402.769836 109.893494,417.826599" fill="#FEE870" stroke="none" fill-opacity="1" />
				<polyline points="927.593750,413.309570 927.593750,398.252808 978.668274,398.252808 978.668274,413.309570" fill="#FEE870" stroke="none" fill-opacity="1" />
				<polyline points="927.593750,413.309570 927.593750,398.252808 978.668274,398.252808 978.668274,413.309570" fill="#FEE870" stroke="none" fill-opacity="1" />
				<polyline points="172.561508,833.455750 171.918076,833.455750" fill="#FEF1B5" stroke="none" fill-opacity="1" />
				<path d="M172.561508,840.768372L173.988068,840.627869L175.359924,840.211731L176.624146,839.535950L177.732224,838.626587L178.641693,837.518433L179.317474,836.254150L179.733627,834.882324L179.874176,833.455750L179.733627,832.029114L179.317474,830.657288L178.641693,829.393066L177.732224,828.284973L176.624146,827.375549L175.359924,826.699768L173.988068,826.283691L172.561508,826.143127L171.918076,826.143127L170.491501,826.283630L169.119751,826.699768L167.855469,827.375549L166.747345,828.284973L165.837875,829.393066L165.162170,830.657288L164.746002,832.029114L164.605515,833.455750L164.746002,834.882324L165.162170,836.254150L165.837875,837.518433L166.747345,838.626587L167.855469,839.535950L169.119751,840.211731L170.491501,840.627869L171.918076,840.768372z" fill="#FEF0B5" stroke="none" fill-opacity="1" />
				<polyline points="176.324081,855.090820 175.680695,855.090820" fill="#FEF1B5" stroke="none" fill-opacity="1" />
				<path d="M176.324081,862.403442L177.750732,862.262878L179.122467,861.846741L180.386749,861.171021L181.494888,860.261597L182.404343,859.153442L183.080048,857.889160L183.496216,856.517395L183.636703,855.090820L183.496216,853.664124L183.080048,852.292358L182.404343,851.028076L181.494888,849.919983L180.386749,849.010559L179.122467,848.334839L177.750732,847.918701L176.324081,847.778137L175.680695,847.778137L174.254150,847.918640L172.882294,848.334839L171.618057,849.010559L170.509979,849.919983L169.600525,851.028076L168.924744,852.292358L168.508636,853.664124L168.368057,855.090820L168.508636,856.517395L168.924744,857.889160L169.600525,859.153442L170.509979,860.261597L171.618057,861.171021L172.882294,861.846741L174.254150,862.262878L175.680695,862.403442z" fill="#FEF0B5" stroke="none" fill-opacity="1" />
				<polyline points="182.908569,884.250916 182.265244,884.250916" fill="#FEF1B5" stroke="none" fill-opacity="1" />
				<path d="M182.908569,891.563538L184.335129,891.422974L185.706985,891.006897L186.971283,890.331116L188.079346,889.421753L188.988861,888.313599L189.664597,887.049316L190.080750,885.677490L190.221237,884.250916L190.080750,882.824280L189.664597,881.452454L188.988861,880.188232L188.079346,879.080078L186.971283,878.170715L185.706985,877.494995L184.335129,877.078857L182.908569,876.938293L182.265244,876.938293L180.838669,877.078857L179.466827,877.494995L178.202530,878.170715L177.094467,879.080078L176.184982,880.188232L175.509216,881.452454L175.093063,882.824280L174.952576,884.250916L175.093063,885.677490L175.509216,887.049316L176.184982,888.313599L177.094467,889.421753L178.202530,890.331116L179.466827,891.006897L180.838669,891.422974L182.265244,891.563538z" fill="#FEF0B5" stroke="none" fill-opacity="1" />
				<polyline points="199.840210,918.114380 199.196823,918.114380" fill="#FEF1B5" stroke="none" fill-opacity="1" />
				<path d="M199.840210,925.426941L201.266830,925.286438L202.638580,924.870300L203.902863,924.194580L205.011002,923.285156L205.920471,922.177002L206.596176,920.912781L207.012344,919.540955L207.152817,918.114380L207.012344,916.687744L206.596176,915.315918L205.920471,914.051697L205.011002,912.943542L203.902863,912.034119L202.638580,911.358337L201.266830,910.942261L199.840210,910.801697L199.196823,910.801697L197.770279,910.942200L196.398407,911.358337L195.134186,912.034119L194.026047,912.943542L193.116638,914.051697L192.440857,915.315918L192.024704,916.687744L191.884186,918.114380L192.024704,919.540955L192.440857,920.912781L193.116638,922.177002L194.026047,923.285156L195.134186,924.194580L196.398407,924.870300L197.770279,925.286438L199.196823,925.426941z" fill="#FEF0B5" stroke="none" fill-opacity="1" />
				<polyline points="224.296982,942.571228 223.653534,942.571228" fill="#FEF1B5" stroke="none" fill-opacity="1" />
				<path d="M224.296982,949.883789L225.723557,949.743347L227.095398,949.327209L228.359634,948.651428L229.467697,947.742065L230.377182,946.633911L231.052948,945.369690L231.469040,943.997864L231.609589,942.571228L231.469040,941.144592L231.052948,939.772766L230.377182,938.508545L229.467697,937.400391L228.359634,936.490967L227.095398,935.815308L225.723557,935.399109L224.296982,935.258606L223.653534,935.258606L222.226974,935.399109L220.855240,935.815308L219.590958,936.490967L218.482819,937.400391L217.573364,938.508545L216.897629,939.772766L216.481476,941.144592L216.340988,942.571228L216.481476,943.997864L216.897629,945.369690L217.573364,946.633911L218.482819,947.742065L219.590958,948.651428L220.855240,949.327209L222.226974,949.743347L223.653534,949.883789z" fill="#FEF0B5" stroke="none" fill-opacity="1" />
				<polyline points="256.278870,960.443604 255.635483,960.443604" fill="#FEF1B5" stroke="none" fill-opacity="1" />
				<path d="M256.278870,967.756226L257.705414,967.615723L259.077301,967.199585L260.341583,966.523804L261.449646,965.614380L262.359131,964.506226L263.034912,963.242004L263.450928,961.870178L263.591492,960.443604L263.450928,959.016968L263.034912,957.645142L262.359131,956.380981L261.449646,955.272766L260.341583,954.363403L259.077301,953.687622L257.705414,953.271484L256.278870,953.130981L255.635483,953.130981L254.208862,953.271484L252.837128,953.687622L251.572876,954.363403L250.464706,955.272766L249.555237,956.380981L248.879578,957.645142L248.463425,959.016968L248.322876,960.443604L248.463425,961.870178L248.879578,963.242004L249.555237,964.506226L250.464706,965.614380L251.572876,966.523804L252.837128,967.199585L254.208862,967.615723L255.635483,967.756226z" fill="#FEF0B5" stroke="none" fill-opacity="1" />
				<polyline points="288.260834,968.909424 287.617371,968.909424" fill="#FEF1B5" stroke="none" fill-opacity="1" />
				<path d="M288.260834,976.222046L289.687378,976.081543L291.059235,975.665405L292.323456,974.989624L293.431549,974.080200L294.341003,972.972107L295.016785,971.707886L295.432892,970.336060L295.573364,968.909424L295.432892,967.482849L295.016785,966.111023L294.341003,964.846741L293.431549,963.738647L292.323456,962.829224L291.059235,962.153503L289.687378,961.737305L288.260834,961.596802L287.617371,961.596802L286.190826,961.737305L284.819061,962.153503L283.554779,962.829224L282.446655,963.738647L281.537170,964.846741L280.861481,966.111023L280.445312,967.482849L280.304840,968.909424L280.445312,970.336060L280.861481,971.707886L281.537170,972.972107L282.446655,974.080200L283.554779,974.989624L284.819061,975.665405L286.190826,976.081543L287.617371,976.222046z" fill="#FEF0B5" stroke="none" fill-opacity="1" />
				<polyline points="324.005280,970.790710 323.361908,970.790710" fill="#FEF1B5" stroke="none" fill-opacity="1" />
				<path d="M324.005280,978.103333L325.431915,977.962830L326.803711,977.546692L328.067932,976.870911L329.176086,975.961548L330.085541,974.853394L330.761261,973.589172L331.177429,972.217346L331.317902,970.790710L331.177429,969.364136L330.761261,967.992310L330.085541,966.728027L329.176086,965.619934L328.067932,964.710510L326.803711,964.034729L325.431915,963.618652L324.005280,963.478088L323.361908,963.478088L321.935364,963.618591L320.563538,964.034729L319.299255,964.710510L318.191132,965.619934L317.281647,966.728027L316.605927,967.992310L316.189850,969.364136L316.049286,970.790710L316.189850,972.217346L316.605927,973.589172L317.281647,974.853394L318.191132,975.961548L319.299255,976.870911L320.563538,977.546692L321.935364,977.962830L323.361908,978.103333z" fill="#FEF0B5" stroke="none" fill-opacity="1" />
				<polyline points="358.809143,967.028137 358.165771,967.028137" fill="#FEF1B5" stroke="none" fill-opacity="1" />
				<path d="M358.809143,974.340759L360.235748,974.200195L361.607574,973.784058L362.871857,973.108337L363.979950,972.198914L364.889404,971.090820L365.565155,969.826538L365.981232,968.454712L366.121796,967.028137L365.981232,965.601501L365.565155,964.229675L364.889404,962.965454L363.979950,961.857300L362.871857,960.947937L361.607574,960.272217L360.235748,959.856018L358.809143,959.715515L358.165771,959.715515L356.739166,959.856018L355.367340,960.272217L354.103149,960.947937L352.994995,961.857300L352.085541,962.965454L351.409851,964.229675L350.993683,965.601501L350.853210,967.028137L350.993683,968.454712L351.409851,969.826538L352.085541,971.090820L352.994995,972.198914L354.103149,973.108337L355.367340,973.784058L356.739166,974.200195L358.165771,974.340759z" fill="#FEF0B5" stroke="none" fill-opacity="1" />
				<polyline points="387.968964,956.993225 387.325562,956.993225" fill="#FEF1B5" stroke="none" fill-opacity="1" />
				<path d="M387.968964,964.305847L389.395508,964.165344L390.767395,963.749146L392.031586,963.073486L393.139740,962.164062L394.049194,961.055908L394.724945,959.791687L395.141083,958.419861L395.281586,956.993225L395.141083,955.566589L394.724945,954.194824L394.049194,952.930542L393.139740,951.822388L392.031586,950.913025L390.767395,950.237305L389.395508,949.821167L387.968964,949.680664L387.325562,949.680664L385.899017,949.821167L384.527222,950.237305L383.262939,950.913025L382.154846,951.822388L381.245361,952.930542L380.569580,954.194824L380.153442,955.566589L380.012939,956.993225L380.153442,958.419861L380.569580,959.791687L381.245361,961.055908L382.154846,962.164062L383.262939,963.073486L384.527222,963.749146L385.899017,964.165344L387.325562,964.305847z" fill="#FEF0B5" stroke="none" fill-opacity="1" />
				<polyline points="412.268951,941.315918 411.625519,941.315918" fill="#FEF1B5" stroke="none" fill-opacity="1" />
				<path d="M412.268951,948.628540L413.695557,948.488037L415.067352,948.071899L416.331604,947.396118L417.439728,946.486694L418.349182,945.378601L419.024902,944.114319L419.441040,942.742493L419.581543,941.315918L419.441040,939.889282L419.024902,938.517456L418.349182,937.253235L417.439728,936.145142L416.331604,935.235718L415.067352,934.559937L413.695557,934.143860L412.268951,934.003296L411.625519,934.003296L410.199005,934.143799L408.827209,934.559937L407.562897,935.235718L406.454742,936.145142L405.545288,937.253235L404.869568,938.517456L404.453430,939.889282L404.312958,941.315918L404.453430,942.742493L404.869568,944.114319L405.545288,945.378601L406.454742,946.486694L407.562897,947.396118L408.827209,948.071899L410.199005,948.488037L411.625519,948.628540z" fill="#FEF0B5" stroke="none" fill-opacity="1" />
				<polyline points="435.001190,931.125671 434.357849,931.125671" fill="#FEF1B5" stroke="none" fill-opacity="1" />
				<path d="M435.001190,938.438293L436.427795,938.297791L437.799591,937.881653L439.063843,937.205933L440.171967,936.296509L441.081451,935.188354L441.757141,933.924133L442.173309,932.552307L442.313873,931.125671L442.173309,929.699036L441.757141,928.327209L441.081451,927.062988L440.171967,925.954834L439.063843,925.045532L437.799591,924.369690L436.427795,923.953552L435.001190,923.813110L434.357849,923.813110L432.931244,923.953552L431.559509,924.369690L430.295227,925.045532L429.187073,925.954834L428.277618,927.062988L427.601898,928.327209L427.185760,929.699036L427.045258,931.125671L427.185760,932.552307L427.601898,933.924133L428.277618,935.188354L429.187073,936.296509L430.295227,937.205933L431.559509,937.881653L432.931244,938.297791L434.357849,938.438293z" fill="#FEF0B5" stroke="none" fill-opacity="1" />
				<polyline points="456.165680,913.096802 455.522339,913.096802" fill="#FEF1B5" stroke="none" fill-opacity="1" />
				<path d="M456.165680,920.409424L457.592285,920.268921L458.964081,919.852783L460.228333,919.177002L461.336456,918.267578L462.245911,917.159424L462.921631,915.895264L463.337769,914.523438L463.478271,913.096802L463.337769,911.670166L462.921631,910.298340L462.245911,909.034119L461.336456,907.925964L460.228333,907.016602L458.964081,906.340820L457.592285,905.924683L456.165680,905.784180L455.522339,905.784180L454.095734,905.924683L452.723938,906.340820L451.459656,907.016602L450.351562,907.925964L449.442017,909.034119L448.766296,910.298340L448.350189,911.670166L448.209656,913.096802L448.350189,914.523438L448.766296,915.895264L449.442017,917.159424L450.351562,918.267578L451.459656,919.177002L452.723938,919.852783L454.095734,920.268921L455.522339,920.409424z" fill="#FEF0B5" stroke="none" fill-opacity="1" />
				<polyline points="477.330139,895.851685 476.686768,895.851685" fill="#FEF1B5" stroke="none" fill-opacity="1" />
				<path d="M477.330139,903.164368L478.756714,903.023865L480.128510,902.607727L481.392792,901.931946L482.500854,901.022522L483.410309,899.914429L484.086090,898.650146L484.502258,897.278320L484.642731,895.851685L484.502258,894.425110L484.086090,893.053284L483.410309,891.789062L482.500854,890.680908L481.392792,889.771545L480.128510,889.095764L478.756714,888.679626L477.330139,888.539124L476.686768,888.539124L475.260132,888.679626L473.888336,889.095764L472.624084,889.771545L471.515991,890.680908L470.606537,891.789062L469.930786,893.053284L469.514618,894.425110L469.374146,895.851685L469.514618,897.278320L469.930786,898.650146L470.606537,899.914429L471.515991,901.022522L472.624084,901.931946L473.888336,902.607727L475.260132,903.023865L476.686768,903.164368z" fill="#FEF0B5" stroke="none" fill-opacity="1" />
				<polyline points="498.494659,875.471252 497.851288,875.471252" fill="#FEF1B5" stroke="none" fill-opacity="1" />
				<path d="M498.494659,882.783875L499.921295,882.643372L501.293091,882.227173L502.557343,881.551514L503.665436,880.642090L504.574890,879.533936L505.250671,878.269653L505.666809,876.897888L505.807312,875.471252L505.666809,874.044678L505.250671,872.672852L504.574890,871.408569L503.665436,870.300476L502.557343,869.391052L501.293091,868.715271L499.921295,868.299133L498.494659,868.158630L497.851288,868.158630L496.424713,868.299133L495.052917,868.715271L493.788635,869.391052L492.680511,870.300476L491.771118,871.408569L491.095367,872.672852L490.679138,874.044678L490.538696,875.471252L490.679138,876.897888L491.095367,878.269653L491.771118,879.533936L492.680511,880.642090L493.788635,881.551514L495.052917,882.227173L496.424713,882.643311L497.851288,882.783875z" fill="#FEF0B5" stroke="none" fill-opacity="1" />
				<polyline points="514.172058,853.523071 513.528687,853.523071" fill="#FEF1B5" stroke="none" fill-opacity="1" />
				<path d="M514.172058,860.835693L515.598694,860.695129L516.970459,860.278992L518.234680,859.603271L519.342834,858.693848L520.252197,857.585693L520.927979,856.321472L521.344116,854.949646L521.484619,853.523071L521.344116,852.096436L520.927979,850.724609L520.252197,849.460388L519.342834,848.352234L518.234680,847.442810L516.970459,846.767090L515.598694,846.350952L514.172058,846.210449L513.528687,846.210449L512.102051,846.350891L510.730255,846.767090L509.466003,847.442810L508.357880,848.352234L507.448425,849.460388L506.772705,850.724609L506.356506,852.096436L506.216003,853.523071L506.356506,854.949646L506.772705,856.321472L507.448425,857.585693L508.357880,858.693848L509.466003,859.603271L510.730255,860.278992L512.102051,860.695129L513.528687,860.835693z" fill="#FEF0B5" stroke="none" fill-opacity="1" />
				<polyline points="526.713928,838.629639 526.070557,838.629639" fill="#FEF1B5" stroke="none" fill-opacity="1" />
				<path d="M526.713928,845.942261L528.140625,845.801758L529.512390,845.385620L530.776611,844.709839L531.884766,843.800415L532.794250,842.692261L533.469910,841.428101L533.886108,840.056274L534.026672,838.629639L533.886108,837.203003L533.469910,835.831177L532.794250,834.567017L531.884766,833.458862L530.776611,832.549438L529.512390,831.873657L528.140625,831.457520L526.713928,831.317017L526.070557,831.317017L524.643982,831.457520L523.272156,831.873657L522.007935,832.549438L520.899780,833.458862L519.990417,834.567017L519.314636,835.831177L518.898499,837.203003L518.757996,838.629639L518.898499,840.056274L519.314636,841.428101L519.990417,842.692261L520.899780,843.800415L522.007935,844.709839L523.272156,845.385620L524.643982,845.801697L526.070557,845.942261z" fill="#FEF0B5" stroke="none" fill-opacity="1" />
				<polyline points="539.255859,828.439392 538.612488,828.439392" fill="#FEF1B5" stroke="none" fill-opacity="1" />
				<path d="M539.255859,835.751953L540.682556,835.611450L542.054321,835.195312L543.318542,834.519531L544.426697,833.610168L545.336121,832.502014L546.011841,831.237793L546.428040,829.865967L546.568481,828.439392L546.428040,827.012756L546.011841,825.640930L545.336121,824.376709L544.426697,823.268555L543.318542,822.359131L542.054321,821.683350L540.682556,821.267334L539.255859,821.126709L538.612488,821.126709L537.185913,821.267212L535.814087,821.683350L534.549866,822.359131L533.441711,823.268555L532.532288,824.376709L531.856567,825.640930L531.440369,827.012756L531.299927,828.439392L531.440369,829.865967L531.856567,831.237793L532.532288,832.502014L533.441711,833.610168L534.549866,834.519531L535.814087,835.195312L537.185913,835.611450L538.612488,835.751953z" fill="#FEF0B5" stroke="none" fill-opacity="1" />
				<polyline points="565.907471,902.122681 565.264099,902.122681" fill="#FEF1B5" stroke="none" fill-opacity="1" />
				<path d="M565.907471,909.435303L567.334106,909.294800L568.705872,908.878662L569.970154,908.202881L571.078247,907.293518L571.987671,906.185303L572.663391,904.921143L573.079529,903.549316L573.220032,902.122681L573.079529,900.696045L572.663391,899.324280L571.987671,898.059998L571.078247,896.951843L569.970154,896.042480L568.705872,895.366699L567.334106,894.950562L565.907471,894.810059L565.264099,894.810059L563.837463,894.950562L562.465698,895.366699L561.201416,896.042480L560.093323,896.951843L559.183838,898.059998L558.508057,899.324280L558.091980,900.696045L557.951477,902.122681L558.091980,903.549316L558.508057,904.921143L559.183838,906.185303L560.093323,907.293518L561.201416,908.202881L562.465698,908.878662L563.837463,909.294800L565.264099,909.435303z" fill="#FEF0B5" stroke="none" fill-opacity="1" />
				<polyline points="482.033386,1000.889526 481.389984,1000.889526" fill="#FEF1B5" stroke="none" fill-opacity="1" />
				<path d="M482.033386,1008.202209L483.459991,1008.061707L484.831818,1007.645569L486.096008,1006.969788L487.204163,1006.060303L488.113617,1004.952209L488.789398,1003.687988L489.205505,1002.316162L489.346008,1000.889526L489.205505,999.463013L488.789398,998.091187L488.113617,996.826965L487.204163,995.718811L486.096008,994.809326L484.831818,994.133606L483.459991,993.717468L482.033386,993.576965L481.389984,993.576965L479.963409,993.717468L478.591614,994.133606L477.327332,994.809326L476.219269,995.718811L475.309784,996.826965L474.634003,998.091187L474.217865,999.463013L474.077362,1000.889526L474.217865,1002.316162L474.634003,1003.687988L475.309784,1004.952209L476.219269,1006.060303L477.327332,1006.969788L478.591614,1007.645569L479.963409,1008.061707L481.389984,1008.202209z" fill="#FEF0B5" stroke="none" fill-opacity="1" />
				<polyline points="478.114075,1021.270020 477.470673,1021.270020" fill="#FEF1B5" stroke="none" fill-opacity="1" />
				<path d="M478.114075,1028.582642L479.540619,1028.442139L480.912415,1028.026001L482.176697,1027.350220L483.284790,1026.440796L484.194244,1025.332642L484.869995,1024.068359L485.286194,1022.696594L485.426636,1021.270020L485.286194,1019.843384L484.869995,1018.471619L484.194244,1017.207336L483.284790,1016.099243L482.176697,1015.189758L480.912415,1014.514038L479.540619,1014.097900L478.114075,1013.957397L477.470673,1013.957397L476.044067,1014.097900L474.672241,1014.514038L473.408020,1015.189758L472.299896,1016.099243L471.390442,1017.207336L470.714691,1018.471619L470.298553,1019.843384L470.158051,1021.270020L470.298553,1022.696594L470.714691,1024.068359L471.390442,1025.332642L472.299896,1026.440796L473.408020,1027.350220L474.672241,1028.026001L476.044067,1028.442139L477.470673,1028.582642z" fill="#FEF0B5" stroke="none" fill-opacity="1" />
				<polyline points="482.817291,1040.082642 482.173859,1040.082642" fill="#FEF1B5" stroke="none" fill-opacity="1" />
				<path d="M482.817291,1047.395264L484.243866,1047.254761L485.615601,1046.838623L486.879974,1046.162842L487.988037,1045.253418L488.897491,1044.145264L489.573181,1042.880981L489.989410,1041.509277L490.129822,1040.082642L489.989410,1038.656006L489.573181,1037.284302L488.897491,1036.020020L487.988037,1034.911865L486.879974,1034.002441L485.615601,1033.326660L484.243866,1032.910522L482.817291,1032.770020L482.173859,1032.770020L480.747284,1032.910522L479.375488,1033.326660L478.111176,1034.002441L477.003082,1034.911865L476.093628,1036.020020L475.417877,1037.284302L475.001801,1038.656006L474.861237,1040.082642L475.001801,1041.509277L475.417877,1042.880981L476.093628,1044.145264L477.003082,1045.253418L478.111176,1046.162842L479.375488,1046.838623L480.747284,1047.254761L482.173859,1047.395264z" fill="#FEF0B5" stroke="none" fill-opacity="1" />
				<polyline points="498.494537,1053.408203 497.851166,1053.408203" fill="#FEF1B5" stroke="none" fill-opacity="1" />
				<path d="M498.494537,1060.720947L499.921204,1060.580444L501.292969,1060.164307L502.557220,1059.488525L503.665314,1058.579102L504.574829,1057.470947L505.250580,1056.206665L505.666687,1054.834839L505.807220,1053.408203L505.666687,1051.981689L505.250580,1050.609863L504.574829,1049.345581L503.665314,1048.237427L502.557220,1047.328003L501.292969,1046.652344L499.921204,1046.236084L498.494537,1046.095581L497.851166,1046.095581L496.424591,1046.236084L495.052795,1046.652344L493.788513,1047.328003L492.680389,1048.237427L491.770935,1049.345581L491.095245,1050.609863L490.679108,1051.981689L490.538574,1053.408203L490.679108,1054.834839L491.095245,1056.206665L491.770935,1057.470947L492.680389,1058.579102L493.788513,1059.488525L495.052795,1060.164307L496.424591,1060.580444L497.851166,1060.720947z" fill="#FEF0B5" stroke="none" fill-opacity="1" />
				<polyline points="525.146057,1061.246826 524.502625,1061.246826" fill="#FEF1B5" stroke="none" fill-opacity="1" />
				<path d="M525.146057,1068.559448L526.572693,1068.418945L527.944519,1068.002808L529.208679,1067.327148L530.316895,1066.417725L531.226257,1065.309570L531.902039,1064.045288L532.318176,1062.673462L532.458679,1061.246826L532.318176,1059.820312L531.902039,1058.448486L531.226257,1057.184204L530.316895,1056.076050L529.208679,1055.166626L527.944519,1054.490967L526.572693,1054.074707L525.146057,1053.934326L524.502625,1053.934326L523.076050,1054.074707L521.704224,1054.490967L520.439941,1055.166626L519.331909,1056.076050L518.422485,1057.184204L517.746704,1058.448486L517.330627,1059.820312L517.190063,1061.246826L517.330627,1062.673462L517.746704,1064.045288L518.422485,1065.309570L519.331909,1066.417725L520.439941,1067.327148L521.704224,1068.002808L523.076050,1068.418945L524.502625,1068.559448z" fill="#FEF0B5" stroke="none" fill-opacity="1" />
				<polyline points="550.229797,1073.788696 549.586365,1073.788696" fill="#FEF1B5" stroke="none" fill-opacity="1" />
				<path d="M550.229797,1081.101318L551.656433,1080.960815L553.028259,1080.544678L554.292480,1079.868896L555.400635,1078.959473L556.309998,1077.851318L556.985779,1076.587158L557.401855,1075.215332L557.542419,1073.788696L557.401855,1072.362061L556.985779,1070.990234L556.309998,1069.726074L555.400635,1068.617920L554.292480,1067.708496L553.028259,1067.032715L551.656433,1066.616577L550.229797,1066.476074L549.586365,1066.476074L548.159790,1066.616577L546.787964,1067.032715L545.523682,1067.708496L544.415649,1068.617920L543.506226,1069.726074L542.830505,1070.990234L542.414368,1072.362061L542.273865,1073.788696L542.414368,1075.215332L542.830505,1076.587158L543.506226,1077.851318L544.415649,1078.959473L545.523682,1079.868896L546.787964,1080.544678L548.159790,1080.960815L549.586365,1081.101318z" fill="#FEF0B5" stroke="none" fill-opacity="1" />
				<polyline points="568.258728,1083.194946 567.615356,1083.194946" fill="#FEF1B5" stroke="none" fill-opacity="1" />
				<path d="M568.258728,1090.507568L569.685303,1090.367065L571.057129,1089.950928L572.321350,1089.275269L573.429565,1088.365845L574.338867,1087.257690L575.014648,1085.993408L575.430786,1084.621582L575.571289,1083.194946L575.430786,1081.768433L575.014648,1080.396606L574.338867,1079.132324L573.429565,1078.024292L572.321350,1077.114746L571.057129,1076.439087L569.685303,1076.022827L568.258728,1075.882324L567.615356,1075.882324L566.188782,1076.022827L564.816956,1076.439087L563.552734,1077.114746L562.444580,1078.024292L561.535156,1079.132324L560.859375,1080.396606L560.443298,1081.768433L560.302734,1083.194946L560.443298,1084.621582L560.859375,1085.993408L561.535156,1087.257690L562.444580,1088.365845L563.552734,1089.275269L564.816956,1089.950928L566.188782,1090.367065L567.615356,1090.507568z" fill="#FEF0B5" stroke="none" fill-opacity="1" />
			</g>
			<g id="layer.Layer.uuid_0x2">
				<polygon points="320.933075,991.579956 284.856415,1098.068481 321.676178,1114.225220 365.994354,1092.117065 326.281799,993.376221" fill="#FEE870" stroke="none" fill-opacity="1" />
				<path d="M327.943268,993.954895L328.271881,992.541626L328.318512,991.091431L328.081268,989.659973L327.569366,988.302307L326.802399,987.070618L325.809906,986.012207L324.629974,985.167725L323.308014,984.569702L321.894775,984.241089L320.444458,984.194519L319.013092,984.431763L317.655426,984.943665L316.423706,985.710571L315.365295,986.703125L314.520874,987.882996L313.922882,989.204956L277.909119,1095.714966L277.569336,1097.229248L277.555908,1098.781372L277.869354,1100.301514L278.495667,1101.721680L279.406647,1102.978149L280.561768,1104.015015L281.909058,1104.785522L318.728821,1120.942261L320.787750,1121.506470L322.921875,1121.453979L324.950592,1120.789062L369.278564,1098.700684L370.595673,1097.858032L371.704956,1096.755981L372.556244,1095.444458L373.111176,1093.982666L373.344788,1092.436646L373.246246,1090.876221L372.820312,1089.371704L329.593109,992.044434L329.078156,991.158386L328.332642,990.455200L327.418030,989.992798L323.289398,984.563416L321.779144,984.226868L320.231873,984.211609L318.715210,984.518433L317.295502,985.133911L316.034821,986.031006L314.988098,987.170715L314.201324,988.503052L313.708710,989.969910L313.531830,991.507141L313.678436,993.047485L314.142029,994.523804L314.902557,995.871338L315.926514,997.031372L317.169403,997.953186L318.576660,998.596375L323.584900,996.235413L356.635193,1088.563965L321.476868,1106.127441L293.961395,1094.053589z" fill="#621A08" stroke="none" fill-opacity="1" />
				<polyline points="323.416718,991.230164 322.953735,1113.629639 366.843445,1091.033569" fill="#E5A943" stroke="none" fill-opacity="1" />
				<polyline points="310.030518,1028.880005 304.577576,1055.286987 326.018921,1110.376099" fill="#FEFEFE" stroke="none" fill-opacity="1" />
				<polyline points="316.773193,1008.901550 313.183258,1022.327515 323.640686,1055.856689" fill="#FEFEFE" stroke="none" fill-opacity="1" />
			</g>
		</g>
	</g>
</svg>
