<?xml version="1.0" encoding="UTF-8"?>
<!-- Generator: Blender, SVG Export for Grease Pencil - v2.0 -->
<!DOCTYPE svg PUBLIC "-//W3C//DTD SVG 1.1//EN" "http://www.w3.org/Graphics/SVG/1.1/DTD/svg11.dtd">
<svg version="1.1" x="0px" y="0px" xmlns="http://www.w3.org/2000/svg" width="1050.000000px" height="1080.000000px" viewBox="0 0 1050.000000 1080.000000">
	<g id="blender_frame.4">
		<g id="blender_object.Stroke.001.4.uuid_0x0">
			<g id="layer.chair.uuid_0x1">
				<polyline points="112.745987,583.205444 112.743874,583.875488" fill="#FEF1B5" stroke="none" fill-opacity="1" />
				<path d="M120.361343,583.229736L120.219666,581.743652L119.790970,580.313599L119.091454,578.994751L118.147995,577.837769L116.997070,576.887024L115.682716,576.179077L114.255463,575.741150L112.770302,575.590088L111.284126,575.731689L109.854012,576.160522L108.535194,576.859985L107.378365,577.803467L106.427422,578.954407L105.719543,580.268738L105.281639,581.696045L105.130638,583.181213L105.128517,583.851257L105.270073,585.337402L105.698769,586.767334L106.398407,588.086182L107.341866,589.243286L108.492790,590.193970L109.807037,590.901978L111.234283,591.339844L112.719498,591.490906L114.205734,591.349365L115.635742,590.920532L116.954552,590.220947L118.111557,589.277588L119.062325,588.126587L119.770317,586.812256L120.208168,585.385010L120.359169,583.899780z" fill="#FEF0B5" stroke="none" fill-opacity="1" />
				<polyline points="162.770737,513.982361 162.768616,514.652344" fill="#FEF1B5" stroke="none" fill-opacity="1" />
				<path d="M170.386154,514.006653L170.244492,512.520508L169.815781,511.090454L169.116257,509.771667L168.172760,508.614624L167.021927,507.663818L165.707474,506.955933L164.280334,506.518005L162.795120,506.366882L161.308884,506.508606L159.878876,506.937317L158.560059,507.636902L157.403076,508.580261L156.452286,509.731262L155.744293,511.045593L155.306458,512.472778L155.155457,513.958008L155.153259,514.628113L155.294937,516.114197L155.723633,517.544189L156.423172,518.863098L157.366608,520.020142L158.517502,520.970825L159.831909,521.678833L161.259094,522.116699L162.744308,522.267761L164.230545,522.126160L165.660431,521.697388L166.979370,520.997803L168.136368,520.054443L169.087082,518.903442L169.795074,517.589050L170.232986,516.161865L170.383987,514.676636z" fill="#FEF0B5" stroke="none" fill-opacity="1" />
				<polyline points="210.987457,497.814880 210.985275,498.484863" fill="#FEF1B5" stroke="none" fill-opacity="1" />
				<path d="M218.602737,497.839172L218.461136,496.353027L218.032440,494.922974L217.332855,493.604187L216.389404,492.447144L215.238525,491.496338L213.924118,490.788452L212.496918,490.350525L211.011719,490.199463L209.525528,490.341125L208.095581,490.769836L206.776657,491.469421L205.619705,492.412781L204.669006,493.563843L203.960999,494.878113L203.523041,496.305298L203.372040,497.790588L203.369980,498.460632L203.511551,499.946777L203.940247,501.376709L204.639755,502.695618L205.583267,503.852600L206.734192,504.803345L208.048615,505.511353L209.475739,505.949219L210.960892,506.100281L212.447144,505.958679L213.877136,505.529907L215.196014,504.830383L216.352951,503.886963L217.303726,502.735962L218.011719,501.421570L218.449570,499.994385L218.600571,498.509155z" fill="#FEF0B5" stroke="none" fill-opacity="1" />
				<polyline points="264.813354,513.502930 264.811127,514.172974" fill="#FEF1B5" stroke="none" fill-opacity="1" />
				<path d="M272.428833,513.528442L272.287384,512.042236L271.858795,510.612183L271.159454,509.293152L270.216339,508.135986L269.065430,507.185120L267.751129,506.476929L266.324036,506.038818L264.838898,505.887512L263.352631,506.028870L261.922577,506.457397L260.603729,507.156799L259.446472,508.099976L258.495483,509.250793L257.787445,510.565125L257.349182,511.992249L257.197906,513.477478L257.195770,514.147522L257.337067,515.633667L257.765686,517.063721L258.464966,518.382690L259.408264,519.539856L260.559021,520.490723L261.873199,521.198914L263.300385,521.637024L264.785675,521.788391L266.271667,521.647034L267.701782,521.218445L269.020721,520.519043L270.177948,519.575867L271.128967,518.425049L271.837128,517.110779L272.275238,515.683655L272.426422,514.198486z" fill="#FEF0B5" stroke="none" fill-opacity="1" />
				<polyline points="282.761536,912.586060 282.759186,913.255981" fill="#FEF1B5" stroke="none" fill-opacity="1" />
				<path d="M290.376862,912.611572L290.235504,911.125366L289.806976,909.695312L289.107574,908.376343L288.164459,907.219177L287.013519,906.268188L285.699310,905.560120L284.272156,905.121948L282.787048,904.970703L281.300812,905.112000L279.870758,905.540588L278.551819,906.239868L277.394653,907.183167L276.443634,908.333923L275.735596,909.648193L275.297363,911.075317L275.146057,912.560547L275.143890,913.230530L275.285217,914.716736L275.713745,916.146729L276.413147,917.465698L277.356354,918.622925L278.507202,919.573853L279.821381,920.281982L281.248566,920.720093L282.733826,920.871399L284.219849,920.730103L285.649902,920.301453L286.968964,919.602173L288.126068,918.658936L289.077057,917.508057L289.785278,916.193848L290.223358,914.766724L290.374573,913.281494z" fill="#FEF0B5" stroke="none" fill-opacity="1" />
				<polygon points="701.674011,977.665955 703.799927,947.813538 652.275452,946.111145 655.620178,978.566528 659.336121,1029.985229 610.838318,1044.484375 614.024292,1068.812622 754.947205,1068.766357 754.364258,1038.966919 708.098694,1029.031738 704.912781,1004.703369" fill="#C47F2A" stroke="none" fill-opacity="1" />
				<path d="M696.212708,977.277039L696.241699,978.349976L696.479614,979.396545L696.916931,980.376709L697.537231,981.252625L698.316467,981.990845L699.224731,982.562744L700.226990,982.946472L701.284973,983.127319L702.357910,983.098267L703.404541,982.860413L704.384705,982.422974L705.260681,981.802734L705.998779,981.023560L706.570679,980.115234L706.954407,979.112915L707.135254,978.054932L709.261230,948.202515L709.206238,946.948120L708.867004,945.739258L708.260986,944.639404L707.420593,943.706543L706.389771,942.989685L705.222717,942.526550L703.980774,942.341431L652.456299,940.639038L651.293762,940.724792L650.175598,941.054688L649.152771,941.613892L648.271545,942.376831L647.571716,943.309143L647.085144,944.368469L646.833740,945.506775L646.829224,946.672485L650.165405,979.044617L653.558594,1025.997925L609.270081,1039.238647L608.091309,1039.748291L607.063843,1040.518311L606.243774,1041.506592L605.676575,1042.658691L605.393311,1043.911133L605.409607,1045.195312L608.595459,1069.523438L608.920288,1070.794312L609.538147,1071.951416L610.413513,1072.928345L611.496033,1073.669067L612.723694,1074.130981L614.026062,1074.287720L754.949097,1074.241455L756.181946,1074.100464L757.351440,1073.685303L758.397400,1073.017578L759.266174,1072.131348L759.913025,1071.072266L760.304749,1069.894775L760.421326,1068.659302L759.838379,1038.859863L759.678711,1037.650391L759.255310,1036.506226L758.589050,1035.484253L757.712891,1034.635254L756.670654,1034.001221L755.513855,1033.613770L713.025696,1024.489746L710.345459,1004.022278L707.110291,977.014771L706.878723,975.966675L706.447205,974.984009L705.832275,974.104309L705.057556,973.361511L704.152710,972.784058L703.152771,972.394348L702.095825,972.207153L701.022705,972.229736L699.974792,972.461182L698.991943,972.892761L698.112305,973.507690L697.369385,974.282471L696.792053,975.187195L696.402283,976.187256L696.215149,977.244080L696.237732,978.317200L699.476562,1005.354553L702.669861,1029.742554L703.006104,1031.042236L703.648499,1032.221069L704.558350,1033.208130L705.681152,1033.944092L706.949219,1034.384766L748.975037,1043.409546L749.364014,1063.292969L618.828918,1063.335938L616.872314,1048.395020L660.904358,1035.230835L662.037109,1034.747681L663.033264,1034.023560L663.842224,1033.095093L664.423340,1032.009277L664.747070,1030.821045L664.796875,1029.590576L661.081116,978.171875L658.364868,951.790466L697.934631,953.097839z" fill="#621908" stroke="none" fill-opacity="1" />
				<polyline points="-77.617149,561.090759 215.962814,573.669189 219.371277,511.786987 -76.384621,524.053589" fill="#C47F2A" stroke="none" fill-opacity="1" />
				<path d="M-77.382889,555.620667L-78.454506,555.680054L-79.494095,555.947388L-80.461235,556.412354L-81.319542,557.057129L-82.035141,557.856934L-82.581139,558.780945L-82.936470,559.793762L-83.087311,560.856445L-83.027916,561.928101L-82.760468,562.967590L-82.295609,563.934998L-81.650726,564.793030L-80.850906,565.508789L-79.926796,566.054810L-78.914101,566.410034L-77.851524,566.560852L215.728500,579.139282L216.942276,579.056030L218.107559,578.706787L219.166992,578.108887L220.068222,577.291748L220.766769,576.295776L221.228241,575.170044L221.429733,573.970337L224.838181,512.088135L224.782043,510.950439L224.492004,509.849060L223.980209,508.831482L223.268906,507.941895L222.389084,507.218628L221.378510,506.693115L220.281082,506.388000L219.144394,506.316589L-76.611557,518.583191L-77.674370,518.732544L-78.687744,519.086365L-79.612427,519.631104L-80.413170,520.345825L-81.059189,521.202942L-81.525414,522.169739L-81.794128,523.208862L-81.855232,524.280457L-81.705666,525.343323L-81.351929,526.356628L-80.807076,527.281433L-80.092506,528.082092L-79.235115,528.728088L-78.268425,529.194397L-77.229424,529.463135L-76.157799,529.523987L213.572845,517.507324L210.793411,567.967590z" fill="#621908" stroke="none" fill-opacity="1" />
				<polyline points="652.884094,980.088684 243.072449,988.142639 248.257370,96.677368 657.416138,100.745361 654.804810,130.559265 706.295227,133.098816 703.478271,100.593323 700.598755,49.120850 749.325684,35.412109 746.535706,11.035522 605.630554,8.791016 605.729004,38.595825 651.826965,49.281860 654.616943,73.658813 207.444244,45.329956 205.317764,1042.458740 654.997437,1009.361877" fill="#C47F2A" stroke="none" fill-opacity="1" />
				<path d="M652.991638,985.562805L654.057495,985.436646L655.078369,985.104919L656.014832,984.580444L656.830933,983.883423L657.495361,983.040527L657.982727,982.084167L658.274048,981.051086L658.358215,979.981140L658.231995,978.915283L657.900330,977.894470L657.375854,976.958069L656.678772,976.141907L655.835876,975.477417L654.879517,974.990173L653.846497,974.698792L652.776550,974.614624L248.580139,982.558167L253.700348,102.206909L651.445679,106.161377L649.350586,130.081543L649.385254,131.336670L649.704773,132.551086L650.292725,133.660522L651.117859,134.606934L652.136963,135.340454L653.296387,135.822510L654.535217,136.027771L706.025635,138.567261L707.189392,138.500427L708.312561,138.188721L709.344360,137.646240L710.238037,136.897644L710.952881,135.976868L711.456665,134.925598L711.726440,133.791504L711.749939,132.626099L708.940186,100.203918L706.310608,53.201538L750.808533,40.682617L751.995422,40.192383L753.035400,39.438965L753.871338,38.464233L754.457214,37.321533L754.760742,36.073608L754.765320,34.789551L751.975342,10.412842L751.671204,9.136963L751.072205,7.969971L750.212952,6.979004L749.142578,6.220703L747.922607,5.738892L746.622925,5.561035L605.717834,3.316406L604.482788,3.437500L603.306641,3.833496L602.249939,4.484131L601.366882,5.356201L600.702942,6.404541L600.292175,7.575439L600.155579,8.808960L600.253906,38.613770L600.393860,39.825684L600.798706,40.976685L601.448181,42.009155L602.310303,42.872437L603.342163,43.523315L604.492615,43.929443L646.826721,53.743042L648.433472,67.780945L207.790421,39.865845L206.518646,39.933716L205.297058,40.293579L204.191650,40.925781L203.262070,41.796509L202.558868,42.858276L202.119934,44.053711L201.969101,45.318359L199.842682,1042.447021L199.990707,1043.723267L200.432053,1044.929810L201.142502,1046.000366L202.082809,1046.875854L203.201172,1047.508179L204.436111,1047.862305L205.719681,1047.919067L655.399292,1014.822266L656.456787,1014.638916L657.458313,1014.252808L658.365112,1013.678711L659.142700,1012.938782L659.760803,1012.061340L660.195923,1011.080200L660.431152,1010.033020L660.457642,1008.959961L660.274414,1007.902466L659.888306,1006.901001L659.314270,1005.994141L658.574280,1005.216675L657.696899,1004.598511L656.715698,1004.163391L655.668518,1003.928040L654.595520,1003.901550L210.805435,1036.564941L212.907074,51.162109L654.270874,79.122986L655.463440,79.067993L656.615845,78.756042L657.673279,78.201477L658.585266,77.431030L659.308655,76.481079L659.808838,75.396973L660.062195,74.230164L660.056580,73.036255L657.266602,48.659180L656.951660,47.354248L656.328552,46.165283L655.434814,45.163452L654.324097,44.409302L653.063416,43.948120L611.189758,34.241333L611.124146,14.354248L741.642639,16.433472L743.356079,31.403931L699.115906,43.850342L697.975464,44.315063L696.967712,45.023071L696.143616,45.938232L695.544983,47.014404L695.202026,48.197266L695.132080,49.426758L698.011658,100.899109L700.298889,127.321228L660.755310,125.370972L662.870361,101.223022L662.831299,99.937439L662.493469,98.696472L661.875366,97.568420L661.011169,96.615784L659.948608,95.891113L658.746277,95.434143L657.470581,95.270447L248.311829,91.202454L247.088913,91.328369L245.925003,91.723877L244.878830,92.368958L244.002731,93.231323L243.341049,94.267334L242.927338,95.424866L242.782333,96.645569L237.597412,988.110779L237.731995,989.349426L238.143082,990.525452L238.809296,991.578125L239.696381,992.453003L240.758179,993.104614L241.939819,993.499390L243.180023,993.616699z" fill="#621908" stroke="none" fill-opacity="1" />
				<polyline points="654.616943,73.658813 654.747498,113.173035" fill="#C47F2A" stroke="none" fill-opacity="1" />
				<path d="M660.091980,73.640686L659.983276,72.572876L659.668335,71.546936L659.159302,70.601929L658.475647,69.774475L657.643738,69.096375L656.695496,68.593567L655.667419,68.285400L654.598877,68.183655L653.531006,68.292358L652.505005,68.607422L651.560120,69.116516L650.732727,69.800049L650.054504,70.632019L649.551697,71.580261L649.243591,72.608398L649.141968,73.676880L649.272400,113.191101L649.381165,114.258911L649.695984,115.284973L650.205139,116.229797L650.888794,117.057312L651.720764,117.735474L652.668884,118.238281L653.697083,118.546387L654.765503,118.648132L655.833252,118.539429L656.859375,118.224426L657.804321,117.715332L658.631714,117.031738L659.309937,116.199768L659.812744,115.251587L660.120850,114.223450L660.222534,113.154907z" fill="#621908" stroke="none" fill-opacity="1" />
				<polygon points="1034.109497,129.306641 1034.791382,335.914307 1035.473633,542.521667 1036.156006,749.129211 1036.838257,955.736694 847.186218,956.362976 657.533875,956.989258 467.881744,957.615356 278.229614,958.241821 277.547394,751.634399 276.865021,545.026672 276.182831,338.419250 275.500580,131.811768 465.152893,131.185364 654.804810,130.559265 844.457214,129.932739" fill="#C47F2A" stroke="none" fill-opacity="1" />
				<path d="M1039.584595,129.288574L1039.475830,128.220886L1039.160889,127.194824L1038.651733,126.249878L1037.968140,125.422485L1037.136230,124.744324L1036.187988,124.241516L1035.159912,123.933289L1034.091431,123.831604L1033.023682,123.940369L1031.997559,124.255310L1031.052734,124.764343L1030.225342,125.447937L1029.547119,126.279968L1029.044189,127.228149L1028.736084,128.256287L1028.634277,129.324768L1029.316284,335.932373L1029.998535,542.539734L1030.681030,749.147339L1031.345093,950.279663L847.168213,950.887878L657.515869,951.514160L467.863678,952.140259L283.686584,952.748596L283.022400,751.616272L282.340088,545.008606L281.657928,338.401123L280.993805,137.268799L465.171021,136.660583L654.822937,136.034363L844.475281,135.407898L1034.127441,134.781799L1035.195312,134.673096L1036.221436,134.358093L1037.166382,133.848999L1037.993774,133.165405L1038.671997,132.333496L1039.174805,131.385254L1039.482910,130.357117L1039.584595,129.288574L1039.475830,128.220886L1039.160889,127.194824L1038.651733,126.249878L1037.968262,125.422485L1037.136230,124.744263L1036.187988,124.241516L1035.159912,123.933289L1034.091431,123.831543L844.439148,124.457642L654.786743,125.084106L465.134735,125.710327L275.482452,126.336670L274.264740,126.477966L273.108673,126.886719L272.072693,127.542480L271.208710,128.412231L270.559875,129.452515L270.158722,130.611084L270.025574,131.829834L270.707825,338.437317L271.389893,545.044739L272.072357,751.652466L272.754517,958.259888L272.895752,959.477783L273.304596,960.633667L273.960266,961.669617L274.830139,962.533691L275.870361,963.182556L277.028961,963.583618L278.247742,963.716919L467.899811,963.090515L657.551941,962.464355L847.204285,961.838135L1036.856323,961.211853L1038.074219,961.070496L1039.230103,960.661804L1040.265991,960.006042L1041.130127,959.136230L1041.779053,958.096008L1042.180176,956.937439L1042.313354,955.718628L1041.631226,749.111084L1040.948730,542.503601L1040.266602,335.896179z" fill="#621908" stroke="none" fill-opacity="1" />
				<polyline points="1027.063477,304.056091 1020.683655,257.583740 287.520660,529.393494 287.860840,632.356079" fill="#FEE870" stroke="none" fill-opacity="1" />
				<polyline points="1030.240234,445.517273 1023.784851,376.182312 291.059357,780.461060 291.566498,934.054871" fill="#FEE870" stroke="none" fill-opacity="1" />
				<polygon points="1001.400696,165.176697 1002.023743,353.903442 1002.646973,542.630066 1003.270203,731.356934 1003.893311,920.083557 830.654602,920.655518 657.415955,921.227539 484.177246,921.799683 310.938446,922.371704 310.315186,733.645020 309.691986,544.918335 309.068817,356.191589 308.445557,167.464966 481.684448,166.892883 654.923035,166.320923 828.161743,165.748840" fill="#000000" stroke="none" fill-opacity="1" />
				<path d="M1005.801636,165.162109L1005.714233,164.303894L1005.461060,163.479187L1005.051819,162.719666L1004.502319,162.054504L1003.833618,161.509460L1003.071411,161.105225L1002.245056,160.857544L1001.386169,160.775818L1000.527893,160.863159L999.703125,161.116333L998.943665,161.525574L998.278381,162.075073L997.733337,162.743774L997.329224,163.505981L997.081543,164.332336L996.999756,165.191223L997.622803,353.917969L998.246033,542.644592L998.869263,731.371460L999.477844,915.697205L830.640198,916.254639L657.401367,916.826599L484.162720,917.398804L315.324860,917.956299L314.716064,733.630493L314.092926,544.903748L313.469696,356.177124L312.860931,171.851379L481.698975,171.293762L654.937561,170.721802L828.176270,170.149719L1001.415283,169.577637L1002.273376,169.490173L1003.098328,169.237061L1003.857727,168.827820L1004.522888,168.278320L1005.067932,167.609619L1005.472107,166.847473L1005.719849,166.020996L1005.801636,165.162109L1005.714233,164.303894L1005.461060,163.479187L1005.051819,162.719666L1004.502319,162.054626L1003.833618,161.509460L1003.071411,161.105225L1002.244934,160.857544L1001.386169,160.775818L828.147217,161.347900L654.908508,161.920105L481.669922,162.492126L308.431030,163.064148L307.452118,163.177673L306.522980,163.506226L305.690277,164.033264L304.995697,164.732422L304.474152,165.568604L304.151733,166.499878L304.044708,167.479553L304.668060,356.206238L305.291046,544.932861L305.914368,733.659607L306.537506,922.386292L306.651062,923.365234L306.979645,924.294312L307.506744,925.127014L308.205933,925.821533L309.041931,926.343140L309.973206,926.665527L310.952911,926.772644L484.191772,926.200623L657.430481,925.628418L830.669128,925.056458L1003.907898,924.484497L1004.886780,924.370911L1005.815796,924.042358L1006.648560,923.515320L1007.343079,922.816162L1007.864624,921.979980L1008.187134,921.048706L1008.294189,920.069031L1007.671143,731.342407L1007.047913,542.615540L1006.424744,353.888916z" fill="#130C05" stroke="none" fill-opacity="1" />
				<polyline points="679.014709,61.702759 694.694824,61.650940 694.870483,114.840027 679.190369,114.891968" fill="#FEE870" stroke="none" fill-opacity="1" />
				<polyline points="686.706421,966.431763 702.386536,966.380066 702.562073,1019.569092 686.882080,1019.620789" fill="#FEE870" stroke="none" fill-opacity="1" />
				<polyline points="686.706421,966.431763 702.386536,966.380066 702.562073,1019.569092 686.882080,1019.620789" fill="#FEE870" stroke="none" fill-opacity="1" />
				<polyline points="258.271637,912.505127 258.269409,913.175110" fill="#FEF1B5" stroke="none" fill-opacity="1" />
				<path d="M265.887054,912.530701L265.745697,911.044495L265.317078,909.614441L264.617798,908.295532L263.674500,907.138306L262.523743,906.187378L261.209564,905.479248L259.782379,905.041138L258.297089,904.889832L256.811066,905.031128L255.381027,905.459717L254.062042,906.159058L252.904816,907.102295L251.953873,908.253113L251.245651,909.567383L250.807556,910.994507L250.656342,912.479675L250.653931,913.149658L250.795380,914.635864L251.223953,916.065918L251.923309,917.384888L252.866531,918.541992L254.017349,919.492981L255.331650,920.201111L256.758728,920.639221L258.243896,920.790527L259.730194,920.649170L261.160187,920.220581L262.479187,919.521362L263.636292,918.578064L264.587280,917.427246L265.295319,916.113037L265.733582,914.685913L265.884888,913.200623z" fill="#FEF0B5" stroke="none" fill-opacity="1" />
				<polyline points="235.753830,908.512390 235.751617,909.182373" fill="#FEF1B5" stroke="none" fill-opacity="1" />
				<path d="M243.369308,908.537964L243.227859,907.051758L242.799332,905.621765L242.099930,904.302734L241.156815,903.145569L240.005890,902.194580L238.691605,901.486450L237.264526,901.048340L235.779358,900.897034L234.293045,901.038391L232.862991,901.466980L231.544189,902.166260L230.386948,903.109497L229.436066,904.260376L228.727905,905.574646L228.289764,907.001709L228.138428,908.486938L228.136261,909.156921L228.277527,910.643066L228.706161,912.073120L229.405457,913.392090L230.348724,914.549255L231.499496,915.500244L232.813736,916.208374L234.240875,916.646545L235.726196,916.797791L237.212204,916.656494L238.642258,916.227844L239.961319,915.528564L241.118423,914.585327L242.069427,913.434570L242.777649,912.120239L243.215729,910.693054L243.366898,909.207886z" fill="#FEF0B5" stroke="none" fill-opacity="1" />
				<polyline points="205.408981,901.555054 205.406784,902.224915" fill="#FEF1B5" stroke="none" fill-opacity="1" />
				<path d="M213.024323,901.579346L212.882706,900.093201L212.454010,898.663208L211.754501,897.344360L210.810928,896.187317L209.660110,895.236572L208.345703,894.528687L206.918503,894.090698L205.433228,893.939697L203.947052,894.081299L202.517120,894.510071L201.198227,895.209656L200.041245,896.153015L199.090393,897.304016L198.382538,898.618347L197.944672,900.045593L197.793625,901.530823L197.791504,902.200684L197.933105,903.686829L198.361801,905.116821L199.061340,906.435669L200.004776,907.592712L201.155716,908.543457L202.470123,909.251404L203.897324,909.689270L205.382599,909.840332L206.868774,909.698792L208.298660,909.269897L209.617584,908.570374L210.774582,907.627014L211.725433,906.476013L212.433243,905.161682L212.871155,903.734436L213.022217,902.249207z" fill="#FEF0B5" stroke="none" fill-opacity="1" />
				<polyline points="170.201736,883.805847 170.199692,884.475830" fill="#FEF1B5" stroke="none" fill-opacity="1" />
				<path d="M177.817154,883.830200L177.675537,882.343994L177.246841,880.914062L176.547256,879.595215L175.603745,878.438171L174.452927,877.487427L173.138519,876.779480L171.711334,876.341553L170.226059,876.190552L168.739868,876.332092L167.309875,876.760925L165.991058,877.460449L164.834061,878.403809L163.883224,879.554871L163.175293,880.869202L162.737442,882.296387L162.586426,883.781616L162.584259,884.451599L162.725937,885.937744L163.154633,887.367737L163.854156,888.686584L164.797653,889.843567L165.948547,890.794312L167.262894,891.502319L168.690155,891.940186L170.175354,892.091309L171.661545,891.949646L173.091476,891.520874L174.410416,890.821289L175.567352,889.877930L176.518188,888.726929L177.226059,887.412598L177.663971,885.985352L177.814972,884.500122z" fill="#FEF0B5" stroke="none" fill-opacity="1" />
				<polyline points="144.816452,858.252502 144.814224,858.922485" fill="#FEF1B5" stroke="none" fill-opacity="1" />
				<path d="M152.431747,858.278015L152.290466,856.791809L151.861893,855.361755L151.162552,854.042786L150.219269,852.885620L149.068512,851.934692L147.754333,851.226501L146.327133,850.788391L144.841858,850.637085L143.355850,850.778442L141.925735,851.207031L140.606796,851.906372L139.449570,852.849548L138.498566,854.000366L137.790466,855.314636L137.352280,856.741760L137.201096,858.226990L137.198746,858.896973L137.340134,860.383240L137.768784,861.813293L138.468063,863.132263L139.411179,864.289429L140.562119,865.240356L141.876404,865.948486L143.303482,866.386597L144.788635,866.537964L146.274948,866.396606L147.705002,865.967957L149.023804,865.268677L150.181046,864.325439L151.132034,863.174622L151.840088,861.860352L152.278351,860.433228L152.429688,858.947998z" fill="#FEF0B5" stroke="none" fill-opacity="1" />
				<polyline points="126.314163,824.884888 126.311813,825.554932" fill="#FEF1B5" stroke="none" fill-opacity="1" />
				<path d="M133.929520,824.910400L133.788116,823.424194L133.359604,821.994141L132.660187,820.675171L131.717087,819.518066L130.566162,818.567139L129.251923,817.859009L127.824783,817.420837L126.339676,817.269531L124.853378,817.410889L123.423386,817.839478L122.104393,818.538757L120.947281,819.481934L119.996277,820.632812L119.288231,821.947083L118.849983,823.374207L118.698685,824.859375L118.696518,825.529419L118.837852,827.015625L119.266373,828.445679L119.965782,829.764648L120.908997,830.921814L122.059822,831.872742L123.374001,832.580933L124.801201,833.019043L126.286461,833.170349L127.772476,833.028992L129.202530,832.600403L130.521530,831.901123L131.678696,830.957886L132.629700,829.807068L133.337921,828.492798L133.776001,827.065674L133.927231,825.580444z" fill="#FEF0B5" stroke="none" fill-opacity="1" />
				<polyline points="117.607666,791.549683 117.605438,792.219727" fill="#FEF1B5" stroke="none" fill-opacity="1" />
				<path d="M125.223137,791.575317L125.081688,790.089111L124.653168,788.659058L123.953819,787.340088L123.010651,786.182922L121.859726,785.231934L120.545486,784.523804L119.118347,784.085693L117.633194,783.934387L116.147003,784.075684L114.716888,784.504333L113.398071,785.203674L112.240791,786.146851L111.289894,787.297729L110.581741,788.611938L110.143661,790.039062L109.992249,791.524292L109.990082,792.194275L110.131294,793.680420L110.559998,795.110474L111.259285,796.429443L112.202560,797.586670L113.353271,798.537598L114.667564,799.245728L116.094704,799.683838L117.580025,799.835205L119.066101,799.693848L120.496094,799.265259L121.815140,798.565918L122.972252,797.622681L123.923264,796.471863L124.631485,795.157593L125.069557,793.730469L125.220795,792.245300z" fill="#FEF0B5" stroke="none" fill-opacity="1" />
				<polyline points="115.771408,754.318848 115.769119,754.988892" fill="#FEF1B5" stroke="none" fill-opacity="1" />
				<path d="M123.386818,754.345581L123.245712,752.859375L122.817360,751.429199L122.118179,750.110168L121.175133,748.952881L120.024551,748.001709L118.710419,747.293335L117.283287,746.854980L115.798126,746.703491L114.311943,746.844604L112.881836,747.272949L111.562897,747.972046L110.405556,748.915161L109.454376,750.065796L108.745827,751.379883L108.307510,752.807007L108.156105,754.292175L108.153709,754.962158L108.294754,756.448364L108.723213,757.878540L109.422401,759.197510L110.365334,760.354858L111.516037,761.306030L112.830101,762.014404L114.257233,762.452759L115.742340,762.604248L117.228645,762.463196L118.658699,762.034790L119.977852,761.335693L121.135139,760.392700L122.086197,759.241943L122.794586,757.927856L123.233017,756.500732L123.384476,755.015503z" fill="#FEF0B5" stroke="none" fill-opacity="1" />
				<polyline points="119.809509,718.086975 119.807274,718.756958" fill="#FEF1B5" stroke="none" fill-opacity="1" />
				<path d="M127.424927,718.112427L127.283592,716.626221L126.854958,715.196167L126.155602,713.877258L125.212440,712.720093L124.061623,711.769165L122.747261,711.061035L121.320244,710.622864L119.835030,710.471558L118.348785,710.612915L116.918739,711.041504L115.599800,711.740845L114.442635,712.684021L113.491684,713.834900L112.783585,715.149170L112.345444,716.576294L112.194038,718.061523L112.191864,718.731506L112.333084,720.217651L112.761780,721.647705L113.461136,722.966675L114.404350,724.123840L115.555229,725.074768L116.869354,725.782959L118.296539,726.221069L119.781815,726.372375L121.267952,726.231018L122.697884,725.802429L124.016930,725.103149L125.174164,724.159912L126.125046,723.009033L126.833260,721.694824L127.271347,720.267700L127.422585,718.782471z" fill="#FEF0B5" stroke="none" fill-opacity="1" />
				<polyline points="130.360046,687.754395 130.357925,688.424316" fill="#FEF1B5" stroke="none" fill-opacity="1" />
				<path d="M137.975403,687.778625L137.833908,686.292480L137.405151,684.862427L136.705505,683.543701L135.762054,682.386597L134.611130,681.435852L133.296768,680.727905L131.869522,680.290039L130.384430,680.138916L128.898178,680.280518L127.468185,680.709351L126.149368,681.408875L124.992363,682.352295L124.041588,683.503296L123.333611,684.817627L122.895699,686.244873L122.744751,687.730103L122.742577,688.400024L122.884087,689.886230L123.312828,691.316162L124.012466,692.635010L124.955917,693.792114L126.106857,694.742798L127.421204,695.450745L128.848404,695.888672L130.333557,696.039734L131.819794,695.898132L133.249802,695.469360L134.568619,694.769775L135.725616,693.826416L136.676392,692.675415L137.384384,691.361084L137.822281,689.933838L137.973236,688.448608z" fill="#FEF0B5" stroke="none" fill-opacity="1" />
				<polyline points="146.770065,662.502197 146.767899,663.172241" fill="#FEF1B5" stroke="none" fill-opacity="1" />
				<path d="M154.385376,662.526489L154.243927,661.040344L153.815063,659.610352L153.115540,658.291504L152.172089,657.134521L151.021164,656.183716L149.706741,655.475830L148.279556,655.037903L146.794388,654.886841L145.308212,655.028442L143.878204,655.457214L142.559265,656.156738L141.402283,657.100159L140.451614,658.251099L139.743622,659.565491L139.305725,660.992676L139.154663,662.477966L139.152603,663.147949L139.294098,664.634094L139.722855,666.064087L140.422379,667.382935L141.365936,668.539978L142.516830,669.490723L143.831238,670.198669L145.258362,670.636536L146.743530,670.787598L148.229828,670.646057L149.659760,670.217224L150.978653,669.517700L152.135635,668.574280L153.086349,667.423340L153.794342,666.108948L154.232193,664.681763L154.383255,663.196533z" fill="#FEF0B5" stroke="none" fill-opacity="1" />
				<polyline points="157.460403,638.863770 157.458160,639.533813" fill="#FEF1B5" stroke="none" fill-opacity="1" />
				<path d="M165.075745,638.889282L164.934479,637.403076L164.505844,635.973022L163.806564,634.654053L162.863266,633.496887L161.712509,632.545898L160.398270,631.837830L158.971146,631.399658L157.485809,631.248413L155.999725,631.389771L154.569733,631.818359L153.250687,632.517639L152.093567,633.460815L151.142578,634.611694L150.434357,635.925903L149.996292,637.353088L149.845108,638.838257L149.842712,639.508301L149.984146,640.994507L150.412674,642.424561L151.112015,643.743408L152.055176,644.900635L153.206116,645.851562L154.520416,646.559692L155.947479,646.997925L157.432648,647.149170L158.918900,647.007812L160.348953,646.579224L161.667816,645.879883L162.825058,644.936646L163.775940,643.785889L164.484100,642.471558L164.922241,641.044434L165.073578,639.559265z" fill="#FEF0B5" stroke="none" fill-opacity="1" />
				<polyline points="176.308411,616.885010 176.306305,617.555054" fill="#FEF1B5" stroke="none" fill-opacity="1" />
				<path d="M183.923767,616.909302L183.782211,615.423096L183.353516,613.993164L182.653931,612.674316L181.710419,611.517273L180.559494,610.566528L179.245148,609.858582L177.818008,609.420654L176.332794,609.269653L174.846558,609.411255L173.416550,609.840088L172.097733,610.539551L170.940735,611.482971L169.989960,612.633972L169.281982,613.948303L168.844116,615.375488L168.693130,616.860718L168.690948,617.530762L168.832626,619.016907L169.261322,620.446899L169.960846,621.765747L170.904282,622.922791L172.055222,623.873535L173.369568,624.581421L174.796829,625.019409L176.281998,625.170410L177.768173,625.028809L179.198181,624.600037L180.517090,623.900513L181.674026,622.957031L182.624756,621.806030L183.332733,620.491699L183.770645,619.064575L183.921646,617.579346z" fill="#FEF0B5" stroke="none" fill-opacity="1" />
				<polyline points="194.340363,594.903564 194.338196,595.573608" fill="#FEF1B5" stroke="none" fill-opacity="1" />
				<path d="M201.955673,594.927856L201.814041,593.441772L201.385345,592.011719L200.685822,590.692871L199.742371,589.535889L198.591431,588.585083L197.277023,587.877197L195.849838,587.439270L194.364685,587.288208L192.878372,587.429810L191.448502,587.858582L190.129562,588.558105L188.972565,589.501526L188.021912,590.652527L187.313919,591.966858L186.875946,593.394104L186.724945,594.879333L186.722824,595.549316L186.864441,597.035522L187.293152,598.465454L187.992676,599.784302L188.936172,600.941406L190.087051,601.892090L191.401520,602.600098L192.828644,603.037964L194.313797,603.189026L195.800125,603.047485L197.230057,602.618652L198.548920,601.919067L199.705933,600.975708L200.656631,599.824707L201.364639,598.510315L201.802475,597.083130L201.953552,595.597900z" fill="#FEF0B5" stroke="none" fill-opacity="1" />
				<polyline points="215.637482,572.932861 215.635117,573.602844" fill="#FEF1B5" stroke="none" fill-opacity="1" />
				<path d="M223.252823,572.958374L223.111435,571.472168L222.682907,570.042114L221.983505,568.723145L221.040390,567.565979L219.889481,566.615051L218.575226,565.906860L217.148102,565.468750L215.662949,565.317444L214.176743,565.458801L212.746567,565.887329L211.427765,566.586731L210.270538,567.529907L209.319595,568.680786L208.611496,569.994995L208.173294,571.422119L208.022003,572.907349L208.019836,573.577393L208.161163,575.063599L208.589691,576.493591L209.289093,577.812561L210.232300,578.969727L211.383118,579.920715L212.697311,580.628784L214.124512,581.066956L215.609772,581.218262L217.095779,581.076904L218.525833,580.648315L219.844894,579.948975L221.001999,579.005737L221.953003,577.854980L222.661224,576.540710L223.099304,575.113525L223.250549,573.628357z" fill="#FEF0B5" stroke="none" fill-opacity="1" />
				<polyline points="238.548309,556.681885 238.546143,557.351868" fill="#FEF1B5" stroke="none" fill-opacity="1" />
				<path d="M246.163620,556.706177L246.021988,555.220032L245.593292,553.790039L244.893784,552.471191L243.950317,551.314148L242.799393,550.363403L241.484985,549.655457L240.057785,549.217529L238.572632,549.066467L237.086334,549.208069L235.656448,549.636902L234.337509,550.336426L233.180527,551.279785L232.229858,552.430786L231.521866,553.745178L231.083954,555.172424L230.932907,556.657593L230.930786,557.327637L231.072403,558.813782L231.501099,560.243774L232.200623,561.562622L233.144180,562.719666L234.294998,563.670410L235.609467,564.378296L237.036606,564.816223L238.521759,564.967285L240.008072,564.825684L241.438004,564.396912L242.756866,563.697388L243.913879,562.753967L244.864655,561.602966L245.572647,560.288635L246.010437,558.861450L246.161499,557.376160z" fill="#FEF0B5" stroke="none" fill-opacity="1" />
				<polyline points="254.101410,543.671875 254.099289,544.341858" fill="#FEF1B5" stroke="none" fill-opacity="1" />
				<path d="M261.716888,543.696167L261.575195,542.210022L261.146423,540.780029L260.446930,539.461121L259.503540,538.304138L258.352356,537.353394L257.038147,536.645508L255.610931,536.207520L254.125656,536.056458L252.639481,536.198120L251.209549,536.626892L249.890732,537.326416L248.733673,538.269775L247.782944,539.420776L247.074966,540.735168L246.637115,542.162354L246.485977,543.647644L246.483810,544.317627L246.625381,545.803772L247.054260,547.233704L247.753769,548.552612L248.697159,549.709595L249.848328,550.660400L251.162567,551.368347L252.589752,551.806213L254.075027,551.957275L255.561218,551.815674L256.991089,551.386902L258.309845,550.687317L259.467010,549.743958L260.417755,548.592957L261.125732,547.278625L261.563599,545.851379L261.714722,544.366211z" fill="#FEF0B5" stroke="none" fill-opacity="1" />
				<polyline points="264.756653,530.645752 264.754547,531.315735" fill="#FEF1B5" stroke="none" fill-opacity="1" />
				<path d="M272.372009,530.669983L272.230499,529.183838L271.801636,527.753906L271.102112,526.434998L270.158661,525.278015L269.007721,524.327271L267.693390,523.619324L266.266144,523.181396L264.780975,523.030334L263.294739,523.171936L261.864807,523.600708L260.545868,524.300293L259.388855,525.243652L258.438202,526.394653L257.730225,527.709045L257.292297,529.136230L257.141296,530.621460L257.139130,531.291443L257.280701,532.777649L257.709442,534.207581L258.409027,535.526428L259.352539,536.683472L260.503357,537.634216L261.817810,538.342163L263.244965,538.780090L264.730164,538.931213L266.216400,538.789551L267.646332,538.360718L268.965210,537.661255L270.122223,536.717834L271.072998,535.566833L271.780975,534.252502L272.218842,532.825256L272.369843,531.340027z" fill="#FEF0B5" stroke="none" fill-opacity="1" />
				<polyline points="188.114258,502.637390 188.112091,503.307373" fill="#FEF1B5" stroke="none" fill-opacity="1" />
				<path d="M195.729568,502.661621L195.587982,501.175415L195.159286,499.745483L194.459717,498.426636L193.516266,497.269653L192.365341,496.318848L191.050919,495.610901L189.623749,495.172974L188.138641,495.021973L186.652390,495.163513L185.222397,495.592285L183.903519,496.291809L182.746521,497.235291L181.795807,498.386292L181.087814,499.700623L180.649841,501.127808L180.498901,502.613098L180.496796,503.283081L180.638351,504.769226L181.067047,506.199219L181.766617,507.518066L182.710068,508.675110L183.861008,509.625793L185.175415,510.333801L186.602615,510.771667L188.087708,510.922791L189.573944,510.781128L191.003952,510.352295L192.322815,509.652771L193.479828,508.709412L194.430527,507.558411L195.138535,506.244080L195.576492,504.816772L195.727448,503.331604z" fill="#FEF0B5" stroke="none" fill-opacity="1" />
				<polyline points="84.969803,589.644409 84.967628,590.314453" fill="#FEF1B5" stroke="none" fill-opacity="1" />
				<path d="M92.585106,589.668701L92.443710,588.182556L92.014847,586.752625L91.315269,585.433716L90.371819,584.276733L89.220879,583.325928L87.906418,582.618042L86.479279,582.180115L84.994179,582.029053L83.507942,582.170654L82.077995,582.599487L80.759071,583.298950L79.601959,584.242371L78.651405,585.393372L77.943359,586.707764L77.505447,588.134949L77.354507,589.620117L77.352333,590.290161L77.493729,591.776306L77.922592,593.206299L78.622223,594.525146L79.565681,595.682190L80.716553,596.632935L82.031021,597.340820L83.458153,597.778809L84.943253,597.929810L86.429558,597.788208L87.859436,597.359436L89.178368,596.659912L90.335541,595.716492L91.286026,594.565491L91.994080,593.251099L92.432037,591.823975L92.582985,590.338745z" fill="#FEF0B5" stroke="none" fill-opacity="1" />
				<polyline points="64.282890,588.147522 64.280716,588.817505" fill="#FEF1B5" stroke="none" fill-opacity="1" />
				<path d="M71.898193,588.171875L71.756805,586.685669L71.327873,585.255615L70.628296,583.936829L69.684906,582.779785L68.533974,581.829041L67.219505,581.121094L65.792366,580.683228L64.307152,580.532104L62.820965,580.673706L61.391087,581.102539L60.072098,581.802002L58.915039,582.745483L57.964493,583.896484L57.256447,585.210815L56.818485,586.638062L56.667477,588.123230L56.665417,588.793213L56.806984,590.279419L57.235680,591.709351L57.935429,593.028198L58.878704,594.185181L60.029640,595.135986L61.344109,595.843872L62.771187,596.281799L64.256340,596.432861L65.742592,596.291260L67.172409,595.862427L68.491455,595.162964L69.648514,594.219543L70.599121,593.068542L71.307159,591.754150L71.745010,590.327026L71.896019,588.841797z" fill="#FEF0B5" stroke="none" fill-opacity="1" />
				<polyline points="44.156857,588.693359 44.154453,589.363281" fill="#FEF1B5" stroke="none" fill-opacity="1" />
				<path d="M51.772156,588.720032L51.631218,587.233887L51.202755,585.803711L50.503578,584.484680L49.560524,583.327332L48.409821,582.376221L47.095757,581.667908L45.668678,581.229492L44.183521,581.078003L42.697506,581.219116L41.267223,581.647461L39.948177,582.346558L38.790722,583.289551L37.839775,584.440247L37.131443,585.754395L36.693134,587.181396L36.541500,588.666626L36.539154,589.336548L36.680317,590.822754L37.108608,592.252869L37.807674,593.571960L38.750782,594.729248L39.901428,595.680420L41.215553,596.388794L42.642574,596.827148L44.127789,596.978638L45.614033,596.837524L47.044086,596.409180L48.363071,595.710083L49.520355,594.767029L50.471535,593.616333L51.180038,592.302246L51.618347,590.875183L51.769867,589.390015z" fill="#FEF0B5" stroke="none" fill-opacity="1" />
				<polyline points="23.950253,572.321045 23.948994,572.991089" fill="#FEF1B5" stroke="none" fill-opacity="1" />
				<path d="M28.754654,572.330200L28.664074,571.392822L28.392506,570.490967L27.949961,569.659546L27.354012,568.930420L26.626911,568.331482L25.797272,567.885986L24.896505,567.610840L23.959408,567.516724L23.021965,567.607239L22.120342,567.878906L21.288815,568.321289L20.559540,568.917358L19.960785,569.644287L19.515266,570.474060L19.240093,571.374756L19.145908,572.311890L19.144592,572.981873L19.235172,573.919312L19.506741,574.821167L19.949284,575.652588L20.545233,576.381836L21.272333,576.980652L22.101974,577.426147L23.002739,577.701294L23.939838,577.795410L24.877281,577.704895L25.778904,577.433228L26.610432,576.990845L27.339705,576.394775L27.938461,575.667908L28.383978,574.838135L28.659153,573.937378L28.753336,573.000244z" fill="#FEF0B5" stroke="none" fill-opacity="1" />
				<polyline points="6.117268,546.522156 6.115780,547.192200" fill="#FEF1B5" stroke="none" fill-opacity="1" />
				<path d="M11.886234,546.535034L11.777916,545.409363L11.451988,544.326416L10.921211,543.327881L10.205612,542.452026L9.333057,541.732666L8.336792,541.197266L7.255383,540.866638L6.130085,540.753235L5.004387,540.861572L3.921432,541.187439L2.923050,541.718323L2.047062,542.433838L1.327629,543.306458L0.792332,544.302612L0.461540,545.384155L0.348244,546.509277L0.346813,547.179321L0.455074,548.305054L0.781059,549.388000L1.311836,550.386597L2.027378,551.262329L2.899990,551.981750L3.896198,552.517090L4.977665,552.847778L6.102734,552.961182L7.228603,552.852844L8.311615,552.526978L9.310226,551.996033L10.185986,551.280579L10.905361,550.407959L11.440601,549.411804L11.771277,548.330322L11.884689,547.205078z" fill="#FEF0B5" stroke="none" fill-opacity="1" />
				<polyline points="9.286880,518.373779 9.284763,519.043762" fill="#FEF1B5" stroke="none" fill-opacity="1" />
				<path d="M16.902237,518.398010L16.760674,516.911926L16.331749,515.481934L15.632342,514.163025L14.688892,513.006104L13.537846,512.055298L12.223721,511.347412L10.796470,510.909424L9.311028,510.758423L7.825012,510.900024L6.394958,511.328735L5.076199,512.028320L3.919258,512.971741L2.968369,514.122681L2.260437,515.437073L1.822586,516.864319L1.671581,518.349548L1.669407,519.019531L1.811085,520.505676L2.239952,521.935608L2.939301,523.254456L3.882751,524.411438L5.033913,525.362244L6.347980,526.070129L7.775288,526.508057L9.260616,526.659180L10.746632,526.517578L12.176743,526.088745L13.495560,525.389221L14.652386,524.445801L15.603333,523.294861L16.311207,521.980469L16.749115,520.553223L16.900120,519.068054z" fill="#FEF0B5" stroke="none" fill-opacity="1" />
				<polyline points="-0.446777,499.566040 -0.448837,500.236023" fill="#FEF1B5" stroke="none" fill-opacity="1" />
				<path d="M7.168636,499.590332L7.026958,498.104187L6.598262,496.674194L5.898513,495.355408L4.955235,494.198364L3.804416,493.247620L2.489834,492.539673L1.062813,492.101746L-0.422401,491.950745L-1.908646,492.092285L-3.338470,492.521118L-4.657288,493.220642L-5.814514,494.163940L-6.765060,495.315002L-7.472992,496.629333L-7.911072,498.056580L-8.062134,499.541809L-8.064194,500.211792L-7.922630,501.697876L-7.493935,503.127869L-6.794128,504.446716L-5.850791,505.603699L-4.699974,506.554504L-3.385506,507.262390L-1.958427,507.700378L-0.473213,507.851379L1.013031,507.709839L2.442856,507.281006L3.761616,506.581482L4.918957,505.638062L5.869446,504.487122L6.577377,503.172729L7.015457,501.745544L7.166462,500.260315z" fill="#FEF0B5" stroke="none" fill-opacity="1" />
			</g>
			<g id="layer.Layer.uuid_0x2">
				<polygon points="125.416656,859.797241 165.530823,969.801025 127.584114,987.505127 80.912643,965.550476 119.890930,861.795715" fill="#FEE870" stroke="none" fill-opacity="1" />
				<path d="M132.658188,857.156494L132.003937,855.794495L131.096420,854.586304L129.970657,853.578369L128.670044,852.809387L127.244225,852.308960L125.748192,852.096375L124.239464,852.179565L122.775879,852.555664L121.413971,853.209961L120.205589,854.117493L119.197708,855.243225L118.428780,856.543945L117.928391,857.969727L117.715706,859.465759L117.798958,860.974548L118.175125,862.437988L155.955154,965.839172L127.597389,979.069519L90.571510,961.626709L122.767410,864.707886L128.038162,867.045776L129.402069,866.395020L130.612503,865.490784L131.623474,864.367737L132.395889,863.068970L132.899948,861.644531L133.116638,860.149109L133.037384,858.640137L132.665283,857.175659L132.014404,855.811951L131.110214,854.601318L129.987091,853.590393L128.688416,852.817993L127.263908,852.313843L125.768509,852.097290L124.259605,852.176575L122.795105,852.548706L118.626930,858.300476L117.685776,858.803772L116.926399,859.553772L116.411583,860.488586L73.740120,962.855896L73.332771,964.432495L73.267586,966.059448L73.547859,967.663513L74.160637,969.172119L75.078339,970.517212L76.259705,971.637878L77.651138,972.483704L124.332443,994.417480L126.460533,995.061035L128.683716,995.064514L130.813751,994.427734L168.760635,976.723633L170.144745,975.889099L171.322510,974.781982L172.240845,973.451904L172.858780,971.958313L173.148651,970.368164L173.097427,968.752625L172.707535,967.183960z" fill="#621A08" stroke="none" fill-opacity="1" />
				<polyline points="122.822510,859.492676 126.239716,986.915649 80.002670,964.442749" fill="#E5A943" stroke="none" fill-opacity="1" />
				<polyline points="137.662231,898.369995 143.972519,925.732605 122.970253,983.601929" fill="#FEFEFE" stroke="none" fill-opacity="1" />
				<polyline points="130.162918,877.731689 134.222488,891.623779 124.138870,926.782959" fill="#FEFEFE" stroke="none" fill-opacity="1" />
			</g>
			<g id="layer.Layer.001.uuid_0x3">
				<polygon points="-5.572929,497.094666 11.894989,497.094666 29.362736,497.094666 46.830711,497.094666 64.298630,497.094666 64.298401,523.540039 64.298630,549.985413 64.298630,576.430786 64.298630,602.876099 46.830711,602.876099 29.362736,602.876099 11.894989,602.876099 -5.572929,602.876099 -5.572929,576.430786 -5.572929,549.985413 -5.572929,523.540039" fill="#110100" stroke="none" fill-opacity="0.499998629" />
				<polygon points="1.351376,493.789612 18.819351,493.789612 36.287041,493.789612 53.755016,493.789612 71.222992,493.789612 71.222816,520.234985 71.222992,546.680359 71.222992,573.125732 71.222992,599.571045 53.755016,599.571045 36.287041,599.571045 18.819351,599.571045 1.351376,599.571045 1.351376,573.125732 1.351376,546.680359 1.351376,520.234985" fill="#110100" stroke="none" fill-opacity="0.499998629" />
				<polygon points="-10.657768,493.789612 6.810207,493.789612 24.277954,493.789612 41.745872,493.789612 59.213848,493.789612 59.213615,520.234985 59.213848,546.680359 59.213848,573.125732 59.213848,599.571045 41.745872,599.571045 24.277954,599.571045 6.810207,599.571045 -10.657768,599.571045 -10.657768,573.125732 -10.657768,546.680359 -10.657768,520.234985" fill="#110100" stroke="none" fill-opacity="0.499998629" />
				<polygon points="-16.662369,490.501160 0.805664,490.501160 18.273581,490.501160 35.741325,490.501160 53.209305,490.501160 53.209305,516.946411 53.209305,543.391785 53.209305,569.837158 53.209305,596.282471 35.741325,596.282471 18.273581,596.282471 0.805664,596.282471 -16.662369,596.282471 -16.662369,569.837158 -16.662369,543.391785 -16.662369,516.946411" fill="#110100" stroke="none" fill-opacity="0.499998629" />
				<polygon points="-23.212738,494.885864 -5.744934,494.885864 11.723099,494.885803 29.191015,494.885864 46.658764,494.885864 46.658531,521.331177 46.658764,547.776550 46.658764,574.221863 46.658764,600.667236 29.191015,600.667236 11.723099,600.667236 -5.744934,600.667236 -23.212738,600.667236 -23.212738,574.221863 -23.212738,547.776550 -23.212738,521.331177" fill="#110100" stroke="none" fill-opacity="0.499998629" />
				<polygon points="-27.432632,493.789612 -9.964828,493.789612 7.503147,493.789612 24.971066,493.789612 42.438583,493.789612 42.438583,520.234985 42.438583,546.680359 42.438583,573.125732 42.438583,599.571045 24.971066,599.571045 7.503147,599.571045 -9.964828,599.571045 -27.432632,599.571045 -27.432632,573.125732 -27.432632,546.680359 -27.432632,520.234985" fill="#110100" stroke="none" fill-opacity="0.499998629" />
				<polygon points="-33.038406,491.597290 -15.570488,491.597290 1.897373,491.597290 19.365292,491.597290 36.833038,491.597290 36.832806,518.042603 36.833038,544.487976 36.833038,570.933350 36.833038,597.378662 19.365292,597.378662 1.897373,597.378662 -15.570488,597.378662 -33.038406,597.378662 -33.038406,570.933350 -33.038406,544.487976 -33.038406,518.042603" fill="#110100" stroke="none" fill-opacity="0.499998629" />
				<polygon points="-42.864071,493.241638 -25.396271,493.241638 -7.928123,493.241638 9.539565,493.241638 27.007313,493.241638 27.007313,519.686890 27.007313,546.132263 27.007313,572.577576 27.007313,599.022949 9.539565,599.022949 -7.928123,599.022949 -25.396271,599.022949 -42.864071,599.022949 -42.864071,572.577576 -42.864071,546.132263 -42.864071,519.686890" fill="#110100" stroke="none" fill-opacity="0.499998629" />
				<polygon points="-49.960556,492.693481 -32.492409,492.693481 -15.024605,492.693481 2.443314,492.693481 19.911060,492.693481 19.910831,519.138855 19.911060,545.584229 19.911060,572.029541 19.911060,598.474854 2.443314,598.474854 -15.024605,598.474854 -32.492409,598.474854 -49.960556,598.474854 -49.960556,572.029541 -49.960556,545.584229 -49.960556,519.138855" fill="#110100" stroke="none" fill-opacity="0.499998629" />
				<polygon points="-64.152946,492.145386 -46.684914,492.145386 -29.217224,492.145386 -11.749306,492.145386 5.718670,492.145386 5.718441,518.590698 5.718670,545.036072 5.718670,571.481445 5.718670,597.926758 -11.749306,597.926758 -29.217224,597.926758 -46.684914,597.926758 -64.152946,597.926758 -64.152946,571.481445 -64.152946,545.036072 -64.152946,518.590698" fill="#110100" stroke="none" fill-opacity="0.499998629" />
				<polygon points="-67.974129,494.885864 -50.506096,494.885864 -33.038406,494.885803 -15.570488,494.885864 1.897373,494.885864 1.897373,521.331177 1.897373,547.776550 1.897373,574.221863 1.897373,600.667236 -15.570488,600.667236 -33.038406,600.667236 -50.506096,600.667236 -67.974129,600.667236 -67.974129,574.221863 -67.974129,547.776550 -67.974129,521.331177" fill="#110100" stroke="none" fill-opacity="0.499998629" />
				<polygon points="-83.470459,484.133362 -60.411758,484.133362 -37.352711,484.133362 -14.294014,484.133362 8.764858,484.133362 8.764629,510.578674 8.764858,537.024048 8.764858,563.469421 8.764858,589.914795 -14.294014,589.914795 -37.352711,589.914795 -60.411758,589.914795 -83.470459,589.914795 -83.470459,563.469421 -83.470459,537.024048 -83.470459,510.578674" fill="#110100" stroke="none" fill-opacity="0.499998629" />
				<polygon points="-66.336365,493.241638 -48.868557,493.241638 -31.400642,493.241638 -13.932724,493.241638 3.535023,493.241638 3.535023,519.686890 3.535023,546.132263 3.535023,572.577576 3.535023,599.022949 -13.932724,599.022949 -31.400642,599.022949 -48.868557,599.022949 -66.336365,599.022949 -66.336365,572.577576 -66.336365,546.132263 -66.336365,519.686890" fill="#110100" stroke="none" fill-opacity="0.499998629" />
			</g>
		</g>
	</g>
</svg>
