<?xml version="1.0" encoding="UTF-8"?>
<!-- Generator: Blender, SVG Export for Grease Pencil - v2.0 -->
<!DOCTYPE svg PUBLIC "-//W3C//DTD SVG 1.1//EN" "http://www.w3.org/Graphics/SVG/1.1/DTD/svg11.dtd">
<svg version="1.1" x="0px" y="0px" xmlns="http://www.w3.org/2000/svg" width="750.000000px" height="1080.000000px" viewBox="0 0 750.000000 1080.000000">
	<g id="blender_frame.4">
		<g id="blender_object.Stroke.4.uuid_0x0">
			<g id="layer.body.uuid_0x1">
				<polyline points="187.288910,758.700012 166.611771,621.577026 127.434074,585.663818 103.492180,624.841797 82.815109,736.934448 84.991554,979.620483" fill="#000000" stroke="none" fill-opacity="1" />
				<path d="M186.093338,758.880310L186.151474,759.110046L186.253326,759.324097L186.395004,759.514099L186.570969,759.672852L186.774612,759.794189L186.997879,759.873535L187.232483,759.907715L187.469147,759.895508L187.698959,759.837402L187.912949,759.735596L188.103043,759.593872L188.261765,759.417847L188.383194,759.214355L188.462448,758.990967L188.496597,758.756470L188.484406,758.519775L167.807281,621.396729L167.679001,621.008789L167.428711,620.685791L128.251022,584.772583L128.036316,584.615479L127.792458,584.509155L127.531120,584.458740L127.265160,584.466675L127.007439,584.532593L126.770264,584.653320L126.565300,584.822998L126.402451,585.033447L102.460556,624.211426L81.626068,736.715088L83.782600,979.631287L83.807884,979.867004L83.878723,980.093140L83.992310,980.301147L84.144279,980.483032L84.328819,980.631714L84.538872,980.741577L84.766327,980.808350L85.002419,980.829468L85.238052,980.804138L85.464188,980.733276L85.672302,980.619690L85.854095,980.467712L86.002800,980.283142L86.112663,980.073120L86.179443,979.845642L86.200554,979.609619L84.025093,737.039612L104.640602,625.281311L127.699814,587.547668L165.479904,622.179688z" fill="#FEF1B5" stroke="none" fill-opacity="1" />
				<polyline points="514.089294,726.344849 558.677795,595.035522 603.586243,566.612549 620.226379,609.405518 620.765381,723.387939 575.727966,961.868225" fill="#000000" stroke="none" fill-opacity="1" />
				<path d="M512.944580,725.956055L512.890625,726.186890L512.882874,726.423828L512.921387,726.657593L513.004883,726.879517L513.130066,727.080811L513.292114,727.253784L513.484680,727.391846L513.700684,727.489685L513.931335,727.543518L514.168274,727.551270L514.402222,727.512695L514.623962,727.429260L514.825317,727.304077L514.998169,727.142090L515.136292,726.949463L515.234192,726.733643L559.685303,595.828735L602.991699,568.419739L619.018494,609.635071L619.555847,723.277649L574.539856,961.643860L574.518921,961.879944L574.544434,962.115601L574.615540,962.341736L574.729187,962.549683L574.881348,962.731445L575.065979,962.880005L575.276062,962.989685L575.503601,963.056274L575.739624,963.077271L575.975281,963.051758L576.201416,962.980774L576.409363,962.867004L576.591125,962.714905L576.739746,962.530212L576.849365,962.320129L576.916016,962.092590L621.953552,723.612305L621.435486,609.399780L604.713135,566.174377L604.590027,565.938477L604.418213,565.735291L604.206238,565.574524L603.964111,565.464050L603.703796,565.409241L603.437683,565.412659L603.178772,565.474243L602.939575,565.590881L558.031189,594.013916L557.727844,594.287598L557.532898,594.646851z" fill="#FEF1B5" stroke="none" fill-opacity="1" />
				<polyline points="355.195251,536.543884 246.368393,459.276184 242.568497,598.717957 124.169258,586.752197 148.111099,612.870850 165.523453,659.666748 169.876495,743.464172 111.110054,877.322327 82.815109,989.414978 194.854477,844.559082 290.622101,724.848511" fill="#432F1C" stroke="none" fill-opacity="1" />
				<path d="M352.673523,540.095581L353.467072,540.542297L354.336151,540.814209L355.242737,540.899475L356.147278,540.794495L357.010223,540.503662L357.793854,540.039734L358.463898,539.423096L358.991089,538.680542L359.352386,537.844666L359.531982,536.951965L359.522034,536.041443L359.323029,535.152771L358.943542,534.324951L358.400330,533.594116L357.716949,532.992188L248.890167,455.724487L248.069901,455.266357L247.170578,454.994812L246.233871,454.922363L245.303482,455.052429L244.422623,455.379028L243.632294,455.886902L242.969223,456.552368L242.464203,457.344604L242.140900,458.226624L242.014160,459.157593L240.050873,595.855591L124.347664,584.986450L123.991287,584.986328L123.642189,585.057495L123.314270,585.196899L123.020782,585.399048L122.773636,585.655762L122.582756,585.956665L122.455841,586.289673L122.397942,586.641235L122.411491,586.997314L122.495895,587.343506L122.647751,587.665894L122.860962,587.951416L143.681473,615.581055L161.203979,660.560669L168.082336,743.135986L107.929977,875.926147L81.642776,989.119019L81.606850,989.369995L81.624016,989.622864L81.693596,989.866577L81.812386,990.090515L81.975227,990.284729L82.175041,990.440735L82.403008,990.551636L82.649055,990.612549L82.902367,990.620789L83.151855,990.576172L83.386635,990.480347L83.596169,990.337769L83.771431,990.154724L198.913254,847.751953L292.007874,725.957214L292.197571,725.665527L292.326721,725.342468L292.390289,725.000366L292.385956,724.652527L292.313843,724.312134L292.176636,723.992432L291.979736,723.705566L291.730743,723.462769L291.439056,723.273010L291.115997,723.143921L290.773926,723.080261L290.426086,723.084595L290.085754,723.156738L289.765991,723.293945L289.479156,723.490784L289.236206,723.739868L190.822159,841.333252L85.406738,984.088074L114.406532,878.453125L171.501556,744.177551L171.648956,743.372070L169.877533,659.440552L152.887863,611.093506L151.868179,609.426880L128.624710,588.986206L242.307632,601.299500L242.915665,601.289307L243.504578,601.137939L244.042114,600.853638L244.498657,600.452026L244.849243,599.955200L245.074585,599.390320L245.162247,598.788635L250.500351,467.552063z" fill="#000000" stroke="none" fill-opacity="1" />
				<polyline points="480.711212,492.909607 479.465790,631.522827 595.507019,571.119629 570.551331,591.398193 557.864136,653.418457 563.843628,769.026855 577.889404,845.074585 573.614746,989.266663 514.484131,840.696716 435.852112,723.233398 315.054291,734.116211 260.640961,674.260864 336.819702,532.784790" fill="#432F1C" stroke="none" fill-opacity="1" />
				<path d="M485.066864,492.948730L484.990875,492.098267L484.750305,491.278931L484.354584,490.522278L483.818756,489.857361L483.163605,489.309753L482.414215,488.900452L481.599274,488.645203L480.750397,488.553894L479.899841,488.629944L479.080505,488.870422L478.323822,489.266235L477.658936,489.802002L477.111328,490.457153L476.702087,491.206604L476.446899,492.021423L476.355499,492.870483L476.871216,631.499512L476.921265,632.030640L477.078949,632.540283L477.337463,633.006958L477.686005,633.410889L478.109772,633.734985L478.590820,633.965576L479.108887,634.092834L479.642059,634.111511L480.167786,634.020752L480.663727,633.824341L580.826111,580.762329L567.337280,587.442749L566.193359,588.755493L565.558105,590.376709L553.592468,652.544678L562.071167,769.118530L574.406982,845.341553L572.579163,983.395203L519.281921,838.787170L437.326935,722.246094L437.013306,721.891174L436.616913,721.631897L436.166016,721.486694L435.692871,721.465820L315.144470,733.884949L260.911163,674.227783L337.015381,532.890198L337.032227,532.849976L337.040802,532.807251L337.040924,532.763672L337.032562,532.720947L337.016022,532.680664L336.991943,532.644348L336.961273,532.613464L336.925079,532.589172L336.884918,532.572388L336.842194,532.563782L336.798615,532.563599L336.755890,532.571960L336.715576,532.588562L336.679291,532.612610L336.648376,532.643311L336.624054,532.679443L260.445312,674.155579L260.425598,674.206421L260.418793,674.260620L260.425415,674.314819L260.445038,674.365784L260.476501,674.410400L314.889893,734.265686L314.942810,734.308472L315.006317,734.333191L315.074219,734.337524L434.962952,725.095459L509.888489,843.114624L572.491333,989.713745L572.609375,989.938354L572.771790,990.133362L572.971130,990.290283L573.198914,990.402039L573.445007,990.463745L573.698608,990.472778L573.948425,990.428711L574.183594,990.333496L574.393677,990.191223L574.569641,990.008301L574.703247,989.792664L574.789062,989.553955L574.823242,989.302490L581.360962,845.177612L565.609924,768.818970L562.246948,653.748047L575.179626,594.204712L596.626282,572.497009L596.888794,572.233459L597.090576,571.921082L597.222839,571.573486L597.279724,571.205933L597.258789,570.834656L597.160950,570.475830L596.990417,570.145264L596.754822,569.857544L596.464417,569.625183L596.132019,569.458496L595.772095,569.364746L595.400452,569.348022L595.033691,569.409180L594.687622,569.545288L482.099182,627.226868z" fill="#000000" stroke="none" fill-opacity="0.821325898" />
				<polygon points="348.867920,399.820312 282.089783,424.642334 247.668732,458.810242 266.397797,487.916199 337.686035,578.447876 368.737823,651.485474 423.406738,592.005737 479.824951,498.412598 478.512878,444.181091 456.208008,403.507446 395.416260,396.072449" fill="#231800" stroke="none" fill-opacity="1" />
				<path d="M350.385590,403.903198L351.152954,403.528687L351.832520,403.011658L352.398193,402.371887L352.828156,401.634216L353.105957,400.826660L353.220856,399.980591L353.168488,399.128235L352.950836,398.302612L352.576324,397.535217L352.059296,396.855713L351.419617,396.289978L350.681854,395.859985L349.874390,395.582275L349.028259,395.467346L348.175995,395.519714L347.350250,395.737305L281.471375,422.978821L280.839417,423.382812L242.972198,454.078796L242.028519,455.256165L241.373734,456.615479L241.041412,458.087280L241.048553,459.596130L241.394852,461.064636L242.062500,462.417725L263.830933,489.567871L335.957275,579.471252L367.088074,652.186951L367.282715,652.532715L367.548798,652.827148L367.873077,653.055908L368.239746,653.207642L368.630829,653.275024L369.027130,653.254761L369.409241,653.147705L369.758545,652.959351L370.057800,652.698608L425.224152,593.676208L485.534546,501.854370L486.269043,500.120972L486.489716,498.251404L480.601868,444.130615L480.345001,443.176392L460.496094,401.155945L459.824554,400.215271L458.951050,399.458557L457.924286,398.927856L456.801727,398.653015L395.710663,393.665222L348.518372,395.478455L347.677948,395.630066L346.883392,395.942688L346.165070,396.404358L345.550629,396.997375L345.063629,397.698730L344.722809,398.481689L344.541321,399.316101L344.526093,400.169800L344.677734,401.010132L344.990356,401.804810L345.452026,402.523132L346.045013,403.137573L346.746368,403.624634L347.529327,403.965393L348.363739,404.146851L349.217468,404.162109L395.365845,398.509521L453.125488,408.057434L476.436218,444.739868L473.113342,496.633362L421.421051,590.518433L369.299622,648.225037L339.518555,577.668701L268.885834,486.142212L256.194916,459.740295L283.067780,426.172180z" fill="#000000" stroke="none" fill-opacity="1" />
				<polyline points="331.097076,1150.428711 289.929382,1005.361938 223.276978,774.039307 262.484375,701.505920 303.652008,654.457275 338.107269,677.578247 381.217072,690.057434 435.671387,683.250610 475.377777,742.242981 479.915619,780.814941 473.108765,1026.994629 463.307007,1179.902832" fill="#231800" stroke="none" fill-opacity="1" />
				<path d="M329.181396,1150.972412L329.324280,1151.335693L329.535248,1151.664185L329.806244,1151.945068L330.126923,1152.167725L330.484833,1152.323608L330.866211,1152.406616L331.256500,1152.413696L331.640656,1152.344482L332.004028,1152.201538L332.332397,1151.990601L332.613312,1151.719604L332.835999,1151.398926L332.991882,1151.041016L333.074921,1150.659668L333.081940,1150.269287L333.012726,1149.885132L291.845001,1004.818359L225.415817,774.270142L264.129913,702.649170L303.997009,657.086914L337.108368,679.066895L380.718536,691.779419L381.439423,691.836304L434.799774,685.166260L473.648010,742.883728L478.119904,780.895386L471.317627,1026.912476L461.517914,1179.788208L461.529846,1180.139404L461.610199,1180.481567L461.755646,1180.801392L461.960846,1181.086792L462.217651,1181.326660L462.516327,1181.511841L462.845490,1181.635254L463.192291,1181.691895L463.543518,1181.679932L463.885620,1181.599609L464.205536,1181.454224L464.490967,1181.249023L464.730804,1180.992188L464.915985,1180.693481L465.039307,1180.364380L465.096069,1180.017578L474.897888,1027.109375L481.707672,780.864502L477.158203,742.033508L476.864990,741.241943L437.158630,682.249634L436.830017,681.882568L436.413910,681.618835L435.941681,681.478394L435.449036,681.471680L381.360901,688.232727L338.874207,675.933960L304.761597,652.803711L304.335876,652.587036L303.870667,652.477966L303.392944,652.482849L302.930145,652.601440L302.508820,652.826782L302.153381,653.145996L260.985687,700.194641L221.525284,773.092407L221.341263,773.572083L221.286163,774.082825L221.363525,774.590637L288.014832,1005.909485z" fill="#000000" stroke="none" fill-opacity="1" />
			</g>
			<g id="layer.head.uuid_0x2" />
			<g id="layer.eyes.uuid_0x3">
				<polygon points="164.272552,473.270386 194.336182,472.920837 218.886337,457.759644 229.111557,430.013733 221.069870,402.346191 196.363846,381.730042 165.483856,382.798950 142.365585,399.281311 133.970200,426.868958 141.541946,453.340515" fill="#000000" stroke="none" fill-opacity="1" />
				<path d="M164.248810,471.230591L163.851242,471.274353L163.469925,471.394958L163.119507,471.587524L162.813309,471.844788L162.563263,472.156799L162.378845,472.511719L162.267212,472.895752L162.232651,473.294128L162.276474,473.691650L162.396988,474.072937L162.589645,474.423401L162.846893,474.729614L163.159042,474.979614L163.513809,475.164062L163.897873,475.275696L164.296249,475.310181L194.352493,474.330750L195.077072,474.120483L219.481598,458.723450L219.763397,458.476624L219.949265,458.151367L230.174500,430.405457L230.243683,430.053528L230.199326,429.697571L222.157684,402.030029L222.017944,401.726196L221.795654,401.476379L197.102325,380.845093L196.737839,380.639709L196.324020,380.578064L165.408722,380.626587L164.785767,380.740417L164.222076,381.029053L140.324936,396.419128L139.511719,397.229187L139.002747,398.257996L130.463959,425.801941L130.305344,426.838196L130.446564,427.876831L138.867249,454.105591L139.192032,454.829529L139.707916,455.432312L162.927643,474.804321L163.252716,475.037231L163.616913,475.202209L164.006424,475.292969L164.406113,475.306030L164.800705,475.240784L165.174927,475.099915L165.514572,474.888672L165.806396,474.615295L166.039291,474.290222L166.204315,473.925903L166.295059,473.536499L166.308105,473.136780L166.242874,472.742188L166.102066,472.367920L165.890808,472.028381L165.617355,471.736450L143.991623,451.788452L137.791275,426.901062L145.380081,401.448975L166.213013,384.948608L195.963531,382.897278L220.078568,402.994385L227.919662,429.971863L217.958618,457.001099L193.928375,471.515442z" fill="#FEF1B5" stroke="none" fill-opacity="1" />
				<polygon points="175.336761,454.610229 189.174896,457.819946 203.039246,452.419495 212.507797,438.613831 213.591431,422.785583 205.822617,408.876160 191.486374,405.962036 178.050446,412.236755 169.447693,426.163940 168.354889,441.294128" fill="#FEE870" stroke="none" fill-opacity="1" />
				<path d="M175.823364,452.512207L175.404678,452.457642L174.983429,452.485657L174.575729,452.595398L174.197327,452.782593L173.862701,453.040039L173.584656,453.357727L173.373917,453.723633L173.238647,454.123596L173.184067,454.542297L173.212219,454.963501L173.321915,455.371155L173.509140,455.749634L173.766464,456.084290L174.084259,456.362305L174.450119,456.572937L174.850098,456.708252L188.834549,459.287048L189.282806,459.322083L189.721466,459.223267L203.478470,453.546936L203.791107,453.367432L204.037109,453.103882L213.505615,439.298218L213.714981,438.696472L214.798553,422.868286L214.772125,422.520996L214.647842,422.195618L206.878967,408.286133L206.668793,408.011230L206.389389,407.807129L206.063629,407.690430L191.845322,404.196045L191.273804,404.172485L190.723801,404.329224L177.115631,410.234985L176.581818,410.586365L176.170868,411.075745L167.485718,424.952026L167.147583,425.997864L166.075333,441.129395L166.117447,441.760193L166.330780,442.355347L173.429321,455.610352L173.661057,455.963196L173.957230,456.264099L174.306396,456.501465L174.695145,456.666077L175.108566,456.751770L175.530792,456.755188L175.945526,456.676086L176.336792,456.517639L176.689743,456.285889L176.990601,455.989746L177.227951,455.640564L177.392624,455.251770L177.478348,454.838379L177.481613,454.416199L177.402588,454.001465L177.244095,453.610107L170.681244,440.809448L171.707092,426.894409L179.583206,413.959229L191.710098,407.846497L205.037155,409.951233L212.359756,423.061707L211.323166,438.201721L202.252396,451.427429L189.061829,456.247681z" fill="#621A08" stroke="none" fill-opacity="1" />
				<polygon points="528.114380,465.200867 554.997131,478.664246 583.765381,476.436035 605.566406,456.458496 611.094666,428.181335 598.580017,398.536926 570.642151,385.338806 542.541260,389.397400 522.439148,410.072632 517.041199,437.071533" fill="#000000" stroke="none" fill-opacity="1" />
				<path d="M529.017334,463.397949L528.648254,463.256470L528.258728,463.189697L527.863525,463.200134L527.478027,463.287476L527.117065,463.448486L526.794312,463.676697L526.522278,463.963501L526.311462,464.297913L526.170044,464.666992L526.103210,465.056580L526.113708,465.451721L526.201050,465.837219L526.361938,466.198303L526.590271,466.520935L526.877075,466.792969L527.211426,467.003723L554.365662,479.925049L555.105957,480.070068L583.852844,477.565430L584.216370,477.475220L584.530640,477.271179L606.331787,457.293701L606.554504,457.012573L606.678223,456.675842L612.206482,428.398743L612.221436,428.064636L612.138428,427.740784L599.623596,398.096252L599.397522,397.752869L599.063843,397.512634L571.362732,383.813232L570.892517,383.670288L570.401001,383.668945L542.245667,387.350281L541.601929,387.554688L541.058350,387.955627L520.891174,408.567627L520.528442,409.067383L520.322083,409.649414L514.942993,436.651978L514.909973,437.261353L515.050232,437.855286L526.238098,465.939453L526.418274,466.291321L526.663635,466.601257L526.964661,466.857361L527.309998,467.049805L527.686157,467.171204L528.078796,467.216919L528.472778,467.185059L528.852966,467.077087L529.204773,466.896912L529.514832,466.651611L529.770935,466.350525L529.963318,466.005310L530.084717,465.629089L530.130432,465.236511L530.098694,464.842529L529.990601,464.462280L519.262878,436.873657L524.431335,411.120850L543.533569,391.343933L570.380615,387.081238L597.704773,399.376282L609.916504,428.303345L604.526123,455.875244L583.288208,475.336792L555.278442,477.228210z" fill="#FEF1B5" stroke="none" fill-opacity="1" />
				<polygon points="556.432983,456.240906 572.989441,456.045166 586.509338,447.553650 592.140564,432.013550 587.711914,416.517395 574.106018,404.970581 557.100220,405.569153 544.368652,414.800720 539.745239,430.252258 543.915100,445.078491" fill="#FEE870" stroke="none" fill-opacity="1" />
				<path d="M556.403625,453.749451L555.918152,453.803101L555.452393,453.950378L555.024353,454.185730L554.650452,454.500000L554.345032,454.881226L554.119934,455.314758L553.983643,455.783752L553.941528,456.270447L553.995239,456.755920L554.142456,457.221619L554.377808,457.649658L554.692139,458.023560L555.073364,458.328918L555.506897,458.554077L555.975830,458.690308L556.462585,458.732422L573.010010,457.787415L573.916199,457.520630L587.253906,448.739014L587.598938,448.432495L587.825562,448.030457L593.456604,432.490479L593.539490,432.062012L593.486450,431.628906L589.057861,416.132629L588.888306,415.758728L588.617676,415.450073L575.011841,403.903259L574.565247,403.648193L574.056824,403.571594L557.026855,403.485596L556.421997,403.597656L555.876221,403.881348L542.868347,412.731506L542.284119,413.321777L541.919983,414.068054L537.189209,429.487366L537.077393,430.230103L537.176941,430.974487L541.369751,445.794434L541.672668,446.479431L542.155396,447.051941L554.774780,458.100708L555.169373,458.388428L555.612671,458.593689L556.087402,458.708557L556.575500,458.728577L557.057983,458.653015L557.516541,458.484680L557.933472,458.230164L558.292786,457.899231L558.580505,457.504578L558.785767,457.061340L558.900574,456.586609L558.920654,456.098511L558.845093,455.616028L558.676880,455.157410L558.422363,454.740540L558.091370,454.381226L546.251160,443.619141L542.523132,430.275208L546.569336,416.362183L557.809143,407.630432L573.613586,406.388611L586.482544,417.310059L590.669983,431.962585L585.357300,446.624146L572.478210,454.308655z" fill="#621A08" stroke="none" fill-opacity="1" />
				<polygon points="402.495178,141.577515 432.558777,141.227844 457.109009,126.066711 467.334198,98.320801 459.292480,70.653259 434.586517,50.037231 403.706512,51.105957 380.588196,67.588318 372.192810,95.176025 379.764618,121.647644" fill="#000000" stroke="none" fill-opacity="1" />
				<path d="M402.470856,139.486816L402.063385,139.531738L401.672638,139.655212L401.313385,139.852539L400.999542,140.116272L400.743256,140.436157L400.554230,140.799866L400.439819,141.193420L400.404419,141.601868L400.449310,142.009216L400.572845,142.400024L400.770264,142.759277L401.033966,143.073059L401.353821,143.329407L401.717529,143.518372L402.111084,143.632812L402.519470,143.668213L432.578949,142.958557L433.468201,142.700439L458.268066,127.943420L458.816742,127.462830L459.178741,126.829529L470.845825,99.615051L471.074402,98.452271L470.927979,97.276306L463.560272,69.412842L463.012146,68.220825L462.139923,67.240845L436.729370,47.469116L435.671570,46.873413L434.470764,46.694580L403.620850,48.631104L402.911163,48.760742L402.268951,49.089600L379.221436,65.671326L378.676727,66.213867L378.335907,66.902893L370.039307,94.520752L369.941864,95.157043L370.028625,95.795044L377.665283,122.248108L377.920197,122.816406L378.325073,123.289368L401.116730,143.149658L401.449921,143.388306L401.823273,143.557495L402.222443,143.650452L402.632141,143.663818L403.036530,143.597046L403.420074,143.452576L403.768219,143.236145L404.067291,142.955872L404.306030,142.622681L404.475098,142.249268L404.568146,141.850220L404.581543,141.440552L404.514679,141.036133L404.370270,140.652466L404.153809,140.304443L403.873596,140.005432L381.687286,120.429382L374.539673,95.195679L382.607300,69.040222L404.537201,53.555176L433.424927,53.423950L455.403351,73.196350L463.396545,98.182556L455.302429,124.589844L432.058228,139.502930z" fill="#FEF1B5" stroke="none" fill-opacity="1" />
				<polygon points="396.752808,90.666809 385.946014,97.153625 381.969116,108.723999 387.297058,122.580688 399.235077,132.552673 414.928375,136.037170 425.797333,129.075073 428.823486,117.249573 422.882416,103.845093 411.504852,94.278381" fill="#FEE870" stroke="none" fill-opacity="1" />
				<path d="M397.770874,92.362732L398.082214,92.131653L398.342438,91.844238L398.541595,91.511414L398.671997,91.146301L398.728607,90.762634L398.709351,90.375366L398.614929,89.999146L398.448883,89.648743L398.217651,89.337402L397.930176,89.077148L397.597443,88.877991L397.232239,88.747620L396.848602,88.690918L396.461273,88.710266L396.085205,88.804688L395.734802,88.970703L385.234161,95.967590L384.870972,96.283142L384.637909,96.704041L380.918121,108.362671L380.857910,108.743896L380.931763,109.122803L386.259766,122.979492L386.584625,123.433594L398.522644,133.405640L398.994202,133.637634L414.687469,137.122131L414.977448,137.147522L415.264130,137.096619L415.527832,136.973022L426.690155,130.468933L427.007385,130.204468L427.249359,129.869629L427.400879,129.485474L430.789307,117.752563L430.845612,117.080566L430.678589,116.427368L424.818848,102.986877L424.245575,102.224121L412.855835,92.671814L412.003998,92.239502L397.223206,88.745483L396.839264,88.690552L396.452087,88.711731L396.076477,88.807861L395.726807,88.975647L395.416534,89.208313L395.157684,89.496887L394.960144,89.830627L394.831390,90.196411L394.776611,90.580322L394.797638,90.967590L394.893890,91.343079L395.061554,91.692871L395.294189,92.003052L395.582947,92.261902L395.916656,92.459473L396.282440,92.588257L410.529327,96.200745L421.144440,105.151184L426.683228,117.428406L424.355499,128.033020L414.718079,134.852051L399.739990,131.526428L388.230927,121.912720L383.151550,108.702637L387.090302,98.079956z" fill="#621A08" stroke="none" fill-opacity="1" />
				<polygon points="193.599472,431.764099 188.096863,440.935120 189.197388,453.407776 200.569550,448.638794 208.374420,437.258728 209.424362,423.139343" fill="#E5A943" stroke="none" fill-opacity="1" />
				<polygon points="571.080200,429.196228 565.944458,436.899902 571.813843,451.940369 583.552856,444.603577 588.423035,432.122925 586.171265,423.139343" fill="#E5A943" stroke="none" fill-opacity="1" />
				<polygon points="411.423157,112.343567 412.393097,120.565796 423.205872,126.858521 425.059021,117.214722 420.608856,105.977295 416.008423,103.291260" fill="#E5A943" stroke="none" fill-opacity="1" />
				<polygon points="184.394363,445.317444 188.067856,446.248169 192.183136,443.035278 195.504272,435.973511 196.603546,428.310364 195.152145,421.962830 191.325699,421.196350 187.285080,424.810791 184.197739,431.892761 183.131332,439.220398" fill="#231800" stroke="none" fill-opacity="1" />
				<path d="M184.534439,444.764771L184.423889,444.748047L184.312302,444.753357L184.203812,444.780151L184.102646,444.827637L184.012695,444.894043L183.937393,444.976562L183.879715,445.072266L183.841782,445.177429L183.825073,445.287903L183.830154,445.399597L183.857056,445.508057L183.904556,445.609192L183.970917,445.699158L184.053482,445.774475L184.149216,445.832214L184.254395,445.870117L187.969955,446.634644L188.089996,446.646240L188.207977,446.621460L188.313217,446.562378L192.380280,443.287781L192.473083,443.171631L195.794159,436.109863L196.920609,428.355896L195.464401,421.891418L195.439896,421.822205L195.400375,421.760376L195.347717,421.709167L195.284897,421.671326L195.215088,421.648804L191.419373,420.728699L191.309326,420.719666L191.200317,420.736084L191.097855,420.777283L191.007660,420.840820L186.895233,424.374939L186.749039,424.577087L183.638123,431.648743L182.532623,439.133362L183.836121,445.433044L183.869415,445.539795L183.922852,445.637878L183.994507,445.723755L184.081421,445.793945L184.180344,445.845947L184.287582,445.877502L184.398880,445.887573L184.510056,445.875732L184.616776,445.842468L184.714905,445.789001L184.800735,445.717346L184.870880,445.630493L184.922836,445.531433L184.954422,445.424255L184.964508,445.312927L184.952713,445.201843L183.745361,439.202148L184.790039,432.061584L187.770126,425.161621L191.466003,421.710999L194.886063,422.236206L196.278015,428.323792L195.194031,435.880554L191.925827,442.829895L187.976471,445.813721z" fill="#000000" stroke="none" fill-opacity="1" />
				<polygon points="563.109497,438.304993 567.735107,438.243042 571.512329,435.557739 573.085571,430.643616 571.848328,425.743408 568.047058,422.091919 563.295837,422.281250 559.738892,425.200500 558.447144,430.086670 559.612183,434.775085" fill="#231800" stroke="none" fill-opacity="1" />
				<path d="M563.100220,437.608948L562.964661,437.624084L562.834473,437.665405L562.715027,437.731445L562.610779,437.819458L562.525635,437.926025L562.462952,438.047241L562.425049,438.178345L562.413452,438.314331L562.428711,438.449951L562.470032,438.580017L562.535950,438.699524L562.623901,438.803833L562.730591,438.888916L562.851807,438.951599L562.982849,438.989502L563.118896,439.001038L567.741577,438.729797L567.886230,438.705811L568.017151,438.639832L571.738892,435.876526L571.828064,435.788574L571.884766,435.677063L573.458008,430.762939L573.476501,430.655884L573.464844,430.547913L572.227478,425.647644L572.186340,425.546875L572.119202,425.461304L568.303772,421.824646L568.223755,421.766174L568.130920,421.731018L568.032288,421.721558L563.272583,421.699219L563.088623,421.736816L562.926270,421.831055L559.285889,424.648499L559.138184,424.814575L559.048584,425.017944L557.726562,429.896118L557.723816,430.266418L558.895325,434.953308L559.087463,435.295044L562.614990,438.794922L562.720093,438.882019L562.840149,438.946899L562.970581,438.987122L563.106323,439.001099L563.242126,438.988403L563.372925,438.949402L563.493591,438.885559L563.599426,438.799500L563.686523,438.694397L563.751404,438.574341L563.791687,438.443970L563.805664,438.308228L563.792847,438.172363L563.753906,438.041626L563.690063,437.920959L563.604004,437.815063L560.280029,434.399658L559.216675,430.092346L560.370361,425.606079L563.514282,422.855530L567.904114,422.468567L571.496521,425.947754L572.679016,430.630981L571.179504,435.314453L567.576782,437.758301z" fill="#000000" stroke="none" fill-opacity="1" />
				<polygon points="402.310120,102.288025 398.361908,104.892090 397.562500,109.929321 400.722961,116.220642 406.304260,120.955994 412.956360,122.906006 416.896301,120.092346 417.289398,114.917542 413.911133,108.811218 408.587189,104.270569" fill="#231800" stroke="none" fill-opacity="1" />
				<path d="M402.719421,102.908813L402.832642,102.816956L402.925812,102.704956L402.995270,102.576843L403.038422,102.437622L403.053589,102.292603L403.040192,102.147522L402.998688,102.007690L402.930725,101.878845L402.838989,101.765503L402.726898,101.672485L402.598724,101.602966L402.459564,101.559753L402.314575,101.544617L402.169403,101.557983L402.029724,101.599487L401.900757,101.667419L398.075562,104.458069L397.967865,104.552856L397.890167,104.673340L397.848419,104.810547L397.149933,109.863953L397.149689,109.993347L397.189240,110.116882L400.349640,116.408020L400.452637,116.539062L406.033997,121.274536L406.186798,121.356812L412.838867,123.306885L412.963318,123.323730L413.087128,123.302795L413.199158,123.246033L417.257874,120.598755L417.388153,120.473450L417.476959,120.315857L417.516663,120.139709L418.049835,114.975403L418.034576,114.755066L417.956757,114.548340L414.607788,108.425903L409.099182,103.670288L408.824799,103.518188L402.533966,101.579041L402.391357,101.549072L402.245575,101.547363L402.102356,101.574219L401.967072,101.628540L401.844971,101.708130L401.740784,101.809875L401.658356,101.930176L401.601074,102.064209L401.571045,102.206848L401.569336,102.352539L401.596100,102.495911L401.650421,102.631165L401.730011,102.753296L401.831940,102.857483L401.952179,102.939758L402.086151,102.997070L408.196960,104.974731L413.284546,109.323120L416.511597,115.087097L416.298004,119.755188L412.878906,122.448059L406.506866,120.580139L401.058014,115.957092L397.996155,109.862000L398.839478,105.199890z" fill="#000000" stroke="none" fill-opacity="1" />
				<polyline points="387.218811,100.241394 401.343262,104.780396 400.554016,110.831482 384.768555,108.726624" fill="#FEFEFE" stroke="none" fill-opacity="1" />
				<polyline points="180.126801,416.572754 190.197311,429.361389 187.293777,432.727966 174.201492,426.925842" fill="#FEFEFE" stroke="none" fill-opacity="1" />
				<polyline points="547.049683,416.271973 562.521729,428.257874 560.794434,432.861450 542.433350,429.152527" fill="#FEFEFE" stroke="none" fill-opacity="1" />
				<polyline points="252.861282,200.118103 211.494293,312.184631 209.237885,349.790894 243.835648,376.115295 328.825806,398.678955 357.582733,404.976074 378.363251,425.756531 394.105957,401.407776 495.938873,388.792908 528.530945,361.841858 517.875916,332.383606 499.072754,259.051697 489.671173,197.628357" fill="#231800" stroke="none" fill-opacity="1" />
				<path d="M259.115448,202.426758L259.445618,201.162231L259.522736,199.857605L259.343964,198.563110L258.915985,197.328125L258.255371,196.200500L257.387482,195.223511L256.345612,194.434448L255.169830,193.863953L253.905319,193.533752L252.600677,193.456482L251.306061,193.635315L250.071243,194.063293L248.943619,194.724060L247.966522,195.591919L247.177567,196.633728L246.607071,197.809570L208.633636,311.128662L206.653793,349.635803L206.693405,350.267456L206.885147,350.870544L207.217300,351.409180L207.670441,351.851074L241.796783,378.794922L242.971619,379.369629L327.848724,402.359375L355.678741,408.457275L375.670593,428.449158L376.332031,428.977539L377.093903,429.346680L377.918549,429.538513L378.765045,429.543213L379.591736,429.360840L380.357727,429.000427L381.025146,428.479553L381.560944,427.824097L396.338470,404.968140L496.407013,392.571899L497.446625,392.289551L498.365570,391.727417L530.957703,364.776428L531.597778,364.098938L532.054260,363.286377L532.299622,362.387207L532.319153,361.455322L532.111816,360.546631L521.519043,331.260620L502.808197,258.288879L493.435211,197.052246L493.250519,196.328918L492.928253,195.655579L492.480774,195.058105L491.925446,194.559326L491.283386,194.178589L490.579346,193.930420L489.840454,193.824219L489.095093,193.864319L488.371765,194.049011L487.698456,194.371216L487.101044,194.818787L486.602173,195.374146L486.221436,196.016235L485.973206,196.720215L485.867157,197.459106L485.907166,198.204468L495.308624,259.627808L514.187378,333.329468L524.038208,360.615845L494.368378,385.150452L393.637848,397.628723L392.572571,397.922180L391.636444,398.509155L390.908234,399.340210L377.723846,419.732117L360.275299,402.283447L359.409912,401.635254L358.397247,401.256287L329.722076,394.977112L245.343979,373.031921L211.904739,348.567078L214.511246,312.817505z" fill="#000000" stroke="none" fill-opacity="1" />
				<polygon points="290.205719,321.954529 279.101990,361.458923 292.594971,368.422974 304.602753,356.921692 292.891327,321.701172" fill="#FEE870" stroke="none" fill-opacity="1" />
				<path d="M292.425781,322.578552L292.504852,322.133362L292.495605,321.681396L292.398315,321.239929L292.216797,320.825928L291.957947,320.455261L291.631775,320.142273L291.250793,319.898865L290.829773,319.734497L290.384674,319.655334L289.932648,319.664612L289.491180,319.761902L289.077118,319.943481L288.706512,320.202271L288.393463,320.528381L288.150085,320.909424L287.985687,321.330444L276.901764,360.840515L276.818909,361.353943L276.854309,361.872803L277.006134,362.370239L277.266479,362.820496L277.621735,363.200195L278.053833,363.489807L291.546753,370.453857L292.077545,370.649109L292.639893,370.707947L293.199615,370.627014L293.722229,370.411072L294.175873,370.073425L306.188324,358.577087L306.518494,358.180481L306.751465,357.720093L306.875580,357.219238L306.884583,356.703247L306.777924,356.198364L295.073029,320.975708L294.857422,320.509277L294.543488,320.102356L294.147186,319.775330L293.688049,319.544495L293.189178,319.421387L292.675354,319.412170L289.989136,319.658569L289.545410,319.744934L289.127014,319.916260L288.750153,320.165833L288.429108,320.484192L288.176453,320.859009L288.001740,321.276001L287.911774,321.718994L287.909821,322.171082L287.996094,322.614746L288.167480,323.033142L288.417023,323.410034L288.735352,323.731079L289.110260,323.983704L289.527222,324.158508L289.970154,324.248596L290.422241,324.250427L291.635345,323.627075L301.970032,356.269165L292.192841,365.643555L281.806458,360.282959z" fill="#621A08" stroke="none" fill-opacity="1" />
				<polyline points="291.500702,321.291443 292.258240,367.908813 304.222870,356.364075" fill="#E5A943" stroke="none" fill-opacity="1" />
				<polyline points="284.332123,337.339172 282.879456,343.607422 291.221893,358.478638" fill="#FEFEFE" stroke="none" fill-opacity="1" />
				<polyline points="286.196655,331.459534 285.366364,335.042603 290.135010,343.543274" fill="#FEFEFE" stroke="none" fill-opacity="1" />
				<polygon points="435.998779,331.024231 425.306335,368.455200 443.363281,368.889832 446.677063,362.324768 437.665283,331.583862" fill="#FEE870" stroke="none" fill-opacity="1" />
				<path d="M438.216187,331.657593L438.297119,331.212830L438.289764,330.760864L438.194427,330.318909L438.014618,329.904175L437.757385,329.532349L437.432495,329.218018L437.052612,328.972961L436.632202,328.806824L436.187500,328.725891L435.735474,328.733215L435.293549,328.828613L434.878723,329.008362L434.506989,329.265564L434.192566,329.590454L433.947601,329.970398L433.781372,330.390808L423.108826,367.827576L423.023804,368.340698L423.057007,368.859924L423.206787,369.358093L423.465393,369.809570L423.819336,370.190735L424.250366,370.482056L424.736084,370.668396L425.251343,370.740051L443.308289,371.174561L443.820465,371.129150L444.309540,370.970215L444.750702,370.705933L445.121643,370.349731L445.403534,369.919678L448.723450,363.357727L448.915833,362.817444L448.968018,362.246216L448.876801,361.679993L438.732361,331.271057L438.627258,331.025940L438.466766,330.812927L438.260101,330.644348L438.019287,330.529724L436.732971,328.838074L436.292358,328.736816L435.840515,328.723511L435.394714,328.798645L434.972107,328.959229L434.588959,329.199219L434.260010,329.509277L433.997894,329.877625L433.812744,330.290039L433.711456,330.730591L433.698151,331.182495L433.773224,331.628235L433.933807,332.050903L434.173767,332.434021L434.483917,332.763000L434.852264,333.025085L435.264648,333.210266L436.761353,332.453369L444.222504,362.100464L441.974030,366.570374L428.315491,366.241577z" fill="#621A08" stroke="none" fill-opacity="1" />
				<polyline points="436.772614,330.915283 443.378479,368.707886 446.702301,362.019470" fill="#E5A943" stroke="none" fill-opacity="1" />
				<polyline points="433.270294,342.329590 432.012787,350.379578 443.103424,367.588928" fill="#FEFEFE" stroke="none" fill-opacity="1" />
				<polyline points="434.702789,336.421021 433.993286,340.412048 439.030426,349.445374" fill="#FEFEFE" stroke="none" fill-opacity="1" />
				<polyline points="451.634033,270.642395 450.430328,302.097656 441.510803,308.795166 436.731995,328.388611 436.007111,310.595215 403.880859,342.613770 364.484436,374.093506 337.910553,351.539429 294.934662,304.815308 292.454041,319.439148 290.827545,304.441895 281.493134,296.227661 281.976532,265.186462" fill="#000000" stroke="none" fill-opacity="1" />
				<path d="M452.229584,270.665161L452.222626,270.548523L452.192963,270.435608L452.141815,270.330505L452.071259,270.237427L451.983887,270.159912L451.882935,270.100830L451.772583,270.062744L451.656799,270.046814L451.540192,270.053833L451.427185,270.083435L451.322052,270.134521L451.228973,270.205200L451.151428,270.292603L451.092499,270.393372L451.054352,270.503906L451.038422,270.619629L449.505951,301.613403L441.152954,308.318604L441.013214,308.467102L440.931824,308.654053L436.889801,326.803650L436.602692,310.570923L436.584473,310.447144L436.540833,310.329834L436.473663,310.224304L436.385925,310.135071L436.281494,310.066101L436.165009,310.020508L436.041443,310.000183L435.916473,310.006165L435.795502,310.038025L435.683838,310.094482L435.586456,310.173035L403.483307,342.168518L364.521942,371.554321L338.324249,351.108887L295.489868,304.304626L295.375671,304.203308L295.243439,304.127075L295.098541,304.079041L294.946960,304.061157L294.794800,304.074097L294.648468,304.117432L294.513885,304.189270L294.396332,304.286865L294.301025,304.406067L294.231659,304.541992L294.190948,304.689148L292.502502,317.824768L291.420074,304.377563L291.386322,304.234680L291.318695,304.104309L291.221222,303.994507L282.962646,295.577087L282.864105,265.200256L282.849823,265.026794L282.801849,264.859558L282.722229,264.704834L282.613953,264.568604L282.481140,264.456055L282.328979,264.371765L282.163300,264.318604L281.990448,264.298828L281.816986,264.313171L281.649689,264.361145L281.494965,264.440735L281.358795,264.549011L281.246277,264.681763L281.161865,264.833984L281.108795,264.999695L281.089020,265.172546L280.034180,296.204895L280.087952,296.620667L280.257629,297.003845L280.529236,297.323059L290.259979,304.736328L292.233093,319.463074L292.242554,319.507507L292.260986,319.549072L292.287292,319.585999L292.320587,319.616882L292.359497,319.640198L292.402435,319.655273L292.447388,319.661316L292.492676,319.657959L292.536316,319.645569L292.576599,319.624512L292.611725,319.595703L292.640228,319.560425L292.661072,319.520020L292.673187,319.476257L295.421021,306.458374L337.471893,351.942871L363.216034,375.587891L363.589539,375.837402L364.010010,375.995300L364.455414,376.053467L364.902283,376.008606L365.327271,375.863159L365.708008,375.624817L404.252930,343.079346L435.466919,311.975098L436.509979,328.397705L436.516388,328.442566L436.531860,328.485291L436.555634,328.523804L436.586700,328.556885L436.623871,328.582886L436.665558,328.600769L436.709961,328.609802L436.755341,328.609619L436.799744,328.600342L436.841217,328.582214L436.878265,328.556030L436.909149,328.522827L436.932709,328.484070L436.947906,328.441345L442.039246,309.143677L450.996155,302.851196L451.191437,302.653198L451.320404,302.406860L451.371979,302.133667z" fill="#FEF1B5" stroke="none" fill-opacity="1" />
				<polygon points="355.308319,186.300171 285.218628,190.652466 252.861282,200.118103 261.347961,225.659851 325.400787,336.559998 365.603973,394.509827 410.561707,331.269409 470.510773,228.077881 490.797607,197.010803 470.215363,194.780518 396.526672,189.162537" fill="#432F1C" stroke="none" fill-opacity="1" />
				<path d="M355.446106,188.519531L355.876404,188.449951L356.284912,188.297729L356.655853,188.068848L356.975037,187.771973L357.230164,187.418579L357.411377,187.022095L357.511871,186.597961L357.527618,186.162292L357.458099,185.731995L357.306000,185.323486L357.077057,184.952576L356.780121,184.633423L356.426697,184.378235L356.030243,184.196960L355.606079,184.096558L355.170532,184.080811L285.108643,188.881104L250.989456,193.719604L249.582535,194.313416L248.347610,195.211853L247.349548,196.367676L246.640717,197.720276L246.258255,199.198730L246.222321,200.725464L246.534637,202.220215L258.451355,226.622314L323.676392,337.555847L364.131042,395.531738L364.380310,395.820007L364.684906,396.049072L365.031097,396.208618L365.403198,396.291321L365.784363,396.293579L366.157318,396.215088L366.505280,396.059570L366.812469,395.833984L367.065155,395.548645L412.573578,332.699646L476.187836,231.577209L492.547150,198.153320L492.742401,197.774902L492.856964,197.364685L492.885925,196.940002L492.828247,196.518127L492.686249,196.116638L492.465698,195.752441L492.175903,195.440369L491.828949,195.193542L491.439178,195.022156L491.022797,194.933472L470.742157,189.918457L396.711090,186.744324L355.462372,184.081848L355.026672,184.094482L354.601746,184.191833L354.203979,184.370117L353.848755,184.622620L353.549469,184.939514L353.317841,185.308838L353.162659,185.716309L353.090057,186.146057L353.102570,186.581726L353.199982,187.006714L353.378265,187.404419L353.630798,187.759705L353.947784,188.058960L354.317017,188.290527L354.724426,188.445679L355.154236,188.518433L396.350494,191.581299L469.765869,199.651123L487.185303,198.721191L464.928802,224.432800L408.484192,329.931519L365.621918,391.390564L327.083862,335.492615L264.146515,224.402405L261.367432,204.575928L285.526581,192.411560z" fill="#000000" stroke="none" fill-opacity="1" />
				<polyline points="84.616295,665.374268 69.918816,658.297729 77.539726,651.221191 50.322189,674.083862 23.648985,711.644043 25.282000,696.946655 39.587860,665.065552 59.770260,642.626099 38.731556,665.921936 25.282000,693.680542 24.193325,658.297729 40.523815,647.955078 30.433903,650.132446 18.190842,639.283691 33.866272,640.674561 57.273327,640.674561 81.224724,629.787598 92.111832,647.751099 97.010941,652.650269" fill="#000000" stroke="none" fill-opacity="1" />
				<path d="M83.940758,666.777588L84.227425,666.882446L84.529091,666.929321L84.834198,666.916443L85.130821,666.844299L85.407768,666.715698L85.654213,666.535522L85.860847,666.310669L86.019577,666.049927L86.124512,665.763184L86.171318,665.461426L86.158447,665.156433L86.086349,664.859741L85.957718,664.582886L85.777527,664.336365L85.552773,664.129761L85.291962,663.971008L73.268448,657.792114L78.666290,652.434326L78.890762,652.178101L79.058014,651.881348L79.161011,651.556641L79.195351,651.217712L79.159523,650.878967L79.055267,650.554688L78.886818,650.258667L78.661194,650.003296L78.388313,649.799561L78.079315,649.656006L77.747551,649.578735L77.406975,649.570923L77.072067,649.633057L76.756897,649.762329L76.474915,649.953491L48.653126,672.096802L27.956028,700.341553L28.401316,697.797241L42.007999,666.641235L61.280193,643.984192L61.529442,643.640869L61.701904,643.253174L61.790024,642.838135L61.790024,642.413818L61.701733,641.998779L61.529213,641.611206L61.280079,641.267822L60.964909,640.983765L60.597553,640.771362L60.194092,640.640015L59.772202,640.595276L59.350204,640.639160L58.946514,640.769775L58.578815,640.981506L58.263187,641.264893L36.591511,663.989136L28.099537,680.475586L27.396011,659.996704L41.923828,650.165527L42.333698,649.844727L42.671986,649.449097L42.925129,648.994385L43.083286,648.498474L43.140163,647.981079L43.093586,647.462708L42.945324,646.963806L42.701168,646.504089L42.370892,646.101807L41.967487,645.772888L41.506973,645.530273L41.007557,645.383667L40.489140,645.338806L39.971867,645.397461L31.256046,646.994690L26.723040,642.959595L33.632298,643.311707L57.273327,642.744873L58.130035,642.559326L80.661446,631.610901L90.968689,648.443909L96.111145,653.550110L96.304031,653.708374L96.523987,653.825928L96.762711,653.898315L97.010941,653.922791L97.259216,653.898315L97.497879,653.825928L97.717896,653.708374L97.910667,653.550049L98.068993,653.357300L98.186584,653.137207L98.258965,652.898560L98.283463,652.650269L98.258965,652.402039L98.186584,652.163330L98.068993,651.943359L97.910667,651.750488L93.171158,646.920166L82.444901,629.048096L82.232040,628.777100L81.960464,628.565063L81.645866,628.424377L81.306839,628.363159L80.962883,628.385010L80.634331,628.488708L56.824894,638.604248L33.983459,638.027100L18.447819,636.387634L17.842083,636.397217L17.251453,636.532227L16.701565,636.786621L16.216505,637.149414L15.817050,637.604919L15.520648,638.133301L15.340289,638.711670L15.283584,639.314758L15.353107,639.916565L15.545939,640.490906L15.853443,641.012817L16.262569,641.459717L28.514786,652.298340L29.070339,652.684814L29.700392,652.931763L30.370617,653.025513L31.044329,652.961121L38.102356,648.946350L22.508524,655.637451L21.882935,656.158264L21.411608,656.822083L21.126308,657.584473L21.045912,658.394531L22.061234,693.779602L22.148609,694.431885L22.366503,695.052856L22.706163,695.616516L23.153227,696.099487L23.689039,696.481567L24.291401,696.746765L24.935017,696.884033L25.593052,696.887695L26.238098,696.757690L26.843431,696.499268L27.383478,696.123291L27.835920,695.645386L28.181818,695.085571L41.147289,667.549438L58.410702,644.134644L37.466583,663.157593L22.367706,695.638916L20.635014,711.309204L20.629292,711.922729L20.747164,712.524902L20.983829,713.090942L21.329670,713.597778L21.770382,714.024658L22.287998,714.354126L22.861404,714.572632L23.466969,714.671143L24.079969,714.645874L24.675348,714.497681L25.228785,714.232666L25.717564,713.861694L26.121597,713.399902L52.245770,675.857300L76.298904,652.317261L68.620087,656.899048L68.350349,657.209961L68.153687,657.571533L68.039017,657.966797L68.011780,658.377502L68.073288,658.784546L68.220467,659.168823L68.446655,659.512634L68.741394,659.800049L69.090790,660.017517z" fill="#FEF1B5" stroke="none" fill-opacity="1" />
				<polygon points="148.179474,711.440186 144.369110,715.794922 119.328972,739.201965 91.022812,746.822876 117.696022,716.339294 113.341194,695.109619 100.821136,669.525146 78.502861,689.666138 61.083698,711.984497 68.160263,687.488647 88.845573,657.549438 115.518776,639.585876 117.696243,647.206787 126.950157,667.347778 137.292755,681.500854 142.735977,697.287048" fill="#000000" stroke="none" fill-opacity="1" />
				<path d="M148.179474,711.440186L144.369110,715.794922L119.120575,738.826904L94.520927,744.641968L118.049919,716.648926L118.126999,716.527466L118.163681,716.388428L118.156639,716.244873L114.044205,694.965454L101.891838,669.001221L101.762299,668.793701L101.593262,668.617065L101.391678,668.478577L101.166054,668.384155L100.925903,668.337769L100.681396,668.341431L100.442734,668.394836L100.219971,668.495850L100.022568,668.640259L77.329849,688.366272L66.194054,701.973206L70.043274,688.381958L89.870628,658.586731L114.866577,641.373108L116.656891,647.503784L126.246239,667.671143L136.961349,681.674011L142.735977,697.287048L148.179474,711.440186L142.735977,697.287048L137.642273,681.380371L127.621590,666.953491L118.712936,646.830444L116.593834,639.278687L116.506516,639.061890L116.375885,638.867920L116.207878,638.705383L116.009727,638.581421L115.790176,638.501221L115.558716,638.468506L115.325485,638.484619L115.100723,638.548950L114.894272,638.658508L88.045120,656.360901L87.666603,656.734863L66.468025,686.319580L59.036346,711.393066L58.957726,711.837708L58.974438,712.289062L59.086075,712.726624L59.287262,713.130859L59.569244,713.483765L59.919147,713.769165L60.321350,713.974487L60.757828,714.090454L61.208954,714.111816L61.654411,714.037720L62.074181,713.871338L62.449551,713.620239L62.763695,713.295654L79.789185,690.863708L100.445709,671.469604L112.656548,695.343140L117.188408,716.205200L90.122391,746.035034L89.976364,746.242920L89.877495,746.476929L89.830231,746.726501L89.836746,746.980469L89.896713,747.227295L90.007492,747.455872L90.164047,747.656006L90.359283,747.818481L90.584389,747.936157L90.829292,748.003662L91.082893,748.017883L91.333870,747.978271L119.437233,739.604065L119.613358,739.506104L144.369110,715.794922z" fill="#FEF1B5" stroke="none" fill-opacity="1" />
				<polyline points="40.523815,647.955078 56.400833,641.150635" fill="#000000" stroke="none" fill-opacity="1" />
				<path d="M39.493103,645.550171L39.043747,645.797424L38.651276,646.127686L38.330669,646.528076L38.094460,646.983337L37.951584,647.475952L37.907467,647.987000L37.964111,648.496826L38.118896,648.985779L38.366261,649.435181L38.696365,649.827698L39.096851,650.148193L39.552155,650.384399L40.044765,650.527344L40.555744,650.571411L41.065521,650.514893L41.554585,650.359985L57.227840,643.080322L57.588501,642.881897L57.903385,642.616943L58.160534,642.295654L58.350163,641.930298L58.464832,641.535034L58.500080,641.125000L58.454762,640.715942L58.330536,640.323608L58.132095,639.963013L57.867107,639.648071L57.545753,639.390869L57.180462,639.201355L56.785297,639.086670L56.375198,639.051392L55.966187,639.096680L55.573822,639.220947z" fill="#FEF1B5" stroke="none" fill-opacity="1" />
				<polyline points="684.453003,543.344055 694.643311,555.885864 683.669250,569.211670 640.556580,606.837280 611.597046,621.621826 592.000488,617.702515 581.810120,578.509094 581.026245,551.073730 589.648804,526.773804 589.648804,504.825500 606.037292,528.943054 605.508606,546.278992 639.816223,518.151306 669.428101,524.766724" fill="#000000" stroke="none" fill-opacity="1" />
				<path d="M686.552002,541.638611L686.178894,541.261963L685.739563,540.965271L685.250793,540.760010L684.731323,540.653992L684.201172,540.651428L683.680786,540.752319L683.189941,540.952759L682.747742,541.245117L682.370972,541.618164L682.074341,542.057495L681.869080,542.546326L681.763123,543.065735L681.760437,543.595886L681.861389,544.116333L682.061829,544.607117L682.354187,545.049377L691.102478,555.874207L682.309265,567.890076L640.090454,606.148315L611.597046,621.621826L592.000488,617.702515L582.563171,578.401855L581.996826,551.226562L590.724304,527.155457L590.866943,508.785278L604.814880,529.298767L604.412292,546.245605L604.428955,546.472717L604.492249,546.691467L604.599243,546.892456L604.745483,547.066956L604.924744,547.207642L605.129089,547.308105L605.349792,547.364319L605.577393,547.373718L605.801941,547.335876L606.013855,547.252563L606.203918,547.127258L640.196960,519.752075L668.956909,526.875854L669.405701,526.927612L669.855530,526.885071L670.286621,526.750000L670.680176,526.528137L671.019043,526.229309L671.288330,525.866577L671.476379,525.455750L671.574829,525.014893L671.579590,524.563049L671.490173,524.120300L671.310669,523.705627L671.048889,523.337402L670.716370,523.031677L670.327515,522.801697L669.899231,522.657654L640.138855,516.707581L639.694641,516.677063L639.261353,516.780029L638.878479,517.007324L606.678467,543.901428L607.247681,528.979980L607.200073,528.604675L607.038879,528.262390L590.656311,504.140930L590.489746,503.944275L590.285278,503.786987L590.052429,503.676270L589.801575,503.617065L589.543762,503.612000L589.290710,503.661316L589.053711,503.762756L588.843384,503.911804L588.669067,504.101807L588.538757,504.324219L588.458069,504.569153L588.430786,504.825500L588.507690,526.577393L580.116150,550.750732L581.054749,578.530640L592.000488,617.702515L611.597046,621.621826L640.931946,607.572632L684.911926,570.635498L696.758972,557.628235L697.098755,557.103577L697.310791,556.515686L697.384033,555.894958L697.314880,555.273804L697.106750,554.684448L696.770569,554.157593z" fill="#FEF1B5" stroke="none" fill-opacity="1" />
				<polyline points="650.301086,505.249573 642.362732,492.774841 617.791199,486.348511 589.439575,486.726501 610.986877,475.385803 646.898865,476.898010 674.640320,510.312683" fill="#000000" stroke="none" fill-opacity="1" />
				<path d="M648.926880,506.124084L649.123901,506.375427L649.366089,506.583435L649.644348,506.740173L649.947754,506.839661L650.264771,506.878113L650.583130,506.853882L650.890686,506.768066L651.175537,506.623779L651.426880,506.426880L651.634888,506.184509L651.791748,505.906372L651.891113,505.603027L651.929565,505.285950L651.905396,504.967590L651.819519,504.659973L651.675354,504.375122L643.727356,491.906433L643.470703,491.596436L643.145569,491.359436L642.771912,491.209961L618.156494,484.952026L594.641968,485.404175L611.309143,476.819397L646.064636,478.581909L672.880859,511.773315L673.199585,512.088501L673.573792,512.335449L673.988892,512.504700L674.429077,512.589600L674.877319,512.587097L675.316528,512.497131L675.729675,512.323242L676.101013,512.072021L676.416199,511.753296L676.663147,511.379089L676.832336,510.964050L676.917297,510.523865L676.914673,510.075562L676.824707,509.636414L676.650940,509.223267L676.399719,508.851929L648.220337,475.800903L647.867798,475.479675L647.440308,475.268005L646.971130,475.181885L611.046509,473.968445L610.326111,474.130432L588.856079,485.617920L588.642151,485.760193L588.461975,485.943176L588.322632,486.159058L588.230408,486.398865L588.188965,486.652344L588.200073,486.909058L588.263367,487.158081L588.376221,487.388916L588.533569,487.591858L588.729187,487.758484L588.954590,487.881653L589.200439,487.956360L589.456299,487.979248L617.615051,487.794434L641.338867,494.179138z" fill="#FEF1B5" stroke="none" fill-opacity="1" />
				<polyline points="675.611877,567.086975 656.571289,555.067200 652.967590,559.331482 641.291992,561.488770 646.729065,542.388306 660.827271,545.940308 635.844177,536.745605 606.471130,553.294189 616.028809,534.400330 632.513672,522.982849 664.675659,531.683228 637.252014,517.098022 621.419006,523.590942 596.029785,538.018127 606.185730,522.888916 631.695679,498.072021 674.013062,512.641663 676.735474,529.688538 686.476257,536.740845 684.981750,545.091248" fill="#000000" stroke="none" fill-opacity="1" />
				<path d="M674.697327,568.535889L674.997498,568.686523L675.321350,568.775635L675.656433,568.799927L675.989685,568.758301L676.308472,568.652527L676.600586,568.486572L676.854614,568.266724L677.060852,568.001648L677.211487,567.701416L677.300598,567.377563L677.324829,567.042542L677.283325,566.709167L677.177429,566.390442L677.011475,566.098389L676.791687,565.844360L676.526611,565.638000L657.330505,553.864502L657.024597,553.719116L656.692993,553.650208L656.354492,553.661560L656.028320,553.752686L655.732849,553.918396L655.484985,554.149231L652.270874,558.131287L642.977112,559.955933L647.695435,544.062988L660.420410,547.554749L660.753235,547.603577L661.089111,547.584473L661.414246,547.498291L661.715454,547.348511L661.980408,547.141235L662.198181,546.884949L662.360107,546.590088L662.459412,546.268738L662.492126,545.933899L662.456787,545.599426L662.355103,545.278809L662.190918,544.985168L661.971130,544.730591L661.704529,544.525330L661.402222,544.377869L636.310608,535.478333L635.930664,535.398010L635.543640,535.429138L635.181396,535.569153L608.968018,550.683044L616.991882,535.239319L632.777100,524.510620L664.168152,533.559448L664.567200,533.623779L664.971008,533.604309L665.362000,533.501648L665.723267,533.320374L666.039307,533.068237L666.296265,532.756226L666.483215,532.397827L666.591980,532.008484L666.617737,531.605042L666.559631,531.205078L666.419983,530.825684L666.204895,530.483398L665.923523,530.193054L665.588379,529.967163L637.940796,515.802979L637.537842,515.659241L637.110657,515.638000L636.695435,515.740845L620.914001,522.359619L599.563293,534.738342L607.144897,523.688782L632.082703,499.803101L671.970276,514.358093L674.276611,530.081299L674.462097,530.704590L674.802856,531.258606L675.275208,531.705566L683.298584,538.023071L682.332581,544.617065L682.291016,545.143005L682.352844,545.666992L682.515625,546.168823L682.773315,546.629150L683.115723,547.030518L683.529907,547.357300L683.999878,547.596985L684.507629,547.740356L685.033508,547.781982L685.557556,547.720215L686.059326,547.557312L686.519714,547.299683L686.920959,546.957214L687.247803,546.543030L687.487427,546.073059L687.630798,545.565308L689.332764,537.252136L689.375000,536.604065L689.272034,535.962891L689.028992,535.360657L688.658203,534.827576L688.178101,534.390259L679.031738,528.276733L676.272339,512.280884L676.094055,511.690918L675.764771,511.169922L675.308289,510.755737L674.757812,510.478394L632.187439,496.643616L631.779724,496.563660L631.365845,496.597717L630.976868,496.743225L630.642090,496.989136L605.319641,521.998535L595.111633,537.401855L595.005005,537.602722L594.941589,537.821167L594.924316,538.048035L594.953796,538.273499L595.028748,538.488281L595.146179,538.683105L595.300964,538.849854L595.486572,538.981384L595.695068,539.072144L595.917725,539.118286L596.145264,539.117920L596.367859,539.070984L596.576172,538.979614L622.002625,524.790100L637.171326,518.716553L648.546936,525.306580L632.880798,521.625671L632.477356,521.577393L632.077087,521.646423L631.713135,521.827026L615.323853,533.382629L614.924011,533.841492L605.534790,552.820557L605.455933,553.028870L605.422791,553.249146L605.436829,553.471497L605.497620,553.685791L605.602234,553.882507L605.745972,554.052673L605.922424,554.188660L606.123596,554.284363L606.340332,554.335388L606.563049,554.339600L606.781616,554.296570L606.986206,554.208496L635.963440,538.228394L659.236511,545.448730L647.068176,541.042419L646.766235,541.000854L646.462524,541.026184L646.171631,541.117249L645.907715,541.269531L645.683289,541.475830L645.509338,541.726074L645.394287,542.008301L640.136658,561.159851L640.092407,561.426697L640.109009,561.696655L640.185425,561.956055L640.318054,562.191772L640.500061,562.391846L640.722168,562.546143L640.973206,562.646790L641.240356,562.688721L641.510193,562.669861L653.205078,560.616638L653.623718,560.461792L653.965820,560.175049L656.858704,556.930542z" fill="#FEF1B5" stroke="none" fill-opacity="1" />
				<path d="M390.952026,947.341064L391.563477,949.591675L392.602264,951.679810L394.028473,953.525146L395.787262,955.056763L397.811096,956.215820L400.022095,956.957825L402.335480,957.254211L404.662170,957.093506L406.912811,956.482056L409.000885,955.443359L410.846222,954.017090L412.377838,952.258301L413.536957,950.234497L414.278900,948.023438L414.575317,945.710144L414.414642,943.383484L414.007538,942.092163L413.405640,939.876831L412.383148,937.821411L410.979370,936.005066L409.248138,934.497437L407.256134,933.356567L405.079742,932.626221L402.802704,932.334473L400.512482,932.492615L398.297241,933.094482L396.241882,934.117004L394.425476,935.520813L392.917908,937.252075L391.777039,939.244019L391.046692,941.420410L390.754944,943.697449L390.913055,945.987671z" fill="#110100" stroke="none" fill-opacity="0.126386926" />
				<path d="M443.805481,939.515381L444.587158,942.392883L445.915070,945.062561L447.738342,947.421753L449.986877,949.380005L452.574158,950.861938L455.400909,951.810669L458.358429,952.189697L461.333008,951.984497L464.210419,951.202881L466.880066,949.874878L469.239410,948.051636L471.197601,945.803101L472.679626,943.215820L473.628265,940.389038L474.007355,937.431519L473.802032,934.456970L473.411865,933.162720L472.638977,930.317444L471.325775,927.677490L469.522888,925.344604L467.299377,923.408142L464.740967,921.942749L461.945740,921.004639L459.021210,920.629822L456.079742,920.832764L453.234375,921.605652L450.594513,922.918823L448.261597,924.721741L446.325104,926.945190L444.859711,929.503723L443.921509,932.298950L443.546722,935.223389L443.749756,938.164856z" fill="#110100" stroke="none" fill-opacity="0.263577223" />
				<path d="M316.264160,1001.841492L317.008728,1004.581970L318.273651,1007.124512L320.010223,1009.371460L322.151794,1011.236450L324.616058,1012.647827L327.308380,1013.551331L330.125122,1013.912231L332.958221,1013.716614L335.698761,1012.972046L338.241333,1011.707153L340.488342,1009.970581L342.353271,1007.828979L343.764679,1005.364685L344.668121,1002.672424L345.028961,999.855652L344.833405,997.022522L344.441284,995.728638L343.705627,993.020630L342.455627,990.508118L340.739594,988.287720L338.623352,986.444885L336.188202,985.050171L333.527802,984.157410L330.744385,983.800781L327.944824,983.994080L325.236725,984.729797L322.724213,985.979736L320.503906,987.695740L318.660950,989.812012L317.266327,992.247070L316.373535,994.907532L316.016907,997.690979L316.210175,1000.490601z" fill="#110100" stroke="none" fill-opacity="0.377564609" />
				<path d="M370.029694,993.590698L370.873932,996.698181L372.308228,999.581299L374.277405,1002.129150L376.705841,1004.243896L379.500153,1005.844238L382.552979,1006.868774L385.747009,1007.277954L388.959564,1007.056213L392.067017,1006.211914L394.950195,1004.777649L397.498047,1002.808472L399.612732,1000.380005L401.213135,997.585693L402.237671,994.532898L402.646790,991.338806L402.425049,988.126343L402.037384,986.831726L401.201721,983.755798L399.782013,980.901978L397.832825,978.380005L395.429108,976.286743L392.663208,974.702637L389.641388,973.688599L386.479797,973.283569L383.299896,973.503052L380.223969,974.338745L377.370178,975.758484L374.848175,977.707642L372.754944,980.111389L371.170807,982.877319L370.156799,985.899109L369.751709,989.060669L369.971283,992.240540z" fill="#110100" stroke="none" fill-opacity="0.394527137" />
				<path d="M422.449188,985.566772L423.421936,989.147278L425.074585,992.469238L427.343445,995.404968L430.141541,997.841614L433.361176,999.685608L436.878723,1000.865967L440.558899,1001.337463L444.260376,1001.081909L447.840881,1000.109192L451.162872,998.456604L454.098633,996.187744L456.535248,993.389648L458.379242,990.169922L459.559662,986.652405L460.031158,982.972168L459.775604,979.270752L459.401367,977.973816L458.436462,974.422363L456.797241,971.127319L454.546722,968.215332L451.771393,965.798462L448.577789,963.969421L445.088684,962.798523L441.438324,962.330872L437.766785,962.584351L434.215271,963.549255L430.920227,965.188477L428.008270,967.438965L425.591400,970.214355L423.762360,973.407959L422.591492,976.896973L422.123840,980.547424L422.377319,984.218933z" fill="#110100" stroke="none" fill-opacity="0.474511594" />
				<path d="M291.071960,1049.461060L292.032104,1052.995239L293.663361,1056.274048L295.902832,1059.171753L298.664642,1061.576782L301.842651,1063.396851L305.314575,1064.561890L308.947174,1065.027344L312.600616,1064.775024L316.134735,1063.814819L319.413696,1062.183594L322.311279,1059.944092L324.716309,1057.182251L326.536438,1054.004395L327.701508,1050.532349L328.166840,1046.899902L327.914612,1043.246338L327.560516,1041.946167L326.607147,1038.437134L324.987549,1035.181519L322.763947,1032.304443L320.021759,1029.916504L316.866455,1028.109375L313.419159,1026.952637L309.812439,1026.490601L306.184906,1026.741089L302.675934,1027.694458L299.420410,1029.314087L296.543365,1031.537598L294.155304,1034.279785L292.348236,1037.435181L291.191498,1040.882446L290.729431,1044.489136L290.979950,1048.116699z" fill="#110100" stroke="none" fill-opacity="0.659853816" />
				<path d="M346.082886,1042.632202L347.133118,1046.497925L348.917419,1050.084595L351.367096,1053.254150L354.388062,1055.884888L357.864166,1057.875854L361.661987,1059.150269L365.635406,1059.659302L369.631805,1059.383423L373.497559,1058.333252L377.084198,1056.548950L380.253784,1054.099243L382.884521,1051.078247L384.875427,1047.602173L386.149872,1043.804321L386.658936,1039.830933L386.383026,1035.834595L386.030792,1034.533936L384.987305,1030.692993L383.214447,1027.129272L380.780457,1023.980042L377.778900,1021.366150L374.324951,1019.388062L370.551575,1018.121704L366.603638,1017.615967L362.632812,1017.890076L358.791840,1018.933594L355.228210,1020.706421L352.078918,1023.140442L349.465027,1026.141968L347.486969,1029.595947L346.220612,1033.369385L345.714844,1037.317261L345.988983,1041.288086z" fill="#110100" stroke="none" fill-opacity="0.656497955" />
				<path d="M399.841125,1034.380859L400.991180,1038.615112L402.945038,1042.543579L405.627930,1046.015381L408.936462,1048.897095L412.743713,1051.078003L416.903229,1052.474121L421.255188,1053.032104L425.632355,1052.730225L429.866577,1051.580200L433.795105,1049.626221L437.266907,1046.943359L440.148560,1043.634766L442.329468,1039.827637L443.725647,1035.668091L444.283569,1031.316162L443.981720,1026.938843L443.639252,1025.636719L442.495453,1021.425415L440.552094,1017.518250L437.883789,1014.065186L434.593079,1011.199097L430.806610,1009.030029L426.669556,1007.641357L422.341095,1007.086548L417.987579,1007.386719L413.776398,1008.530518L409.869171,1010.473877L406.416168,1013.142212L403.550079,1016.432861L401.380951,1020.219482L399.992401,1024.356445L399.437531,1028.684937L399.737701,1033.038330z" fill="#110100" stroke="none" fill-opacity="0.69272387" />
				<path d="M452.624725,1026.295410L453.884155,1030.932739L456.024231,1035.235229L458.962494,1039.037598L462.586121,1042.193726L466.755798,1044.582275L471.311340,1046.111328L476.077759,1046.722412L480.871704,1046.391724L485.509064,1045.132324L489.811584,1042.992188L493.613983,1040.054077L496.770050,1036.430420L499.158539,1032.260742L500.687714,1027.705078L501.298706,1022.938782L500.968170,1018.144836L500.642151,1016.839783L499.387970,1012.222290L497.257111,1007.938049L494.331451,1004.151855L490.723236,1001.009277L486.571320,998.630981L482.035095,997.108276L477.289093,996.499939L472.515594,996.829102L467.898010,998.083252L463.613831,1000.214111L459.827667,1003.139832L456.685059,1006.747986L454.306763,1010.899902L452.784058,1015.436035L452.175690,1020.182068L452.504883,1024.955566z" fill="#110100" stroke="none" fill-opacity="0.766459584" />
				<path d="M266.827698,1097.703369L267.931366,1101.765747L269.806305,1105.534790L272.380615,1108.865601L275.555176,1111.630127L279.208160,1113.722290L283.198975,1115.061523L287.374481,1115.596436L291.574127,1115.306519L295.636414,1114.202881L299.405396,1112.327881L302.736237,1109.753540L305.500763,1106.578979L307.592926,1102.926147L308.932098,1098.935303L309.467041,1094.759766L309.177185,1090.560181L308.874451,1089.251099L307.774872,1085.204102L305.906982,1081.449341L303.342377,1078.130981L300.179718,1075.376831L296.540527,1073.292603L292.564697,1071.958374L288.404877,1071.425537L284.221100,1071.714355L280.174011,1072.813843L276.419189,1074.681763L273.100952,1077.246338L270.346802,1080.409058L268.262573,1084.048218L266.928375,1088.024048L266.395416,1092.183838L266.684357,1096.367676z" fill="#110100" stroke="none" fill-opacity="0.877107382" />
				<path d="M321.049591,1089.373901L322.228760,1093.715576L324.232391,1097.744019L326.983429,1101.304077L330.376099,1104.259033L334.280090,1106.495361L338.545349,1107.927124L343.007996,1108.499146L347.496460,1108.189697L351.838226,1107.010376L355.866608,1105.006836L359.426697,1102.255737L362.381683,1098.863037L364.617981,1094.959106L366.049622,1090.693848L366.621704,1086.231201L366.312225,1081.742798L366.006592,1080.434326L364.831635,1076.108398L362.835327,1072.094727L360.094360,1068.547607L356.714050,1065.603516L352.824371,1063.375366L348.574677,1061.948975L344.128357,1061.378906L339.656342,1061.687256L335.330353,1062.862183L331.316681,1064.858521L327.769714,1067.599487L324.825562,1070.979736L322.597382,1074.869507L321.170929,1079.119263L320.600891,1083.565552L320.909332,1088.037598z" fill="#110100" stroke="none" fill-opacity="0.855259776" />
				<path d="M374.367981,1081.198120L375.628906,1085.840576L377.771179,1090.147827L380.712646,1093.954346L384.340149,1097.113770L388.514404,1099.504883L393.074860,1101.035645L397.846405,1101.647339L402.645538,1101.316406L407.287933,1100.055664L411.595154,1097.913330L415.401642,1094.971802L418.561188,1091.344238L420.952240,1087.170044L422.483093,1082.609497L423.094757,1077.838013L422.763794,1073.038818L422.462524,1071.729736L421.205750,1067.102295L419.070404,1062.809082L416.138458,1059.014893L412.522675,1055.865601L408.361908,1053.482300L403.816193,1051.956421L399.060120,1051.346680L394.276489,1051.676636L389.649170,1052.933350L385.355865,1055.068726L381.561707,1058.000610L378.412445,1061.616455L376.029053,1065.777222L374.503204,1070.322876L373.893524,1075.078979L374.223358,1079.862671z" fill="#110100" stroke="none" fill-opacity="0.861935318" />
				<path d="M428.806946,1073.107666L430.155823,1078.072632L432.447449,1082.679077L435.593658,1086.750000L439.473602,1090.128784L443.938171,1092.685669L448.815796,1094.322510L453.919006,1094.976196L459.051758,1094.621826L464.016663,1093.272949L468.623077,1090.981445L472.693909,1087.835205L476.072723,1083.955322L478.629669,1079.490723L480.266510,1074.613159L480.920349,1069.509888L480.565887,1064.377197L480.274841,1063.066284L478.929565,1058.114380L476.644012,1053.520020L473.506042,1049.459961L469.636261,1046.089966L465.183441,1043.539795L460.318634,1041.907227L455.228851,1041.255127L450.109619,1041.608521L445.157684,1042.953979L440.563354,1045.239502L436.503296,1048.377441L433.133270,1052.247192L430.583099,1056.700073L428.950531,1061.564819L428.298492,1066.654663L428.651917,1071.773926z" fill="#110100" stroke="none" fill-opacity="0.895807385" />
				<path d="M244.583191,1144.824097L245.748535,1149.114502L247.728409,1153.095215L250.446899,1156.613281L253.799500,1159.533203L257.657349,1161.742920L261.872131,1163.157715L266.281982,1163.723022L270.717316,1163.417114L275.007751,1162.251831L278.988464,1160.271851L282.506500,1157.553345L285.426453,1154.200806L287.636261,1150.342896L289.050964,1146.128174L289.616272,1141.718384L289.310364,1137.282959L289.042694,1135.968140L287.879608,1131.686279L285.903656,1127.713623L283.190704,1124.202637L279.844727,1121.288574L275.994629,1119.083130L271.788239,1117.671265L267.387268,1117.107056L262.960785,1117.412354L258.678894,1118.575317L254.706161,1120.551270L251.195297,1123.264404L248.281174,1126.610229L246.075714,1130.460449L244.663849,1134.666748L244.099731,1139.067749L244.404984,1143.494263z" fill="#110100" stroke="none" fill-opacity="0.984302223" />
				<path d="M299.793762,1137.963379L301.039124,1142.547119L303.154724,1146.799927L306.059418,1150.558105L309.641479,1153.677612L313.763336,1156.038208L318.266449,1157.549438L322.977936,1158.153076L327.716614,1157.825928L332.300354,1156.580566L336.553162,1154.464844L340.311462,1151.560181L343.430939,1147.978149L345.791534,1143.856323L347.302734,1139.353149L347.906281,1134.641724L347.579193,1129.903076L347.313232,1128.587891L346.070099,1124.012329L343.958252,1119.767212L341.058807,1116.015625L337.483124,1112.901733L333.368744,1110.545410L328.873657,1109.036987L324.170654,1108.434448L319.440552,1108.760986L314.864960,1110.004028L310.619843,1112.115967L306.868286,1115.015503L303.754395,1118.591064L301.398041,1122.705566L299.889618,1127.200562L299.287018,1131.903564L299.613647,1136.633667z" fill="#110100" stroke="none" fill-opacity="0.975266576" />
				<path d="M407.455872,1121.439575L408.852478,1126.579956L411.225067,1131.349121L414.482452,1135.563843L418.499573,1139.062012L423.121887,1141.709473L428.171906,1143.404053L433.455475,1144.081055L438.769592,1143.714111L443.910065,1142.317505L448.679291,1139.944946L452.893982,1136.687500L456.392212,1132.670410L459.039490,1128.048096L460.734161,1122.998047L461.411072,1117.714600L461.044220,1112.400391L460.782440,1111.084595L459.387909,1105.951538L457.018768,1101.189209L453.766083,1096.980591L449.754822,1093.487427L445.139130,1090.843994L440.096375,1089.151733L434.820496,1088.475830L429.513977,1088.842041L424.381042,1090.236694L419.618683,1092.605835L415.410065,1095.858521L411.916901,1099.869751L409.273376,1104.485474L407.581146,1109.528198L406.905273,1114.804077L407.271606,1120.110596z" fill="#110100" stroke="none" fill-opacity="0.978954434" />
				<path d="M462.107330,1113.310059L463.715912,1119.082153L466.489380,1124.393677L470.306580,1129.012451L475.000702,1132.736694L480.366547,1135.403564L486.169647,1136.896484L492.156250,1137.150391L498.064972,1136.154053L503.637207,1133.950806L508.629822,1130.637329L512.824280,1126.358276L516.037476,1121.300537L518.128845,1115.685425L519.007080,1109.758057L518.633789,1103.777710L518.371704,1102.461792L516.900757,1097.046997L514.401855,1092.023193L510.970825,1087.583496L506.739471,1083.898315L501.870575,1081.109619L496.551147,1079.324219L490.985657,1078.610962L485.387848,1078.997192L479.973053,1080.468140L474.949310,1082.967163L470.509460,1086.398193L466.824463,1090.629517L464.035645,1095.498413L462.250336,1100.817871L461.537048,1106.383301L461.923279,1111.981079z" fill="#110100" stroke="none" fill-opacity="0.990393162" />
			</g>
		</g>
	</g>
</svg>
