<?xml version="1.0" encoding="UTF-8"?>
<!-- Generator: Blender, SVG Export for Grease Pencil - v2.0 -->
<!DOCTYPE svg PUBLIC "-//W3C//DTD SVG 1.1//EN" "http://www.w3.org/Graphics/SVG/1.1/DTD/svg11.dtd">
<svg version="1.0" x="0px" y="0px" xmlns="http://www.w3.org/2000/svg" width="978.225220px" height="1156.552246px" viewBox="0 0 978.225220 1156.552246">
	<g id="blender_frame_6">
		<g id="blender_object_Stroke">
			<!--Layer: GP_Layer.001-->
			<g id="GP_Layer.001">
				<polyline points="963.494751,1093.052124 898.226074,204.366272 719.876099,17.865479 719.876099,17.865479 297.185699,14.781494 297.185699,14.781494 79.983124,200.846802 14.803101,1141.749146" fill="#E6E6E6" stroke="none" fill-opacity="1" />
				<path d="M958.777100,1093.401367L958.935791,1094.314941L959.269897,1095.180054L959.765991,1095.963379L960.405884,1096.634888L961.164062,1097.168701L962.011841,1097.544189L962.916626,1097.747070L963.843750,1097.769653L964.757446,1097.610962L965.622559,1097.277100L966.405884,1096.780762L967.077271,1096.141113L967.611084,1095.382812L967.986694,1094.534912L968.189697,1093.630127L968.212158,1092.702881L912.924561,203.278564L911.675781,198.338806L908.819824,194.119446L719.875977,17.865479L719.875977,17.865479L297.185638,14.781494L297.185638,14.781494L70.579926,189.988647L68.082062,192.804077L66.401398,196.171692L65.653168,199.860229L10.011322,1141.419189L10.039032,1142.360474L10.249817,1143.278076L10.635651,1144.136963L11.181458,1144.904053L11.866669,1145.550049L12.664581,1146.049805L13.544708,1146.384399L14.473114,1146.540894L15.414276,1146.513184L16.331970,1146.302490L17.191010,1145.916626L17.958191,1145.370728L18.604065,1144.685547L19.103912,1143.887573L19.438507,1143.007568L19.594818,1142.078979L93.902863,207.793884L297.185638,14.781494L297.185638,14.781494L719.875977,17.865479L719.875977,17.865479L883.921509,210.776855z" fill="#000000" stroke="none" fill-opacity="1" />
				<path d="M79.983124,186.482910L77.180817,186.758911L74.486237,187.576233L72.003082,188.903625L69.826202,190.689941L68.039948,192.866638L66.712616,195.350037L65.895172,198.044617L65.619232,200.846802L65.895172,203.649109L66.712616,206.343689L68.039948,208.827148L69.826202,211.003723L72.003082,212.790039L74.486237,214.117432L77.180817,214.934814L79.983124,215.210815L779.755737,208.626099L780.686279,208.534424L781.581055,208.263123L782.405518,207.822327L783.128296,207.229248L783.721436,206.506531L784.162231,205.681885L784.433594,204.787170L784.525146,203.856628L784.433594,202.926147L784.162231,202.031494L783.721436,201.206909L783.128296,200.484192L782.405518,199.891052L781.581055,199.450256L780.686279,199.178833L779.755737,199.087219z" fill="#000000" stroke="none" fill-opacity="1" />
			</g>
			<!--Layer: ssmok-->
			<g id="ssmok" />
			<!--Layer: dots-->
			<g id="dots" />
			<!--Layer: Layer-->
			<g id="Layer" />
			<!--Layer: Lines-->
			<g id="Lines" />
			<!--Layer: body-->
			<g id="body" />
			<!--Layer: shine-->
			<g id="shine" />
			<!--Layer: details-->
			<g id="details" />
		</g>
	</g>
</svg>
