<?xml version="1.0" encoding="UTF-8"?>
<!-- Generator: Blender, SVG Export for Grease Pencil - v2.0 -->
<!DOCTYPE svg PUBLIC "-//W3C//DTD SVG 1.1//EN" "http://www.w3.org/Graphics/SVG/1.1/DTD/svg11.dtd">
<svg version="1.1" x="0px" y="0px" xmlns="http://www.w3.org/2000/svg" width="1350.000000px" height="1080.000000px" viewBox="0 0 1350.000000 1080.000000">
	<g id="blender_frame.5">
		<g id="blender_object.Stroke.001.5.uuid_0x0">
			<g id="layer.Fills.uuid_0x1" />
			<g id="layer.Lines.uuid_0x2">
				<polyline points="1129.8281,1045.6165 1268.4462,891.3794 1293.827,49.908936 368.40503,40.146973 81.40709,297.8595 63.835777,1053.4258" fill="#582C0F" stroke="none" fill-opacity="1" />
				<path d="M1128.9288,1044.8081L1128.7885,1044.9991L1128.6879,1045.2139L1128.6312,1045.444L1128.6207,1045.6809L1128.6564,1045.9152L1128.7372,1046.1381L1128.8599,1046.341L1129.0199,1046.5159L1129.2108,1046.6562L1129.4257,1046.7567L1129.6558,1046.8134L1129.8926,1046.8241L1130.127,1046.7883L1130.3497,1046.7075L1130.5526,1046.5847L1130.7275,1046.4248L1269.3456,892.18774L1269.5687,891.8292L1269.655,891.41583L1295.0358,49.945435L1295.013,49.67212L1294.9291,49.411133L1294.7887,49.17578L1294.5988,48.977905L1294.3693,48.828003L1294.1118,48.733643L1293.8397,48.699585L368.41776,38.937866L368.12125,38.971558L367.842,39.076782L367.5971,39.247314L80.59914,296.95972L80.38719,297.20984L80.25009,297.50763L80.19814,297.83136L62.626823,1053.3977L62.644505,1053.6342L62.70813,1053.8624L62.814964,1054.0741L62.961044,1054.2607L63.140778,1054.4154L63.34717,1054.532L63.57239,1054.6061L63.807682,1054.6348L64.043945,1054.6171L64.272484,1054.5535L64.48408,1054.4467L64.67079,1054.3005L64.82535,1054.121L64.941956,1053.9146L65.01601,1053.6892L65.04473,1053.454L82.60386,298.41003L368.86282,41.361206L1292.5812,51.105103L1267.2509,890.9004z" fill="#D85B26" stroke="none" fill-opacity="1" />
				<polyline points="63.835777,1053.4258 65.11488,866.9822 66.393814,194.64825 224.33046,44.023315 1161.3861,44.171387 1299.5295,44.319336" fill="#582C0F" stroke="none" fill-opacity="1" />
				<path d="M62.62648,1053.4175L62.648163,1053.6537L62.715454,1053.8809L62.82572,1054.0908L62.974834,1054.275L63.15703,1054.4266L63.365307,1054.5399L63.59179,1054.6102L63.82742,1054.6351L64.063515,1054.6135L64.29091,1054.5463L64.50073,1054.4359L64.68498,1054.2869L64.836555,1054.1046L64.94981,1053.8962L65.02013,1053.6699L65.04501,1053.4342L65.33707,866.9837L115.12567,215.5683L236.01082,73.20148L1161.386,44.393555L1299.5283,45.509155L1299.7605,45.48645L1299.9838,45.419067L1300.1895,45.309326L1300.37,45.1615L1300.5181,44.981445L1300.6283,44.77588L1300.6963,44.552734L1300.7194,44.320557L1300.6968,44.0885L1300.6294,43.865112L1300.5195,43.6593L1300.3718,43.479004L1300.1915,43.33081L1299.9861,43.220703L1299.7628,43.15271L1299.5308,43.129517L1161.3864,43.94922L224.33505,14.846802L217.00478,15.781494L210.14444,18.52771L204.19403,22.909424L32.73382,159.35437L24.562742,169.57208L19.401857,181.59412L17.62247,194.5556L64.89264,866.9812z" fill="#D85B26" stroke="none" fill-opacity="1" />
				<polyline points="1298.7894,43.781006 1296.9312,218.06573 1295.0728,900.9777 1137.1362,1051.6028 234.04085,1052.2408" fill="#582C0F" stroke="none" fill-opacity="1" />
				<path d="M1299.9792,43.793823L1299.9587,43.5614L1299.8934,43.337524L1299.7856,43.130615L1299.6396,42.94873L1299.4609,42.79895L1299.2565,42.686768L1299.0339,42.6167L1298.8022,42.59143L1298.5698,42.611694L1298.346,42.677002L1298.1392,42.784668L1297.9572,42.93091L1297.8074,43.10962L1297.6952,43.313965L1297.6251,43.5365L1297.5999,43.768433L1296.4147,218.06024L1244.0483,879.0488L1128.1522,1029.1884L234.0406,1051.9376L233.98149,1051.9435L233.92462,1051.9608L233.87222,1051.9889L233.82632,1052.0266L233.7886,1052.0725L233.7607,1052.125L233.74347,1052.1819L233.73763,1052.2411L233.74352,1052.3002L233.76085,1052.3569L233.7889,1052.4094L233.82661,1052.4553L233.87256,1052.493L233.92502,1052.521L233.98196,1052.5382L234.04108,1052.544L1137.1521,1074.0237L1142.7782,1073.3022L1148.0432,1071.1919L1152.6101,1067.8279L1330.3287,937.94495L1338.8799,927.2548L1344.2853,914.67773L1346.1565,901.1167L1297.4476,218.06915z" fill="#D85B26" stroke="none" fill-opacity="1" />
			</g>
		</g>
	</g>
</svg>
