<?xml version="1.0" encoding="UTF-8"?>
<!-- Generator: Blender, SVG Export for Grease Pencil - v2.0 -->
<!DOCTYPE svg PUBLIC "-//W3C//DTD SVG 1.1//EN" "http://www.w3.org/Graphics/SVG/1.1/DTD/svg11.dtd">
<svg version="1.1" x="0px" y="0px" xmlns="http://www.w3.org/2000/svg" width="1920.000000px" height="1080.000000px" viewBox="0 0 1920.000000 1080.000000">
	<g id="blender_frame.5">
		<g id="blender_object.Stroke.5.uuid_0x0">
			<g id="layer.Fills.uuid_0x1" />
			<g id="layer.Lines.uuid_0x2">
				<polygon points="623.6429,938.61084 703.79266,744.0582 260.26364,799.2545 70.08962,1002.03577 254.60745,980.89404 439.12506,959.75244" fill="#000000" stroke="none" fill-opacity="1" />
				<path d="M605.39453,931.093L604.27844,934.79755L603.90656,938.6487L604.2932,942.4983L605.42346,946.1986L607.25385,949.60724L609.71405,952.5933L612.7095,955.04205L616.1252,956.8593L619.8297,957.97534L623.6808,958.3472L627.5305,957.9606L631.2307,956.8303L634.6393,954.99994L637.6254,952.5398L640.07416,949.54425L641.8915,946.12866L713.29364,747.97235L713.8982,745.92053L714.0648,743.7881L713.7863,741.66724L713.07477,739.65L711.9611,737.82385L710.49335,736.2678L708.73535,735.0493L706.7632,734.22125L704.66223,733.81934L702.52374,733.8612L259.26642,791.24133L256.602,792.05743L254.37361,793.73065L57.938747,990.64026L55.889225,993.32666L54.423977,996.3712L53.60315,999.64886L53.46079,1003.0248L54.00232,1006.3599L55.20584,1009.5172L57.02179,1012.3667L59.375214,1014.79114L62.169514,1016.6908L65.28969,1017.9875L68.60733,1018.6279L71.98591,1018.5858L255.77722,991.1029L440.29483,969.96136L625.8896,958.219L629.6718,957.4039L633.2223,955.8666L636.4047,953.6662L639.0967,950.8872L641.1947,947.6365L642.6183,944.03894L643.3127,940.23267L643.2511,936.3642L642.43604,932.582L640.8988,929.0315L638.6983,925.8491L635.9193,923.15717L632.66864,921.05914L629.07104,919.6355L625.2649,918.9412L621.3963,919.0027L437.95535,949.5436L253.43771,970.6851L113.295135,980.318L264.1573,806.9072L687.58215,756.43054z" fill="#282828" stroke="none" fill-opacity="1" />
				<polyline points="604.5712,751.3959 468.27673,947.3389" fill="#000000" stroke="none" fill-opacity="1" />
				<path d="M606.7306,752.8978L606.9822,752.4477L607.141,751.95715L607.20105,751.44507L607.1602,750.931L607.0197,750.4349L606.78516,749.9757L606.4657,749.57104L606.07324,749.2365L605.62317,748.985L605.13257,748.8262L604.6204,748.766L604.10645,748.80695L603.61035,748.9474L603.1511,749.1819L602.74646,749.50146L602.4119,749.8939L460.46463,941.9049L459.55463,943.53345L458.97977,945.3081L458.7622,947.1609L458.91034,949.0205L459.41837,950.8155L460.26685,952.47687L461.42307,953.9408L462.84274,955.151L464.4713,956.06104L466.24597,956.6359L468.09872,956.8534L469.9583,956.7053L471.7533,956.1973L473.41473,955.3488L474.87866,954.19257L476.08887,952.7729z" fill="#282828" stroke="none" fill-opacity="1" />
				<polyline points="467.4047,771.78595 344.42728,956.8967" fill="#000000" stroke="none" fill-opacity="1" />
				<path d="M469.59555,773.2414L469.83743,772.786L469.98578,772.29224L470.03494,771.77893L469.98303,771.2659L469.83206,770.7729L469.58777,770.31885L469.25958,769.92114L468.86017,769.5951L468.40472,769.35315L467.91095,769.20483L467.39764,769.15564L466.88464,769.2075L466.3916,769.3585L465.93756,769.60284L465.53983,769.93097L465.21375,770.33044L336.50085,951.63086L335.62592,953.2784L335.08908,955.065L334.91116,956.922L335.09897,958.778L335.64526,960.56177L336.52896,962.20465L337.71625,963.64355L339.16144,964.8232L340.80893,965.6981L342.59555,966.235L344.45255,966.4129L346.30856,966.2251L348.09235,965.67883L349.73517,964.79504L351.17407,963.6078L352.3537,962.1626z" fill="#282828" stroke="none" fill-opacity="1" />
				<polyline points="354.08093,785.37225 212.52621,971.0962" fill="#000000" stroke="none" fill-opacity="1" />
				<path d="M356.17288,786.9667L356.4437,786.52795L356.6238,786.04474L356.70612,785.53577L356.68756,785.02045L356.56885,784.5187L356.35452,784.0497L356.05286,783.63153L355.67532,783.2803L355.23663,783.0094L354.7534,782.82935L354.24442,782.7471L353.72916,782.7656L353.2274,782.8843L352.7584,783.0986L352.34024,783.40027L351.98895,783.77783L204.9578,965.3277L203.97783,966.91504L203.32632,968.6631L203.0285,970.5047L203.09555,972.36896L203.5251,974.1843L204.30055,975.88104L205.39198,977.3938L206.7577,978.6647L208.34512,979.64465L210.09314,980.2961L211.93474,980.594L213.79897,980.52686L215.61441,980.09735L217.31111,979.322L218.82391,978.2304L220.09479,976.86475z" fill="#282828" stroke="none" fill-opacity="1" />
				<polyline points="914.6535,1014.1121 1108.125,559.54706 991.66644,289.062 805.70825,268.4001 625.3852,476.89893 674.2225,925.8287" fill="#5D5D5D" stroke="none" fill-opacity="1" />
				<path d="M905.1985,1010.0879L904.59515,1012.00977L904.37823,1014.0125L904.5562,1016.019L905.12225,1017.9522L906.05457,1019.73785L907.3174,1021.3073L908.862,1022.6003L910.6293,1023.567L912.55115,1024.1704L914.5539,1024.3873L916.56036,1024.2094L918.4936,1023.64325L920.27924,1022.711L921.84863,1021.4482L923.1416,1019.9035L924.10834,1018.1363L1125.3032,566.85846L1126.6302,562.018L1126.6198,556.99896L1125.2726,552.1641L1001.1045,284.99854L999.72095,282.68134L997.7819,280.80438L995.421,279.49695L992.80115,278.84924L806.8431,258.1872L804.3616,258.21295L801.9586,258.833L799.7743,260.01093L797.93616,261.6781L609.40955,463.08215L606.2686,467.91663L604.5519,473.42035L604.38745,479.18323L664.007,926.94L664.42017,928.9115L665.2099,930.76465L666.34607,932.4281L667.78485,933.8379L669.4711,934.9399L671.33997,935.6918L673.31946,936.06464L675.33374,936.04407L677.3053,935.631L679.15845,934.8412L680.82184,933.7051L682.2316,932.26624L683.3337,930.58L684.0856,928.7112L684.45844,926.7317L684.43787,924.7174L647.3777,483.75873L809.94507,279.20972L984.59174,298.61493L1087.817,559.5894z" fill="#000000" stroke="none" fill-opacity="1" />
				<polygon points="917.5816,926.0789 1063.0322,768.1719 1464.0276,845.74585 1486.8119,1055.0261 1202.1968,990.5525" fill="#000000" stroke="none" fill-opacity="1" />
				<path d="M906.3219,915.70734L904.5148,918.1033L903.20996,920.8058L902.45734,923.7108L902.286,926.70703L902.7024,929.67896L903.6906,932.5126L905.2127,935.09894L907.2101,937.33875L909.6061,939.1458L912.3085,940.4507L915.2137,941.20325L918.2097,941.37463L921.18176,940.9582L924.0154,939.97L926.60175,938.4479L928.8415,936.4505L1066.8077,779.6541L1454.3763,854.6306L1465.3424,1030.9501L1204.5906,979.9855L920.9638,911.14856L917.98615,910.77563L914.99274,910.99084L912.099,911.78577L909.41595,913.13007L907.0466,914.9719L905.0821,917.24066L903.598,919.849L902.6514,922.6968L902.2784,925.6745L902.4936,928.6678L903.2886,931.56165L904.6328,934.2447L906.4747,936.614L908.7434,938.5784L911.3518,940.0625L914.1995,941.0092L1199.8031,1001.1195L1482.6722,1073.3008L1486.5977,1073.7626L1490.5327,1073.3907L1494.3021,1072.2017L1497.7384,1070.2483L1500.6886,1067.6177L1503.021,1064.4268L1504.6321,1060.8175L1505.4506,1056.9507L1505.4397,1052.998L1474.5217,844.6034L1473.897,842.0006L1472.6377,839.6387L1470.8248,837.6694L1468.575,836.21936L1466.0325,835.3819L1065.0371,757.8079L1062.3646,757.63696L1059.735,758.1439L1057.3176,759.2964L1055.268,761.02014z" fill="#282828" stroke="none" fill-opacity="1" />
				<path d="M889.1167,347.26727L891.96234,342.39716L893.80316,337.06537L894.56854,331.477L894.2288,325.84662L892.79736,320.39075L890.329,315.3189L886.9184,310.8261L882.697,307.08502L877.82684,304.23944L872.4951,302.39856L866.90674,301.6333L861.27637,301.9729L855.8205,303.40442L850.74866,305.87286L846.25586,309.28333L842.51483,313.5047L700.3893,491.23712L694.71655,502.48096L692.8618,514.93744L731.1447,830.0922L731.2538,831.079L731.5533,832.02545L732.0316,832.8953L732.6705,833.6552L733.4454,834.2758L734.3264,834.73334L735.2797,835.0102L736.2688,835.0957L737.25555,834.98663L738.202,834.68713L739.07196,834.2088L739.8318,833.5699L740.4524,832.79504L740.9099,831.91406L741.18677,830.9607L741.27234,829.9716L772.19763,527.08984z" fill="#818181" stroke="none" fill-opacity="1" />
				<polyline points="872.55273,43.213623 767.16003,189.07617 786.97797,332.1858 833.126,390.61078 961.5586,448.7868 1144.6398,423.27704" fill="#5D5D5D" stroke="none" fill-opacity="1" />
				<path d="M882.27893,50.241333L883.46313,48.208862L884.22797,45.984375L884.5442,43.653442L884.3995,41.30542L883.7996,39.031006L882.76746,36.917236L881.34283,35.045288L879.5804,33.48755L877.54785,32.303345L875.3234,31.538452L872.9924,31.222168L870.6446,31.366821L868.37,31.966797L866.2562,32.9989L864.38446,34.423584L862.8265,36.186035L757.4339,182.04858L755.9781,184.7229L755.2424,187.67755L755.27405,190.72223L775.09186,333.8318L777.5616,339.62354L823.70953,398.04846L828.1748,401.5412L956.60736,459.71716L959.84326,460.66302L963.21454,460.67145L1146.2958,435.16168L1148.5825,434.6103L1150.7177,433.6233L1152.6194,432.2387L1154.2144,430.50977L1155.4415,428.50287L1156.2534,426.2951L1156.6191,423.9715L1156.5243,421.62103L1155.9729,419.3343L1154.986,417.19904L1153.6016,415.29736L1151.8726,413.70233L1149.8656,412.47528L1147.658,411.66327L1145.3342,411.2976L1142.9839,411.39233L963.3443,436.42255L840.73425,380.88397L798.41644,327.3083L779.70667,192.2005z" fill="#000000" stroke="none" fill-opacity="1" />
				<polygon points="1077.9447,82.34161 1196.8566,235.8274 1151.6404,415.14996 939.03827,389.43713 788.1185,189.91486 869.06824,45.6969" fill="#000000" stroke="none" fill-opacity="1" />
				<path d="M1089.4873,73.39905L1087.3759,71.19452L1084.852,69.477295L1082.0265,68.32233L1079.0225,67.77991L1075.9714,67.874084L1073.0067,68.600525L1070.2577,69.92743L1067.8445,71.797L1065.8729,74.12726L1064.4288,76.81665L1063.5756,79.74756L1063.3502,82.791565L1063.7627,85.81616L1064.795,88.68878L1066.402,91.28412L1180.9602,239.15039L1140.6263,399.11005L942.88666,382.74365L800.15314,189.09454L876.7364,61.866577L1075.4216,96.72339L1078.2758,96.93921L1081.1173,96.59424L1083.8368,95.701294L1086.33,94.295166L1088.5009,92.429504L1090.2661,90.17615L1091.5579,87.62189L1092.3264,84.864624L1092.5422,82.0105L1092.1971,79.168884L1091.3044,76.44928L1089.8982,73.95624L1088.0326,71.7854L1085.7794,70.02008L1083.2251,68.728455L1080.4677,67.95978L871.5913,31.315186L868.0042,31.134277L864.4816,31.834595L861.2366,33.373535L858.4652,35.65808L856.3354,38.55005L779.31726,184.97467L778.4177,187.12878L778.03705,189.43207L778.19586,191.76111L778.88544,193.99133L780.069,196.00354L933.37006,393.72467L934.7056,395.07086L936.3496,396.01605L938.185,396.49286L1149.8873,429.64575L1153.3932,429.6458L1156.7982,428.81012L1159.9058,427.18683L1162.5369,424.8697L1164.5397,421.99207L1165.7988,418.71997L1211.0148,239.3974L1211.4358,235.02399L1210.5369,230.72339L1208.3992,226.88483z" fill="#282828" stroke="none" fill-opacity="1" />
				<polyline points="1054.2756,204.32141 1026.4905,183.84808 1026.4905,240.88092 981.1569,208.7085 972.38257,243.80573 961.1809,260.2204" fill="#000000" stroke="none" fill-opacity="1" />
				<path d="M1045.1866,216.65631L1047.7678,218.1925L1050.599,219.19556L1053.5715,219.62701L1056.5709,219.47034L1059.4822,218.73145L1062.1935,217.43884L1064.6003,215.64209L1066.6105,213.41034L1068.1466,210.82922L1069.1498,207.99811L1069.5813,205.02563L1069.4247,202.02606L1068.6857,199.1148L1067.3931,196.40369L1065.5963,193.99677L1063.3645,191.98645L1035.5795,171.51318L1032.6604,169.82355L1029.4423,168.81335L1026.0812,168.5318L1022.7399,168.9925L1019.58044,170.17303L1016.75574,172.0163L1014.4028,174.43292L1012.6357,177.30591L1011.54,180.49579L1011.16864,183.84808L1011.16864,211.21918L990.02435,196.21344L987.1418,194.60406L983.98145,193.64941L980.69,193.39386L977.4202,193.84943L974.3237,194.99475L971.5446,196.77686L969.2119,199.11292L967.4336,201.89453L966.29254,204.9925L958.18274,237.43195L951.2693,253.45636L950.1403,255.52008L949.4354,257.76422L949.18195,260.1029L949.3896,262.44598L950.05035,264.7036L951.1389,266.78894L952.61334,268.62183L954.417,270.13184L956.4806,271.26093L958.7248,271.9657L961.0635,272.21918L963.40656,272.0116L965.6641,271.35083L967.74945,270.26227L969.58234,268.78784L971.0923,266.98413L985.0383,252.44226L990.5811,234.18488L1017.62305,253.37598L1020.5465,255.0028L1023.75354,255.95624L1027.0911,256.19098L1030.3999,255.69562L1033.5223,254.4939L1036.3094,252.643L1038.6285,250.23138L1040.3687,247.37384L1041.447,244.20667L1041.8124,240.88092L1041.8124,214.16992z" fill="#282828" stroke="none" fill-opacity="1" />
				<polyline points="1364.2216,834.18665 1347.4706,1011.52374" fill="#000000" stroke="none" fill-opacity="1" />
				<path d="M1366.8402,834.434L1366.8381,833.9184L1366.7355,833.4131L1366.5363,832.9375L1366.248,832.50995L1365.8821,832.1468L1365.4521,831.86206L1364.975,831.6666L1364.4689,831.568L1363.9532,831.5701L1363.4479,831.6727L1362.9723,831.87195L1362.5448,832.16016L1362.1816,832.5261L1361.897,832.95605L1361.7014,833.4332L1361.6029,833.93933L1337.9966,1010.62885L1338.004,1012.4943L1338.3754,1014.3225L1339.0962,1016.04315L1340.1387,1017.5901L1341.4631,1018.90393L1343.0183,1019.9342L1344.7446,1020.6412L1346.5758,1020.9978L1348.4412,1020.9903L1350.2694,1020.6191L1351.99,1019.8983L1353.537,1018.8557L1354.8508,1017.5314L1355.881,1015.97614L1356.588,1014.2498L1356.9447,1012.4187z" fill="#282828" stroke="none" fill-opacity="1" />
				<polyline points="1150.9836,781.0685 1040.5631,940.6477" fill="#000000" stroke="none" fill-opacity="1" />
				<path d="M1153.1465,782.5652L1153.397,782.1145L1153.5547,781.62354L1153.6135,781.11127L1153.5713,780.5974L1153.4297,780.10156L1153.1941,779.64294L1152.8734,779.23914L1152.4802,778.90564L1152.0295,778.65515L1151.5386,778.49744L1151.0264,778.4386L1150.5125,778.48083L1150.0167,778.62244L1149.558,778.8581L1149.154,779.17865L1148.8207,779.57184L1032.7375,935.2329L1031.8315,936.86365L1031.2612,938.6397L1031.0481,940.4931L1031.2008,942.3523L1031.7133,944.14606L1032.5659,945.8053L1033.7257,947.2664L1035.1483,948.4732L1036.779,949.37915L1038.5552,949.94965L1040.4084,950.1626L1042.2677,950.01L1044.0614,949.49756L1045.7207,948.645L1047.1818,947.48517L1048.3885,946.0625z" fill="#282828" stroke="none" fill-opacity="1" />
				<polyline points="1264.8916,800.22253 1184.7119,979.9627" fill="#000000" stroke="none" fill-opacity="1" />
				<path d="M1267.2936,801.29407L1267.4565,800.8048L1267.5208,800.2932L1267.4841,799.77893L1267.3478,799.2816L1267.1171,798.82056L1266.8008,798.4133L1266.411,798.0756L1265.9631,797.8204L1265.474,797.6575L1264.9623,797.59314L1264.448,797.6299L1263.9507,797.76624L1263.4895,797.997L1263.0824,798.31323L1262.7446,798.7029L1262.4894,799.151L1176.0212,976.08594L1175.4319,977.8559L1175.1991,979.7068L1175.332,981.56757L1175.8253,983.3667L1176.6603,985.035L1177.8044,986.5083L1179.2141,987.7301L1180.8351,988.6534L1182.6051,989.2428L1184.4559,989.47546L1186.3167,989.3426L1188.1158,988.84924L1189.784,988.0144L1191.2574,986.8702L1192.4792,985.4605L1193.4026,983.8395z" fill="#282828" stroke="none" fill-opacity="1" />
				<polyline points="1127.7134,1075.6466 884.2773,985.48486 715.2245,893.069 514.61505,944.912 205.81192,1059.8683" fill="#F0892F" stroke="none" fill-opacity="1" />
				<path d="M1126.8123,1078.0795L1127.3043,1078.2085L1127.8119,1078.2391L1128.3158,1078.17L1128.7965,1078.004L1129.2357,1077.7474L1129.6163,1077.4102L1129.9237,1077.005L1130.1462,1076.5477L1130.2753,1076.0558L1130.3059,1075.5481L1130.2368,1075.0442L1130.0709,1074.5635L1129.8142,1074.1243L1129.4769,1073.7438L1129.0718,1073.4363L1128.6145,1073.2137L890.8075,971.1515L724.6914,875.7513L720.09247,873.94226L715.1882,873.3326L710.28625,873.9603L509.15427,923.78125L205.01866,1057.7377L204.6183,1057.9332L204.26376,1058.2034L203.96867,1058.5374L203.74442,1058.9226L203.5996,1059.3441L203.5398,1059.7858L203.56734,1060.2306L203.6812,1060.6615L203.87689,1061.062L204.14685,1061.4165L204.48096,1061.7117L204.86612,1061.9359L205.28761,1062.0807L205.7293,1062.1404L206.17424,1062.1128L206.60506,1061.999L521.17004,965.75995L712.60583,914.1305L876.74207,999.2688z" fill="#7F3722" stroke="none" fill-opacity="1" />
			</g>
		</g>
	</g>
</svg>
