<?xml version="1.0" encoding="UTF-8"?>
<!-- Generator: Blender, SVG Export for Grease Pencil - v2.0 -->
<!DOCTYPE svg PUBLIC "-//W3C//DTD SVG 1.1//EN" "http://www.w3.org/Graphics/SVG/1.1/DTD/svg11.dtd">
<svg version="1.1" x="0px" y="0px" xmlns="http://www.w3.org/2000/svg" width="1920.000000px" height="1080.000000px" viewBox="0 0 1920.000000 1080.000000">
	<g id="blender_frame.1">
		<g id="blender_object.Stroke.1.uuid_0x0">
			<g id="layer.Fills.uuid_0x1" />
			<g id="layer.Lines.uuid_0x2">
				<polygon points="566.4578,845.734 696.9178,680.64355 255.26831,612.0126 16.749344,754.82416 199.98557,785.12744 383.22165,815.43066" fill="#000000" stroke="none" fill-opacity="1" />
				<path d="M550.97284,833.49725L548.88306,836.75336L547.46875,840.3546L546.78406,844.16254L546.8556,848.0309L547.68036,851.811L549.2267,855.35754L551.43524,858.53424L554.22107,861.21906L557.4772,863.30884L561.0784,864.72314L564.8865,865.4077L568.75476,865.3363L572.5347,864.5116L576.08136,862.9652L579.25806,860.75665L581.94293,857.9708L704.9801,687.0145L706.1244,685.2074L706.8699,683.2025L707.18396,681.0867L707.0533,678.95166L706.4834,676.88995L705.4991,674.99097L704.14294,673.3368L702.4737,671.99927L700.5637,671.0363L698.4958,670.4897L256.50827,604.0333L253.72214,604.08704L251.12016,605.08453L8.191967,740.5318L5.4839516,742.5526L3.2394218,745.07825L1.5507315,748.00494L0.48728943,751.21216L0.092983246,754.5679L0.38389206,757.9342L1.3481712,761.1726L2.9459953,764.1498L5.1117897,766.74335L7.7563477,768.84656L10.770893,770.37274L14.031372,771.2593L198.309,795.2654L381.54504,825.5687L563.2376,865.20593L567.0982,865.46L570.9343,864.95605L574.5983,863.7134L577.9495,861.7798L580.8591,859.22955L583.21515,856.1607L584.92737,852.69116L585.92975,848.9543L586.1839,845.0936L585.67993,841.25757L584.4372,837.5935L582.5036,834.2423L579.95337,831.33276L576.8845,828.9767L573.41504,827.2645L569.6781,826.2621L384.8983,805.2927L201.66223,774.9895L64.25583,745.796L256.91235,620.44006L677.9345,688.0926z" fill="#F8422A" stroke="none" fill-opacity="1" />
				<polyline points="914.6535,1014.1121 1108.125,559.5471 991.6665,289.06207 805.7083,268.4001 625.38513,476.89893 674.22253,925.8287" fill="#5D5D5D" stroke="none" fill-opacity="1" />
				<path d="M905.19855,1010.0879L904.59515,1012.00977L904.3783,1014.0125L904.5563,1016.019L905.1223,1017.9522L906.0546,1019.73785L907.3174,1021.3073L908.862,1022.6003L910.6293,1023.567L912.55115,1024.1704L914.5539,1024.3873L916.5603,1024.2094L918.4936,1023.64325L920.27924,1022.711L921.84863,1021.4482L923.1416,1019.9035L924.10834,1018.1363L1125.3032,566.85846L1126.6302,562.018L1126.6198,556.99896L1125.2726,552.16406L1001.10455,284.99847L999.72095,282.68127L997.782,280.80432L995.4211,279.49695L992.8012,278.84912L806.843,258.1872L804.3616,258.21295L801.9586,258.833L799.7743,260.01086L797.93616,261.6781L609.40955,463.0821L606.2686,467.91663L604.5519,473.42035L604.38745,479.18323L664.0071,926.94L664.4201,928.9115L665.20996,930.76465L666.3461,932.4281L667.78485,933.8378L669.4711,934.9399L671.33997,935.6918L673.31946,936.0646L675.33374,936.04407L677.3053,935.631L679.15845,934.8412L680.82184,933.7051L682.2316,932.26624L683.3337,930.58L684.08563,928.7112L684.4584,926.7317L684.4379,924.7174L647.37775,483.75873L809.94507,279.20972L984.5918,298.61487L1087.817,559.5895z" fill="#000000" stroke="none" fill-opacity="1" />
				<polygon points="949.14734,913.61566 1083.3871,746.0741 1488.7699,795.87067 1525.9014,1003.087 1237.5244,958.3513" fill="#000000" stroke="none" fill-opacity="1" />
				<path d="M937.2005,904.04346L935.5626,906.5581L934.44684,909.34393L933.89594,912.29395L933.9311,915.2948L934.5511,918.2311L935.73193,920.99L937.42834,923.4655L939.57513,925.5625L942.0898,927.2004L944.8756,928.31616L947.8257,928.86707L950.8264,928.8319L953.76276,928.2119L956.5217,927.03107L958.99713,925.3346L961.0942,923.18787L1087.9437,757.2693L1479.753,805.39844L1502.826,980.5455L1239.1854,947.6446L951.494,898.488L948.4977,898.3208L945.5263,898.74146L942.69415,899.73364L940.1099,901.25934L937.8729,903.2599L936.0693,905.65845L934.7682,908.36273L934.01965,911.2689L933.85254,914.26526L934.2731,917.2367L935.2653,920.0689L936.79114,922.6532L938.7916,924.89014L941.1901,926.6937L943.8945,927.9949L946.8006,928.74335L1235.8635,969.058L1523.029,1021.6033L1526.9769,1021.7938L1530.8771,1021.15204L1534.5558,1019.7064L1537.8495,1017.52124L1540.6115,1014.69385L1542.7188,1011.35L1544.078,1007.6384L1544.6283,1003.7244L1544.3455,999.782L1499.1608,794.00867L1498.3583,791.4551L1496.9395,789.1854L1494.9952,787.3455L1492.6509,786.05383L1490.057,785.3933L1084.6742,735.5968L1081.9961,735.61L1079.4076,736.2968L1077.0752,737.6129L1075.149,739.4736z" fill="#F8422A" stroke="none" fill-opacity="1" />
				<path d="M889.1167,347.26727L891.96234,342.39716L893.80316,337.0653L894.5685,331.477L894.2288,325.84662L892.79736,320.3907L890.3289,315.31885L886.91846,310.82617L882.6971,307.08502L877.8269,304.23944L872.4951,302.39856L866.9067,301.63324L861.27637,301.9729L855.82043,303.40442L850.74866,305.87286L846.2559,309.28333L842.51483,313.50476L700.38934,491.23712L694.71655,502.48096L692.8618,514.93744L731.1447,830.09216L731.2537,831.079L731.5533,832.02545L732.0316,832.8953L732.6705,833.65515L733.4454,834.2758L734.3264,834.7333L735.2798,835.0102L736.2688,835.0957L737.2555,834.98663L738.2021,834.68713L739.07196,834.20886L739.8318,833.5699L740.45245,832.79504L740.91,831.91406L741.18677,830.9607L741.27234,829.9716L772.19775,527.0898z" fill="#818181" stroke="none" fill-opacity="1" />
				<polyline points="696.5811,69.78381 705.97284,236.9585 817.63007,341.3252 894.8542,365.50946 1040.3219,349.66058 1175.5642,240.71533" fill="#5D5D5D" stroke="none" fill-opacity="1" />
				<path d="M709.49054,69.05859L709.101,66.554016L708.23035,64.173645L706.912,62.00879L705.19666,60.1427L703.1502,58.647217L700.8513,57.57965L698.3883,56.980957L695.85583,56.87445L693.35126,57.263977L690.9708,58.134705L688.80597,59.453003L686.93994,61.168457L685.44434,63.214844L684.37683,65.51373L683.77826,67.97681L683.67163,70.509155L693.0635,237.68372L693.6612,240.90851L695.05115,243.87909L697.14374,246.40436L808.8009,350.77112L813.76587,353.66412L890.99005,377.84833L896.2546,378.36316L1041.7223,362.51422L1045.2775,361.6031L1048.4332,359.72974L1183.6754,250.78436L1185.5918,248.87799L1187.0697,246.61469L1188.0448,244.09375L1188.4746,241.42505L1188.3398,238.72528L1187.647,236.11261L1186.426,233.70099L1184.7303,231.59601L1182.634,229.88959L1180.2288,228.65619L1177.6195,227.94989L1174.9207,227.80157L1172.2498,228.21753L1169.7238,229.17981L1167.453,230.64618L1035.1584,337.21692L896.1399,352.3631L824.30634,329.86713L718.5914,231.0545z" fill="#000000" stroke="none" fill-opacity="1" />
				<polygon points="883.2995,15.4227295 1081.8353,81.60144 1171.6492,230.50354 989.6579,294.3188 734.39746,206.86829 696.5811,69.78381" fill="#000000" stroke="none" fill-opacity="1" />
				<path d="M887.3882,3.1564941L884.91656,2.5946045L882.3828,2.5255127L879.88434,2.9521484L877.517,3.8580322L875.37195,5.208252L873.5316,6.951172L872.0665,9.019531L871.0332,11.333984L870.4712,13.805664L870.4022,16.339355L870.8288,18.83789L871.7347,21.205078L873.08496,23.35022L874.8278,25.190674L876.89624,26.65564L879.21063,27.688965L1073.2252,92.360596L1152.364,223.56445L989.63403,287.65808L741.7582,199.94257L712.4354,78.63458L886.91376,27.837158L889.26624,26.89331L891.3894,25.509033L893.20166,23.736938L894.6334,21.645264L895.6296,19.314575L896.1519,16.83435L896.18036,14.299927L895.7138,11.808472L894.7701,9.456055L893.3856,7.3326416L891.6136,5.520508L889.52203,4.088867L887.19135,3.0926514L884.711,2.5703125L882.1765,2.54187L879.6852,3.0084229L692.9668,57.369568L690.3178,58.47229L687.9773,60.132202L686.0605,62.267517L684.6618,64.77289L683.8502,67.525085L683.6654,70.38855L684.1168,73.22223L725.7818,209.245L726.60626,211.24744L727.8882,212.99268L729.5523,214.37854L731.5008,215.32336L987.6183,300.27258L989.6806,300.61224L991.7404,300.25775L1175.9277,242.70496L1178.5095,241.46326L1180.7548,239.68341L1182.5526,237.45288L1183.8154,234.88116L1184.4808,232.0946L1184.5161,229.2298L1183.9197,226.42761L1182.721,223.8255L1092.907,74.92328L1089.9141,71.506165L1085.9242,69.335144z" fill="#F8422A" stroke="none" fill-opacity="1" />
				<polyline points="929.68774,145.46588 909.02576,216.84387" fill="#000000" stroke="none" fill-opacity="1" />
				<path d="M973.62683,158.18512L975.2639,149.36871L975.14954,140.40222L973.2882,131.63031L969.75116,123.39026L964.67456,115.99841L958.2535,109.73901L950.7346,104.8526L942.4069,101.52692L933.59045,99.88983L924.624,100.00415L915.8522,101.86554L907.612,105.40259L900.22015,110.479126L893.96075,116.90021L889.0744,124.41913L885.7488,132.74683L896.60583,213.24866L896.1431,215.74078L896.1754,218.27527L896.7016,220.75464L897.70135,223.08386L899.1363,225.17322L900.95135,226.94257L903.0766,228.32379L905.4305,229.26373L907.92267,229.72656L910.4571,229.69415L912.9365,229.16809L915.26575,228.16821L917.3551,226.7334L919.1244,224.91827L920.50555,222.79303L921.44556,220.43909z" fill="#F8422A" stroke="none" fill-opacity="1" />
				<polyline points="1388.4052,791.2068 1383.897,969.27625" fill="#000000" stroke="none" fill-opacity="1" />
				<path d="M1391.0345,791.2733L1390.9971,790.75916L1390.8599,790.262L1390.6284,789.8013L1390.3115,789.39453L1389.9214,789.0574L1389.4728,788.803L1388.9834,788.64087L1388.4718,788.5773L1387.9574,788.61487L1387.4604,788.752L1386.9995,788.9834L1386.5928,789.30035L1386.2559,789.69055L1386.0012,790.139L1385.8391,790.6285L1385.7756,791.1402L1374.3838,969.03546L1374.5197,970.89594L1375.0159,972.6943L1375.8534,974.3612L1377,975.83276L1378.4116,977.0523L1380.0339,977.973L1381.8048,978.5596L1383.6561,978.7894L1385.5167,978.65356L1387.3151,978.1574L1388.9819,977.31995L1390.4535,976.1734L1391.6731,974.7617L1392.5938,973.1393L1393.1803,971.36835L1393.41,969.5171z" fill="#F8422A" stroke="none" fill-opacity="1" />
				<polyline points="1172.0175,752.888 1072.8397,919.68726" fill="#000000" stroke="none" fill-opacity="1" />
				<path d="M1174.2782,754.2323L1174.4971,753.7654L1174.6207,753.2648L1174.644,752.74976L1174.5667,752.23987L1174.3912,751.755L1174.1245,751.3137L1173.777,750.93286L1173.3618,750.6272L1172.8948,750.4083L1172.3942,750.28485L1171.8792,750.26135L1171.3694,750.33887L1170.8845,750.5143L1170.4431,750.7809L1170.0623,751.12854L1169.7566,751.54376L1064.6602,914.8237L1063.8685,916.513L1063.4218,918.3242L1063.3368,920.18774L1063.6171,922.03204L1064.2517,923.78625L1065.2163,925.383L1066.474,926.76074L1067.9762,927.86676L1069.6655,928.6584L1071.4767,929.1053L1073.3402,929.19025L1075.1844,928.91L1076.9387,928.2753L1078.5355,927.31067L1079.9132,926.053L1081.0192,924.5507z" fill="#F8422A" stroke="none" fill-opacity="1" />
				<polyline points="1286.9734,764.1582 1219.3522,948.9898" fill="#000000" stroke="none" fill-opacity="1" />
				<path d="M1289.4436,765.062L1289.5725,764.56274L1289.6014,764.0479L1289.5293,763.5373L1289.359,763.0506L1289.0972,762.60645L1288.7537,762.2219L1288.3417,761.9118L1287.8772,761.68805L1287.3779,761.5592L1286.863,761.5303L1286.3524,761.6023L1285.8657,761.7726L1285.4216,762.03455L1285.037,762.37805L1284.7269,762.79004L1284.5032,763.2545L1210.4154,945.7202L1209.9492,947.52655L1209.8445,949.3891L1210.105,951.2363L1210.7211,952.9972L1211.6686,954.60406L1212.9116,955.9952L1214.4021,957.11707L1216.0828,957.92664L1217.8889,958.3928L1219.7516,958.4976L1221.5988,958.23706L1223.3596,957.6211L1224.9666,956.6734L1226.3575,955.4305L1227.4796,953.94006L1228.2891,952.2594z" fill="#F8422A" stroke="none" fill-opacity="1" />
				<polyline points="599.49176,660.47217 414.66064,811.49316" fill="#000000" stroke="none" fill-opacity="1" />
				<path d="M601.156,662.50903L601.52136,662.14526L601.8089,661.71716L602.00714,661.24115L602.1088,660.7357L602.1099,660.2201L602.0105,659.7141L601.8141,659.2373L601.5286,658.808L601.1648,658.4426L600.73663,658.1552L600.2607,657.9568L599.75525,657.85516L599.2397,657.854L598.7337,657.95355L598.25684,658.14984L597.8276,658.4354L408.63953,804.124L407.3176,805.4403L406.27777,806.98914L405.56024,808.7112L405.19232,810.54L405.1883,812.4055L405.54828,814.23596L406.25845,815.96094L407.29156,817.5143L408.60782,818.8363L410.15665,819.87604L411.87866,820.5936L413.7075,820.96155L415.5729,820.9655L417.40338,820.60547L419.12848,819.8954L420.6818,818.8623z" fill="#F8422A" stroke="none" fill-opacity="1" />
				<polyline points="461.99542,642.4398 292.94266,786.6986" fill="#000000" stroke="none" fill-opacity="1" />
				<path d="M463.70282,644.4407L464.06033,644.0692L464.33853,643.635L464.52667,643.1549L464.61752,642.64734L464.60764,642.13184L464.4973,641.62805L464.2909,641.15564L463.99625,640.7324L463.6247,640.3749L463.19052,640.09674L462.71042,639.90857L462.20288,639.81775L461.68738,639.82764L461.1837,639.9379L460.7112,640.1444L460.288,640.439L286.76553,779.45984L285.47195,780.80396L284.46558,782.37476L283.78494,784.11163L283.4562,785.94794L283.49194,787.8131L283.89102,789.6354L284.63785,791.34485L285.70386,792.87585L287.04803,794.1693L288.6188,795.1758L290.35565,795.85645L292.192,796.1852L294.05713,796.1494L295.87943,795.75037L297.58893,795.0035L299.11978,793.93744z" fill="#F8422A" stroke="none" fill-opacity="1" />
				<polyline points="349.29358,624.40753 162.20851,764.1582" fill="#000000" stroke="none" fill-opacity="1" />
				<path d="M350.86765,626.5148L351.24854,626.16724L351.55426,625.752L351.7731,625.28516L351.89673,624.78455L351.9202,624.2694L351.84283,623.75964L351.66745,623.2748L351.40085,622.8334L351.05328,622.4526L350.63803,622.1468L350.17117,621.928L349.67062,621.80444L349.15552,621.7809L348.64575,621.8583L348.1608,622.0336L347.71954,622.30023L156.51346,756.53424L155.13547,757.79175L154.0294,759.29395L153.23753,760.98303L152.79047,762.79425L152.70538,764.6578L152.98549,766.50214L153.62,768.2564L154.5845,769.85315L155.84203,771.2312L157.34418,772.3373L159.03334,773.129L160.84448,773.5762L162.70804,773.66125L164.55235,773.3812L166.30669,772.7467L167.90343,771.7821z" fill="#F8422A" stroke="none" fill-opacity="1" />
				<polyline points="1127.7134,1075.6466 884.27734,985.48486 715.2245,893.069 514.61505,944.912 205.81192,1059.8683" fill="#C3333A" stroke="none" fill-opacity="1" />
				<path d="M1126.8123,1078.0795L1127.3042,1078.2085L1127.812,1078.2391L1128.3158,1078.17L1128.7966,1078.004L1129.2357,1077.7474L1129.6163,1077.4102L1129.9237,1077.005L1130.1462,1076.5477L1130.2753,1076.0558L1130.3059,1075.5481L1130.2368,1075.0442L1130.0709,1074.5635L1129.8142,1074.1243L1129.4769,1073.7438L1129.0718,1073.4363L1128.6145,1073.2137L890.8075,971.1515L724.69147,875.7513L720.0924,873.9423L715.18823,873.3326L710.28625,873.9603L509.15427,923.78125L205.01868,1057.7377L204.6183,1057.9332L204.26376,1058.2034L203.96867,1058.5374L203.74443,1058.9226L203.5996,1059.3441L203.53981,1059.7858L203.56734,1060.2306L203.6812,1060.6615L203.87689,1061.062L204.14687,1061.4165L204.48097,1061.7117L204.86612,1061.9359L205.28761,1062.0807L205.7293,1062.1404L206.17424,1062.1128L206.60504,1061.999L521.17004,965.75995L712.6059,914.1305L876.74207,999.2688z" fill="#7F0017" stroke="none" fill-opacity="1" />
			</g>
		</g>
	</g>
</svg>
