<?xml version="1.0" encoding="UTF-8"?>
<!-- Generator: Blender, SVG Export for Grease Pencil - v2.0 -->
<!DOCTYPE svg PUBLIC "-//W3C//DTD SVG 1.1//EN" "http://www.w3.org/Graphics/SVG/1.1/DTD/svg11.dtd">
<svg version="1.1" x="0px" y="0px" xmlns="http://www.w3.org/2000/svg" width="1920.000000px" height="1080.000000px" viewBox="0 0 1920.000000 1080.000000">
	<g id="blender_frame.4">
		<g id="blender_object.Stroke.4.uuid_0x0">
			<g id="layer.Fills.uuid_0x1" />
			<g id="layer.Lines.uuid_0x2">
				<polygon points="566.4578,845.734 696.91785,680.64355 255.26831,612.01263 16.749344,754.82416 199.98555,785.12744 383.22165,815.4307" fill="#000000" stroke="none" fill-opacity="1" />
				<path d="M550.97284,833.49725L548.883,836.75336L547.46875,840.3546L546.78406,844.16254L546.8556,848.0309L547.68036,851.811L549.2267,855.35754L551.43524,858.53424L554.2211,861.21906L557.4772,863.30884L561.0784,864.72314L564.8864,865.4078L568.75476,865.3363L572.5347,864.51154L576.08136,862.9652L579.25806,860.75665L581.94293,857.9708L704.98004,687.0145L706.1244,685.2074L706.8698,683.2025L707.18396,681.0867L707.0533,678.95166L706.48346,676.88995L705.4991,674.99097L704.14294,673.3368L702.4737,671.99927L700.5637,671.0364L698.4957,670.4896L256.50827,604.0333L253.72215,604.08704L251.12018,605.0845L8.191967,740.5318L5.4839516,742.5526L3.2394216,745.07825L1.5507317,748.00494L0.48728943,751.21216L0.09298324,754.5679L0.38389206,757.9342L1.3481712,761.1726L2.9459953,764.1498L5.1117897,766.7433L7.7563477,768.84656L10.770893,770.37274L14.031371,771.2593L198.309,795.2654L381.545,825.5687L563.23755,865.20593L567.09827,865.46L570.93427,864.95605L574.5983,863.7134L577.9495,861.77985L580.8591,859.22955L583.21515,856.1607L584.9273,852.69116L585.92975,848.9543L586.1839,845.0936L585.6799,841.25757L584.4372,837.5935L582.5036,834.2423L579.95337,831.3328L576.8845,828.9767L573.41504,827.2645L569.67804,826.26215L384.8983,805.2927L201.66223,774.9895L64.25583,745.796L256.91235,620.44006L677.9345,688.0926z" fill="#F89800" stroke="none" fill-opacity="1" />
				<polyline points="914.6535,1014.1121 1108.125,559.54706 991.66644,289.062 805.70825,268.4001 625.3852,476.89893 674.2225,925.8287" fill="#5D5D5D" stroke="none" fill-opacity="1" />
				<path d="M905.1985,1010.0879L904.59515,1012.00977L904.37823,1014.0125L904.5562,1016.019L905.12225,1017.9522L906.05457,1019.73785L907.3174,1021.3073L908.862,1022.6003L910.6293,1023.567L912.55115,1024.1704L914.5539,1024.3873L916.56036,1024.2094L918.4936,1023.64325L920.27924,1022.711L921.84863,1021.4482L923.1416,1019.9035L924.10834,1018.1363L1125.3032,566.85846L1126.6302,562.018L1126.6198,556.99896L1125.2726,552.1641L1001.1045,284.99854L999.72095,282.68134L997.7819,280.80438L995.421,279.49695L992.80115,278.84924L806.8431,258.1872L804.3616,258.21295L801.9586,258.833L799.7743,260.01093L797.93616,261.6781L609.40955,463.08215L606.2686,467.91663L604.5519,473.42035L604.38745,479.18323L664.007,926.94L664.42017,928.9115L665.2099,930.76465L666.34607,932.4281L667.78485,933.8379L669.4711,934.9399L671.33997,935.6918L673.31946,936.06464L675.33374,936.04407L677.3053,935.631L679.15845,934.8412L680.82184,933.7051L682.2316,932.26624L683.3337,930.58L684.0856,928.7112L684.45844,926.7317L684.43787,924.7174L647.3777,483.75873L809.94507,279.20972L984.59174,298.61493L1087.817,559.5894z" fill="#000000" stroke="none" fill-opacity="1" />
				<polygon points="949.14734,913.6157 1083.3871,746.0741 1488.7699,795.8706 1525.9015,1003.087 1237.5244,958.3513" fill="#000000" stroke="none" fill-opacity="1" />
				<path d="M937.2005,904.04346L935.5626,906.5581L934.44684,909.34393L933.8959,912.29395L933.93115,915.2948L934.5511,918.2311L935.73193,920.99L937.42834,923.4655L939.57513,925.5625L942.08984,927.2004L944.8756,928.31616L947.8256,928.86707L950.8264,928.8319L953.76276,928.2119L956.52167,927.03107L958.99713,925.3346L961.0942,923.18787L1087.9437,757.2693L1479.753,805.3985L1502.826,980.5455L1239.1853,947.6446L951.4941,898.488L948.49774,898.3208L945.5263,898.74146L942.6941,899.73364L940.10986,901.25934L937.87286,903.25995L936.0693,905.65845L934.7682,908.36273L934.01965,911.2689L933.8525,914.26526L934.2731,917.2367L935.2653,920.06885L936.7911,922.6532L938.7917,924.89014L941.1901,926.6938L943.8944,927.9949L946.8006,928.74335L1235.8635,969.058L1523.029,1021.6033L1526.9769,1021.7938L1530.8771,1021.15204L1534.5559,1019.7064L1537.8495,1017.52124L1540.6113,1014.69385L1542.7188,1011.35L1544.0781,1007.6384L1544.6283,1003.7244L1544.3453,999.782L1499.1606,794.0087L1498.3583,791.4551L1496.9393,789.1854L1494.9952,787.3456L1492.6509,786.05383L1490.057,785.3933L1084.6741,735.5968L1081.9961,735.61005L1079.4077,736.2968L1077.0752,737.6129L1075.149,739.4736z" fill="#F89800" stroke="none" fill-opacity="1" />
				<path d="M889.1167,347.26727L891.96234,342.39716L893.80316,337.06537L894.56854,331.477L894.2288,325.84662L892.79736,320.39075L890.329,315.3189L886.9184,310.8261L882.697,307.08502L877.82684,304.23944L872.4951,302.39856L866.90674,301.6333L861.27637,301.9729L855.8205,303.40442L850.74866,305.87286L846.25586,309.28333L842.51483,313.5047L700.3893,491.23712L694.71655,502.48096L692.8618,514.93744L731.1447,830.0922L731.2538,831.079L731.5533,832.02545L732.0316,832.8953L732.6705,833.6552L733.4454,834.2758L734.3264,834.73334L735.2797,835.0102L736.2688,835.0957L737.25555,834.98663L738.202,834.68713L739.07196,834.2088L739.8318,833.5699L740.4524,832.79504L740.9099,831.91406L741.18677,830.9607L741.27234,829.9716L772.19763,527.08984z" fill="#818181" stroke="none" fill-opacity="1" />
				<polyline points="696.5811,69.783875 705.97284,236.95856 817.63,341.32526 894.85425,365.50952 1040.3219,349.66058 1175.5642,240.71533" fill="#5D5D5D" stroke="none" fill-opacity="1" />
				<path d="M709.49054,69.05859L709.10095,66.553955L708.23035,64.173584L706.912,62.00879L705.1966,60.1427L703.15015,58.647217L700.8513,57.57965L698.38824,56.981018L695.8558,56.87451L693.35126,57.263916L690.9708,58.134644L688.80597,59.453003L686.93994,61.168457L685.44434,63.214844L684.37683,65.51367L683.77826,67.97681L683.67163,70.50922L693.0635,237.68372L693.6612,240.90851L695.0511,243.87909L697.14374,246.40442L808.8009,350.77118L813.7659,353.66406L890.9901,377.84833L896.2546,378.36316L1041.7224,362.51428L1045.2773,361.6031L1048.4332,359.72974L1183.6754,250.78442L1185.5918,248.87799L1187.0697,246.61469L1188.0448,244.09375L1188.4746,241.42499L1188.34,238.72528L1187.647,236.11255L1186.426,233.70093L1184.7303,231.59601L1182.634,229.88965L1180.2288,228.65619L1177.6196,227.94989L1174.9205,227.80157L1172.2498,228.21759L1169.7238,229.17975L1167.453,230.64624L1035.1584,337.21692L896.1399,352.3631L824.3064,329.86713L718.5914,231.0545z" fill="#000000" stroke="none" fill-opacity="1" />
				<polygon points="883.29944,15.4227295 1081.8352,81.6015 1171.6492,230.5036 989.65796,294.31885 734.3974,206.86835 696.5811,69.783875" fill="#000000" stroke="none" fill-opacity="1" />
				<path d="M887.38824,3.1564941L884.91656,2.5944824L882.3829,2.5255127L879.8843,2.9521484L877.517,3.8580322L875.37195,5.208252L873.53156,6.951172L872.0665,9.019653L871.03314,11.333984L870.4712,13.805664L870.40216,16.339355L870.8288,18.83789L871.7347,21.2052L873.08496,23.35022L874.82776,25.190674L876.8962,26.65564L879.2107,27.689087L1073.2251,92.360596L1152.3639,223.56439L989.63403,287.65808L741.7582,199.94257L712.4354,78.63464L886.91376,27.837158L889.2662,26.893433L891.3894,25.509033L893.2016,23.736938L894.6334,21.645386L895.62964,19.314575L896.1519,16.83435L896.18036,14.299805L895.7138,11.808594L894.7701,9.456055L893.3856,7.3327637L891.61365,5.520508L889.522,4.088867L887.19135,3.0926514L884.711,2.5703125L882.1765,2.54187L879.6852,3.0084229L692.96674,57.369507L690.3178,58.47235L687.97723,60.132263L686.0605,62.267517L684.6618,64.77295L683.85016,67.52521L683.66547,70.38861L684.1168,73.22229L725.7818,209.24506L726.60626,211.24744L727.8882,212.99274L729.55225,214.37854L731.5008,215.32336L987.6182,300.27258L989.6806,300.61218L991.74036,300.25775L1175.9276,242.70496L1178.5095,241.46332L1180.7548,239.68341L1182.5527,237.45294L1183.8154,234.88116L1184.4808,232.0946L1184.5161,229.22974L1183.9197,226.42767L1182.721,223.82556L1092.907,74.92328L1089.9141,71.50629L1085.9242,69.335205z" fill="#F89800" stroke="none" fill-opacity="1" />
				<polyline points="929.6877,145.46588 909.0257,216.84387" fill="#000000" stroke="none" fill-opacity="1" />
				<path d="M973.62683,158.18518L975.26385,149.36871L975.14954,140.40222L973.28815,131.63037L969.75116,123.39026L964.6746,115.99841L958.25354,109.739075L950.7347,104.85266L942.40686,101.52698L933.59045,99.88983L924.624,100.00415L915.8521,101.8656L907.612,105.40265L900.22015,110.47919L893.9608,116.90027L889.0744,124.41919L885.7487,132.74689L896.60583,213.2486L896.1431,215.74084L896.1754,218.27527L896.7016,220.7547L897.70135,223.08386L899.1363,225.17322L900.95135,226.94257L903.0766,228.32379L905.4305,229.26373L907.9226,229.72656L910.4571,229.69415L912.93646,229.16809L915.2657,228.16821L917.3551,226.73334L919.12445,224.91833L920.50555,222.79303L921.4456,220.43909z" fill="#F89800" stroke="none" fill-opacity="1" />
				<polyline points="1388.4052,791.2068 1383.897,969.27625" fill="#000000" stroke="none" fill-opacity="1" />
				<path d="M1391.0345,791.2733L1390.9971,790.7591L1390.8599,790.262L1390.6285,789.8013L1390.3114,789.39453L1389.9213,789.0574L1389.4728,788.803L1388.9834,788.64087L1388.4717,788.5773L1387.9574,788.61487L1387.4604,788.752L1386.9995,788.9834L1386.5928,789.30035L1386.2559,789.69055L1386.0012,790.13904L1385.8391,790.62854L1385.7756,791.1402L1374.3838,969.03546L1374.5197,970.89594L1375.0159,972.6943L1375.8533,974.3612L1376.9999,975.83276L1378.4115,977.0523L1380.0339,977.973L1381.8048,978.5596L1383.6561,978.7894L1385.5167,978.65356L1387.3151,978.1574L1388.9819,977.31995L1390.4535,976.1734L1391.6731,974.7617L1392.5938,973.1392L1393.1804,971.36835L1393.41,969.5171z" fill="#F89800" stroke="none" fill-opacity="1" />
				<polyline points="1172.0175,752.888 1072.8397,919.68726" fill="#000000" stroke="none" fill-opacity="1" />
				<path d="M1174.2783,754.2323L1174.4971,753.7654L1174.6207,753.2648L1174.6442,752.74976L1174.5667,752.2399L1174.3912,751.75507L1174.1246,751.3137L1173.777,750.93286L1173.3617,750.6272L1172.8948,750.4083L1172.3942,750.2848L1171.879,750.26135L1171.3694,750.33887L1170.8845,750.5143L1170.4431,750.7809L1170.0623,751.12854L1169.7566,751.5438L1064.6603,914.8238L1063.8687,916.513L1063.4218,918.3242L1063.3368,920.18774L1063.617,922.03204L1064.2517,923.78625L1065.2163,925.383L1066.474,926.76074L1067.9763,927.86676L1069.6655,928.6584L1071.4767,929.1053L1073.3402,929.19025L1075.1844,928.91003L1076.9386,928.2754L1078.5354,927.31067L1079.9132,926.053L1081.0192,924.5507z" fill="#F89800" stroke="none" fill-opacity="1" />
				<polyline points="1286.9734,764.1582 1219.3522,948.9898" fill="#000000" stroke="none" fill-opacity="1" />
				<path d="M1289.4436,765.062L1289.5724,764.56274L1289.6014,764.0479L1289.5293,763.53735L1289.359,763.05054L1289.0972,762.60645L1288.7535,762.2219L1288.3417,761.91187L1287.8771,761.68805L1287.3778,761.5592L1286.863,761.5303L1286.3524,761.6023L1285.8657,761.7726L1285.4215,762.03455L1285.037,762.37805L1284.7269,762.79004L1284.5032,763.2546L1210.4153,945.7202L1209.9492,947.52655L1209.8445,949.3891L1210.105,951.2363L1210.7211,952.9972L1211.6686,954.60406L1212.9115,955.9952L1214.4021,957.11707L1216.0828,957.92664L1217.8889,958.3928L1219.7516,958.4976L1221.5988,958.23706L1223.3597,957.6211L1224.9664,956.6734L1226.3575,955.4305L1227.4795,953.94006L1228.2891,952.2594z" fill="#F89800" stroke="none" fill-opacity="1" />
				<polyline points="599.49176,660.4722 414.66064,811.49316" fill="#000000" stroke="none" fill-opacity="1" />
				<path d="M601.15594,662.50903L601.52136,662.14526L601.80884,661.71716L602.00714,661.2412L602.10876,660.7357L602.1099,660.2201L602.0105,659.7141L601.8141,659.2373L601.52856,658.808L601.16473,658.4426L600.73663,658.1552L600.2607,657.95685L599.7552,657.8551L599.2396,657.854L598.7337,657.95355L598.25684,658.1499L597.8276,658.4354L408.6395,804.124L407.3176,805.4403L406.27777,806.98914L405.56024,808.7111L405.19232,810.54004L405.1883,812.4055L405.54828,814.23596L406.25845,815.96094L407.29153,817.5143L408.6078,818.83624L410.15665,819.87604L411.87863,820.5936L413.70746,820.96155L415.5729,820.9655L417.40338,820.6055L419.12848,819.8954L420.6818,818.8623z" fill="#F89800" stroke="none" fill-opacity="1" />
				<polyline points="461.99542,642.4398 292.94266,786.69867" fill="#000000" stroke="none" fill-opacity="1" />
				<path d="M463.7028,644.4407L464.06033,644.0692L464.33853,643.635L464.52667,643.1549L464.61755,642.64734L464.60764,642.13184L464.4973,641.6281L464.29092,641.15564L463.99625,640.7324L463.6247,640.37494L463.19052,640.09674L462.71045,639.9086L462.2029,639.81775L461.6874,639.82764L461.1837,639.938L460.7112,640.14435L460.288,640.439L286.76553,779.45984L285.47195,780.804L284.46555,782.37476L283.7849,784.11163L283.45618,785.94794L283.49194,787.8131L283.89102,789.6354L284.63785,791.34485L285.7039,792.87585L287.04803,794.1693L288.6188,795.1758L290.35565,795.85645L292.19196,796.1852L294.05713,796.1494L295.87943,795.75037L297.5889,795.0035L299.11975,793.9375z" fill="#F89800" stroke="none" fill-opacity="1" />
				<polyline points="349.29358,624.4075 162.2085,764.1582" fill="#000000" stroke="none" fill-opacity="1" />
				<path d="M350.86768,626.5148L351.24854,626.16724L351.55426,625.752L351.77313,625.28516L351.89673,624.78455L351.92017,624.2694L351.8428,623.7597L351.66745,623.2748L351.40085,622.8334L351.05328,622.4526L350.63806,622.1468L350.17117,621.928L349.6706,621.80444L349.15552,621.7809L348.64575,621.8583L348.1608,622.0337L347.7195,622.30023L156.51346,756.53424L155.13548,757.79175L154.0294,759.29395L153.23753,760.98303L152.79047,762.79425L152.70538,764.65784L152.98547,766.50214L153.62,768.2564L154.5845,769.85315L155.84203,771.2312L157.3442,772.3373L159.03334,773.129L160.84448,773.5762L162.70804,773.66125L164.55235,773.3812L166.30669,772.7467L167.90343,771.7821z" fill="#F89800" stroke="none" fill-opacity="1" />
				<polyline points="1127.7134,1075.6466 884.2773,985.48486 715.2245,893.069 514.61505,944.912 205.81192,1059.8683" fill="#F0892F" stroke="none" fill-opacity="1" />
				<path d="M1126.8123,1078.0795L1127.3043,1078.2085L1127.8119,1078.2391L1128.3158,1078.17L1128.7965,1078.004L1129.2357,1077.7474L1129.6163,1077.4102L1129.9237,1077.005L1130.1462,1076.5477L1130.2753,1076.0558L1130.3059,1075.5481L1130.2368,1075.0442L1130.0709,1074.5635L1129.8142,1074.1243L1129.4769,1073.7438L1129.0718,1073.4363L1128.6145,1073.2137L890.8075,971.1515L724.6914,875.7513L720.09247,873.94226L715.1882,873.3326L710.28625,873.9603L509.15427,923.78125L205.01866,1057.7377L204.6183,1057.9332L204.26376,1058.2034L203.96867,1058.5374L203.74442,1058.9226L203.5996,1059.3441L203.5398,1059.7858L203.56734,1060.2306L203.6812,1060.6615L203.87689,1061.062L204.14685,1061.4165L204.48096,1061.7117L204.86612,1061.9359L205.28761,1062.0807L205.7293,1062.1404L206.17424,1062.1128L206.60506,1061.999L521.17004,965.75995L712.60583,914.1305L876.74207,999.2688z" fill="#7F3722" stroke="none" fill-opacity="1" />
			</g>
		</g>
	</g>
</svg>
