<?xml version="1.0" encoding="UTF-8"?>
<!-- Generator: Blender, SVG Export for Grease Pencil - v2.0 -->
<!DOCTYPE svg PUBLIC "-//W3C//DTD SVG 1.1//EN" "http://www.w3.org/Graphics/SVG/1.1/DTD/svg11.dtd">
<svg version="1.1" x="0px" y="0px" xmlns="http://www.w3.org/2000/svg" width="1350.000000px" height="1080.000000px" viewBox="0 0 1350.000000 1080.000000">
	<g id="blender_frame.3">
		<g id="blender_object.Stroke.001.3.uuid_0x0">
			<g id="layer.Fills.uuid_0x1" />
			<g id="layer.Lines.uuid_0x2">
				<polyline points="1129.8282,1045.6165 1268.4462,891.3794 1293.827,49.908936 368.405,40.146973 81.40709,297.8595 63.83577,1053.4258" fill="#A55201" stroke="none" fill-opacity="1" />
				<path d="M1128.9287,1044.8081L1128.7883,1044.9991L1128.6879,1045.2139L1128.6312,1045.444L1128.6207,1045.6809L1128.6564,1045.9152L1128.7372,1046.1381L1128.8599,1046.341L1129.0198,1046.5159L1129.2108,1046.6562L1129.4255,1046.7567L1129.6558,1046.8134L1129.8926,1046.8241L1130.127,1046.7883L1130.3497,1046.7075L1130.5526,1046.5847L1130.7275,1046.4248L1269.3456,892.18774L1269.5687,891.8292L1269.6549,891.41583L1295.0358,49.945312L1295.0128,49.67212L1294.9291,49.41101L1294.7887,49.17566L1294.5986,48.977905L1294.3693,48.828003L1294.1118,48.733643L1293.8397,48.699585L368.41776,38.937866L368.12125,38.971558L367.842,39.076782L367.5971,39.247314L80.59914,296.95978L80.38719,297.20984L80.25009,297.5077L80.198135,297.83148L62.62682,1053.3977L62.6445,1053.6342L62.708126,1053.8624L62.814964,1054.0741L62.96104,1054.2607L63.140778,1054.4154L63.347168,1054.532L63.57239,1054.6061L63.80768,1054.6348L64.04394,1054.6171L64.27248,1054.5535L64.484085,1054.4467L64.67079,1054.3005L64.82534,1054.121L64.941956,1053.9146L65.016,1053.6892L65.04472,1053.454L82.60385,298.41003L368.86282,41.361206L1292.581,51.105103L1267.2509,890.9004z" fill="#F3B93C" stroke="none" fill-opacity="1" />
				<polyline points="63.83577,1053.4258 65.114876,866.9822 66.393814,194.64832 224.33046,44.023315 1161.386,44.171387 1299.5294,44.319336" fill="#A55201" stroke="none" fill-opacity="1" />
				<path d="M62.626476,1053.4175L62.648167,1053.6537L62.715454,1053.8809L62.825718,1054.0908L62.974834,1054.275L63.15703,1054.4266L63.36531,1054.5399L63.591785,1054.6102L63.827423,1054.6351L64.063515,1054.6135L64.2909,1054.5463L64.50073,1054.4359L64.68498,1054.2869L64.836555,1054.1046L64.9498,1053.8962L65.02012,1053.6699L65.04501,1053.4342L65.33707,866.9837L115.12567,215.56824L236.01082,73.20148L1161.3859,44.393555L1299.5283,45.509155L1299.7604,45.486572L1299.9838,45.419067L1300.1896,45.309326L1300.3699,45.16162L1300.5181,44.981445L1300.6283,44.77588L1300.6962,44.552612L1300.7194,44.320557L1300.6967,44.08838L1300.6293,43.865234L1300.5195,43.6593L1300.3717,43.479004L1300.1915,43.33081L1299.986,43.220703L1299.7628,43.15271L1299.5308,43.129517L1161.3862,43.949097L224.33504,14.84668L217.00476,15.781494L210.14442,18.527832L204.19402,22.909546L32.73382,159.35443L24.56274,169.57208L19.401855,181.59412L17.62247,194.5556L64.89264,866.9812z" fill="#F3B93C" stroke="none" fill-opacity="1" />
				<polyline points="1298.7893,43.781006 1296.9312,218.0658 1295.0726,900.9777 1137.1361,1051.6028 234.04083,1052.2408" fill="#A55201" stroke="none" fill-opacity="1" />
				<path d="M1299.9791,43.7937L1299.9587,43.5614L1299.8934,43.337402L1299.7855,43.130615L1299.6395,42.948853L1299.4609,42.79895L1299.2565,42.686768L1299.034,42.6167L1298.8021,42.59131L1298.5697,42.611694L1298.3458,42.677002L1298.139,42.78479L1297.9572,42.93091L1297.8073,43.10962L1297.6951,43.314087L1297.625,43.53662L1297.5997,43.76831L1296.4147,218.06024L1244.0483,879.0488L1128.1522,1029.1884L234.0406,1051.9376L233.98149,1051.9435L233.9246,1051.9608L233.87221,1051.9889L233.82632,1052.0266L233.7886,1052.0725L233.76068,1052.125L233.74345,1052.1819L233.73761,1052.2411L233.74352,1052.3002L233.76085,1052.3569L233.78888,1052.4094L233.8266,1052.4553L233.87256,1052.493L233.92502,1052.521L233.98196,1052.5382L234.04106,1052.544L1137.1521,1074.0237L1142.7782,1073.3022L1148.0432,1071.1919L1152.6101,1067.8279L1330.3286,937.94495L1338.8799,927.2548L1344.2853,914.67773L1346.1564,901.1167L1297.4476,218.06909z" fill="#F3B93C" stroke="none" fill-opacity="1" />
			</g>
		</g>
	</g>
</svg>
