<?xml version="1.0" encoding="UTF-8"?>
<!-- Generator: Blender, SVG Export for Grease Pencil - v2.0 -->
<!DOCTYPE svg PUBLIC "-//W3C//DTD SVG 1.1//EN" "http://www.w3.org/Graphics/SVG/1.1/DTD/svg11.dtd">
<svg version="1.1" x="0px" y="0px" xmlns="http://www.w3.org/2000/svg" width="1080.000000px" height="1080.000000px" viewBox="0 0 1080.000000 1080.000000">
	<g id="blender_frame.1">
		<g id="blender_object.Stroke.1.uuid_0x0">
			<g id="layer.Fills.uuid_0x1" />
			<g id="layer.Lines.uuid_0x2">
				<polyline points="131.215714,-20.886108 124.110428,1077.616577 -16.576538,1080.458740 -0.944710,-13.780884" fill="#BBBBBB" stroke="none" fill-opacity="1" />
				<polyline points="24.634779,368.492493 27.476976,452.336853 101.372963,705.290894 99.952011,614.341064" fill="#9F9F9F" stroke="none" fill-opacity="1" />
				<polyline points="1100.041382,125.130371 1.538486,118.024902 -1.303711,-22.662109 1092.935913,-7.030273" fill="#BBBBBB" stroke="none" fill-opacity="1" />
				<polyline points="102.826591,311.023621 20.177765,130.697327 17.448748,14.802368 94.186989,17.644531 412.777222,16.183105 510.692566,105.330505 114.646904,100.946167" fill="#9F9F9F" stroke="none" fill-opacity="1" />
				<polyline points="952.600464,1092.537964 959.705994,-5.964722 1100.393188,-8.807007 1084.761108,1085.432617" fill="#BBBBBB" stroke="none" fill-opacity="1" />
				<polyline points="-16.224861,946.521362 1082.277832,953.626953 1085.120117,1094.313965 -9.119568,1078.681885" fill="#BBBBBB" stroke="none" fill-opacity="1" />
				<polyline points="23.213711,533.338989 24.634779,1053.131714 240.267044,1055.919556 189.022446,972.928772 106.948753,970.824280 111.157661,821.408813" fill="#9F9F9F" stroke="none" fill-opacity="1" />
				<polyline points="316.027374,980.159668 276.042694,980.159668 324.445221,1051.710693 364.429840,1053.815063" fill="#9F9F9F" stroke="none" fill-opacity="1" />
				<polyline points="913.692566,1051.710693 858.976746,988.577393 463.339142,980.159668 518.055054,1051.710693" fill="#9F9F9F" stroke="none" fill-opacity="1" />
				<polyline points="975.777100,101.121643 988.391968,760.363159 1062.071777,870.796570 1064.164307,103.226013 982.090515,19.048340 653.795410,19.048340 729.555908,99.017212" fill="#9F9F9F" stroke="none" fill-opacity="1" />
			</g>
		</g>
	</g>
</svg>
