<?xml version="1.0" encoding="UTF-8"?>
<!-- Generator: Blender, SVG Export for Grease Pencil - v2.0 -->
<!DOCTYPE svg PUBLIC "-//W3C//DTD SVG 1.1//EN" "http://www.w3.org/Graphics/SVG/1.1/DTD/svg11.dtd">
<svg version="1.1" x="0px" y="0px" xmlns="http://www.w3.org/2000/svg" width="1080.000000px" height="1080.000000px" viewBox="0 0 1080.000000 1080.000000">
	<g id="blender_frame.59">
		<g id="blender_object.GPencil.59.uuid_0x0">
			<g id="layer.logo.uuid_0x1">
				<polygon points="-4.963646,580.819824 1018.414856,870.570618 977.315674,5.428223 486.176300,293.124084" fill="#5F0005" stroke="none" fill-opacity="1" />
				<polygon points="149.140884,518.473022 928.442017,826.047668 964.264465,144.748352 556.702881,331.610718" fill="#3B0003" stroke="none" fill-opacity="1" />
				<path d="M346.400635,278.303894L345.843140,278.589355L345.351837,278.978149L344.945953,279.455322L344.640930,280.002441L344.448456,280.598572L344.376099,281.220764L344.426422,281.845154L344.597687,282.447754L344.883026,283.005371L345.271973,283.496460L345.749054,283.902527L346.296143,284.207520L346.892395,284.399902L347.514557,284.472351L348.139069,284.421997L348.741516,284.250732L450.358429,277.466125L455.686890,274.282959L459.710754,269.557129L521.725708,175.067261L523.318115,171.593018L524.098145,167.851868L524.026978,164.030823L523.107849,160.321167L521.387024,156.908813L438.555267,34.644043L435.121521,30.567627L430.811890,27.431641L425.876984,25.418701L420.603729,24.645386L415.298492,25.156982L301.556427,14.641968L293.608795,17.432739L286.558746,22.042480L280.815247,28.203857L276.711090,35.559570L274.484314,43.683350L274.264008,52.103760L372.590881,470.940247L372.932556,472.690857L373.609131,474.341248L374.594818,475.828003L375.851471,477.093872L377.330933,478.090271L378.976379,478.778809L380.724670,479.133118L382.508270,479.139587L384.259094,478.797913L385.909424,478.121277L387.396210,477.135742L388.661987,475.879028L389.658264,474.399536L390.346893,472.753967L390.701263,471.005798L390.707733,469.222046L346.831848,76.299561L409.912079,71.610962L486.927612,166.633850L430.372772,244.348694z" fill="#DDCF4C" stroke="none" fill-opacity="1" />
				<path d="M530.261047,171.359497L528.474792,174.030823L527.244141,176.999512L526.616028,180.151123L526.614990,183.364746L527.240723,186.516846L528.469604,189.486267L530.254150,192.158936L532.525818,194.432068L535.197388,196.218384L538.165833,197.449158L541.317566,198.077148L544.531189,198.078247L547.683167,197.452332L550.652710,196.223450L553.325256,194.438965L555.598511,192.167358L575.497620,171.154907L597.025696,180.790649L599.065002,244.046875L581.823486,320.899902L534.990601,319.007690L529.548279,285.574951L570.757080,235.554932L601.322205,248.148376L603.729370,248.789368L606.215454,248.948425L608.684692,248.619385L611.042358,247.814880L613.197876,246.565979L615.068176,244.920532L616.581543,242.941772L617.679871,240.705872L618.320862,238.298645L618.479919,235.812622L618.150879,233.343323L617.346375,230.985596L616.097473,228.830139L614.452087,226.959900L612.473328,225.446411L610.237366,224.348083L570.533264,204.285156L567.457703,203.501404L564.285339,203.400696L561.166260,203.987854L558.247681,205.235046L555.667480,207.083496L553.547668,209.445801L505.253571,274.010864L503.273834,278.113647L502.801819,282.644531L512.851624,333.278931L513.265442,335.643188L514.159607,337.870422L515.495300,339.864563L517.214722,341.539185L519.243469,342.821716L521.493652,343.656677L523.867920,344.007874L526.263489,343.860229L589.657593,336.553528L591.850891,335.866333L593.774475,334.608276L595.283081,332.874207L596.262817,330.795044L622.178101,250.161194L630.898315,169.874268L630.965576,166.412170L630.291260,163.015747L628.906738,159.841858L626.875854,157.037231L624.292297,154.731445L621.275818,153.031189L617.965454,152.015015L572.085693,136.793762L567.665100,136.545898L563.337097,137.479065L559.411438,139.526367L556.169006,142.541382z" fill="#DDCF4C" stroke="none" fill-opacity="1" />
				<path d="M710.752686,221.751709L712.109192,223.763184L713.832214,225.471313L715.855164,226.810547L718.100647,227.729370L720.482239,228.192505L722.908264,228.182068L725.285767,227.698547L727.523315,226.760437L729.534729,225.403931L731.242981,223.681030L732.582214,221.657959L733.501038,219.412537L733.964111,217.030945L733.953735,214.604858L733.470154,212.227295L732.532166,209.989807L712.065247,168.989258L710.261841,166.369934L707.939941,164.196960L705.206848,162.570984L702.189209,161.567444L699.026733,161.232605L695.865906,161.581848L692.852844,162.599304L690.127258,164.237915L687.815308,166.421448L668.113464,202.118164L676.601807,187.965576L676.296509,184.886414L675.367310,181.935181L673.853882,179.236572L671.819885,176.904846L669.351868,175.038940L666.553955,173.717712L663.544922,172.997192L660.452148,172.907898L657.406494,173.453491L654.537109,174.611267L651.965454,176.331604L649.800415,178.541992L648.133606,181.148804L647.035828,184.041626L621.502869,333.260437L621.247986,334.825439L621.303162,336.410156L621.666626,337.953613L622.324097,339.396484L623.250610,340.683411L624.410156,341.764893L625.758606,342.599243L627.243774,343.154663L628.808899,343.409607L630.393555,343.354309L631.936890,342.990784L633.380005,342.333313L634.666626,341.406921L635.748169,340.247192L636.582764,338.898865L637.137939,337.413696L659.588867,202.805847L649.806458,214.795471L650.074646,217.539124L650.891174,220.172241L652.222534,222.586243L654.013794,224.681702L656.191406,226.372253L658.665405,227.588440L661.334045,228.279907L664.087463,228.418396L666.812012,227.998047L669.395508,227.036316L671.731628,225.572754L673.724304,223.667603L696.306946,202.017151z" fill="#DDCF4C" stroke="none" fill-opacity="1" />
				<path d="M711.537354,303.333679L710.353394,301.924194L708.917297,300.772644L707.284119,299.923523L705.516663,299.409363L703.682739,299.249817L701.853088,299.451111L700.097839,300.005493L698.484375,300.891663L697.074890,302.075500L695.923340,303.511658L695.074219,305.144836L694.559937,306.912354L694.400452,308.746155L694.601746,310.575867L695.156250,312.331238L696.042175,313.944641L721.372314,348.426941L722.951172,350.193359L724.928467,351.498474L727.173340,352.255981L729.537109,352.415649L731.863464,351.967102L768.374878,343.131653L770.619080,342.030090L772.482056,340.363159L773.825439,338.254822L787.619568,307.505798L788.313782,305.266541L788.409607,302.924133L787.900757,300.635620L786.821411,298.554565L749.525269,243.011292L753.218018,220.601501L780.819275,213.458801L792.192261,243.150146L792.894104,244.794922L793.903442,246.271179L795.181274,247.522278L796.678772,248.499878L798.338135,249.166626L800.095642,249.496887L801.883850,249.477783L803.634094,249.110291L805.278870,248.408447L806.755066,247.399048L808.006226,246.121216L808.983826,244.623779L809.650513,242.964417L809.980652,241.206848L809.961731,239.418640L809.594177,237.668457L796.955322,196.765930L795.968384,194.574707L794.496277,192.675171L792.620850,191.172668L790.445862,190.150513L788.092224,189.665405L785.690369,189.744263L783.373535,190.382751L738.266357,201.212585L735.675598,202.672974L733.532349,204.734802L731.972778,207.267029L731.095886,210.108826L727.987366,243.660522L727.870361,246.398376L728.462158,249.074097L729.723145,251.507202L769.006226,304.654480L758.831482,326.981445L732.655579,332.303955z" fill="#DDCF4C" stroke="none" fill-opacity="1" />
				<path d="M880.209778,338.114441L881.436646,337.027710L882.410828,335.709595L883.089661,334.217896L883.443420,332.617554L883.456848,330.978699L883.129211,329.372742L882.474854,327.870117L881.522278,326.536438L880.313232,325.429688L878.900635,324.598694L877.346069,324.079529L875.717529,323.894958L874.086182,324.052917L872.523438,324.546631L871.097351,325.354553L842.136902,343.535278L826.128479,325.764832L839.265442,253.920166L864.594116,242.696472L878.565735,269.763184L866.213013,285.133362L832.193726,283.463867L830.518372,283.702332L828.921814,284.263184L827.465271,285.124695L826.204956,286.253784L825.189026,287.607117L824.456482,289.132568L824.035828,290.771667L823.942871,292.461304L824.181396,294.136536L824.742249,295.733154L825.603821,297.189758L826.732910,298.450134L828.086182,299.466125L829.611694,300.198425L831.250671,300.619202L832.940308,300.712097L870.944763,303.150574L873.380798,302.708191L875.607361,301.625610L877.459961,299.983154L899.100464,277.579895L900.519226,275.434509L901.364502,273.005249L901.583801,270.442566L901.163635,267.904968L900.130066,265.549744L876.372986,224.089722L875.029663,222.327209L873.325500,220.910583L871.347229,219.911926L869.195435,219.381958L866.979736,219.347595L864.812561,219.810730L862.804260,220.747681L826.339294,240.427979L824.411865,242.007507L822.983215,244.049438L822.160156,246.401550L808.627747,326.825745L808.467896,328.887146L808.812256,330.925903L809.640320,332.820435L810.902466,334.458008L835.499878,359.735657L836.976807,360.915710L838.688354,361.718994L840.539917,362.100952L842.429443,362.040710L844.252930,361.541626L845.909790,360.631042z" fill="#DDCF4C" stroke="none" fill-opacity="1" />
				<path d="M963.870239,352.188538L964.871704,351.358276L965.691895,350.348633L966.299316,349.198364L966.670715,347.951599L966.791809,346.656433L966.657837,345.362549L966.273987,344.119629L965.655029,342.975464L964.824768,341.974121L963.815063,341.153931L962.664856,340.546448L961.418152,340.174988L960.122986,340.053955L958.829041,340.187988L957.586182,340.571838L956.441956,341.190735L930.816772,357.043945L917.933289,341.789856L933.515015,282.556396L952.818604,272.483521L967.847046,297.997070L968.853943,299.343811L970.104187,300.468262L971.549805,301.327209L973.135254,301.887634L974.799500,302.128052L976.478638,302.039124L978.108276,301.624329L979.625549,300.899536L980.972412,299.892700L982.096741,298.642456L982.955750,297.196838L983.516174,295.611450L983.756592,293.947205L983.667725,292.268005L983.252869,290.638428L982.528137,289.121094L965.108765,252.672607L963.669739,250.808594L961.847717,249.316833L959.736389,248.273926L957.444397,247.733398L955.089600,247.723389L952.793030,248.244202L950.672974,249.269043L918.488647,267.025818L916.360718,268.801025L914.766785,271.067871L913.816223,273.670898L902.742432,342.615173L902.572693,344.472107L902.877380,346.311768L903.636780,348.014832L904.801514,349.470947L925.438965,370.377808L926.636292,371.297363L928.009827,371.923767L929.489136,372.224915L930.998352,372.185120L932.459839,371.806702L933.798523,371.108887z" fill="#DDCF4C" stroke="none" fill-opacity="1" />
				<polygon points="763.310547,390.312134 791.124512,408.855591 810.475342,428.870056 822.746704,450.804504 811.020630,472.095398 793.003174,497.255920 768.898254,527.310364 679.243286,574.575134 563.411560,594.921753 498.272980,592.246582 468.736694,564.010681 452.852631,537.604492 448.542694,510.482605 456.623474,477.738953 482.849579,441.597290 527.361511,406.142456 557.468018,405.273438 597.986206,406.061462 644.716248,405.031494 691.556702,400.242065 731.245239,394.179260" fill="#EEEC68" stroke="none" fill-opacity="1" />
				<path d="M772.982544,375.621277L769.930542,374.016602L766.624207,373.038147L763.190613,372.723572L759.761475,373.084961L756.468872,374.108337L753.439148,375.754456L750.788757,377.959961L748.619507,380.640137L747.014893,383.692078L746.036560,386.998352L745.721985,390.432068L746.083374,393.861084L747.106750,397.153687L748.752808,400.183472L750.958374,402.833801L753.638550,405.002991L781.395508,420.464539L800.197205,436.254272L811.286072,450.772095L801.153564,466.059631L782.269531,489.427917L758.551819,515.361938L672.873413,556.889954L562.280823,574.570984L508.477783,572.215820L488.514221,551.463745L478.072815,530.832336L476.973816,512.668579L480.606934,488.111389L500.890381,456.684998L536.251221,426.270325L558.566833,425.761292L598.500610,426.061890L646.079895,424.280029L694.438110,418.588806L734.671509,411.863831L766.377319,407.631592L769.697327,406.700500L772.771729,405.139587L775.482788,403.008850L777.725769,400.390259L779.414978,397.384338L780.485168,394.106567L780.895447,390.683044L780.630005,387.245239L779.698914,383.925354L778.137878,380.850891L776.007263,378.139954L773.388611,375.896851L770.382690,374.207703L767.104919,373.137390L763.681519,372.727173L760.243591,372.992615L728.104797,376.444031L688.200745,381.969788L642.533386,385.841003L597.021301,386.072754L556.940552,384.770935L525.670471,385.427063L518.964172,387.129944L513.188538,390.939941L466.935059,424.526855L434.956360,463.773010L421.256561,503.694214L427.229156,539.926392L447.671265,573.781677L482.409729,605.509644L486.502228,609.246582L491.440308,611.762329L496.869110,612.876160L562.038208,615.102112L682.542664,592.815796L776.491699,540.807434L781.170837,536.755737L803.527527,505.355774L820.524292,478.657410L831.647400,455.593994L832.544250,453.287903L832.854187,450.833069L832.558167,448.376465L831.674316,446.065369L821.552124,422.990234L802.051270,398.511902z" fill="#CB7944" stroke="none" fill-opacity="1" />
				<path d="M225.318420,837.914062L223.810837,838.832703L222.511520,840.027710L221.470291,841.453247L220.727219,843.054626L220.310837,844.770081L220.237076,846.533875L220.508759,848.278198L221.115631,849.935913L222.034256,851.443481L223.229294,852.742737L224.654953,853.783936L226.256271,854.527039L227.971741,854.943481L229.735504,855.017273L231.479691,854.745422L233.137543,854.138550L361.244507,798.032959L363.860046,796.331543L365.960876,794.024658L367.410828,791.261963L437.832092,647.510620L439.035736,642.392334L438.938599,637.135315L437.546600,632.064941L434.946259,627.495056L316.898682,514.784607L313.252716,510.930054L308.820923,508.012939L303.838867,506.188477L298.571198,505.553467L293.298218,506.141846L136.070236,512.795654L127.210808,515.871338L119.211388,520.766418L112.440544,527.255249L107.209793,535.039246L103.760315,543.759949L102.250549,553.015869L102.750313,562.380737L276.187683,1054.483154L276.724518,1056.509277L277.646240,1058.391724L278.917572,1060.058350L280.489532,1061.444824L282.301819,1062.497925L284.284729,1063.177246L286.362061,1063.456665L288.454102,1063.325439L290.480225,1062.788818L292.362762,1061.866943L294.029144,1060.595703L295.415710,1059.023682L296.468872,1057.211426L297.148193,1055.228516L297.427643,1053.151123L297.296326,1051.059204L195.584274,588.775269L289.023224,554.359070L394.198700,643.585938L346.158630,778.101318z" fill="#DDCF4C" stroke="none" fill-opacity="1" />
				<path d="M614.323853,653.147705L614.199890,650.346985L613.532043,647.624268L612.345886,645.084106L610.686829,642.824219L608.618713,640.931396L606.221252,639.478394L603.586243,638.521057L600.815247,638.096191L598.014465,638.220093L595.291626,638.887939L592.751526,640.074219L590.491699,641.733276L588.598938,643.801270L587.145874,646.198853L586.188416,648.833740L585.763672,651.604858L592.973389,857.370728L593.009460,858.186951L593.204163,858.980469L593.549805,859.720764L594.033325,860.379395L594.636169,860.931030L595.334656,861.354492L596.102722,861.633545L596.910278,861.757385L597.726562,861.721191L598.520081,861.526611L599.260315,861.180908L599.918945,860.697327L600.470642,860.094666L600.894226,859.395874L601.173157,858.627991L601.296936,857.820374z" fill="#DDCF4C" stroke="none" fill-opacity="1" />
				<path d="M670.604675,638.608704L668.418091,639.945312L666.534180,641.682861L665.025635,643.754517L663.950134,646.080688L663.349060,648.571960L663.245728,651.132568L663.643921,653.664307L664.528137,656.069580L665.864868,658.256165L667.602295,660.139954L669.674011,661.648560L672.000183,662.724060L674.491394,663.325073L677.052063,663.428467L679.583679,663.030396L681.988953,662.145996L713.933777,647.689514L666.977722,790.839355L666.723022,791.801514L666.681030,792.795776L666.853882,793.775879L667.233215,794.695923L667.801758,795.512817L668.532410,796.188477L669.391418,796.691162L670.338196,796.997498L671.328857,797.093018L672.316956,796.973389L673.255981,796.644165L748.373779,758.221130L749.299683,757.653198L750.087280,756.905090L750.702087,756.009644L751.117310,755.005859L751.314758,753.937683L751.285767,752.851929L751.031677,751.795776L750.563660,750.815552L749.901978,749.954102L749.075684,749.249084L748.120789,748.731201L747.079163,748.423218L745.996216,748.338501L744.919373,748.480835L743.895630,748.843933L679.715881,783.359680L751.167725,625.649170L751.911499,622.837646L752.032166,619.932007L751.524048,617.068604L750.410828,614.381836L748.745117,611.998047L746.604858,610.029053L744.090576,608.567383L741.320679,607.681641L738.424866,607.413513L735.539246,607.775513L732.799438,608.750610z" fill="#DDCF4C" stroke="none" fill-opacity="1" />
				<path d="M681.576172,700.675537L680.348694,701.119263L679.231384,701.793823L678.267151,702.673523L677.493042,703.724426L676.938721,704.906128L676.625793,706.173218L676.565979,707.477051L676.761719,708.767456L677.205383,709.994995L677.879944,711.112305L678.759705,712.076538L679.810547,712.850647L680.992249,713.404907L682.259277,713.717957L683.563110,713.777771L684.853577,713.582031L729.302551,700.393799L730.489929,699.964600L731.570679,699.312012L732.503357,698.461060L733.252258,697.444580L733.788391,696.301514L734.091187,695.075806L734.149048,693.814575L733.959717,692.566284L733.530518,691.378906L732.877930,690.298096L732.026978,689.365295L731.010559,688.616455L729.867432,688.080383L728.641724,687.777588L727.380493,687.719727L726.132141,687.908997z" fill="#DDCF4C" stroke="none" fill-opacity="1" />
				<path d="M777.180603,586.264954L774.971802,587.604004L773.066650,589.348267L771.538330,591.430786L770.445618,593.771362L769.830627,596.280151L769.716919,598.860718L770.108765,601.413879L770.991150,603.841553L772.330261,606.050415L774.074585,607.955566L776.156982,609.483826L778.497559,610.576477L781.006348,611.191528L783.586853,611.305298L786.140076,610.913452L788.567810,610.031006L817.192810,595.236511L791.045166,725.693604L790.898804,726.742432L790.971191,727.798950L791.258850,728.818115L791.750000,729.756348L792.423218,730.573853L793.250122,731.235474L794.195312,731.713135L795.218445,731.986328L796.275940,732.043640L797.322632,731.882446L798.313843,731.509766L862.749939,696.323120L863.540894,695.825806L864.219666,695.183594L864.760193,694.421387L865.141602,693.568359L865.349121,692.657349L865.375000,691.723267L865.218140,690.802185L864.884705,689.929321L864.387268,689.138306L863.745178,688.459595L862.982910,687.919128L862.129883,687.537842L861.218811,687.330200L860.284790,687.304321L859.363708,687.461060L858.490784,687.794617L803.661072,717.376953L845.901978,576.746094L846.235718,574.366028L846.077026,571.967896L845.432556,569.652588L844.329224,567.517395L842.813599,565.652222L840.949402,564.135376L838.814941,563.030701L836.500183,562.384583L834.102112,562.224365L831.721863,562.556580L829.459351,563.367310z" fill="#DDCF4C" stroke="none" fill-opacity="1" />
				<path d="M789.529480,641.332031L788.145081,642.055359L786.928284,643.034912L785.925964,644.233032L785.176697,645.603638L784.709167,647.094055L784.541382,648.647095L784.679871,650.203003L785.119263,651.702026L785.842529,653.086548L786.822083,654.303345L788.020203,655.305664L789.390808,656.054932L790.881226,656.522461L792.434326,656.690186L793.990112,656.551758L795.489197,656.112427L832.176208,640.169556L833.476868,639.489990L834.620117,638.569763L835.561768,637.444092L836.265808,636.156433L836.705017,634.756104L836.862549,633.297058L836.732544,631.835327L836.319763,630.426880L835.640137,629.126221L834.719910,627.983032L833.594238,627.041382L832.306580,626.337402L830.906311,625.898132L829.447205,625.740479L827.985352,625.870605L826.577087,626.283386z" fill="#DDCF4C" stroke="none" fill-opacity="1" />
				<path d="M869.950500,562.337097L869.385254,564.283752L869.237000,566.305298L869.512268,568.313477L870.199097,570.220581L871.267395,571.943237L872.670471,573.406128L874.347107,574.545288L876.223938,575.311035L878.218994,575.669800L880.244934,575.605957L882.213440,575.122192L884.038269,574.239868L885.639709,572.997314L886.948059,571.448975L887.905640,569.662476L895.390198,552.005249L912.300049,549.801819L926.591370,593.058899L933.079102,634.919128L900.959106,657.016846L889.798401,635.788391L905.597473,593.426514L926.960632,594.292908L928.344727,594.317017L929.706970,594.070618L930.994995,593.563232L932.159241,592.814209L933.155029,591.852539L933.944092,590.715088L934.495972,589.445496L934.789612,588.092651L934.813660,586.708618L934.567322,585.346313L934.059937,584.058350L933.310974,582.894165L932.349365,581.898315L931.211853,581.109314L929.942261,580.557373L928.589417,580.263672L900.890747,576.821899L899.058899,576.821045L897.275269,577.238159L895.633667,578.051147L894.221008,579.217346L893.111694,580.675049L892.364197,582.347534L877.968567,634.576294L877.705261,636.065918L877.834473,637.573181L878.347534,638.996216L894.461487,666.553833L895.129761,667.542969L896.010681,668.348572L897.055481,668.926025L898.206238,669.243408L899.399292,669.283203L900.568604,669.043030L901.649414,668.536316L942.058960,642.565857L943.057983,641.774475L943.852783,640.778320L944.402649,639.628601L944.679260,638.384521L944.668274,637.110107L940.001953,590.899780L926.851746,538.652039L926.133362,536.876221L925.035645,535.306213L923.614441,534.021729L921.941772,533.087952L920.102600,532.552124L918.190125,532.441711L888.124634,532.792847L885.950806,533.161499L883.914551,534.007141L882.119080,535.287048L880.655518,536.936096L879.598022,538.870911z" fill="#DDCF4C" stroke="none" fill-opacity="1" />
				<polygon points="592.225647,473.308289 609.143799,475.903748 623.765076,469.958313 610.831726,457.994141 594.216003,457.437683 579.221985,462.830811" fill="#BB000C" stroke="none" fill-opacity="1" />
				<polygon points="730.859497,461.956238 751.217773,454.623840 764.606934,439.326904 744.195740,433.901184 725.051819,442.860229 710.715393,457.870605" fill="#BB000C" stroke="none" fill-opacity="1" />
				<polygon points="662.917542,494.241882 681.669678,489.511597 694.801208,476.937561 676.814392,470.058167 659.064819,476.642578 645.279907,488.971375" fill="#BB000C" stroke="none" fill-opacity="1" />
				<polygon points="571.458191,525.573914 590.590881,527.382141 606.830688,520.158081 591.942200,508.068115 573.234985,508.319397 556.511780,515.036194" fill="#BB000C" stroke="none" fill-opacity="1" />
				<polygon points="664.240295,537.461487 677.577393,534.049377 686.952209,525.375671 674.273254,521.121277 661.668884,525.805481 651.759094,534.109314" fill="#BB000C" stroke="none" fill-opacity="1" />
			</g>
			<g id="layer.kiosk.uuid_0x2" />
		</g>
	</g>
</svg>
