<?xml version="1.0" encoding="UTF-8"?>
<!-- Generator: Blender, SVG Export for Grease Pencil - v2.0 -->
<!DOCTYPE svg PUBLIC "-//W3C//DTD SVG 1.1//EN" "http://www.w3.org/Graphics/SVG/1.1/DTD/svg11.dtd">
<svg version="1.1" x="0px" y="0px" xmlns="http://www.w3.org/2000/svg" width="1080.000000px" height="1080.000000px" viewBox="0 0 1080.000000 1080.000000">
	<g id="blender_frame.59">
		<g id="blender_object.GPencil.001.59.uuid_0x0">
			<g id="layer.logo.uuid_0x1">
				<polygon points="696.062073,1021.065430 1047.418823,175.349548 19.662952,205.104248 357.862305,613.084595" fill="#5F0005" stroke="none" fill-opacity="1" />
				<polygon points="623.107849,893.191467 993.905518,249.608887 185.030746,216.595154 404.069336,554.893066" fill="#3B0003" stroke="none" fill-opacity="1" />
				<polygon points="564.971130,838.920288 648.461670,256.353455 466.331573,226.469727 515.651306,532.694763" fill="#EEEC68" stroke="none" fill-opacity="1" />
				<path d="M563.960205,838.775452L563.951355,838.975464L563.981506,839.173340L564.050049,839.361450L564.153809,839.532715L564.288940,839.680359L564.450378,839.798828L564.631775,839.883545L564.826050,839.931274L565.026062,839.940063L565.223999,839.909729L565.412231,839.841309L565.583557,839.737549L565.731079,839.602417L565.849731,839.441040L565.934082,839.259644L565.982056,839.065186L649.472412,256.498413L649.479614,256.272766L649.437134,256.051025L649.346680,255.844116L649.213074,255.662109L649.043030,255.513916L648.844299,255.406677L648.627014,255.345764L466.496826,225.461975L466.282898,225.449707L466.070984,225.482300L465.870422,225.558472L465.690338,225.674866L465.538605,225.826233L465.421692,226.005981L465.344910,226.206177L465.311615,226.418030L465.323395,226.632141L514.642944,532.857117L563.962891,839.082703L564.013855,839.276306L564.101685,839.456177L564.222839,839.615479L564.372803,839.748108L564.546082,839.848877L564.735413,839.913940L564.933655,839.940857L565.133484,839.928528L565.327087,839.877563L565.506897,839.789673L565.666321,839.668457L565.798950,839.518433L565.899780,839.345459L565.964722,839.156128L565.991699,838.957764L565.979187,838.757935L516.659668,532.532349L467.565155,227.707031L647.308716,257.199219z" fill="#CB7944" stroke="none" fill-opacity="1" />
				<polygon points="560.467285,853.771790 539.321167,938.291870 653.167175,940.371033 606.817322,897.071472" fill="#EEEC68" stroke="none" fill-opacity="1" />
				<path d="M561.080322,853.925171L561.098328,853.802673L561.092224,853.678955L561.062012,853.558838L561.009155,853.446838L560.935242,853.347412L560.843567,853.264221L560.737305,853.200562L560.620544,853.158875L560.498108,853.140747L560.374329,853.146851L560.254150,853.177002L560.142212,853.229980L560.042786,853.303772L559.959717,853.395569L559.895996,853.501831L559.854126,853.618469L538.708008,938.138611L538.689392,938.279053L538.702576,938.420105L538.746582,938.554688L538.819458,938.676208L538.917969,938.778320L539.036194,938.855957L539.169128,938.905151L539.309570,938.923584L653.155762,941.002808L653.281860,940.992493L653.403503,940.957153L653.515564,940.898254L653.613586,940.818237L653.693909,940.720276L653.752808,940.608337L653.788513,940.486694L653.798828,940.360596L653.784241,940.234863L653.744507,940.114563L653.681946,940.004639L653.598511,939.909302L607.248596,896.609741L560.898682,853.310059L560.800232,853.234802L560.689026,853.180176L560.569214,853.148254L560.445801,853.140320L560.322815,853.156616L560.205750,853.196655L560.098450,853.258667L560.005493,853.340515L559.930237,853.438843L559.875610,853.550049L559.843689,853.669678L559.835693,853.793274L559.852051,853.916077L559.891968,854.033325L559.953979,854.140625L560.035950,854.233521L606.386047,897.533203L651.533081,939.709229L540.126953,937.674683z" fill="#CB7944" stroke="none" fill-opacity="1" />
			</g>
			<g id="layer.kiosk.uuid_0x2" />
		</g>
	</g>
</svg>
