<?xml version="1.0" encoding="UTF-8"?>
<!-- Generator: Blender, SVG Export for Grease Pencil - v2.0 -->
<!DOCTYPE svg PUBLIC "-//W3C//DTD SVG 1.1//EN" "http://www.w3.org/Graphics/SVG/1.1/DTD/svg11.dtd">
<svg version="1.0" x="0px" y="0px" xmlns="http://www.w3.org/2000/svg" width="2736.178955px" height="1539.100586px" viewBox="0 0 2736.178955 1539.100586">
	<g id="blender_frame_13">
		<g id="blender_object_Stroke.001">
			<!--Layer: Color-->
			<g id="Color" />
			<!--Layer: Lines-->
			<g id="Lines">
				<polyline points="902.683472,1501.084473 921.215881,323.578857 839.007507,241.536377 812.829407,711.916260 809.205078,1643.028320" fill="#1D1023" stroke="none" fill-opacity="1" />
				<path d="M892.913269,1501.084473L893.101013,1502.990479L893.656982,1504.823364L894.559814,1506.512451L895.774841,1507.993042L897.255371,1509.208008L898.944458,1510.110840L900.777344,1510.666870L902.683472,1510.854614L904.589478,1510.666870L906.422241,1510.110840L908.111389,1509.208008L909.591919,1507.993042L910.807068,1506.512451L911.709839,1504.823364L912.265808,1502.990479L912.453613,1501.084473L921.215881,323.578857L839.007507,241.536377L805.871521,711.916260L795.382324,1643.028320L795.647888,1645.724976L796.434509,1648.318115L797.711853,1650.707886L799.431030,1652.802490L801.525574,1654.521484L803.915405,1655.798828L806.508423,1656.585449L809.205078,1656.851074L811.901794,1656.585449L814.494812,1655.798828L816.884644,1654.521484L818.979187,1652.802490L820.698303,1650.707886L821.975586,1648.318115L822.762207,1645.724976L823.027832,1643.028320L819.787170,711.916260L839.007507,241.536377L921.215881,323.578857z" fill="#000000" stroke="none" fill-opacity="1" />
				<polyline points="1530.415894,1503.597656 1523.935059,322.913940 1552.693848,240.494751 1561.857300,712.044617 1563.126221,1646.512207" fill="#1D1023" stroke="none" fill-opacity="1" />
				<path d="M1519.472778,1503.597656L1519.682983,1505.732544L1520.305664,1507.785400L1521.316895,1509.677246L1522.677979,1511.335571L1524.336182,1512.696533L1526.228027,1513.707764L1528.281006,1514.330444L1530.415894,1514.540771L1532.550659,1514.330444L1534.603638,1513.707642L1536.495483,1512.696533L1538.153809,1511.335571L1539.514771,1509.677246L1540.525879,1507.785400L1541.148682,1505.732544L1541.359009,1503.597656L1533.515869,322.913940L1564.323486,240.494751L1564.100098,238.225830L1563.438232,236.044189L1562.363525,234.033569L1560.917236,232.271240L1559.154907,230.824951L1557.144287,229.750244L1554.962646,229.088501L1552.693848,228.864990L1550.424927,229.088501L1548.243286,229.750244L1546.232666,230.824951L1544.470337,232.271240L1543.023926,234.033569L1541.949341,236.044189L1541.287476,238.225830L1541.064087,240.494751L1553.046387,712.044617L1547.638184,1646.512085L1547.935669,1649.533691L1548.817139,1652.439209L1550.248413,1655.116821L1552.174561,1657.463989L1554.521484,1659.390015L1557.199341,1660.821289L1560.104736,1661.702637L1563.126221,1662.000244L1566.147827,1661.702637L1569.053223,1660.821289L1571.730957,1659.390015L1574.078003,1657.463989L1576.004150,1655.116821L1577.435425,1652.439209L1578.316650,1649.533691L1578.614380,1646.512085L1570.668335,712.044617L1564.323486,240.494751L1564.100098,238.225830L1563.438232,236.044189L1562.363525,234.033569L1560.917236,232.271240L1559.154907,230.824951L1557.144287,229.750244L1554.962646,229.088501L1552.693848,228.864990L1550.424927,229.088501L1548.243286,229.750244L1546.232666,230.824951L1544.470337,232.271240L1543.023926,234.033569L1541.949341,236.044189L1541.287476,238.225830L1541.064087,240.494751L1514.354370,322.913940z" fill="#000000" stroke="none" fill-opacity="1" />
				<polyline points="1557.945068,713.775818 812.829407,713.163818 839.007507,241.536377 1551.691650,241.536377" fill="#1D1023" stroke="none" fill-opacity="1" />
				<path d="M1557.938477,721.782532L1559.500610,721.630005L1561.003052,721.175537L1562.387817,720.436768L1563.602051,719.442078L1564.598755,718.229553L1565.339844,716.845886L1565.796753,715.344238L1565.951782,713.782288L1565.799316,712.220215L1565.344971,710.717834L1564.606201,709.332947L1563.611328,708.118774L1562.398926,707.122070L1561.015259,706.381042L1559.513550,705.924133L1557.951660,705.769043L817.442200,708.554749L846.636780,249.165649L1551.691650,253.119629L1553.951538,252.897095L1556.124390,252.237915L1558.126953,251.167725L1559.882324,249.727051L1561.322876,247.971680L1562.393311,245.969116L1563.052368,243.796143L1563.275024,241.536377L1563.052368,239.276611L1562.393311,237.103516L1561.322876,235.101074L1559.882324,233.345581L1558.126953,231.905151L1556.124390,230.834717L1553.951538,230.175537L1551.691650,229.953003L839.007507,233.907104L837.309814,234.098389L835.697266,234.662598L834.250671,235.571533L833.042664,236.779663L832.133789,238.226196L831.569458,239.838623L831.378174,241.536377L808.216553,713.163818L808.332092,714.189819L808.672852,715.164307L809.221863,716.038696L809.951538,716.768982L810.825562,717.318726L811.799744,717.660339L812.825562,717.776733z" fill="#000000" stroke="none" fill-opacity="1" />
				<polyline points="866.498230,668.630188 890.145996,297.616211 1500.553101,297.616211 1507.107178,668.630188" fill="#000023" stroke="none" fill-opacity="1" />
				<path d="M864.773010,668.630188L864.806213,668.966797L864.904297,669.290405L865.063721,669.588684L865.278320,669.850098L865.539795,670.064575L865.837952,670.224060L866.161621,670.322205L866.498169,670.355408L866.834717,670.322205L867.158325,670.224060L867.456543,670.064575L867.718018,669.850098L867.932617,669.588684L868.091980,669.290405L868.190125,668.966797L868.223328,668.630188L896.326721,303.797119L1491.168823,307.000366L1506.138916,668.630188L1506.157715,668.819153L1506.212646,669.000732L1506.302124,669.168152L1506.422485,669.314819L1506.569336,669.435303L1506.736694,669.524719L1506.918335,669.579773L1507.107178,669.598389L1507.296021,669.579773L1507.477661,669.524719L1507.645020,669.435303L1507.791626,669.314819L1507.912231,669.168152L1508.001587,669.000732L1508.056641,668.819153L1508.075317,668.630188L1509.937256,297.616211L1509.701904,295.528076L1509.007935,293.544678L1507.889893,291.765381L1506.403931,290.279419L1504.624634,289.161377L1502.641357,288.467407L1500.553101,288.232056L890.145996,291.435547L888.770630,291.590454L887.464294,292.047607L886.292358,292.784058L885.313660,293.762573L884.577332,294.934570L884.120178,296.240845L883.965210,297.616211z" fill="#000000" stroke="none" fill-opacity="1" />
				<polyline points="1561.857300,712.044617 812.829407,711.916260 712.336487,921.196167 1597.291748,922.514587" fill="#1D1023" stroke="none" fill-opacity="1" />
				<path d="M1561.853638,720.855652L1563.572632,720.687012L1565.225708,720.186340L1566.749512,719.372803L1568.084961,718.277527L1569.181274,716.942871L1569.996216,715.419922L1570.498169,713.767273L1570.668335,712.048401L1570.499634,710.329285L1569.999023,708.676270L1569.185547,707.152588L1568.090210,705.817017L1566.755493,704.720642L1565.232544,703.905762L1563.579956,703.403687L1561.861084,703.233704L812.832336,704.958435L811.282837,705.132446L809.810974,705.647217L808.490784,706.476807L807.388428,707.579590L806.559326,708.900146L806.045105,710.372070L805.871521,711.921692L699.740662,921.205933L700.058044,924.005737L700.989746,926.664856L702.489441,929.050415L704.481750,931.042847L706.867065,932.542603L709.526245,933.474487L712.325989,933.791992L1597.283447,932.586609L1599.248657,932.394714L1601.138550,931.823120L1602.880737,930.893799L1604.407959,929.642517L1605.661865,928.117249L1606.594116,926.376709L1607.168823,924.487732L1607.363892,922.522949L1607.171997,920.557800L1606.600464,918.667908L1605.671143,916.925842L1604.419800,915.398499L1602.894531,914.144653L1601.154053,913.212463L1599.265015,912.637756L1597.300293,912.442566L724.922485,908.610779L819.792664,718.877014z" fill="#000000" stroke="none" fill-opacity="1" />
				<polyline points="839.007507,241.536377 783.208374,139.370605 1575.445801,139.370605 1557.288208,238.503174" fill="#1D1023" stroke="none" fill-opacity="1" />
				<path d="M832.083069,244.739014L832.840942,246.028442L833.835693,247.145264L835.029236,248.046387L836.375793,248.697388L837.823425,249.073242L839.316528,249.159424L840.797791,248.952637L842.210205,248.460815L843.499573,247.702881L844.616272,246.708130L845.517517,245.514526L846.168579,244.168091L846.544312,242.720459L846.630493,241.227417L846.423767,239.746094L845.931885,238.333618L797.203674,148.317139L1565.053711,148.317139L1549.651245,237.355103L1549.574097,238.867065L1549.793213,240.364990L1550.300415,241.791382L1551.076294,243.091431L1552.090698,244.215210L1553.304932,245.119385L1554.672241,245.769409L1556.140015,246.140137L1557.651978,246.217285L1559.150024,245.998047L1560.576416,245.490845L1561.876343,244.715088L1563.000000,243.700562L1563.904419,242.486328L1564.554321,241.119141L1564.924927,239.651367L1584.292969,140.700684L1584.373047,138.782349L1584.041992,136.891357L1583.315063,135.114502L1582.225952,133.533569L1580.824585,132.221436L1579.175415,131.238403L1577.354492,130.630005L1575.445801,130.423950L783.208374,130.423950L781.232727,130.644897L779.354614,131.296631L777.666687,132.347046L776.252502,133.744141L775.181824,135.419067L774.507263,137.289307L774.262451,139.262207L774.459412,141.240356L775.088318,143.126343z" fill="#000000" stroke="none" fill-opacity="1" />
				<polyline points="783.208374,139.370605 819.802856,7.339233" fill="#1D1023" stroke="none" fill-opacity="1" />
				<path d="M774.586914,136.981079L774.286438,138.708862L774.328674,140.462158L774.712280,142.173584L775.422363,143.777222L776.431702,145.211548L777.701538,146.421387L779.182861,147.360229L780.818909,147.992065L782.546753,148.292603L784.300110,148.250244L786.011414,147.866577L787.615051,147.156616L789.049316,146.147217L790.259216,144.877441L791.198120,143.396118L791.829895,141.760132L827.466431,9.463135L827.733521,7.927246L827.695862,6.368652L827.354919,4.847412L826.723694,3.421997L825.826538,2.146973L824.697876,1.071533L823.381104,0.237061L821.926819,-0.324707L820.391052,-0.591675L818.832397,-0.554077L817.311279,-0.213257L815.885681,0.418091L814.610840,1.315186L813.535400,2.443848L812.700928,3.760742L812.139221,5.214966z" fill="#000000" stroke="none" fill-opacity="1" />
				<polyline points="819.802856,7.339233 1587.639893,7.339233 1582.811768,137.162842 787.481812,137.162842" fill="#1D1023" stroke="none" fill-opacity="1" />
				<path d="M819.802795,-0.613525L818.251282,-0.460938L816.759460,-0.008057L815.384521,0.726685L814.179443,1.715698L813.190491,2.920776L812.455627,4.295654L812.003052,5.787598L811.850220,7.338989L812.003052,8.890503L812.455627,10.382324L813.190491,11.757324L814.179443,12.962280L815.384521,13.951294L816.759460,14.686279L818.251282,15.138672L819.802795,15.291504L1579.386108,15.291504L1574.191650,128.216187L787.481812,128.216187L785.736511,128.388184L784.058167,128.897339L782.511353,129.723999L781.155762,130.836670L780.043091,132.192383L779.216309,133.739136L778.707214,135.417480L778.535217,137.162842L778.707214,138.908203L779.216309,140.586548L780.043091,142.133301L781.155762,143.489014L782.511353,144.601685L784.058167,145.428345L785.736511,145.937500L787.481812,146.109375L1582.811768,146.109375L1584.756104,145.895508L1586.607666,145.264160L1588.277710,144.245605L1589.686401,142.888184L1590.766479,141.257202L1591.466309,139.430420L1591.752197,137.495361L1595.587036,7.634521L1595.445435,5.817261L1594.894043,4.080078L1593.961304,2.513916L1592.696533,1.201172L1591.166382,0.211060L1589.450684,-0.404785L1587.639893,-0.613525z" fill="#000000" stroke="none" fill-opacity="1" />
				<polyline points="1602.298828,918.755432 1559.679199,708.152527" fill="#1D1023" stroke="none" fill-opacity="1" />
				<path d="M1594.311768,919.028870L1594.518677,920.581848L1595.024414,922.064575L1595.809692,923.420166L1596.844482,924.596436L1598.088745,925.548340L1599.494995,926.239136L1601.008789,926.642395L1602.572266,926.742493L1604.125244,926.535706L1605.608032,926.029846L1606.963623,925.244568L1608.139771,924.209778L1609.091797,922.965454L1609.782471,921.559326L1610.185791,920.045471L1610.285889,918.481995L1570.790649,707.772217L1570.502930,705.611816L1569.799438,703.549011L1568.706909,701.663147L1567.267212,700.026611L1565.536255,698.702393L1563.579956,697.741333L1561.473877,697.180481L1559.298950,697.041138L1557.138428,697.328796L1555.075684,698.032532L1553.189941,699.125061L1551.553345,700.564575L1550.229248,702.295654L1549.268066,704.251892L1548.707275,706.357910L1548.567871,708.532898z" fill="#000000" stroke="none" fill-opacity="1" />
				<polyline points="712.264099,1120.042480 811.754639,1327.868652" fill="#1D1023" stroke="none" fill-opacity="1" />
				<path d="M735.188843,1120.017578L734.743530,1115.545654L733.434265,1111.246582L731.311646,1107.285522L728.456787,1103.814697L724.979797,1100.967407L721.014099,1098.853271L716.712097,1097.553345L712.239258,1097.117676L707.767334,1097.563110L703.468201,1098.872314L699.507141,1100.995117L696.036255,1103.849854L693.189148,1107.326904L691.074829,1111.292480L689.775024,1115.594482L689.339355,1120.067383L780.121094,1327.902832L780.735596,1334.073486L782.542175,1340.005859L785.471375,1345.471802L789.410645,1350.261230L794.208557,1354.189941L799.680664,1357.107300L805.616882,1358.900879L811.789001,1359.502197L817.959717,1358.887695L823.892090,1357.081055L829.357849,1354.151855L834.147278,1350.212646L838.076050,1345.414673L840.993408,1339.942505L842.787048,1334.006348L843.388306,1327.834229z" fill="#000000" stroke="none" fill-opacity="1" />
				<polyline points="809.836060,1325.949951 1563.230347,1335.064087 1604.677124,1121.971191 726.961792,1112.153442" fill="#1D1023" stroke="none" fill-opacity="1" />
				<path d="M809.954224,1316.177246L808.045349,1316.341919L806.205383,1316.875854L804.504883,1317.758545L803.009338,1318.955933L801.776062,1320.422241L800.852478,1322.100830L800.274170,1323.927368L800.063293,1325.831665L800.228027,1327.740479L800.761963,1329.580566L801.644592,1331.281006L802.841980,1332.776611L804.308289,1334.009888L805.986938,1334.933472L807.813477,1335.511719L809.717773,1335.722656L1563.006348,1353.585205L1567.105469,1353.176636L1571.013062,1351.872192L1574.535645,1349.736328L1577.499023,1346.874756L1579.756470,1343.428955L1581.196655,1339.569458L1581.748047,1335.487061L1627.046753,1122.482056L1626.593140,1117.459717L1625.026245,1112.666382L1622.425781,1108.345703L1618.923584,1104.717163L1614.697998,1101.964966L1609.963257,1100.229004L1604.960083,1099.597412L727.145081,1097.659424L724.313843,1097.902100L721.584473,1098.692627L719.061707,1100.000244L716.842590,1101.775024L715.012207,1103.948608L713.641174,1106.437500L712.781982,1109.146118L712.467712,1111.970215L712.710510,1114.801270L713.500916,1117.530762L714.808533,1120.053467L716.583252,1122.272705L718.756897,1124.103027L721.245850,1125.474121L723.954346,1126.333252L726.778442,1126.647461L1581.791138,1144.058960L1545.131226,1316.321167z" fill="#000000" stroke="none" fill-opacity="1" />
				<polyline points="1602.298828,1121.311646 1602.298828,1075.663940 1602.298828,918.755432 712.336487,921.196167 712.336487,1074.355957 712.264099,1120.042480" fill="#1D1023" stroke="none" fill-opacity="1" />
				<path d="M1579.510864,1121.311646L1579.948730,1125.757324L1581.245483,1130.032227L1583.351440,1133.971924L1586.185425,1137.425171L1589.638550,1140.259033L1593.578247,1142.364990L1597.853149,1143.661621L1602.298828,1144.099609L1606.744385,1143.661621L1611.019287,1142.364990L1614.959106,1140.259033L1618.412354,1137.425171L1621.246338,1133.971924L1623.352051,1130.032227L1624.648804,1125.757324L1625.086670,1121.311646L1625.086670,1075.664062L1610.290527,918.755432L1610.089355,916.974060L1609.496338,915.282349L1608.541138,913.765320L1607.271729,912.499512L1605.752197,911.548340L1604.058838,910.959961L1602.276978,910.763794L712.301941,908.600403L709.504700,908.922729L706.849121,909.858459L704.467712,911.360657L702.479492,913.354370L700.983704,915.739929L700.055359,918.398132L699.740662,921.196167L689.913330,1074.327759L689.296631,1119.984619L689.726685,1124.466553L691.022827,1128.778320L693.135315,1132.754395L695.982849,1136.242065L699.456055,1139.107178L703.421509,1141.239502L707.726624,1142.557373L712.206299,1143.010010L716.688110,1142.579956L721.000061,1141.283691L724.976135,1139.171387L728.463745,1136.323730L731.328796,1132.850586L733.461182,1128.885132L734.778931,1124.579834L735.231506,1120.100342L734.759521,1074.412354L724.932312,933.757446L1594.307129,926.769104L1579.510864,1075.664062z" fill="#000000" stroke="none" fill-opacity="1" />
				<polyline points="1559.640137,1646.937256 814.442932,1643.100098 812.154236,1342.332520 1559.640137,1335.615845 1563.477295,1652.692993" fill="#1D1023" stroke="none" fill-opacity="1" />
				<path d="M1559.542114,1665.966797L1563.256592,1665.620239L1566.832031,1664.555786L1570.130981,1662.814209L1573.026733,1660.462524L1575.408203,1657.590942L1577.183716,1654.310059L1578.285034,1650.745728L1578.669800,1647.035156L1578.323242,1643.320801L1577.258789,1639.745361L1575.517090,1636.446289L1573.165405,1633.550415L1570.293823,1631.169067L1567.013062,1629.393555L1563.448730,1628.292358L1559.738159,1627.907471L833.329285,1624.167114L820.177551,1350.223755L1540.841187,1354.815430L1544.448853,1652.923218L1544.859375,1656.631104L1545.985352,1660.187500L1547.783691,1663.456055L1550.185059,1666.310913L1553.097168,1668.642578L1556.408203,1670.361084L1559.990845,1671.400757L1563.707520,1671.721313L1567.415527,1671.310913L1570.972046,1670.184814L1574.240479,1668.386597L1577.095337,1665.985229L1579.426880,1663.072998L1581.145508,1659.762085L1582.185059,1656.179321L1582.505859,1652.462646L1578.668701,1335.385498L1578.142212,1331.165283L1576.691895,1327.167358L1574.389648,1323.591431L1571.350830,1320.615967L1567.727173,1318.389771L1563.699585,1317.023926L1559.469116,1316.586670L812.082642,1334.369507L810.314087,1334.584717L808.637634,1335.187744L807.137207,1336.148438L805.887878,1337.418701L804.952209,1338.934814L804.377136,1340.621094L804.191223,1342.393066L795.413635,1643.244751L795.914978,1647.441650L797.330444,1651.424561L799.590149,1654.996704L802.582703,1657.981934L806.160400,1660.232910L810.146790,1661.638550L814.345032,1662.129517z" fill="#000000" stroke="none" fill-opacity="1" />
			</g>
			<!--Layer: buttons-->
			<g id="buttons">
				<polyline points="1024.285522,798.041626 1027.885498,758.441528 911.485535,778.841553 910.285522,819.641724 1003.885559,861.641846 1024.385376,801.145935" fill="#F1F288" stroke="none" fill-opacity="1" />
				<path d="M1019.232239,797.582275L1019.239624,798.576904L1019.441040,799.551025L1019.828613,800.467102L1020.387390,801.290039L1021.096008,801.988098L1021.927246,802.534546L1022.849060,802.908264L1023.826111,803.094971L1024.820801,803.087524L1025.794922,802.886108L1026.711060,802.498596L1027.533936,801.939758L1028.231934,801.231140L1028.778320,800.399902L1029.152100,799.478088L1029.338867,798.501038L1034.279297,759.022766L1034.244019,757.553894L1033.875610,756.131409L1033.193481,754.830017L1032.233398,753.717773L1031.045532,752.852844L1029.692139,752.280762L1028.244019,752.031433L1026.777222,752.117798L910.651672,774.083740L909.597961,774.395325L908.641907,774.937012L907.833008,775.680725L907.213074,776.588013L906.814331,777.612000L906.657288,778.699524L906.524170,819.531067L906.602417,820.412415L906.884155,821.251160L907.354004,822.000854L907.985962,822.620178L908.744995,823.074829L1001.947571,865.960693L1002.882202,866.268066L1003.860291,866.375549L1004.839478,866.278503L1005.777344,865.981140L1006.633606,865.496277L1007.371094,864.844849L1007.957886,864.055115L1008.368835,863.161072L1029.036987,802.722229L1029.255127,801.784424L1029.286133,800.822083L1029.128784,799.872253L1028.789062,798.971375L1028.280273,798.153992L1027.621704,797.451599L1026.838745,796.891174L1025.961548,796.494324L1025.023804,796.276184L1024.061401,796.245178L1023.111633,796.402527L1022.210693,796.742188L1021.393311,797.250977L1020.690979,797.909607L1020.130493,798.692444L1019.733704,799.569641L1001.073181,855.191345L914.120728,817.238281L916.197998,782.919678L1020.732483,766.213135z" fill="#000000" stroke="none" fill-opacity="1" />
				<polyline points="1307.485474,858.041870 1308.496582,813.758240 1317.252075,759.641541 1419.085449,789.641663 1417.885376,826.841736 1311.085449,859.241821" fill="#F1F288" stroke="none" fill-opacity="1" />
				<path d="M1303.488037,857.950562L1303.547119,858.732178L1303.757446,859.487183L1304.111084,860.186768L1304.594360,860.803894L1305.188721,861.314819L1305.871460,861.700012L1306.616089,861.944580L1307.394165,862.039185L1308.175781,861.980164L1308.930908,861.769897L1309.630371,861.416199L1310.247559,860.932922L1310.758545,860.338562L1311.143677,859.655884L1311.388306,858.911194L1311.482788,858.133057L1311.471680,814.031555L1322.745972,768.366516L1413.628174,793.587524L1413.419678,823.416809L1309.955444,855.516785L1309.250366,855.808838L1308.615845,856.232788L1308.076294,856.772400L1307.652344,857.406860L1307.360352,858.111938L1307.211426,858.860352L1307.211426,859.623474L1307.360352,860.371948L1307.652466,861.076904L1308.076416,861.711426L1308.615967,862.250977L1309.250610,862.674927L1309.955566,862.966980L1310.703979,863.115784L1311.467163,863.115784L1312.215576,862.966919L1419.213257,831.218628L1420.250244,830.756897L1421.141479,830.054077L1421.832153,829.153381L1422.279907,828.110352L1422.457031,826.989197L1424.409912,789.813354L1424.319824,788.650269L1423.978394,787.534729L1423.402588,786.520203L1422.619629,785.655396L1421.667114,784.981689L1420.590942,784.531433L1319.178467,753.102600L1317.758545,752.843506L1316.316040,752.889282L1314.915527,753.237610L1313.619751,753.872986L1312.486694,754.766968L1311.567383,755.879395L1310.902710,757.160522L1310.522705,758.552795L1305.554321,813.282227z" fill="#000000" stroke="none" fill-opacity="1" />
				<polyline points="1185.635498,823.730408 1275.218872,784.841614 1180.418945,728.441406 1068.818970,787.241577 1070.018799,824.441711 1172.018799,870.041870 1276.418823,825.641724 1276.418823,787.241577" fill="#8EFE76" stroke="none" fill-opacity="1" />
				<path d="M1184.671753,821.510437L1184.257202,821.741089L1183.895630,822.048218L1183.600830,822.419983L1183.384399,822.842102L1183.254272,823.298340L1183.215698,823.771240L1183.270142,824.242493L1183.415527,824.694092L1183.646240,825.108643L1183.953247,825.470276L1184.325073,825.765015L1184.747192,825.981567L1185.203491,826.111633L1185.676270,826.150146L1186.147583,826.095703L1186.599121,825.950378L1277.681763,790.514954L1278.858154,789.842468L1279.859863,788.929871L1280.638794,787.821045L1281.157593,786.569214L1281.391235,785.234497L1281.328613,783.880859L1280.972778,782.573364L1280.340820,781.374756L1279.462891,780.342529L1278.381104,779.526306L1182.413330,725.089050L1181.501709,724.693909L1180.519897,724.541992L1179.531372,724.642944L1178.600586,724.990417L1066.125000,782.128784L1065.058228,782.853455L1064.178833,783.796692L1063.530273,784.911499L1063.145264,786.142334L1063.042847,787.427917L1064.427124,824.622070L1064.606323,825.857666L1065.055176,827.022766L1065.751099,828.059326L1066.659668,828.915649L1067.735474,829.549194L1170.037109,874.474731L1171.311401,874.845703L1172.638428,874.857910L1173.919312,874.510254L1278.461182,830.444092L1279.517944,829.840454L1280.406250,829.008484L1281.077637,827.993408L1281.495605,826.850464L1281.637451,825.641724L1282.545898,787.241577L1282.428101,786.046265L1282.079590,784.896912L1281.513306,783.837585L1280.751343,782.909180L1279.822876,782.147217L1278.763550,781.580994L1277.614258,781.232300L1276.418823,781.114563L1275.223633,781.232300L1274.074097,781.580994L1273.014893,782.147156L1272.086426,782.909180L1271.324463,783.837585L1270.758301,784.896912L1270.409668,786.046265L1270.291870,787.241577L1271.200317,822.190186L1172.067261,864.744690L1075.497803,820.762817L1074.711548,790.669067L1180.303101,732.911499L1261.673218,783.979431z" fill="#000000" stroke="none" fill-opacity="1" />
				<polyline points="1275.218872,784.841614 1186.329956,758.452820" fill="#1D1023" stroke="none" fill-opacity="1" />
				<path d="M1273.458740,790.770691L1274.649170,791.000183L1275.861694,790.992981L1277.049438,790.749390L1278.166748,790.278748L1279.170898,789.599182L1280.023071,788.736816L1280.690674,787.724670L1281.147949,786.601807L1281.377441,785.411255L1281.370239,784.198853L1281.126709,783.011108L1280.656006,781.893738L1279.976440,780.889648L1279.114136,780.037476L1278.101929,779.369812L1276.979126,778.912537L1186.445679,758.062927L1186.367310,758.047852L1186.287720,758.048340L1186.209595,758.064392L1186.136108,758.095276L1186.070068,758.139954L1186.014038,758.196655L1185.970093,758.263184L1185.940063,758.337036L1185.924927,758.415283L1185.925415,758.494995L1185.941406,758.573181L1185.972412,758.646545L1186.017090,758.712585L1186.073730,758.768677L1186.140381,758.812500L1186.214233,758.842590z" fill="#000000" stroke="none" fill-opacity="1" />
				<polyline points="1166.552490,826.606262 1170.169312,865.990479 1071.105835,823.190247 1070.570068,793.718994" fill="#329C37" stroke="none" fill-opacity="1" />
				<path d="M1169.197632,826.363342L1169.099365,825.851990L1168.903198,825.369568L1168.616821,824.934753L1168.250977,824.564087L1167.819946,824.271912L1167.340210,824.069519L1166.830200,823.964539L1166.309570,823.961121L1165.798096,824.059326L1165.315796,824.255432L1164.880859,824.541870L1164.510254,824.907593L1164.218140,825.338623L1164.015625,825.818420L1163.910767,826.328430L1163.907349,826.849182L1169.064087,864.465942L1074.855225,820.676697L1074.363892,793.650024L1074.277466,792.911194L1074.048706,792.203430L1073.686157,791.553894L1073.203857,790.987610L1072.620361,790.526245L1071.958130,790.187561L1071.242554,789.984619L1070.500977,789.925232L1069.762207,790.011536L1069.054443,790.240356L1068.404907,790.602844L1067.838623,791.085144L1067.377197,791.668640L1067.038574,792.330872L1066.835693,793.046509L1066.776245,793.787964L1067.312012,823.259155L1067.426758,824.118469L1067.733398,824.929260L1068.216187,825.649292L1068.849609,826.240967L1069.600952,826.673462L1169.788086,866.872803L1169.977661,866.932373L1170.175293,866.951599L1170.372681,866.929871L1170.561523,866.868042L1170.733521,866.768677L1170.881348,866.636108L1170.998901,866.475952L1171.080933,866.295105L1171.124146,866.101196L1171.126465,865.902588z" fill="#000000" stroke="none" fill-opacity="1" />
				<polyline points="1089.594482,779.077820 1180.418945,728.441406 1179.030029,746.496948" fill="#329C37" stroke="none" fill-opacity="1" />
				<path d="M1087.694946,775.670776L1087.066650,776.106812L1086.535645,776.657043L1086.122192,777.300293L1085.842163,778.011841L1085.706299,778.764343L1085.719849,779.528931L1085.882324,780.276123L1086.187378,780.977295L1086.623413,781.605469L1087.173584,782.136475L1087.816895,782.549988L1088.528442,782.830078L1089.280884,782.965942L1090.045410,782.952393L1090.792725,782.789917L1091.493896,782.484802L1175.972412,735.386475L1178.386719,746.447449L1178.389404,746.573914L1178.416748,746.697388L1178.467651,746.813171L1178.540161,746.916809L1178.631470,747.004333L1178.738159,747.072327L1178.855957,747.118164L1178.980591,747.140198L1179.106934,747.137512L1179.230469,747.110168L1179.346191,747.059265L1179.449829,746.986816L1179.537354,746.895447L1179.605347,746.788818L1179.651245,746.670959L1179.673218,746.546448L1184.308105,728.740601L1184.282104,727.901550L1184.077148,727.087524L1183.702759,726.336243L1183.176270,725.682312L1182.522217,725.156311L1181.770630,724.782349L1180.956421,724.577881L1180.117310,724.552368L1179.292358,724.706848L1178.519409,725.034363z" fill="#000000" stroke="none" fill-opacity="1" />
				<path d="M1420.487305,794.781128L1421.525391,794.377380L1422.456665,793.766602L1423.240601,792.975525L1423.842896,792.038818L1424.237427,790.997253L1424.406738,789.896484L1424.343384,788.784607L1424.050415,787.710144L1423.540161,786.720093L1422.835571,785.857727L1421.966675,785.160767L1420.972168,784.659607L1419.895142,784.376221L1418.782715,784.322937L1417.683472,784.502075L1325.335327,815.214294z" fill="#000000" stroke="none" fill-opacity="1" />
				<path d="M913.516479,774.458923L912.622437,774.146912L911.684631,774.015320L910.739380,774.069214L909.822693,774.306458L908.969849,774.718018L908.213745,775.288086L907.583313,775.994629L907.102844,776.810608L906.790833,777.704651L906.659241,778.642334L906.713135,779.587769L906.950317,780.504456L907.362000,781.357300L907.932007,782.113403L908.638550,782.743774L909.454590,783.224243L996.760010,818.731689L996.822632,818.753540L996.888367,818.762756L996.954590,818.758972L997.018677,818.742371L997.078430,818.713562L997.131348,818.673645L997.175598,818.624207L997.209167,818.567017L997.231018,818.504456L997.240173,818.438782L997.236389,818.372559L997.219849,818.308411L997.191040,818.248657L997.151123,818.195740L997.101685,818.151550L997.044434,818.117920z" fill="#000000" stroke="none" fill-opacity="1" />
				<polyline points="1174.921143,755.321899 1068.818970,787.241577 1166.351562,824.529846 1171.596802,776.824951" fill="#329C37" stroke="none" fill-opacity="1" />
				<path d="M1175.002930,755.593872L1175.054443,755.572693L1175.100708,755.541870L1175.140259,755.502625L1175.171265,755.456360L1175.192749,755.404907L1175.203735,755.350342L1175.203857,755.294617L1175.193115,755.240051L1175.171997,755.188477L1175.141113,755.142151L1175.101807,755.102722L1175.055542,755.071655L1175.004150,755.050232L1174.949585,755.039246L1174.893921,755.039185L1174.839355,755.049866L1067.153931,781.707520L1066.052002,782.167847L1065.068237,782.844910L1064.244629,783.709656L1063.616333,784.725281L1063.210327,785.848328L1063.043579,787.030884L1063.123657,788.222412L1063.446777,789.372070L1063.999390,790.430786L1064.757812,791.353271L1065.689697,792.100220L1066.755127,792.639648L1164.996460,828.074097L1165.833740,828.288757L1166.697876,828.308411L1167.544189,828.131897L1168.328491,827.768494L1169.010132,827.237000L1169.553955,826.565063L1169.931519,825.787415L1170.123169,824.944519L1171.653076,776.831116L1171.653198,776.820007L1171.651123,776.809143L1171.646973,776.798767L1171.640991,776.789551L1171.633179,776.781555L1171.624023,776.775330L1171.613770,776.770935L1171.603027,776.768616L1171.591919,776.768494L1171.580933,776.770569L1171.570557,776.774658L1171.561279,776.780762L1171.553345,776.788513L1171.547119,776.797668L1171.542725,776.807861L1171.540405,776.818726L1163.116821,819.230896L1086.709351,787.894348z" fill="#000000" stroke="none" fill-opacity="1" />
			</g>
			<!--Layer: LOGOS-->
			<g id="LOGOS" />
		</g>
	</g>
	<g id="blender_frame_13">
		<g id="blender_object_Stroke">
			<!--Layer: Fills-->
			<g id="Fills" />
			<!--Layer: black-->
			<g id="black">
				<polyline points="1737.619873,871.135925 1724.475708,959.389465 1670.021484,1319.914551 1831.506592,1588.430542 1885.961060,1575.286499 1810.851562,1370.613281 1760.152710,1304.892578 1823.995728,1126.507812 1884.083374,1280.481934 1904.738525,1614.718872 1961.070557,1609.085571 2006.136108,1387.512939 1966.703857,1289.870728 1968.581421,954.052551 1880.250000,845.106201" fill="#000000" stroke="none" fill-opacity="1" />
			</g>
			<!--Layer: skin-->
			<g id="skin">
				<polyline points="1662.524414,897.248779 1700.372192,925.270386 1728.757812,930.001343 1688.828247,877.728149" fill="#AB91EE" stroke="none" fill-opacity="1" />
				<path d="M1662.524414,897.248779L1698.870605,927.298401L1699.957275,927.759460L1728.300171,932.747070L1728.902466,932.781189L1729.497925,932.684753L1730.058472,932.462341L1730.558105,932.124451L1730.973267,931.686768L1731.284180,931.169983L1731.476685,930.598328L1731.541382,929.998657L1731.475464,929.399109L1731.281982,928.827820L1730.969971,928.311584L1691.774780,875.477417L1691.278931,874.945740L1690.689087,874.521118L1690.027710,874.219666L1689.320312,874.053040L1688.593750,874.027710L1687.876343,874.144531L1687.195557,874.399109L1686.577515,874.781616L1686.045776,875.277283L1685.621094,875.867249L1685.319702,876.528625L1685.153076,877.236206L1685.127808,877.962585L1685.244507,878.680054L1685.499146,879.360840L1685.881592,879.979004L1722.273926,926.098694L1701.385742,922.881165z" fill="#000000" stroke="none" fill-opacity="1" />
				<polyline points="1611.730713,730.026978 1521.176514,857.054382 1589.092163,885.352539 1601.669067,916.166138 1594.751831,960.185608 1620.534546,922.454651 1621.163452,887.867981 1631.224854,885.981445 1636.255737,941.320129 1631.853760,1011.751160 1655.121216,945.093201 1662.667358,882.837158 1658.265503,943.835510 1634.998169,1011.751160 1673.986694,953.268188 1680.903931,882.208313 1687.192505,882.208313 1694.109863,948.237427 1697.254028,999.174255 1707.944580,954.525940 1702.284912,862.714050 1577.144043,841.962036 1638.247192,760.966248" fill="#AB91EE" stroke="none" fill-opacity="1" />
				<path d="M1616.808350,733.646606L1617.416992,732.586487L1617.806885,731.428040L1617.963501,730.215637L1617.880615,728.996033L1617.561279,727.816040L1617.017944,726.721069L1616.271484,725.753113L1615.350342,724.949341L1614.290283,724.340759L1613.131592,723.950684L1611.919434,723.794067L1610.699829,723.877075L1609.519897,724.196350L1608.424683,724.739685L1607.456787,725.486267L1606.653076,726.407349L1518.849854,855.395752L1518.539062,855.955139L1518.360596,856.569580L1518.323242,857.208435L1518.429077,857.839478L1518.672729,858.431152L1519.041992,858.953857L1519.518188,859.381226L1520.077637,859.691895L1585.095947,889.319763L1598.512817,916.533386L1593.434692,959.978638L1593.420410,960.254456L1593.463135,960.527283L1593.561157,960.785461L1593.710327,961.017944L1593.904297,961.214661L1594.134399,961.367188L1594.391113,961.469055L1594.663330,961.515808L1594.939331,961.505432L1595.207397,961.438477L1595.455688,961.317749L1595.673950,961.148376L1595.852539,960.937683L1622.793823,923.998596L1623.141602,923.286377L1623.270508,922.504395L1623.015503,889.433838L1629.565308,888.176453L1633.395386,941.360474L1631.750732,1011.744751L1631.751465,1011.765869L1631.756714,1011.786316L1631.765869,1011.805359L1631.778687,1011.822083L1631.794678,1011.835938L1631.813110,1011.846130L1631.833374,1011.852417L1631.854370,1011.854492L1631.875488,1011.852173L1631.895508,1011.845642L1631.913940,1011.835205L1631.929565,1011.821228L1631.942383,1011.804260L1631.951294,1011.785217L1657.717529,945.999451L1662.667358,882.837158L1655.559692,943.284119L1634.857056,1011.702942L1634.850220,1011.732727L1634.849487,1011.763367L1634.855225,1011.793457L1634.866821,1011.821777L1634.884155,1011.847107L1634.906128,1011.868408L1634.932129,1011.884766L1634.960815,1011.895386L1634.991089,1011.899963L1635.021606,1011.898315L1635.051270,1011.890320L1635.078491,1011.876465L1635.102539,1011.857422L1635.122070,1011.833801L1675.947998,954.575745L1676.332642,953.496582L1682.226562,883.665955L1684.570190,885.119812L1691.598145,948.446411L1697.121704,999.182373L1697.126099,999.208923L1697.135620,999.234070L1697.150146,999.256714L1697.168945,999.275940L1697.191284,999.291016L1697.216064,999.301270L1697.242554,999.306335L1697.269409,999.305908L1697.295654,999.300110L1697.320312,999.289062L1697.342041,999.273376L1697.360229,999.253601L1697.374146,999.230469L1697.382935,999.205078L1710.786865,955.206482L1708.099609,862.355591L1707.874390,861.072083L1707.369629,859.870667L1706.610352,858.811584L1705.634766,857.947693L1704.491455,857.322327L1703.237915,856.966736L1582.349243,839.882507L1644.143311,765.414185L1644.897827,764.178406L1645.396729,762.819214L1645.620728,761.388855L1645.561523,759.942261L1645.221191,758.534912L1644.613037,757.221130L1643.760132,756.051208L1642.695068,755.070068L1641.459595,754.315613L1640.100342,753.816772L1638.669922,753.592651L1637.223267,753.651794L1635.816040,753.992126L1634.502197,754.600464L1633.332153,755.453430L1632.351196,756.518250L1574.826660,840.213684L1574.518799,840.722778L1574.321411,841.283936L1574.242432,841.873535L1574.285278,842.466858L1574.448242,843.039001L1574.724365,843.565918L1575.102051,844.025513L1575.565552,844.398376L1576.095337,844.669006L1576.669189,844.825928L1696.755493,867.702454L1705.000488,954.269958L1697.331665,998.280151L1696.624756,948.082214L1690.088135,881.904968L1689.928589,881.213318L1689.606567,880.580811L1689.140991,880.045044L1688.559692,879.637817L1687.896851,879.383362L1687.192505,879.296875L1680.903931,880.750671L1680.549561,880.794434L1680.216309,880.923096L1679.924438,881.128845L1679.691406,881.399414L1679.531006,881.718567L1679.453247,882.067139L1671.697754,952.452087L1635.511353,1010.712585L1660.856079,944.723022L1662.667358,882.837158L1652.427002,944.467346L1632.003662,1011.008301L1639.102417,941.497986L1633.068970,885.813782L1632.994385,885.436279L1632.843506,885.082336L1632.622681,884.767212L1632.341675,884.504517L1632.012329,884.305542L1631.648926,884.179016L1631.267090,884.130310L1630.883667,884.161560L1620.816895,886.019836L1620.408325,886.145874L1620.038818,886.360962L1619.727417,886.653992L1619.490356,887.009827L1619.339600,887.409973L1619.283325,887.833801L1617.813232,921.586487L1596.986450,954.552185L1604.692871,916.641357L1604.503052,915.009460L1593.905518,883.387939L1593.229858,882.204773L1592.269897,881.237854L1591.091797,880.553528L1525.583374,855.795105z" fill="#000000" stroke="none" fill-opacity="1" />
				<polyline points="1749.533203,485.307617 1755.570068,569.824890 1840.018799,559.961304 1791.037598,414.373413 1690.672485,335.893066 1638.656006,409.146729 1560.381836,451.786377 1580.103149,578.534668 1653.032227,573.730896 1729.891602,518.269897 1762.382080,457.481079" fill="#AB91EE" stroke="none" fill-opacity="1" />
				<path d="M1752.383057,485.104004L1752.288574,484.551880L1752.088135,484.028931L1751.789551,483.555054L1751.404297,483.148438L1750.947266,482.824829L1750.435791,482.596680L1749.889526,482.472656L1749.329468,482.457642L1748.777466,482.552124L1748.254395,482.752441L1747.780640,483.051147L1747.374146,483.436279L1747.050537,483.893555L1746.822388,484.405029L1746.698364,484.951294L1746.683228,485.511108L1749.730713,570.242065L1749.981079,571.566895L1750.527710,572.799316L1751.342041,573.874023L1752.380615,574.733948L1753.588135,575.333496L1754.901001,575.640808L1756.249390,575.639709L1841.009888,568.445374L1842.856445,568.017883L1844.563599,567.193604L1846.046875,566.013123L1847.233154,564.534607L1848.064087,562.830811L1848.498901,560.985718L1848.515991,559.090149L1848.114624,557.237488L1793.745483,413.462280L1793.369751,412.723022L1792.797485,412.122803L1694.671265,330.779175L1693.394287,329.999634L1691.972656,329.532959L1690.481934,329.404175L1689.001343,329.620117L1687.609619,330.169434L1686.380615,331.022583L1685.379395,332.134644L1636.708984,406.953857L1559.015015,449.277344L1558.446655,449.684326L1557.994141,450.217163L1557.684692,450.843872L1557.536377,451.526978L1557.558594,452.225708L1575.397217,579.266907L1575.656250,580.239624L1576.113892,581.136169L1576.749634,581.916443L1577.535400,582.545715L1578.435547,582.995789L1579.410400,583.246643L1580.416138,583.287048L1653.437256,579.880554L1655.118896,579.529907L1656.638550,578.728699L1731.563477,520.586792L1732.411377,519.616699L1764.901733,458.827881L1765.116211,458.310547L1765.225342,457.761108L1765.225342,457.201050L1765.116089,456.651733L1764.901733,456.134155L1764.590576,455.668579L1764.194458,455.272461L1763.728760,454.961304L1763.211304,454.747070L1762.662109,454.637817L1762.101807,454.637817L1761.552612,454.747070L1761.035034,454.961426L1760.569458,455.272583L1760.173340,455.668579L1759.862183,456.134399L1727.683350,516.339905L1650.861084,567.697632L1584.139160,573.495850L1563.513916,453.333618L1640.022705,411.655762L1640.985596,410.801025L1692.029175,345.194824L1788.602661,416.096436L1828.563354,552.699463L1760.973267,563.299683z" fill="#000000" stroke="none" fill-opacity="1" />
				<polyline points="1560.381836,451.786377 1572.329834,529.135010 1657.224731,509.640625 1689.925049,336.077759 1638.359253,408.395630" fill="#000000" stroke="none" fill-opacity="1" />
			</g>
			<!--Layer: yella-->
			<g id="yella">
				<polyline points="1820.695312,567.865112 1931.624512,627.480103 1870.500244,835.000549 1724.103760,830.472839 1672.852539,581.133850 1777.678345,566.608704" fill="#E3E3C1" stroke="none" fill-opacity="1" />
				<path d="M1822.212646,565.041809L1821.632690,564.799988L1821.016724,564.676025L1820.388428,564.674561L1819.771851,564.795776L1819.190796,565.034912L1818.667480,565.382874L1818.222168,565.826172L1817.871948,566.347778L1817.630249,566.927734L1817.506226,567.543762L1817.504761,568.172180L1817.625977,568.788757L1817.865112,569.369690L1818.213135,569.893005L1818.656372,570.338257L1819.177979,570.688538L1924.450928,630.476013L1867.154785,830.380493L1727.491943,826.446106L1678.423218,585.070618L1778.072632,569.455200L1778.620483,569.323547L1779.132080,569.087585L1779.587769,568.756348L1779.969971,568.342529L1780.264282,567.862183L1780.458984,567.333618L1780.546997,566.777100L1780.524902,566.214233L1780.393066,565.666565L1780.157227,565.154907L1779.826050,564.699280L1779.412109,564.317017L1778.931763,564.022705L1778.403198,563.827942L1777.846802,563.739868L1777.283813,563.762146L1672.212280,576.513977L1671.159790,576.787720L1670.199463,577.297852L1669.383301,578.016418L1668.755737,578.904541L1668.350830,579.913818L1668.190674,580.989441L1668.283936,582.072876L1720.058838,831.304260L1720.342529,832.177734L1720.812500,832.966858L1721.445068,833.632629L1722.209106,834.142090L1723.067017,834.470093L1723.976196,834.600403L1870.360596,839.512817L1871.345215,839.435181L1872.289307,839.145325L1873.147827,838.657043L1873.879639,837.993774L1874.449707,837.187256L1874.830688,836.276062L1937.413574,629.185242L1937.648804,627.836548L1937.574219,626.469421L1937.193237,625.154480L1936.525635,623.959167L1935.605957,622.945007L1934.481323,622.164307z" fill="#000000" stroke="none" fill-opacity="1" />
				<polyline points="1840.944458,576.920898 1936.906860,624.461609 1961.054688,767.839417 1983.693237,765.575500 1985.957275,801.042664 1906.721924,812.361938 1884.083374,745.200745" fill="#E3E3C1" stroke="none" fill-opacity="1" />
				<path d="M1842.562622,573.654663L1841.894287,573.401733L1841.189331,573.284058L1840.475220,573.306152L1839.779053,573.467163L1839.127563,573.760803L1838.546021,574.176025L1838.056641,574.696655L1837.678223,575.302734L1837.425293,575.971069L1837.307495,576.675842L1837.329712,577.390076L1837.490723,578.086304L1837.784424,578.737671L1838.199463,579.319275L1838.720215,579.808716L1839.326294,580.187134L1931.435547,628.525452L1957.093994,768.506531L1957.327148,769.335327L1957.731689,770.095581L1958.288940,770.752014L1958.973389,771.274658L1959.753418,771.639343L1960.593384,771.829346L1961.454346,771.835999L1979.685425,770.298462L1981.463257,797.389343L1909.296997,808.179932L1884.083374,745.200745L1903.143921,813.568054L1903.515625,814.356079L1904.058105,815.037903L1904.742188,815.577209L1905.531860,815.945435L1906.385010,816.122742L1907.255859,816.099915L1986.558594,805.252075L1987.435669,805.029480L1988.245850,804.626282L1988.952515,804.060791L1989.523438,803.358521L1989.932739,802.551392L1990.161865,801.675964L1990.200684,800.771790L1987.985229,765.301575L1987.810303,764.332275L1987.419556,763.428101L1986.833252,762.636658L1986.082153,761.999390L1985.205933,761.549561L1984.250244,761.311096L1983.265381,761.296204L1964.391846,763.469116L1942.892822,623.453491L1942.491333,622.081848L1941.780029,620.842102L1940.798706,619.803040L1939.601685,619.022217z" fill="#000000" stroke="none" fill-opacity="1" />
				<polyline points="1732.253174,590.503479 1723.197754,655.702698 1635.360352,769.801514 1581.933350,736.296326 1595.516602,710.035461 1610.005249,719.091003 1638.982544,672.908081 1672.852539,581.133789" fill="#E3E3C1" stroke="none" fill-opacity="1" />
				<path d="M1735.342407,590.932495L1735.366699,590.321533L1735.271362,589.717651L1735.060059,589.143982L1734.740845,588.622498L1734.326172,588.173340L1733.831787,587.813660L1733.276733,587.557434L1732.682251,587.414307L1732.071411,587.390015L1731.467407,587.485291L1730.893799,587.696594L1730.372192,588.015747L1729.923096,588.430481L1729.563477,588.924927L1729.307129,589.479980L1729.164062,590.074402L1720.456543,654.553345L1634.362427,764.232239L1589.483521,734.233826L1597.487671,717.229919L1607.830322,722.570740L1608.658081,722.967163L1609.553467,723.169556L1610.471313,723.167969L1611.365845,722.962280L1612.192383,722.563049L1612.909302,721.989990L1613.481201,721.271973L1642.088745,674.857178L1677.228271,582.748596L1677.459106,581.864014L1677.512939,580.951294L1677.387939,580.045593L1677.088501,579.181702L1676.626099,578.392822L1676.018921,577.709290L1675.290039,577.157288L1674.467407,576.758179L1673.582642,576.527283L1672.670044,576.473328L1671.764282,576.598450L1670.900391,576.897949L1670.111450,577.360168L1669.427979,577.967468L1668.876099,578.696411L1668.476807,579.518921L1635.673828,671.281433L1608.706421,713.440063L1598.196289,705.747925L1597.119385,705.240173L1595.953857,704.998230L1594.763916,705.035706L1593.615601,705.350220L1592.572754,705.924622L1591.693237,706.726868L1591.025635,707.712585L1576.818604,733.650635L1576.375488,734.789368L1576.182739,735.995911L1576.248779,737.215942L1576.570679,738.394592L1577.134033,739.478699L1577.913574,740.419678L1578.874023,741.174927L1633.135132,773.349548L1634.065430,773.784363L1635.073608,773.979675L1636.098999,773.923889L1637.079956,773.620239L1637.957397,773.086975L1638.678833,772.356262L1725.474609,657.455444L1726.043823,656.098022z" fill="#000000" stroke="none" fill-opacity="1" />
				<polyline points="1728.970337,516.141846 1741.811157,469.412109 1702.944946,417.881226 1695.520874,484.696655 1669.614746,557.535278" fill="#E3E3C1" stroke="none" fill-opacity="1" />
				<path d="M1725.352783,515.147766L1725.228394,515.872681L1725.247803,516.607849L1725.410278,517.325134L1725.709473,517.996948L1726.134033,518.597473L1726.667603,519.103699L1727.289673,519.495972L1727.976318,519.759399L1728.701172,519.883911L1729.436279,519.864441L1730.153687,519.701965L1730.825439,519.402771L1731.425903,518.978271L1731.932129,518.444641L1732.324585,517.822632L1732.588013,517.135925L1743.437744,469.859009L1743.496948,469.350342L1743.400757,468.847290L1743.157959,468.396362L1704.261841,416.887817L1704.017212,416.627930L1703.722656,416.426514L1703.391602,416.293213L1703.039551,416.234375L1702.682983,416.252563L1702.338867,416.347046L1702.022949,416.513184L1701.750244,416.743530L1701.533691,417.027100L1701.383057,417.350708L1701.305420,417.698975L1693.073486,484.133545L1665.670410,556.132446L1665.472412,556.928833L1665.433838,557.748657L1665.555664,558.560181L1665.833740,559.332336L1666.256836,560.035522L1666.809082,560.642517L1667.469238,561.130127L1668.211792,561.479614L1669.008179,561.677490L1669.828003,561.716248L1670.639526,561.594238L1671.411865,561.316345L1672.114868,560.893066L1672.721924,560.340820L1673.209595,559.680664L1673.559082,558.938110L1697.871582,485.532837L1704.126099,422.186768L1739.964844,469.765259z" fill="#000000" stroke="none" fill-opacity="1" />
				<path d="M1741.469116,471.063965L1741.797974,471.098877L1742.127319,471.069092L1742.444580,470.975586L1742.737305,470.822021L1742.994629,470.614258L1743.206299,470.360352L1743.364502,470.069824L1743.463013,469.754150L1743.497925,469.425293L1743.468140,469.095947L1743.374634,468.778809L1743.221191,468.485962L1743.013428,468.228638L1742.759277,468.016846L1742.468994,467.858765L1742.153320,467.760254L1698.750122,459.627808L1698.569092,459.610229L1698.388306,459.631592L1698.216309,459.690918L1698.061035,459.785645L1697.929443,459.911255L1697.827515,460.061890L1697.760010,460.230835L1697.730103,460.410278L1697.739136,460.592041L1697.786621,460.767578L1697.870361,460.929077L1697.986694,461.068970L1730.347900,494.402954L1688.960083,508.340332L1688.623779,508.490967L1688.327881,508.710815L1688.086670,508.989380L1687.911377,509.313599L1687.810425,509.667969L1687.788574,510.035889L1687.846802,510.399780L1687.982300,510.742554L1688.188721,511.047729L1688.456421,511.301147L1688.772461,511.490601L1716.825195,524.599243L1672.814331,545.827942L1672.314331,546.149170L1671.886597,546.561829L1671.547485,547.050049L1671.310425,547.594971L1671.183838,548.175781L1671.173218,548.770020L1671.278687,549.354980L1671.496338,549.908020L1671.817383,550.408081L1672.230225,550.835876L1672.718262,551.174927L1673.263184,551.412170L1673.844116,551.538574L1674.438477,551.549316L1675.023193,551.443848L1675.576416,551.226318L1721.999268,526.186707L1722.320679,525.978699L1722.593262,525.710083L1722.806030,525.391724L1722.950195,525.037109L1723.019531,524.660706L1723.011475,524.277954L1722.926392,523.904785L1722.767578,523.556458L1722.541626,523.247375L1722.257935,522.990417L1721.928101,522.795959L1694.136597,510.229126L1735.296875,497.538208L1735.720581,497.351562L1736.096924,497.082153L1736.410400,496.741577L1736.647583,496.343994L1736.798462,495.906372L1736.856689,495.447266L1736.819580,494.985840L1736.689209,494.541626L1736.470459,494.133667L1736.173096,493.778931L1701.266113,461.883179z" fill="#000000" stroke="none" fill-opacity="1" />
				<polyline points="1610.005249,719.091003 1640.944458,737.956421" fill="#E3E3C1" stroke="none" fill-opacity="1" />
				<path d="M1612.141479,715.587341L1611.416870,715.237915L1610.638062,715.036438L1609.834961,714.990845L1609.038452,715.102844L1608.278931,715.368103L1607.585815,715.776428L1606.985596,716.312134L1606.501587,716.954590L1606.152100,717.679138L1605.950684,718.458008L1605.905151,719.261169L1606.017090,720.057678L1606.282349,720.817200L1606.690552,721.510254L1607.226318,722.110413L1607.868774,722.594543L1640.597168,738.526306L1640.714844,738.583069L1640.841553,738.615845L1640.972290,738.623291L1641.101929,738.605103L1641.225342,738.561890L1641.338013,738.495483L1641.435791,738.408447L1641.514526,738.303955L1641.571289,738.186035L1641.604004,738.059387L1641.611572,737.928711L1641.593262,737.799194L1641.550049,737.675598L1641.483643,737.562866L1641.396606,737.465271L1641.291992,737.386536z" fill="#000000" stroke="none" fill-opacity="1" />
				<polyline points="1961.054688,767.839417 1924.833008,772.367065" fill="#E3E3C1" stroke="none" fill-opacity="1" />
				<path d="M1961.552856,771.824951L1962.320801,771.651184L1963.040161,771.330933L1963.683228,770.876526L1964.225220,770.305359L1964.645264,769.639404L1964.927490,768.904358L1965.060791,768.128357L1965.040283,767.341187L1964.866455,766.573242L1964.546265,765.853882L1964.091797,765.210938L1963.520630,764.668945L1962.854736,764.248779L1962.119751,763.966614L1961.343750,763.833191L1960.556519,763.853821L1924.741211,771.632690L1924.599609,771.664734L1924.467041,771.723755L1924.348633,771.807434L1924.248657,771.912720L1924.171387,772.035400L1924.119263,772.170837L1924.094727,772.313904L1924.098389,772.458923L1924.130615,772.600403L1924.189575,772.732971L1924.273315,772.851440L1924.378418,772.951355L1924.501221,773.028748L1924.636597,773.080750L1924.779663,773.105286L1924.924805,773.101501z" fill="#000000" stroke="none" fill-opacity="1" />
			</g>
			<!--Layer: apron-->
			<g id="apron">
				<polyline points="1699.005981,565.193787 1684.052368,626.872559 1725.779785,872.022278 1700.935669,1033.538086 1591.469971,1366.233643 1734.907593,1391.009521 1871.825195,1387.097534 2058.294189,1340.153931 2003.526978,1135.427734 1909.640625,939.829651 1852.265625,851.158447 1883.561035,843.334595 1878.345093,819.862793 1849.657593,817.254761 1877.041138,679.032104 1926.592407,612.528625 1880.953125,590.360901 1831.401978,641.216431 1760.987183,740.319519 1738.819458,652.952332 1737.808594,562.026184 1700.498779,562.926331" fill="#282040" stroke="none" fill-opacity="1" />
				<path d="M1701.500122,565.798462L1701.570190,565.300293L1701.541626,564.797974L1701.415771,564.310852L1701.197266,563.857727L1700.894409,563.455933L1700.519165,563.120850L1700.085571,562.865540L1699.610718,562.699585L1699.112427,562.629578L1698.610107,562.658081L1698.123047,562.783936L1697.669922,563.002563L1697.268066,563.305298L1696.933105,563.680603L1696.677734,564.114136L1696.511841,564.589050L1679.403320,625.745483L1679.336426,627.675232L1720.679321,872.062988L1698.123047,1032.863892L1579.639404,1362.341064L1579.081543,1364.951050L1579.092896,1367.619995L1579.672363,1370.225098L1580.793701,1372.646973L1582.405151,1374.774414L1584.432983,1376.509644L1586.783936,1377.772949L1589.349976,1378.506470L1733.072632,1401.632812L1872.095703,1396.565552L2061.011230,1350.946167L2063.365479,1350.060303L2065.460449,1348.668457L2067.189697,1346.841553L2068.464355,1344.672974L2069.219482,1342.273560L2069.416504,1339.765747L2069.045166,1337.277954L2006.287109,1134.689453L1913.292847,938.076599L1858.482422,853.610962L1884.664307,847.747681L1885.603394,847.399292L1886.443481,846.853760L1887.143799,846.137573L1887.670410,845.285522L1887.997925,844.338867L1888.110107,843.343506L1888.001831,842.347778L1882.546509,818.929138L1882.180298,817.909912L1881.571533,817.014343L1880.758423,816.299133L1879.792358,815.809570L1878.734741,815.576599L1854.076538,813.949036L1879.764160,680.241516L1929.104004,614.400085L1929.451660,613.807190L1929.661621,613.152832L1929.723877,612.468262L1929.635254,611.786743L1929.400269,611.140930L1929.029907,610.561890L1928.542236,610.077576L1927.960693,609.711304L1882.269165,587.651245L1881.557617,587.409790L1880.808472,587.351929L1880.068115,587.481384L1879.383057,587.790039L1878.795532,588.258667L1829.352661,639.219788L1762.803955,730.590820L1742.423828,652.481812L1739.399658,562.008484L1739.355225,561.652039L1739.231689,561.314575L1739.035889,561.013428L1738.777344,560.763977L1738.469604,560.578796L1738.127930,560.467407L1737.770142,560.435486L1700.441284,560.549805L1699.978760,560.606689L1699.536133,560.752625L1699.130737,560.982117L1698.777710,561.286438L1698.490723,561.653687L1698.281006,562.069885L1698.156616,562.518921L1698.122192,562.983704L1698.178955,563.446228L1698.325073,563.888733L1698.554565,564.294312L1698.858765,564.647339L1699.225952,564.934204L1699.642212,565.143921L1700.091309,565.268372L1700.556030,565.302917L1736.235474,563.655762L1735.210205,652.992432L1756.960938,741.341064L1757.256470,742.146179L1757.711182,742.873352L1758.305664,743.491760L1759.014282,743.974854L1759.807007,744.302124L1760.650146,744.459595L1761.507568,744.440552L1762.342896,744.245789L1763.120361,743.883606L1763.806885,743.369507L1764.373169,742.725403L1833.605713,643.054321L1881.593018,594.020691L1921.819336,613.692444L1874.710693,677.295715L1874.190308,678.467285L1846.035767,816.537231L1845.965576,817.306030L1846.057129,818.072632L1846.305786,818.803467L1846.700928,819.466553L1847.225586,820.032959L1847.856445,820.477905L1848.566040,820.782043L1849.323242,820.931885L1874.825562,823.864441L1878.159180,839.996033L1851.322876,847.387512L1850.553467,847.668762L1849.860229,848.105042L1849.273682,848.676880L1848.820190,849.358948L1848.519531,850.120972L1848.385376,850.928955L1848.423340,851.747253L1848.632080,852.539307L1849.002197,853.270142L1906.099731,941.814514L2000.835938,1136.423828L2044.624512,1332.119141L1870.518311,1377.659180L1735.678711,1380.202637L1607.811035,1356.417358L1703.673706,1034.438965L1730.756104,872.787781L1688.933716,627.041687z" fill="#000000" stroke="none" fill-opacity="1" />
				<polyline points="1967.996582,804.885864 2000.294922,955.739685 1884.132568,1070.854126 1858.904175,978.091064 1857.401855,963.330505 1828.684326,952.325684 1839.165283,951.277588 1869.559570,943.941040 1881.612671,974.335388 1945.755249,926.856995 1910.260132,814.729797" fill="#AB91EE" stroke="none" fill-opacity="1" />
				<path d="M1973.529297,803.701355L1973.191772,802.644714L1972.654785,801.674255L1971.938599,800.827209L1971.071167,800.136169L1970.085449,799.627563L1969.019531,799.321106L1967.914062,799.228516L1966.812134,799.353271L1965.755493,799.690674L1964.785034,800.227722L1963.937988,800.943787L1963.246826,801.811340L1962.738281,802.797058L1962.431885,803.863037L1962.339233,804.968323L1962.463989,806.070435L1997.174072,954.810059L1886.296265,1062.791992L1862.811890,977.365906L1860.832764,962.981323L1860.607910,962.060059L1860.140625,961.234863L1859.466309,960.568115L1858.635864,960.110229L1829.134033,952.385925L1839.270508,952.330139L1867.421753,948.065613L1876.835571,976.229736L1877.389648,977.263916L1878.163940,978.145386L1879.118042,978.828308L1880.202026,979.276978L1881.359619,979.468079L1882.530518,979.391724L1883.653320,979.051758L1884.669922,978.465942L1947.454956,929.153503L1947.966675,928.665894L1948.343140,928.067566L1948.561157,927.395203L1948.607300,926.689880L1948.478882,925.994751L1916.260864,812.830261L1915.774902,811.696045L1915.077026,810.678467L1914.194214,809.816589L1913.160034,809.143494L1912.014526,808.685059L1910.801514,808.458923L1909.567749,808.473816L1908.360474,808.729126L1907.226440,809.215027L1906.208740,809.912842L1905.346802,810.795776L1904.673706,811.829895L1904.215332,812.975464L1903.989258,814.188477L1904.004028,815.422241L1904.259521,816.629395L1942.415649,925.774353L1883.926147,966.229248L1872.820312,942.647949L1872.422852,941.914612L1871.863525,941.295898L1871.173828,940.826721L1870.392944,940.533691L1869.564941,940.433228L1868.736572,940.531128L1838.987671,950.232300L1828.673950,952.221558L1828.652954,952.225830L1828.633179,952.234436L1828.615601,952.246826L1828.600830,952.262512L1828.589844,952.280945L1828.582642,952.301208L1828.579712,952.322510L1828.581299,952.343994L1828.587158,952.364685L1828.597290,952.383728L1828.610962,952.400269L1828.627808,952.413696L1828.646851,952.423462L1854.185791,965.791321L1854.963379,978.492065L1880.076172,1071.957275L1880.392578,1072.773438L1880.871216,1073.506348L1881.491333,1074.124268L1882.225708,1074.600342L1883.042969,1074.914062L1883.907471,1075.051636L1884.781616,1075.007324L1885.627563,1074.782837L1886.408936,1074.387939L1887.091431,1073.839966L2002.306152,957.769104L2002.745972,957.207947L2003.033203,956.555359L2003.149780,955.851929L2003.088745,955.141541z" fill="#000000" stroke="none" fill-opacity="1" />
			</g>
			<!--Layer: red-->
			<g id="red">
				<polyline points="1579.754150,412.176025 1510.581177,482.921021 1629.529053,455.152588 1689.898804,327.496094 1652.167480,265.617310 1606.890015,269.390381 1510.298218,371.264038 1579.723633,412.013428" fill="#F92929" stroke="none" fill-opacity="1" />
				<path d="M1581.784424,414.161377L1582.132812,413.727051L1582.389648,413.233276L1582.545288,412.698730L1582.593506,412.144165L1582.532837,411.590820L1582.365234,411.060059L1582.097290,410.572021L1581.739258,410.145752L1581.305176,409.797485L1580.811279,409.540649L1580.276733,409.385010L1579.722168,409.336670L1579.168823,409.397461L1578.637939,409.565063L1578.150024,409.832886L1577.723755,410.190796L1506.064819,478.505005L1505.228271,479.567749L1504.637207,480.784058L1504.318481,482.098511L1504.286865,483.450562L1504.543945,484.778320L1505.077637,486.020996L1505.863770,487.121460L1506.866089,488.029419L1508.038940,488.703247L1509.328125,489.111938L1510.674683,489.236816L1512.017090,489.072021L1630.178711,457.934937L1630.971558,457.618774L1631.635864,457.082642L1632.111938,456.374023L1694.177856,329.519653L1694.543091,328.410522L1694.625610,327.245728L1694.420410,326.096191L1693.940063,325.031860L1657.986328,262.069214L1656.796265,260.615112L1655.254272,259.541138L1653.477783,258.929199L1651.601562,258.825562L1606.436890,263.952759L1604.528687,264.471436L1602.930420,265.636108L1507.941650,369.029663L1507.502808,369.611328L1507.204712,370.276245L1507.062378,370.990723L1507.082886,371.719116L1507.265381,372.424561L1507.600342,373.071411L1508.071411,373.627441L1508.654419,374.064453L1578.286255,414.462280L1578.791626,414.695679L1579.332764,414.825928L1579.889038,414.848145L1580.438843,414.761353L1580.961304,414.569092L1581.436157,414.278564L1581.845093,413.901001L1582.172607,413.450806L1582.406006,412.945312L1582.536255,412.404175L1582.558472,411.848022L1582.471680,411.298096L1582.279297,410.775757L1581.988770,410.300903L1581.611084,409.891968L1581.161011,409.564453L1515.466797,370.532349L1609.417480,274.655273L1648.539673,272.758423L1684.528076,327.780396L1627.536011,452.683960L1530.246216,471.843872z" fill="#000000" stroke="none" fill-opacity="1" />
				<polyline points="1773.045166,578.286865 1734.730835,629.913391 1728.182373,694.347046 1710.677612,665.603027 1697.885986,655.919495 1716.325195,605.301941 1759.295898,574.587158" fill="#F92929" stroke="none" fill-opacity="1" />
				<path d="M1775.410889,580.042725L1775.708008,579.547424L1775.902710,579.003723L1775.987671,578.432373L1775.959473,577.855530L1775.819458,577.295288L1775.572632,576.773010L1775.228760,576.309021L1774.800903,575.921082L1774.305664,575.623901L1773.761841,575.429260L1773.190552,575.344299L1772.613770,575.372375L1772.053345,575.512573L1771.531128,575.759338L1771.067139,576.103271L1770.679199,576.531128L1731.432739,627.465820L1730.644775,629.498169L1726.199707,685.598267L1713.117798,664.117004L1712.402100,663.325073L1701.292603,654.914978L1719.888184,608.009216L1760.963013,576.919678L1761.385986,576.549622L1761.728882,576.104187L1761.977905,575.600342L1762.124146,575.057617L1762.161499,574.496826L1762.088745,573.939453L1761.908691,573.407104L1761.628418,572.919922L1761.258301,572.496948L1760.812744,572.154236L1760.308960,571.905029L1759.766235,571.758911L1759.205322,571.721497L1758.648071,571.794128L1758.115601,571.974243L1757.628662,572.254700L1713.839600,601.824524L1712.921875,602.715820L1712.308960,603.838867L1695.201416,654.941589L1695.041748,655.648804L1695.065308,656.373291L1695.270264,657.068665L1695.643555,657.690125L1696.161499,658.197510L1708.519897,667.553101L1725.742310,695.833130L1726.101196,696.304565L1726.549927,696.691772L1727.068481,696.978088L1727.635254,697.151306L1728.225464,697.203857L1728.813965,697.133484L1729.375122,696.943359L1729.885132,696.641418L1730.321777,696.240784L1730.666382,695.758789L1730.904175,695.216125L1731.024902,694.635925L1738.702271,631.453247z" fill="#000000" stroke="none" fill-opacity="1" />
				<polyline points="1800.934326,585.565308 1813.910156,651.940552 1837.992676,698.962646 1857.270020,671.375916 1870.644897,662.515625 1829.814941,619.520264 1814.571045,581.470459" fill="#F92929" stroke="none" fill-opacity="1" />
				<path d="M1802.685913,585.222900L1802.585449,584.887634L1802.421509,584.578613L1802.200562,584.307434L1801.930786,584.084473L1801.622681,583.918518L1801.288208,583.815918L1800.940063,583.780457L1800.591797,583.813599L1800.256714,583.914062L1799.947510,584.078003L1799.676392,584.299072L1799.453491,584.568787L1799.287598,584.876831L1799.184814,585.211304L1799.149414,585.559448L1799.182617,585.907715L1811.106201,652.488770L1835.449829,700.265137L1835.769653,700.757385L1836.183350,701.173889L1836.673462,701.497009L1837.219360,701.713135L1837.797852,701.813110L1838.384399,701.792847L1838.954590,701.653015L1839.484131,701.399658L1839.950928,701.043335L1840.334839,700.599243L1859.300781,673.457764L1872.226318,664.902771L1872.705566,664.503906L1873.087036,664.010864L1873.352661,663.446838L1873.490112,662.838684L1873.492554,662.215271L1873.359985,661.606018L1873.098877,661.039917L1872.721191,660.543823L1833.141724,617.386353L1816.554443,580.675720L1816.361328,580.304016L1816.099487,579.977051L1815.778687,579.707581L1815.411499,579.505798L1815.012085,579.379578L1814.595825,579.333618L1814.178467,579.369812L1813.776123,579.486816L1813.404419,579.679932L1813.077637,579.941895L1812.807983,580.262634L1812.606201,580.629639L1812.479980,581.029175L1812.434204,581.445557L1812.470459,581.862915L1812.587158,582.265137L1826.211670,620.963806L1827.000122,622.193298L1866.218628,662.013000L1855.692139,668.994019L1854.927979,669.739380L1838.370850,693.433472L1816.636963,650.996826z" fill="#000000" stroke="none" fill-opacity="1" />
				<polyline points="1794.221558,551.405945 1859.539551,518.247009 1845.758545,567.792847 1845.758545,619.307312 1797.737427,581.708862" fill="#F92929" stroke="none" fill-opacity="1" />
				<path d="M1793.984253,550.938538L1793.897705,550.993835L1793.823486,551.064941L1793.764526,551.149048L1793.723267,551.243164L1793.701172,551.343567L1793.698853,551.446289L1793.716797,551.547424L1793.754150,551.643188L1793.809448,551.729797L1793.880493,551.804016L1793.964722,551.862793L1794.058838,551.904175L1794.159058,551.926392L1794.261841,551.928467L1794.362915,551.910583L1794.458862,551.873230L1852.389404,526.978271L1843.235352,567.090942L1841.689941,610.954712L1798.268555,581.030457L1798.126099,580.939941L1797.968506,580.878845L1797.802124,580.849670L1797.633179,580.853577L1797.468506,580.890381L1797.313843,580.958557L1797.175537,581.055603L1797.058960,581.177734L1796.968506,581.320251L1796.907349,581.477783L1796.878174,581.644104L1796.882080,581.812988L1796.918945,581.977844L1796.987061,582.132446L1797.084106,582.270691L1797.206299,582.387329L1843.250366,622.510803L1843.948364,622.950928L1844.720947,623.241272L1845.536011,623.369751L1846.360474,623.330994L1847.159912,623.126831L1847.901855,622.765442L1848.555664,622.261841L1849.094360,621.636536L1849.495728,620.915466L1849.743286,620.128296L1849.827026,619.307312L1848.377319,568.150269L1863.921997,519.465942L1864.079956,518.524841L1864.037842,517.571472L1863.797974,516.647888L1863.370605,515.794617L1862.774658,515.049316L1862.036377,514.444702L1861.188232,514.007446L1860.267578,513.756714L1859.314819,513.703613L1858.371826,513.850464L1857.480347,514.190918z" fill="#000000" stroke="none" fill-opacity="1" />
				<polyline points="1786.839233,551.132812 1724.011597,526.122803 1735.262451,569.506226 1725.746094,609.603760 1783.074463,577.001099" fill="#F92929" stroke="none" fill-opacity="1" />
				<path d="M1786.332275,552.406494L1786.590454,552.481018L1786.858276,552.503662L1787.125244,552.473572L1787.381470,552.392029L1787.616577,552.262024L1787.821899,552.088623L1787.989624,551.878662L1788.112915,551.639893L1788.187378,551.381653L1788.209961,551.113831L1788.179932,550.846802L1788.098389,550.590759L1787.968384,550.355530L1787.795044,550.150146L1787.584961,549.982544L1787.346191,549.859253L1725.774536,521.694092L1724.764038,521.415833L1723.717041,521.365173L1722.684326,521.544556L1721.715820,521.945312L1720.858276,522.548035L1720.153198,523.323669L1719.634766,524.234680L1719.328003,525.236877L1719.247559,526.281982L1719.397461,527.319397L1731.909058,569.540955L1722.475952,608.827698L1722.385864,609.529724L1722.444946,610.235107L1722.650513,610.912415L1722.993164,611.531738L1723.457886,612.065552L1724.024292,612.490112L1724.666870,612.786804L1725.357422,612.942200L1726.065186,612.949524L1726.758789,612.808472L1727.407593,612.525330L1784.484497,579.480652L1784.941162,579.157837L1785.326050,578.752258L1785.624268,578.279358L1785.824707,577.757263L1785.919556,577.206177L1785.904785,576.647156L1785.781372,576.101746L1785.553833,575.591003L1785.231323,575.134338L1784.825562,574.749390L1784.352539,574.451050L1783.830688,574.250610L1783.279419,574.155945L1782.720581,574.170593L1782.175049,574.294067L1781.664185,574.521484L1730.800049,602.863159L1738.429443,570.257812L1738.413208,568.689087L1730.986572,534.029907z" fill="#000000" stroke="none" fill-opacity="1" />
				<polyline points="1799.642822,584.851807 1801.836548,547.553345 1776.806396,546.791199 1777.638672,581.013794 1799.214722,585.453430" fill="#F92929" stroke="none" fill-opacity="1" />
				<path d="M1797.770874,584.741699L1797.785522,585.109009L1797.871338,585.466370L1798.025269,585.800171L1798.241333,586.097473L1798.511230,586.346924L1798.824707,586.538940L1799.169556,586.666077L1799.532715,586.723633L1799.900024,586.709106L1800.257324,586.623230L1800.591187,586.469299L1800.888428,586.253174L1801.138062,585.983215L1801.329956,585.669800L1801.457031,585.324890L1801.514526,584.961853L1804.128052,547.688110L1804.098999,547.165649L1803.952393,546.663391L1803.695923,546.207336L1803.342773,545.821228L1802.911377,545.525085L1802.424072,545.334351L1801.906494,545.258972L1776.837036,545.779602L1776.603516,545.799683L1776.380737,545.872864L1776.180786,545.995544L1776.014526,546.160828L1775.890869,546.359985L1775.816162,546.582275L1775.794678,546.815735L1775.576050,581.063965L1775.638672,581.520691L1775.801147,581.952148L1776.055420,582.336731L1776.388794,582.655334L1776.784424,582.891846L1777.222778,583.034668L1799.023926,586.380493L1799.208374,586.399841L1799.393066,586.382874L1799.571045,586.330261L1799.735229,586.243835L1799.879395,586.127136L1799.998169,585.984375L1800.086670,585.821350L1800.141724,585.644226L1800.161133,585.459656L1800.144165,585.274902L1800.091431,585.096985L1800.005005,584.932800L1799.888306,584.788574L1799.745728,584.669983L1799.582642,584.581360L1799.405396,584.526428L1779.661499,579.323486L1777.844116,547.835327L1799.406372,549.775879z" fill="#000000" stroke="none" fill-opacity="1" />
				<polyline points="1510.298218,371.264038 1601.607422,367.490845" fill="#F92929" stroke="none" fill-opacity="1" />
				<path d="M1510.164062,368.019409L1509.533569,368.107910L1508.932617,368.317749L1508.384155,368.640747L1507.909058,369.064575L1507.526001,369.572998L1507.249268,370.146240L1507.089722,370.762451L1507.053711,371.398071L1507.142090,372.028442L1507.351807,372.629517L1507.674927,373.178101L1508.098755,373.653076L1508.607056,374.036133L1509.180420,374.312866L1509.796631,374.472290L1510.432251,374.508423L1601.607422,367.490845z" fill="#000000" stroke="none" fill-opacity="1" />
				<polyline points="1652.167480,265.617310 1612.172485,353.908325" fill="#F92929" stroke="none" fill-opacity="1" />
				<path d="M1658.375488,268.429321L1658.804932,267.164307L1658.979004,265.839600L1658.891602,264.506470L1658.545776,263.216064L1657.954712,262.017822L1657.141357,260.958130L1656.136719,260.077271L1654.979614,259.409424L1653.714478,258.979980L1652.389893,258.805786L1651.056885,258.893311L1649.766357,259.239136L1648.568115,259.830078L1647.508179,260.643555L1646.627563,261.648193L1645.959473,262.805176L1612.172485,353.908325z" fill="#000000" stroke="none" fill-opacity="1" />
			</g>
		</g>
	</g>
</svg>
