<?xml version="1.0" encoding="UTF-8"?>
<!-- Generator: Blender, SVG Export for Grease Pencil - v2.0 -->
<!DOCTYPE svg PUBLIC "-//W3C//DTD SVG 1.1//EN" "http://www.w3.org/Graphics/SVG/1.1/DTD/svg11.dtd">
<svg version="1.0" x="0px" y="0px" xmlns="http://www.w3.org/2000/svg" width="1475.885742px" height="830.185791px" viewBox="0 0 1475.885742 830.185791">
	<g id="blender_frame_27">
		<g id="blender_object_Stroke.001">
			<!--Layer: Color-->
			<g id="Color" />
			<!--Layer: Lines-->
			<g id="Lines" />
			<!--Layer: buttons-->
			<g id="buttons">
				<polyline points="401.281006,455.681946 409.357849,366.836395 148.206680,412.605347 145.514420,504.143127 355.512207,598.373230 401.504944,462.646698" fill="#F1F288" stroke="none" fill-opacity="1" />
				<path d="M389.943451,454.651245L389.960205,456.882904L390.412048,459.068420L391.281555,461.123779L392.535339,462.970001L394.125214,464.536163L395.990082,465.762054L398.058289,466.600555L400.250305,467.019501L402.481964,467.002747L404.667480,466.550903L406.722809,465.681396L408.569031,464.427612L410.135193,462.837738L411.361115,460.972870L412.199646,458.904694L412.618530,456.712646L423.702637,368.140472L423.623444,364.844849L422.797058,361.653564L421.266663,358.733734L419.112549,356.238281L416.447479,354.298035L413.410980,353.014496L410.162262,352.454926L406.871368,352.648712L146.335922,401.930786L143.971741,402.629822L141.826736,403.845123L140.011917,405.513733L138.621155,407.549377L137.726471,409.846680L137.374191,412.286713L137.075714,503.894928L137.250992,505.872284L137.883224,507.754059L138.937363,509.436157L140.355133,510.825623L142.058182,511.845612L351.164215,608.062988L353.261322,608.752502L355.455688,608.993652L357.652466,608.775879L359.756744,608.108704L361.677704,607.020874L363.332275,605.559448L364.649017,603.787598L365.570923,601.781738L411.941254,466.183167L412.430634,464.079193L412.500183,461.920166L412.147156,459.789062L411.385223,457.767761L410.243500,455.933990L408.765991,454.358154L407.009460,453.100861L405.041443,452.210388L402.937439,451.721008L400.778442,451.651459L398.647278,452.004456L396.626007,452.766449L394.792206,453.908112L393.216400,455.385620L391.959137,457.142151L391.068665,459.110199L349.202515,583.901184L154.118988,498.750824L158.779541,421.754761L393.309418,384.272552z" fill="#000000" stroke="none" fill-opacity="1" />
				<polyline points="1036.659058,590.296387 1038.927490,490.943207 1058.570923,369.528717 1287.041016,436.835938 1284.348877,520.296875 1044.735718,592.988647" fill="#F1F288" stroke="none" fill-opacity="1" />
				<path d="M1027.690552,590.091614L1027.822998,591.845154L1028.294922,593.539246L1029.088257,595.108643L1030.172607,596.493164L1031.506226,597.639587L1033.037720,598.503784L1034.708618,599.052490L1036.454224,599.264771L1038.207764,599.132385L1039.901855,598.660400L1041.471313,597.867065L1042.855835,596.782776L1044.002197,595.449219L1044.866455,593.917603L1045.415161,592.246826L1045.627441,590.501099L1045.602295,491.556396L1070.896851,389.103821L1274.797119,445.688904L1274.329468,512.612793L1042.200439,584.631165L1040.618652,585.286377L1039.195068,586.237610L1037.984497,587.448242L1037.033325,588.871826L1036.378174,590.453613L1036.044312,592.132812L1036.044312,593.844849L1036.378296,595.524048L1037.033447,597.105835L1037.984863,598.529358L1039.195435,599.739990L1040.619019,600.691101L1042.200806,601.346252L1043.879883,601.680237L1045.592041,601.680176L1047.271240,601.346130L1287.327881,530.116760L1289.654297,529.080811L1291.653809,527.503906L1293.203613,525.483215L1294.208008,523.143127L1294.605347,520.627686L1298.986938,437.221283L1298.784424,434.611816L1298.018677,432.108978L1296.726562,429.832855L1294.969971,427.892517L1292.833130,426.381073L1290.418579,425.371002L1062.892944,354.858124L1059.707520,354.276978L1056.471069,354.379517L1053.328857,355.161102L1050.421631,356.586700L1047.879639,358.592346L1045.816895,361.088226L1044.325806,363.962433L1043.473267,367.086090L1032.326294,489.875214z" fill="#000000" stroke="none" fill-opacity="1" />
				<polyline points="763.280396,513.316406 964.266785,426.066772 751.576660,299.529236 501.194550,431.451355 503.886871,514.912292 732.730713,617.219238 966.958984,517.604614 966.958984,431.451324" fill="#8EFE76" stroke="none" fill-opacity="1" />
				<path d="M761.118286,508.335815L760.188171,508.853333L759.376953,509.542358L758.715698,510.376404L758.229797,511.323425L757.938049,512.347046L757.851562,513.407959L757.973755,514.465332L758.299866,515.478516L758.817383,516.408691L759.506348,517.219971L760.340454,517.881226L761.287476,518.367065L762.311096,518.658813L763.372009,518.745239L764.429321,518.623108L765.442505,518.296997L969.792297,438.795319L972.431702,437.286499L974.679016,435.239075L976.426636,432.751404L977.590576,429.942841L978.114868,426.948242L977.974487,423.911285L977.176086,420.977814L975.757996,418.288666L973.788269,415.972839L971.361511,414.141541L756.051331,292.008057L754.006042,291.121582L751.803223,290.780579L749.585571,291.007141L747.497192,291.786560L495.150696,419.980408L492.757385,421.606323L490.784149,423.722534L489.329407,426.223663L488.465546,428.985107L488.235565,431.869385L491.341339,515.317017L491.743500,518.089111L492.750397,520.703003L494.311920,523.028564L496.350250,524.949890L498.763947,526.371338L728.284485,627.164673L731.143311,627.997070L734.120728,628.024292L736.994263,627.244385L971.541260,528.379028L973.912109,527.024719L975.904968,525.158081L977.411194,522.880737L978.348938,520.316406L978.667419,517.604614L980.705505,431.451355L980.441345,428.769562L979.659119,426.190826L978.388733,423.814270L976.679199,421.731171L974.596191,420.021606L972.219604,418.751312L969.640869,417.969055L966.958984,417.704956L964.277344,417.969055L961.698486,418.751312L959.322021,420.021606L957.238892,421.731171L955.529358,423.814270L954.258972,426.190826L953.476746,428.769562L953.212708,431.451324L955.250671,509.860809L732.839417,605.334656L516.179138,506.658447L514.415161,439.141022L751.316956,309.558105L933.876099,424.132385z" fill="#000000" stroke="none" fill-opacity="1" />
				<polyline points="964.266785,426.066772 764.838440,366.861694" fill="#1D1023" stroke="none" fill-opacity="1" />
				<path d="M960.317627,439.369110L962.988770,439.883942L965.708862,439.867798L968.373535,439.321259L970.880493,438.265381L973.133240,436.740723L975.045227,434.805847L976.543091,432.535156L977.569092,430.015900L978.083923,427.344879L978.067810,424.624725L977.521240,421.959991L976.465332,419.453064L974.940735,417.200317L973.005859,415.288300L970.735168,413.790497L968.215881,412.764465L765.098022,365.987061L764.922485,365.953217L764.743591,365.954254L764.568359,365.990204L764.403503,366.059662L764.255493,366.159882L764.129761,366.287079L764.031250,366.436371L763.963745,366.602051L763.929993,366.777679L763.931030,366.956482L763.966919,367.131714L764.036316,367.296539L764.136597,367.444641L764.263855,367.570374L764.413086,367.668854L764.578735,367.736298z" fill="#000000" stroke="none" fill-opacity="1" />
				<polyline points="720.466309,519.768555 728.581116,608.129761 506.325623,512.104492 505.123474,445.983826" fill="#519C9A" stroke="none" fill-opacity="1" />
				<path d="M726.400879,519.223572L726.180481,518.076294L725.740540,516.994019L725.097900,516.018311L724.277283,515.186829L723.310242,514.531372L722.233826,514.077209L721.089539,513.841736L719.921326,513.833984L718.774048,514.054382L717.691711,514.494324L716.716125,515.136963L715.884583,515.957581L715.229126,516.924683L714.774902,518.001099L714.539490,519.145386L714.531799,520.313599L726.101440,604.709351L514.737549,506.465240L513.635071,445.829071L513.441345,444.171478L512.927979,442.583588L512.114563,441.126343L511.032654,439.855774L509.723572,438.820679L508.237732,438.060852L506.632233,437.605560L504.968689,437.472198L503.311127,437.665924L501.723175,438.179291L500.265961,438.992645L498.995361,440.074615L497.960266,441.383667L497.200470,442.869537L496.745148,444.475067L496.611786,446.138580L497.813965,512.259277L498.071198,514.187012L498.759308,516.006104L499.842255,517.621582L501.263611,518.949097L502.949219,519.919312L727.725830,610.109314L728.150940,610.242859L728.594482,610.286133L729.037415,610.237366L729.460876,610.098511L729.846802,609.875671L730.178650,609.578247L730.442200,609.218933L730.626404,608.813110L730.723145,608.378174L730.728455,607.932495z" fill="#000000" stroke="none" fill-opacity="1" />
				<polyline points="547.805847,413.135345 751.576660,299.529236 748.460632,340.037994" fill="#519C9A" stroke="none" fill-opacity="1" />
				<path d="M543.544189,405.491425L542.134827,406.469696L540.943420,407.704163L540.015747,409.147339L539.387390,410.743683L539.082581,412.432007L539.112976,414.147369L539.477478,415.823822L540.161926,417.396973L541.140259,418.806305L542.374634,419.997742L543.817810,420.925476L545.414246,421.553802L547.102600,421.858612L548.817871,421.828217L550.494324,421.463745L552.067505,420.779236L741.600647,315.110901L747.017456,339.927002L747.023560,340.210663L747.084778,340.487671L747.198975,340.747467L747.361633,340.979950L747.566467,341.176239L747.805786,341.328796L748.070190,341.431763L748.349609,341.481140L748.633301,341.475067L748.910339,341.413757L749.170105,341.299591L749.402588,341.136932L749.598877,340.932098L749.751404,340.692841L749.854431,340.428406L749.903748,340.149017L760.302490,300.200439L760.244080,298.318054L759.784241,296.491699L758.944275,294.806030L757.763123,293.339111L756.295532,292.158813L754.609314,291.319885L752.782715,290.861145L750.900269,290.803772L749.049133,291.150574L747.315063,291.885376z" fill="#000000" stroke="none" fill-opacity="1" />
				<path d="M1290.186401,448.366791L1292.375488,447.531616L1294.359619,446.285400L1296.062500,444.676056L1297.418701,442.765411L1298.375977,440.626892L1298.897705,438.342712L1298.963989,436.000610L1298.571777,433.690613L1297.736694,431.501495L1296.490479,429.517365L1294.881104,427.814484L1292.970459,426.458313L1290.832031,425.500946L1288.547729,424.979156L1286.205811,424.913025L1283.895630,425.305084L1076.706543,494.210022z" fill="#000000" stroke="none" fill-opacity="1" />
				<path d="M152.763290,402.772583L150.757492,402.072540L148.653656,401.777283L146.532623,401.898163L144.475891,402.430511L142.562592,403.353851L140.866196,404.632751L139.451904,406.217987L138.373962,408.048706L137.673950,410.054535L137.378723,412.158356L137.499588,414.279388L138.031891,416.336090L138.955231,418.249451L140.234131,419.945862L141.819336,421.360168L143.650070,422.438080L339.525879,502.101501L339.666321,502.150513L339.813629,502.171204L339.962158,502.162750L340.106171,502.125458L340.240143,502.060791L340.358948,501.971252L340.458008,501.860260L340.533447,501.732056L340.582489,501.591614L340.603149,501.444305L340.594727,501.295776L340.557404,501.151764L340.492767,501.017761L340.403259,500.898987L340.292175,500.799957L340.164062,500.724457z" fill="#000000" stroke="none" fill-opacity="1" />
				<polyline points="739.242004,359.837280 501.194550,431.451355 720.015442,515.109985 731.783691,408.080902" fill="#519C9A" stroke="none" fill-opacity="1" />
				<path d="M739.425598,360.447601L739.541199,360.400055L739.645142,360.330872L739.733765,360.242737L739.803345,360.139038L739.851440,360.023743L739.876099,359.901215L739.876343,359.776337L739.852356,359.653717L739.804749,359.538177L739.735596,359.434143L739.647461,359.345612L739.543762,359.275940L739.428406,359.227844L739.305969,359.203217L739.181030,359.202911L739.058411,359.227020L497.459381,419.035278L494.987061,420.068115L492.779907,421.587067L490.932037,423.527222L489.522430,425.805786L488.611298,428.325439L488.237427,430.978577L488.416931,433.651886L489.142029,436.231232L490.381866,438.606476L492.083374,440.676178L494.173981,442.351929L496.564423,443.562195L716.975403,523.061768L718.854004,523.543457L720.792847,523.587524L722.691345,523.191528L724.450989,522.376221L725.980469,521.183716L727.200317,519.676147L728.047363,517.931519L728.477539,516.040405L731.910034,408.094818L731.910278,408.069885L731.905762,408.045380L731.896423,408.022217L731.882812,408.001404L731.865417,407.983521L731.844849,407.969482L731.821960,407.959686L731.797546,407.954529L731.772644,407.954254L731.748108,407.958832L731.724976,407.968109L731.704102,407.981689L731.686279,407.999115L731.672241,408.019714L731.662415,408.042603L731.657288,408.067017L712.758301,503.221436L541.333069,432.915894z" fill="#000000" stroke="none" fill-opacity="1" />
			</g>
			<!--Layer: LOGOS-->
			<g id="LOGOS" />
		</g>
	</g>
</svg>
