<?xml version="1.0" encoding="UTF-8"?>
<!-- Generator: Blender, SVG Export for Grease Pencil - v2.0 -->
<!DOCTYPE svg PUBLIC "-//W3C//DTD SVG 1.1//EN" "http://www.w3.org/Graphics/SVG/1.1/DTD/svg11.dtd">
<svg version="1.0" x="0px" y="0px" xmlns="http://www.w3.org/2000/svg" width="1475.885742px" height="830.185791px" viewBox="0 0 1475.885742 830.185791">
	<g id="blender_frame_28">
		<g id="blender_object_Stroke.001">
			<!--Layer: Color-->
			<g id="Color" />
			<!--Layer: Lines-->
			<g id="Lines" />
			<!--Layer: buttons-->
			<g id="buttons">
				<polyline points="401.281006,455.681946 409.357849,424.836334 148.206680,470.605225 145.514420,504.143127 355.512207,598.373230 401.504944,462.646698" fill="#F1F288" stroke="none" fill-opacity="1" />
				<path d="M390.268005,452.798218L389.909088,455.150970L390.047211,457.526947L390.676270,459.822235L391.768860,461.936615L393.277100,463.777618L395.135193,465.264832L397.261871,466.333191L399.564301,466.936066L401.941681,467.047058L404.290100,466.661346L406.507111,465.795807L408.495667,464.488220L410.168945,462.795776L411.453827,460.792419L412.294037,458.565674L423.292023,428.484955L423.753571,425.323547L423.506805,422.138184L422.563995,419.085541L420.971436,416.315857L418.807465,413.965363L416.178680,412.149689L413.214172,410.958191L410.060028,410.449524L406.871368,410.648621L146.335922,459.930695L144.056137,460.594299L141.975662,461.738434L140.194275,463.308228L138.797501,465.228241L137.852310,467.406372L137.404190,469.738068L137.099106,503.467590L137.187698,505.535828L137.776917,507.520264L138.831406,509.301697L140.287659,510.772949L142.058182,511.845612L351.164215,608.062988L353.261322,608.752502L355.455688,608.993652L357.652466,608.775879L359.756744,608.108704L361.677704,607.020874L363.332275,605.559448L364.649017,603.787598L365.570923,601.781738L411.941254,466.183167L412.430634,464.079193L412.500183,461.920166L412.147156,459.789062L411.385223,457.767761L410.243500,455.933990L408.765991,454.358154L407.009460,453.100861L405.041443,452.210388L402.937439,451.721008L400.778442,451.651459L398.647278,452.004456L396.626007,452.766449L394.792206,453.908112L393.216400,455.385620L391.959137,457.142151L391.068665,459.110199L349.202515,583.901184L154.406479,498.879822L158.338104,479.832031L389.738861,442.898193z" fill="#000000" stroke="none" fill-opacity="1" />
				<polyline points="1036.659058,590.296387 1038.927490,548.943115 1058.570923,427.528656 1287.041016,494.835846 1284.348877,520.296875 1044.735718,592.988647" fill="#F1F288" stroke="none" fill-opacity="1" />
				<path d="M1027.701660,589.804993L1027.795288,591.678101L1028.276245,593.490723L1029.123657,595.163818L1030.300171,596.624146L1031.754761,597.807922L1033.423706,598.663391L1035.234009,599.153198L1037.106567,599.255920L1038.959717,598.967102L1040.712158,598.299316L1042.287354,597.281738L1043.616821,595.958862L1044.641968,594.388489L1045.318359,592.639343L1045.616211,590.787720L1045.585083,549.662231L1070.896851,447.103760L1274.107666,503.485687L1274.859253,512.452148L1042.200439,584.631165L1040.618652,585.286377L1039.195068,586.237610L1037.984497,587.448242L1037.033325,588.871826L1036.378174,590.453613L1036.044312,592.132812L1036.044312,593.844849L1036.378296,595.524048L1037.033447,597.105835L1037.984863,598.529358L1039.195435,599.739990L1040.619019,600.691101L1042.200806,601.346252L1043.879883,601.680237L1045.592041,601.680176L1047.271240,601.346130L1287.327881,530.116760L1289.525269,529.157471L1291.439941,527.714417L1292.967651,525.866455L1294.024902,523.714478L1294.553711,521.375977L1298.926880,496.092651L1298.898071,493.330750L1298.235962,490.649261L1296.976074,488.191345L1295.185547,486.088257L1292.960083,484.452332L1290.418579,483.370880L1062.892944,412.858002L1059.707520,412.276917L1056.471069,412.379456L1053.328857,413.161041L1050.421631,414.586578L1047.879639,416.592255L1045.816895,419.088135L1044.325806,421.962311L1043.473267,425.086029L1032.326294,547.875122z" fill="#000000" stroke="none" fill-opacity="1" />
				<polyline points="763.280396,581.316467 964.266785,484.066711 751.576660,357.529144 501.194550,489.451233 503.886871,514.912292 732.730713,617.219238 966.958984,517.604614 966.958984,489.451233" fill="#8EFE76" stroke="none" fill-opacity="1" />
				<path d="M760.915527,576.428955L760.007446,576.984131L759.225220,577.705933L758.598694,578.566467L758.152161,579.532715L757.902771,580.567444L757.859924,581.630981L758.025452,582.682434L758.392883,583.681396L758.948181,584.589478L759.669983,585.371765L760.530457,585.998169L761.496643,586.444763L762.531433,586.694214L763.594910,586.737000L764.646423,586.571472L765.645386,586.204041L970.310669,496.557465L972.841003,494.976807L974.974976,492.891785L976.613831,490.398773L977.682068,487.613068L978.130066,484.663422L977.937195,481.686188L977.112366,478.819000L975.693665,476.194366L973.746765,473.933685L971.361511,472.141479L756.051331,350.007935L754.006042,349.121521L751.803223,348.780487L749.585571,349.007050L747.497192,349.786499L495.150696,477.980316L492.614319,479.730652L490.562653,482.030151L489.111572,484.748840L488.343170,487.733246L488.300690,490.814697L491.404419,516.232178L492.168976,519.411621L493.728760,522.285645L495.977966,524.659241L498.763947,526.371338L728.284485,627.164673L731.143311,627.997070L734.120728,628.024292L736.994263,627.244385L971.541260,528.379028L973.912109,527.024719L975.904968,525.158081L977.411194,522.880737L978.348938,520.316406L978.667419,517.604614L980.705505,489.451233L980.441345,486.769470L979.659119,484.190735L978.388733,481.814178L976.679199,479.731079L974.596191,478.021515L972.219604,476.751221L969.640869,475.968964L966.959106,475.704865L964.277344,475.968964L961.698486,476.751221L959.322021,478.021515L957.238892,479.731049L955.529358,481.814148L954.258972,484.190704L953.476746,486.769470L953.212708,489.451233L955.250671,509.860809L732.839417,605.334656L515.609192,506.403595L515.012512,496.826233L751.316956,367.558014L935.010864,482.807404z" fill="#000000" stroke="none" fill-opacity="1" />
				<polyline points="964.266785,484.066711 764.838440,424.861603" fill="#1D1023" stroke="none" fill-opacity="1" />
				<path d="M960.317627,497.368988L962.988770,497.883850L965.708862,497.867706L968.373535,497.321167L970.880493,496.265289L973.133240,494.740631L975.045227,492.805786L976.543091,490.535065L977.569092,488.015778L978.083923,485.344788L978.067810,482.624634L977.521240,479.959900L976.465332,477.452972L974.940735,475.200226L973.005859,473.288208L970.735168,471.790405L968.215881,470.764374L765.098022,423.986969L764.910583,423.952087L764.719849,423.956970L764.534424,424.001373L764.362183,424.083405L764.210754,424.199402L764.086853,424.344360L763.995728,424.511932L763.941406,424.694794L763.926392,424.884918L763.951111,425.074036L764.014709,425.253876L764.114258,425.416534L764.245422,425.554993L764.402527,425.663116L764.578735,425.736206z" fill="#000000" stroke="none" fill-opacity="1" />
				<polyline points="720.466309,587.768677 728.581116,608.129761 506.325623,512.104492 505.123474,503.983734" fill="#519C9A" stroke="none" fill-opacity="1" />
				<path d="M726.002380,585.562256L725.465576,584.524658L724.736633,583.611694L723.843567,582.858459L722.820740,582.293945L721.707458,581.939819L720.546448,581.809692L719.382385,581.908508L718.259949,582.232605L717.222351,582.769409L716.309326,583.498352L715.556152,584.391357L714.991577,585.414185L714.637451,586.527466L714.507324,587.688477L714.606201,588.852600L714.930237,589.975037L724.645874,604.080444L513.077026,506.918884L513.544739,502.737061L513.139709,501.118134L512.426636,499.609283L511.432831,498.268555L510.196686,497.147461L508.765503,496.289093L507.194366,495.726410L505.543610,495.481049L503.876770,495.562469L502.257812,495.967468L500.748993,496.680542L499.408264,497.674316L498.287170,498.910522L497.428802,500.341675L496.866119,501.912811L496.620758,503.563538L496.702179,505.230408L497.904327,513.351135L498.487793,515.427246L499.574158,517.290100L501.093842,518.820190L502.949219,519.919373L727.725830,610.109314L728.166443,610.245972L728.626099,610.285767L729.083679,610.226807L729.518250,610.071899L729.909912,609.828125L730.240784,609.506592L730.495667,609.122009L730.662903,608.692078L730.734924,608.236328L730.708313,607.775757L730.584290,607.331421z" fill="#000000" stroke="none" fill-opacity="1" />
				<polyline points="547.805847,471.135254 751.576660,357.529144 748.460632,398.037903" fill="#519C9A" stroke="none" fill-opacity="1" />
				<path d="M543.544189,463.491364L542.134827,464.469635L540.943420,465.704071L540.015747,467.147217L539.387390,468.743622L539.082581,470.431946L539.112976,472.147278L539.477478,473.823730L540.161926,475.396881L541.140259,476.806213L542.374634,477.997681L543.817810,478.925385L545.414246,479.553711L547.102600,479.858521L548.817871,479.828156L550.494324,479.463654L552.067505,478.779144L741.600647,373.110779L747.017456,397.926880L747.023560,398.210571L747.084778,398.487610L747.198975,398.747345L747.361633,398.979858L747.566467,399.176178L747.805786,399.328735L748.070190,399.431641L748.349609,399.481018L748.633301,399.475006L748.910339,399.413696L749.170105,399.299530L749.402588,399.136871L749.598877,398.931976L749.751404,398.692719L749.854431,398.428345L749.903748,398.148895L760.302490,358.200378L760.244080,356.317963L759.784241,354.491608L758.944275,352.805908L757.763123,351.338989L756.295532,350.158722L754.609314,349.319794L752.782715,348.861023L750.900269,348.803741L749.049133,349.150452L747.315063,349.885223z" fill="#000000" stroke="none" fill-opacity="1" />
				<path d="M1290.186401,506.366699L1292.375488,505.531494L1294.359619,504.285309L1296.062500,502.675934L1297.418701,500.765320L1298.375977,498.626801L1298.897705,496.342590L1298.963989,494.000488L1298.571777,491.690521L1297.736694,489.501404L1296.490479,487.517273L1294.881104,485.814392L1292.970459,484.458221L1290.832031,483.500854L1288.547729,482.979065L1286.205811,482.912933L1283.895630,483.305023L1076.706543,552.209900z" fill="#000000" stroke="none" fill-opacity="1" />
				<path d="M152.763290,460.772491L150.757492,460.072449L148.653656,459.777222L146.532623,459.898071L144.475891,460.430420L142.562592,461.353729L140.866196,462.632629L139.451904,464.217896L138.373962,466.048615L137.673950,468.054413L137.378723,470.158295L137.499588,472.279327L138.031891,474.335999L138.955231,476.249329L140.234131,477.945770L141.819336,479.360077L143.650070,480.437988L339.525879,560.101379L339.666321,560.150391L339.813629,560.171143L339.962158,560.162598L340.106171,560.125366L340.240143,560.060669L340.358948,559.971191L340.458008,559.860107L340.533447,559.731934L340.582489,559.591553L340.603149,559.444214L340.594727,559.295715L340.557404,559.151611L340.492767,559.017700L340.403259,558.898926L340.292175,558.799866L340.164062,558.724365z" fill="#000000" stroke="none" fill-opacity="1" />
				<polyline points="739.242004,427.837372 501.194550,489.451233 720.015442,583.110046 731.783691,476.080963" fill="#519C9A" stroke="none" fill-opacity="1" />
				<path d="M739.401672,428.454346L739.519043,428.411316L739.625671,428.346283L739.717590,428.261627L739.791199,428.160706L739.843689,428.047363L739.873108,427.925934L739.878296,427.801117L739.859009,427.677704L739.815979,427.560394L739.750916,427.453735L739.666260,427.361816L739.565369,427.288177L739.451965,427.235657L739.330566,427.206268L739.205750,427.201111L739.082336,427.220398L497.945709,476.899139L495.435364,477.834778L493.170929,479.266327L491.249054,481.132751L489.751770,483.354279L488.742981,485.836121L488.265839,488.472290L488.340607,491.150269L488.964172,493.755707L490.109863,496.177368L491.728851,498.311890L493.751892,500.068085L496.092682,501.371094L716.665649,590.936401L718.348206,591.458252L720.102112,591.622681L721.852295,591.422607L723.523865,590.866577L725.045227,589.978394L726.351135,588.796143L727.385742,587.370361L728.104858,585.762207L728.477539,584.040466L731.910034,476.094849L731.910278,476.069946L731.905762,476.045441L731.896423,476.022308L731.882812,476.001434L731.865417,475.983612L731.844849,475.969513L731.821960,475.959747L731.797546,475.954590L731.772644,475.954315L731.748108,475.958893L731.724976,475.968170L731.704102,475.981781L731.686279,475.999207L731.672241,476.019775L731.662415,476.042694L731.657288,476.067078L712.808472,570.765259L541.227600,492.482544z" fill="#000000" stroke="none" fill-opacity="1" />
			</g>
			<!--Layer: LOGOS-->
			<g id="LOGOS" />
		</g>
	</g>
</svg>
