<?xml version="1.0" encoding="UTF-8" standalone="no" ?>
<!DOCTYPE svg PUBLIC "-//W3C//DTD SVG 1.1//EN" "http://www.w3.org/Graphics/SVG/1.1/DTD/svg11.dtd">
<svg xmlns="http://www.w3.org/2000/svg" xmlns:xlink="http://www.w3.org/1999/xlink" version="1.1" width="605" height="146" viewBox="0 0 605 146" xml:space="preserve">
<desc>Created with Fabric.js 3.6.6</desc>
<defs>
</defs>
<g transform="matrix(0.52 0 0 0.52 310.69 72.33)"  >
<linearGradient id="SVGID_1355" gradientUnits="userSpaceOnUse" gradientTransform="matrix(1 0 0 1 -232.88 -129.85)"  x1="172.33284058" y1="5.193801880000001" x2="293.43159342" y2="254.49629212000005">
<stop offset="37.559%" style="stop-color:rgba(83, 254, 69, 1);"/>
<stop offset="100%" style="stop-color:rgba(0, 255, 157, 1);"/>
</linearGradient>
<polyline style="stroke: none; stroke-width: 1; stroke-dasharray: ; stroke-linecap: butt; stroke-dashoffset: 0; stroke-linejoin: miter; stroke-miterlimit: 4; fill: url(#SVGID_1355); fill-rule: nonzero; opacity: 1;"  points="29.2,93.94 230.19,-3.31 17.5,-129.85 -232.88,2.08 -230.19,27.54 -1.35,129.85 232.88,30.23 232.88,2.08 " />
</g>
<g transform="matrix(0.52 0 0 0.52 310.92 72.86)"  >
<path style="stroke: none; stroke-width: 1; stroke-dasharray: ; stroke-linecap: butt; stroke-dashoffset: 0; stroke-linejoin: miter; stroke-miterlimit: 4; fill: rgb(0,0,0); fill-rule: nonzero; opacity: 1;"  transform=" translate(-734.5, -488.4)" d="M 760.915527 576.428955 L 760.007446 576.984131 L 759.22522 577.705933 L 758.598694 578.566467 L 758.152161 579.532715 L 757.902771 580.567444 L 757.859924 581.630981 L 758.025452 582.682434 L 758.392883 583.681396 L 758.948181 584.589478 L 759.669983 585.371765 L 760.530457 585.998169 L 761.496643 586.444763 L 762.531433 586.694214 L 763.59491 586.737 L 764.646423 586.571472 L 765.645386 586.204041 L 970.310669 496.557465 L 972.841003 494.976807 L 974.974976 492.891785 L 976.613831 490.398773 L 977.682068 487.613068 L 978.130066 484.663422 L 977.937195 481.686188 L 977.112366 478.819 L 975.693665 476.194366 L 973.746765 473.933685 L 971.361511 472.141479 L 756.051331 350.007935 L 754.006042 349.121521 L 751.803223 348.780487 L 749.585571 349.00705 L 747.497192 349.786499 L 495.150696 477.980316 L 492.614319 479.730652 L 490.562653 482.030151 L 489.111572 484.74884 L 488.34317 487.733246 L 488.30069 490.814697 L 491.404419 516.232178 L 492.168976 519.411621 L 493.72876 522.285645 L 495.977966 524.659241 L 498.763947 526.371338 L 728.284485 627.164673 L 731.143311 627.99707 L 734.120728 628.024292 L 736.994263 627.244385 L 971.54126 528.379028 L 973.912109 527.024719 L 975.904968 525.158081 L 977.411194 522.880737 L 978.348938 520.316406 L 978.667419 517.604614 L 980.705505 489.451233 L 980.441345 486.76947 L 979.659119 484.190735 L 978.388733 481.814178 L 976.679199 479.731079 L 974.596191 478.021515 L 972.219604 476.751221 L 969.640869 475.968964 L 966.959106 475.704865 L 964.277344 475.968964 L 961.698486 476.751221 L 959.322021 478.021515 L 957.238892 479.731049 L 955.529358 481.814148 L 954.258972 484.190704 L 953.476746 486.76947 L 953.212708 489.451233 L 955.250671 509.860809 L 732.839417 605.334656 L 515.609192 506.403595 L 515.012512 496.826233 L 751.316956 367.558014 L 935.010864 482.807404 z" stroke-linecap="round" />
</g>
<g transform="matrix(0.52 0 0 0.52 378.54 55.21)"  >
<polyline style="stroke: none; stroke-width: 1; stroke-dasharray: ; stroke-linecap: butt; stroke-dashoffset: 0; stroke-linejoin: miter; stroke-miterlimit: 4; fill: rgb(29,16,35); fill-rule: nonzero; opacity: 1;"  points="99.71,29.6 -99.71,-29.6 " />
</g>
<g transform="matrix(0.52 0 0 0.52 381.89 58.57)"  >
<path style="stroke: none; stroke-width: 1; stroke-dasharray: ; stroke-linecap: butt; stroke-dashoffset: 0; stroke-linejoin: miter; stroke-miterlimit: 4; fill: rgb(0,0,0); fill-rule: nonzero; opacity: 1;"  transform=" translate(-871.01, -460.92)" d="M 960.317627 497.368988 L 962.98877 497.88385 L 965.708862 497.867706 L 968.373535 497.321167 L 970.880493 496.265289 L 973.13324 494.740631 L 975.045227 492.805786 L 976.543091 490.535065 L 977.569092 488.015778 L 978.083923 485.344788 L 978.06781 482.624634 L 977.52124 479.9599 L 976.465332 477.452972 L 974.940735 475.200226 L 973.005859 473.288208 L 970.735168 471.790405 L 968.215881 470.764374 L 765.098022 423.986969 L 764.910583 423.952087 L 764.719849 423.95697 L 764.534424 424.001373 L 764.362183 424.083405 L 764.210754 424.199402 L 764.086853 424.34436 L 763.995728 424.511932 L 763.941406 424.694794 L 763.926392 424.884918 L 763.951111 425.074036 L 764.014709 425.253876 L 764.114258 425.416534 L 764.245422 425.554993 L 764.402527 425.663116 L 764.578735 425.736206 z" stroke-linecap="round" />
</g>
<g transform="matrix(0.52 0 0 0.52 249.74 108.04)"  >
<polyline style="stroke: none; stroke-width: 1; stroke-dasharray: ; stroke-linecap: butt; stroke-dashoffset: 0; stroke-linejoin: miter; stroke-miterlimit: 4; fill: rgb(81,156,154); fill-rule: nonzero; opacity: 1;"  points="103.61,31.71 111.73,52.07 -110.53,-43.95 -111.73,-52.07 " />
</g>
<g transform="matrix(0.52 0 0 0.52 248.08 106.39)"  >
<path style="stroke: none; stroke-width: 1; stroke-dasharray: ; stroke-linecap: butt; stroke-dashoffset: 0; stroke-linejoin: miter; stroke-miterlimit: 4; fill: rgb(0,0,0); fill-rule: nonzero; opacity: 1;"  transform=" translate(-613.68, -552.88)" d="M 726.00238 585.562256 L 725.465576 584.524658 L 724.736633 583.611694 L 723.843567 582.858459 L 722.82074 582.293945 L 721.707458 581.939819 L 720.546448 581.809692 L 719.382385 581.908508 L 718.259949 582.232605 L 717.222351 582.769409 L 716.309326 583.498352 L 715.556152 584.391357 L 714.991577 585.414185 L 714.637451 586.527466 L 714.507324 587.688477 L 714.606201 588.8526 L 714.930237 589.975037 L 724.645874 604.080444 L 513.077026 506.918884 L 513.544739 502.737061 L 513.139709 501.118134 L 512.426636 499.609283 L 511.432831 498.268555 L 510.196686 497.147461 L 508.765503 496.289093 L 507.194366 495.72641 L 505.54361 495.481049 L 503.87677 495.562469 L 502.257812 495.967468 L 500.748993 496.680542 L 499.408264 497.674316 L 498.28717 498.910522 L 497.428802 500.341675 L 496.866119 501.912811 L 496.620758 503.563538 L 496.702179 505.230408 L 497.904327 513.351135 L 498.487793 515.427246 L 499.574158 517.2901 L 501.093842 518.82019 L 502.949219 519.919373 L 727.72583 610.109314 L 728.166443 610.245972 L 728.626099 610.285767 L 729.083679 610.226807 L 729.51825 610.071899 L 729.909912 609.828125 L 730.240784 609.506592 L 730.495667 609.122009 L 730.662903 608.692078 L 730.734924 608.236328 L 730.708313 607.775757 L 730.58429 607.331421 z" stroke-linecap="round" />
</g>
<g transform="matrix(0.52 0 0 0.52 266.81 34.35)"  >
<polyline style="stroke: none; stroke-width: 1; stroke-dasharray: ; stroke-linecap: butt; stroke-dashoffset: 0; stroke-linejoin: miter; stroke-miterlimit: 4; fill: rgb(81,156,154); fill-opacity: 0.51; fill-rule: nonzero; opacity: 1;"  points="-101.89,56.8 101.89,-56.8 98.77,-16.29 " />
</g>
<g transform="matrix(0.52 0 0 0.52 266.81 34.34)"  >
<path style="stroke: none; stroke-width: 1; stroke-dasharray: ; stroke-linecap: butt; stroke-dashoffset: 0; stroke-linejoin: miter; stroke-miterlimit: 4; fill: rgb(0,0,0); fill-rule: nonzero; opacity: 1;"  transform=" translate(-649.69, -414.33)" d="M 543.544189 463.491364 L 542.134827 464.469635 L 540.94342 465.704071 L 540.015747 467.147217 L 539.38739 468.743622 L 539.082581 470.431946 L 539.112976 472.147278 L 539.477478 473.82373 L 540.161926 475.396881 L 541.140259 476.806213 L 542.374634 477.997681 L 543.81781 478.925385 L 545.414246 479.553711 L 547.1026 479.858521 L 548.817871 479.828156 L 550.494324 479.463654 L 552.067505 478.779144 L 741.600647 373.110779 L 747.017456 397.92688 L 747.02356 398.210571 L 747.084778 398.48761 L 747.198975 398.747345 L 747.361633 398.979858 L 747.566467 399.176178 L 747.805786 399.328735 L 748.07019 399.431641 L 748.349609 399.481018 L 748.633301 399.475006 L 748.910339 399.413696 L 749.170105 399.29953 L 749.402588 399.136871 L 749.598877 398.931976 L 749.751404 398.692719 L 749.854431 398.428345 L 749.903748 398.148895 L 760.30249 358.200378 L 760.24408 356.317963 L 759.784241 354.491608 L 758.944275 352.805908 L 757.763123 351.338989 L 756.295532 350.158722 L 754.609314 349.319794 L 752.782715 348.861023 L 750.900269 348.803741 L 749.049133 349.150452 L 747.315063 349.885223 z" stroke-linecap="round" />
</g>
<g transform="matrix(0.52 0 0 0.52 251.48 81.74)"  >
<linearGradient id="SVGID_1358" gradientUnits="userSpaceOnUse" gradientTransform="matrix(1 0 0 1 -119.02 -77.64)"  x1="154.73084509999998" y1="3.10545348" x2="83.31660889999998" y2="152.16722052">
<stop offset="17.84%" style="stop-color:rgba(107, 168, 174, 0.63);"/>
<stop offset="100%" style="stop-color:rgba(84, 181, 187, 1);"/>
</linearGradient>
<polyline style="stroke: none; stroke-width: 1; stroke-dasharray: ; stroke-linecap: butt; stroke-dashoffset: 0; stroke-linejoin: miter; stroke-miterlimit: 4; fill: url(#SVGID_1358); fill-rule: nonzero; opacity: 1;"  points="119.02,-77.64 -119.02,-16.02 99.8,77.64 111.57,-29.39 " />
</g>
<g transform="matrix(0.52 0 0 0.52 248.29 83.79)"  >
<path style="stroke: none; stroke-width: 1; stroke-dasharray: ; stroke-linecap: butt; stroke-dashoffset: 0; stroke-linejoin: miter; stroke-miterlimit: 4; fill: rgb(0,0,0); fill-rule: nonzero; opacity: 1;"  transform=" translate(-614.07, -509.41)" d="M 739.401672 428.454346 L 739.519043 428.411316 L 739.625671 428.346283 L 739.71759 428.261627 L 739.791199 428.160706 L 739.843689 428.047363 L 739.873108 427.925934 L 739.878296 427.801117 L 739.859009 427.677704 L 739.815979 427.560394 L 739.750916 427.453735 L 739.66626 427.361816 L 739.565369 427.288177 L 739.451965 427.235657 L 739.330566 427.206268 L 739.20575 427.201111 L 739.082336 427.220398 L 497.945709 476.899139 L 495.435364 477.834778 L 493.170929 479.266327 L 491.249054 481.132751 L 489.75177 483.354279 L 488.742981 485.836121 L 488.265839 488.47229 L 488.340607 491.150269 L 488.964172 493.755707 L 490.109863 496.177368 L 491.728851 498.31189 L 493.751892 500.068085 L 496.092682 501.371094 L 716.665649 590.936401 L 718.348206 591.458252 L 720.102112 591.622681 L 721.852295 591.422607 L 723.523865 590.866577 L 725.045227 589.978394 L 726.351135 588.796143 L 727.385742 587.370361 L 728.104858 585.762207 L 728.477539 584.040466 L 731.910034 476.094849 L 731.910278 476.069946 L 731.905762 476.045441 L 731.896423 476.022308 L 731.882812 476.001434 L 731.865417 475.983612 L 731.844849 475.969513 L 731.82196 475.959747 L 731.797546 475.95459 L 731.772644 475.954315 L 731.748108 475.958893 L 731.724976 475.96817 L 731.704102 475.981781 L 731.686279 475.999207 L 731.672241 476.019775 L 731.662415 476.042694 L 731.657288 476.067078 L 712.808472 570.765259 L 541.2276 492.482544 z" stroke-linecap="round" />
</g>
</svg>