<?xml version="1.0" encoding="UTF-8" standalone="no" ?>
<!DOCTYPE svg PUBLIC "-//W3C//DTD SVG 1.1//EN" "http://www.w3.org/Graphics/SVG/1.1/DTD/svg11.dtd">
<svg xmlns="http://www.w3.org/2000/svg" xmlns:xlink="http://www.w3.org/1999/xlink" version="1.1" width="581" height="169" viewBox="0 0 581 169" xml:space="preserve">
<desc>Created with Fabric.js 3.6.6</desc>
<defs>
</defs>
<g transform="matrix(0.5 0 0 0.5 298.75 84.05)"  >
<linearGradient id="SVGID_2895" gradientUnits="userSpaceOnUse" gradientTransform="matrix(1 0 0 1 -232.88 -158.85)"  x1="158.35990756" y1="9.53070006" x2="307.40452644" y2="308.15930194">
<stop offset="38.498%" style="stop-color:rgba(112, 252, 114, 1);"/>
<stop offset="84.977%" style="stop-color:rgba(0, 255, 182, 1);"/>
</linearGradient>
<polyline style="stroke: none; stroke-width: 1; stroke-dasharray: none; stroke-linecap: butt; stroke-dashoffset: 0; stroke-linejoin: miter; stroke-miterlimit: 4; fill: url(#SVGID_2895); fill-rule: nonzero; opacity: 1;"  points="29.2,54.94 230.19,-32.31 17.5,-158.85 -232.88,-26.92 -230.19,56.54 -1.35,158.85 232.88,59.23 232.88,-26.92 " />
</g>
<g transform="matrix(0.5 0 0 0.5 298.95 84.56)"  >
<path style="stroke: none; stroke-width: 1; stroke-dasharray: none; stroke-linecap: butt; stroke-dashoffset: 0; stroke-linejoin: miter; stroke-miterlimit: 4; fill: rgb(0,0,0); fill-rule: nonzero; opacity: 1;"  transform=" translate(-734.47, -459.4)" d="M 761.118286 508.335815 L 760.188171 508.853333 L 759.376953 509.542358 L 758.715698 510.376404 L 758.229797 511.323425 L 757.938049 512.347046 L 757.851562 513.407959 L 757.973755 514.465332 L 758.299866 515.478516 L 758.817383 516.408691 L 759.506348 517.219971 L 760.340454 517.881226 L 761.287476 518.367065 L 762.311096 518.658813 L 763.372009 518.745239 L 764.429321 518.623108 L 765.442505 518.296997 L 969.792297 438.795319 L 972.431702 437.286499 L 974.679016 435.239075 L 976.426636 432.751404 L 977.590576 429.942841 L 978.114868 426.948242 L 977.974487 423.911285 L 977.176086 420.977814 L 975.757996 418.288666 L 973.788269 415.972839 L 971.361511 414.141541 L 756.051331 292.008057 L 754.006042 291.121582 L 751.803223 290.780579 L 749.585571 291.007141 L 747.497192 291.78656 L 495.150696 419.980408 L 492.757385 421.606323 L 490.784149 423.722534 L 489.329407 426.223663 L 488.465546 428.985107 L 488.235565 431.869385 L 491.341339 515.317017 L 491.7435 518.089111 L 492.750397 520.703003 L 494.31192 523.028564 L 496.35025 524.94989 L 498.763947 526.371338 L 728.284485 627.164673 L 731.143311 627.99707 L 734.120728 628.024292 L 736.994263 627.244385 L 971.54126 528.379028 L 973.912109 527.024719 L 975.904968 525.158081 L 977.411194 522.880737 L 978.348938 520.316406 L 978.667419 517.604614 L 980.705505 431.451355 L 980.441345 428.769562 L 979.659119 426.190826 L 978.388733 423.81427 L 976.679199 421.731171 L 974.596191 420.021606 L 972.219604 418.751312 L 969.640869 417.969055 L 966.958984 417.704956 L 964.277344 417.969055 L 961.698486 418.751312 L 959.322021 420.021606 L 957.238892 421.731171 L 955.529358 423.81427 L 954.258972 426.190826 L 953.476746 428.769562 L 953.212708 431.451324 L 955.250671 509.860809 L 732.839417 605.334656 L 516.179138 506.658447 L 514.415161 439.141022 L 751.316956 309.558105 L 933.876099 424.132385 z" stroke-linecap="round" />
</g>
<g transform="matrix(0.5 0 0 0.5 363.99 53.09)"  >
<polyline style="stroke: none; stroke-width: 1; stroke-dasharray: none; stroke-linecap: butt; stroke-dashoffset: 0; stroke-linejoin: miter; stroke-miterlimit: 4; fill: rgb(29,16,35); fill-rule: nonzero; opacity: 1;"  points="99.71,29.6 -99.71,-29.6 " />
</g>
<g transform="matrix(0.5 0 0 0.5 367.22 56.32)"  >
<path style="stroke: none; stroke-width: 1; stroke-dasharray: none; stroke-linecap: butt; stroke-dashoffset: 0; stroke-linejoin: miter; stroke-miterlimit: 4; fill: rgb(0,0,0); fill-rule: nonzero; opacity: 1;"  transform=" translate(-871.01, -402.92)" d="M 960.317627 439.36911 L 962.98877 439.883942 L 965.708862 439.867798 L 968.373535 439.321259 L 970.880493 438.265381 L 973.13324 436.740723 L 975.045227 434.805847 L 976.543091 432.535156 L 977.569092 430.0159 L 978.083923 427.344879 L 978.06781 424.624725 L 977.52124 421.959991 L 976.465332 419.453064 L 974.940735 417.200317 L 973.005859 415.2883 L 970.735168 413.790497 L 968.215881 412.764465 L 765.098022 365.987061 L 764.922485 365.953217 L 764.743591 365.954254 L 764.568359 365.990204 L 764.403503 366.059662 L 764.255493 366.159882 L 764.129761 366.287079 L 764.03125 366.436371 L 763.963745 366.602051 L 763.929993 366.777679 L 763.93103 366.956482 L 763.966919 367.131714 L 764.036316 367.296539 L 764.136597 367.444641 L 764.263855 367.570374 L 764.413086 367.668854 L 764.578735 367.736298 z" stroke-linecap="round" />
</g>
<g transform="matrix(0.5 0 0 0.5 240.13 118.39)"  >
<linearGradient id="SVGID_2898" gradientUnits="userSpaceOnUse" gradientTransform="matrix(1 0 0 1 -111.73 -81.07)"  x1="24.580340619999998" y1="30.80772765" x2="198.87730137999998" y2="131.33820735">
<stop offset="0%" style="stop-color:rgba(92, 169, 170, 0.85);"/>
<stop offset="100%" style="stop-color:rgba(75, 150, 191, 0.85);"/>
</linearGradient>
<polyline style="stroke: none; stroke-width: 1; stroke-dasharray: none; stroke-linecap: butt; stroke-dashoffset: 0; stroke-linejoin: miter; stroke-miterlimit: 4; fill: url(#SVGID_2898); fill-rule: nonzero; opacity: 1;"  points="103.61,-7.29 111.73,81.07 -110.53,-14.95 -111.73,-81.07 " />
</g>
<g transform="matrix(0.5 0 0 0.5 238.55 116.8)"  >
<path style="stroke: none; stroke-width: 1; stroke-dasharray: none; stroke-linecap: butt; stroke-dashoffset: 0; stroke-linejoin: miter; stroke-miterlimit: 4; fill: rgb(0,0,0); fill-rule: nonzero; opacity: 1;"  transform=" translate(-613.67, -523.88)" d="M 726.400879 519.223572 L 726.180481 518.076294 L 725.74054 516.994019 L 725.0979 516.018311 L 724.277283 515.186829 L 723.310242 514.531372 L 722.233826 514.077209 L 721.089539 513.841736 L 719.921326 513.833984 L 718.774048 514.054382 L 717.691711 514.494324 L 716.716125 515.136963 L 715.884583 515.957581 L 715.229126 516.924683 L 714.774902 518.001099 L 714.53949 519.145386 L 714.531799 520.313599 L 726.10144 604.709351 L 514.737549 506.46524 L 513.635071 445.829071 L 513.441345 444.171478 L 512.927979 442.583588 L 512.114563 441.126343 L 511.032654 439.855774 L 509.723572 438.820679 L 508.237732 438.060852 L 506.632233 437.60556 L 504.968689 437.472198 L 503.311127 437.665924 L 501.723175 438.179291 L 500.265961 438.992645 L 498.995361 440.074615 L 497.960266 441.383667 L 497.20047 442.869537 L 496.745148 444.475067 L 496.611786 446.13858 L 497.813965 512.259277 L 498.071198 514.187012 L 498.759308 516.006104 L 499.842255 517.621582 L 501.263611 518.949097 L 502.949219 519.919312 L 727.72583 610.109314 L 728.15094 610.242859 L 728.594482 610.286133 L 729.037415 610.237366 L 729.460876 610.098511 L 729.846802 609.875671 L 730.17865 609.578247 L 730.4422 609.218933 L 730.626404 608.81311 L 730.723145 608.378174 L 730.728455 607.932495 z" stroke-linecap="round" />
</g>
<g transform="matrix(0.5 0 0 0.5 256.55 33.03)"  >
<polyline style="stroke: none; stroke-width: 1; stroke-dasharray: none; stroke-linecap: butt; stroke-dashoffset: 0; stroke-linejoin: miter; stroke-miterlimit: 4; fill: rgb(81,156,154); fill-opacity: 0.42; fill-rule: nonzero; opacity: 1;"  points="-101.89,56.8 101.89,-56.8 98.77,-16.29 " />
</g>
<g transform="matrix(0.5 0 0 0.5 256.55 33.02)"  >
<path style="stroke: none; stroke-width: 1; stroke-dasharray: none; stroke-linecap: butt; stroke-dashoffset: 0; stroke-linejoin: miter; stroke-miterlimit: 4; fill: rgb(0,0,0); fill-rule: nonzero; opacity: 1;"  transform=" translate(-649.69, -356.33)" d="M 543.544189 405.491425 L 542.134827 406.469696 L 540.94342 407.704163 L 540.015747 409.147339 L 539.38739 410.743683 L 539.082581 412.432007 L 539.112976 414.147369 L 539.477478 415.823822 L 540.161926 417.396973 L 541.140259 418.806305 L 542.374634 419.997742 L 543.81781 420.925476 L 545.414246 421.553802 L 547.1026 421.858612 L 548.817871 421.828217 L 550.494324 421.463745 L 552.067505 420.779236 L 741.600647 315.110901 L 747.017456 339.927002 L 747.02356 340.210663 L 747.084778 340.487671 L 747.198975 340.747467 L 747.361633 340.97995 L 747.566467 341.176239 L 747.805786 341.328796 L 748.07019 341.431763 L 748.349609 341.48114 L 748.633301 341.475067 L 748.910339 341.413757 L 749.170105 341.299591 L 749.402588 341.136932 L 749.598877 340.932098 L 749.751404 340.692841 L 749.854431 340.428406 L 749.903748 340.149017 L 760.30249 300.200439 L 760.24408 298.318054 L 759.784241 296.491699 L 758.944275 294.80603 L 757.763123 293.339111 L 756.295532 292.158813 L 754.609314 291.319885 L 752.782715 290.861145 L 750.900269 290.803772 L 749.049133 291.150574 L 747.315063 291.885376 z" stroke-linecap="round" />
</g>
<g transform="matrix(0.5 0 0 0.5 241.82 73.6)"  >
<linearGradient id="SVGID_2899" gradientUnits="userSpaceOnUse" gradientTransform="matrix(1 0 0 1 -119.02 -77.64)"  x1="142.82847239999998" y1="1.5527270500000003" x2="95.21898159999999" y2="153.71997795000001">
<stop offset="32.394%" style="stop-color:rgba(79, 170, 172, 0.65);"/>
<stop offset="77.465%" style="stop-color:rgba(64, 172, 191, 0.85);"/>
</linearGradient>
<polyline style="stroke: none; stroke-width: 1; stroke-dasharray: none; stroke-linecap: butt; stroke-dashoffset: 0; stroke-linejoin: miter; stroke-miterlimit: 4; fill: url(#SVGID_2899); fill-rule: nonzero; opacity: 1;"  points="119.02,-77.64 -119.02,-6.02 99.8,77.64 111.57,-29.39 " />
</g>
<g transform="matrix(0.5 0 0 0.5 238.74 75.56)"  >
<path style="stroke: none; stroke-width: 1; stroke-dasharray: none; stroke-linecap: butt; stroke-dashoffset: 0; stroke-linejoin: miter; stroke-miterlimit: 4; fill: rgb(0,0,0); fill-rule: nonzero; opacity: 1;"  transform=" translate(-614.06, -441.4)" d="M 739.425598 360.447601 L 739.541199 360.400055 L 739.645142 360.330872 L 739.733765 360.242737 L 739.803345 360.139038 L 739.85144 360.023743 L 739.876099 359.901215 L 739.876343 359.776337 L 739.852356 359.653717 L 739.804749 359.538177 L 739.735596 359.434143 L 739.647461 359.345612 L 739.543762 359.27594 L 739.428406 359.227844 L 739.305969 359.203217 L 739.18103 359.202911 L 739.058411 359.22702 L 497.459381 419.035278 L 494.987061 420.068115 L 492.779907 421.587067 L 490.932037 423.527222 L 489.52243 425.805786 L 488.611298 428.325439 L 488.237427 430.978577 L 488.416931 433.651886 L 489.142029 436.231232 L 490.381866 438.606476 L 492.083374 440.676178 L 494.173981 442.351929 L 496.564423 443.562195 L 716.975403 523.061768 L 718.854004 523.543457 L 720.792847 523.587524 L 722.691345 523.191528 L 724.450989 522.376221 L 725.980469 521.183716 L 727.200317 519.676147 L 728.047363 517.931519 L 728.477539 516.040405 L 731.910034 408.094818 L 731.910278 408.069885 L 731.905762 408.04538 L 731.896423 408.022217 L 731.882812 408.001404 L 731.865417 407.983521 L 731.844849 407.969482 L 731.82196 407.959686 L 731.797546 407.954529 L 731.772644 407.954254 L 731.748108 407.958832 L 731.724976 407.968109 L 731.704102 407.981689 L 731.686279 407.999115 L 731.672241 408.019714 L 731.662415 408.042603 L 731.657288 408.067017 L 712.758301 503.221436 L 541.333069 432.915894 z" stroke-linecap="round" />
</g>
</svg>