<?xml version="1.0" encoding="UTF-8" standalone="no" ?>
<!DOCTYPE svg PUBLIC "-//W3C//DTD SVG 1.1//EN" "http://www.w3.org/Graphics/SVG/1.1/DTD/svg11.dtd">
<svg xmlns="http://www.w3.org/2000/svg" xmlns:xlink="http://www.w3.org/1999/xlink" version="1.1" width="605" height="146" viewBox="0 0 605 146" xml:space="preserve">
<desc>Created with Fabric.js 3.6.6</desc>
<defs>
</defs>
<g transform="matrix(0.52 0 0 0.52 73.24 84.93)"  >
<linearGradient id="SVGID_1345" gradientUnits="userSpaceOnUse" gradientTransform="matrix(1 0 0 1 -131.92 -86.77)"  x1="171.49822885" y1="3.4707379200000004" x2="92.34520015" y2="170.06615808">
<stop offset="27.586%" style="stop-color:rgba(255, 254, 120, 1);"/>
<stop offset="100%" style="stop-color:rgba(255, 110, 110, 1);"/>
</linearGradient>
<polyline style="stroke: none; stroke-width: 1; stroke-dasharray: ; stroke-linecap: butt; stroke-dashoffset: 0; stroke-linejoin: miter; stroke-miterlimit: 4; fill: url(#SVGID_1345); fill-rule: nonzero; opacity: 1;"  points="123.84,-55.92 131.92,-86.77 -129.23,-41 -131.92,-7.46 78.08,86.77 124.07,-48.96 " />
</g>
<g transform="matrix(0.52 0 0 0.52 74.79 83.94)"  >
<path style="stroke: none; stroke-width: 1; stroke-dasharray: ; stroke-linecap: butt; stroke-dashoffset: 0; stroke-linejoin: round; stroke-miterlimit: 4; fill: rgb(0,0,0); fill-rule: nonzero; opacity: 1;"  transform=" translate(-280.43, -509.72)" d="M 390.268005 452.798218 L 389.909088 455.15097 L 390.047211 457.526947 L 390.67627 459.822235 L 391.76886 461.936615 L 393.2771 463.777618 L 395.135193 465.264832 L 397.261871 466.333191 L 399.564301 466.936066 L 401.941681 467.047058 L 404.2901 466.661346 L 406.507111 465.795807 L 408.495667 464.48822 L 410.168945 462.795776 L 411.453827 460.792419 L 412.294037 458.565674 L 423.292023 428.484955 L 423.753571 425.323547 L 423.506805 422.138184 L 422.563995 419.085541 L 420.971436 416.315857 L 418.807465 413.965363 L 416.17868 412.149689 L 413.214172 410.958191 L 410.060028 410.449524 L 406.871368 410.648621 L 146.335922 459.930695 L 144.056137 460.594299 L 141.975662 461.738434 L 140.194275 463.308228 L 138.797501 465.228241 L 137.85231 467.406372 L 137.40419 469.738068 L 137.099106 503.46759 L 137.187698 505.535828 L 137.776917 507.520264 L 138.831406 509.301697 L 140.287659 510.772949 L 142.058182 511.845612 L 351.164215 608.062988 L 353.261322 608.752502 L 355.455688 608.993652 L 357.652466 608.775879 L 359.756744 608.108704 L 361.677704 607.020874 L 363.332275 605.559448 L 364.649017 603.787598 L 365.570923 601.781738 L 411.941254 466.183167 L 412.430634 464.079193 L 412.500183 461.920166 L 412.147156 459.789062 L 411.385223 457.767761 L 410.2435 455.93399 L 408.765991 454.358154 L 407.00946 453.100861 L 405.041443 452.210388 L 402.937439 451.721008 L 400.778442 451.651459 L 398.647278 452.004456 L 396.626007 452.766449 L 394.792206 453.908112 L 393.2164 455.38562 L 391.959137 457.142151 L 391.068665 459.110199 L 349.202515 583.901184 L 154.406479 498.879822 L 158.338104 479.832031 L 389.738861 442.898193 z" stroke-linecap="round" />
</g>
<g transform="matrix(0.52 0 0 0.52 53.49 84.32)"  >
<path style="stroke: none; stroke-width: 1; stroke-dasharray: none; stroke-linecap: butt; stroke-dashoffset: 0; stroke-linejoin: miter; stroke-miterlimit: 4; fill: rgb(0,0,0); fill-rule: nonzero; opacity: 1;"  transform=" translate(-238.99, -509.97)" d="M 152.76329 460.772491 L 150.757492 460.072449 L 148.653656 459.777222 L 146.532623 459.898071 L 144.475891 460.43042 L 142.562592 461.353729 L 140.866196 462.632629 L 139.451904 464.217896 L 138.373962 466.048615 L 137.67395 468.054413 L 137.378723 470.158295 L 137.499588 472.279327 L 138.031891 474.335999 L 138.955231 476.249329 L 140.234131 477.94577 L 141.819336 479.360077 L 143.65007 480.437988 L 339.525879 560.101379 L 339.666321 560.150391 L 339.813629 560.171143 L 339.962158 560.162598 L 340.106171 560.125366 L 340.240143 560.060669 L 340.358948 559.971191 L 340.458008 559.860107 L 340.533447 559.731934 L 340.582489 559.591553 L 340.603149 559.444214 L 340.594727 559.295715 L 340.557404 559.151611 L 340.492767 559.0177 L 340.403259 558.898926 L 340.292175 558.799866 L 340.164062 558.724365 z" stroke-linecap="round" />
</g>
</svg>