<?xml version="1.0" encoding="UTF-8" standalone="no" ?>
<!DOCTYPE svg PUBLIC "-//W3C//DTD SVG 1.1//EN" "http://www.w3.org/Graphics/SVG/1.1/DTD/svg11.dtd">
<svg xmlns="http://www.w3.org/2000/svg" xmlns:xlink="http://www.w3.org/1999/xlink" version="1.1" width="581" height="169" viewBox="0 0 581 169" xml:space="preserve">
<desc>Created with Fabric.js 3.6.6</desc>
<defs>
</defs>
<g transform="matrix(0.5 0 0 0.5 70.43 96.16)"  >
<linearGradient id="SVGID_2607" gradientUnits="userSpaceOnUse" gradientTransform="matrix(1 0 0 1 -131.92 -115.77)"  x1="171.49822885" y1="4.630736700000001" x2="92.34520015" y2="226.90609830000005">
<stop offset="27.229999999999997%" style="stop-color:rgba(239, 243, 138, 1);"/>
<stop offset="73.709%" style="stop-color:rgba(231, 175, 132, 1);"/>
</linearGradient>
<polyline style="stroke: none; stroke-width: 1; stroke-dasharray: none; stroke-linecap: butt; stroke-dashoffset: 0; stroke-linejoin: miter; stroke-miterlimit: 4; fill: url(#SVGID_2607); fill-rule: nonzero; opacity: 1;"  points="123.84,-26.92 131.92,-115.77 -129.23,-70 -131.92,21.54 78.08,115.77 124.07,-19.96 " />
</g>
<g transform="matrix(0.5 0 0 0.5 71.91 95.22)"  >
<path style="stroke: none; stroke-width: 1; stroke-dasharray: none; stroke-linecap: butt; stroke-dashoffset: 0; stroke-linejoin: miter; stroke-miterlimit: 4; fill: rgb(0,0,0); fill-rule: nonzero; opacity: 1;"  transform=" translate(-280.39, -480.72)" d="M 389.943451 454.651245 L 389.960205 456.882904 L 390.412048 459.06842 L 391.281555 461.123779 L 392.535339 462.970001 L 394.125214 464.536163 L 395.990082 465.762054 L 398.058289 466.600555 L 400.250305 467.019501 L 402.481964 467.002747 L 404.66748 466.550903 L 406.722809 465.681396 L 408.569031 464.427612 L 410.135193 462.837738 L 411.361115 460.97287 L 412.199646 458.904694 L 412.61853 456.712646 L 423.702637 368.140472 L 423.623444 364.844849 L 422.797058 361.653564 L 421.266663 358.733734 L 419.112549 356.238281 L 416.447479 354.298035 L 413.41098 353.014496 L 410.162262 352.454926 L 406.871368 352.648712 L 146.335922 401.930786 L 143.971741 402.629822 L 141.826736 403.845123 L 140.011917 405.513733 L 138.621155 407.549377 L 137.726471 409.84668 L 137.374191 412.286713 L 137.075714 503.894928 L 137.250992 505.872284 L 137.883224 507.754059 L 138.937363 509.436157 L 140.355133 510.825623 L 142.058182 511.845612 L 351.164215 608.062988 L 353.261322 608.752502 L 355.455688 608.993652 L 357.652466 608.775879 L 359.756744 608.108704 L 361.677704 607.020874 L 363.332275 605.559448 L 364.649017 603.787598 L 365.570923 601.781738 L 411.941254 466.183167 L 412.430634 464.079193 L 412.500183 461.920166 L 412.147156 459.789062 L 411.385223 457.767761 L 410.2435 455.93399 L 408.765991 454.358154 L 407.00946 453.100861 L 405.041443 452.210388 L 402.937439 451.721008 L 400.778442 451.651459 L 398.647278 452.004456 L 396.626007 452.766449 L 394.792206 453.908112 L 393.2164 455.38562 L 391.959137 457.142151 L 391.068665 459.110199 L 349.202515 583.901184 L 154.118988 498.750824 L 158.779541 421.754761 L 393.309418 384.272552 z" stroke-linecap="round" />
</g>
<g transform="matrix(0.5 0 0 0.5 51.21 80.85)"  >
<path style="stroke: none; stroke-width: 1; stroke-dasharray: none; stroke-linecap: butt; stroke-dashoffset: 0; stroke-linejoin: miter; stroke-miterlimit: 4; fill: rgb(0,0,0); fill-rule: nonzero; opacity: 1;"  transform=" translate(-238.99, -451.97)" d="M 152.76329 402.772583 L 150.757492 402.07254 L 148.653656 401.777283 L 146.532623 401.898163 L 144.475891 402.430511 L 142.562592 403.353851 L 140.866196 404.632751 L 139.451904 406.217987 L 138.373962 408.048706 L 137.67395 410.054535 L 137.378723 412.158356 L 137.499588 414.279388 L 138.031891 416.33609 L 138.955231 418.249451 L 140.234131 419.945862 L 141.819336 421.360168 L 143.65007 422.43808 L 339.525879 502.101501 L 339.666321 502.150513 L 339.813629 502.171204 L 339.962158 502.16275 L 340.106171 502.125458 L 340.240143 502.060791 L 340.358948 501.971252 L 340.458008 501.86026 L 340.533447 501.732056 L 340.582489 501.591614 L 340.603149 501.444305 L 340.594727 501.295776 L 340.557404 501.151764 L 340.492767 501.017761 L 340.403259 500.898987 L 340.292175 500.799957 L 340.164062 500.724457 z" stroke-linecap="round" />
</g>
</svg>