<?xml version="1.0" encoding="UTF-8" standalone="no" ?>
<!DOCTYPE svg PUBLIC "-//W3C//DTD SVG 1.1//EN" "http://www.w3.org/Graphics/SVG/1.1/DTD/svg11.dtd">
<svg xmlns="http://www.w3.org/2000/svg" xmlns:xlink="http://www.w3.org/1999/xlink" version="1.1" width="605" height="146" viewBox="0 0 605 146" xml:space="preserve">
<desc>Created with Fabric.js 3.6.6</desc>
<defs>
</defs>
<g transform="matrix(0.52 0 0 0.52 533.13 84.23)"  >
<linearGradient id="SVGID_1352" gradientUnits="userSpaceOnUse" gradientTransform="matrix(1 0 0 1 -125.19 -82.73)"  x1="102.65660277999997" y1="1.65459991" x2="147.72535521999995" y2="163.80539109">
<stop offset="33.333%" style="stop-color:rgba(239, 237, 124, 1);"/>
<stop offset="100%" style="stop-color:rgba(218, 97, 97, 1);"/>
</linearGradient>
<polyline style="stroke: none; stroke-width: 1; stroke-dasharray: ; stroke-linecap: butt; stroke-dashoffset: 0; stroke-linejoin: miter; stroke-miterlimit: 4; fill: url(#SVGID_1352); fill-rule: nonzero; opacity: 1;"  points="-125.19,80.04 -122.92,38.68 -103.28,-82.73 125.19,-15.42 122.5,10.04 -117.11,82.73 " />
</g>
<g transform="matrix(0.52 0 0 0.52 533.9 82.52)"  >
<path style="stroke: none; stroke-width: 1; stroke-dasharray: ; stroke-linecap: butt; stroke-dashoffset: 0; stroke-linejoin: miter; stroke-miterlimit: 4; fill: rgb(0,0,0); fill-rule: nonzero; opacity: 1;"  transform=" translate(-1163.31, -506.98)" d="M 1027.70166 589.804993 L 1027.795288 591.678101 L 1028.276245 593.490723 L 1029.123657 595.163818 L 1030.300171 596.624146 L 1031.754761 597.807922 L 1033.423706 598.663391 L 1035.234009 599.153198 L 1037.106567 599.25592 L 1038.959717 598.967102 L 1040.712158 598.299316 L 1042.287354 597.281738 L 1043.616821 595.958862 L 1044.641968 594.388489 L 1045.318359 592.639343 L 1045.616211 590.78772 L 1045.585083 549.662231 L 1070.896851 447.10376 L 1274.107666 503.485687 L 1274.859253 512.452148 L 1042.200439 584.631165 L 1040.618652 585.286377 L 1039.195068 586.23761 L 1037.984497 587.448242 L 1037.033325 588.871826 L 1036.378174 590.453613 L 1036.044312 592.132812 L 1036.044312 593.844849 L 1036.378296 595.524048 L 1037.033447 597.105835 L 1037.984863 598.529358 L 1039.195435 599.73999 L 1040.619019 600.691101 L 1042.200806 601.346252 L 1043.879883 601.680237 L 1045.592041 601.680176 L 1047.27124 601.34613 L 1287.327881 530.11676 L 1289.525269 529.157471 L 1291.439941 527.714417 L 1292.967651 525.866455 L 1294.024902 523.714478 L 1294.553711 521.375977 L 1298.92688 496.092651 L 1298.898071 493.33075 L 1298.235962 490.649261 L 1296.976074 488.191345 L 1295.185547 486.088257 L 1292.960083 484.452332 L 1290.418579 483.37088 L 1062.892944 412.858002 L 1059.70752 412.276917 L 1056.471069 412.379456 L 1053.328857 413.161041 L 1050.421631 414.586578 L 1047.879639 416.592255 L 1045.816895 419.088135 L 1044.325806 421.962311 L 1043.473267 425.086029 L 1032.326294 547.875122 z" stroke-linecap="round" />
</g>
<g transform="matrix(0.52 0 0 0.52 546.65 88.03)"  >
<path style="stroke: none; stroke-width: 1; stroke-dasharray: ; stroke-linecap: butt; stroke-dashoffset: 0; stroke-linejoin: miter; stroke-miterlimit: 4; fill: rgb(0,0,0); fill-rule: nonzero; opacity: 1;"  transform=" translate(-1187.84, -517.56)" d="M 1290.186401 506.366699 L 1292.375488 505.531494 L 1294.359619 504.285309 L 1296.0625 502.675934 L 1297.418701 500.76532 L 1298.375977 498.626801 L 1298.897705 496.34259 L 1298.963989 494.000488 L 1298.571777 491.690521 L 1297.736694 489.501404 L 1296.490479 487.517273 L 1294.881104 485.814392 L 1292.970459 484.458221 L 1290.832031 483.500854 L 1288.547729 482.979065 L 1286.205811 482.912933 L 1283.89563 483.305023 L 1076.706543 552.2099 z" stroke-linecap="round" />
</g>
</svg>