<?xml version="1.0" encoding="UTF-8" standalone="no" ?>
<!DOCTYPE svg PUBLIC "-//W3C//DTD SVG 1.1//EN" "http://www.w3.org/Graphics/SVG/1.1/DTD/svg11.dtd">
<svg xmlns="http://www.w3.org/2000/svg" xmlns:xlink="http://www.w3.org/1999/xlink" version="1.1" width="581" height="169" viewBox="0 0 581 169" xml:space="preserve">
<desc>Created with Fabric.js 3.6.6</desc>
<defs>
</defs>
<g transform="matrix(0.5 0 0 0.5 512.64 95.49)"  >
<linearGradient id="SVGID_2892" gradientUnits="userSpaceOnUse" gradientTransform="matrix(1 0 0 1 -125.19 -111.73)"  x1="87.63368529999997" y1="4.469198600000001" x2="162.74827269999997" y2="218.99073140000004">
<stop offset="33.803%" style="stop-color:rgba(249, 250, 143, 1);"/>
<stop offset="86.854%" style="stop-color:rgba(235, 149, 149, 1);"/>
</linearGradient>
<polyline style="stroke: none; stroke-width: 1; stroke-dasharray: none; stroke-linecap: butt; stroke-dashoffset: 0; stroke-linejoin: miter; stroke-miterlimit: 4; fill: url(#SVGID_2892); fill-rule: nonzero; opacity: 1;"  points="-125.19,109.04 -122.92,9.68 -103.28,-111.73 125.19,-44.42 122.5,39.04 -117.11,111.73 " />
</g>
<g transform="matrix(0.5 0 0 0.5 513.38 93.85)"  >
<path style="stroke: none; stroke-width: 1; stroke-dasharray: none; stroke-linecap: butt; stroke-dashoffset: 0; stroke-linejoin: miter; stroke-miterlimit: 4; fill: rgb(0,0,0); fill-rule: nonzero; opacity: 1;"  transform=" translate(-1163.34, -477.98)" d="M 1027.690552 590.091614 L 1027.822998 591.845154 L 1028.294922 593.539246 L 1029.088257 595.108643 L 1030.172607 596.493164 L 1031.506226 597.639587 L 1033.03772 598.503784 L 1034.708618 599.05249 L 1036.454224 599.264771 L 1038.207764 599.132385 L 1039.901855 598.6604 L 1041.471313 597.867065 L 1042.855835 596.782776 L 1044.002197 595.449219 L 1044.866455 593.917603 L 1045.415161 592.246826 L 1045.627441 590.501099 L 1045.602295 491.556396 L 1070.896851 389.103821 L 1274.797119 445.688904 L 1274.329468 512.612793 L 1042.200439 584.631165 L 1040.618652 585.286377 L 1039.195068 586.23761 L 1037.984497 587.448242 L 1037.033325 588.871826 L 1036.378174 590.453613 L 1036.044312 592.132812 L 1036.044312 593.844849 L 1036.378296 595.524048 L 1037.033447 597.105835 L 1037.984863 598.529358 L 1039.195435 599.73999 L 1040.619019 600.691101 L 1042.200806 601.346252 L 1043.879883 601.680237 L 1045.592041 601.680176 L 1047.27124 601.34613 L 1287.327881 530.11676 L 1289.654297 529.080811 L 1291.653809 527.503906 L 1293.203613 525.483215 L 1294.208008 523.143127 L 1294.605347 520.627686 L 1298.986938 437.221283 L 1298.784424 434.611816 L 1298.018677 432.108978 L 1296.726562 429.832855 L 1294.969971 427.892517 L 1292.83313 426.381073 L 1290.418579 425.371002 L 1062.892944 354.858124 L 1059.70752 354.276978 L 1056.471069 354.379517 L 1053.328857 355.161102 L 1050.421631 356.5867 L 1047.879639 358.592346 L 1045.816895 361.088226 L 1044.325806 363.962433 L 1043.473267 367.08609 L 1032.326294 489.875214 z" stroke-linecap="round" />
</g>
<g transform="matrix(0.5 0 0 0.5 525.62 84.64)"  >
<path style="stroke: none; stroke-width: 1; stroke-dasharray: none; stroke-linecap: butt; stroke-dashoffset: 0; stroke-linejoin: miter; stroke-miterlimit: 4; fill: rgb(0,0,0); fill-rule: nonzero; opacity: 1;"  transform=" translate(-1187.84, -459.56)" d="M 1290.186401 448.366791 L 1292.375488 447.531616 L 1294.359619 446.2854 L 1296.0625 444.676056 L 1297.418701 442.765411 L 1298.375977 440.626892 L 1298.897705 438.342712 L 1298.963989 436.00061 L 1298.571777 433.690613 L 1297.736694 431.501495 L 1296.490479 429.517365 L 1294.881104 427.814484 L 1292.970459 426.458313 L 1290.832031 425.500946 L 1288.547729 424.979156 L 1286.205811 424.913025 L 1283.89563 425.305084 L 1076.706543 494.210022 z" stroke-linecap="round" />
</g>
</svg>